<svg xmlns="http://www.w3.org/2000/svg" xmlns:xlink="http://www.w3.org/1999/xlink" width="396" height="252" viewBox="0 0 396 252">
  <defs>
    <clipPath id="clip-path">
      <rect id="Rectángulo_456494" data-name="Rectángulo 456494" width="359.106" height="248.99" fill="none"/>
    </clipPath>
    <clipPath id="clip-path-3">
      <rect id="Rectángulo_456492" data-name="Rectángulo 456492" width="54.678" height="67.515" fill="none"/>
    </clipPath>
  </defs>
  <g id="Grupo_1192097" data-name="Grupo 1192097" transform="translate(-186 -741)">
    <rect id="Rectángulo_456419" data-name="Rectángulo 456419" width="396" height="252" transform="translate(186 741)" fill="none"/>
    <g id="Grupo_1192096" data-name="Grupo 1192096" transform="translate(204 743)">
      <g id="Grupo_1192095" data-name="Grupo 1192095" clip-path="url(#clip-path)">
        <g id="Grupo_1192094" data-name="Grupo 1192094">
          <g id="Grupo_1192093" data-name="Grupo 1192093" clip-path="url(#clip-path)">
            <path id="Trazado_1003374" data-name="Trazado 1003374" d="M200.272,232.913c-42.908-28.4-50.234-18.995-88.738-1.505-41.712,18.948-67.011,1.418-69.732-28.586-5.567-61.379,76.726-34.351,68.005-99.482-6.424-47.988,16-69.185,46.245-74.21,29.922-4.971,71.862,4.906,69.672,50.4-1.212,25.167,36.218,35.261,60.528,47.148,36.553,17.875,31.276,64.5,16.457,85.627-24.909,35.513-62.323,47.157-102.437,20.607" transform="translate(-3.243 -2.184)" fill="#b8fedb"/>
            <rect id="Rectángulo_456489" data-name="Rectángulo 456489" width="33.253" height="107.016" transform="translate(166.543 134.597)" fill="#95ebba"/>
            <path id="Trazado_1003375" data-name="Trazado 1003375" d="M226.356,154.968H165.9L196.125,106Z" transform="translate(-12.955 -8.278)" fill="#95ebba"/>
            <rect id="Rectángulo_456490" data-name="Rectángulo 456490" width="42.305" height="15.116" transform="translate(104.845 226.498)" fill="#c9e1f9"/>
            <rect id="Rectángulo_456491" data-name="Rectángulo 456491" width="17.499" height="121.234" transform="translate(129.651 120.379)" fill="#95ebba"/>
            <path id="Trazado_1003376" data-name="Trazado 1003376" d="M164.685,135.3H132.869l15.907-25.771Z" transform="translate(-10.376 -8.553)" fill="#95ebba"/>
            <path id="Trazado_1003377" data-name="Trazado 1003377" d="M80.029,168.057l.2-8.86-10.584-2.638a2.466,2.466,0,0,1-1.693-1.549c-.16-.427-.335-.845-.519-1.259a2.363,2.363,0,0,1,.173-2.294l6.049-8.938-6.068-6.46-9.291,5.476a2.859,2.859,0,0,1-2.67.085q-.86-.4-1.753-.733a2.858,2.858,0,0,1-1.831-2.028L49.661,128.3H40.8l-2.385,10.583a3.09,3.09,0,0,1-1.846,2.211q-.59.235-1.165.5a3.089,3.089,0,0,1-2.848-.182l-9.071-5.346-6.069,6.46L23,150.766a3.6,3.6,0,0,1,.337,3.419c-.041.1-.083.2-.124.3a3.6,3.6,0,0,1-2.627,2.172l-9.655,1.949-.2,8.86,10.315,2.57a3.039,3.039,0,0,1,2.065,1.876c.006.015.013.03.018.044a3.028,3.028,0,0,1-.262,2.832l-5.7,8.429,6.068,6.46,8.565-5.047a2.769,2.769,0,0,1,2.691-.029q.754.39,1.538.727a2.763,2.763,0,0,1,1.637,1.912l2.23,9.9h8.863l2.03-9.007a2.689,2.689,0,0,1,1.86-1.953,23.831,23.831,0,0,0,2.348-.872,2.677,2.677,0,0,1,2.433.116l8.79,5.181,6.068-6.46-5.1-7.542a2.8,2.8,0,0,1-.148-2.815q.459-.933.838-1.91A2.8,2.8,0,0,1,69.9,170.1ZM48.6,178.978a15.954,15.954,0,1,1,12.526-12.525A15.969,15.969,0,0,1,48.6,178.978" transform="translate(-0.838 -10.019)" fill="#9cb9b4"/>
            <path id="Trazado_1003378" data-name="Trazado 1003378" d="M380.168,230.293l.163-7.249-8.659-2.157a2.016,2.016,0,0,1-1.384-1.268q-.2-.523-.425-1.03a1.935,1.935,0,0,1,.142-1.877l4.948-7.312-4.964-5.285-7.6,4.48a2.34,2.34,0,0,1-2.185.069q-.7-.326-1.434-.6a2.34,2.34,0,0,1-1.5-1.659l-1.947-8.642h-7.251l-1.951,8.658a2.528,2.528,0,0,1-1.51,1.809q-.483.192-.953.407a2.526,2.526,0,0,1-2.33-.149l-7.42-4.374-4.965,5.285,4.566,6.747a2.942,2.942,0,0,1,.277,2.8c-.034.082-.068.164-.1.246a2.947,2.947,0,0,1-2.15,1.777l-7.9,1.595-.163,7.248,8.439,2.1a2.488,2.488,0,0,1,1.69,1.535l.015.036a2.478,2.478,0,0,1-.214,2.317l-4.667,6.9,4.964,5.284,7.007-4.128a2.266,2.266,0,0,1,2.2-.025q.617.319,1.257.595a2.26,2.26,0,0,1,1.34,1.564l1.825,8.1h7.251l1.66-7.369a2.2,2.2,0,0,1,1.522-1.6,19.3,19.3,0,0,0,1.921-.714,2.186,2.186,0,0,1,1.989.095l7.192,4.239,4.964-5.285-4.175-6.17a2.288,2.288,0,0,1-.122-2.3q.376-.763.686-1.563a2.286,2.286,0,0,1,1.664-1.453Zm-25.712,8.934A13.052,13.052,0,1,1,364.7,228.98a13.064,13.064,0,0,1-10.247,10.247" transform="translate(-25.261 -15.444)" fill="#9cb9b4"/>
            <path id="Trazado_1003379" data-name="Trazado 1003379" d="M265.651,202.907c-1.621,1.749-13.111,25.379-21.016,25.762-5.729.277-11.4-17.476-11.4-17.476s7.745,1.233,15.045-19.048c6.149-17.088,17.375,10.762,17.375,10.762" transform="translate(-18.214 -14.572)" fill="#fbb99d"/>
            <path id="Trazado_1003380" data-name="Trazado 1003380" d="M239.047,230.422c-13.134-.478-49.116-17.046-49.116-17.046l7.18-4.938,44.745,6.1s10.325,16.355-2.808,15.887" transform="translate(-14.832 -16.278)" fill="#fbb99d"/>
            <path id="Trazado_1003381" data-name="Trazado 1003381" d="M198.235,206.613a12.8,12.8,0,0,1-.811-2.848,15.943,15.943,0,0,0-2.709-4.7c-.6-.807-.942-3.227-2.222-3.237-2.095-.018-.455,3.853-.4,4.809a2.11,2.11,0,0,1-1.119,2.17,2.553,2.553,0,0,1-1.667-.153,52.238,52.238,0,0,1-4.972-2.245c-.857-.4-1.727-.739-2.605-1.086a10.028,10.028,0,0,0-2.119-.944.964.964,0,0,0-1.105.977c.063.557.6.624.994.87.891.552,1.766,1.129,2.638,1.715.192.128,1.142.586,1.166.845.119,1.257-2.446.062-2.86-.109a5.476,5.476,0,0,0-3.288-.576.515.515,0,0,0-.376.237c-.1.224.1.466.293.617,1.134.889,2.556,1.336,3.669,2.251.182.148.371.356.327.588-.172.934-2,.513-2.605.428-.385-.054-.869-.083-1.061.26a.67.67,0,0,0,.112.721,1.9,1.9,0,0,0,.621.443,18.659,18.659,0,0,0,2.035,1.034c.339.125,1.374.407,1.308.907a.354.354,0,0,1-.166.232,1.909,1.909,0,0,1-1.028.179.936.936,0,0,0-.89.457c-.162.414.21.839.571,1.093a16.111,16.111,0,0,0,4.4,1.827q2.38.767,4.821,1.314c3.054.683,6.265.707,9.245,1.671a5.509,5.509,0,0,0,1.368.336,3.577,3.577,0,0,0,2.421-.989,5.878,5.878,0,0,0,2.126-4.527c-.019-.549.027-1.67-.42-1.992a4.593,4.593,0,0,0-1.485-.289,11.937,11.937,0,0,1-1.665-.423,5.2,5.2,0,0,1-2.541-1.862" transform="translate(-13.803 -15.293)" fill="#fbb99d"/>
            <path id="Trazado_1003382" data-name="Trazado 1003382" d="M271.882,157.035c5.939-7.09,14.148-11.539,20.4-6.627,3.547,2.787,4.731,11.862,2.718,17.477-3.868,10.792-17.658,33.878-33.549,45.191-5.821,4.144-22.355-4.057-17.4-15.392,6.506-14.879,19.471-30.665,27.833-40.649" transform="translate(-18.987 -11.584)" fill="#ed3748"/>
            <path id="Trazado_1003383" data-name="Trazado 1003383" d="M356.557,262.907c14.316,3.04-30.083,7.114-173.86,6.088-195.1-1.4-163.185-6.4-171.92-6.8-45.1-2.015,59.023-3.97,169.938-3.97s170.173,3.478,175.843,4.678" transform="translate(0 -20.166)" fill="#95ebba"/>
            <path id="Trazado_1003384" data-name="Trazado 1003384" d="M189.265,202.045a4.063,4.063,0,1,1,4.063,4.063,4.068,4.068,0,0,1-4.063-4.063m.779,0a3.284,3.284,0,1,0,3.284-3.284,3.288,3.288,0,0,0-3.284,3.284" transform="translate(-14.78 -15.461)" fill="#2c4a7e"/>
            <path id="Trazado_1003385" data-name="Trazado 1003385" d="M129.706,154.718s71.543,52.522,58.711,61.659c-24.774,17.643-72.238-29.209-72.238-29.209Z" transform="translate(-9.073 -12.083)" fill="#fdd95f"/>
            <path id="Trazado_1003386" data-name="Trazado 1003386" d="M214.187,163.438a14.8,14.8,0,0,0-1.364-2.856,16.491,16.491,0,0,1-1.167-5.454c-.089-1.01-1.525-3.25-.519-3.948,1.648-1.144,3.077,3.029,3.7,3.872a2.688,2.688,0,0,0,2.417,1.242,2.1,2.1,0,0,0,1.215-1.029,42.405,42.405,0,0,0,2.36-4.585c.4-.8.848-1.56,1.3-2.327.337-.572.525-1.51,1.017-1.944a1.093,1.093,0,0,1,1.564.234c.343.508-.034.853-.175,1.276-.317.949-.6,1.912-.883,2.877-.061.212-.492,1.114-.328,1.347.792,1.132,1.983-1.265,2.191-1.632a4.419,4.419,0,0,1,2.2-2.261.551.551,0,0,1,.464,0,.614.614,0,0,1,.2.681c-.274,1.365-1.085,2.512-1.323,3.89a.71.71,0,0,0,.155.676c.795.7,1.945-.64,2.368-1.04.266-.253.63-.539,1.023-.35a.8.8,0,0,1,.419.673,1.6,1.6,0,0,1-.182.71,14.879,14.879,0,0,1-.883,1.976c-.18.29-.8,1.087-.4,1.476a.436.436,0,0,0,.3.107,1.687,1.687,0,0,0,.94-.4.976.976,0,0,1,1.03-.09,1.1,1.1,0,0,1,.316,1.236,12.942,12.942,0,0,1-2.2,3.921,43.17,43.17,0,0,1-2.9,3.713,43.675,43.675,0,0,1-4.449,4.419c-1.387,1.193-3.079,2.458-5.225,2.35a8.871,8.871,0,0,1-1.826-.344,9.6,9.6,0,0,1-2.337-.889,3.983,3.983,0,0,1-1.713-1.806.654.654,0,0,1-.068-.31.567.567,0,0,1,.184-.317,16.269,16.269,0,0,0,1.865-2.139,4.432,4.432,0,0,0,.7-2.953" transform="translate(-16.461 -11.416)" fill="#cc8b6e"/>
            <path id="Trazado_1003387" data-name="Trazado 1003387" d="M177.591,203.237c-2.14,3.166-5.755,11.961-1.4,15.972s16.743,1.575,26.034-10.038,16.66-36.458,16.66-36.458l-8.8-5s-25.761,25.552-32.5,35.526" transform="translate(-13.599 -13.097)" fill="#fdd95f"/>
            <path id="Trazado_1003388" data-name="Trazado 1003388" d="M131.711,164.25C125.7,145,96.723,144,73.155,147.57c-15.886,2.406-26.109,7.564-27.874,27.409-1.127,12.654,1.335,65.489,9.09,80.144h88.514s1.675-49.719-11.174-90.873" transform="translate(-3.516 -11.398)" fill="#feb824"/>
            <path id="Trazado_1003389" data-name="Trazado 1003389" d="M78.139,119.932s24.27,5.214,22.918,7.2,1.012,5.977,1.073,9.844c.077,4.2,2.863,8.639,6.6,12.876,2.617,2.966-2.032,6.511-6.168,7.29-17.818,3.35-29.066-3.308-25.3-9.074,8.465-12.958.875-28.133.875-28.133" transform="translate(-5.977 -9.366)" fill="#cc8b6e"/>
            <path id="Trazado_1003390" data-name="Trazado 1003390" d="M102.1,136.939c-.061-3.867-2.429-7.864-1.072-9.844s-24.833-7.6-24.833-7.6a18.87,18.87,0,0,1,4.653,10.176c7.273,9.836,17.649,12.877,24.22,15.436a19.738,19.738,0,0,1-2.968-8.164" transform="translate(-5.951 -9.332)" fill="#8b482a"/>
            <path id="Trazado_1003391" data-name="Trazado 1003391" d="M102.3,89.324c9.55,7.216,17.7,32.139,7.7,44.011-5.49,6.521-25.459-.406-34.826-14.6-1.219-1.846-4.2-12.4.785-23.914,2.24-5.214,16.413-13,26.339-5.5" transform="translate(-5.714 -6.733)" fill="#cc8b6e"/>
            <path id="Trazado_1003392" data-name="Trazado 1003392" d="M112.329,108.206c-.013,1.529-4.889-23.132-19.454-13-1.941,1.349-16.112-2.825-10.076,15.791.337,1.043-.812,2.343-1.307,3.311-.616,1.189,1.3,3.916,1.27,5.255-.026,1.292-3.909-2.672-3.831-1.385.114,1.955,3.495,7.4.686,8.151-1.362.362-3.02-1.83-4.02-2.568a32.088,32.088,0,0,1-6.139-5.617c-2.628-2.94-4.116-6.922-5.613-10.572-2.851-6.95-5.254-14.12-1.683-17.285C72.174,81.416,91.11,75.925,98.489,76.8c4.955.584,13.363,25.938,13.467,27.414.093,1.34.384,2.635.372,4" transform="translate(-4.715 -5.99)" fill="#53424d"/>
            <path id="Trazado_1003393" data-name="Trazado 1003393" d="M86.216,119.537s-6.894-6.066-10.7-4.321,1.535,12.111,9.387,10.677c7.833-1.428,3.428-4.715,1.308-6.356" transform="translate(-5.8 -8.973)" fill="#cc8b6e"/>
            <path id="Trazado_1003394" data-name="Trazado 1003394" d="M95.052,116.813c-.179-.09.2.083.265.106a3.846,3.846,0,0,0,.9.215c1.2.106,1.743-.687,2.024-1.706.178-.639,1.182-.286,1.007.349-.621,2.258-2.744,2.93-4.811,1.88-.608-.309.014-1.151.616-.844" transform="translate(-7.355 -8.988)" fill="#1e100c"/>
            <path id="Trazado_1003395" data-name="Trazado 1003395" d="M107.1,112.516a3.64,3.64,0,0,0,1.006.654c1.177.506,1.833-.223,2.253-1.269.25-.618,1.256-.269,1.008.35-.5,1.235-1.4,2.345-2.919,2.095a4.321,4.321,0,0,1-2.166-1.161c-.493-.46.33-1.125.818-.668" transform="translate(-8.288 -8.713)" fill="#1e100c"/>
            <path id="Trazado_1003396" data-name="Trazado 1003396" d="M108.814,106.573a3.177,3.177,0,0,0-3.761,2.2c-.29.774-1.457.238-1.168-.533a4.391,4.391,0,0,1,5.148-2.927.642.642,0,0,1-.218,1.264" transform="translate(-8.109 -8.216)" fill="#552b19"/>
            <path id="Trazado_1003397" data-name="Trazado 1003397" d="M97.657,111.285a3.178,3.178,0,0,0-4.216,1.1c-.49.667-1.467-.168-.98-.83a4.39,4.39,0,0,1,5.748-1.423c.736.375.185,1.534-.552,1.158" transform="translate(-7.21 -8.559)" fill="#552b19"/>
            <path id="Trazado_1003398" data-name="Trazado 1003398" d="M102.755,111.565a6.418,6.418,0,0,0,.227,3.56c.668,1.586,2.6,2.107,3.772,3.345,1.6,1.7.344,2.966-1.842,3.859-.53.215-.868-.446-.341-.66,4.9-2-1.291-3.949-2.3-5.975a6.786,6.786,0,0,1-.4-4.192c.088-.47.973-.41.885.063" transform="translate(-7.944 -8.682)" fill="#8b482a"/>
            <path id="Trazado_1003399" data-name="Trazado 1003399" d="M100.823,126.086s.149,4.414,3.785,4.042,3.612-4.344,3.612-4.344Z" transform="translate(-7.874 -9.823)" fill="#faffff"/>
            <path id="Trazado_1003400" data-name="Trazado 1003400" d="M93.228,125.415a2.492,2.492,0,1,0,1.207-3.311,2.49,2.49,0,0,0-1.207,3.311" transform="translate(-7.262 -9.517)" fill="#c1775d"/>
            <path id="Trazado_1003401" data-name="Trazado 1003401" d="M114.726,116.572a2.522,2.522,0,1,0,.776,3.482,2.522,2.522,0,0,0-.776-3.482" transform="translate(-8.657 -9.073)" fill="#c1775d"/>
            <path id="Trazado_1003402" data-name="Trazado 1003402" d="M274.095,156.081c5.751-18.819,36.771-12.54,57.949-8.66,14.275,2.614,22.991,9.942,21.019,38.4-1.747,25.194-3.113,44.822-5.668,62.589-1.816,12.627-89.4,14.585-86.391-2.826,0,0,.8-49.288,13.091-89.508" transform="translate(-20.377 -11.184)" fill="#ff4650"/>
            <path id="Trazado_1003403" data-name="Trazado 1003403" d="M328.579,147.261S313.806,168.57,295.7,163.224c-8.413-2.484-9.123-9.91-2.517-14.928,6.5-4.938,35.4-1.034,35.4-1.034" transform="translate(-22.549 -11.386)" fill="#fbb99d"/>
            <path id="Trazado_1003404" data-name="Trazado 1003404" d="M293.519,86.151a27.207,27.207,0,0,1,7.061-6.943c4.127-2.813,8.784-3.611,13.7-3.271,5.691.393,19.009,5.873,21.772,21.027,1.313,7.2-1.608,14.788-5.678,20.631-4.291,6.163-11.464,8.021-18.663,8.7a20.675,20.675,0,0,1-8.8-.726,18.568,18.568,0,0,1-8.71-7.137,29.482,29.482,0,0,1-4.811-11.353,27.23,27.23,0,0,1,4.128-20.933" transform="translate(-22.557 -5.924)" fill="#53424d"/>
            <path id="Trazado_1003405" data-name="Trazado 1003405" d="M290.222,149.144s8.43-10.814,8.727-23.845c.075-3.281,5.136-3.7,4.037-5.337s16.02-5.093,16.02-5.093-2.408,19.919,9.688,29.977Z" transform="translate(-22.665 -8.971)" fill="#fbb99d"/>
            <path id="Trazado_1003406" data-name="Trazado 1003406" d="M299.516,127.127c-.111-4.014,4.063-8.3,2.719-10.3s19.6-6.233,19.6-6.233a22.549,22.549,0,0,0-3.262,10.583,38.427,38.427,0,0,1-20.123,11.567Z" transform="translate(-23.307 -8.636)" fill="#dc8162"/>
            <path id="Trazado_1003407" data-name="Trazado 1003407" d="M304.493,80.962C297,86.423,280.8,109.75,292.061,122.872c4.81,5.609,21.064.232,30.616-11.079,3.929-4.639,5.539-15.815,1.882-26.1-1.64-4.657-11.429-11.165-20.065-4.733" transform="translate(-22.506 -6.112)" fill="#fbb99d"/>
            <path id="Trazado_1003408" data-name="Trazado 1003408" d="M328.491,78.59a12.333,12.333,0,0,0-4.772,4.139c-1.171,1.708-2.729,4.767-1.839,6.829.67,1.553,2.03,2.686,3.017,4.058.87,1.21,1.454,2.61,2.353,3.8,1.573,2.082,3.9,3.493,5.968,5.027,2.01,1.493,4.15,1.08,6.432.224,3.684-1.383,7.095-4.033,8.415-7.74,1.431-4.022-1.426-8.184-3.908-11.151a20.87,20.87,0,0,1-1.741-2.2c-2.537-4.031-8.778-4.965-13-3.379q-.47.177-.922.395" transform="translate(-25.116 -6.049)" fill="#53424d"/>
            <path id="Trazado_1003409" data-name="Trazado 1003409" d="M293.1,90.525c1.071,2.621,1.751-1.229,7.931-2.913a11.915,11.915,0,0,1,2.365-.325,5.348,5.348,0,0,1,1.99.192,3.114,3.114,0,0,1,1.992,3.1c.112,2.971,1.435,5.32,3.144,7.673a19.357,19.357,0,0,1,3.951,8.343,10.794,10.794,0,0,0,.505,2.7,7.761,7.761,0,0,1,.637,3.4c-.047,1.128-.34,2.233-.476,3.352a4.219,4.219,0,0,0,1.3,4,8.464,8.464,0,0,0,1.574,1.2,9.251,9.251,0,0,0,3.858,1.3,8.869,8.869,0,0,0,7.982-3.684c3.222-4.3,3.557-10.338,3.338-15.494A71.721,71.721,0,0,0,331.8,92.5a16.528,16.528,0,0,0-4.8-8.651,22.819,22.819,0,0,0-11.929-5.877,23.835,23.835,0,0,0-6.794-.21c-10.725,1.26-16.026,10.7-15.176,12.761" transform="translate(-22.882 -6.061)" fill="#53424d"/>
            <path id="Trazado_1003410" data-name="Trazado 1003410" d="M315.253,112.4s6.231-4.965,9.394-3.261-1.962,10.492-8.612,8.868c-6.634-1.618-2.685-4.278-.782-5.607" transform="translate(-24.392 -8.495)" fill="#fbb99d"/>
            <path id="Trazado_1003411" data-name="Trazado 1003411" d="M308.249,108.9c.148-.1-.169.1-.227.128a3.483,3.483,0,0,1-.785.307c-1.071.245-1.659-.4-2.04-1.289-.239-.555-1.1-.112-.865.442.843,1.961,2.841,2.3,4.578,1.1.51-.354-.156-1.037-.661-.686" transform="translate(-23.763 -8.418)" fill="#1e100c"/>
            <path id="Trazado_1003412" data-name="Trazado 1003412" d="M296.818,106.518a3.284,3.284,0,0,1-.826.715c-1,.6-1.682.027-2.194-.866-.3-.526-1.167-.088-.865.442.6,1.053,1.552,1.943,2.9,1.529a3.94,3.94,0,0,0,1.812-1.317c.388-.478-.438-.974-.822-.5" transform="translate(-22.871 -8.288)" fill="#1e100c"/>
            <path id="Trazado_1003413" data-name="Trazado 1003413" d="M294.5,101.357a2.9,2.9,0,0,1,3.669,1.514c.36.664,1.346.033.99-.626a4,4,0,0,0-5.013-2c-.712.247-.359,1.363.354,1.116" transform="translate(-22.941 -7.809)" fill="#513d38"/>
            <path id="Trazado_1003414" data-name="Trazado 1003414" d="M305.125,104.219a2.9,2.9,0,0,1,3.942.463c.525.543,1.3-.332.783-.87a4,4,0,0,0-5.368-.57c-.618.431.024,1.409.643.977" transform="translate(-23.759 -8.002)" fill="#513d38"/>
            <path id="Trazado_1003415" data-name="Trazado 1003415" d="M300.672,105.076a5.841,5.841,0,0,1,.239,3.243c-.407,1.516-2.089,2.226-2.99,3.489-1.238,1.735.058,2.721,2.143,3.255.5.129.728-.51.225-.639-4.674-1.2.673-3.724,1.333-5.68a6.2,6.2,0,0,0-.159-3.836c-.136-.413-.929-.249-.792.167" transform="translate(-23.228 -8.174)" fill="#dc8162"/>
            <path id="Trazado_1003416" data-name="Trazado 1003416" d="M304.008,117.966s.415,4-2.915,4.119-3.8-3.472-3.8-3.472Z" transform="translate(-23.216 -9.212)" fill="#faffff"/>
            <path id="Trazado_1003417" data-name="Trazado 1003417" d="M311.111,116.027a2.272,2.272,0,1,1-1.5-2.839,2.271,2.271,0,0,1,1.5,2.839" transform="translate(-23.949 -8.831)" fill="#f3a498"/>
            <path id="Trazado_1003418" data-name="Trazado 1003418" d="M291.452,112.5a2.3,2.3,0,1,1-.266,3.24,2.3,2.3,0,0,1,.266-3.24" transform="translate(-22.697 -8.743)" fill="#f3a498"/>
            <path id="Trazado_1003419" data-name="Trazado 1003419" d="M317.765,117.53c1.86,2.6,5.144,9.3-.919,8.7-4.315-.424-1.8-5.2-.3-7.343.36-.513-.462-1.033-.819-.523-2.225,3.18-4.087,9.024,1.828,8.848,6.44-.192,3.152-7.233.928-10.338-.364-.509-1.075.155-.715.657" transform="translate(-24.489 -9.113)" fill="#fb8245"/>
            <path id="Trazado_1003420" data-name="Trazado 1003420" d="M172.377,219.819l-.912-10.788-13.2-1.825a3.01,3.01,0,0,1-2.257-1.661c-.251-.5-.517-.984-.795-1.462a2.885,2.885,0,0,1-.089-2.808l6.183-11.644-8.211-7.055-10.571,7.86a3.49,3.49,0,0,1-3.231.451q-1.1-.373-2.225-.662A3.494,3.494,0,0,1,134.583,188l-4.266-12.521-10.765,1.154L118.033,189.8a3.774,3.774,0,0,1-1.954,2.926c-.457.242-.907.492-1.35.757a3.775,3.775,0,0,1-3.483.149l-11.713-5.312L93,196.951l7.853,9.289a4.4,4.4,0,0,1,.856,4.11c-.038.127-.076.254-.112.381a4.4,4.4,0,0,1-2.908,2.981L87.22,217.334l.911,10.788,12.862,1.778a3.716,3.716,0,0,1,2.753,2.01l.029.052a3.7,3.7,0,0,1,.05,3.474l-5.831,10.98,8.211,7.056,9.745-7.245a3.385,3.385,0,0,1,3.264-.386q.967.376,1.962.683a3.375,3.375,0,0,1,2.237,2.109l4,11.732,10.764-1.153,1.293-11.2a3.284,3.284,0,0,1,2.006-2.614,28.909,28.909,0,0,0,2.738-1.365,3.27,3.27,0,0,1,2.969-.175L158.534,249l6.529-8.636-7.18-8.5a3.415,3.415,0,0,1-.548-3.4q.437-1.193.77-2.429a3.419,3.419,0,0,1,2.238-2.422Zm-36.753,17.355a19.488,19.488,0,1,1,13.583-16.843,19.506,19.506,0,0,1-13.583,16.843" transform="translate(-6.811 -13.704)" fill="#3ca8b2"/>
            <path id="Trazado_1003421" data-name="Trazado 1003421" d="M281.417,227.181l.2-8.685-10.374-2.585a2.418,2.418,0,0,1-1.659-1.518c-.157-.418-.327-.829-.508-1.234a2.316,2.316,0,0,1,.169-2.249l5.93-8.761-5.948-6.332-9.107,5.367a2.8,2.8,0,0,1-2.616.084q-.842-.393-1.719-.718a2.8,2.8,0,0,1-1.794-1.988l-2.332-10.354h-8.687l-2.337,10.371a3.031,3.031,0,0,1-1.81,2.168q-.578.23-1.141.488a3.029,3.029,0,0,1-2.791-.179L226,195.818l-5.949,6.332,5.472,8.083a3.526,3.526,0,0,1,.331,3.351c-.041.1-.082.2-.122.295a3.528,3.528,0,0,1-2.575,2.129l-9.462,1.91-.2,8.684,10.11,2.52a2.982,2.982,0,0,1,2.025,1.838c.006.015.012.029.018.043a2.967,2.967,0,0,1-.256,2.776L219.8,242.04l5.947,6.332,8.394-4.947a2.718,2.718,0,0,1,2.639-.03q.738.383,1.506.714a2.7,2.7,0,0,1,1.6,1.874l2.187,9.7h8.687l1.989-8.827a2.635,2.635,0,0,1,1.824-1.914,22.974,22.974,0,0,0,2.3-.856,2.624,2.624,0,0,1,2.384.114l8.615,5.078,5.948-6.331-5-7.393a2.74,2.74,0,0,1-.146-2.759q.449-.915.821-1.872a2.744,2.744,0,0,1,1.993-1.741Zm-30.805,10.7a15.637,15.637,0,1,1,12.277-12.276,15.651,15.651,0,0,1-12.277,12.276" transform="translate(-16.673 -14.698)" fill="#5969b2"/>
            <path id="Trazado_1003422" data-name="Trazado 1003422" d="M336.226,221.23c-1.269,2.354-7.077,31.075-15.6,33.826-6.176,1.994-17.433-15.35-17.433-15.35s8.807-.973,10.994-24.864c1.841-20.132,22.038,6.388,22.038,6.388" transform="translate(-23.678 -16.188)" fill="#fbb99d"/>
            <path id="Trazado_1003423" data-name="Trazado 1003423" d="M314.553,258.352c-14.476,3.376-58.483-3.727-58.483-3.727l6.43-7.415,50.589-6.713s15.936,14.468,1.464,17.855" transform="translate(-19.997 -18.781)" fill="#fbb99d"/>
            <path id="Trazado_1003424" data-name="Trazado 1003424" d="M263.247,245.273a13.915,13.915,0,0,1-1.7-2.812,17.5,17.5,0,0,0-4.3-4.235c-.888-.685-1.949-3.178-3.348-2.81-2.292.6.6,4.263.938,5.27a2.338,2.338,0,0,1-.6,2.657,2.931,2.931,0,0,1-1.863.329,59.451,59.451,0,0,1-6.068-.933c-1.051-.177-2.1-.281-3.154-.393a11.36,11.36,0,0,0-2.583-.384,1.088,1.088,0,0,0-.928,1.375c.228.577.831.492,1.334.638,1.129.328,2.25.688,3.368,1.057.246.081,1.415.29,1.515.561.488,1.312-2.653.79-3.153.73a6.292,6.292,0,0,0-3.754.355.586.586,0,0,0-.343.365c-.049.27.242.469.5.574,1.492.616,3.171.675,4.647,1.326.241.106.506.272.525.535.078,1.051-2.035,1.14-2.722,1.229-.436.055-.973.169-1.084.593a.729.729,0,0,0,.328.739,2.13,2.13,0,0,0,.8.289,20.851,20.851,0,0,0,2.516.506c.406.035,1.615.03,1.687.585a.394.394,0,0,1-.115.3,2.194,2.194,0,0,1-1.071.5c-.381.118-.794.358-.841.754-.059.491.468.836.935,1a18.334,18.334,0,0,0,5.32.657q2.817.119,5.637-.019c3.528-.171,7.041-1.1,10.569-.947a6.274,6.274,0,0,0,1.589-.045,4.11,4.11,0,0,0,2.361-1.777,6.5,6.5,0,0,0,1.03-5.48c-.177-.583-.446-1.8-1.027-2.011a5.246,5.246,0,0,0-1.7.13,13.613,13.613,0,0,1-1.939.039,5.833,5.833,0,0,1-3.305-1.243" transform="translate(-18.633 -18.382)" fill="#fbb99d"/>
            <path id="Trazado_1003425" data-name="Trazado 1003425" d="M330.619,169.627c4.463-9.356,12.155-16.552,20.379-13.139,4.667,1.936,8.548,11.311,7.951,17.923-1.147,12.708-9.619,41.528-23.743,58.355-5.173,6.163-25.564,2.27-23.384-11.342,2.861-17.869,12.514-38.623,18.8-51.8" transform="translate(-24.339 -12.153)" fill="#ed3748"/>
            <path id="Trazado_1003426" data-name="Trazado 1003426" d="M66.1,161.193c21.456,12.891-8.151,58.813-8.151,58.813l-27.1-16.863s9.824-57.228,35.254-41.95" transform="translate(-2.409 -12.386)" fill="#fdd95f"/>
            <path id="Trazado_1003427" data-name="Trazado 1003427" d="M71,186.338s-26.555,84.685-39.351,75.5c-24.708-17.737,4.269-77.8,4.269-77.8Z" transform="translate(-1.692 -14.372)" fill="#fdd95f"/>
            <path id="Trazado_1003428" data-name="Trazado 1003428" d="M87.9,233.293a14.807,14.807,0,0,0,.532-3.121,16.484,16.484,0,0,1,2.19-5.129c.51-.877.627-3.535,1.852-3.525,2.005.016.768,4.249.793,5.3a2.688,2.688,0,0,0,1.26,2.407,2.086,2.086,0,0,0,1.585-.14,41.99,41.99,0,0,0,4.572-2.386c.787-.429,1.592-.785,2.4-1.152.606-.274,1.3-.931,1.951-1a1.094,1.094,0,0,1,1.144,1.093c-.013.611-.519.676-.879.94-.807.593-1.6,1.214-2.379,1.844-.172.137-1.045.625-1.046.911,0,1.381,2.351.108,2.733-.071a4.421,4.421,0,0,1,3.1-.58.559.559,0,0,1,.381.267.615.615,0,0,1-.227.673c-1.011.959-2.336,1.428-3.324,2.417a.711.711,0,0,0-.263.642c.245,1.031,1.959.6,2.535.514.363-.053.825-.077,1.038.3a.8.8,0,0,1-.046.793,1.6,1.6,0,0,1-.557.476,15.01,15.01,0,0,1-1.86,1.1c-.313.134-1.281.426-1.176.977a.435.435,0,0,0,.181.257,1.682,1.682,0,0,0,1,.215.978.978,0,0,1,.894.519,1.1,1.1,0,0,1-.454,1.194,12.9,12.9,0,0,1-4.055,1.937,42.984,42.984,0,0,1-4.507,1.364,43.457,43.457,0,0,1-6.182,1.045c-1.821.176-3.934.234-5.625-1.092a8.913,8.913,0,0,1-1.294-1.332,9.6,9.6,0,0,1-1.4-2.074,3.989,3.989,0,0,1-.36-2.463.656.656,0,0,1,.123-.293.577.577,0,0,1,.335-.151,16.4,16.4,0,0,0,2.756-.674,4.427,4.427,0,0,0,2.276-2.008" transform="translate(-6.43 -17.299)" fill="#cc8b6e"/>
            <path id="Trazado_1003429" data-name="Trazado 1003429" d="M33.75,246.111c-3.572,1.354-11.6,6.457-10.347,12.248s12.774,10.937,27.06,6.8,34.63-20.189,34.63-20.189l-4.307-9.159s-35.78,6.029-47.035,10.3" transform="translate(-1.817 -18.416)" fill="#fdd95f"/>
            <path id="Trazado_1003430" data-name="Trazado 1003430" d="M266.822,107.236a4.488,4.488,0,0,0-2.8,1.027c-1.583-3.364-4.412-5.614-7.65-5.614a7.092,7.092,0,0,0-3.016.693c-1.709-7.138-6.8-12.317-12.81-12.317-5.941,0-10.971,5.058-12.74,12.065a7.007,7.007,0,0,0-2.411-.442c-3.647,0-6.779,2.849-8.189,6.936a4.853,4.853,0,0,0-2.867-.971c-2.735,0-5.032,2.433-5.713,5.735H272.25c0-3.927-2.43-7.113-5.428-7.113" transform="translate(-16.293 -7.108)" fill="#95ebba"/>
            <path id="Trazado_1003431" data-name="Trazado 1003431" d="M119.315,47.834a4.49,4.49,0,0,0-2.8,1.026c-1.583-3.364-4.411-5.614-7.65-5.614a7.091,7.091,0,0,0-3.015.693c-1.71-7.138-6.8-12.317-12.811-12.317-5.94,0-10.97,5.059-12.739,12.064a7.033,7.033,0,0,0-2.412-.441c-3.646,0-6.778,2.849-8.188,6.935a4.853,4.853,0,0,0-2.867-.971c-2.735,0-5.032,2.433-5.713,5.735h63.622c0-3.927-2.43-7.112-5.428-7.112" transform="translate(-4.773 -2.469)" fill="#95ebba"/>
            <path id="Trazado_1003432" data-name="Trazado 1003432" d="M205.616,33.894C205.35,14.9,188.987-.274,169.065,0s-35.854,15.9-35.588,34.9A33.879,33.879,0,0,0,149.334,62.87a4.422,4.422,0,0,1,1.961,3.673l.144,10.267a10.619,10.619,0,0,0,10.735,10.439L179.8,87a10.619,10.619,0,0,0,10.439-10.735l-.157-11.2a4.438,4.438,0,0,1,1.716-3.626,33.819,33.819,0,0,0,13.814-27.545" transform="translate(-10.423 0)" fill="#feb801"/>
            <path id="Trazado_1003433" data-name="Trazado 1003433" d="M160.144,93.267l26.319-.368s2.613,25.611-11.169,29.517S160.331,99,160.144,93.267" transform="translate(-12.506 -7.255)" fill="#5969b2"/>
            <path id="Trazado_1003434" data-name="Trazado 1003434" d="M186.969,99.306l-27.667.386a1.012,1.012,0,1,1-.029-2.025l27.668-.386a1.012,1.012,0,0,1,.028,2.025" transform="translate(-12.36 -7.597)" fill="#4b5c9b"/>
            <path id="Trazado_1003435" data-name="Trazado 1003435" d="M187.031,103.7l-27.667.387a1.012,1.012,0,1,1-.029-2.025L187,101.674a1.012,1.012,0,0,1,.029,2.025" transform="translate(-12.365 -7.94)" fill="#4b5c9b"/>
            <path id="Trazado_1003436" data-name="Trazado 1003436" d="M187.092,108.09l-27.667.387a1.012,1.012,0,1,1-.029-2.025l27.667-.387a1.012,1.012,0,0,1,.029,2.025" transform="translate(-12.37 -8.283)" fill="#4b5c9b"/>
            <path id="Trazado_1003437" data-name="Trazado 1003437" d="M185.824,112.5l-24.874.348a1.012,1.012,0,1,1-.029-2.025l24.874-.348a1.012,1.012,0,1,1,.029,2.025" transform="translate(-12.489 -8.628)" fill="#4b5c9b"/>
            <path id="Trazado_1003438" data-name="Trazado 1003438" d="M184.92,116.912l-22.353.313a1.012,1.012,0,1,1-.029-2.025l22.353-.313a1.012,1.012,0,0,1,.029,2.025" transform="translate(-12.615 -8.972)" fill="#4b5c9b"/>
            <path id="Trazado_1003439" data-name="Trazado 1003439" d="M182.707,121.342l-17.883.25a1.012,1.012,0,1,1-.029-2.024l17.883-.25a1.012,1.012,0,1,1,.029,2.024" transform="translate(-12.792 -9.318)" fill="#4b5c9b"/>
            <g id="Grupo_1192092" data-name="Grupo 1192092" transform="translate(140.517 19.735)" opacity="0.21" style="mix-blend-mode: overlay;isolation: isolate">
              <g id="Grupo_1192091" data-name="Grupo 1192091">
                <g id="Grupo_1192090" data-name="Grupo 1192090" clip-path="url(#clip-path-3)">
                  <path id="Trazado_1003440" data-name="Trazado 1003440" d="M203.649,21.407a32.891,32.891,0,0,1,.443,4.863C204.4,48.2,182.949,66.276,156.18,66.65c-1.266.018-2.518-.018-3.761-.077a4.636,4.636,0,0,1,.356,1.642l.144,10.267a10.618,10.618,0,0,0,10.734,10.439l17.631-.247A10.619,10.619,0,0,0,191.722,77.94l-.157-11.2a4.438,4.438,0,0,1,1.716-3.626,33.819,33.819,0,0,0,13.814-27.545,32.886,32.886,0,0,0-3.445-14.159" transform="translate(-152.42 -21.407)"/>
                </g>
              </g>
            </g>
          </g>
        </g>
      </g>
    </g>
  </g>
</svg>
