<svg xmlns="http://www.w3.org/2000/svg" xmlns:xlink="http://www.w3.org/1999/xlink" width="150" height="150" viewBox="0 0 150 150">
  <defs>
    <clipPath id="clip-path">
      <rect id="Rectángulo_456512" data-name="Rectángulo 456512" width="85.387" height="85.426" fill="#15342f"/>
    </clipPath>
  </defs>
  <g id="Grupo_1191899" data-name="Grupo 1191899" transform="translate(-383.746 -8400)">
    <circle id="Elipse_13609" data-name="Elipse 13609" cx="75" cy="75" r="75" transform="translate(383.746 8400)" fill="#fff"/>
    <g id="Grupo_1192127" data-name="Grupo 1192127" transform="translate(416.052 8432.287)">
      <g id="Grupo_1192126" data-name="Grupo 1192126" clip-path="url(#clip-path)">
        <path id="Trazado_1003509" data-name="Trazado 1003509" d="M127.15,149.967l-29.676,0c-.949-.044-1.709-.63-1.6-1.594a16.535,16.535,0,0,1,10.893-13.784,9.028,9.028,0,1,1,11.007-.027,16.684,16.684,0,0,1,10.856,13.585,1.491,1.491,0,0,1-1.476,1.818M118.514,127.4a6.256,6.256,0,1,0-6.256,6.256,6.256,6.256,0,0,0,6.256-6.256m7.15,19.774a13.729,13.729,0,0,0-26.8.024Z" transform="translate(-69.558 -85.911)" fill="#15342f"/>
        <path id="Trazado_1003510" data-name="Trazado 1003510" d="M223.2,227.864l-30.171,0a1.439,1.439,0,0,1-1.43-1.569,16.6,16.6,0,0,1,10.875-13.773A9.078,9.078,0,0,1,201.4,199.2a9.021,9.021,0,1,1,12.1,13.295,16.607,16.607,0,0,1,10.9,13.855,1.439,1.439,0,0,1-1.2,1.519m-8.941-22.546a6.257,6.257,0,1,0-6.257,6.257,6.257,6.257,0,0,0,6.257-6.257m7.146,19.73a13.726,13.726,0,0,0-26.785.056Z" transform="translate(-139.022 -142.438)" fill="#15342f"/>
        <path id="Trazado_1003511" data-name="Trazado 1003511" d="M211.91,102.671a1.538,1.538,0,0,1-1.492.306c-1.5-.392-1.545-7.693-2.442-9.31-3.776-6.009-3.276-13.57,1.835-18.558A14.329,14.329,0,1,1,216.02,99.2Zm4.365-6.278A11.568,11.568,0,1,0,211.5,77.317c-4.083,4.232-4.237,10.4-.941,15.207l1.415,6.4c1.559-.914,2.738-3.034,4.3-2.531" transform="translate(-149.116 -51.571)" fill="#15342f"/>
        <path id="Trazado_1003512" data-name="Trazado 1003512" d="M243.164,98.818a8.8,8.8,0,1,1-8.8-8.8,8.8,8.8,0,0,1,8.8,8.8m-2.754,0a6.042,6.042,0,1,0-6.041,6.041,6.042,6.042,0,0,0,6.041-6.041" transform="translate(-163.679 -65.321)" fill="#15342f"/>
        <path id="Trazado_1003513" data-name="Trazado 1003513" d="M244.291,115.88c-1.306,1.2-2.616-.731-3.867-1.955a1.4,1.4,0,0,1-.162-1.945,1.454,1.454,0,0,1,2.128-.024c.251.233.634.848,1.038.858,1.883-.95,4.057-4.836,5.74-3.438a1.331,1.331,0,0,1,.13,1.917Z" transform="translate(-174.105 -79.148)" fill="#15342f"/>
        <path id="Trazado_1003514" data-name="Trazado 1003514" d="M107.438,31a1.527,1.527,0,0,1-1.19.935,1.368,1.368,0,0,1-1.4-.86l-2.533-5.395c-.193-.41-.987-.3-1.357-.277a4.751,4.751,0,0,1-5.207-4.917l.007-15.662A4.585,4.585,0,0,1,100.178.029L123.932,0a4.657,4.657,0,0,1,4.663,4.829l-.019,15.928a4.58,4.58,0,0,1-4.612,4.629l-13.679.04Zm1.289-8.318,14.962-.028a2.017,2.017,0,0,0,2.157-2.172l-.033-15.867a1.862,1.862,0,0,0-1.9-1.862h-23.48a1.872,1.872,0,0,0-1.906,1.861l.028,16.37c0,2.578,4.431,1.164,5.335,1.992,1.209,1.107,1.226,3,2.344,4.157.993-1.526,1.351-3.1,2.494-4.454" transform="translate(-69.474 0)" fill="#15342f"/>
        <path id="Trazado_1003515" data-name="Trazado 1003515" d="M137.483,25.623l-17.349.028a1.418,1.418,0,0,1-1.348-1.32c-.036-.468.322-1.391,1.093-1.392l17.506-.031a1.328,1.328,0,0,1,1.327,1.2,1.37,1.37,0,0,1-1.23,1.518" transform="translate(-86.191 -16.622)" fill="#15342f"/>
        <path id="Trazado_1003516" data-name="Trazado 1003516" d="M137.5,44.212l-17.1.045a1.49,1.49,0,0,1-1.593-1.247c-.088-.945.609-1.527,1.6-1.526l16.98.022a1.356,1.356,0,0,1,.119,2.705" transform="translate(-86.202 -30.102)" fill="#15342f"/>
        <path id="Trazado_1003517" data-name="Trazado 1003517" d="M137.116,62.819l-16.752,0a1.384,1.384,0,1,1-.222-2.75l17.2,0a1.435,1.435,0,0,1,1.376,1.4,1.407,1.407,0,0,1-1.6,1.354" transform="translate(-86.175 -43.584)" fill="#15342f"/>
        <path id="Trazado_1003518" data-name="Trazado 1003518" d="M31.5,227.867l-30.166,0a1.426,1.426,0,0,1-1.3-1.518,16.571,16.571,0,0,1,10.906-13.843,9.023,9.023,0,1,1,11.037-.022A16.724,16.724,0,0,1,32.834,226.3a1.426,1.426,0,0,1-1.33,1.568M22.7,205.323a6.257,6.257,0,1,0-6.257,6.257,6.257,6.257,0,0,0,6.257-6.257m7.143,19.767a13.735,13.735,0,0,0-26.8,0Z" transform="translate(-0.021 -142.445)" fill="#15342f"/>
        <path id="Trazado_1003519" data-name="Trazado 1003519" d="M24.564,101.762c-.149.787-.44,1.133-1.032,1.25a1.66,1.66,0,0,1-1.446-.469l-3.932-3.358a14.334,14.334,0,1,1,6.213-24.044c5.11,5.043,5.584,12.62,1.711,18.614ZM22.22,98.846l1.248-6.25a11.748,11.748,0,0,0-.909-15.367,11.572,11.572,0,1,0-4.654,19.146c1.657-.529,2.98,2.042,4.314,2.471" transform="translate(0 -51.552)" fill="#15342f"/>
        <path id="Trazado_1003520" data-name="Trazado 1003520" d="M37.761,98.817a8.8,8.8,0,1,1-8.8-8.8,8.8,8.8,0,0,1,8.8,8.8m-2.753,0a6.04,6.04,0,1,0-6.04,6.04,6.04,6.04,0,0,0,6.04-6.04" transform="translate(-14.633 -65.32)" fill="#15342f"/>
        <path id="Trazado_1003521" data-name="Trazado 1003521" d="M36.929,115.823l-1.99-2a1.382,1.382,0,0,1,.112-2.026c1.411-1.164,2.434,1.148,3.037,1.014,1.753-.974,4.018-4.727,5.645-3.477a1.377,1.377,0,0,1,.111,2.04l-5.012,4.553a1.4,1.4,0,0,1-1.9-.1" transform="translate(-25.07 -79.151)" fill="#15342f"/>
      </g>
    </g>
  </g>
</svg>
