<svg xmlns="http://www.w3.org/2000/svg" xmlns:xlink="http://www.w3.org/1999/xlink" width="150" height="150" viewBox="0 0 150 150">
  <defs>
    <clipPath id="clip-path">
      <rect id="Rectángulo_456514" data-name="Rectángulo 456514" width="65.403" height="78.662" fill="#15342f"/>
    </clipPath>
  </defs>
  <g id="Grupo_1191901" data-name="Grupo 1191901" transform="translate(-383.746 -8400)">
    <circle id="Elipse_13609" data-name="Elipse 13609" cx="75" cy="75" r="75" transform="translate(383.746 8400)" fill="#fff"/>
    <g id="Grupo_1192131" data-name="Grupo 1192131" transform="translate(426.045 8435.669)">
      <g id="Grupo_1192130" data-name="Grupo 1192130" clip-path="url(#clip-path)">
        <path id="Trazado_1003525" data-name="Trazado 1003525" d="M65.273,191.906c.162,1.446.449,3.915-1.166,3.915H1.292c-1.612,0-1.322-2.408-1.169-3.912a1.048,1.048,0,0,1,1.251-.844c1.488.129.7,2.206,1.151,2.361a5.816,5.816,0,0,0,2.543.037c.356-1.606-.652-5.065.985-5.333a1.106,1.106,0,0,1,1.383,1.048l.075,4.328c2.825.106,5.555.077,8.412.014.419-1.836-.767-5.409,1.175-5.413,1.971,0,.79,3.532,1.187,5.364a8.1,8.1,0,0,0,2.735-.017l.021-7.67a3.967,3.967,0,0,0-4.066-3.982L6.4,181.807a4.059,4.059,0,0,0-4.036,4.657,1.262,1.262,0,0,1-1,1.439c-.934.074-1.244-.552-1.305-1.425a6.377,6.377,0,0,1,6.752-7,6.535,6.535,0,0,1-.849-6.438c.749-2.294,3.072-2.664,4.812-4,1.859-1.431,3.257-4.145,6.587-3.444a6.315,6.315,0,0,1,.675-8.646,6.248,6.248,0,0,1,8.377.021,6.379,6.379,0,0,1,.722,8.54,6.331,6.331,0,0,1,5.569,2.636,6.666,6.666,0,0,1,5.56-2.7,6.292,6.292,0,0,1,.724-8.468,6.256,6.256,0,0,1,9.077,8.556c3.257-.578,4.683,2.017,6.581,3.508,1.71,1.344,4.034,1.686,4.8,4a6.7,6.7,0,0,1-.848,6.495,6.3,6.3,0,0,1,6.749,6.943c-.057.825-.283,1.355-1.083,1.431a1.212,1.212,0,0,1-1.216-1.446A4.064,4.064,0,0,0,59,181.809l-10.823.02a3.823,3.823,0,0,0-3.8,3.747l-.005,7.857a7.2,7.2,0,0,0,2.74.033l.06-4.279a1.05,1.05,0,0,1,1.127-1.08c1.941-.013.758,3.6,1.177,5.422l8.412-.026c.361-1.775-.664-5.121.99-5.378a1.111,1.111,0,0,1,1.368,1.039l.088,4.3a5.891,5.891,0,0,0,2.537-.039c.431-.143-.256-2.015.922-2.318.619-.159,1.394.041,1.479.794M26.128,161.574A3.929,3.929,0,1,0,22.2,165.5a3.929,3.929,0,0,0,3.929-3.929m21,0a3.93,3.93,0,1,0-3.93,3.93,3.93,3.93,0,0,0,3.93-3.93M27.754,179.495a6.522,6.522,0,0,1-.851-6.227,6.611,6.611,0,0,1,3.929-3.7,3.8,3.8,0,0,0-3.29-1.764H16.968a3.9,3.9,0,0,0-3.411,1.77,6.611,6.611,0,0,1,4.047,3.939c.825,2.187.018,4.213-.859,5.951a7.738,7.738,0,0,1,5.485,2.492c1.449-1.454,3.376-2.693,5.525-2.464m21.016.038a6.394,6.394,0,0,1,3.056-9.962,3.836,3.836,0,0,0-3.394-1.766l-10.814.023a3.412,3.412,0,0,0-3.014,1.781,6.412,6.412,0,0,1,4.016,4,6.621,6.621,0,0,1-1,5.927c2.254-.362,4.144,1.1,5.539,2.377,1.441-1.1,3.187-2.773,5.614-2.383m-33.139-3.959a3.927,3.927,0,1,0-3.927,3.927,3.926,3.926,0,0,0,3.927-3.927m21,0a3.929,3.929,0,1,0-3.929,3.929,3.929,3.929,0,0,0,3.929-3.929m20.991,0a3.927,3.927,0,1,0-3.927,3.927,3.926,3.926,0,0,0,3.927-3.927m-20.657,17.89-.01-4.047a1.155,1.155,0,0,1,1.282-1.312c1.8.128.689,3.708,1.087,5.351a7.394,7.394,0,0,0,2.676,0l.025-7.742a3.881,3.881,0,0,0-3.92-3.893l-11.025.028a3.9,3.9,0,0,0-3.722,4.106l.053,7.508a7.513,7.513,0,0,0,2.667.007c.423-1.761-.824-5.542,1.342-5.362,1.815.151.655,3.585,1.087,5.431Z" transform="translate(0 -117.159)" fill="#15342f"/>
        <path id="Trazado_1003526" data-name="Trazado 1003526" d="M67.459,28.787a1.378,1.378,0,0,1,1.318-.834l12.731-.026a1.961,1.961,0,0,0,1.933-1.915l.042-8.8a1.1,1.1,0,0,1,1.138-1.107,1.117,1.117,0,0,1,1.1,1.09l.011,9.125A4.16,4.16,0,0,1,81.8,30.193l-12.486.051L64.606,38.8a2.066,2.066,0,0,1-1.832.958,2.131,2.131,0,0,1-1.738-1.114l-4.607-8.4-12.488-.048A4.168,4.168,0,0,1,40,26.3l.053-22.361A4.147,4.147,0,0,1,44.45,0L81.29,0a4.128,4.128,0,0,1,4.4,3.931l.041,7.855a1.15,1.15,0,0,1-1.121,1.2A1.073,1.073,0,0,1,83.485,11.8l-.046-7.589A1.954,1.954,0,0,0,81.48,2.3H44.261a1.982,1.982,0,0,0-1.97,1.933V25.992a2.041,2.041,0,0,0,2.154,1.958l12.527-.006c.393.052.88.111,1.084.479L62.873,37.1Z" transform="translate(-30.171 0)" fill="#15342f"/>
        <path id="Trazado_1003527" data-name="Trazado 1003527" d="M125.2,49.879a3.786,3.786,0,1,1-3.786-3.786,3.786,3.786,0,0,1,3.786,3.786m-2.317,0a1.468,1.468,0,1,0-1.467,1.467,1.467,1.467,0,0,0,1.467-1.467" transform="translate(-88.719 -34.764)" fill="#15342f"/>
        <path id="Trazado_1003528" data-name="Trazado 1003528" d="M177.62,49.892a3.784,3.784,0,1,1-3.784-3.784,3.784,3.784,0,0,1,3.784,3.784m-2.32,0a1.468,1.468,0,1,0-1.468,1.468,1.468,1.468,0,0,0,1.468-1.468" transform="translate(-128.254 -34.775)" fill="#15342f"/>
        <path id="Trazado_1003529" data-name="Trazado 1003529" d="M72.8,49.887A3.784,3.784,0,1,1,69.017,46.1,3.784,3.784,0,0,1,72.8,49.887m-2.313.005a1.467,1.467,0,1,0-1.467,1.467,1.467,1.467,0,0,0,1.467-1.467" transform="translate(-49.199 -34.771)" fill="#15342f"/>
      </g>
    </g>
  </g>
</svg>
