<svg xmlns="http://www.w3.org/2000/svg" xmlns:xlink="http://www.w3.org/1999/xlink" width="396" height="274" viewBox="0 0 396 274">
  <defs>
    <clipPath id="clip-path">
      <rect id="Rectángulo_456488" data-name="Rectángulo 456488" width="385.911" height="273.251" fill="none"/>
    </clipPath>
    <clipPath id="clip-path-3">
      <rect id="Rectángulo_456473" data-name="Rectángulo 456473" width="53.051" height="94.776" fill="none"/>
    </clipPath>
    <clipPath id="clip-path-4">
      <rect id="Rectángulo_456474" data-name="Rectángulo 456474" width="64.023" height="119.64" fill="none"/>
    </clipPath>
    <clipPath id="clip-path-5">
      <rect id="Rectángulo_456475" data-name="Rectángulo 456475" width="26.243" height="20.558" fill="none"/>
    </clipPath>
    <clipPath id="clip-path-6">
      <rect id="Rectángulo_456476" data-name="Rectángulo 456476" width="36.853" height="51.116" fill="none"/>
    </clipPath>
    <clipPath id="clip-path-7">
      <rect id="Rectángulo_456477" data-name="Rectángulo 456477" width="49.235" height="88.395" fill="none"/>
    </clipPath>
    <clipPath id="clip-path-8">
      <rect id="Rectángulo_456478" data-name="Rectángulo 456478" width="110.698" height="65.585" fill="none"/>
    </clipPath>
    <clipPath id="clip-path-9">
      <rect id="Rectángulo_456479" data-name="Rectángulo 456479" width="23.365" height="55.874" fill="none"/>
    </clipPath>
    <clipPath id="clip-path-10">
      <rect id="Rectángulo_456480" data-name="Rectángulo 456480" width="94.672" height="31.667" fill="none"/>
    </clipPath>
    <clipPath id="clip-path-11">
      <rect id="Rectángulo_456481" data-name="Rectángulo 456481" width="89.293" height="121.856" fill="none"/>
    </clipPath>
    <clipPath id="clip-path-12">
      <rect id="Rectángulo_456482" data-name="Rectángulo 456482" width="22.597" height="15.899" fill="none"/>
    </clipPath>
    <clipPath id="clip-path-13">
      <rect id="Rectángulo_456483" data-name="Rectángulo 456483" width="27.916" height="21.361" fill="none"/>
    </clipPath>
    <clipPath id="clip-path-14">
      <rect id="Rectángulo_456484" data-name="Rectángulo 456484" width="45.3" height="89.623" fill="none"/>
    </clipPath>
    <clipPath id="clip-path-15">
      <rect id="Rectángulo_456485" data-name="Rectángulo 456485" width="19.04" height="38.638" fill="none"/>
    </clipPath>
    <clipPath id="clip-path-16">
      <rect id="Rectángulo_456486" data-name="Rectángulo 456486" width="15.617" height="42.116" fill="none"/>
    </clipPath>
  </defs>
  <g id="Grupo_1192089" data-name="Grupo 1192089" transform="translate(-186 -5321)">
    <rect id="Rectángulo_456347" data-name="Rectángulo 456347" width="396" height="274" transform="translate(186 5321)" fill="none"/>
    <g id="Grupo_1192088" data-name="Grupo 1192088" transform="translate(191 5321)">
      <g id="Grupo_1192087" data-name="Grupo 1192087" clip-path="url(#clip-path)">
        <g id="Grupo_1192086" data-name="Grupo 1192086">
          <g id="Grupo_1192085" data-name="Grupo 1192085" clip-path="url(#clip-path)">
            <path id="Trazado_1003228" data-name="Trazado 1003228" d="M373.343,222.247a32.7,32.7,0,0,0,5.681-6.549c4.962-7.773,4.145-16.437,6.062-24.975,1.993-8.884,2.824-17.192-.5-26.058-3.1-8.27-9.065-15.112-15.127-21.538q-10.594-11.229-22.08-21.568c-3.9-3.507-7.92-6.991-10.8-11.371-4.8-7.284-5.867-16.289-5.025-24.807.763-7.724.287-15.3-.417-23.113-.942-10.463-3.42-22.192-10.951-29.948A80.83,80.83,0,0,0,292.249,13.9c-24.907-9.652-53.143-3.041-77.852,7.112-18.042,7.413-36.923,15.477-56.748,15.754-18.691.26-31.758-11.042-48.1-18.122C77,4.547,41.166,18.084,23.776,48.257c-5.943,10.311-8.618,24.371-7.721,36.193,1.167,15.371,10.236,28.95,10.954,44.4.671,14.444-5.175,21.979-13.939,31.968-13.477,15.361-3.7,37.525,7.538,51.049,12.444,14.973,31.043,24.867,50.521,26.214,8.963.62,17.955-.447,26.938-.348s18.295,1.5,25.766,6.486c8.1,5.406,13.137,14.4,20.8,20.394,9.053,7.078,20.97,9.365,32.451,9.837a77.962,77.962,0,0,0,20.451-1.524c17.759-4.028,30.17-19.983,48.79-18.488,13.576,1.09,26.851,4.473,40.3,6.643s27.429,3.094,40.518-.67a37.028,37.028,0,0,0,9.269-3.918c10.073-6.22,16.136-17.749,25.4-25.158,3.805-3.044,7.94-5.827,11.529-9.09" transform="translate(-0.921 -1.297)" fill="#d0e1dd"/>
            <path id="Trazado_1003229" data-name="Trazado 1003229" d="M387.048,186.749a22.069,22.069,0,0,0,9.579-32.027c-1.4-2.2-3.23-4.21-3.932-6.723-1.136-4.07.924-8.246,2.013-12.33a27.44,27.44,0,0,0-1.062-17.036,31.706,31.706,0,0,0-3.152-6.376c-1.507-2.12-3.7-3.472-4.913-5.881-2-3.97-1.432-8.675-1.179-13.113.545-9.585-.026-21.8-5.758-29.979-5.683-8.111-15.257-12.8-24.6-15.192-6.889-1.763-14.713-3.657-21.8-2.847a25.408,25.408,0,0,0-6.185,1.412c-.652.248-4.779,2.933-5.012,2.841-4.89-1.937-10.676-.672-14.919,2.44s-7.074,7.841-8.789,12.814c-2.428,7.036-1.895,14.238-3.477,21.27-.768,3.412-3.014,6.246-5.139,9-2.563,3.318-5.079,6.771-6.471,10.749s-1.526,8.608.559,12.258c2.178,3.811,6.609,6.423,7.22,10.79.488,3.488-1.691,6.709-3.639,9.619-2.99,4.469-5.783,9.567-5.286,14.953a13.3,13.3,0,0,0,10.728,11.633" transform="translate(-39.629 -6.353)" fill="#822341"/>
            <g id="Grupo_1192045" data-name="Grupo 1192045" transform="translate(290.801 80.977)" opacity="0.28" style="mix-blend-mode: multiply;isolation: isolate">
              <g id="Grupo_1192044" data-name="Grupo 1192044">
                <g id="Grupo_1192043" data-name="Grupo 1192043" clip-path="url(#clip-path-3)">
                  <path id="Trazado_1003230" data-name="Trazado 1003230" d="M384.068,162.088c.3-5.679,6.829-9.921,6.2-15.573-.524-4.685-5.575-7.277-8.36-11.08-2.95-4.026-3.262-9.435-2.507-14.368s2.455-9.689,3.135-14.634c.115-.835.193-1.684.235-2.537a5.1,5.1,0,0,1-4.883-1.415,7.223,7.223,0,0,1-1.069-1.313,5.286,5.286,0,0,1-1.5-2.6,10.215,10.215,0,0,1-.071-4.3l-36.71,17.654A22.159,22.159,0,0,1,345.084,126c.9,12.261-8.438,23.931-6.159,36.012,1.769,9.374,10.055,16.051,18.383,20.7,7.952,4.442,17.246,7.917,26.047,5.572,3.613-.962,7.275-3.3,8.068-6.956,1.5-6.888-7.73-12.21-7.355-19.248" transform="translate(-338.536 -94.27)" fill="#822341"/>
                </g>
              </g>
            </g>
            <g id="Grupo_1192048" data-name="Grupo 1192048" transform="translate(250.504 49.878)" opacity="0.28" style="mix-blend-mode: multiply;isolation: isolate">
              <g id="Grupo_1192047" data-name="Grupo 1192047">
                <g id="Grupo_1192046" data-name="Grupo 1192046" clip-path="url(#clip-path-4)">
                  <path id="Trazado_1003231" data-name="Trazado 1003231" d="M321.683,58.065a19.788,19.788,0,0,0-17.371,12.878c-1.8,5.112-1.37,10.692-1.313,16.111s-.393,11.182-3.578,15.566c-2.708,3.729-7.371,6.537-7.769,11.127-.377,4.348,3.29,7.811,6.01,11.223,4.474,5.61,6.913,13.433,4.242,20.093-1.8,4.487-5.685,7.987-7.013,12.635-1.377,4.823.38,10.229,3.851,13.85a21.357,21.357,0,0,0,13.436,6.042A28.033,28.033,0,0,0,336.2,167.463c1.94-2.406,3.5-5.167,5.892-7.127s6.01-2.914,8.556-1.162c1.807,1.244,2.855,3.668,5,4.139" transform="translate(-291.625 -58.065)" fill="#822341"/>
                </g>
              </g>
            </g>
            <path id="Trazado_1003232" data-name="Trazado 1003232" d="M339.492,169.272a27.725,27.725,0,0,0,26.47-7.38c-.227-.108-.455-.216-.683-.322-.2-.1-.4-.187-.6-.284-5.254-2.556-6.44-4.192-7.841-9.893-1.242-5.06-1.255-10.329-1.261-15.54l-23.248,6.62c-.342,3.53.814,11.728-1.911,14.341a7.152,7.152,0,0,1-4,1.618c1.806,5.321,7.387,9.372,13.079,10.84" transform="translate(-46.026 -19.156)" fill="#b65743"/>
            <g id="Grupo_1192051" data-name="Grupo 1192051" transform="translate(285.329 116.697)" opacity="0.39">
              <g id="Grupo_1192050" data-name="Grupo 1192050">
                <g id="Grupo_1192049" data-name="Grupo 1192049" clip-path="url(#clip-path-5)">
                  <path id="Trazado_1003233" data-name="Trazado 1003233" d="M358.409,154.106c-.264-.793-.509-1.684-.762-2.712-1.243-5.06-1.256-10.33-1.261-15.54l-23.249,6.619c-.292,3.025.508,9.469-.971,12.9q1.8.29,3.615.5c7.588.882,15.483.938,22.629-1.764" transform="translate(-332.166 -135.853)" fill="#933d2e"/>
                </g>
              </g>
            </g>
            <path id="Trazado_1003234" data-name="Trazado 1003234" d="M131.828,236.116a82.056,82.056,0,0,0,17.064,7.311,258.813,258.813,0,0,0,6.652-39.475q-1.638-1.133-3.228-2.4a163.751,163.751,0,0,1-16.446-15.8c-3.256-3.509-6.842-7.258-11.141-9.5-4.991-2.6-11.048-3.226-16.579-3.952-2.642-.346-6.546-.183-9.457-1.086a31.7,31.7,0,0,1-35.637,2.526c-.729.289-1.48.533-2.227.749-5.9,1.707-12.344,2.5-17.169,6.3a27.511,27.511,0,0,0-4.789,5.188c-5.137,6.825-9.183,15.748-12.841,23.524-3.242,6.889-5.407,14.536-7.472,21.873-1.688,6-3.236,12.169-2.774,18.382.84,11.31,8.828,21.955,21.063,21.687.423-.009-3.449,9.308-3.69,10.171-3.4,12.147,19,13.042,25.572,13.772,14.29,1.586,29.378.675,43.567-1.3,11.218-1.558,26.7-4.534,35.856-11.7,8.306-6.495-1.384-21.814-3.423-29.242-1.586-5.777-3.249-10.926-2.9-17.039" transform="translate(-2.214 -24.142)" fill="#433c5b"/>
            <path id="Trazado_1003235" data-name="Trazado 1003235" d="M201.019,226.462c-.442,3.474-.853,6.953-1.263,10.432.69-2.278,2.9-11.962,2.289-15.6q-.483,2.591-1.027,5.166" transform="translate(-28.167 -31.204)" fill="#433c5b"/>
            <path id="Trazado_1003236" data-name="Trazado 1003236" d="M307.871,91.844a4.738,4.738,0,0,0-4.935.527,9.246,9.246,0,0,0-2.977,4.223,18.574,18.574,0,0,0,5.52,20.733" transform="translate(-42.129 -12.883)" fill="#a54a3c"/>
            <path id="Trazado_1003237" data-name="Trazado 1003237" d="M245.856,133.4a13.176,13.176,0,0,0,15.052,1.532,15.438,15.438,0,0,0,7.47-13.493" transform="translate(-34.667 -17.123)" fill="#433c5b"/>
            <path id="Trazado_1003238" data-name="Trazado 1003238" d="M258.525,101.96a22.077,22.077,0,0,0,3.637-9.981c1.488-9.848,4-22.927-4.111-30.707a15.212,15.212,0,0,0-7.223-3.666,1.414,1.414,0,0,1-.789-.356,1.5,1.5,0,0,1-.263-.765c-.867-5.313-7.317-8.182-11.942-9.453-9.343-2.57-19.6.085-28.652-3.511-1.934-.769-3.753-1.827-5.733-2.467a12.432,12.432,0,0,0-8.461.173c-5.185,2.125-8.4,7.942-8.63,13.287a6.218,6.218,0,0,1-.417,2.444c-.941,1.959-3.536,2.229-5.622,2.832C171.965,62.2,170.062,72.518,175.6,78.7c.935,1.043,2.072,2.111,2.135,3.51.072,1.644-1.353,2.9-2.348,4.209a9.281,9.281,0,0,0,8.673,14.806" transform="translate(-24.317 -5.696)" fill="#433c5b"/>
            <path id="Trazado_1003239" data-name="Trazado 1003239" d="M373.245,172.5q-8.661-3.2-16.987-7.225c.228.107.456.213.683.322a27.729,27.729,0,0,1-26.47,7.38c-5.692-1.467-11.273-5.519-13.079-10.84-.421.064-.843.119-1.257.169a114.041,114.041,0,0,0-18.963,4c-7.254,2.191-14.724,3.835-22.13,5.564-4.133.964-8.365,1.9-12.587,1.465-.574,9.727,10.248,13,17.491,15.436a16.52,16.52,0,0,1,8.479,6.51c3.74,5.272,2.024,9.353.937,15.162a55.03,55.03,0,0,0-1.031,7.7,1.882,1.882,0,0,0,.9,2.013c1.341,1.017,4.052,1.879,4.756,3.3,1.013,2.04.591,5,1.108,7.24.608,2.632,1.1,4.454.048,7.137-3.906,9.933-8.217,19.948-8.98,30.594a15.185,15.185,0,0,0,.372,5.44c1.285,4.3,5.475,6.976,9.478,9,11.152,5.636,24.706,10.767,37.3,9.053,13.514-1.839,27.217-4.01,39.526-9.883,2.718-1.3,5.456-2.859,7.141-5.355,1.752-2.6,2.138-5.851,2.385-8.972a165.606,165.606,0,0,0-.155-28.05c-.815-8.995-.037-14.486,6.561-20.91,4.137-4.027,8.258-8.357,8.2-14.489-.134-13.415-11.608-27.277-23.73-31.759" transform="translate(-37.004 -22.862)" fill="#fec96f"/>
            <g id="Grupo_1192054" data-name="Grupo 1192054" transform="translate(155.164 41.708)" opacity="0.36" style="mix-blend-mode: multiply;isolation: isolate">
              <g id="Grupo_1192053" data-name="Grupo 1192053">
                <g id="Grupo_1192052" data-name="Grupo 1192052" clip-path="url(#clip-path-6)">
                  <path id="Trazado_1003240" data-name="Trazado 1003240" d="M202.585,48.556a8.832,8.832,0,0,0-6.911,3.585,16.128,16.128,0,0,0-2.935,7.429c-.354,2.19-.615,4.722-2.446,5.974a7.782,7.782,0,0,1-2.9.972c-4.819.987-8.119,4.91-6.2,10.12,1.007,2.734,3.509,4.922,3.713,7.829.169,2.413-1.314,4.626-1.673,7.018-1.413,9.4,10.963,9.647,16.457,6.016,3.092-2.045,5.217-5.229,7.863-7.824s6.363-4.707,9.938-3.727" transform="translate(-180.634 -48.554)" fill="#433c5b"/>
                </g>
              </g>
            </g>
            <path id="Trazado_1003241" data-name="Trazado 1003241" d="M298.841,93.441q7.131.926,14.2,2.222c1.075.2,1.533-1.446.454-1.643q-7.3-1.332-14.655-2.282c-1.087-.142-1.074,1.564,0,1.7" transform="translate(-42.024 -12.934)" fill="#eda34c"/>
            <path id="Trazado_1003242" data-name="Trazado 1003242" d="M197.007,95.13c-5.237-2.391-11.718-.777-13.351,5a15.821,15.821,0,0,0,8.039,18.394" transform="translate(-25.814 -13.263)" fill="#c9595f"/>
            <path id="Trazado_1003243" data-name="Trazado 1003243" d="M64.277,157.536c4.56-1.134,9.22-2.951,13.944-3.858,5.965-1.146,12.2-1.009,18.227-1.952,2.338-.366,4.371-.226,6.694-.923,3.149-.945,6.283-1.941,9.424-2.912q.133-6.8.267-13.594l6.226,10.716c4.139-1.832,8.162-4.416,12.69-5.08q-.326-6.316-1.168-12.591l5.821,8.691c1.83-.763,15.236-5.771,13.751-8.773a49.72,49.72,0,0,0-5.072-8.117c-1.83-2.364-4.108-1.582-6.747-2.542-2.405-.874-3.832-3.352-4.655-5.774-2.743-8.075-3.2-17.383-13.351-19.418a16.029,16.029,0,0,1-3.387-.765,6.963,6.963,0,0,1-3.539-4.613,46.546,46.546,0,0,1-.912-5.931,26.66,26.66,0,0,0-36.628-20.9,113.777,113.777,0,0,1-12.908,3.918,72.446,72.446,0,0,0-9.067,3.231,9.771,9.771,0,0,0-3.68,3.141,27.713,27.713,0,0,0-2.015,4.3C41.9,73.612,38.651,78.282,36.81,83.6c-1.751,5.064-1.669,10.564-1.3,15.91a18.909,18.909,0,0,1-.326,6.913C33.424,112.1,26.7,114.641,23.6,119.705c-1.306,2.134-2.582,5.087-2.434,7.6.195,3.341,1.968,6.747.641,10.065a16.029,16.029,0,0,1-2.932,4.053c-4.59,5.5-6.608,12.343-4.521,19.284A2.7,2.7,0,0,0,15.4,162.38a2.829,2.829,0,0,0,1.559.219,127.242,127.242,0,0,0,15.457-1.752q.487-5.52.449-11.069a71.829,71.829,0,0,0,3.244,11.079L58.469,157.5l.259-10.207q1.8,4.6,3.594,9.207a1.346,1.346,0,0,0,1.954,1.035" transform="translate(-1.908 -8.059)" fill="#eda34c"/>
            <g id="Grupo_1192057" data-name="Grupo 1192057" transform="translate(303.78 155.452)" opacity="0.19" style="mix-blend-mode: multiply;isolation: isolate">
              <g id="Grupo_1192056" data-name="Grupo 1192056">
                <g id="Grupo_1192055" data-name="Grupo 1192055" clip-path="url(#clip-path-7)">
                  <path id="Trazado_1003244" data-name="Trazado 1003244" d="M391.723,180.981a24.067,24.067,0,0,0-22.776,15.38,35.349,35.349,0,0,0-1.825,10.735,71.384,71.384,0,0,0,.771,13.651c.978,6.363,2.818,12.6,3.339,19.013s-.448,13.289-4.474,18.313a35.226,35.226,0,0,1-7.343,6.324l-5.769,4.108c1.1,1.058,2.854.934,4.365.7a50.588,50.588,0,0,0,16.8-5.357,28.891,28.891,0,0,0,12.236-12.429c3.416-7.141,3.035-15.451,2.317-23.334s-1.676-16.026.752-23.56a27.281,27.281,0,0,1,4.833-8.876c2.668-3.263,6.136-5.971,7.934-9.784" transform="translate(-353.646 -180.97)" fill="#eda34c"/>
                </g>
              </g>
            </g>
            <path id="Trazado_1003245" data-name="Trazado 1003245" d="M265.137,213.054q.832.544,1.638,1.124c2.422,1.733,4.631,3.678,7.143,5.218.57.35,2.745,1.328,4.633,2.269-3.141-11.913,4.682-25.63,10.211-36.164-2.222-2.039-6.5-3.6-8.6-5.1-3.622-2.593-6.993-5.516-10.487-8.274-6.815-5.38-14.226-9.976-22.781-12.048a61.3,61.3,0,0,1-8.71-2.3,14.457,14.457,0,0,1-2.621-1.371A40.621,40.621,0,0,1,197.49,159.4c-6.718,4.452-17.683,4.595-24.335,8.039-10.134,5.248-15.41,16.933-21.329,26.1a3.553,3.553,0,0,0-.749,1.879,3.5,3.5,0,0,0,1.238,2.219A89.391,89.391,0,0,0,167.164,210.1c2.921,1.953,11.334,6.593,11.392,10.328a133.236,133.236,0,0,1-4.625,36.9c-2.677,9.863,5.056,13.263,13.06,15.525,12.973,3.667,26.548,4.383,39.959,4.542,12.951.152,24.608.67,37.085-3.637,4.329-1.495,9.966-4.067,10.445-9.253.466-5.057-1.65-11.409-2.972-16.232-3.042-11.1-6.407-23.66-6.37-35.217" transform="translate(-21.303 -22.054)" fill="#e747bb"/>
            <g id="Grupo_1192060" data-name="Grupo 1192060" transform="translate(32.379 86.832)" opacity="0.4" style="mix-blend-mode: multiply;isolation: isolate">
              <g id="Grupo_1192059" data-name="Grupo 1192059">
                <g id="Grupo_1192058" data-name="Grupo 1192058" clip-path="url(#clip-path-8)">
                  <path id="Trazado_1003246" data-name="Trazado 1003246" d="M148.392,138.442c-2.062-4.621-4.6-9.159-8.934-11.6-1.831-1.033-3.915-1.64-5.556-2.954-5.845-4.685-3.082-15.289-8.777-20.155-2.178-1.86-5.169-2.434-8.028-2.6-3-.173-6.2.092-8.636,1.856l-45.845,6.99c-9.271.473-8.118,9.09-12.649,14.373-3.887,4.532-8.735,7.612-11.158,13.371-1.481,3.518-1.654,7.825.526,10.959,1.3,1.869,3.345,3.218,4.263,5.3,1.8,4.081-.71,8.338-1.535,12.689L61.876,163.7q.129-5.1.259-10.207,1.8,4.6,3.594,9.208a1.346,1.346,0,0,0,1.954,1.035c4.56-1.134,9.22-2.951,13.944-3.859,5.965-1.146,12.2-1.008,18.227-1.952,2.338-.366,4.371-.225,6.694-.923,3.149-.944,6.283-1.941,9.424-2.912q.133-6.8.267-13.594l6.226,10.717c4.139-1.833,8.162-4.417,12.69-5.08q-.326-6.316-1.168-12.591l5.821,8.69c.957-.4,5.079-1.959,8.583-3.786" transform="translate(-37.694 -101.085)" fill="#eda34c"/>
                </g>
              </g>
            </g>
            <path id="Trazado_1003247" data-name="Trazado 1003247" d="M242.8,153.768h0c-3.074-2.051-4.583-5.08-5.1-9.062q-.947-7.259-1.895-14.517l-22.94,4.122a63.084,63.084,0,0,1-1.38,13.177,15.23,15.23,0,0,1-2.678,6.58,13.039,13.039,0,0,1-2.952,2.6,39.417,39.417,0,0,0,36.947-2.9" transform="translate(-29.027 -18.357)" fill="#e36b6c"/>
            <path id="Trazado_1003248" data-name="Trazado 1003248" d="M182.061,221.543c.188.034.827-2.428,1.607-6.458s1.679-9.634,2.4-15.858,1.109-11.885,1.262-15.988.089-6.644-.1-6.654-.494,2.512-.905,6.584-.962,9.7-1.672,15.895-1.45,11.8-1.974,15.86-.811,6.582-.612,6.618" transform="translate(-25.662 -24.899)" fill="#b53096"/>
            <path id="Trazado_1003249" data-name="Trazado 1003249" d="M283.506,232.316c.191-.015.18-2.568-.094-6.682s-.83-9.783-1.715-16.012-1.936-11.828-2.823-15.854-1.588-6.481-1.776-6.442.154,2.566.783,6.628,1.517,9.666,2.4,15.869,1.6,11.833,2.124,15.909.9,6.6,1.1,6.583" transform="translate(-39.064 -26.414)" fill="#b53096"/>
            <path id="Trazado_1003250" data-name="Trazado 1003250" d="M274.336,281.5a18,18,0,0,0-3.565.776l-1.882.5-2.255.521c-1.621.36-3.449.842-5.507,1.2l-3.215.629c-1.118.216-2.3.368-3.506.568-2.417.424-5.026.694-7.764,1.024a149.017,149.017,0,0,1-35.789-.561c-2.726-.416-5.325-.767-7.728-1.268-1.2-.237-2.375-.426-3.486-.677l-3.195-.729c-2.045-.427-3.857-.965-5.466-1.377l-2.239-.59-1.865-.557a17.984,17.984,0,0,0-3.539-.886,17.948,17.948,0,0,0,3.366,1.415l1.836.677c.675.233,1.42.455,2.215.708,1.6.486,3.4,1.1,5.446,1.589l3.2.825c1.113.28,2.288.5,3.5.763,2.413.555,5.028.953,7.773,1.409a136.5,136.5,0,0,0,36.118.567c2.759-.369,5.385-.685,7.814-1.165,1.216-.226,2.4-.407,3.519-.653l3.221-.724c2.059-.429,3.883-.982,5.493-1.418.8-.228,1.554-.426,2.237-.637l1.855-.62a17.876,17.876,0,0,0,3.409-1.308" transform="translate(-25.851 -39.49)" fill="#b53096"/>
            <path id="Trazado_1003251" data-name="Trazado 1003251" d="M103.574,10.961c-.232-3.639-1.063-6.337-2.056-6.337s-1.825,2.7-2.056,6.337c-3.341.245-5.8,1.067-5.8,2.047s2.462,1.8,5.8,2.047c.232,3.639,1.063,6.337,2.056,6.337s1.825-2.7,2.056-6.337c3.341-.245,5.8-1.068,5.8-2.047s-2.462-1.8-5.8-2.047" transform="translate(-13.206 -0.652)" fill="#0e5a52"/>
            <path id="Trazado_1003252" data-name="Trazado 1003252" d="M288.881,40.145c-.207-3.258-.952-5.674-1.842-5.674s-1.634,2.415-1.841,5.674c-2.992.219-5.2.956-5.2,1.833s2.2,1.614,5.2,1.833c.207,3.258.952,5.673,1.841,5.673s1.635-2.415,1.842-5.673c2.992-.219,5.2-.955,5.2-1.833s-2.2-1.614-5.2-1.833" transform="translate(-39.482 -4.861)" fill="#9cb9b4"/>
            <path id="Trazado_1003253" data-name="Trazado 1003253" d="M439.769,168.149c-.207-3.258-.952-5.674-1.842-5.674s-1.634,2.415-1.841,5.674c-2.992.219-5.2.955-5.2,1.833s2.2,1.613,5.2,1.832c.207,3.258.952,5.674,1.841,5.674s1.635-2.415,1.842-5.674c2.992-.219,5.2-.955,5.2-1.832s-2.2-1.614-5.2-1.833" transform="translate(-60.758 -22.91)" fill="#0e5a52"/>
            <path id="Trazado_1003254" data-name="Trazado 1003254" d="M7.841,195.6c-.183-2.878-.841-5.011-1.626-5.011s-1.443,2.134-1.626,5.011c-2.642.193-4.589.844-4.589,1.618s1.946,1.425,4.589,1.618c.183,2.878.841,5.011,1.626,5.011s1.443-2.134,1.626-5.011c2.642-.193,4.589-.844,4.589-1.618s-1.946-1.425-4.589-1.618" transform="translate(0 -26.873)" fill="#0e5a52"/>
            <path id="Trazado_1003255" data-name="Trazado 1003255" d="M16.066,79.821c-.11-1.724-.5-3-.974-3s-.865,1.278-.975,3c-1.583.116-2.75.506-2.75.97s1.167.854,2.75.97c.11,1.724.5,3,.975,3s.864-1.278.974-3c1.583-.116,2.75-.506,2.75-.97s-1.167-.854-2.75-.97" transform="translate(-1.603 -10.832)" fill="#95ebba"/>
            <path id="Trazado_1003256" data-name="Trazado 1003256" d="M425.968,85.191c-.11-1.724-.5-3-.974-3s-.865,1.278-.975,3c-1.583.116-2.75.506-2.75.97s1.167.854,2.75.97c.11,1.724.5,3,.975,3s.864-1.278.974-3c1.583-.116,2.75-.506,2.75-.97s-1.167-.854-2.75-.97" transform="translate(-59.401 -11.589)" fill="#95ebba"/>
            <path id="Trazado_1003257" data-name="Trazado 1003257" d="M222.6,3c-.11-1.724-.5-3-.974-3s-.865,1.278-.975,3c-1.583.116-2.75.506-2.75.97s1.167.854,2.75.97c.11,1.724.5,3,.975,3s.864-1.278.974-3c1.583-.116,2.75-.506,2.75-.97s-1.167-.854-2.75-.97" transform="translate(-30.725)" fill="#95ebba"/>
            <path id="Trazado_1003258" data-name="Trazado 1003258" d="M155.347,65.149c-.135-2.109-.617-3.672-1.192-3.672s-1.057,1.563-1.191,3.672c-1.938.142-3.364.618-3.364,1.186s1.426,1.045,3.364,1.185c.133,2.109.615,3.672,1.191,3.672s1.057-1.563,1.192-3.672c1.936-.141,3.362-.618,3.362-1.185s-1.426-1.045-3.362-1.186" transform="translate(-21.094 -8.669)" fill="#9cb9b4"/>
            <path id="Trazado_1003259" data-name="Trazado 1003259" d="M131.828,236.116c8.026,4.675,17.036,7.666,26.182,9.738.94-4.814,1.858-9.632,2.528-14.491a163.611,163.611,0,0,0,1.018-23.768,58.162,58.162,0,0,1-9.24-6.043,163.751,163.751,0,0,1-16.446-15.8c-3.256-3.509-6.842-7.258-11.141-9.5-4.991-2.6-11.048-3.226-16.579-3.952-2.642-.346-6.546-.183-9.457-1.086a31.7,31.7,0,0,1-35.637,2.526c-.729.289-1.48.533-2.227.749-5.9,1.707-12.344,2.5-17.169,6.3a27.511,27.511,0,0,0-4.789,5.188c-5.137,6.825-9.183,15.748-12.841,23.524-3.242,6.889-5.407,14.536-7.472,21.873-1.688,6-3.236,12.169-2.774,18.382.84,11.31,8.828,21.955,21.063,21.687.423-.009-3.449,9.308-3.69,10.171-3.4,12.147,19,13.042,25.572,13.772,14.29,1.586,29.378.675,43.567-1.3,11.218-1.558,26.7-4.534,35.856-11.7,8.306-6.495-1.384-21.814-3.423-29.242-1.586-5.777-3.249-10.926-2.9-17.039" transform="translate(-2.214 -24.142)" fill="#433c5b"/>
            <path id="Trazado_1003260" data-name="Trazado 1003260" d="M79.081,218.79a5.8,5.8,0,0,0,6.816-4.884,5.273,5.273,0,0,0-4.743-5.96c-6.8-.992-8.738,9.175-2.073,10.844a.355.355,0,0,0,.189-.685c-5.716-1.432-4.316-9.555,1.392-9.493a4.623,4.623,0,0,1,4.572,4.736c.04,3.142-3.079,5.22-5.965,4.757-.448-.072-.64.612-.189.685" transform="translate(-10.57 -29.312)" fill="#5a519e"/>
            <path id="Trazado_1003261" data-name="Trazado 1003261" d="M108.832,201.314a5.8,5.8,0,0,0,6.816-4.884,5.273,5.273,0,0,0-4.743-5.96c-6.8-.992-8.738,9.175-2.073,10.844a.355.355,0,0,0,.189-.685c-5.716-1.432-4.316-9.555,1.392-9.493a4.623,4.623,0,0,1,4.572,4.736c.04,3.142-3.079,5.22-5.965,4.757-.448-.072-.64.612-.189.685" transform="translate(-14.765 -26.848)" fill="#5a519e"/>
            <path id="Trazado_1003262" data-name="Trazado 1003262" d="M85.145,243.945a5.8,5.8,0,0,0,6.816-4.884,5.273,5.273,0,0,0-4.744-5.96c-6.8-.992-8.737,9.175-2.072,10.844a.355.355,0,0,0,.188-.685c-5.716-1.432-4.315-9.555,1.392-9.493A4.621,4.621,0,0,1,91.3,238.5c.04,3.142-3.079,5.22-5.965,4.757-.448-.072-.639.612-.188.685" transform="translate(-11.425 -32.859)" fill="#5a519e"/>
            <path id="Trazado_1003263" data-name="Trazado 1003263" d="M141.818,209.665a5.265,5.265,0,0,1-5.626,3c-5.275-1.321-4.486-8.339.155-9.363q-.291-.335-.55-.691c-4.864,1.276-5.64,9.275.206,10.739a5.78,5.78,0,0,0,6.213-3.046c-.13-.213-.266-.424-.4-.637" transform="translate(-18.596 -28.569)" fill="#5a519e"/>
            <path id="Trazado_1003264" data-name="Trazado 1003264" d="M113.953,235.885A5.8,5.8,0,0,0,120.769,231a5.273,5.273,0,0,0-4.743-5.96c-6.8-.992-8.738,9.175-2.073,10.844a.355.355,0,0,0,.189-.685c-5.716-1.432-4.316-9.555,1.392-9.493a4.623,4.623,0,0,1,4.572,4.736c.04,3.142-3.079,5.22-5.965,4.757-.448-.072-.64.612-.189.685" transform="translate(-15.487 -31.722)" fill="#5a519e"/>
            <path id="Trazado_1003265" data-name="Trazado 1003265" d="M139.272,245.853a5.8,5.8,0,0,0,6.816-4.884,5.273,5.273,0,0,0-4.743-5.96c-6.8-.992-8.738,9.175-2.073,10.844a.355.355,0,0,0,.189-.685c-5.716-1.432-4.316-9.555,1.392-9.493a4.623,4.623,0,0,1,4.572,4.736c.04,3.142-3.079,5.22-5.965,4.757-.448-.072-.64.612-.189.685" transform="translate(-19.057 -33.128)" fill="#5a519e"/>
            <path id="Trazado_1003266" data-name="Trazado 1003266" d="M135.349,276.346a5.8,5.8,0,0,0,6.816-4.884,5.273,5.273,0,0,0-4.743-5.96c-6.8-.992-8.738,9.175-2.073,10.844a.355.355,0,0,0,.189-.685c-5.716-1.432-4.316-9.555,1.392-9.493A4.623,4.623,0,0,1,141.5,270.9c.04,3.142-3.079,5.22-5.965,4.757-.448-.072-.64.612-.189.685" transform="translate(-18.504 -37.427)" fill="#5a519e"/>
            <path id="Trazado_1003267" data-name="Trazado 1003267" d="M81.927,294.092a5.8,5.8,0,0,0,6.815-4.884A5.273,5.273,0,0,0,84,283.248c-6.8-.992-8.738,9.175-2.072,10.844a.355.355,0,0,0,.188-.685c-5.716-1.432-4.316-9.555,1.392-9.493a4.623,4.623,0,0,1,4.572,4.736c.04,3.142-3.079,5.22-5.965,4.757-.448-.072-.64.612-.188.685" transform="translate(-10.971 -39.93)" fill="#5a519e"/>
            <path id="Trazado_1003268" data-name="Trazado 1003268" d="M155.668,288.838q.4-.215.8-.426c-4.722-1.893-3.36-9,1.821-9.225q-.14-.371-.283-.738c-5.425.167-7.022,7.927-2.334,10.389" transform="translate(-21.56 -39.263)" fill="#5a519e"/>
            <path id="Trazado_1003269" data-name="Trazado 1003269" d="M52.461,300.789a4.941,4.941,0,0,1,4.7-6.757,4.624,4.624,0,0,1,4.573,4.735,4.572,4.572,0,0,1-2.051,3.843c.3.052.612.094.917.142a5.971,5.971,0,0,0,1.8-3.427,5.272,5.272,0,0,0-4.743-5.959c-4.561-.666-6.93,3.693-5.984,7.137.263.1.524.2.789.286" transform="translate(-7.257 -41.356)" fill="#5a519e"/>
            <path id="Trazado_1003270" data-name="Trazado 1003270" d="M113.2,302.319c.387-.05.773-.1,1.159-.157-4.607-2.037-3.053-9.232,2.321-9.174a4.623,4.623,0,0,1,4.572,4.736,4.509,4.509,0,0,1-1.627,3.515c.378-.077.756-.149,1.133-.229a6.122,6.122,0,0,0,1.156-2.728,5.272,5.272,0,0,0-4.743-5.959c-6.043-.883-8.241,7.052-3.971,10" transform="translate(-15.648 -41.209)" fill="#5a519e"/>
            <path id="Trazado_1003271" data-name="Trazado 1003271" d="M112.316,171.213Z" transform="translate(-15.837 -24.142)" fill="#50467f"/>
            <path id="Trazado_1003272" data-name="Trazado 1003272" d="M114.276,172.228c-2.6-.25-6.092-.186-8.762-1.014a31.7,31.7,0,0,1-35.636,2.526c-.73.289-1.481.533-2.227.749-1.175.34-2.372.643-3.572.941a23.507,23.507,0,0,0,14.558,8.887c4.455.758,9.027.192,13.466-.651,5.876-1.117,11.786-2.775,16.709-6.173a23.214,23.214,0,0,0,5.463-5.266" transform="translate(-9.035 -24.142)" fill="#50467f"/>
            <path id="Trazado_1003273" data-name="Trazado 1003273" d="M132.651,180.949a5.8,5.8,0,0,0,6.816-4.884c0-.021,0-.041.007-.063-.228-.1-.448-.217-.678-.313-.082,3.039-3.128,5.029-5.956,4.575a4.669,4.669,0,0,1-3.066-6.89c-.248-.04-.5-.076-.744-.113-1.221,2.854-.265,6.715,3.621,7.688" transform="translate(-18.124 -24.431)" fill="#5a519e"/>
            <path id="Trazado_1003274" data-name="Trazado 1003274" d="M152.008,205.806a5.8,5.8,0,0,0,6.816-4.884,5.273,5.273,0,0,0-4.743-5.96c-6.8-.992-8.738,9.175-2.073,10.844a.355.355,0,0,0,.189-.685c-5.716-1.432-4.316-9.555,1.392-9.493a4.623,4.623,0,0,1,4.572,4.736c.04,3.142-3.079,5.22-5.965,4.757-.448-.072-.64.612-.189.685" transform="translate(-20.853 -27.481)" fill="#5a519e"/>
            <path id="Trazado_1003275" data-name="Trazado 1003275" d="M153.1,219.031a5.08,5.08,0,0,0-5.015,1.977c.126.269.246.539.356.812a4.8,4.8,0,0,1,4.168-2.122,4.622,4.622,0,0,1,4.572,4.735c.04,3.143-3.079,5.22-5.965,4.757a5.467,5.467,0,0,1-1.357-.533c.023.276.046.552.065.829a6.194,6.194,0,0,0,1.1.389,5.8,5.8,0,0,0,6.816-4.885,5.272,5.272,0,0,0-4.743-5.959" transform="translate(-20.881 -30.875)" fill="#5a519e"/>
            <path id="Trazado_1003276" data-name="Trazado 1003276" d="M181.022,211.127a5.116,5.116,0,0,1-5.934,4.169c-4.8-1.2-4.58-7.124-1-8.952-.228-.182-.448-.372-.673-.557-3.666,2.21-3.8,8.871,1.489,10.195a5.781,5.781,0,0,0,6.731-4.492c-.2-.118-.405-.242-.608-.363" transform="translate(-24.081 -29.017)" fill="#5a519e"/>
            <path id="Trazado_1003277" data-name="Trazado 1003277" d="M173.9,247.256a5.8,5.8,0,0,0,6.816-4.884,5.273,5.273,0,0,0-4.743-5.96c-6.8-.992-8.738,9.175-2.073,10.844a.355.355,0,0,0,.189-.685c-5.716-1.432-4.316-9.555,1.392-9.493a4.623,4.623,0,0,1,4.572,4.736c.04,3.142-3.079,5.22-5.965,4.757-.448-.072-.64.612-.189.685" transform="translate(-23.939 -33.326)" fill="#5a519e"/>
            <path id="Trazado_1003278" data-name="Trazado 1003278" d="M143.948,286.668c-1.739.943-3.686,1.913-5.858,2.87a154.865,154.865,0,0,1-43.771,12.051,126.6,126.6,0,0,1-25.008.548,114.163,114.163,0,0,1-20.153-3.4,56.954,56.954,0,0,1-11.666-4.206l-.229.583a52.688,52.688,0,0,0,11.627,4.6A107.907,107.907,0,0,0,69.2,303.447a122.288,122.288,0,0,0,25.284-.441,139.762,139.762,0,0,0,24.742-5.193,148.658,148.658,0,0,0,19.284-7.357c2.074-.969,3.947-1.955,5.62-2.92-.055-.288-.118-.577-.182-.868" transform="translate(-5.254 -40.422)" fill="#252230"/>
            <path id="Trazado_1003279" data-name="Trazado 1003279" d="M244.6,157.779a14.54,14.54,0,0,1-2.621-1.372A40.617,40.617,0,0,1,203.91,159.4a26.858,26.858,0,0,1-7.3,3.15,25.729,25.729,0,0,0,9.7,5.792c5.783,1.942,12.024,2.1,18.1,1.582,9.736-.83,19.976-3.9,27.057-10.269a42.071,42.071,0,0,1-6.859-1.875" transform="translate(-27.722 -22.054)" fill="#b53096"/>
            <path id="Trazado_1003280" data-name="Trazado 1003280" d="M307.18,85.234c1.589-7.424,3.025-16.85,9.358-21.876,4.1-3.254,10.62-4.875,15.711-5.45C345.882,56.366,361.5,59.521,368,73.116c3.177,6.649,2.979,14.292,2.119,21.684a10.06,10.06,0,0,1,10.5,5.679c1.721,3.83,1,8.473-1.222,12.035a14.228,14.228,0,0,1-6.525,5.662,11.5,11.5,0,0,1-8.391.2,28.991,28.991,0,0,1-9.491,11.519c-8.685,5.916-20.623,7.32-30.759,4.92l-.226-.054c-21.087-5.125-20.444-32.6-16.821-49.528" transform="translate(-43.039 -8.115)" fill="#b65743"/>
            <path id="Trazado_1003281" data-name="Trazado 1003281" d="M147.374,240.6a7.646,7.646,0,0,0,.492-2.384,58.544,58.544,0,0,0,.453-6.606,64.125,64.125,0,0,0-.59-9.824,52.805,52.805,0,0,0-2.963-11.72,35.411,35.411,0,0,0-6.2-10.418c-1.194-1.426-2.423-2.712-3.569-3.868a31.618,31.618,0,0,1-2.927-3.37,13.2,13.2,0,0,1-1.767-3.153,7.985,7.985,0,0,1-.522-2.65c-.009-1.5.328-2.323.2-2.365a4.1,4.1,0,0,0-.753,2.346,7.791,7.791,0,0,0,.32,2.921,13.126,13.126,0,0,0,1.695,3.476,29.619,29.619,0,0,0,2.9,3.607c1.119,1.2,2.273,2.474,3.413,3.89a36.053,36.053,0,0,1,5.885,10.1,56.253,56.253,0,0,1,2.994,11.4,76.092,76.092,0,0,1,.882,9.64c.156,5.526-.168,8.958.064,8.981" transform="translate(-18.218 -25.979)" fill="#252230"/>
            <g id="Grupo_1192063" data-name="Grupo 1192063" transform="translate(111.724 158.318)" opacity="0.2" style="mix-blend-mode: multiply;isolation: isolate">
              <g id="Grupo_1192062" data-name="Grupo 1192062">
                <g id="Grupo_1192061" data-name="Grupo 1192061" clip-path="url(#clip-path-9)">
                  <path id="Trazado_1003282" data-name="Trazado 1003282" d="M148.778,204.224c3.75,5.059,5.047,11.644,4.548,17.922s-2.665,12.311-5.295,18.034a102.181,102.181,0,0,0-1.306-19.974c-1.067-6.469-2.867-13.057-7.021-18.129-2.179-2.66-4.948-4.829-6.866-7.683-1.891-2.812-4.013-6.866-1.887-10.088-2.058,3.12,16.251,17.793,17.827,19.918" transform="translate(-130.064 -184.306)" fill="#5d5d5d"/>
                </g>
              </g>
            </g>
            <g id="Grupo_1192066" data-name="Grupo 1192066" transform="translate(32.754 224.796)" opacity="0.2" style="mix-blend-mode: multiply;isolation: isolate">
              <g id="Grupo_1192065" data-name="Grupo 1192065">
                <g id="Grupo_1192064" data-name="Grupo 1192064" clip-path="url(#clip-path-10)">
                  <path id="Trazado_1003283" data-name="Trazado 1003283" d="M38.131,287.583a29.861,29.861,0,0,0,19.96,5.687c7.614-.619,14.758-4.158,22.369-4.81,4.94-.423,9.893.385,14.844.649s10.147-.077,14.439-2.562a12.439,12.439,0,0,0,3.5-2.921c.884-1.1,1.527-2.374,2.31-3.551,3.228-4.859,8.568-7.8,13.579-10.786,1.916-1.142,4.087-2.912,3.607-5.09-.4-1.818-2.6-2.732-4.438-2.453s-3.426,1.4-5.023,2.354c-4.761,2.855-10.142,4.474-15.46,6.065-4.278,1.28-8.69,2.574-13.134,2.135-3.756-.371-7.275-1.959-10.954-2.8a28.361,28.361,0,0,0-21.771,3.982" transform="translate(-38.131 -261.697)" fill="#5d5d5d"/>
                </g>
              </g>
            </g>
            <path id="Trazado_1003284" data-name="Trazado 1003284" d="M342.886,86.166c-.872,1.722.826,4.335,3.792,5.837s6.078,1.323,6.95-.4-.827-4.335-3.793-5.837-6.077-1.323-6.949.4" transform="translate(-48.316 -11.95)" fill="#823329"/>
            <path id="Trazado_1003285" data-name="Trazado 1003285" d="M314,87.087c.59,1.837,3.634,2.5,6.8,1.488s5.254-3.329,4.664-5.168-3.634-2.5-6.8-1.488-5.254,3.33-4.664,5.168" transform="translate(-44.261 -11.484)" fill="#823329"/>
            <path id="Trazado_1003286" data-name="Trazado 1003286" d="M345.742,104.258c-.126,1.961.582,3.6,1.582,3.667s1.912-1.474,2.038-3.434-.582-3.6-1.582-3.667-1.911,1.473-2.038,3.434" transform="translate(-48.749 -14.216)" fill="#823329"/>
            <path id="Trazado_1003287" data-name="Trazado 1003287" d="M318.366,101.486c-.126,1.961.582,3.6,1.582,3.667s1.912-1.474,2.038-3.434-.582-3.6-1.582-3.667-1.911,1.473-2.038,3.434" transform="translate(-44.889 -13.825)" fill="#823329"/>
            <path id="Trazado_1003288" data-name="Trazado 1003288" d="M375.609,122.539c.148-.048-.259-1.294-.4-3.349a15.8,15.8,0,0,1,1.436-7.759,15.994,15.994,0,0,1,5.062-6.056,6.185,6.185,0,0,1,2.119-1.051c.545-.128.874-.108.885-.181.012-.054-.309-.207-.935-.186a5.368,5.368,0,0,0-2.436.855,14.666,14.666,0,0,0-5.554,6.212,14.519,14.519,0,0,0-1.246,8.237c.322,2.135.97,3.321,1.066,3.279" transform="translate(-52.792 -14.658)" fill="#933d2e"/>
            <path id="Trazado_1003289" data-name="Trazado 1003289" d="M379.078,121.351c.067.089.8-.3,1.6-1.363a7.379,7.379,0,0,0-.68-9.522c-.934-.936-1.719-1.22-1.773-1.122-.082.123.539.6,1.264,1.563a7.794,7.794,0,0,1,.623,8.718c-.582,1.057-1.13,1.617-1.029,1.727" transform="translate(-53.33 -15.415)" fill="#933d2e"/>
            <path id="Trazado_1003290" data-name="Trazado 1003290" d="M334.587,113.356c-.031-.075-.387.051-1.028.131a3.632,3.632,0,0,1-2.5-.616,4.318,4.318,0,0,1-1.638-3.358,24.412,24.412,0,0,1,.591-5.006c1.276-7.186,3.046-12.857,2.781-12.943a13.731,13.731,0,0,0-1.46,3.626,71.779,71.779,0,0,0-2.257,9.149,21.929,21.929,0,0,0-.528,5.24,4.9,4.9,0,0,0,2.141,3.853,3.741,3.741,0,0,0,2.944.418c.676-.205.98-.451.959-.495" transform="translate(-46.322 -12.911)" fill="#933d2e"/>
            <path id="Trazado_1003291" data-name="Trazado 1003291" d="M339.1,116.783c-.122-.076-.54.46-1.336,1.147a8.709,8.709,0,0,1-7.535,2.054c-1.035-.188-1.667-.438-1.733-.31-.059.1.479.578,1.561.96a7.605,7.605,0,0,0,8.186-2.231c.738-.879.96-1.563.857-1.62" transform="translate(-46.318 -16.466)" fill="#933d2e"/>
            <path id="Trazado_1003292" data-name="Trazado 1003292" d="M364.594,165.277q.343.16.683.322a27.724,27.724,0,0,1-26.47,7.38c-5.692-1.467-11.272-5.519-13.079-10.84-.42.064-.842.119-1.257.169-.371.046-.742.1-1.113.15a28.625,28.625,0,0,0-1.4,4.541,11.483,11.483,0,0,0-.053,5.817,8.8,8.8,0,0,0,6.877,5.656,14.812,14.812,0,0,0,9.063-1.59,14.182,14.182,0,0,0,11.4,8.138,16.05,16.05,0,0,0,11.207-3.946,30.538,30.538,0,0,0,7.307-9.642,35.907,35.907,0,0,0,1.752-3.873c-1.65-.74-3.293-1.5-4.922-2.282" transform="translate(-45.34 -22.862)" fill="#fff"/>
            <path id="Trazado_1003293" data-name="Trazado 1003293" d="M301.709,235.768c.264-.094-1.211-3.281-1.847-8.775a42.22,42.22,0,0,1,.04-9.645,54.971,54.971,0,0,1,2.741-11.509,103.667,103.667,0,0,1,4.784-10.923,66.785,66.785,0,0,0,3.758-9.138,26.544,26.544,0,0,0,1.223-6.576,11.9,11.9,0,0,0-.028-1.819c-.036-.414-.079-.63-.128-.63-.257-.014-.132,3.5-2.026,8.708a79.876,79.876,0,0,1-3.981,8.877,89.965,89.965,0,0,0-4.949,11.028,51.766,51.766,0,0,0-2.7,11.841,39.038,39.038,0,0,0,.268,9.925,32.135,32.135,0,0,0,1.733,6.453,8.059,8.059,0,0,0,1.114,2.183" transform="translate(-42.076 -24.923)" fill="#bf7326"/>
            <path id="Trazado_1003294" data-name="Trazado 1003294" d="M378.409,293.033a18.371,18.371,0,0,0-3.384.987c-2.149.7-5.274,1.662-9.187,2.633a98.465,98.465,0,0,1-31.18,2.74,86,86,0,0,1-16.963-3.117,80.734,80.734,0,0,1-13.15-5.1c-7.225-3.573-11.158-6.741-11.316-6.516a14.726,14.726,0,0,0,2.694,2.288,62.978,62.978,0,0,0,8.163,5.126,74.337,74.337,0,0,0,13.234,5.457,82.006,82.006,0,0,0,17.226,3.281,91.25,91.25,0,0,0,31.549-3.187,85.719,85.719,0,0,0,9.121-3.086,15.412,15.412,0,0,0,3.194-1.509" transform="translate(-41.346 -40.137)" fill="#bf7326"/>
            <g id="Grupo_1192069" data-name="Grupo 1192069" transform="translate(252.354 142.789)" opacity="0.36" style="mix-blend-mode: overlay;isolation: isolate">
              <g id="Grupo_1192068" data-name="Grupo 1192068">
                <g id="Grupo_1192067" data-name="Grupo 1192067" clip-path="url(#clip-path-11)">
                  <path id="Trazado_1003295" data-name="Trazado 1003295" d="M370.251,205.7a144.418,144.418,0,0,0-8.612-11.946.316.316,0,0,0-.435-.081.354.354,0,0,0-.234.258,146.488,146.488,0,0,0-3.021,14.627.406.406,0,0,0,.492.492l11.571-2.763a.343.343,0,0,0,.259-.227.336.336,0,0,0-.02-.361m-8.7-10.774c2.744,3.443,5.292,7.039,7.708,10.719l-10.43,2.49q1.057-6.671,2.722-13.21" transform="translate(-302.826 -170.091)" fill="#fff"/>
                  <path id="Trazado_1003296" data-name="Trazado 1003296" d="M389.2,240.96a144.034,144.034,0,0,0-8.612-11.946.315.315,0,0,0-.434-.081.352.352,0,0,0-.234.258,146.485,146.485,0,0,0-3.021,14.627.406.406,0,0,0,.492.492l11.571-2.763a.345.345,0,0,0,.259-.227.334.334,0,0,0-.021-.361m-8.7-10.773c2.744,3.443,5.291,7.039,7.708,10.719l-10.43,2.49q1.055-6.671,2.722-13.21" transform="translate(-305.498 -175.062)" fill="#fff"/>
                  <path id="Trazado_1003297" data-name="Trazado 1003297" d="M328.759,202.51a144.536,144.536,0,0,0,9.387-11.346.316.316,0,0,0-.032-.442.351.351,0,0,0-.308-.161,146.62,146.62,0,0,0-14.916.765.406.406,0,0,0-.351.6l5.591,10.5a.345.345,0,0,0,.285.194.336.336,0,0,0,.344-.111m8.23-11.139c-2.639,3.524-5.477,6.9-8.429,10.162l-5.04-9.464q6.721-.66,13.469-.7" transform="translate(-297.826 -169.659)" fill="#fff"/>
                  <path id="Trazado_1003298" data-name="Trazado 1003298" d="M394.988,176.175q-2.744,3.4-5.681,6.645l-5.04-9.464q1.831-.179,3.663-.31c-.575-.222-1.154-.436-1.727-.662-.856.073-1.711.143-2.566.23a.406.406,0,0,0-.352.6l5.592,10.5a.343.343,0,0,0,.284.193.338.338,0,0,0,.344-.11q3.194-3.514,6.178-7.211-.347-.21-.7-.411" transform="translate(-306.392 -167.096)" fill="#fff"/>
                  <path id="Trazado_1003299" data-name="Trazado 1003299" d="M309.963,174.533a.338.338,0,0,0-.02-.361q-2.644-4.054-5.528-7.944c-.273.076-.545.159-.817.237q2.793,3.74,5.349,7.654l-10.429,2.489q.728-4.6,1.752-9.128-.446.147-.889.3c-.675,3.062-1.263,6.143-1.74,9.247a.406.406,0,0,0,.491.492L309.7,174.76a.345.345,0,0,0,.259-.227" transform="translate(-294.322 -166.228)" fill="#fff"/>
                  <path id="Trazado_1003300" data-name="Trazado 1003300" d="M324.467,272.02a144.575,144.575,0,0,0-4.584,13.995.316.316,0,0,0,.191.4.349.349,0,0,0,.345.037,146.513,146.513,0,0,0,13.6-6.17.406.406,0,0,0,.108-.687l-9.046-7.726a.346.346,0,0,0-.336-.076.336.336,0,0,0-.279.228M320.883,285.4c1.167-4.246,2.574-8.422,4.126-12.541l8.154,6.964q-6.012,3.073-12.279,5.577" transform="translate(-297.457 -181.111)" fill="#fff"/>
                  <path id="Trazado_1003301" data-name="Trazado 1003301" d="M318.027,256.353a144.546,144.546,0,0,0,9.387-11.346.316.316,0,0,0-.032-.442.351.351,0,0,0-.307-.161,146.619,146.619,0,0,0-14.916.765.406.406,0,0,0-.351.6l5.591,10.5a.345.345,0,0,0,.285.194.336.336,0,0,0,.344-.111m8.23-11.139c-2.639,3.524-5.477,6.9-8.429,10.162l-5.04-9.464q6.721-.66,13.469-.7" transform="translate(-296.313 -177.251)" fill="#fff"/>
                  <path id="Trazado_1003302" data-name="Trazado 1003302" d="M348.312,236.269a144.543,144.543,0,0,0,9.387-11.346.316.316,0,0,0-.032-.442.351.351,0,0,0-.307-.161,146.62,146.62,0,0,0-14.916.765.406.406,0,0,0-.351.6l5.591,10.5a.345.345,0,0,0,.285.194.336.336,0,0,0,.344-.111m8.23-11.139c-2.639,3.524-5.477,6.9-8.429,10.162l-5.04-9.464q6.721-.66,13.469-.7" transform="translate(-300.583 -174.419)" fill="#fff"/>
                  <path id="Trazado_1003303" data-name="Trazado 1003303" d="M350.134,305.985a144.359,144.359,0,0,0,9.387-11.346.316.316,0,0,0-.031-.442.353.353,0,0,0-.308-.161,146.641,146.641,0,0,0-14.917.765.406.406,0,0,0-.351.6l5.591,10.5a.347.347,0,0,0,.285.194.335.335,0,0,0,.344-.111m8.231-11.139c-2.64,3.524-5.477,6.9-8.43,10.162q-2.518-4.731-5.04-9.464,6.721-.66,13.47-.7" transform="translate(-300.84 -184.25)" fill="#fff"/>
                  <path id="Trazado_1003304" data-name="Trazado 1003304" d="M323.748,221.013a144.474,144.474,0,0,0-13.011-6.9.316.316,0,0,0-.426.12.35.35,0,0,0-.095.333,146.5,146.5,0,0,0,3.767,14.453.406.406,0,0,0,.659.223l9.152-7.6a.343.343,0,0,0,.132-.318.337.337,0,0,0-.178-.314m-12.573-5.807c3.986,1.872,7.861,3.969,11.657,6.2l-8.249,6.85q-2-6.448-3.408-13.049" transform="translate(-296.095 -172.975)" fill="#fff"/>
                  <path id="Trazado_1003305" data-name="Trazado 1003305" d="M363.5,255.609a144.474,144.474,0,0,0-13.011-6.9.316.316,0,0,0-.426.12.35.35,0,0,0-.094.333,146.5,146.5,0,0,0,3.767,14.453.406.406,0,0,0,.659.223l9.152-7.6a.343.343,0,0,0,.132-.318.337.337,0,0,0-.178-.314M350.924,249.8c3.986,1.872,7.862,3.969,11.657,6.2l-8.249,6.85q-2-6.448-3.408-13.049" transform="translate(-301.699 -177.853)" fill="#fff"/>
                  <path id="Trazado_1003306" data-name="Trazado 1003306" d="M301.646,271.531q-3.751-2.219-7.617-4.233-.128.385-.253.771,3.524,1.839,6.952,3.854l-5.759,4.782a7.308,7.308,0,0,1,.173.9l6.548-5.437a.343.343,0,0,0,.132-.318.337.337,0,0,0-.177-.314" transform="translate(-293.778 -180.479)" fill="#fff"/>
                </g>
              </g>
            </g>
            <path id="Trazado_1003307" data-name="Trazado 1003307" d="M59.731,138.71c-.634-.885-2.112-.035-1.471.86,6.224,8.684,1.394,20.93-9.766,21.426-5.43.241-10.073-4.008-11.618-8.906-1.083-3.433-.131-8.127,2.19-11.529a4.123,4.123,0,0,1-.2-2.1c.022-.143.054-.283.083-.423A15.871,15.871,0,0,0,34.9,147.25c-.487,6.157,2.591,12.347,8.707,14.489,14.048,4.92,24.342-11.564,16.124-23.029" transform="translate(-4.914 -19.464)" fill="#fff"/>
            <path id="Trazado_1003308" data-name="Trazado 1003308" d="M106.466,167.579a7.239,7.239,0,0,1-2.093-.987c-3.268-2.355-3.8-6.945-3.84-10.974q-.052-5.093.32-10.179-9.57.638-19.1,1.785a2,2,0,0,0-2.233,2.1c-.868,5.935-.625,13.346-4.717,18.154a9.8,9.8,0,0,1-3.979,2.629,31.7,31.7,0,0,0,35.637-2.527" transform="translate(-9.987 -20.508)" fill="#b65743"/>
            <g id="Grupo_1192072" data-name="Grupo 1192072" transform="translate(68.458 124.931)" opacity="0.39">
              <g id="Grupo_1192071" data-name="Grupo 1192071">
                <g id="Grupo_1192070" data-name="Grupo 1192070" clip-path="url(#clip-path-12)">
                  <path id="Trazado_1003309" data-name="Trazado 1003309" d="M102.293,160.9a26.044,26.044,0,0,1-.509-5.283q-.052-5.093.319-10.18-9.568.638-19.095,1.784a2,2,0,0,0-2.233,2.1c-.411,2.818-.582,5.967-1.079,9.014,7.236,3.055,14.907,3.5,22.6,2.563" transform="translate(-79.696 -145.439)" fill="#933d2e"/>
                </g>
              </g>
            </g>
            <path id="Trazado_1003310" data-name="Trazado 1003310" d="M45.787,133.9c-6.109.477-10.429,6.978-10.887,12.765-.488,6.157,2.59,12.347,8.707,14.49,14.048,4.919,24.341-11.564,16.123-23.029-.634-.885-2.112-.035-1.471.86,6.224,8.684,1.393,20.93-9.767,21.426-5.429.241-10.073-4.009-11.618-8.906-1.846-5.854,2.216-15.379,8.912-15.9,1.087-.084,1.1-1.789,0-1.7" transform="translate(-4.914 -18.88)" fill="#fff"/>
            <path id="Trazado_1003311" data-name="Trazado 1003311" d="M123.723,133.852c6.286,5.064,16.793,2.373,19.909-5.221,3.477-8.469-1.674-17.579-11-18.116-1.1-.063-1.092,1.641,0,1.7,7.191.413,11.511,6.7,10.183,13.617-1.471,7.661-11.809,11.707-17.889,6.812-.847-.683-2.06.515-1.2,1.2" transform="translate(-17.404 -15.583)" fill="#fff"/>
            <path id="Trazado_1003312" data-name="Trazado 1003312" d="M123.465,94.589a4.739,4.739,0,0,1,4.945-.417,9.246,9.246,0,0,1,3.722,3.584,18.572,18.572,0,0,1-1.5,21.4" transform="translate(-17.409 -13.209)" fill="#a54a3c"/>
            <path id="Trazado_1003313" data-name="Trazado 1003313" d="M113.479,88.632c-2.965-6.989-6.158-15.973-13.328-19.711C95.51,66.5,88.8,66.145,83.693,66.543c-13.679,1.066-28.416,7.12-32.225,21.7-1.862,7.13-.221,14.6,2.022,21.692a10.061,10.061,0,0,0-9.234,7.563c-.966,4.087.62,8.51,3.477,11.587a14.231,14.231,0,0,0,7.478,4.324,11.5,11.5,0,0,0,8.277-1.39,29,29,0,0,0,11.5,9.515c9.647,4.166,21.635,3.286,31.134-.989.07-.031.141-.063.211-.1,19.736-9.021,13.908-35.874,7.146-51.815" transform="translate(-6.2 -9.363)" fill="#b65743"/>
            <path id="Trazado_1003314" data-name="Trazado 1003314" d="M62.551,137.624c.1.023.514-1.264.426-3.421A14.511,14.511,0,0,0,60.2,126.35a14.666,14.666,0,0,0-6.629-5.049,5.358,5.358,0,0,0-2.555-.378c-.618.1-.9.308-.882.359.024.07.343-.012.9.01a6.178,6.178,0,0,1,2.28.631,16,16,0,0,1,6.116,4.988,15.8,15.8,0,0,1,2.878,7.348c.254,2.044.089,3.345.244,3.364" transform="translate(-7.068 -17.046)" fill="#933d2e"/>
            <path id="Trazado_1003315" data-name="Trazado 1003315" d="M60.126,136.829c.077-.127-.567-.572-1.337-1.5a7.8,7.8,0,0,1-1.039-8.678c.531-1.084,1.051-1.669.947-1.774-.072-.086-.789.341-1.529,1.438a7.378,7.378,0,0,0,1.134,9.478c.978.891,1.775,1.137,1.825,1.037" transform="translate(-7.888 -17.607)" fill="#933d2e"/>
            <path id="Trazado_1003316" data-name="Trazado 1003316" d="M102.061,120.69c-.012.047.332.232,1.034.306a3.744,3.744,0,0,0,2.811-.968,4.9,4.9,0,0,0,1.374-4.189,21.9,21.9,0,0,0-1.51-5.045,71.83,71.83,0,0,0-3.947-8.558,13.794,13.794,0,0,0-2.12-3.284c-.244.137,2.567,5.37,5.18,12.183a24.4,24.4,0,0,1,1.527,4.805,4.319,4.319,0,0,1-.973,3.607,3.637,3.637,0,0,1-2.341,1.079c-.645.041-1.019-.015-1.035.064" transform="translate(-14.056 -13.952)" fill="#933d2e"/>
            <path id="Trazado_1003317" data-name="Trazado 1003317" d="M109.951,123.474c-.14-.046-.452.8-1.245,1.94a10.487,10.487,0,0,1-1.6,1.812,6.847,6.847,0,0,1-2.449,1.478,4.81,4.81,0,0,1-2.77-.027,8.151,8.151,0,0,1-2.153-1.034c-1.157-.775-1.771-1.432-1.884-1.334-.088.067.344.893,1.48,1.872a7.347,7.347,0,0,0,2.288,1.331,5.328,5.328,0,0,0,3.319.1,6.958,6.958,0,0,0,2.769-1.749,8.843,8.843,0,0,0,1.575-2.1c.7-1.328.782-2.265.671-2.292" transform="translate(-13.796 -17.41)" fill="#933d2e"/>
            <path id="Trazado_1003318" data-name="Trazado 1003318" d="M87.827,95.515c1.182,1.526.009,4.414-2.62,6.449s-5.717,2.448-6.9.923-.009-4.414,2.62-6.449,5.717-2.449,6.9-.923" transform="translate(-10.977 -13.338)" fill="#933d2e"/>
            <path id="Trazado_1003319" data-name="Trazado 1003319" d="M116.2,91.08c-.232,1.916-3.095,3.147-6.4,2.748s-5.789-2.275-5.557-4.192,3.095-3.146,6.4-2.748,5.79,2.275,5.558,4.192" transform="translate(-14.697 -12.241)" fill="#933d2e"/>
            <path id="Trazado_1003320" data-name="Trazado 1003320" d="M89.57,113.795c.495,1.9.11,3.647-.86,3.9s-2.156-1.085-2.651-2.987-.11-3.647.86-3.9,2.156,1.085,2.651,2.987" transform="translate(-12.104 -15.62)" fill="#933d2e"/>
            <path id="Trazado_1003321" data-name="Trazado 1003321" d="M115.927,105.894c.495,1.9.11,3.647-.86,3.9s-2.156-1.085-2.651-2.987-.11-3.647.86-3.9,2.156,1.085,2.651,2.987" transform="translate(-15.821 -14.506)" fill="#933d2e"/>
            <path id="Trazado_1003322" data-name="Trazado 1003322" d="M66.5,83.162A59.832,59.832,0,0,1,72.154,95.41c.021.065.047.131.07.2,5.989-1.76,11.948-3.713,17.877-5.737a74.025,74.025,0,0,0-.877-15.035,107.756,107.756,0,0,0,6.687,13.029q2.938-1.022,5.867-2.048a70.468,70.468,0,0,0,12.409-5.45,3.871,3.871,0,0,0-.312-.619c-2.476-4.115-4.828-10.154-8.644-13.2-3.471-2.775-8.713-3.925-13.017-3.928-10.169-.009-20.2,3.255-29.306,7.632C53.1,74.961,44.823,83.948,46.37,95.52c.519,3.884,1.019,7.772,1.751,11.623.434,2.275.152,2.784,2.37,2.72a20.766,20.766,0,0,0,3.757-.71c5.564-1.381,11.315-6.666,12.655-12.3a23.079,23.079,0,0,0,.227-7.15q-.258-3.273-.63-6.537" transform="translate(-6.512 -8.829)" fill="#eda34c"/>
            <g id="Grupo_1192075" data-name="Grupo 1192075" transform="translate(181.555 111.832)" opacity="0.15" style="mix-blend-mode: multiply;isolation: isolate">
              <g id="Grupo_1192074" data-name="Grupo 1192074">
                <g id="Grupo_1192073" data-name="Grupo 1192073" clip-path="url(#clip-path-13)">
                  <path id="Trazado_1003323" data-name="Trazado 1003323" d="M236.581,130.189l-22.94,4.122a63.021,63.021,0,0,1-1.38,13.177,25.261,25.261,0,0,1-.9,3.311,62.471,62.471,0,0,0,18.486.109,38.975,38.975,0,0,0,9.429-2.8,16.879,16.879,0,0,1-.8-3.407q-.947-7.259-1.895-14.517" transform="translate(-211.357 -130.189)" fill="#e36b6c"/>
                </g>
              </g>
            </g>
            <path id="Trazado_1003324" data-name="Trazado 1003324" d="M261.378,98.137a10.487,10.487,0,0,0-7.07-2.043c1.307-8.974,1.243-18.29-3.311-25.147a32.973,32.973,0,0,0-20.669-13.9A36.511,36.511,0,0,0,210.7,58.283a26.359,26.359,0,0,0-14.441,12.776c-2.28,4.68-2.938,9.965-3.392,15.151q-.618,7.057-.815,14.145c-.26,9.375.466,19.808,7.205,26.332,4.881,4.725,11.976,6.363,18.754,6.819,7,.47,14.27-.168,20.509-3.375a21.781,21.781,0,0,0,10.084-10.906,23.542,23.542,0,0,0,5.86-.556c5.31-1.25,10.091-5.315,10.861-10.947a10.518,10.518,0,0,0-3.951-9.585" transform="translate(-27.075 -7.934)" fill="#e36b6c"/>
            <path id="Trazado_1003325" data-name="Trazado 1003325" d="M216.395,82.686c.3,1.847-2.04,3.76-5.222,4.273s-6-.569-6.3-2.416,2.04-3.76,5.221-4.273,6,.57,6.3,2.416" transform="translate(-28.885 -11.3)" fill="#993a3f"/>
            <path id="Trazado_1003326" data-name="Trazado 1003326" d="M241.028,89.25c-.871,1.655-3.89,1.782-6.741.281s-4.457-4.06-3.586-5.715,3.89-1.782,6.741-.281,4.457,4.06,3.586,5.715" transform="translate(-32.496 -11.631)" fill="#993a3f"/>
            <path id="Trazado_1003327" data-name="Trazado 1003327" d="M212.137,103.175c-.055,1.817-.85,3.267-1.776,3.239s-1.633-1.523-1.578-3.34.85-3.267,1.776-3.239,1.633,1.523,1.578,3.34" transform="translate(-29.439 -14.077)" fill="#993a3f"/>
            <path id="Trazado_1003328" data-name="Trazado 1003328" d="M236.908,104.678c-.055,1.817-.85,3.267-1.776,3.239s-1.633-1.524-1.578-3.34.85-3.267,1.776-3.239,1.633,1.523,1.578,3.34" transform="translate(-32.932 -14.289)" fill="#993a3f"/>
            <path id="Trazado_1003329" data-name="Trazado 1003329" d="M222.938,113.342c-.029-.07-.317.034-.827.021a3.248,3.248,0,0,1-1.946-.709,3.948,3.948,0,0,1-1.359-2.685,8.042,8.042,0,0,1,.68-3.832c.527-1.336,1.177-2.592,1.645-3.811a10.575,10.575,0,0,0,.8-3.406,5.747,5.747,0,0,0-.347-2.347c-.211-.523-.417-.762-.468-.736a12.273,12.273,0,0,1,.158,3.028,11.545,11.545,0,0,1-.935,3.135c-.49,1.153-1.161,2.388-1.718,3.8a8.335,8.335,0,0,0-.663,4.287,4.454,4.454,0,0,0,1.825,3.1,3.273,3.273,0,0,0,2.362.536c.575-.109.82-.339.8-.384" transform="translate(-30.723 -13.513)" fill="#993a3f"/>
            <path id="Trazado_1003330" data-name="Trazado 1003330" d="M268.94,107.228c0-.094-1.276-.161-3.086.7a11.568,11.568,0,0,0-5.259,5.531,16.953,16.953,0,0,0-1.426,7.485,7.848,7.848,0,0,0,.448,3.111,16.068,16.068,0,0,0,.212-3.1,19.8,19.8,0,0,1,1.612-7.1,12.276,12.276,0,0,1,4.725-5.343c1.6-.953,2.8-1.127,2.773-1.285" transform="translate(-36.543 -15.112)" fill="#993a3f"/>
            <path id="Trazado_1003331" data-name="Trazado 1003331" d="M263.281,123.233c.082.081.665-.314,1.283-1.252a7.26,7.26,0,0,0-.324-8.276c-.689-.887-1.3-1.235-1.376-1.148-.1.1.332.609.824,1.51a8.233,8.233,0,0,1,.3,7.6c-.42.937-.809,1.476-.7,1.569" transform="translate(-37.063 -15.869)" fill="#993a3f"/>
            <path id="Trazado_1003332" data-name="Trazado 1003332" d="M217.158,119.384c.726,3.137,2.982,5.427,5.658,5.427s4.919-2.285,5.648-5.413a63.542,63.542,0,0,1-11.306-.014" transform="translate(-30.62 -16.834)" fill="#fff"/>
            <path id="Trazado_1003333" data-name="Trazado 1003333" d="M242.021,58.815a45.621,45.621,0,0,0-14.607-4.574c-3.887-.534-7.923.118-11.317-2.13-4.641-3.073-13.833-7.922-18.83-3.02-1.828,1.793-2.768,4.5-4,6.686-1.368,2.425-3.427,7.18-6.319,7.973a52.93,52.93,0,0,1,9.175,2.087c2.481.831,4.982,1.048,7.417,1.886,3.171,1.092,6.211,2.58,9.512,3.279,8.331,1.763,17.478-1.142,25.272-3.855a89.334,89.334,0,0,0,2.615,19.937,16.117,16.117,0,0,0,2.738,6.427,9,9,0,0,0,8.634,3.066c9.964-2.08,5.278-15.282,2.89-21.631-1.78-4.732-4.11-9.433-7.942-12.731a26.545,26.545,0,0,0-5.233-3.4" transform="translate(-26.36 -6.627)" fill="#433c5b"/>
            <path id="Trazado_1003334" data-name="Trazado 1003334" d="M258.423,101.632a95.449,95.449,0,0,1,13.5.853c5.306.721,8.732,2.236,10.494,7.7.328,1.016,1.934.582,1.6-.442-1.257-3.9-2.975-6.489-6.924-7.917-5.636-2.039-12.782-1.9-18.669-1.86a.832.832,0,0,0,0,1.663" transform="translate(-36.325 -14.094)" fill="#eda34c"/>
            <path id="Trazado_1003335" data-name="Trazado 1003335" d="M206.142,112.9a7.8,7.8,0,0,1-.785-.04l-12.612-1.3a7.6,7.6,0,0,1-6.787-8.341l.826-8.032a7.578,7.578,0,0,1,8.34-6.787l12.612,1.3a7.6,7.6,0,0,1,6.787,8.341l-.826,8.032a7.579,7.579,0,0,1-7.555,6.826m-11.8-22.833a5.882,5.882,0,0,0-5.863,5.3l-.825,8.032a5.9,5.9,0,0,0,5.266,6.473l12.613,1.3A5.883,5.883,0,0,0,212,105.9l.825-8.032a5.9,5.9,0,0,0-5.266-6.473L194.95,90.1a5.867,5.867,0,0,0-.611-.032" transform="translate(-26.215 -12.459)" fill="#eda34c"/>
            <path id="Trazado_1003336" data-name="Trazado 1003336" d="M246.013,117.019c-.26,0-.521-.013-.785-.039l-12.612-1.3a7.6,7.6,0,0,1-6.787-8.34l.826-8.032a7.588,7.588,0,0,1,8.34-6.787l12.612,1.3a7.6,7.6,0,0,1,6.787,8.34l-.826,8.032a7.578,7.578,0,0,1-7.555,6.826m-11.8-22.832a5.881,5.881,0,0,0-5.862,5.3l-.825,8.032a5.9,5.9,0,0,0,5.266,6.472l12.613,1.3a5.879,5.879,0,0,0,6.473-5.267l.826-8.032a5.9,5.9,0,0,0-5.266-6.472l-12.613-1.3c-.206-.021-.41-.032-.612-.032" transform="translate(-31.837 -13.041)" fill="#eda34c"/>
            <path id="Trazado_1003337" data-name="Trazado 1003337" d="M218.87,102.059a3.943,3.943,0,0,1,6.413,1.726c.351,1.025,1.984.585,1.63-.45a5.661,5.661,0,0,0-9.239-2.471c-.824.717.377,1.909,1.2,1.2" transform="translate(-30.654 -14.012)" fill="#eda34c"/>
            <path id="Trazado_1003338" data-name="Trazado 1003338" d="M116.3,244.059c5.276-1.658,9.909-4.6,15.144-6.286,4.061-1.309,9.522-2.409,13.713-1.155.43.129.925.376.954.824.1,1.5-3.458,2.275-4.528,2.378a23.57,23.57,0,0,0-7.63,1.927q3.454-.138,6.912-.132a31.536,31.536,0,0,1,8.848,1.115,15.1,15.1,0,0,1,4.208,1.773c1.492,1.026.393,1.954-1.1,1.774-3.153-.381-5.936-1.009-9.129-.787a28.769,28.769,0,0,0-9.038,2.111,61.944,61.944,0,0,1,13.049-.32,16.005,16.005,0,0,1,6.152,1.758c.526.278,2.183,1.013,2.3,1.648.137.75-1.01,1.382-1.616,1.42a3.221,3.221,0,0,1-.99-.145,26.543,26.543,0,0,0-7.12-1.13,33.677,33.677,0,0,0-9.581,1.3,46.517,46.517,0,0,1,12.21,1.193,9.361,9.361,0,0,1,4.337,2.231.808.808,0,0,1,.271.653c-.082.426-.657.494-1.09.461-4.908-.373-9.2-1.125-13.947.7,1.5-.575,12.055.332,11.7,2.883-.267,1.949-6.971.79-8.331.922a16.6,16.6,0,0,0-5.2,1.571c-4.635,2.1-8.846,5.078-13.545,7.034-3.936,1.639-9.274,2.938-13.351,1.036-1.284-.6-2.338-1.584-3.627-2.185-2.172-1.013-4.681-1.3-6.962-2.01" transform="translate(-14.004 -33.287)" fill="#b65743"/>
            <path id="Trazado_1003339" data-name="Trazado 1003339" d="M116.921,240.87c3.8-3.7,7.958.751,10.094,3.955,3.181,4.77,3.68,10.021,3.777,15.667.052,3.062-.283,6.263-1.924,8.848s-4.886,4.354-7.819,3.47" transform="translate(-16.486 -33.766)" fill="#eda34c"/>
            <path id="Trazado_1003340" data-name="Trazado 1003340" d="M86.416,230.77c-4.519.9-9.026,2.273-13.322,3.457a47.5,47.5,0,0,1-17.276,1.465c2.625-10.636,8.491-20.892,8.231-32.095-.194-8.339-3.12-17.2-12.172-19.278-12.263-2.817-20.3,9.854-24.594,19.363-6.9,15.308-14.316,34.854-12.567,51.962a21.918,21.918,0,0,0,8.436,15.03c7.094,5.39,17.033,6.539,25.6,5.353,9.854-1.362,19.671-2.98,29.525-4.341,8.334-1.15,17.054,1.5,25.121-2.3,5.211-2.458,5.637-7.426,6.12-12.66.569-6.15.429-12.973-2.176-18.688-2.907-6.375-6.734-8.591-14.012-8.191a49.291,49.291,0,0,0-6.914.923" transform="translate(-2.038 -25.934)" fill="#433c5b"/>
            <path id="Trazado_1003341" data-name="Trazado 1003341" d="M37.436,203.483A5.167,5.167,0,0,0,33.5,197.7c-.125.2-.25.39-.373.587a4.655,4.655,0,0,1,3.646,4.635c.04,3.143-3.079,5.22-5.965,4.757a5.121,5.121,0,0,1-2.026-.99c-.1.221-.2.442-.3.664a5.7,5.7,0,0,0,2.133,1.011,5.8,5.8,0,0,0,6.816-4.884" transform="translate(-4.017 -27.877)" fill="#5a519e"/>
            <path id="Trazado_1003342" data-name="Trazado 1003342" d="M57.033,219.5a5.8,5.8,0,0,0,6.816-4.884,5.273,5.273,0,0,0-4.743-5.96c-6.8-.992-8.738,9.175-2.073,10.844a.355.355,0,0,0,.189-.685c-5.716-1.432-4.316-9.555,1.392-9.493a4.623,4.623,0,0,1,4.572,4.736c.04,3.142-3.079,5.22-5.965,4.757-.448-.072-.64.612-.189.685" transform="translate(-7.461 -29.411)" fill="#5a519e"/>
            <path id="Trazado_1003343" data-name="Trazado 1003343" d="M33.578,237.319a5.8,5.8,0,0,0,6.816-4.884,5.273,5.273,0,0,0-4.743-5.96c-6.8-.992-8.738,9.175-2.073,10.844a.355.355,0,0,0,.189-.685c-5.716-1.432-4.316-9.555,1.392-9.493a4.623,4.623,0,0,1,4.572,4.736c.04,3.142-3.079,5.22-5.965,4.757-.448-.072-.64.612-.189.685" transform="translate(-4.153 -31.924)" fill="#5a519e"/>
            <path id="Trazado_1003344" data-name="Trazado 1003344" d="M45.057,271.461a5.8,5.8,0,0,0,6.816-4.884,5.273,5.273,0,0,0-4.743-5.96c-6.8-.992-8.738,9.175-2.073,10.844a.355.355,0,0,0,.189-.685c-5.716-1.432-4.316-9.555,1.392-9.493a4.623,4.623,0,0,1,4.572,4.736c.04,3.142-3.079,5.22-5.965,4.757-.448-.072-.64.612-.189.685" transform="translate(-5.772 -36.739)" fill="#5a519e"/>
            <path id="Trazado_1003345" data-name="Trazado 1003345" d="M79.081,265.5a5.8,5.8,0,0,0,6.816-4.884,5.273,5.273,0,0,0-4.743-5.96c-6.8-.992-8.738,9.175-2.073,10.844a.355.355,0,0,0,.189-.685c-5.716-1.432-4.316-9.555,1.392-9.493a4.623,4.623,0,0,1,4.572,4.736c.04,3.142-3.079,5.22-5.965,4.757-.448-.072-.64.612-.189.685" transform="translate(-10.57 -35.898)" fill="#5a519e"/>
            <path id="Trazado_1003346" data-name="Trazado 1003346" d="M66.781,285.231a5.8,5.8,0,0,0,6.816-4.884,5.273,5.273,0,0,0-4.743-5.96c-6.8-.992-8.738,9.175-2.073,10.844a.355.355,0,0,0,.189-.685c-5.716-1.432-4.316-9.555,1.392-9.493a4.623,4.623,0,0,1,4.572,4.736c.04,3.142-3.079,5.22-5.965,4.757-.448-.072-.64.612-.189.685" transform="translate(-8.835 -38.68)" fill="#5a519e"/>
            <path id="Trazado_1003347" data-name="Trazado 1003347" d="M106.93,256.969a5.8,5.8,0,0,0,6.816-4.884,5.273,5.273,0,0,0-4.743-5.96c-6.8-.992-8.738,9.175-2.073,10.844a.355.355,0,0,0,.189-.685c-5.716-1.432-4.316-9.555,1.392-9.493a4.623,4.623,0,0,1,4.572,4.736c.04,3.142-3.079,5.22-5.965,4.757-.448-.072-.64.612-.189.685" transform="translate(-14.496 -34.695)" fill="#5a519e"/>
            <path id="Trazado_1003348" data-name="Trazado 1003348" d="M107.889,281.014a5.8,5.8,0,0,0,6.816-4.884,5.273,5.273,0,0,0-4.743-5.96c-6.8-.992-8.738,9.175-2.073,10.844a.355.355,0,0,0,.189-.685c-5.716-1.432-4.316-9.555,1.392-9.493a4.623,4.623,0,0,1,4.572,4.736c.04,3.142-3.079,5.22-5.965,4.757-.448-.072-.64.612-.189.685" transform="translate(-14.632 -38.086)" fill="#5a519e"/>
            <path id="Trazado_1003349" data-name="Trazado 1003349" d="M59.3,248.407a5.8,5.8,0,0,0,6.816-4.884c0-.016,0-.032.005-.048-.231,0-.461-.007-.692-.011a5.1,5.1,0,0,1-5.94,4.259c-5.716-1.432-4.316-9.555,1.392-9.493a4.6,4.6,0,0,1,1.98.462c.066-.208.134-.416.2-.623a6.161,6.161,0,0,0-1.691-.506c-6.8-.992-8.738,9.175-2.073,10.844" transform="translate(-7.781 -33.488)" fill="#5a519e"/>
            <path id="Trazado_1003350" data-name="Trazado 1003350" d="M23.734,254.838a5.272,5.272,0,0,0-4.743-5.959,5.242,5.242,0,0,0-3.744.758c-.058.384-.111.767-.162,1.151a4.874,4.874,0,0,1,3.415-1.243,4.622,4.622,0,0,1,4.572,4.735c.04,3.143-3.079,5.22-5.965,4.757a4.857,4.857,0,0,1-2.605-1.56c-.011.323-.024.646-.03.967a5.567,5.567,0,0,0,2.446,1.277,5.8,5.8,0,0,0,6.816-4.884" transform="translate(-2.04 -35.084)" fill="#5a519e"/>
            <path id="Trazado_1003351" data-name="Trazado 1003351" d="M31.118,283.206a5.272,5.272,0,0,0-4.743-5.959,5.139,5.139,0,0,0-5.76,3.319c.172.205.35.406.529.6a4.815,4.815,0,0,1,4.74-3.257,4.622,4.622,0,0,1,4.572,4.735,4.566,4.566,0,0,1-2.011,3.816c.237.111.478.213.72.317a5.951,5.951,0,0,0,1.953-3.575" transform="translate(-2.907 -39.084)" fill="#5a519e"/>
            <path id="Trazado_1003352" data-name="Trazado 1003352" d="M54.126,183.923c-1.183,2.848-.213,6.661,3.646,7.627a5.771,5.771,0,0,0,6.426-3.517c-.159-.161-.338-.3-.505-.458a5.226,5.226,0,0,1-5.732,3.29,4.67,4.67,0,0,1-3.056-6.908c-.261-.017-.521-.032-.778-.034" transform="translate(-7.565 -25.934)" fill="#5a519e"/>
            <path id="Trazado_1003353" data-name="Trazado 1003353" d="M60.8,239.246c.116-.009.037-1.01.306-2.764a33.08,33.08,0,0,1,2.215-7.193c1.17-2.99,2.726-6.5,4.162-10.55a52.437,52.437,0,0,0,1.863-6.505,37.534,37.534,0,0,0,.8-7.26,29.224,29.224,0,0,0-.8-7.29,20.966,20.966,0,0,0-2.681-6.333,17.879,17.879,0,0,0-9.068-7.069,17.015,17.015,0,0,0-4.365-.875,11.873,11.873,0,0,0-3.36.131,4.072,4.072,0,0,0-2.541,1.285,14.48,14.48,0,0,1,2.63-.737,12.815,12.815,0,0,1,3.189.113,17.172,17.172,0,0,1,12.406,7.859,23.919,23.919,0,0,1,3.164,12.9,37.809,37.809,0,0,1-.738,6.991,55.294,55.294,0,0,1-1.739,6.363c-1.343,4.006-2.8,7.564-3.863,10.621a27.818,27.818,0,0,0-1.823,7.487,6.107,6.107,0,0,0,.247,2.824" transform="translate(-6.673 -25.853)" fill="#252230"/>
            <path id="Trazado_1003354" data-name="Trazado 1003354" d="M109.917,238.924c.041-.073-.491-.509-1.616-1.027a15.31,15.31,0,0,0-5.077-1.225,25.815,25.815,0,0,0-7.7.672c-2.837.636-5.835,1.678-8.955,2.683a51.819,51.819,0,0,1-16.387,2.714c-4.283.009-6.934-.417-6.971-.188-.035.158,2.572.943,6.945,1.2a42.969,42.969,0,0,0,7.677-.268,47.926,47.926,0,0,0,9.17-2.1c3.159-1.018,6.1-2.08,8.827-2.764a27.844,27.844,0,0,1,7.349-.942c4.254.071,6.646,1.478,6.742,1.245" transform="translate(-8.912 -33.363)" fill="#252230"/>
            <path id="Trazado_1003355" data-name="Trazado 1003355" d="M111.725,279.113c-.039-.03-.247.134-.6.469-.184.161-.378.391-.654.613l-.943.77a14.979,14.979,0,0,1-7.135,2.65,39.3,39.3,0,0,1-5.37.231c-1.946-.022-4.048-.119-6.276-.1A65.665,65.665,0,0,0,76.361,285.3c-9.931,2.268-18.9,4.38-25.521,4.552-6.624.28-10.644-.91-10.693-.659a8.85,8.85,0,0,0,2.784.886,36.466,36.466,0,0,0,7.93.783,67.054,67.054,0,0,0,11.741-1.2c4.366-.765,9.108-1.853,14.069-2.965a69.369,69.369,0,0,1,14.1-1.627c4.359-.092,8.4.137,11.77-.452a14.468,14.468,0,0,0,7.338-3.217l.892-.9a7.545,7.545,0,0,0,.571-.726c.292-.4.424-.628.386-.658" transform="translate(-5.661 -39.356)" fill="#252230"/>
            <path id="Trazado_1003356" data-name="Trazado 1003356" d="M362.491,58.936c-5.48-3.335-12.793-4.739-19.112-5.451-3.64-.411-7.581.77-11.217,1.081a108.387,108.387,0,0,1-12.148.356.614.614,0,0,0-.762.748c-.1,5.436,2.411,9.751,6.629,13.208,3.2,2.622,7.632,3.978,11.586,2.764,3.5-1.075,6.142-3.926,8.381-6.825a19.914,19.914,0,0,0,1.972,7.145c1.235,2.158,3.543,3.891,6.021,3.7,3.008-.232,5.084-3.01,6.741-5.53a22.317,22.317,0,0,0,8.409,24.977,3.9,3.9,0,0,0,2.455.876c1.587-.155,2.434-1.918,2.868-3.451,3.474-12.271-.93-26.967-11.824-33.6" transform="translate(-45.016 -7.53)" fill="#822341"/>
            <path id="Trazado_1003357" data-name="Trazado 1003357" d="M309.545,113.276a14.417,14.417,0,1,1,14.418-14.417,14.434,14.434,0,0,1-14.418,14.417m0-27.081a12.663,12.663,0,1,0,12.663,12.663A12.677,12.677,0,0,0,309.545,86.2" transform="translate(-41.614 -11.907)" fill="#eda34c"/>
            <path id="Trazado_1003358" data-name="Trazado 1003358" d="M347.608,118.372a14.417,14.417,0,1,1,14.418-14.417,14.434,14.434,0,0,1-14.418,14.417m0-27.081a12.663,12.663,0,1,0,12.663,12.663,12.677,12.677,0,0,0-12.663-12.663" transform="translate(-46.981 -12.625)" fill="#eda34c"/>
            <path id="Trazado_1003359" data-name="Trazado 1003359" d="M364.528,100.277l16.922-.784a41.484,41.484,0,0,1,7.838.011c3.456.5,5.188,3.693,6.582,6.491.49.984,1.959.12,1.471-.86-2.3-4.62-4.98-7.265-10.3-7.545-7.394-.39-15.114.642-22.511.984-1.093.051-1.1,1.754,0,1.7" transform="translate(-51.284 -13.748)" fill="#eda34c"/>
            <path id="Trazado_1003360" data-name="Trazado 1003360" d="M328.188,103.612a2.607,2.607,0,0,1,4.137.929c.42,1,2.069.559,1.642-.453a4.339,4.339,0,0,0-6.984-1.681c-.838.714.374,1.913,1.2,1.2" transform="translate(-46.066 -14.281)" fill="#eda34c"/>
            <path id="Trazado_1003361" data-name="Trazado 1003361" d="M360.447,281.47c-6.061,2.747-13.066,1.724-19.674.938s-13.851-1.128-19.332,2.647c-1.4.964-2.723,2.378-2.7,4.077A20.831,20.831,0,0,1,332.887,286c-6.425,1.939-13.112,4.771-16.691,10.448a5.212,5.212,0,0,0-1,3.936c2.522-.7,4.385-2.76,6.4-4.431a24.8,24.8,0,0,1,11.407-5.3,46.4,46.4,0,0,0-9.689,6.3c-2.843,2.614-5.071,6.112-5.366,9.963.88.482,1.856-.409,2.487-1.189a47.469,47.469,0,0,1,13.374-11.365A61.735,61.735,0,0,0,326.985,301c-2.34,2.659-4.575,6.082-3.662,9.5,5.1-2.446,6.953-9.415,12.22-11.469a20.141,20.141,0,0,0-6.032,9.634c-.368,1.321-.515,2.95.508,3.865,2.185-1.923,3.092-5.012,5.337-6.865,2.7-2.23,6.662-2.11,10.029-1.14s6.525,2.663,9.977,3.256a16.492,16.492,0,0,0,15.532-6.074" transform="translate(-44.43 -39.689)" fill="#b65743"/>
            <path id="Trazado_1003362" data-name="Trazado 1003362" d="M417.205,237.775a140.5,140.5,0,0,0-2.967-18.606c-2.671-12.3-5.152-31-17.877-37.174-11.308-5.486-20.543,12.156-21.977,20.99-1.669,10.271.807,20.712,3.249,30.827.942,3.9,1.887,7.874,1.568,11.87-.655,8.207-6.662,15.219-13.817,19.29a50.763,50.763,0,0,1-11.552,4.622c.678,8.975,1.878,17.779,5.657,25.8a99.121,99.121,0,0,0,22.745-2.934c8.977-2.418,17.6-6.853,23.8-13.783,9.688-10.829,12.324-26.414,11.17-40.9" transform="translate(-49.892 -25.516)" fill="#fec96f"/>
            <path id="Trazado_1003363" data-name="Trazado 1003363" d="M364.461,305.783c.391-.159-1.252-4.692-2.212-10.5-1-5.8-.936-10.622-1.357-10.645-.364-.046-1.08,4.885-.05,10.882,1,6,3.29,10.426,3.619,10.263" transform="translate(-50.805 -40.135)" fill="#bf7326"/>
            <g id="Grupo_1192078" data-name="Grupo 1192078" transform="translate(322.233 169.135)" opacity="0.36" style="mix-blend-mode: overlay;isolation: isolate">
              <g id="Grupo_1192077" data-name="Grupo 1192077">
                <g id="Grupo_1192076" data-name="Grupo 1192076" clip-path="url(#clip-path-14)">
                  <path id="Trazado_1003364" data-name="Trazado 1003364" d="M402.835,243.116a144.433,144.433,0,0,0-8.612-11.946.316.316,0,0,0-.435-.081.354.354,0,0,0-.234.258,146.486,146.486,0,0,0-3.021,14.627.406.406,0,0,0,.492.492L402.6,243.7a.343.343,0,0,0,.259-.227.336.336,0,0,0-.02-.361m-8.7-10.774c2.744,3.443,5.292,7.039,7.708,10.719l-10.43,2.49q1.057-6.671,2.722-13.21" transform="translate(-377.299 -201.712)" fill="#fff"/>
                  <path id="Trazado_1003365" data-name="Trazado 1003365" d="M384.245,276.324a144.542,144.542,0,0,0,9.387-11.346.316.316,0,0,0-.032-.441.351.351,0,0,0-.307-.161,146.629,146.629,0,0,0-14.916.765.406.406,0,0,0-.351.6l5.591,10.5a.345.345,0,0,0,.285.194.336.336,0,0,0,.344-.111m8.23-11.139c-2.639,3.524-5.477,6.9-8.429,10.162l-5.04-9.464q6.721-.66,13.469-.7" transform="translate(-375.529 -206.413)" fill="#fff"/>
                  <path id="Trazado_1003366" data-name="Trazado 1003366" d="M398.47,203.835a144.466,144.466,0,0,0-13.011-6.9.316.316,0,0,0-.426.12.35.35,0,0,0-.094.333,146.485,146.485,0,0,0,3.767,14.453.406.406,0,0,0,.659.223l9.152-7.6a.343.343,0,0,0,.132-.318.337.337,0,0,0-.178-.314M385.9,198.028c3.986,1.872,7.862,3.969,11.657,6.2l-8.249,6.85q-2.006-6.448-3.408-13.049" transform="translate(-376.51 -196.899)" fill="#fff"/>
                  <path id="Trazado_1003367" data-name="Trazado 1003367" d="M417.693,234.559,415.333,224.1c2.531.433,5.047.94,7.549,1.5-.034-.159-.067-.318-.1-.477-.029-.135-.069-.264-.1-.4q-3.856-.859-7.759-1.514a.406.406,0,0,0-.5.485q1.31,5.8,2.62,11.6a.342.342,0,0,0,.223.262.336.336,0,0,0,.361-.015q3.247-2.062,6.4-4.27-.081-.434-.165-.87-3.034,2.145-6.168,4.146" transform="translate(-380.667 -200.609)" fill="#fff"/>
                  <path id="Trazado_1003368" data-name="Trazado 1003368" d="M424.394,249.016a.336.336,0,0,0-.279.229,144.33,144.33,0,0,0-4.584,13.995.317.317,0,0,0,.191.4.353.353,0,0,0,.345.037q3.174-1.25,6.278-2.648c.032-.3.05-.61.077-.915q-2.917,1.317-5.89,2.51c1.167-4.246,2.574-8.422,4.126-12.542l2.029,1.733c-.009-.36-.017-.719-.03-1.077l-1.926-1.645a.343.343,0,0,0-.336-.076" transform="translate(-381.387 -204.246)" fill="#fff"/>
                  <path id="Trazado_1003369" data-name="Trazado 1003369" d="M405.155,284.269a.352.352,0,0,0-.094.334q1.376,6.658,3.373,13.15c.225-.18.448-.363.669-.548q-1.791-5.918-3.084-11.965c3.27,1.536,6.464,3.23,9.6,5.018.158-.217.317-.435.471-.655-3.43-1.956-6.926-3.8-10.512-5.454a.316.316,0,0,0-.426.12" transform="translate(-379.347 -209.196)" fill="#fff"/>
                  <path id="Trazado_1003370" data-name="Trazado 1003370" d="M378.343,299.137a144.447,144.447,0,0,0,12.051-8.464.317.317,0,0,0,.087-.434.351.351,0,0,0-.255-.236,146.308,146.308,0,0,0-14.588-3.2.406.406,0,0,0-.5.485q1.31,5.8,2.62,11.6a.345.345,0,0,0,.223.262.335.335,0,0,0,.361-.016m10.881-8.568c-3.477,2.7-7.1,5.2-10.815,7.575q-1.179-5.23-2.361-10.459,6.656,1.138,13.176,2.885" transform="translate(-375.128 -209.575)" fill="#fff"/>
                </g>
              </g>
            </g>
            <path id="Trazado_1003371" data-name="Trazado 1003371" d="M356.323,268.344a20.871,20.871,0,0,0,4.254-1.17,48.772,48.772,0,0,0,4.828-1.91,31.693,31.693,0,0,0,5.956-3.517,24.244,24.244,0,0,0,5.729-6.18,21.685,21.685,0,0,0,3.315-9.117,28.685,28.685,0,0,0,.1-5.263,42.085,42.085,0,0,0-.827-5.389c-.777-3.609-1.963-7.211-3.007-10.908a50.777,50.777,0,0,1-1.867-21.245,36.046,36.046,0,0,1,2.454-8.982,28.533,28.533,0,0,1,4.176-6.926,17.063,17.063,0,0,1,9.746-6.084c.341-.064.663-.136.968-.184l.862-.077.743-.072.618,0a3.551,3.551,0,0,0,1.141-.078,3.477,3.477,0,0,0-1.129-.21l-.63-.07-.763.005-.894.013c-.317.027-.654.08-1.011.125a17.1,17.1,0,0,0-10.416,5.973,28.792,28.792,0,0,0-4.5,7.111,36.42,36.42,0,0,0-2.671,9.265,50.905,50.905,0,0,0,1.794,21.823c1.057,3.736,2.24,7.308,3.015,10.821a41.548,41.548,0,0,1,.833,5.2,27.776,27.776,0,0,1-.048,5,20.729,20.729,0,0,1-3.011,8.641,23.712,23.712,0,0,1-5.35,6.016,32.553,32.553,0,0,1-5.681,3.592c-1.776.905-3.368,1.571-4.673,2.107a34.417,34.417,0,0,0-4.06,1.691" transform="translate(-50.243 -25.517)" fill="#bf7326"/>
            <g id="Grupo_1192081" data-name="Grupo 1192081" transform="translate(248.419 160.971)" opacity="0.21" style="mix-blend-mode: multiply;isolation: isolate">
              <g id="Grupo_1192080" data-name="Grupo 1192080">
                <g id="Grupo_1192079" data-name="Grupo 1192079" clip-path="url(#clip-path-15)">
                  <path id="Trazado_1003372" data-name="Trazado 1003372" d="M304.423,187.4a36.517,36.517,0,0,1-1.914,3.34c-2.6,4.058-5.8,7.721-8.256,11.872a35.525,35.525,0,0,0-5.055,18.166,47.92,47.92,0,0,0,4.2,2.992c.57.35,2.745,1.328,4.633,2.269-3.141-11.913,4.682-25.63,10.212-36.164a18.726,18.726,0,0,0-3.815-2.475" transform="translate(-289.197 -187.395)" fill="#e747bb"/>
                </g>
              </g>
            </g>
            <g id="Grupo_1192084" data-name="Grupo 1192084" transform="translate(143.749 179.596)" opacity="0.2" style="mix-blend-mode: multiply;isolation: isolate">
              <g id="Grupo_1192083" data-name="Grupo 1192083">
                <g id="Grupo_1192082" data-name="Grupo 1192082" clip-path="url(#clip-path-16)">
                  <path id="Trazado_1003373" data-name="Trazado 1003373" d="M176.643,209.077a107.786,107.786,0,0,1-9.3,38.722,115.955,115.955,0,0,0,12.047,3.394c.94-4.815,1.858-9.633,2.528-14.492a163.6,163.6,0,0,0,1.018-23.768,58.748,58.748,0,0,1-6.3-3.856" transform="translate(-167.346 -209.077)" fill="#5d5d5d"/>
                </g>
              </g>
            </g>
          </g>
        </g>
      </g>
    </g>
  </g>
</svg>
