<svg xmlns="http://www.w3.org/2000/svg" xmlns:xlink="http://www.w3.org/1999/xlink" width="150" height="150" viewBox="0 0 150 150">
  <defs>
    <clipPath id="clip-path">
      <rect id="Rectángulo_456516" data-name="Rectángulo 456516" width="85.471" height="85.415" fill="#15342f"/>
    </clipPath>
  </defs>
  <g id="Grupo_1191921" data-name="Grupo 1191921" transform="translate(-383.746 -8400)">
    <circle id="Elipse_13609" data-name="Elipse 13609" cx="75" cy="75" r="75" transform="translate(383.746 8400)" fill="#fff"/>
    <g id="Grupo_1192135" data-name="Grupo 1192135" transform="translate(416.011 8432.293)">
      <g id="Grupo_1192134" data-name="Grupo 1192134" clip-path="url(#clip-path)">
        <path id="Trazado_1003539" data-name="Trazado 1003539" d="M59.622,22.8c-.709.7-1.589.714-2.491,1.116L52.1,10.555l5.615,1.227L55.75,4.639a10.577,10.577,0,0,1,2.56-.789l3.372,11.817-5.081-1.1Z" transform="translate(-37.749 -2.789)" fill="#15342f"/>
        <path id="Trazado_1003540" data-name="Trazado 1003540" d="M13.271,86.888,5.044,80.236l3.8-2.659L2.475,73.235a14.75,14.75,0,0,1,1.452-2.267l9.9,6.585L9.733,80.5l5.215,4.274a10.3,10.3,0,0,1-1.678,2.118" transform="translate(-1.793 -51.419)" fill="#15342f"/>
        <path id="Trazado_1003541" data-name="Trazado 1003541" d="M253.426,44.779a8.187,8.187,0,0,1-2.132-1.7l6.345-7.945,2.788,2.587,4.567-5.507a8.638,8.638,0,0,1,2.094,1.694l-6.348,7.946-2.846-2.582Z" transform="translate(-182.071 -23.343)" fill="#15342f"/>
        <path id="Trazado_1003542" data-name="Trazado 1003542" d="M63.336,85.415,4.158,85.4A4.093,4.093,0,0,1,0,81.265L.021,57.6a2.665,2.665,0,0,1,2.694-2.485l10.773-.039,5.378-14.322a4.414,4.414,0,0,1-2.311-3.188c-.506-3.9,4.873-5.432,6.97-8.24,2.626-3.516,4.5-8.674,7.3-12.065A13.5,13.5,0,0,1,32.959,5.427,13.1,13.1,0,0,1,43.23.035L52.042,0a13.943,13.943,0,0,1,11,4.926,13.493,13.493,0,0,1,2.521,12.337c2.8,3.351,4.7,8.606,7.308,12.059,2.312,3.063,7.779,4.334,6.884,8.683a4.712,4.712,0,0,1-2.19,2.747l7.329,19.98a10.239,10.239,0,0,1-4.173,11.9A10.434,10.434,0,0,1,67.961,71.7c-1.532-1.327-2.908-2.6-4.595-3.851ZM48.065,11.055A1.333,1.333,0,0,0,46.9,12.76a1.437,1.437,0,0,0,1.566,1.022l6.629.009a5.578,5.578,0,0,1,4.974,3.121,9.437,9.437,0,0,1,2.811-.4A10.672,10.672,0,0,0,52.887,2.782l-9.385,0a10.545,10.545,0,0,0-8.2,4.123,10.721,10.721,0,0,0-1.853,9.52,15.1,15.1,0,0,1,2.925.52c.911-4.176,4.637-4.678,7.611-6.134,1.6-.784,2.764-3.822,5.678-2.281a14.981,14.981,0,0,0-.1,2.444c-.492.114-.9,0-1.494.077m9.764,20.52-.006-12.3A2.713,2.713,0,0,0,55.1,16.549l-6.9-.021A4.133,4.133,0,0,1,44.412,14.1c-2.8-.131-5.757,1.908-5.773,4.932l-.066,12.656a6.816,6.816,0,0,0,6.844,6.882H50.96a6.841,6.841,0,0,0,6.869-6.994m-22-.313c-.232-3.829.3-7.423-.236-11.112-.183-1.271-2.936-1.167-3.473-.2l-5.4,9.757L33.338,33a2.457,2.457,0,0,0,1.785-.167,1.609,1.609,0,0,0,.706-1.571m27.315,1.687c2.355-1.037,4.3-2.1,6.535-3.241L64.15,19.831c-.5-.9-3.259-.85-3.377.306a113.992,113.992,0,0,0-.128,11.816c0,1.011,1.616,1.386,2.5,1M29.376,43.306l2.06-8.1-6.443-3.263L19.632,36.22a1.2,1.2,0,0,0,.182,1.822Zm47.253-5.324c.761-.428.463-1.539,0-1.908l-5.23-4.123-6.448,3.26,2.123,8.147Zm-35.136,6.46.885-3.617a9.776,9.776,0,0,1-5.863-5.478l-2.425.57L31.011,48.44Zm23.85,3.89L62.293,35.91l-2.432-.567a9.964,9.964,0,0,1-5.9,5.535l1,3.606ZM52.156,44.868l-.955-3.5-6.03-.023a29.945,29.945,0,0,0-.884,3.575L48.174,47.8ZM26.492,55.059l2.165-8.938-7.3-4.046L16.457,55.1ZM51.1,56.851,55.155,79,51.7,82.6l8.9.061-.04-22.572c0-1.07-.754-1.869-1.1-2.83a6.187,6.187,0,0,1,2.316-1.318c2.116,3.217,1.389,4.561,1.639,8.224l6.688,5.7a7.686,7.686,0,0,0,12.154-8.388l-7.192-19.42L67.706,46.2,70.87,58.822c1.147,3.214,3.028,3.208,5.41,4.726a8.867,8.867,0,0,1-1.207,2.311c-3.722-1.527-6.046-2.976-7.092-7.115L66.21,51.733,58.3,48.755l-4.2,6.947c-.775-.423-1.006-.923-1.917-1.244-.155.624-1.24,1.473-1.072,2.392m-5.3-7.324c-2.469-1.61-3.011-3.284-5.024-1.722l2.272,3.8a11.863,11.863,0,0,0,2.752-2.076m7.578,2.034,2.223-3.769c-1.953-1.624-2.811.321-5.062,1.778a11.753,11.753,0,0,0,2.839,1.991M36.961,57.3a6.565,6.565,0,0,0-1.146,3.036l-.02,16.8,5.757-.046,3.768-20.324a6.785,6.785,0,0,0-1.131-2.293,10.378,10.378,0,0,0-1.879,1.241l-4.266-6.963L30.124,51.8c-1.891,6.051.245,3.425.2,6.047-.051,2.872-.089,5.565.037,8.52,2.9-2.517,2.736-1.486,2.657-4.64a9.07,9.07,0,0,1,1.607-5.789A5.88,5.88,0,0,1,36.961,57.3m11.758-2.383a4.109,4.109,0,0,0,1.006-2.252c-.037-.458-1.07-1.142-1.541-1.116a2.07,2.07,0,0,0-1.525,1.105c-.1.594,1.217,3.493,2.06,2.263M27.533,57.852H2.742v19.3H27.533ZM49.562,80.567a18.283,18.283,0,0,0,2.668-2.626L48.193,57.575,44.337,77.147a4.468,4.468,0,0,1,5.225,3.42M30.292,77.129a18.173,18.173,0,0,0,2.753-.018l-.024-9.239a28.278,28.278,0,0,0-2.7,2.184Zm-5.352,5.536a24.92,24.92,0,0,1-.184-2.771l-21.985.045c-.136,1.137-.038,2.649,1.1,2.652Zm20.346-.008a1.38,1.38,0,0,0,1.486-1.51A1.328,1.328,0,0,0,45.426,79.9l-17.862.04c-.137,1.152-.04,2.637,1.09,2.642Z" transform="translate(0 0)" fill="#15342f"/>
        <path id="Trazado_1003543" data-name="Trazado 1003543" d="M48.227,234.168a4.125,4.125,0,1,1-4.125-4.125,4.125,4.125,0,0,1,4.125,4.125m-2.771,0a1.354,1.354,0,1,0-1.354,1.354,1.354,1.354,0,0,0,1.354-1.354" transform="translate(-28.965 -166.674)" fill="#15342f"/>
        <path id="Trazado_1003544" data-name="Trazado 1003544" d="M159.789,108.239c-2.032.093-3.831.044-5.69.018a4.136,4.136,0,1,1,.274-8.264c1.685.046,3.3.043,4.983,0a4.157,4.157,0,0,1,4.365,3.741,4.089,4.089,0,0,1-3.933,4.507m1.162-4.233a1.308,1.308,0,0,0-1.335-1.237l-5.5,0a1.357,1.357,0,0,0,0,2.714c2.973.078,6.992.665,6.835-1.481" transform="translate(-108.672 -72.445)" fill="#15342f"/>
        <path id="Trazado_1003545" data-name="Trazado 1003545" d="M148.759,74.192a11.486,11.486,0,0,1-1.87-1.829c.31-.8,1.11-1.071,1.508-1.85-.383-.718-1.025-1.011-1.506-1.712a4.838,4.838,0,0,1,1.919-1.9l3.587,3.615Z" transform="translate(-106.426 -48.469)" fill="#15342f"/>
        <path id="Trazado_1003546" data-name="Trazado 1003546" d="M188.388,72.177c.007.833-1.055,1.293-1.633,2.021l-3.736-3.679,3.588-3.62a4.627,4.627,0,0,1,1.9,1.9c-.348.711-1.295.98-1.373,1.713-.071.661,1.105.913,1.249,1.662" transform="translate(-132.604 -48.471)" fill="#15342f"/>
      </g>
    </g>
  </g>
</svg>
