<svg xmlns="http://www.w3.org/2000/svg" xmlns:xlink="http://www.w3.org/1999/xlink" width="150" height="150" viewBox="0 0 150 150">
  <defs>
    <clipPath id="clip-path">
      <rect id="Rectángulo_456518" data-name="Rectángulo 456518" width="78.987" height="78.993" fill="#15342f"/>
    </clipPath>
  </defs>
  <g id="Grupo_1191923" data-name="Grupo 1191923" transform="translate(-383.746 -8400)">
    <circle id="Elipse_13609" data-name="Elipse 13609" cx="75" cy="75" r="75" transform="translate(383.746 8400)" fill="#fff"/>
    <g id="Grupo_1192139" data-name="Grupo 1192139" transform="translate(419.253 8435.504)">
      <g id="Grupo_1192138" data-name="Grupo 1192138" clip-path="url(#clip-path)">
        <path id="Trazado_1003553" data-name="Trazado 1003553" d="M72.848,89.731a1.28,1.28,0,0,1-1.462,1.23,1.3,1.3,0,0,1-1.148-1.583,21.1,21.1,0,0,1,19.4-19.156,1.329,1.329,0,0,1,1.552,1.141,1.293,1.293,0,0,1-1.276,1.47,18.52,18.52,0,0,0-17.07,16.9" transform="translate(-51.738 -51.727)" fill="#15342f"/>
        <path id="Trazado_1003554" data-name="Trazado 1003554" d="M32.913,131.039a1.312,1.312,0,0,1-2.46-.912,14.487,14.487,0,1,0-26.745-.189,1.346,1.346,0,0,1-.579,1.708,1.326,1.326,0,0,1-1.879-.788,17.118,17.118,0,0,1,26.241-20.02,8.946,8.946,0,0,1,1.538-3.194c-.414-3.554-2.367-1.56-3.771-3.17a9.294,9.294,0,0,1,0-4.814c.5-.96,2.032-.547,2.86-1.068a2.627,2.627,0,0,0,.868-1.953c-.143-.91-2.2-2.479-.913-3.632a27.9,27.9,0,0,1,2.671-2.566c.715-.49,1.723.184,2.261.65a1.641,1.641,0,0,0,2.068.252c1.941-.764.794-3.225,2.052-3.513a9.524,9.524,0,0,1,4.7.035c.935.4.66,1.873,1.041,2.689.3.64,1.617,1.32,2.169,1.007l2.191-1.242c.75-.426,1.4.409,2.058,1.1a8.683,8.683,0,0,1,8.346-6.434L65.3,84.95a9.539,9.539,0,0,1,8.809,5.194,1.486,1.486,0,0,1-.408,1.91,17.124,17.124,0,0,1-22.512,1.027c.391,2.831-1.952,2.39-1.027,4.568.848,2,3.24.845,3.54,2.073a9.36,9.36,0,0,1-.029,4.7c-.423.975-1.986.658-2.816,1.133a2.566,2.566,0,0,0-.936,1.966c.123.879,2.119,2.4.968,3.562l-2.358,2.381c-1.288,1.3-2.686-.76-3.611-.892a2.682,2.682,0,0,0-1.989.889c-.519.736-.121,2.382-1.042,2.8a7.93,7.93,0,0,1-4.88,0c-1.58-1.891.441-3.088-2.995-3.727-1.062.515-1.971,1.426-3.281,1.547a17.171,17.171,0,0,1,2.182,16.962M71.331,90.656a6.414,6.414,0,0,0-5.5-3.054l-7.918,0a6.329,6.329,0,0,0-5.48,3.067,14.479,14.479,0,0,0,18.9-.017m-30,20.326a22.151,22.151,0,0,0,2.963-1.225c1.585-.812,2.6,1.85,3.674.644.774-.87-1.475-2.1-.931-3.222.563-1.158.991-2.264,1.472-3.458.457-1.135,3-.221,2.872-1.792-.091-1.118-2.436-.458-2.866-1.525-.478-1.186-.932-2.29-1.485-3.443-.524-1.094,1.718-2.331.931-3.206-1.03-1.145-2.095,1.245-3.3.743l-3.508-1.456c-1.148-.477-.233-2.985-1.794-2.861-1.071.085-.535,2.483-1.476,2.863l-3.748,1.513c-.929.375-2.231-1.905-3.117-.811-.758.936,1.374,2.069.922,3.152l-1.466,3.512c-.426,1.021-2.793.426-2.877,1.534-.11,1.453,1.943.646,2.759,1.649.564.693.528,1.711,1.027,2.412,1.855,2.608-1.63,3.429-.229,4.554.991.8,2.026-1.575,3.544-.789A21.181,21.181,0,0,0,37.672,111c1.365.467.361,3.106,1.957,2.956,1.152-.108.394-2.522,1.7-2.972" transform="translate(0 -62.581)" fill="#15342f"/>
        <path id="Trazado_1003555" data-name="Trazado 1003555" d="M151.493,171.025c-1.106.092-1.7-.333-1.777-1.13a1.323,1.323,0,0,1,1.383-1.48,18.421,18.421,0,0,0,17.077-17.057,1.309,1.309,0,0,1,1.462-1.3,1.339,1.339,0,0,1,1.159,1.552,21.082,21.082,0,0,1-19.305,19.409" transform="translate(-110.288 -110.544)" fill="#15342f"/>
        <path id="Trazado_1003556" data-name="Trazado 1003556" d="M143.009,21.086a1.385,1.385,0,1,1-1.385-1.385,1.385,1.385,0,0,1,1.385,1.385" transform="translate(-103.312 -14.513)" fill="#15342f"/>
        <path id="Trazado_1003557" data-name="Trazado 1003557" d="M164.433,168.815,153.67,174.8a19.168,19.168,0,0,0,2.741,1.711,1.445,1.445,0,0,1,.6,2.094c-4.88,9.5-14.266,15.107-24.761,16.578a1.323,1.323,0,0,1-1.567-1,1.31,1.31,0,0,1,1.064-1.574c9.3-1.28,17.621-6.022,22.4-14.3l-3.859-2.238a1.352,1.352,0,0,1-.728-1.311,1.386,1.386,0,0,1,.847-1.184l14.619-8.192a1.417,1.417,0,0,1,1.332,0,1.262,1.262,0,0,1,.621,1.1l.375,17.108a1.2,1.2,0,0,1-.538,1.027,1.278,1.278,0,0,1-1.24.13l-4.286-2.416a39.473,39.473,0,0,1-39.82,17.826,1.363,1.363,0,0,1-1.3-1.442,1.271,1.271,0,0,1,1.533-1.2A36.762,36.762,0,0,0,159.7,179.933a1.427,1.427,0,0,1,1.729-.532l3.256,1.743Z" transform="translate(-88.531 -121.717)" fill="#15342f"/>
        <path id="Trazado_1003558" data-name="Trazado 1003558" d="M141.968,271.1a1.387,1.387,0,1,1-1.387-1.387,1.387,1.387,0,0,1,1.387,1.387" transform="translate(-102.543 -198.694)" fill="#15342f"/>
        <path id="Trazado_1003559" data-name="Trazado 1003559" d="M10.833,22.12C15.283,13.478,23.468,8.01,32.951,6a1.251,1.251,0,0,1,1.546,1,1.354,1.354,0,0,1-1.128,1.581,29.38,29.38,0,0,0-19.7,13.808l4.038,2.37a1.337,1.337,0,0,1,.048,2.163l-15.116,8.5a1.31,1.31,0,0,1-1.344-.182A1.583,1.583,0,0,1,.813,33.99L.446,17.059a1.3,1.3,0,0,1,.737-1.052,1.364,1.364,0,0,1,1.248.077l4.106,2.284A39.416,39.416,0,0,1,46.626.641,1.3,1.3,0,0,1,47.7,2a1.266,1.266,0,0,1-1.554,1.22A36.775,36.775,0,0,0,8.354,20.469,1.525,1.525,0,0,1,6.4,21.33L3.168,19.583l.257,12.375,10.762-6.047-2.9-1.8a1.417,1.417,0,0,1-.45-1.993" transform="translate(-0.329 -0.037)" fill="#15342f"/>
        <path id="Trazado_1003560" data-name="Trazado 1003560" d="M138.163,131.564a6.576,6.576,0,1,1-6.576-6.576,6.576,6.576,0,0,1,6.576,6.576m-2.635,0a3.942,3.942,0,1,0-3.942,3.942,3.942,3.942,0,0,0,3.942-3.942" transform="translate(-92.095 -92.077)" fill="#15342f"/>
        <path id="Trazado_1003561" data-name="Trazado 1003561" d="M200.434,22.861a14.494,14.494,0,1,0-26.729-.266,1.346,1.346,0,0,1-.579,1.708,1.325,1.325,0,0,1-1.877-.785,17.107,17.107,0,1,1,31.656.183,1.356,1.356,0,0,1-1.64.782,1.3,1.3,0,0,1-.831-1.621" transform="translate(-125.234 -0.001)" fill="#15342f"/>
        <path id="Trazado_1003562" data-name="Trazado 1003562" d="M223.157,31.569A6.574,6.574,0,1,1,216.583,25a6.574,6.574,0,0,1,6.574,6.574m-2.628,0a3.942,3.942,0,1,0-3.942,3.942,3.942,3.942,0,0,0,3.942-3.942" transform="translate(-154.711 -18.414)" fill="#15342f"/>
        <path id="Trazado_1003563" data-name="Trazado 1003563" d="M42.54,261.868a17.036,17.036,0,0,1-23.961.035c-1.651-1.628,2.6-6.9,7.721-6.922l7.658-.032a9.5,9.5,0,0,1,8.805,5.2,1.372,1.372,0,0,1-.224,1.719m-2.551-1.214a6.418,6.418,0,0,0-5.5-3.054l-7.918,0a6.328,6.328,0,0,0-5.48,3.067,14.479,14.479,0,0,0,18.9-.018" transform="translate(-13.421 -187.817)" fill="#15342f"/>
        <path id="Trazado_1003564" data-name="Trazado 1003564" d="M53.163,201.563a6.576,6.576,0,1,1-6.576-6.575,6.576,6.576,0,0,1,6.576,6.575m-2.632,0a3.942,3.942,0,1,0-3.942,3.942,3.942,3.942,0,0,0,3.942-3.942" transform="translate(-29.476 -143.645)" fill="#15342f"/>
      </g>
    </g>
  </g>
</svg>
