<svg xmlns="http://www.w3.org/2000/svg" xmlns:xlink="http://www.w3.org/1999/xlink" width="96" height="96" viewBox="0 0 96 96">
  <defs>
    <clipPath id="clip-path">
      <rect id="Rectángulo_456520" data-name="Rectángulo 456520" width="59.279" height="57.102" fill="#094959"/>
    </clipPath>
  </defs>
  <g id="Grupo_1191932" data-name="Grupo 1191932" transform="translate(-383.746 -8400.001)">
    <path id="Trazado_997400" data-name="Trazado 997400" d="M48,0A48,48,0,1,1,0,48,48,48,0,0,1,48,0Z" transform="translate(383.746 8400.001)" fill="#a0f7fe"/>
    <g id="Grupo_1192143" data-name="Grupo 1192143" transform="translate(402.107 8419.451)">
      <g id="Grupo_1192142" data-name="Grupo 1192142" clip-path="url(#clip-path)">
        <path id="Trazado_1003580" data-name="Trazado 1003580" d="M2.528,168.146c1.563-.088.186,1.872,1.28,6.425a2.836,2.836,0,0,1-.2,1.671l-1.622,3.805c2.767.128,4-1.031,6.24.653A12.312,12.312,0,0,0,26.7,165.607a12.318,12.318,0,0,0-22.181-.125.88.88,0,0,1-1.025.416.886.886,0,0,1-.51-1.2,14.039,14.039,0,0,1,25.7,1.135,13.905,13.905,0,0,1-3.746,15.406,13.865,13.865,0,0,1-17.837.794,2.279,2.279,0,0,0-1.744-.509l-3.483.379a1.591,1.591,0,0,1-1.459-.479A1.446,1.446,0,0,1,.1,179.932l1.853-4.193c.425-.961-.707-3.052-.258-6.8a.837.837,0,0,1,.836-.792" transform="translate(0 -127.797)" fill="#094959"/>
        <path id="Trazado_1003581" data-name="Trazado 1003581" d="M61.121,242.032a4.7,4.7,0,0,0-9.3-.026.854.854,0,0,1-.992.7c-1.9-.325.413-6.337,5.524-6.411,5.242-.076,7.507,5.83,5.884,6.385a.842.842,0,0,1-1.117-.644" transform="translate(-40.88 -192.526)" fill="#094959"/>
        <path id="Trazado_1003582" data-name="Trazado 1003582" d="M44.857,204.007c2.287.1,1.3-2.452,2.6-2.542a.855.855,0,0,1,.944.876,3.446,3.446,0,1,1-6.89-.121.831.831,0,0,1,.912-.754c1.34.092.3,2.445,2.435,2.542" transform="translate(-33.82 -164.149)" fill="#094959"/>
        <path id="Trazado_1003583" data-name="Trazado 1003583" d="M92.978,204c2.276.141,1.331-2.424,2.594-2.54a.841.841,0,0,1,.959.871,3.442,3.442,0,0,1-6.885,0,.836.836,0,0,1,.9-.875c1.362.047.288,2.413,2.433,2.546" transform="translate(-73.042 -164.142)" fill="#094959"/>
        <path id="Trazado_1003584" data-name="Trazado 1003584" d="M207.433,169.337a8.454,8.454,0,0,1-16.708.106,1.907,1.907,0,0,1,1.9-2.234l12.95,0a1.882,1.882,0,0,1,1.86,2.126m-1.721-.389-13.313.021a6.711,6.711,0,0,0,6.776,5.842,6.625,6.625,0,0,0,6.536-5.862" transform="translate(-155.38 -136.239)" fill="#094959"/>
        <path id="Trazado_1003585" data-name="Trazado 1003585" d="M247.471,134.917c-1.53.152-.354-2.425-2.58-2.549-2.248-.126-1.318,2.458-2.608,2.559a.888.888,0,0,1-.939-.876,3.449,3.449,0,1,1,6.9.123.862.862,0,0,1-.771.743" transform="translate(-196.644 -106.429)" fill="#094959"/>
        <path id="Trazado_1003586" data-name="Trazado 1003586" d="M199.4,134.913c-1.55.169-.373-2.392-2.569-2.54-2.289-.155-1.326,2.423-2.626,2.543a.851.851,0,0,1-.936-.869,3.442,3.442,0,0,1,6.884.006.824.824,0,0,1-.753.859" transform="translate(-157.469 -106.429)" fill="#094959"/>
        <path id="Trazado_1003587" data-name="Trazado 1003587" d="M75.2,30.679c-1.438.049-.633-2.1-.508-3.093a14.045,14.045,0,0,1-12.746-2.854,2.623,2.623,0,0,0-1.8-.6h-4.1a1.347,1.347,0,0,1-1.107-.685,1.541,1.541,0,0,1-.071-1.482l2.107-3.653a2.489,2.489,0,0,0,.247-1.83A13.969,13.969,0,0,1,60.008,5.315.867.867,0,1,1,61.4,6.344,12.356,12.356,0,0,0,58.955,16.4a3.665,3.665,0,0,1-.332,2.49L56.646,22.41l3.869.028a3.662,3.662,0,0,1,2.456.887,12.214,12.214,0,0,0,12.5,2.159,14.368,14.368,0,0,1,7-7.007A12.29,12.29,0,0,0,64.34,3.7a.91.91,0,0,1-1.247-.065.906.906,0,0,1,.133-1.285A14.037,14.037,0,0,1,84.556,17.71,14.028,14.028,0,0,1,101.865,34.7a2.486,2.486,0,0,0,.07,1.506l1.81,4.066a1.444,1.444,0,0,1-.2,1.407,1.477,1.477,0,0,1-1.363.6L98.3,41.933a1.909,1.909,0,0,0-1.424.412,13.836,13.836,0,0,1-11.807,2.547A14.284,14.284,0,0,1,74.553,34.138a.9.9,0,0,1,.537-1.063c1.916-.648.449,3.6,5.56,7.736a12.115,12.115,0,0,0,15.1.2c2.022-1.554,3.767-.4,6.127-.6l-1.542-3.536a3.368,3.368,0,0,1-.233-2.236,12.3,12.3,0,1,0-24.039-4.777.9.9,0,0,1-.86.819" transform="translate(-44.573 0)" fill="#094959"/>
        <path id="Trazado_1003588" data-name="Trazado 1003588" d="M110.463,72.278c.026-.733.369-1.024.842-1.035.624-.015.9.424.885,1.1a9,9,0,0,1-18-.355c.005-.483.511-.717.815-.742a.834.834,0,0,1,.912.8,7.273,7.273,0,0,0,14.543.234" transform="translate(-76.746 -58.047)" fill="#094959"/>
        <path id="Trazado_1003589" data-name="Trazado 1003589" d="M120.139,48.359c0,.67-.377.973-.825.991a.837.837,0,0,1-.876-.9c-.028-1.764-.349-3.823.866-3.8a.824.824,0,0,1,.821.832Z" transform="translate(-96.454 -36.38)" fill="#094959"/>
        <path id="Trazado_1003590" data-name="Trazado 1003590" d="M159.374,48.377a.9.9,0,0,1-.85,1,.853.853,0,0,1-.888-.9l-.008-2.789a.885.885,0,0,1,.743-1,.862.862,0,0,1,.991.831Z" transform="translate(-128.433 -36.405)" fill="#094959"/>
      </g>
    </g>
  </g>
</svg>
