<svg xmlns="http://www.w3.org/2000/svg" xmlns:xlink="http://www.w3.org/1999/xlink" width="96" height="96" viewBox="0 0 96 96">
  <defs>
    <clipPath id="clip-path">
      <rect id="Rectángulo_456521" data-name="Rectángulo 456521" width="59.599" height="59.604" fill="#094959"/>
    </clipPath>
  </defs>
  <g id="Grupo_1191933" data-name="Grupo 1191933" transform="translate(-383.746 -8400.001)">
    <path id="Trazado_997400" data-name="Trazado 997400" d="M48,0A48,48,0,1,1,0,48,48,48,0,0,1,48,0Z" transform="translate(383.746 8400.001)" fill="#a0f7fe"/>
    <g id="Grupo_1192145" data-name="Grupo 1192145" transform="translate(401.946 8418.2)">
      <g id="Grupo_1192144" data-name="Grupo 1192144" clip-path="url(#clip-path)">
        <path id="Trazado_1003591" data-name="Trazado 1003591" d="M19.561,158.838l-.019,5.579a.93.93,0,0,1-.938.936h-13a.934.934,0,0,1-.94-.942l-.025-9.5a4.5,4.5,0,0,0-1.184-3.071,13.021,13.021,0,0,1,15.78-20.284,13.416,13.416,0,0,1,6.835,11.232,13.084,13.084,0,0,0,.09,2.78c.532,1.936,2.334,3.413,1.562,5.292a3.009,3.009,0,0,1-1.545,1.4,3.258,3.258,0,0,0-.1,1.532,4.633,4.633,0,0,1-4.472,5.033Zm1.97-1.881a2.716,2.716,0,0,0,2.679-2.775l.016-2.8c.007-1.188,1.379-.748,1.71-1.167.438-.555-1.162-2.728-1.615-4.129a8.516,8.516,0,0,1-.091-2.533A11.64,11.64,0,0,0,18.7,133.4,11.151,11.151,0,0,0,4.866,150.608a6.492,6.492,0,0,1,1.644,4.307l.014,8.582h11.16l.008-5.419c0-.6.3-1.089.936-1.094Z" transform="translate(0 -105.75)" fill="#094959"/>
        <path id="Trazado_1003592" data-name="Trazado 1003592" d="M179.937,238.923a.92.92,0,0,1-1.346-.127.942.942,0,0,1,.065-1.2,6.568,6.568,0,0,0,0-9.238.955.955,0,0,1-.063-1.214.966.966,0,0,1,1.292-.16,8.349,8.349,0,0,1,.052,11.943" transform="translate(-145.174 -184.551)" fill="#094959"/>
        <path id="Trazado_1003593" data-name="Trazado 1003593" d="M165.737,247.725a.919.919,0,0,1-1.33-.1.934.934,0,0,1,.064-1.254,2.819,2.819,0,0,0,0-3.936.938.938,0,0,1-.064-1.257.92.92,0,0,1,1.283-.131,4.631,4.631,0,0,1,.047,6.678" transform="translate(-133.612 -195.98)" fill="#094959"/>
        <path id="Trazado_1003594" data-name="Trazado 1003594" d="M193.271,79.836a5.647,5.647,0,0,0,10.935-1.9.933.933,0,0,1,.846-.983.915.915,0,0,1,1.017.98,7.5,7.5,0,0,1-14.514,2.611,12.649,12.649,0,0,0-5.35-6.434,13.027,13.027,0,1,1,19.856-11.077.865.865,0,0,1-.839.892.911.911,0,0,1-1.009-.9,11.175,11.175,0,1,0-16.891,9.6,14.192,14.192,0,0,1,5.949,7.2" transform="translate(-146.47 -40.68)" fill="#094959"/>
        <path id="Trazado_1003595" data-name="Trazado 1003595" d="M220.2,94.622a.94.94,0,0,0-.933-1.01,3.733,3.733,0,0,1,0-7.466c1.241-.038,1.014-2.024.9-3.34a6.513,6.513,0,0,0-12.945-.314.926.926,0,1,1-1.842-.189,8.429,8.429,0,0,1,9.254-7.263c4.735.582,7.755,4.7,7.487,9.438-.1,1.838-.7,3.5-2.905,3.54a1.888,1.888,0,0,0-1.8,1.775,1.869,1.869,0,0,0,1.862,1.943,2.79,2.79,0,0,1,2.782,2.791l0,3.547a.906.906,0,0,1-.845.938.919.919,0,0,1-1-.937Z" transform="translate(-167.125 -61.014)" fill="#094959"/>
        <path id="Trazado_1003596" data-name="Trazado 1003596" d="M209.936,130.675c1.431,3.323,3.541,2.764,3.022,4.282a.957.957,0,0,1-1.221.487c-1.284-.481-4.891-4.528-3.056-5.268a.937.937,0,0,1,1.256.5" transform="translate(-169.396 -105.865)" fill="#094959"/>
        <path id="Trazado_1003597" data-name="Trazado 1003597" d="M151.223,1.849a9.349,9.349,0,0,0-9.321,9.316.922.922,0,0,1-1.844,0A11.162,11.162,0,0,1,151.217,0a.891.891,0,0,1,.906.842.9.9,0,0,1-.9,1.007" transform="translate(-113.97 0)" fill="#094959"/>
        <path id="Trazado_1003598" data-name="Trazado 1003598" d="M167.489,21.87a5.624,5.624,0,0,0-5.589,5.586.922.922,0,0,1-1.845-.007,7.426,7.426,0,0,1,7.429-7.425.882.882,0,0,1,.912.839.908.908,0,0,1-.908,1.007" transform="translate(-130.242 -16.294)" fill="#094959"/>
        <path id="Trazado_1003599" data-name="Trazado 1003599" d="M183.782,41.857c-2.5.177-1.251,2.683-2.7,2.772a.891.891,0,0,1-.994-.915,3.694,3.694,0,0,1,3.516-3.7.928.928,0,0,1,1.094.837.913.913,0,0,1-.917,1.008" transform="translate(-146.545 -32.557)" fill="#094959"/>
      </g>
    </g>
  </g>
</svg>
