<svg xmlns="http://www.w3.org/2000/svg" xmlns:xlink="http://www.w3.org/1999/xlink" width="96" height="96" viewBox="0 0 96 96">
  <defs>
    <clipPath id="clip-path">
      <rect id="Rectángulo_456527" data-name="Rectángulo 456527" width="53.782" height="52.161" fill="#094959"/>
    </clipPath>
  </defs>
  <g id="Grupo_1191939" data-name="Grupo 1191939" transform="translate(-383.746 -8400.001)">
    <path id="Trazado_997400" data-name="Trazado 997400" d="M48,0A48,48,0,1,1,0,48,48,48,0,0,1,48,0Z" transform="translate(383.746 8400.001)" fill="#a0f7fe"/>
    <g id="Grupo_1192157" data-name="Grupo 1192157" transform="translate(404.855 8421.921)">
      <g id="Grupo_1192156" data-name="Grupo 1192156" clip-path="url(#clip-path)">
        <path id="Trazado_1003654" data-name="Trazado 1003654" d="M50.2,121.584a15.913,15.913,0,0,1-6.207,8.929l-5.254,3.815a4.527,4.527,0,0,0-.088,1.632,2.133,2.133,0,0,1-2.027,2.374H17.161a2.132,2.132,0,0,1-2.025-2.374,5.166,5.166,0,0,0-.077-1.646l-4.613-3.3A16.876,16.876,0,0,1,3.6,121.641L.083,107.532a3.352,3.352,0,0,1,2.408-3.8,3.407,3.407,0,0,1,4.212,1.9l3.3,8.588a3.553,3.553,0,0,1,3.794.236l7.444,4.789a13.722,13.722,0,0,1,5.644,6.26,13.337,13.337,0,0,1,4.76-5.678l8.641-5.565a3.538,3.538,0,0,1,3.495-.042l3.238-8.485a3.458,3.458,0,0,1,4.142-2.041A3.36,3.36,0,0,1,53.7,107.53Zm-29.287-.052-8.551-5.483a1.343,1.343,0,0,0-1.417,2.274l4.97,3.912a1.049,1.049,0,0,1-1.135,1.759l-5.489-4.365a3.3,3.3,0,0,1-.857-3.523l-3.558-9.486a1.423,1.423,0,0,0-2.688.937L5.668,121.2a13.96,13.96,0,0,0,5.449,7.67l5.645,4.09c.9.65.259,2.106.544,3.3l8.531-.023-.031-6.132a10.279,10.279,0,0,0-4.9-8.575m7.075,8.494c-.151,2.185-.006,4.191-.021,6.233l8.513,0c.3-1.4-.412-2.614.638-3.372l5.462-3.939a14.244,14.244,0,0,0,5.579-7.868L51.6,107.554a1.422,1.422,0,0,0-.959-1.827,1.452,1.452,0,0,0-1.728.891L45.354,116.1a3.3,3.3,0,0,1-.858,3.527l-5.391,4.3a1.026,1.026,0,0,1-1.429-.2,1.04,1.04,0,0,1,.192-1.495l4.974-3.914a1.371,1.371,0,0,0,.344-1.815,1.344,1.344,0,0,0-1.762-.459l-8.477,5.435a10.855,10.855,0,0,0-4.961,8.542" transform="translate(0 -86.173)" fill="#094959"/>
        <path id="Trazado_1003655" data-name="Trazado 1003655" d="M84.654,21.276a2.953,2.953,0,0,0-3.018-2.807l-6.237.017a2.94,2.94,0,0,0-2.871,2.879l-.009,5.7c.785.26,1.606-.193,2.146.538a1.087,1.087,0,0,1,.016,1.2c-.3.478-.77.412-1.29.471-1.369.156-2.937-.357-2.961-1.88l-.077-4.769-6.037-.007a2.114,2.114,0,0,1-2.169-2.065l.009-5.9A5.1,5.1,0,0,1,65.906,9.89a5.988,5.988,0,0,1-.284-7.564A5.914,5.914,0,0,1,72.891.586a6.019,6.019,0,0,1,3.255,6.549,6.132,6.132,0,0,1,4.916,0A5.979,5.979,0,0,1,84.3.593,5.9,5.9,0,0,1,91.572,2.32a5.988,5.988,0,0,1-.279,7.568,5.029,5.029,0,0,1,3.736,4.593l.038,5.9a2.162,2.162,0,0,1-2.187,2.24l-6.033.008-.078,4.767c-.025,1.523-1.589,2.046-2.962,1.876-.478-.059-.889.032-1.205-.384a1.075,1.075,0,0,1-.124-1.177c.473-.853,1.441-.386,2.208-.649ZM74.13,5.914a3.811,3.811,0,1,0-3.811,3.811A3.811,3.811,0,0,0,74.13,5.914m16.56,0a3.811,3.811,0,1,0-3.811,3.811A3.811,3.811,0,0,0,90.69,5.915M82.41,12.546A3.811,3.811,0,1,0,78.6,16.357a3.811,3.811,0,0,0,3.811-3.811M70.512,20.5a5.226,5.226,0,0,1,3.678-3.978,6.175,6.175,0,0,1-1.48-4.644L67.5,11.819a3.1,3.1,0,0,0-3.277,3.029l.013,5.7Zm22.474,0,0-5.659a3.163,3.163,0,0,0-3.3-3.031l-5.192.031A6.281,6.281,0,0,1,83,16.53a5.33,5.33,0,0,1,3.727,4.028Z" transform="translate(-51.708 0)" fill="#094959"/>
        <path id="Trazado_1003656" data-name="Trazado 1003656" d="M155.987,162.819a1.041,1.041,0,1,1-1.041-1.041,1.041,1.041,0,0,1,1.041,1.041" transform="translate(-128.055 -134.605)" fill="#094959"/>
      </g>
    </g>
  </g>
</svg>
