<svg xmlns="http://www.w3.org/2000/svg" xmlns:xlink="http://www.w3.org/1999/xlink" width="96" height="96" viewBox="0 0 96 96">
  <defs>
    <clipPath id="clip-path">
      <rect id="Rectángulo_456529" data-name="Rectángulo 456529" width="58.27" height="53.872" fill="#094959"/>
    </clipPath>
  </defs>
  <g id="Grupo_1191941" data-name="Grupo 1191941" transform="translate(-383.746 -8400.001)">
    <path id="Trazado_997400" data-name="Trazado 997400" d="M48,0A48,48,0,1,1,0,48,48,48,0,0,1,48,0Z" transform="translate(383.746 8400.001)" fill="#a0f7fe"/>
    <g id="Grupo_1192161" data-name="Grupo 1192161" transform="translate(402.611 8421.065)">
      <g id="Grupo_1192160" data-name="Grupo 1192160" clip-path="url(#clip-path)">
        <path id="Trazado_1003660" data-name="Trazado 1003660" d="M13.734,99.338c-.852,0-.877-.83-.919-1.626-1.249.895-2.528-.5-3.441-.421-1.186.109-2.254,1.191-3.7.389A3.293,3.293,0,0,1,3.731,95.02l-.058-10.2a3.033,3.033,0,0,1-2.51-.444A2.861,2.861,0,0,1,0,82.123l.033-9.687A3.3,3.3,0,0,1,1.38,70.111c2.876-2.362,7.9-2.483,11.432-1.939.044-.645.241-1.3.843-1.3l6.1-.065.1-6.531c.021-1.376,1.324-2.312,2.471-2.921,5.278-2.8,16.039-1.3,16.086,3.079l.069,6.38,5.959.032c.673,0,.968.58.986,1.327a18.327,18.327,0,0,1,9.71.863c1.4.584,3.012,1.636,3.029,3.256l.1,9.475a3.171,3.171,0,0,1-.975,2.444,3.062,3.062,0,0,1-2.723.615l-.03,10.027a3.366,3.366,0,0,1-1.845,2.77c-1.459.856-2.573-.156-3.823-.338-.887-.05-2.2,1.3-3.435.441-.031.746-.112,1.61-.828,1.61Zm19.15-32.524L32.9,63.8a.907.907,0,0,1,1-.964.88.88,0,0,1,.863.962l.044,2.978a4.888,4.888,0,0,0,1.754-.005l.036-5.783a2.135,2.135,0,0,0-1.447-1.967c-5.141-2.461-13.466-.729-13.469,1.62l-.007,6.13a5.005,5.005,0,0,0,1.767.007c.255-1.3-.545-3.894.9-3.943a.912.912,0,0,1,1,.968l.038,3.024ZM22.468,83.167a.933.933,0,0,1,1.03-1.006l4.646-.019a26.669,26.669,0,0,0-.017-3.408A3.985,3.985,0,0,1,22.909,72.8a4.031,4.031,0,0,1,5.216-.689,31.394,31.394,0,0,0,.038-3.374l-13.442,0,.014,13.4,4.671.032a.936.936,0,0,1,1.052,1.058,5.957,5.957,0,0,1-.846,2.123,2.058,2.058,0,0,0,.682,2.714,2.1,2.1,0,0,0,2.561-.172c1.759-1.592-.238-3.029-.386-4.726m7.591-5.621.031,4.6a20.369,20.369,0,0,0,3.367-.08,3.989,3.989,0,1,1,6.637.056l3.428.008,0-13.41H30.093l-.058,4.97c-.44,1.488-2.354.349-3.216-.122a2.045,2.045,0,0,0-2.671.7A2.114,2.114,0,0,0,24.4,76.91c1.953,1.933,3.82-1.315,5.285-.29a1.036,1.036,0,0,1,.375.925M5.584,94.728a1.367,1.367,0,0,0,1.367,1.313c.53.02,1.366-.321,1.372-1.013l.07-7.642a.923.923,0,0,1,1-.984.9.9,0,0,1,.875.961l.015,7.274a1.416,1.416,0,0,0,1,1.359c.4.1,1.521.054,1.521-.587l.036-25.255c-3.19-.71-7.386-.524-10.14,1.267a1.769,1.769,0,0,0-.843,1.563l.019,9.127a.931.931,0,0,0,.951.91.9.9,0,0,0,.848-.869L3.7,75.784A.932.932,0,0,1,4.712,74.8a.9.9,0,0,1,.848.989Zm47.1-.168.005-18.773a.9.9,0,0,1,1.038-.981.937.937,0,0,1,.828.98l0,6.182a.93.93,0,0,0,.867,1.041.917.917,0,0,0,.948-.9l0-9.6C55.441,69.65,47.857,69.4,45.4,70.139l.044,25.392c.245.591,1.351.6,1.794.352a1.547,1.547,0,0,0,.73-1.411l0-7.1a.918.918,0,0,1,1.064-.974.956.956,0,0,1,.806.982l0,7.115a1.425,1.425,0,1,0,2.845.059m-22.54,2.932,13.379-.011.008-13.373-4.687-.059c-3.192-.736,1.937-3.826-.795-5.863a2.13,2.13,0,0,0-2.614.074c-2.184,1.851,1.259,4.12.166,5.4a1.121,1.121,0,0,1-.848.389l-4.644.027a23.715,23.715,0,0,0,.025,3.352,4.06,4.06,0,0,1,5.325.827,3.994,3.994,0,0,1-5.339,5.818,19.958,19.958,0,0,0,.025,3.421M29.28,89.75a.921.921,0,0,1-1.07-.876l-.05-4.8-3.368.02a4.028,4.028,0,0,1-.82,5.315,3.99,3.99,0,0,1-5.828-5.316,23.617,23.617,0,0,0-3.423.023l.012,13.366,13.417,0,.055-4.87a.926.926,0,0,1,1.038-.851,5.491,5.491,0,0,1,2.116.826,2.077,2.077,0,0,0,2.671-.571,2.107,2.107,0,0,0-.016-2.552c-1.482-1.9-3.3.138-4.734.283" transform="translate(0 -45.467)" fill="#094959"/>
        <path id="Trazado_1003661" data-name="Trazado 1003661" d="M34.184,68.735a4.718,4.718,0,1,1-4.718-4.718,4.718,4.718,0,0,1,4.718,4.718m-1.88,0a2.838,2.838,0,1,0-2.838,2.838A2.838,2.838,0,0,0,32.3,68.735" transform="translate(-20.118 -52.038)" fill="#094959"/>
        <path id="Trazado_1003662" data-name="Trazado 1003662" d="M245.566,68.732a4.718,4.718,0,1,1-4.718-4.718,4.718,4.718,0,0,1,4.718,4.718m-1.879,0a2.838,2.838,0,1,0-2.838,2.838,2.838,2.838,0,0,0,2.838-2.838" transform="translate(-191.947 -52.036)" fill="#094959"/>
        <path id="Trazado_1003663" data-name="Trazado 1003663" d="M139.875,4.718A4.718,4.718,0,1,1,135.158,0a4.718,4.718,0,0,1,4.718,4.718m-1.881,0a2.837,2.837,0,1,0-2.837,2.837,2.837,2.837,0,0,0,2.837-2.837" transform="translate(-106.033)" fill="#094959"/>
      </g>
    </g>
  </g>
</svg>
