<svg xmlns="http://www.w3.org/2000/svg" xmlns:xlink="http://www.w3.org/1999/xlink" width="84" height="84" viewBox="0 0 84 84">
  <defs>
    <clipPath id="clip-path">
      <rect id="Rectángulo_456497" data-name="Rectángulo 456497" width="61.939" height="63.093" fill="#12263f"/>
    </clipPath>
  </defs>
  <g id="Grupo_1179130" data-name="Grupo 1179130" transform="translate(-706 -1685.277)">
    <g id="Grupo_1177731" data-name="Grupo 1177731">
      <g id="Grupo_1119665" data-name="Grupo 1119665" transform="translate(530.111 -3835.723)">
        <path id="Trazado_991847" data-name="Trazado 991847" d="M5,0H79a5,5,0,0,1,5,5V79a5,5,0,0,1-5,5H5a5,5,0,0,1-5-5V5A5,5,0,0,1,5,0Z" transform="translate(175.889 5521)" fill="#a0f7fe"/>
      </g>
      <g id="Grupo_1192103" data-name="Grupo 1192103" transform="translate(717.03 1695.731)">
        <g id="Grupo_1192102" data-name="Grupo 1192102" clip-path="url(#clip-path)">
          <path id="Trazado_1003470" data-name="Trazado 1003470" d="M160.841,28.549c-1.4-.26.392-4.01-3.314-4.708a3.257,3.257,0,0,0-3.746,2.53.86.86,0,0,1-1.05.666l-3.844-.739c-1.311-.252.065-3.052-.063-4.147a4.84,4.84,0,0,1,1.8-9.356l.576-3.038a.826.826,0,0,1,1.023-.772l5.6,1.028a7.707,7.707,0,0,0,1.286-1.13c3.551-3.918,6.848-2.4,7.77-4.571.128-.3-.243-.809.04-1.074L170.127.23a.839.839,0,0,1,1.211.063l5.62,6.1a.886.886,0,0,1-.1,1.155l-3.032,2.827c-.363.338-.94.022-1.27.076a4.251,4.251,0,0,0-1.448,3.48l0,5.894a1.1,1.1,0,0,1-.219.735c-.621.722-2.66-.116-3.45-1.4l-1.8,9.436a.836.836,0,0,1-1.038.645ZM173.3,8.688l1.923-1.83-4.532-4.932a10.969,10.969,0,0,0-1.961,1.847Zm-16,10.523a.357.357,0,0,0-.052.536.447.447,0,0,0,.577.014l4.808-4.387a.842.842,0,0,1,1.11.123.826.826,0,0,1-.018.963l-3.675,3.432a.4.4,0,0,0,.03.646.5.5,0,0,0,.53-.085l5.113-4.725a1.707,1.707,0,0,1,1.893-.308c1.662.757.378,2.824,1.9,3.564l.014-5.075a6.153,6.153,0,0,1,2.014-4.759L168.1,5.494c-3.179,3.137-3.66.516-7.784,4.391l-3.968,3.727a.521.521,0,0,0-.116.59.44.44,0,0,0,.549.039l2.609-2.344a.793.793,0,0,1,1.053.036.8.8,0,0,1-.065,1.152l-3.9,3.626a.425.425,0,0,0-.038.652.531.531,0,0,0,.619-.095l4.049-3.683a.811.811,0,0,1,1.028.172.777.777,0,0,1-.075,1.005Zm6.987,8.244,1.719-9.773-4.274,3.879c-1.171,1.062-2.222.673-3.213-.2a2.865,2.865,0,0,1-2.338-.353c-.738-.546-.337-1.5-.725-2.138-.657-1.074-1.217-2.182-.1-3.336a2,2,0,0,1-.352-2.809c.4-.518.985-.764,1.249-1.394l-3.567-.653c-.658,1.467-.085,3.919-1.715,3.748a3.235,3.235,0,0,0-1.168,6.357c1.56.372.128,2.624.223,4.112a12.808,12.808,0,0,0,2.425.409,4.816,4.816,0,0,1,9.307,1.736,6.231,6.231,0,0,0,2.526.411" transform="translate(-115.19 0)" fill="#12263f"/>
          <path id="Trazado_1003471" data-name="Trazado 1003471" d="M30.885,25.388c.539,1.4-2.5,1.573-3.481,2.322a4.824,4.824,0,0,1-8.849,3.439l-3.12,1.131c-.494.179-.863-.16-1.043-.588-.754-1.79-1.3-3.62-2.172-5.386-.455-.29-1.339-.251-1.71-.769L7.1,20.783a10.457,10.457,0,0,1-2.182-5.61c-.052-.9-.3-2.35-1.045-2.461l-1.135-.168L.135,8.908A.9.9,0,0,1,.217,7.842L7.191,2.933A.829.829,0,0,1,8.2,3.121l2.586,3.7-.134,1.159A4.28,4.28,0,0,0,13.77,9.721l5.561.7a2.256,2.256,0,0,1,1.41.785c1.266,0,3.788-2.179,4.373-.671l1.4,3.6a.847.847,0,0,1-.506,1.119,3.235,3.235,0,0,0,2.319,6.036.894.894,0,0,1,1.186.538ZM7.4,4.69,1.838,8.6,3.4,10.825,8.961,6.913Zm9.842,19.416c.216.305.545.248.644.042a.54.54,0,0,0-.018-.512l-3.7-5.292a.774.774,0,0,1,.222-1.06.835.835,0,0,1,1.055.182L18.307,21.5a.4.4,0,0,0,.568.124.443.443,0,0,0,.077-.563l-4.126-5.919a1.673,1.673,0,0,1,.114-1.857c.977-1.353,2.849.058,3.667-1.278l-5.481-.789a5.923,5.923,0,0,1-3.952-2.5l-4.1,2.863c2.287,2.717.657,4.533,2.737,7.463L11.543,24.3a.481.481,0,0,0,.638.207.518.518,0,0,0,.03-.65l-1.891-2.715a.833.833,0,0,1,.115-1.077c.189-.135.766-.294.973-.006L14.755,24.7a.387.387,0,0,0,.554.063.421.421,0,0,0,.048-.558L12.209,19.67a.748.748,0,0,1,.313-1.053.828.828,0,0,1,.955.193ZM19.662,29.8a3.238,3.238,0,0,0,4.244,1.842,3.28,3.28,0,0,0,1.816-4.157c-.464-1.345,2.425-1.514,3.393-2.226a14.491,14.491,0,0,0-.9-2.286,4.837,4.837,0,0,1-3.463-8.863,10.16,10.16,0,0,0-.9-2.317c-1.528.644-3.072,1.045-4.488,1.812a6.055,6.055,0,0,1-3.2.682l4.168,5.971c.9,1.294-.213,2.077-.665,3.053-.329.71-.06,1.6-.723,2.158-.756.638-1.553.186-2.281.408-.832.254-1.55.95-2.681.326l1.63,4.267c1,.007,3.551-1.915,4.056-.669" transform="translate(0 -2.24)" fill="#12263f"/>
          <path id="Trazado_1003472" data-name="Trazado 1003472" d="M23.583,180.305c-2.978,3.817-7.179,2.864-8.047,4.833-.136.308.292.826-.033,1.127l-3.268,3.02a.782.782,0,0,1-1.068-.055l-5.637-6.1a.8.8,0,0,1,.013-1.159l3.271-3.012c.244-.224.8.163,1.028.072a4.067,4.067,0,0,0,1.473-3.505l-.04-5.67c0-.57.206-1.184.844-1.194a3.454,3.454,0,0,1,3.127,2.165l4.4-10.385a.82.82,0,0,1,1.116-.493l3.578,1.5a.82.82,0,0,1,.488,1.046,3.253,3.253,0,1,0,6.036,2.428c.153-.353.774-.385,1.106-.248l3.383,1.4c1.562.645-.345,2.674-.632,4.173a4.825,4.825,0,0,1-3.636,8.768c-.771.769-1.065,3.975-2.4,3.418ZM23.9,168.2a10.673,10.673,0,0,0,1.343-.36,4.941,4.941,0,0,1-2.127-5.125,13.866,13.866,0,0,0-2.3-1.014l-3.977,9.649c1.506-1.119,2.618-2.337,3.923-3.5a2.068,2.068,0,0,1,3.138.346m4.65,12.462,1.278-2.918a.813.813,0,0,1,1.056-.435,3.291,3.291,0,0,0,4.218-1.74,3.24,3.24,0,0,0-1.626-4.205.851.851,0,0,1-.484-1.145l1.173-2.861a10.957,10.957,0,0,0-2.271-.976,5.21,5.21,0,0,1-5.6,2.059c.759.617.341,1.682.65,2.142.712,1.058,1.268,2.146.145,3.321a2.059,2.059,0,0,1,.11,3.1c-.732.7-1.479,1.276-2.224,2.13Zm-5.608-3.035a.748.748,0,0,1-1.074-.241.828.828,0,0,1,.143-.976l3.912-3.622c.208-.193.3-.431.145-.614a.426.426,0,0,0-.611-.017L21.3,175.9c-.34.308-.972-.037-1.093-.366a.853.853,0,0,1,.214-.906l4.748-4.407a.414.414,0,0,0-.041-.552.519.519,0,0,0-.578.058l-4.824,4.4a.834.834,0,0,1-1.01-.121.92.92,0,0,1,.028-1.056l3.672-3.436a.374.374,0,0,0-.055-.587.463.463,0,0,0-.494.052l-5.327,4.873a1.59,1.59,0,0,1-1.9.1c-1.4-.907-.279-2.778-1.715-3.456l-.04,5.411a6.059,6.059,0,0,1-1.959,4.394l3.366,3.682c2.482-2.663,4.374-1.2,7.1-3.741l4.679-4.356a.5.5,0,0,0,.126-.571.4.4,0,0,0-.56-.085ZM9.154,180.746l-2,1.845L11.78,187.6l2-1.845Z" transform="translate(-4.179 -126.377)" fill="#12263f"/>
          <path id="Trazado_1003473" data-name="Trazado 1003473" d="M175.136,179.716c-.269-.385.067-.825.158-1.131a4.086,4.086,0,0,0-3.131-1.879l-5.755-.71a1.28,1.28,0,0,1-1.2-1.206c-1.342-.232-5.423,1.6-5.682.086l-.674-3.946a.783.783,0,0,1,.58-.9,3.244,3.244,0,0,0-.961-6.416.843.843,0,0,1-1.006-.679l-.678-3.943a.733.733,0,0,1,.487-.8l3.38-.665a4.867,4.867,0,0,1,3.884-4.69,4.8,4.8,0,0,1,5.483,3.054l3.314-.473a.729.729,0,0,1,.852.616l.719,4.3,3.863,5.334c3.334,4.6,1.276,6.589,3.25,8.043.275.2.873-.154,1.133.186.917,1.2,1.738,2.4,2.593,3.644a.857.857,0,0,1-.26,1.124l-6.782,4.77a.913.913,0,0,1-1.2-.349Zm-9.712-13.7c-.872-1.263.4-2.012.751-2.856.3-.733.026-1.561.676-2.162.7-.651,1.487-.234,2.251-.483,1.145-.373,2.355-1.007,3.309.331,1.58-.579.492-1.8.379-3.7-1.412-.131-3.786,1.271-4.121-.222a3.235,3.235,0,0,0-6.383,1.024.924.924,0,0,1-.837,1.113l-2.891.488a5.962,5.962,0,0,0,.47,2.489,4.8,4.8,0,0,1,4.639,4.021,4.854,4.854,0,0,1-3.082,5.3,7.433,7.433,0,0,0,.435,2.5c1.766-.415,3.576-.472,5.3-1.018a6.537,6.537,0,0,1,3.365-.65Zm1.827,8.417c3.365.826,7-.036,9.428,3.275l4.07-2.868c-2.646-3.672-.1-3.846-3.273-8.254l-3.24-4.507a.409.409,0,0,0-.559-.135.4.4,0,0,0-.09.54l1.967,2.867a.774.774,0,0,1-.311,1.1.8.8,0,0,1-.957-.229l-3.148-4.422c-.165-.231-.4-.3-.539-.192a.458.458,0,0,0-.1.66l3.079,4.394a.848.848,0,0,1-.08,1.026c-.239.2-.846.31-1.089-.029l-3.842-5.364a.475.475,0,0,0-.568-.118.412.412,0,0,0-.089.529l3.708,5.284a.818.818,0,0,1-.069,1.064.8.8,0,0,1-1.118-.048l-2.875-4.017a.4.4,0,1,0-.665.424l4.074,5.788a1.717,1.717,0,0,1-.088,1.975c-.94,1.268-3.006.014-3.631,1.257m15.193,1.14-5.552,3.932,1.586,2.24,5.553-3.932Z" transform="translate(-123.929 -120.741)" fill="#12263f"/>
        </g>
      </g>
    </g>
  </g>
</svg>
