<svg xmlns="http://www.w3.org/2000/svg" xmlns:xlink="http://www.w3.org/1999/xlink" width="1020" height="457.199" viewBox="0 0 1020 457.199">
  <defs>
    <clipPath id="clip-path">
      <path id="Trazado_611005" data-name="Trazado 611005" d="M0,0H1020V456.2H0Z" fill="#e2fff2"/>
    </clipPath>
    <clipPath id="clip-path-2">
      <rect id="Rectángulo_456301" data-name="Rectángulo 456301" width="436" height="388.84" fill="none"/>
    </clipPath>
    <clipPath id="clip-path-4">
      <rect id="Rectángulo_456296" data-name="Rectángulo 456296" width="10.225" height="7.016" fill="none"/>
    </clipPath>
    <clipPath id="clip-path-5">
      <rect id="Rectángulo_456298" data-name="Rectángulo 456298" width="10.224" height="7.016" fill="none"/>
    </clipPath>
  </defs>
  <g id="Grupo_1179218" data-name="Grupo 1179218" transform="translate(-290 -5790.49)">
    <g id="Grupo_1073695" data-name="Grupo 1073695" transform="translate(290 5790.49)">
      <path id="Trazado_608309" data-name="Trazado 608309" d="M0,0H1020V456.2H0Z" fill="#e2fff2"/>
    </g>
    <g id="Grupo_1179217" data-name="Grupo 1179217" transform="translate(-3 -54.556)">
      <g id="Grupo_1179205" data-name="Grupo 1179205" transform="translate(394 5881.21)">
        <g id="Grupo_1179204" data-name="Grupo 1179204" clip-path="url(#clip-path-2)">
          <rect id="Rectángulo_456288" data-name="Rectángulo 456288" width="2.994" height="74.64" transform="translate(230.786 10.06)" fill="#0e5a52"/>
          <rect id="Rectángulo_456289" data-name="Rectángulo 456289" width="74.639" height="2.994" transform="translate(326.099 195.462)" fill="#95ebba"/>
          <rect id="Rectángulo_456290" data-name="Rectángulo 456290" width="74.64" height="2.994" transform="translate(46.469 192.891)" fill="#95ebba"/>
          <g id="Grupo_1179203" data-name="Grupo 1179203">
            <g id="Grupo_1179202" data-name="Grupo 1179202" clip-path="url(#clip-path-2)">
              <path id="Trazado_1002590" data-name="Trazado 1002590" d="M332.174,173.6h0v-9.981a102.3,102.3,0,0,0-102.3,102.3h9.98A92.424,92.424,0,0,1,332.174,173.6" transform="translate(-98.394 -70.035)" fill="#0e5a52"/>
              <path id="Trazado_1002591" data-name="Trazado 1002591" d="M257.3,342.506h-9.981a92.319,92.319,0,0,0,92.319,92.3v-9.98A82.432,82.432,0,0,1,257.3,342.506" transform="translate(-105.863 -146.604)" fill="#95ebba"/>
              <path id="Trazado_1002592" data-name="Trazado 1002592" d="M491.069,342.523h-9.981a72.44,72.44,0,0,1-72.357,72.332v9.98a82.338,82.338,0,0,0,82.338-82.312" transform="translate(-174.951 -146.612)" fill="#0e5a52"/>
              <rect id="Rectángulo_456291" data-name="Rectángulo 456291" width="2.994" height="74.64" transform="translate(230.786 298.315)" fill="#0e5a52"/>
              <path id="Trazado_1002593" data-name="Trazado 1002593" d="M408.731,215.969v9.981a62.448,62.448,0,0,1,62.378,62.377v.01h9.98v-.01a72.358,72.358,0,0,0-72.358-72.358" transform="translate(-174.951 -92.442)" fill="#95ebba"/>
              <path id="Trazado_1002594" data-name="Trazado 1002594" d="M578.675,77.891A60.686,60.686,0,1,1,517.989,17.2a60.685,60.685,0,0,1,60.686,60.686" transform="translate(-195.742 -7.364)" fill="#95ebba"/>
              <path id="Trazado_1002595" data-name="Trazado 1002595" d="M572.312,91.778a8.681,8.681,0,0,0-8.244-5.969L550.98,84.283c-2.395-.952-4.57-3.285-5.045-5.024l-.145-6.626c-1.46,1.04-2.841,1.742-4.5,2.8a15.6,15.6,0,0,1-4.79-.031,42.971,42.971,0,0,1-7.814-5.468l-.291,9.5c-.619,1.668-2.886,3.806-5.247,4.772l-12.973,1.593a8.678,8.678,0,0,0-8.549,7.216c-.03.155-.055.312-.073.471-.011.092-.018.185-.026.278,0,.059-.012.117-.014.176L514.2,104.379l4.672,15.088h36.524l5.045-16.292h1.346Z" transform="translate(-214.666 -29.937)" fill="#fcc397"/>
              <rect id="Rectángulo_456292" data-name="Rectángulo 456292" width="21.988" height="40.528" transform="translate(310.921 58.213)" fill="#e5e5e5"/>
              <path id="Trazado_1002596" data-name="Trazado 1002596" d="M565.6,100.658a8.677,8.677,0,0,0-8.122-5.642L544.388,93.49a25.222,25.222,0,0,1-2.777-.778l-10.866,42.263L519.666,91.451a11.284,11.284,0,0,1-3.107,1.971l-12.973,1.593a8.642,8.642,0,0,0-6.6,3.059l-.034-.026a5.536,5.536,0,0,0-.47.675,8.646,8.646,0,0,0-.859,1.554c-3.221,6.294-9.318,23.882-9.5,31.536-.214,8.967,11.156,25.43,15.683,29.569l11.3-.85-6.435,3.892-.065,1.121a60.848,60.848,0,0,0,47.859-.185l-.23-4.055c1.465,1.018,3.453,1.112,5.543-1.332C564.3,155.833,575.513,139.967,575.3,131c-.182-7.545-6.437-23.851-9.7-30.341m-58.183,50.648a165.13,165.13,0,0,1-8.362-17.049c-1.521-3.727,2.63-12.582,6.878-19.045l1.489,36Zm46.294.8-.1-1.757,1.4-34.257c3.651,6.306,7.513,14.178,7.572,18.016.043,2.8-5.527,11.518-8.869,18" transform="translate(-208.074 -39.144)" fill="#333"/>
              <path id="Trazado_1002597" data-name="Trazado 1002597" d="M569.222,109.536l-.9-14.774-4.382-.508a10.263,10.263,0,0,1-1.857-.983l-2.286,3.106-9.954,39.1-9.989-39.248-2.288-3.106a10.379,10.379,0,0,1-1.854,1.012l-4.083.5-.774,14.752,5.6,1.006-1.15,5.749,13.756,26.432-.247,3.462,15.953-29.75-1.151-5.749Z" transform="translate(-227.222 -39.862)" fill="#515151"/>
              <path id="Trazado_1002598" data-name="Trazado 1002598" d="M556.743,122.011l4.179,16.42,3.493-13.727L562.3,107.932l2.56-3.7-1.5-4.065-5.218-.146-1.353,4.429,2.367,3.413Z" transform="translate(-238.305 -42.811)" fill="#5fa6b2"/>
              <path id="Trazado_1002599" data-name="Trazado 1002599" d="M544.817,86.136l9.2,7.9L547.26,100.8l-6.611-10.2Z" transform="translate(-231.417 -36.869)" fill="#fff"/>
              <path id="Trazado_1002600" data-name="Trazado 1002600" d="M527.924,211.759a.308.308,0,0,0,0-.047c-1.793-2.706-1.29-1.946-2.2-3.316a3.666,3.666,0,0,0-5.082-1.029c-4.1,2.717-3.387,2.231-3.74,2.506a8.12,8.12,0,0,0-.764,3.494,60.39,60.39,0,0,0,6.313,2.712,10.535,10.535,0,0,0,5.471-4.32" transform="translate(-220.925 -88.498)" fill="#fcc397"/>
              <path id="Trazado_1002601" data-name="Trazado 1002601" d="M573.214,86.136l-9.2,7.9,6.755,6.755,6.611-10.2Z" transform="translate(-241.418 -36.869)" fill="#fff"/>
              <rect id="Rectángulo_456293" data-name="Rectángulo 456293" width="9.447" height="2.371" transform="translate(293.811 121.852) rotate(-35.98)" fill="#fff"/>
              <path id="Trazado_1002602" data-name="Trazado 1002602" d="M536.233,201.787l-2.19.027a10.579,10.579,0,0,1,.234,2.082,10.418,10.418,0,0,1-1.63,5.736,10.533,10.533,0,0,1-5.471,4.32c.6.219,1.819.639,2.985,1a12.633,12.633,0,0,0,6.272-11.078,12.792,12.792,0,0,0-.2-2.083" transform="translate(-225.65 -86.372)" fill="#515151"/>
              <path id="Trazado_1002603" data-name="Trazado 1002603" d="M601.875,209.107l-3.531-2.277a3.667,3.667,0,0,0-5.068,1.094c-.888,1.378-.375.585-2.156,3.343,0,.013,0,.033,0,.047a10.532,10.532,0,0,0,5.592,4.275,60.445,60.445,0,0,0,6.216-2.754c0-1.154-.38-3.3-1.054-3.728" transform="translate(-253.019 -88.28)" fill="#fcc397"/>
              <path id="Trazado_1002604" data-name="Trazado 1002604" d="M588.235,209.272a10.465,10.465,0,0,1-1.495-7.8H584.55a12.771,12.771,0,0,0-.173,2.085,12.638,12.638,0,0,0,6.464,11.029c1.238-.4,2.109-.708,2.986-1.04a10.533,10.533,0,0,1-5.591-4.275" transform="translate(-250.134 -86.237)" fill="#515151"/>
              <rect id="Rectángulo_456294" data-name="Rectángulo 456294" width="2.371" height="9.447" transform="matrix(0.588, -0.809, 0.809, 0.588, 342.854, 117.618)" fill="#fff"/>
              <path id="Trazado_1002605" data-name="Trazado 1002605" d="M556.829,73.86a46.867,46.867,0,0,1-8.061-3.464v4.258c1.314.834,3.266,2.114,4.627,2.96a5.709,5.709,0,0,0,1.965.55h5a5.318,5.318,0,0,0,1.972-.538c1.1-.726,2.357-1.743,3.725-2.646V70.288a60.489,60.489,0,0,1-9.23,3.572" transform="translate(-234.892 -30.086)" fill="#ea9f6c"/>
              <path id="Trazado_1002606" data-name="Trazado 1002606" d="M566.439,23.278a1.936,1.936,0,0,0-1.391.093c.185-5.38.136-10.2-.547-11.276-3.788-5.941-8.236-8.524-14.787-8.771h0c-6.55.247-10.505,2.83-14.292,8.771-.7,1.1-.819,6.138-.716,11.678a2.264,2.264,0,0,0-2.072-.5c-1.446.487-1.953,2.853-1.133,5.284.707,2.1,2.169,3.556,3.486,3.606.215,4.723.461,8.4.461,8.4,4.424,3.033,7.357,5.08,9.913,6.592a4.277,4.277,0,0,0,1.577.446h5.3a6.478,6.478,0,0,0,1.8-.493c2.564-1.5,5.505-3.583,9.941-6.545,0,0,.321-3.73.623-8.5a5.368,5.368,0,0,0,2.946-3.5c.828-2.429.328-4.8-1.114-5.288" transform="translate(-227.331 -1.423)" fill="#fcc397"/>
              <path id="Trazado_1002607" data-name="Trazado 1002607" d="M569.859,34.213c.449-.249,5.954-2.417,7.624.46,1.4,2.417-1.185,0-2.907.019a24.479,24.479,0,0,0-4.413.338c-.69.1-.917-.479-.3-.817" transform="translate(-243.767 -14.209)" fill="#663412"/>
              <path id="Trazado_1002608" data-name="Trazado 1002608" d="M550.211,34.414c-.431-.25-5.8-2.159-7.392.426-1.448,2.355,1.158.006,2.823.032a36.472,36.472,0,0,1,4.258.361c.674.069.9-.477.31-.818" transform="translate(-232.164 -14.34)" fill="#663412"/>
              <path id="Trazado_1002609" data-name="Trazado 1002609" d="M551.806,40.824a9.635,9.635,0,0,1-3.526.659c-1.421,0-2.716-.478-2.716-1.378s1.278-1.546,2.721-1.546a4.881,4.881,0,0,1,3.52,2.264" transform="translate(-233.521 -16.505)" fill="#fff"/>
              <path id="Trazado_1002610" data-name="Trazado 1002610" d="M550.785,40.055a1.372,1.372,0,1,1-1.369-1.445,1.408,1.408,0,0,1,1.369,1.445" transform="translate(-234.582 -16.526)" fill="#7b9368"/>
              <path id="Trazado_1002611" data-name="Trazado 1002611" d="M550.735,40.46a.879.879,0,1,1-.878-.928.9.9,0,0,1,.878.928" transform="translate(-234.982 -16.921)"/>
              <path id="Trazado_1002612" data-name="Trazado 1002612" d="M552.23,40.93a.457.457,0,1,1-.442-.341.4.4,0,0,1,.442.341" transform="translate(-235.995 -17.373)" fill="#fff"/>
              <path id="Trazado_1002613" data-name="Trazado 1002613" d="M551.644,40.824a4.421,4.421,0,0,0-2.489-1.416c-1.422-.431-3.56.194-3.6,1.206-.6-.432-.614-1.233.906-1.8a4.151,4.151,0,0,1,4.987,1.608,1.264,1.264,0,0,1,.195.4" transform="translate(-233.356 -16.495)" fill="#ea9f6c"/>
              <path id="Trazado_1002614" data-name="Trazado 1002614" d="M570.01,40.824a8.478,8.478,0,0,0,3.476.65c1.421-.035,2.718-.395,2.718-1.3s-1.232-1.618-2.673-1.618a4.886,4.886,0,0,0-3.521,2.264" transform="translate(-243.984 -16.505)" fill="#fff"/>
              <path id="Trazado_1002615" data-name="Trazado 1002615" d="M573.62,39.991a1.372,1.372,0,1,0,1.37-1.447,1.41,1.41,0,0,0-1.37,1.447" transform="translate(-245.529 -16.499)" fill="#7b9368"/>
              <path id="Trazado_1002616" data-name="Trazado 1002616" d="M574.471,40.392a.88.88,0,1,0,.879-.927.9.9,0,0,0-.879.927" transform="translate(-245.894 -16.892)"/>
              <path id="Trazado_1002617" data-name="Trazado 1002617" d="M576.866,40.665a.456.456,0,1,0,.442-.342.4.4,0,0,0-.442.342" transform="translate(-246.919 -17.26)" fill="#fff"/>
              <path id="Trazado_1002618" data-name="Trazado 1002618" d="M570.006,40.8a4.428,4.428,0,0,1,2.489-1.416c1.424-.431,3.559.194,3.6,1.206.594-.432.537-1.272-.984-1.838A4.068,4.068,0,0,0,570.2,40.4a1.268,1.268,0,0,0-.2.4" transform="translate(-243.982 -16.472)" fill="#ea9f6c"/>
              <path id="Trazado_1002619" data-name="Trazado 1002619" d="M562.029,55.415h-2.284a1.8,1.8,0,0,1-1.659-1.269,2.127,2.127,0,0,0-.124.713c0,1.093,1.334,1.446,2.319,1.446h1.214c.983,0,2.316-.353,2.316-1.446a2.156,2.156,0,0,0-.123-.713,1.8,1.8,0,0,1-1.659,1.269" transform="translate(-238.827 -23.176)" fill="#ea9f6c"/>
              <path id="Trazado_1002620" data-name="Trazado 1002620" d="M532.042,40.606c-.016-.2.368-1.075.846-.924.731.231,1.193,1.656,1.5,3.081s.164,2.462,0,2.08a20.648,20.648,0,0,0-1.31-3.889c-.577-1.079-.924,1.194-1.038-.347" transform="translate(-227.732 -16.978)" fill="#ea9f6c"/>
              <path id="Trazado_1002621" data-name="Trazado 1002621" d="M592.736,40.606c.014-.2-.369-1.075-.846-.924-.733.231-1.193,1.656-1.5,3.081s-.164,2.462,0,2.08a20.561,20.561,0,0,1,1.309-3.889c.577-1.079.925,1.194,1.04-.347" transform="translate(-252.629 -16.978)" fill="#ea9f6c"/>
              <path id="Trazado_1002622" data-name="Trazado 1002622" d="M563.018,2.7c-2.461-4.306-16.481-2.465-20.949-1.233s-7.393,3.7-7.238,7.548c.133,3.329.15,10.8.154,12.762a2.631,2.631,0,0,1,1.13.453l.872,4.036.924-6.315S536.063,7.629,548.076,9.785a30.624,30.624,0,0,0-4.775,4.159s7.086-1.7,9.859-2.773,0,2.311,0,2.311,5.39-2,7.085-2.618,3.387-.155,3.7,2.772,1.078,14.017,1.078,14.017l1.936-5.806a2.134,2.134,0,0,1,.449-.074c.061-1.173.138-2.632.233-4.44.925-17.559-2.772-11.4-4.62-14.632" transform="translate(-228.923 0)" fill="#663412"/>
              <path id="Trazado_1002623" data-name="Trazado 1002623" d="M556.03,65.085c.1.541.968,1.839,1.473,1.839h5.062c.507,0,1.374-1.3,1.473-1.839Z" transform="translate(-238 -27.859)" fill="#ea8c63"/>
              <path id="Trazado_1002624" data-name="Trazado 1002624" d="M561.673,64.7c-1.072-.132-4.611-.075-5.16-.049-1.411.065-2.235-.722-2.183-.875.083-.243.266-.186.422.051.144.215,1.069.141,1.531.043,2.331-.5,1.732.059,2.871.078,1.069.016.7-.523,2.727-.066a4.489,4.489,0,0,0,1.97.217c.234-.118.418-.248.481,0,.061.232-.943.809-2.659.6" transform="translate(-237.272 -27.232)" fill="#d87350"/>
              <path id="Trazado_1002625" data-name="Trazado 1002625" d="M670.822,440.081a61.108,61.108,0,1,1-61.109-61.108,61.108,61.108,0,0,1,61.109,61.108" transform="translate(-234.822 -162.214)" fill="#0e5a52"/>
              <path id="Trazado_1002626" data-name="Trazado 1002626" d="M699.617,464.6a7.321,7.321,0,0,0-6.339-4.21l-2.957-.447s2.08,25.66,2.522,23.574c-.533,4.306-1.6,12.542-1.554,15.5.023,1.428-.178,14.4,7.6,7.734,6.059-5.2,4.282-36.255.732-42.147" transform="translate(-295.481 -196.87)" fill="#3870c1"/>
              <path id="Trazado_1002627" data-name="Trazado 1002627" d="M605.97,506.821c.065-4.2,1.732-25.469,1.967-25.113-.2.534.709-21.588.709-21.588l-2.282.344a7.386,7.386,0,0,0-6.328,4.19c-3.552,5.9-5.512,32.158-5.7,40.134-.108,4.5,11.617,3.48,11.638,2.033" transform="translate(-254.394 -196.947)" fill="#3870c1"/>
              <path id="Trazado_1002628" data-name="Trazado 1002628" d="M613.98,481.031s-.177,8.43-.177,13.541c0,10.377,1.1,11.332,1.1,11.332l1.3-14.255Z" transform="translate(-262.729 -205.898)" fill="#024183"/>
              <path id="Trazado_1002629" data-name="Trazado 1002629" d="M694.475,481.818s.946,11.929.491,16.243c-.756,7.17-2.764,7.961-2.764,7.961Z" transform="translate(-296.287 -206.235)" fill="#024183"/>
              <path id="Trazado_1002630" data-name="Trazado 1002630" d="M663.1,464.243c0-5.153-3.395-9.33-7.585-9.33l-7.013-1.06h0l-2.952-.446a7.193,7.193,0,0,1-5.456-5.814c-.115-.995-13.649-.011-13.645.051.177,3.1-3.5,5.239-6.841,5.769l-9.92,1.5c-4.189,0-7.585,4.177-7.585,9.33s3.4,9.33,7.585,9.33h.22a12.354,12.354,0,0,0,.292,1.5A10.4,10.4,0,0,0,616.05,488.3a56.237,56.237,0,0,1,1.465,7.045,74.4,74.4,0,0,1,.832,13.775,25.982,25.982,0,0,0-7.05,8.169,26.881,26.881,0,0,0-2.9,8.094,61.256,61.256,0,0,0,49.071-.278,26.978,26.978,0,0,0-2.954-8,25.967,25.967,0,0,0-7.118-8.108,74.89,74.89,0,0,1,.839-13.648,56.455,56.455,0,0,1,1.42-6.888,10.4,10.4,0,0,0,5.711-13.11,16.218,16.218,0,0,0,.26-1.774c4.14-.07,7.478-4.218,7.478-9.327" transform="translate(-257.723 -191.396)" fill="#3870c1"/>
              <path id="Trazado_1002631" data-name="Trazado 1002631" d="M670.98,415.435s12,3.8,13.857,11.981a12.681,12.681,0,0,1-1.819,10.263,25.343,25.343,0,0,1-7.854,7.057c-6.928,4.331-1.01,8.372-1.01,8.372s-17.411.138-10.393-15.3c3.608-7.94,8.515-5.2,4.042-18.477-4.313-12.8,3.176-3.9,3.176-3.9" transform="translate(-283.4 -176.531)" fill="#663412"/>
              <path id="Trazado_1002632" data-name="Trazado 1002632" d="M658.733,440.838c0,.793-3.881,1.436-8.67,1.436s-8.67-.643-8.67-1.436,3.882-1.436,8.67-1.436,8.67.643,8.67,1.436" transform="translate(-274.538 -188.079)" fill="#024183"/>
              <path id="Trazado_1002633" data-name="Trazado 1002633" d="M643.539,435.2l.4,3.96a25.3,25.3,0,0,0,5.892,2.03,1.84,1.84,0,0,0,1.464-.111c1.1-.606,3.722.255,6.285-1.781l-.441-6.139Z" transform="translate(-275.457 -185.408)" fill="#ea9f6c"/>
              <path id="Trazado_1002634" data-name="Trazado 1002634" d="M658.733,452.993c0,.793-3.881,2.343-8.67,2.343s-8.67-1.55-8.67-2.343,3.882-1.436,8.67-1.436,8.67.643,8.67,1.436" transform="translate(-274.538 -193.282)" fill="#024183"/>
              <path id="Trazado_1002635" data-name="Trazado 1002635" d="M658.733,452.993c0,.793-3.881,1.436-8.67,1.436s-8.67-.643-8.67-1.436,3.882-1.436,8.67-1.436,8.67.643,8.67,1.436" transform="translate(-274.538 -193.282)" fill="#3870c1"/>
              <path id="Trazado_1002636" data-name="Trazado 1002636" d="M641.392,441.913v6.952h17.34v-6.952s.265,1.3-8.67,1.3-8.67-1.3-8.67-1.3" transform="translate(-274.538 -189.154)" fill="#3870c1"/>
              <path id="Trazado_1002637" data-name="Trazado 1002637" d="M660.085,382.966c1.278,11.318-6.468,21.544-17.315,22.709-13.849,1.488-15.83-6.959-17.108-18.277s1.639-21.484,12.48-22.708,20.667,6.959,21.943,18.275" transform="translate(-267.685 -156.048)" fill="#663412"/>
              <path id="Trazado_1002638" data-name="Trazado 1002638" d="M654.738,389.924a1.838,1.838,0,0,0-1.35.271c-.038-4.64-.289-9.291-1.111-10.306a18.473,18.473,0,0,0-15.612-6.805h0a18.471,18.471,0,0,0-13.7,10.114c-.569,1.161.2,5.673,1.186,10.159a1.7,1.7,0,0,0-.974.127c-1.3.606-1.521,2.869-.5,5.053.84,1.795,2.26,2.977,3.459,3,.332,1.265.55,2.056.55,2.056,3.61,7.051,11.349,9.846,13.849,10.581a1.933,1.933,0,0,0,1.46-.135c2.2-1.223,9.242-5.685,11.208-13.44,0,0,.035-.818.077-2.12,1.282-.054,2.595-1.611,3.061-3.738.516-2.355-.2-4.514-1.6-4.82" transform="translate(-266.252 -159.672)" fill="#fcc397"/>
              <path id="Trazado_1002639" data-name="Trazado 1002639" d="M657.471,400.464c.362-.319,3.3-3.209,7.087-1.128,2.3,1.262-1.185-.622-2.76-.256a9.079,9.079,0,0,0-3.881,2.072c-.492.434-.938-.254-.447-.688" transform="translate(-281.329 -170.61)" fill="#663412"/>
              <path id="Trazado_1002640" data-name="Trazado 1002640" d="M638.831,402.629a5.628,5.628,0,0,0-6.934.534c-1.908,1.761.987-.879,2.554-.885a8.489,8.489,0,0,1,4.1,1.124c.555.311.833-.463.277-.773" transform="translate(-270.205 -171.922)" fill="#663412"/>
              <path id="Trazado_1002641" data-name="Trazado 1002641" d="M641.345,409.11a13.106,13.106,0,0,1-3.172,1.328c-1.34.207-2.526-.432-2.621-1.273s.919-1.646,2.264-1.8a4.592,4.592,0,0,1,3.528,1.743" transform="translate(-272.036 -174.362)" fill="#fff"/>
              <path id="Trazado_1002642" data-name="Trazado 1002642" d="M640,408.843a1.43,1.43,0,1,1-1.587-1.338A1.469,1.469,0,0,1,640,408.843" transform="translate(-272.721 -174.422)" fill="#7b9368"/>
              <path id="Trazado_1002643" data-name="Trazado 1002643" d="M639.936,408.988a.969.969,0,1,1-1.077-.908,1,1,0,0,1,1.077.908" transform="translate(-273.089 -174.67)"/>
              <path id="Trazado_1002644" data-name="Trazado 1002644" d="M640.945,409.177c.022.2-.164.377-.417.406a.419.419,0,0,1-.5-.3c-.021-.2.165-.377.418-.406a.417.417,0,0,1,.5.3" transform="translate(-273.954 -175.011)" fill="#fff"/>
              <path id="Trazado_1002645" data-name="Trazado 1002645" d="M639.984,408.749c-1.327-1.846-3.817-1.644-5.364-.861-1.361.689-1.667.442-1.732.377a3.257,3.257,0,0,0,2.525,1.974,1.694,1.694,0,0,1-.9-.778c.048-.911,1.9-1.663,3.227-1.42a4.165,4.165,0,0,1,2.474,1.06,1.56,1.56,0,0,0-.225-.353" transform="translate(-270.898 -174.346)"/>
              <path id="Trazado_1002646" data-name="Trazado 1002646" d="M658.055,407.144a13.494,13.494,0,0,0,3.436.582c1.369-.1,2.4-.988,2.3-1.829s-1.278-1.4-2.644-1.243a4.657,4.657,0,0,0-3.1,2.491" transform="translate(-281.67 -173.194)" fill="#fff"/>
              <path id="Trazado_1002647" data-name="Trazado 1002647" d="M661.436,406.422a1.45,1.45,0,1,0,1.27-1.66,1.479,1.479,0,0,0-1.27,1.66" transform="translate(-283.113 -173.248)" fill="#7b9368"/>
              <path id="Trazado_1002648" data-name="Trazado 1002648" d="M662.136,406.48a.983.983,0,1,0,.861-1.126,1,1,0,0,0-.861,1.126" transform="translate(-283.414 -173.503)"/>
              <path id="Trazado_1002649" data-name="Trazado 1002649" d="M664.48,406.657a.423.423,0,0,0,.5.3c.257-.029.447-.212.424-.407a.423.423,0,0,0-.5-.3c-.257.029-.447.211-.424.407" transform="translate(-284.42 -173.887)" fill="#fff"/>
              <path id="Trazado_1002650" data-name="Trazado 1002650" d="M665.108,404.644c-.052.077-.3.387-1.8.021-1.707-.415-4.215-.054-5.113,2.044a1.54,1.54,0,0,0-.144.4s.392-.816,2.208-1.59c1.261-.535,3.258-.218,3.511.658a1.692,1.692,0,0,1-.718.962c.9-.443,2.125-1.5,2.053-2.49" transform="translate(-281.67 -173.146)"/>
              <path id="Trazado_1002651" data-name="Trazado 1002651" d="M656.709,380.111c-1.1-9.747-10.782-16.66-21.623-15.435s-17.829,10.12-16.729,19.868c.37,3.28.468,6.267,2.161,8.734-.308-1.588.06-2.977,1.034-3.432a1.609,1.609,0,0,1,.7-.146c.755,1.988,1.469,3.341,1.34,2.2-.153-1.35-.161-3.861-.142-5.713-1.254-15.968,26.362-17.479,27.355-2.556.392,1.717.836,3.806.973,5.012.127,1.131.486-.3.753-2.365a1.6,1.6,0,0,1,.581.01c1.1.24,1.774,1.627,1.764,3.352a16.429,16.429,0,0,0,1.829-9.528" transform="translate(-264.63 -156.034)" fill="#663412"/>
              <path id="Trazado_1002652" data-name="Trazado 1002652" d="M652.25,419.949l-1.838.207a1.455,1.455,0,0,1-1.451-.871,1.771,1.771,0,0,0-.034.584c.1.881,1.205,1.043,2,.953l.974-.11c.792-.089,1.834-.494,1.735-1.374a1.794,1.794,0,0,0-.164-.562,1.457,1.457,0,0,1-1.22,1.173" transform="translate(-277.759 -179.251)" fill="#ea9f6c"/>
              <path id="Trazado_1002653" data-name="Trazado 1002653" d="M622.739,411.155c-.035-.181.23-1.043.694-.952.707.138,1.288,1.419,1.726,2.717s.414,2.282.22,1.941a19.5,19.5,0,0,0-1.633-3.493c-.653-.946-.737,1.213-1.007-.213" transform="translate(-266.552 -175.578)" fill="#ea9f6c"/>
              <path id="Trazado_1002654" data-name="Trazado 1002654" d="M679.674,404.674c-.007-.184-.458-.965-.888-.774-.66.293-.94,1.671-1.078,3.034s.106,2.317.219,1.942a19.433,19.433,0,0,1,.812-3.769c.426-1.067.99,1.018.935-.432" transform="translate(-290.065 -172.87)" fill="#ea9f6c"/>
              <path id="Trazado_1002655" data-name="Trazado 1002655" d="M638.333,418.728c-.229,1.177-1.948,1.831-3.838,1.461s-3.234-1.622-3-2.8,1.948-1.83,3.837-1.461,3.235,1.622,3.005,2.8" transform="translate(-270.289 -177.988)" fill="#ffb18a"/>
              <path id="Trazado_1002656" data-name="Trazado 1002656" d="M662,415.916c.486,1.095,2.307,1.349,4.066.569s2.793-2.3,2.306-3.4-2.308-1.35-4.067-.568-2.792,2.3-2.306,3.4" transform="translate(-283.308 -176.378)" fill="#ffb18a"/>
              <path id="Trazado_1002657" data-name="Trazado 1002657" d="M646.036,429.582c1.378,1.143,2.863,2.43,4.914,2.2s3.4-1.953,4.179-3.212a25.494,25.494,0,0,1-4.411,1.039,25.89,25.89,0,0,1-4.682-.027" transform="translate(-276.526 -183.443)" fill="#fc7365"/>
              <path id="Trazado_1002658" data-name="Trazado 1002658" d="M652.343,430.375s2.14-.193,2.615-1.049a35.809,35.809,0,0,0-5.308.483s-.387.815,2.693.566" transform="translate(-278.066 -183.752)" fill="#fff"/>
              <path id="Trazado_1002659" data-name="Trazado 1002659" d="M617.037,551.428a19.149,19.149,0,0,0-2.357,1.53l.286.526a16.173,16.173,0,0,0,2.348-1.809c.179-.367-.277-.247-.277-.247" transform="translate(-263.104 -236.022)" fill="#ea9f6c"/>
              <path id="Trazado_1002660" data-name="Trazado 1002660" d="M652.51,480.706l-35.333,5.078,8.173,42.647,30.771-1.555Z" transform="translate(-264.173 -205.759)" fill="#919191"/>
              <path id="Trazado_1002661" data-name="Trazado 1002661" d="M622.833,479.623l26.567-6.864,6.876,42.144,1.286,10.845-28.587,1.2Z" transform="translate(-266.594 -202.357)" fill="#e0e0e0"/>
              <path id="Trazado_1002662" data-name="Trazado 1002662" d="M617.02,477.618l25.495-7.159,7.774,32.355-25.535,8.433Z" transform="translate(-264.106 -201.373)" fill="#fff"/>
              <path id="Trazado_1002663" data-name="Trazado 1002663" d="M624.741,547.119a9.579,9.579,0,0,0-4.116-.678c-2.831,0-3.369.628-4.067,1.116a11.942,11.942,0,0,0-2.352,1.993,2.172,2.172,0,0,0,.279,1.356,14.142,14.142,0,0,1,2.352-1.316c.279.04-1.8,1.223-2.153,1.555a1.479,1.479,0,0,0-.49,1.595c.122.471.769.678.769,1.236s-.359,1.261-.04,1.953a3.259,3.259,0,0,0,1.087,1.057c.4.279.156,1.161.308,1.5.34.737.838.957,1.875,1.044.53.044.278.59.478,1.148s.837,1.2,2.391.638a20.775,20.775,0,0,0,6.659-3.828c1.873-1.834-2.981-10.366-2.981-10.366" transform="translate(-262.869 -233.896)" fill="#fcc397"/>
              <path id="Trazado_1002664" data-name="Trazado 1002664" d="M667.815,514.593s.279,1.834-1.117,2.233-2.791,7.575-2.791,7.575-4.864,3.669-6.738,3.669-2.631-.4-4.744-.2-5.621.957-5.621.957-3.78-4.027-1.547-8.094c-.279-.6,4.815-1.4,5.732-1.714a28.833,28.833,0,0,0,3.987-2.751c1.076-.758,1.436-1.4,2.553-1.675s8.173.279,10.286,0" transform="translate(-275.89 -220.229)" fill="#fcc397"/>
              <path id="Trazado_1002665" data-name="Trazado 1002665" d="M667.553,515.933s3.618.508,4.785.688a1.212,1.212,0,0,1,.718,1.973c-.419.539-.479.539-.3,1.107s.747,1.465.388,1.944-.359.449-.18.748a7.628,7.628,0,0,1,.354,1.555s2.751-1.308,3.2-1.405c1.256-.269,1.644-1.615,1.076-2.154s-.6-.3-.12-.448a1.427,1.427,0,0,0,1.077-1.316,1.333,1.333,0,0,0-.6-1.345,34.825,34.825,0,0,0-4.245-.628c-1.137-.18-6.13-1.077-6.161-.718" transform="translate(-285.736 -220.801)" fill="#ea9f6c"/>
              <path id="Trazado_1002666" data-name="Trazado 1002666" d="M631.955,537.023c-.589-.148-1.675,1.595-1.355,3.668a16.582,16.582,0,0,0,2.472,6.14,1.721,1.721,0,0,0,2.711.558,9.711,9.711,0,0,1,2.552-1.436c.717-.079.478.957,2.153.559s12.52-3.668,15.312-4.626,12.04-4.944,14.113-5.9,4.425-2.312,4.925-5.184-3.241-9.188-8.871-7.334c-5.742,1.891-13.277,5.979-16.866,8.132s-7.974,3.269-9.649,3.828a5.315,5.315,0,0,0-3.11,2.153c-.239.638-3.428-.319-4.386-.558" transform="translate(-269.894 -223.92)" fill="#3870c1"/>
              <path id="Trazado_1002667" data-name="Trazado 1002667" d="M595.185,527.293a6.28,6.28,0,0,1,5.076-3.416,24.146,24.146,0,0,1,7.04.239,36.375,36.375,0,0,0,9.406.73,19.5,19.5,0,0,1,4.127,0c.538-.072,4.97-1.046,4.97-1.046s-2.765,2.413,1.124,8.639c-1.652.543-5.734,1.665-5.734,1.665s.059,1.017-.718,1.2-11.232,2.687-17.634,1.64c-2.63-.431-5.709-.549-7.2-1.206s-1.829-5.81-.454-8.442" transform="translate(-254.388 -224.17)" fill="#3870c1"/>
              <path id="Trazado_1002668" data-name="Trazado 1002668" d="M683.691,514.615l-2.079.094a.382.382,0,0,0,.036.337,4.055,4.055,0,0,0,1.873,0c.165-.115.17-.428.17-.428" transform="translate(-291.743 -220.273)" fill="#e26954"/>
              <path id="Trazado_1002669" data-name="Trazado 1002669" d="M678.483,441.913c-1.646,2.834-3.569,5.025-4.069,10.466s2.035,7.632,2.035,7.632-3.453-1.738-3.031-7.934a16.019,16.019,0,0,1,5.066-10.164" transform="translate(-288.231 -189.154)" fill="#843e09"/>
              <path id="Trazado_1002670" data-name="Trazado 1002670" d="M691.821,464.414s-2.059-1.7-1.077-3.363,2.923-4.168,3.9-5.891c.568-1,.029-2.727-1.181-1.437a24.6,24.6,0,0,0-3.612,5.507c-.7,1.869-1.435,4.275,1.965,5.184" transform="translate(-295.029 -194.013)" fill="#663412"/>
              <path id="Trazado_1002671" data-name="Trazado 1002671" d="M680,424.308s7.582,2.943,8.752,9.288c1.094,5.929-1.733,10.069-6.107,13.427s-.639,6.49-.639,6.49-11.12-4.582-3.5-14.816c7.255-9.738,1.491-14.389,1.491-14.389" transform="translate(-289.283 -181.619)" fill="#843e09"/>
              <path id="Trazado_1002672" data-name="Trazado 1002672" d="M659.164,374.936c-8.861-7.545-18.963-4.593-21.484-3.6C633.7,372.9,635,377.218,635,377.218a5.3,5.3,0,0,1,5.385-3.24c4.379.446,10.052,3.244,15.541,8.9a19.957,19.957,0,0,1,3.718,5.7,1.6,1.6,0,0,1,.562.019c1.4.306,2.115,2.464,1.6,4.82a7.148,7.148,0,0,1-.233.828c.235.956.385,1.733.47,2.223,3.842-6.437,1.131-18.122-2.872-21.529" transform="translate(-271.714 -158.343)" fill="#843e09"/>
              <path id="Trazado_1002673" data-name="Trazado 1002673" d="M650.475,428.466c-1.466-.78-2.32.852-4.666.861.009.079,1.382.4,4.811.06a13.03,13.03,0,0,0,4.571-1.119c-2.289.295-3.584-.766-4.716.2" transform="translate(-276.429 -183.221)" fill="#ef4141"/>
              <path id="Trazado_1002674" data-name="Trazado 1002674" d="M85.706,529.532a60.2,60.2,0,1,0,60.2-60.2,60.2,60.2,0,0,0-60.2,60.2" transform="translate(-36.685 -200.891)" fill="#95ebba"/>
              <path id="Trazado_1002675" data-name="Trazado 1002675" d="M194.692,535.874c-2.376-.944-4.533-3.26-5-4.984l-.145-6.573c-1.447,1.032-2.817,1.728-4.46,2.783a15.5,15.5,0,0,1-4.751-.03,42.673,42.673,0,0,1-7.752-5.423l-.288,9.425c-.614,1.656-2.863,3.776-5.2,4.735l14.05,3.617Z" transform="translate(-71.519 -223.283)" fill="#fcc397"/>
              <path id="Trazado_1002676" data-name="Trazado 1002676" d="M191.453,587.437a2.311,2.311,0,0,1,1.67.4v-34.61H171.311v37.223c4.7-.511,10.488-1.531,20.142-3.012" transform="translate(-73.327 -236.799)" fill="#e5e5e5"/>
              <path id="Trazado_1002677" data-name="Trazado 1002677" d="M198.047,552.117a8.6,8.6,0,0,0-8.057-5.6l-12.983-1.513a24.879,24.879,0,0,1-2.754-.772l-10.3,40.071-.911.144-10.555-41.466a11.2,11.2,0,0,1-3.08,1.956l-12.87,1.581a8.591,8.591,0,0,0-7.9,5.22c-2.7,5.273-3.435,24.216-2.431,34.747.506,6.451,2.861,13.848,9.239,15.124a30.932,30.932,0,0,0,4.45.5c-.345,15.273-.277,12.842-.364,14.376A60.346,60.346,0,0,0,187,616.3l-.209-12.985c4.986-.629,8.829-1.722,9.7-3.345,4.159-7.774,4.593-41.818,1.557-47.853" transform="translate(-53.835 -232.416)" fill="#333"/>
              <path id="Trazado_1002678" data-name="Trazado 1002678" d="M226.565,583.636s-1.791,11.046-2.537,17.464a30.828,30.828,0,0,1-3.583,1.343s2.612-5.821,6.12-18.807" transform="translate(-94.358 -249.816)" fill="#161616"/>
              <path id="Trazado_1002679" data-name="Trazado 1002679" d="M164,652.435l-2.172.027a10.488,10.488,0,0,1,.233,2.065,10.339,10.339,0,0,1-1.617,5.689,10.45,10.45,0,0,1-5.428,4.286c.6.218,1.8.634,2.962.987A12.526,12.526,0,0,0,164,652.435" transform="translate(-66.353 -279.265)" fill="#515151"/>
              <path id="Trazado_1002680" data-name="Trazado 1002680" d="M184.432,525.533a46.526,46.526,0,0,1-8-3.436v4.224c1.3.828,3.241,2.1,4.59,2.936a5.676,5.676,0,0,0,1.949.546h4.963a5.282,5.282,0,0,0,1.956-.534c1.088-.721,2.338-1.729,3.695-2.625V521.99a59.924,59.924,0,0,1-9.157,3.543" transform="translate(-75.521 -223.43)" fill="#ea9f6c"/>
              <path id="Trazado_1002681" data-name="Trazado 1002681" d="M193.964,475.357a1.915,1.915,0,0,0-1.379.092c.183-5.337.134-10.122-.544-11.185-3.757-5.894-8.17-8.456-14.667-8.7h0c-6.5.245-10.422,2.808-14.178,8.7-.695,1.091-.813,6.089-.71,11.584a2.249,2.249,0,0,0-2.056-.5c-1.433.483-1.937,2.83-1.123,5.241.7,2.081,2.153,3.528,3.458,3.577.12,2.642.25,4.956.34,6.471a4.566,4.566,0,0,0,1.444,2.776c3.665,2.515,6.236,4.284,8.506,5.628a4.258,4.258,0,0,0,1.565.443h5.262a6.444,6.444,0,0,0,1.79-.49c2.248-1.317,4.787-3.082,8.383-5.5a4.76,4.76,0,0,0,1.624-2.781c.121-1.532.3-3.916.472-6.644a5.325,5.325,0,0,0,2.923-3.469c.821-2.409.325-4.759-1.106-5.247" transform="translate(-68.021 -194.996)" fill="#fcc397"/>
              <path id="Trazado_1002682" data-name="Trazado 1002682" d="M197.4,485.711c.474-.188,6.163-1.628,7.445,1.413,1.075,2.554-1.167-.149-2.862-.348a24.3,24.3,0,0,0-4.385-.222c-.692.014-.842-.588-.2-.843" transform="translate(-84.318 -207.685)" fill="#875d41"/>
              <path id="Trazado_1002683" data-name="Trazado 1002683" d="M177.928,486.048c-.45-.2-5.939-1.561-7.256,1.145-1.2,2.467,1.143-.107,2.79-.246a36.8,36.8,0,0,1,4.239-.061c.671,0,.838-.558.227-.838" transform="translate(-72.913 -207.823)" fill="#875d41"/>
              <path id="Trazado_1002684" data-name="Trazado 1002684" d="M179.451,492.762a9.547,9.547,0,0,1-3.5.655c-1.408,0-2.693-.474-2.693-1.368s1.267-1.534,2.7-1.534a4.843,4.843,0,0,1,3.493,2.246" transform="translate(-74.161 -209.958)" fill="#fff"/>
              <path id="Trazado_1002685" data-name="Trazado 1002685" d="M178.439,492a1.361,1.361,0,1,1-1.358-1.434A1.4,1.4,0,0,1,178.439,492" transform="translate(-75.215 -209.979)" fill="#7b9368"/>
              <path id="Trazado_1002686" data-name="Trazado 1002686" d="M178.386,492.4a.872.872,0,1,1-.87-.92.9.9,0,0,1,.87.92" transform="translate(-75.61 -210.371)"/>
              <path id="Trazado_1002687" data-name="Trazado 1002687" d="M179.87,492.867a.452.452,0,1,1-.438-.338.4.4,0,0,1,.438.338" transform="translate(-76.616 -210.819)" fill="#fff"/>
              <path id="Trazado_1002688" data-name="Trazado 1002688" d="M179.289,492.763a4.385,4.385,0,0,0-2.469-1.4c-1.412-.427-3.531.192-3.57,1.2-.591-.429-.609-1.223.9-1.785a4.119,4.119,0,0,1,4.946,1.6,1.269,1.269,0,0,1,.193.4" transform="translate(-73.997 -209.949)" fill="#ea9f6c"/>
              <path id="Trazado_1002689" data-name="Trazado 1002689" d="M197.508,492.762a8.4,8.4,0,0,0,3.448.645c1.41-.035,2.7-.392,2.7-1.286s-1.223-1.6-2.652-1.6a4.846,4.846,0,0,0-3.493,2.246" transform="translate(-84.54 -209.958)" fill="#fff"/>
              <path id="Trazado_1002690" data-name="Trazado 1002690" d="M201.089,491.936a1.361,1.361,0,1,0,1.358-1.435,1.4,1.4,0,0,0-1.358,1.435" transform="translate(-86.073 -209.952)" fill="#7b9368"/>
              <path id="Trazado_1002691" data-name="Trazado 1002691" d="M201.934,492.334a.873.873,0,1,0,.871-.92.9.9,0,0,0-.871.92" transform="translate(-86.435 -210.342)"/>
              <path id="Trazado_1002692" data-name="Trazado 1002692" d="M204.309,492.6a.451.451,0,1,0,.438-.34.4.4,0,0,0-.438.34" transform="translate(-87.451 -210.706)" fill="#fff"/>
              <path id="Trazado_1002693" data-name="Trazado 1002693" d="M197.5,492.74a4.392,4.392,0,0,1,2.469-1.4c1.413-.427,3.531.192,3.572,1.2.589-.429.532-1.262-.977-1.824a4.039,4.039,0,0,0-4.87,1.634,1.283,1.283,0,0,0-.194.4" transform="translate(-84.538 -209.926)" fill="#ea9f6c"/>
              <path id="Trazado_1002694" data-name="Trazado 1002694" d="M189.59,507.238h-2.266a1.784,1.784,0,0,1-1.647-1.258,2.127,2.127,0,0,0-.122.706c0,1.084,1.323,1.435,2.3,1.435h1.2c.975,0,2.3-.35,2.3-1.435a2.113,2.113,0,0,0-.123-.706,1.786,1.786,0,0,1-1.646,1.258" transform="translate(-79.424 -216.577)" fill="#ea9f6c"/>
              <path id="Trazado_1002695" data-name="Trazado 1002695" d="M159.844,492.547c-.016-.194.366-1.067.84-.916.724.228,1.184,1.642,1.49,3.055s.161,2.442,0,2.063a20.5,20.5,0,0,0-1.3-3.857c-.573-1.071-.917,1.185-1.031-.344" transform="translate(-68.418 -210.428)" fill="#ea9f6c"/>
              <path id="Trazado_1002696" data-name="Trazado 1002696" d="M220.053,492.547c.015-.194-.365-1.067-.84-.916-.726.228-1.183,1.642-1.489,3.055s-.163,2.442,0,2.063a20.342,20.342,0,0,1,1.3-3.857c.573-1.071.917,1.185,1.031-.344" transform="translate(-93.117 -210.428)" fill="#ea9f6c"/>
              <path id="Trazado_1002697" data-name="Trazado 1002697" d="M190.571,454.943c-2.441-4.271-16.348-2.444-20.781-1.222s-7.334,3.666-7.18,7.487c.133,3.3.15,10.712.153,12.659a2.618,2.618,0,0,1,1.119.45l.867,4,.916-6.264s-1.833-12.223,10.084-10.085a30.344,30.344,0,0,0-4.736,4.126s7.029-1.682,9.778-2.751,0,2.292,0,2.292,5.348-1.986,7.029-2.6,3.36-.154,3.667,2.75,1.069,13.9,1.069,13.9l1.92-5.759a2.193,2.193,0,0,1,.446-.074c.062-1.163.138-2.609.233-4.4.916-17.418-2.751-11.305-4.584-14.515" transform="translate(-69.6 -193.586)" fill="#875d41"/>
              <path id="Trazado_1002698" data-name="Trazado 1002698" d="M183.64,516.83c.1.536.961,1.823,1.463,1.823h5.02c.5,0,1.364-1.288,1.463-1.823Z" transform="translate(-78.604 -221.221)" fill="#ea8c63"/>
              <path id="Trazado_1002699" data-name="Trazado 1002699" d="M189.238,516.448c-1.064-.13-4.573-.074-5.119-.048-1.4.064-2.216-.717-2.165-.868.081-.241.263-.186.418.05.144.213,1.061.141,1.518.044,2.314-.5,1.719.059,2.849.078,1.061.017.7-.518,2.7-.065a4.442,4.442,0,0,0,1.954.214c.233-.117.414-.245.476,0s-.935.8-2.636.595" transform="translate(-77.882 -220.599)" fill="#d87350"/>
              <g id="Grupo_1179198" data-name="Grupo 1179198" transform="translate(96.956 278.716)" opacity="0.4">
                <g id="Grupo_1179197" data-name="Grupo 1179197">
                  <g id="Grupo_1179196" data-name="Grupo 1179196" clip-path="url(#clip-path-4)">
                    <path id="Rectángulo_456295" data-name="Rectángulo 456295" d="M3.508,0H6.716a3.509,3.509,0,0,1,3.509,3.509v0A3.507,3.507,0,0,1,6.718,7.016H3.508A3.508,3.508,0,0,1,0,3.508v0A3.508,3.508,0,0,1,3.508,0Z" transform="translate(0 0)" fill="#fff"/>
                  </g>
                </g>
              </g>
              <g id="Grupo_1179201" data-name="Grupo 1179201" transform="translate(110.688 278.716)" opacity="0.4">
                <g id="Grupo_1179200" data-name="Grupo 1179200">
                  <g id="Grupo_1179199" data-name="Grupo 1179199" clip-path="url(#clip-path-5)">
                    <path id="Rectángulo_456297" data-name="Rectángulo 456297" d="M3.508,0H6.716a3.508,3.508,0,0,1,3.508,3.508v0A3.507,3.507,0,0,1,6.717,7.016H3.507A3.507,3.507,0,0,1,0,3.508v0A3.508,3.508,0,0,1,3.508,0Z" transform="translate(0 0)" fill="#fff"/>
                  </g>
                </g>
              </g>
              <path id="Trazado_1002700" data-name="Trazado 1002700" d="M195.049,487.781l-4.442.1a2.376,2.376,0,0,0-2.056-1.193h-6.019a2.388,2.388,0,0,0-2.388,2.388v.423a17.082,17.082,0,0,0-2.936,0v-.427a2.388,2.388,0,0,0-2.389-2.388H168.8a2.379,2.379,0,0,0-2.084,1.242l-3.858-.1v.77l3.554,1.427v1.933a2.388,2.388,0,0,0,2.388,2.387h6.019a2.388,2.388,0,0,0,2.389-2.387v-1.429a17.8,17.8,0,0,1,2.936-.006v1.435a2.388,2.388,0,0,0,2.388,2.387h6.019a2.388,2.388,0,0,0,2.389-2.387v-1.985l4.11-1.424ZM176.436,491.7a2.046,2.046,0,0,1-2.047,2.047h-5.16a2.047,2.047,0,0,1-2.047-2.047v-2.473a2.047,2.047,0,0,1,2.047-2.047h5.16a2.046,2.046,0,0,1,2.047,2.047Zm13.732,0a2.047,2.047,0,0,1-2.046,2.047h-5.161a2.047,2.047,0,0,1-2.047-2.047v-1.146c0-.01,0-.019,0-.03s0-.026,0-.04v-1.257a2.047,2.047,0,0,1,2.047-2.047h5.161a2.047,2.047,0,0,1,2.046,2.047Z" transform="translate(-69.708 -208.319)" fill="#212121"/>
              <path id="Trazado_1002701" data-name="Trazado 1002701" d="M153.638,583.9s.746,9.105,1.044,11.046,1.344,8.956,1.344,8.956l6.12-.3s-5.522-6.121-8.508-19.7" transform="translate(-65.762 -249.928)" fill="#161616"/>
              <path id="Trazado_1002702" data-name="Trazado 1002702" d="M188.112,588.088l.8-.126,3.053-11.991-2.1-16.638,2.54-3.674-1.485-4.032-5.176-.145-1.343,4.393,2.348,3.386-2.4,14.039Z" transform="translate(-78.907 -236.053)" fill="#5fa6b2"/>
              <path id="Trazado_1002703" data-name="Trazado 1002703" d="M197.842,584.151l8.87-16.542-1.141-5.7,5.56-1-.926-14.669-4.329-.625a10.32,10.32,0,0,1-1.839-1l-2.26,3.245-9.46,37.165c1.68-.266,3.512-.555,5.525-.869" transform="translate(-82.318 -233.112)" fill="#515151"/>
              <path id="Trazado_1002704" data-name="Trazado 1002704" d="M163.082,567.481l9.565,18.379c1.366-.209,2.847-.441,4.47-.7l-9.528-37.435-2.268-3.082a10.31,10.31,0,0,1-1.839,1.005l-4.052.5-.768,14.633,5.561,1Z" transform="translate(-67.912 -233.127)" fill="#515151"/>
              <path id="Trazado_1002705" data-name="Trazado 1002705" d="M149.005,607.6l2.452,2.158a65.6,65.6,0,0,0,14.76-.9c-2.426-2.878-2.7-3.3-3.188-3.635l-7.615-6.7c-.951-.836-2.125-1.058-2.621-.494s-.128,1.7.824,2.537l6.041,5.316-.133.112-6.583-5.791c-.952-.837-2.124-1.056-2.622-.495s-.128,1.7.822,2.537l6.278,5.523-.115.1-6.285-5.531c-.894-.786-2-.994-2.462-.462s-.122,1.6.772,2.382l6,5.278-.129.108-4.5-3.961c-.894-.786-2-.994-2.462-.461s-.122,1.6.772,2.381" transform="translate(-63.359 -255.844)" fill="#fcc397"/>
              <path id="Trazado_1002706" data-name="Trazado 1002706" d="M167.166,645.016a118.568,118.568,0,0,1-16.922.757V651.4l14.031-3.284,32.988,3.284v-4.416c-11.024,1.389-27.637.505-30.1-1.972" transform="translate(-64.31 -276.089)" fill="#161616"/>
              <path id="Trazado_1002707" data-name="Trazado 1002707" d="M215.587,660.719a10.342,10.342,0,0,1-1.688-5.669c0-.238.019-.471.035-.706l-2.135-.213c-.022.3-.038.609-.038.919a12.537,12.537,0,0,0,6.412,10.941c1.228-.391,2.092-.7,2.963-1.032a10.442,10.442,0,0,1-5.547-4.24" transform="translate(-90.641 -279.991)" fill="#515151"/>
              <path id="Trazado_1002708" data-name="Trazado 1002708" d="M170.208,639.222s16.68-1.381,23.509-4.254c.8-.337.559-3.433.559-4.814.523,1.6,1.467,5.563.336,6.418-2.94,2.227-16.829,3.358-24.405,2.65" transform="translate(-72.855 -269.728)" fill="#161616"/>
              <rect id="Rectángulo_456299" data-name="Rectángulo 456299" width="2.837" height="9.935" transform="matrix(0.938, -0.348, 0.348, 0.938, 117.94, 351.073)" fill="#fff"/>
              <path id="Trazado_1002709" data-name="Trazado 1002709" d="M220.151,613.484l-7.739-.586a2.379,2.379,0,0,0-1.125.2l3.2,8.64c2.994-1.221,4.282-2.176,4.771-3.785a44.96,44.96,0,0,0,.9-4.465l-.014,0" transform="translate(-90.438 -262.339)" fill="#fcc397"/>
              <path id="Trazado_1002710" data-name="Trazado 1002710" d="M190.055,651.749V667.8c.172,0,.343.007.515.007l.181,0v-16.06Z" transform="translate(-81.35 -278.971)" fill="#161616"/>
              <path id="Trazado_1002711" data-name="Trazado 1002711" d="M196.58,665.245a1.393,1.393,0,1,1-1.393-1.393,1.393,1.393,0,0,1,1.393,1.393" transform="translate(-82.951 -284.152)" fill="#515151"/>
              <path id="Trazado_1002712" data-name="Trazado 1002712" d="M197.064,666.125a.218.218,0,1,1-.218-.219.218.218,0,0,1,.218.219" transform="translate(-84.163 -285.031)" fill="#333"/>
              <path id="Trazado_1002713" data-name="Trazado 1002713" d="M195.5,666.125a.218.218,0,1,1-.218-.219.218.218,0,0,1,.218.219" transform="translate(-83.496 -285.031)" fill="#333"/>
              <path id="Trazado_1002714" data-name="Trazado 1002714" d="M172.516,537.711l9.124,7.841-6.7,6.7-6.558-10.123Z" transform="translate(-72.073 -230.159)" fill="#fff"/>
              <path id="Trazado_1002715" data-name="Trazado 1002715" d="M200.687,537.711l-9.125,7.841,6.7,6.7,6.559-10.123Z" transform="translate(-81.995 -230.159)" fill="#fff"/>
              <path id="Trazado_1002716" data-name="Trazado 1002716" d="M122.868,161.72a61.434,61.434,0,1,1-61.434-61.434,61.434,61.434,0,0,1,61.434,61.434" transform="translate(0 -42.926)" fill="#0e5a52"/>
              <path id="Trazado_1002717" data-name="Trazado 1002717" d="M113.41,105.12c0,11.451-8.892,20.792-19.86,20.733-14-.075-19.859-9.282-19.859-20.733S82.582,84.387,93.55,84.387s19.86,9.282,19.86,20.733" transform="translate(-31.542 -36.121)" fill="#684528"/>
              <path id="Trazado_1002718" data-name="Trazado 1002718" d="M96.147,155.793v3.471a37.527,37.527,0,0,0,5.608,3.223,1.85,1.85,0,0,0,1.473.054,44.312,44.312,0,0,0,6.457-3.332v-3.416Z" transform="translate(-41.154 -66.685)" fill="#ea9f6c"/>
              <path id="Trazado_1002719" data-name="Trazado 1002719" d="M110.665,111.572a1.852,1.852,0,0,0-1.38.117c.486-4.639.759-9.314.053-10.421a18.572,18.572,0,0,0-14.829-8.559h0a18.573,18.573,0,0,0-14.829,8.559c-.7,1.1-.438,5.689.039,10.282a1.71,1.71,0,0,0-.986.017c-1.365.459-1.845,2.7-1.071,4.992.637,1.888,1.921,3.228,3.117,3.391.188,1.3.317,2.117.317,2.117,2.809,7.45,10.227,11.115,12.641,12.132a1.939,1.939,0,0,0,1.474.029c2.336-.973,9.874-4.636,12.711-12.161,0,0,.129-.813.316-2.11,1.286.09,2.774-1.317,3.481-3.39.781-2.294.309-4.531-1.054-4.994" transform="translate(-33.083 -39.683)" fill="#fcc397"/>
              <path id="Trazado_1002720" data-name="Trazado 1002720" d="M113.96,121.5c.4-.277,3.655-2.834,7.207-.328,2.156,1.52-1.114-.754-2.729-.565a9.113,9.113,0,0,0-4.109,1.63c-.542.378-.909-.359-.369-.737" transform="translate(-48.665 -51.397)" fill="#684528"/>
              <path id="Trazado_1002721" data-name="Trazado 1002721" d="M95.113,121.534a5.659,5.659,0,0,0-6.988-.25c-2.1,1.545,1.086-.765,2.651-.6a8.53,8.53,0,0,1,3.972,1.586c.52.372.884-.369.364-.741" transform="translate(-37.422 -51.431)" fill="#684528"/>
              <path id="Trazado_1002722" data-name="Trazado 1002722" d="M105.31,176.847a8.169,8.169,0,0,0-6.39-4.263L88.9,171.07c-3.055-1.052-5.892-4.293-5.892-6.252,0-.062-.021-5.446-.021-5.446a48.236,48.236,0,0,1-7.163,2.8,38.679,38.679,0,0,1-6.375-2.753s-.021,5.293-.021,5.355c0,2-3.36,5.321-6.609,6.307l-9.973,1.507c-2.032,0-5.741,2.433-6.994,5.64-1.943,4.36-4.889,13.077-12.077,30.439.471,6.061,6.858,10.035,10.48,6.094,3.063-3.333,7.682-15.978,10.225-23.412H98.848c3.817,6.427,9.5,16.712,9.57,21.044.054,3.55,9.739,5.79,9.521-3.288-.192-8.009-9.047-26.3-12.629-32.254" transform="translate(-14.458 -68.217)" fill="#fcc397"/>
              <path id="Trazado_1002723" data-name="Trazado 1002723" d="M96.923,128.157a13.188,13.188,0,0,1-3.318.968c-1.361.055-2.475-.716-2.475-1.567s1.1-1.541,2.466-1.541a4.615,4.615,0,0,1,3.327,2.139" transform="translate(-39.007 -53.94)" fill="#fff"/>
              <path id="Trazado_1002724" data-name="Trazado 1002724" d="M95.621,127.651a1.438,1.438,0,1,1-1.436-1.516,1.477,1.477,0,0,1,1.436,1.516" transform="translate(-39.7 -53.99)" fill="#7b9368"/>
              <path id="Trazado_1002725" data-name="Trazado 1002725" d="M95.588,127.751a.975.975,0,1,1-.973-1.027,1,1,0,0,1,.973,1.027" transform="translate(-40.082 -54.242)"/>
              <path id="Trazado_1002726" data-name="Trazado 1002726" d="M96.631,128.016a.478.478,0,1,1-.463-.359.42.42,0,0,1,.463.359" transform="translate(-40.965 -54.642)" fill="#fff"/>
              <path id="Trazado_1002727" data-name="Trazado 1002727" d="M95.672,127.765c-1.118-1.994-3.629-2.072-5.262-1.465-1.437.534-1.716.253-1.774.181a3.278,3.278,0,0,0,2.3,2.257,1.7,1.7,0,0,1-.816-.879c.151-.9,2.082-1.448,3.384-1.055a4.184,4.184,0,0,1,2.352,1.338,1.585,1.585,0,0,0-.185-.378" transform="translate(-37.939 -53.918)"/>
              <path id="Trazado_1002728" data-name="Trazado 1002728" d="M113.774,128.157a13.534,13.534,0,0,0,3.367.968c1.38.055,2.509-.716,2.509-1.567s-1.12-1.541-2.5-1.541a4.684,4.684,0,0,0-3.374,2.139" transform="translate(-48.699 -53.94)" fill="#fff"/>
              <path id="Trazado_1002729" data-name="Trazado 1002729" d="M117.313,127.651a1.458,1.458,0,1,0,1.456-1.516,1.486,1.486,0,0,0-1.456,1.516" transform="translate(-50.214 -53.99)" fill="#7b9368"/>
              <path id="Trazado_1002730" data-name="Trazado 1002730" d="M118.049,127.751a.988.988,0,1,0,.987-1.027,1.008,1.008,0,0,0-.987,1.027" transform="translate(-50.529 -54.242)"/>
              <path id="Trazado_1002731" data-name="Trazado 1002731" d="M120.427,128.154a.486.486,0,1,0,.469-.36.424.424,0,0,0-.469.36" transform="translate(-51.547 -54.7)" fill="#fff"/>
              <path id="Trazado_1002732" data-name="Trazado 1002732" d="M121.1,126.482c-.059.071-.342.353-1.8-.181-1.658-.608-4.2-.53-5.338,1.464a1.518,1.518,0,0,0-.189.378,4.258,4.258,0,0,1,2.386-1.338c1.321-.393,3.279.15,3.434,1.053a1.7,1.7,0,0,1-.826.88c.944-.342,2.292-1.262,2.332-2.257" transform="translate(-48.698 -53.918)"/>
              <path id="Trazado_1002733" data-name="Trazado 1002733" d="M113.41,102.245c0-9.861-8.892-17.859-19.86-17.859s-19.859,8-19.859,17.859a19.2,19.2,0,0,0,2.078,9.071c-.128-1.622.4-2.967,1.422-3.312a1.628,1.628,0,0,1,.718-.067c.531,2.072,1.091,3.505,1.091,2.347,0-1.365.275-3.876.5-5.723A27.582,27.582,0,0,1,93.55,95.845a23.994,23.994,0,0,1,13.568,9.249c.2,1.761.408,3.9.408,5.117,0,1.144.519-.244,1.018-2.278a1.589,1.589,0,0,1,.58.076c1.071.364,1.588,1.825,1.383,3.547a16.515,16.515,0,0,0,2.9-9.311" transform="translate(-31.542 -36.12)" fill="#7c5732"/>
              <path id="Trazado_1002734" data-name="Trazado 1002734" d="M106.541,141.437h-1.86a1.46,1.46,0,0,1-1.35-1.033,1.748,1.748,0,0,0-.1.58c0,.892,1.086,1.178,1.889,1.178h.987c.8,0,1.887-.286,1.887-1.178a1.792,1.792,0,0,0-.1-.58,1.464,1.464,0,0,1-1.351,1.033" transform="translate(-44.186 -60.098)" fill="#ea9f6c"/>
              <path id="Trazado_1002735" data-name="Trazado 1002735" d="M78.173,127.952c-.013-.186.349-1.016.8-.874.691.218,1.127,1.564,1.419,2.91s.154,2.326,0,1.964a19.58,19.58,0,0,0-1.237-3.674c-.545-1.018-.873,1.129-.983-.325" transform="translate(-33.46 -54.387)" fill="#ea9f6c"/>
              <path id="Trazado_1002736" data-name="Trazado 1002736" d="M135.506,127.952c.014-.186-.349-1.016-.8-.874-.693.218-1.128,1.564-1.42,2.91s-.154,2.326,0,1.964a19.582,19.582,0,0,1,1.237-3.674c.545-1.018.873,1.129.983-.325" transform="translate(-56.978 -54.387)" fill="#ea9f6c"/>
              <path id="Trazado_1002737" data-name="Trazado 1002737" d="M92.817,137.44c-.362,1.15-2.153,1.609-4,1.027s-3.049-1.985-2.687-3.135,2.152-1.609,4-1.027,3.048,1.985,2.686,3.134" transform="translate(-36.84 -57.379)" fill="#ffb18a"/>
              <path id="Trazado_1002738" data-name="Trazado 1002738" d="M116.656,137.44c.363,1.15,2.153,1.609,4,1.027s3.05-1.985,2.687-3.135-2.153-1.609-4-1.027-3.049,1.985-2.687,3.134" transform="translate(-49.905 -57.379)" fill="#ffb18a"/>
              <path id="Trazado_1002739" data-name="Trazado 1002739" d="M112.217,181.516l-8.439-1.275c.5,8.9-29.8,8.017-29.359.026l-8.273,1.25c2.058,8.94.279,19.915.514,20.274a10.454,10.454,0,0,0,5.876,13.29,56.27,56.27,0,0,1,1.473,7.082,74.776,74.776,0,0,1,.837,13.849,26.126,26.126,0,0,0-7.088,8.213,27.075,27.075,0,0,0-2.915,8.137,61.579,61.579,0,0,0,49.333-.28,27.088,27.088,0,0,0-2.97-8.046,26.1,26.1,0,0,0-7.154-8.152,75.245,75.245,0,0,1,.843-13.721,56.578,56.578,0,0,1,1.426-6.924,10.452,10.452,0,0,0,5.742-13.18c.2-.306-1.621-14.108.154-20.542" transform="translate(-27.755 -77.149)" fill="#848484"/>
              <path id="Trazado_1002740" data-name="Trazado 1002740" d="M98.836,148.232c-.553-.232-.641-.131-.71-.053-.09.112-.124.1.234.585l.77,1.02s1.551,2.919,4.463,2.791a5.065,5.065,0,0,0,4.338-2.972c.129-.275.443-.7.53-.858.283-.508.237-.522.165-.6-.2-.213-.22-.1-.58.085a20.842,20.842,0,0,1-4.744.415,20.51,20.51,0,0,1-4.467-.417" transform="translate(-41.975 -63.363)" fill="#c6523c"/>
              <path id="Trazado_1002741" data-name="Trazado 1002741" d="M107.057,150.2c.694-.216.908-.828,1.084-1.6a23.1,23.1,0,0,1-4.182.237,34.673,34.673,0,0,1-3.623-.249c.185.874.337.972,1.066,1.34-.576.033-.685.578-.607,1.216a5.949,5.949,0,0,0,3.637,1.453c1.826-.058,2.947-.592,3.556-1.449-.151-.4-.436-.929-.93-.948" transform="translate(-42.947 -63.6)" fill="#fff"/>
              <path id="Trazado_1002742" data-name="Trazado 1002742" d="M99.65,148.259s.187.788,4.075.757c3.854-.029,4.656-.724,4.656-.724s-2.91-.34-4.492-.313c-1.46.026-4.238.28-4.238.28" transform="translate(-42.654 -63.339)" fill="#fc7365"/>
              <path id="Trazado_1002743" data-name="Trazado 1002743" d="M99.042,149.866a4.728,4.728,0,0,0,4.558,3.8c3.647.116,5.038-3.814,5.038-3.814a5.97,5.97,0,0,1-4.774,2.226,5.487,5.487,0,0,1-4.822-2.211" transform="translate(-42.393 -64.141)" fill="#fc7365"/>
              <path id="Trazado_1002744" data-name="Trazado 1002744" d="M47.736,213.034c-.378-.024-4.574-.367-4.744.365-.049.207-.09,1.23-.09,1.279-.281-.018-.551-.034-.759-.041-.675-.025-2.235-.093-2.005,1.1.006.033.063.29.088.391a12.383,12.383,0,0,0-2.26,1.433c-.272.348-.158.54.085,1.177.622,1.623,1.583,3.688,1.9,4.362l-4.9,6.187.064-.015a3.943,3.943,0,0,0-.251.5c-.993,2.433-.682,6.007,1.3,9.136,1.676,2.645,3.575,2.828,6.112.035a90.169,90.169,0,0,0,5.708-7.37v-18.46a.514.514,0,0,0-.255-.082" transform="translate(-14.69 -91.143)" fill="#ea9f6c"/>
              <path id="Trazado_1002745" data-name="Trazado 1002745" d="M48.772,219.826a2.19,2.19,0,0,1-1.127-.774,30.017,30.017,0,0,0-1.865,2.5s-3.7.577-4.312,1.509-1.783.849-1.533,1.9a3.443,3.443,0,0,0,.366.791c.586,1.022,1.724,2.583,2.541,3.757.416.6-7.216-.5-8.78,3.325-.993,2.433-.681,6.008,1.3,9.137,1.676,2.644,4.791,2.827,7.327.034a95.214,95.214,0,0,0,6.081-7.895Z" transform="translate(-14.345 -93.762)" fill="#fcc397"/>
              <path id="Trazado_1002746" data-name="Trazado 1002746" d="M55.49,213.943c-.377-.024-4.6-.321-4.759.295a6.25,6.25,0,0,0-.081,1.549c.666.041,3.58.075,3.9.166s.915,2.143,2.734,1.24c0,0-.8-2.063-1.058-2.523s-.353-.7-.73-.726" transform="translate(-21.675 -91.535)" fill="#fcc397"/>
              <path id="Trazado_1002747" data-name="Trazado 1002747" d="M53.075,216.933c-.06-.332-.5-.553-.765-.575-.233-.02-1.044-.082-1.711-.123a8.135,8.135,0,0,0,.267,2.529.333.333,0,0,1,.16.14c.11.185.233.638.444,1.138a1.555,1.555,0,0,0,1.515.907,3.888,3.888,0,0,0,.663-.062s-.5-3.423-.573-3.953" transform="translate(-21.657 -92.556)" fill="#ea9f6c"/>
              <path id="Trazado_1002748" data-name="Trazado 1002748" d="M50.1,216.838c-.313-.026-1.627-.13-2.3-.155s-2.235-.093-2.006,1.1c.006.032.213-.035.255-.048a1.02,1.02,0,0,1,1.048.1,25.748,25.748,0,0,1,1.76,2.146l-.518-1.318s.483-.224.639.036c.11.184.233.636.444,1.137a1.741,1.741,0,0,0,1.874.969s-.4-2.824-.5-3.2-.385-.748-.7-.774" transform="translate(-19.591 -92.744)" fill="#fcc397"/>
              <path id="Trazado_1002749" data-name="Trazado 1002749" d="M51.831,224.137l-.025-.038.017.042.009,0" transform="translate(-22.175 -95.922)" fill="#ba7a4f"/>
              <path id="Trazado_1002750" data-name="Trazado 1002750" d="M45.889,217.931a1.889,1.889,0,0,0-.383.2c.133.629.642,1.907.926,2.775.08.078.361.49.689.809.627.616,2.311-.221,2.4-.258,0,0-2.262-3.124-2.582-3.424a1.019,1.019,0,0,0-1.048-.1" transform="translate(-19.478 -93.24)" fill="#ea9f6c"/>
              <path id="Trazado_1002751" data-name="Trazado 1002751" d="M41.98,221.762c-.244-.637-.357-.828-.086-1.177a12.809,12.809,0,0,1,2.494-1.539,1.022,1.022,0,0,1,1.049.1c.343.323,1.956,2.552,1.956,2.552s-1.487.645-2.135.009l-.647-.636-.39.362,1.236,2.017-1.8,1.953a32.829,32.829,0,0,1-1.674-3.644" transform="translate(-17.865 -93.717)" fill="#fcc397"/>
              <path id="Trazado_1002752" data-name="Trazado 1002752" d="M54.931,222.478,54.6,220.5a.492.492,0,0,0-.373.051c-.188.11.059,1.634.206,1.786a.8.8,0,0,0,.5.142" transform="translate(-23.182 -94.374)" fill="#e25c52"/>
              <path id="Trazado_1002753" data-name="Trazado 1002753" d="M50.732,222.692l-1.078-1.346a.422.422,0,0,0-.258.2c-.094.162.729,1.2.9,1.254a.69.69,0,0,0,.432-.1" transform="translate(-21.14 -94.744)" fill="#e25c52"/>
              <path id="Trazado_1002754" data-name="Trazado 1002754" d="M88.227,230.757H58.637a.864.864,0,0,1-.861-.861V209.2a.863.863,0,0,1,.861-.861H88.227a.864.864,0,0,1,.861.861v20.7a.864.864,0,0,1-.861.861" transform="translate(-24.73 -89.175)" fill="#565656"/>
              <path id="Trazado_1002755" data-name="Trazado 1002755" d="M99.021,226.476a1.57,1.57,0,0,0,1.231,1.344c1.12.224,4.814-.672,4.814-.672L108.115,230s2.438-.329,2.1-1.423c-1.008-.908-2.755-2.842-3.359-3.216a2.711,2.711,0,0,0-2.224-.343c-.8.224-5.613,1.456-5.613,1.456" transform="translate(-42.384 -96.272)" fill="#fcc397"/>
              <path id="Trazado_1002756" data-name="Trazado 1002756" d="M146.824,235.982c-2.876-1.175-9.542-1.006-13.143.287-6.745,2.422-15.167.067-15.167.067h0c-.093-.144-5.308-5.017-5.308-5.017l-3.213.7L106,237.839a4.711,4.711,0,0,1,1.158.61c.413.329,5.075,3.98,7.053,3.98a3.56,3.56,0,0,0,.973-.143c2.613.888,14.384,4.685,24.648,4.676,6.279-.005,6.616-1.443,8.461-3.579.959-4.17-.48-7.679-1.472-7.4" transform="translate(-45.373 -99.013)" fill="#fcc397"/>
              <path id="Trazado_1002757" data-name="Trazado 1002757" d="M98.922,227.255l2.07-.523a.527.527,0,0,1,.112.386c-.027.229-1.617.639-1.829.561s-.353-.424-.353-.424" transform="translate(-42.342 -97.049)" fill="#e26954"/>
              <path id="Trazado_1002758" data-name="Trazado 1002758" d="M104.177,238.8c-.427-.108-.818-.21-1.185-.308-.088.092-.17.17-.237.227-.526-.121-6.981-1.833-7.715-2.063-.169-.054-.355-.116-.539-.189a1.026,1.026,0,0,0-.249.353c-.168.625.875,1.108,1.6,1.4s7.219,2.556,7.743,2.731c.595-.341,2.276-1.726.583-2.156" transform="translate(-40.336 -101.214)" fill="#fcc397"/>
              <path id="Trazado_1002759" data-name="Trazado 1002759" d="M102.934,238.6c.066-.058.149-.136.237-.227-1.812-.483-2.929-.839-3.861-1.119-.961-.288-2.673-.775-3.72-.993a1.092,1.092,0,0,0-.937.086c.185.073.371.136.541.189.732.231,7.215,1.941,7.741,2.063" transform="translate(-40.515 -101.102)" fill="#ea9f6c"/>
              <path id="Trazado_1002760" data-name="Trazado 1002760" d="M95.611,237.553a2.887,2.887,0,0,0,.3-.72,4.18,4.18,0,0,0-1.105-.462.37.37,0,0,0-.388.611,3.478,3.478,0,0,0,1.2.57" transform="translate(-40.366 -101.167)" fill="#e26954"/>
              <path id="Trazado_1002761" data-name="Trazado 1002761" d="M104.567,234.844c-3-.351-4.654-.651-5.985-.864-1.142-.183-3.173-.481-4.4-.571-.436-.031-1.183.124-1.257.679-.1.74,1.167,1.134,2.04,1.364s8.661,2.025,9.285,2.146c.627-.482,2.323-2.52.321-2.753" transform="translate(-39.771 -99.906)" fill="#fcc397"/>
              <path id="Trazado_1002762" data-name="Trazado 1002762" d="M94.555,235.207a2.1,2.1,0,0,0,.2-.856,5.35,5.35,0,0,0-1.409-.544c-.343-.027-.65.548-.231.932a4.022,4.022,0,0,0,1.436.468" transform="translate(-39.772 -100.077)" fill="#e26954"/>
              <path id="Trazado_1002763" data-name="Trazado 1002763" d="M103.431,231.907c-2.745-.045-4.26-.176-5.481-.253-1.048-.068-2.91-.157-4.028-.122-.4.012-.988.236-1.007.8-.026.746,1.019.876,1.827,1.015.369.064,1.777.308,3.975.511,2.13.2,4.316.6,4.628.628.527-.542,1.916-2.544.086-2.574" transform="translate(-39.77 -99.1)" fill="#ea9f6c"/>
              <path id="Trazado_1002764" data-name="Trazado 1002764" d="M104.4,231.482c-3.025.047-4.7-.033-6.046-.069-1.157-.032-3.21-.059-4.441.014-.436.026-1.157.28-1.157.839,0,.746,1.306.971,2.2,1.083.385.048,2.137.068,3.982.2,2.442.181,5.1.483,5.461.5.56-.561,2.015-2.607,0-2.576" transform="translate(-39.704 -99.039)" fill="#fcc397"/>
              <path id="Trazado_1002765" data-name="Trazado 1002765" d="M94.708,233.024a3.884,3.884,0,0,0,.126-1.042,5.622,5.622,0,0,0-1.6-.2.5.5,0,0,0-.283.935,4.694,4.694,0,0,0,1.76.307" transform="translate(-39.674 -99.211)" fill="#e26954"/>
              <path id="Trazado_1002766" data-name="Trazado 1002766" d="M108.683,94.411s9.117,1.765,12.108,6.889c-.492-1.2-1.7-4.792-10.954-7.7a25.483,25.483,0,0,1,13.311,5.59c-1.44-1.976-2.955-3.96-8.9-7.159,1.232-.14,5.982,1.853,6.655,2.429-.671-.745-.939-2.049-6.3-4.565a35.036,35.036,0,0,1,7.46,3.373c-3.508-4.252-9.739-5.925-13.381-5.92,0,1.292,0,7.06,0,7.06" transform="translate(-46.519 -37.389)" fill="#a07045"/>
              <path id="Trazado_1002767" data-name="Trazado 1002767" d="M96.911,94.35S87.8,96.163,84.841,101.3c.485-1.2,1.672-4.8,10.913-7.754a25.472,25.472,0,0,0-13.281,5.66C83.9,97.227,85.406,95.234,91.336,92c-1.233-.133-5.971,1.885-6.642,2.464.666-.748.927-2.053,6.272-4.6a34.987,34.987,0,0,0-7.441,3.414c3.486-4.272,9.484-5.937,13.125-5.952,0,1.4.262,7.019.262,7.019" transform="translate(-35.301 -37.381)" fill="#a07045"/>
              <path id="Trazado_1002768" data-name="Trazado 1002768" d="M369.907,240.164l3.056,6.326c1.037,1.516,2.464,1.53,4.062,1.125l-4.509-10.739s0,0-.007,0a4.448,4.448,0,0,0-1.6.841,2.387,2.387,0,0,0-1,2.443" transform="translate(-158.303 -101.391)" fill="#ff7c3b"/>
              <path id="Trazado_1002769" data-name="Trazado 1002769" d="M325.036,332.715H368.8l4.56-23.766c-1.03-28.373-33.348-22.923-51.29-20.73l9.219,24.839h-5.7Z" transform="translate(-137.855 -122.55)" fill="#ffaf57"/>
              <path id="Trazado_1002770" data-name="Trazado 1002770" d="M407.779,384.451l-37.2-38.183,23.543-20.376,36.458,33.776Z" transform="translate(-158.62 -139.493)" fill="#ffaf57"/>
              <path id="Trazado_1002771" data-name="Trazado 1002771" d="M364.2,245.016c1.405,4.779,7.182,24.427,7.182,24.427l3.344,11.367,12.716-8.044-16.916-40.285s0,0-.007,0c-3.83,1.563-8.268,5.9-6.319,12.532" transform="translate(-155.689 -99.51)" fill="#ffaf57"/>
              <path id="Trazado_1002772" data-name="Trazado 1002772" d="M385.745,359.467l21.063-23.539,30.263,28.035-22.8,24.783Z" transform="translate(-165.112 -143.789)" fill="#00897b"/>
              <path id="Trazado_1002773" data-name="Trazado 1002773" d="M316.552,305.565a5.638,5.638,0,0,1,5.64-5.642,5.642,5.642,0,0,1,0-11.284h15.022a5.642,5.642,0,0,1,0,11.284,5.642,5.642,0,0,1,0,11.284,5.64,5.64,0,0,1,0,11.281,5.642,5.642,0,0,1,0,11.284H322.192a5.642,5.642,0,0,1,0-11.284,5.64,5.64,0,0,1,0-11.281,5.641,5.641,0,0,1-5.64-5.642" transform="translate(-135.495 -123.548)" fill="#ffc278"/>
              <path id="Trazado_1002774" data-name="Trazado 1002774" d="M347.558,292.114c.169-.023,3.038-.047,3.038-.047a3.683,3.683,0,1,1,0,7.366s-2.868-.027-3.038-.052Z" transform="translate(-148.767 -125.015)" fill="#ff7c3b"/>
              <path id="Trazado_1002775" data-name="Trazado 1002775" d="M347.558,311.537c.169-.024,3.038-.053,3.038-.053a3.685,3.685,0,0,1,0,7.371s-2.868-.029-3.038-.051Z" transform="translate(-148.767 -133.326)" fill="#ff7c3b"/>
              <path id="Trazado_1002776" data-name="Trazado 1002776" d="M347.558,331.971c.169-.027,3.038-.053,3.038-.053a3.684,3.684,0,1,1,0,7.369s-2.868-.026-3.038-.053Z" transform="translate(-148.767 -142.072)" fill="#ff7c3b"/>
              <path id="Trazado_1002777" data-name="Trazado 1002777" d="M347.558,351.382c.169-.026,3.038-.054,3.038-.054a3.686,3.686,0,0,1,0,7.371s-2.868-.027-3.038-.053Z" transform="translate(-148.767 -150.381)" fill="#ff7c3b"/>
            </g>
          </g>
        </g>
      </g>
      <g id="Grupo_1179206" data-name="Grupo 1179206" transform="translate(361.5 5929.66)">
        <circle id="Elipse_5841" data-name="Elipse 5841" cx="27.502" cy="27.502" r="27.502" transform="translate(0 0)" fill="#a0f7fe"/>
        <text id="_4" data-name="4" transform="translate(21.389 34.473)" fill="#12263f" font-size="18" font-family="SegoeUI-Bold, Segoe UI" font-weight="700"><tspan x="0" y="0">4</tspan></text>
      </g>
      <g id="Grupo_1179209" data-name="Grupo 1179209" transform="translate(410.5 6139.66)">
        <circle id="Elipse_5841-2" data-name="Elipse 5841" cx="27.502" cy="27.502" r="27.502" transform="translate(0 0)" fill="#a0f7fe"/>
        <text id="_3" data-name="3" transform="translate(21.389 34.473)" fill="#12263f" font-size="18" font-family="SegoeUI-Bold, Segoe UI" font-weight="700"><tspan x="0" y="0">3</tspan></text>
      </g>
      <g id="Grupo_1179207" data-name="Grupo 1179207" transform="translate(754.996 5881.21)">
        <circle id="Elipse_5841-3" data-name="Elipse 5841" cx="27.502" cy="27.502" r="27.502" transform="translate(0 0)" fill="#a0f7fe"/>
        <text id="_1" data-name="1" transform="translate(21.389 34.473)" fill="#12263f" font-size="18" font-family="SegoeUI-Bold, Segoe UI" font-weight="700"><tspan x="0" y="0">1</tspan></text>
      </g>
      <g id="Grupo_1179208" data-name="Grupo 1179208" transform="translate(806 6089)">
        <circle id="Elipse_5841-4" data-name="Elipse 5841" cx="27.502" cy="27.502" r="27.502" transform="translate(0 0)" fill="#a0f7fe"/>
        <text id="_2" data-name="2" transform="translate(21.389 34.473)" fill="#12263f" font-size="18" font-family="SegoeUI-Bold, Segoe UI" font-weight="700"><tspan x="0" y="0">2</tspan></text>
      </g>
    </g>
    <rect id="Rectángulo_456302" data-name="Rectángulo 456302" width="192" height="34" rx="17" transform="translate(967 5868.967)" fill="#02542b"/>
    <rect id="Rectángulo_456303" data-name="Rectángulo 456303" width="192" height="34" rx="17" transform="translate(967 5958.967)" fill="#02542b"/>
    <rect id="Rectángulo_456305" data-name="Rectángulo 456305" width="192" height="34" rx="17" transform="translate(967 6048.752)" fill="#02542b"/>
    <rect id="Rectángulo_456306" data-name="Rectángulo 456306" width="192" height="34" rx="17" transform="translate(967 6138.752)" fill="#02542b"/>
    <g id="Grupo_1179210" data-name="Grupo 1179210" transform="translate(939.996 5858.679)">
      <circle id="Elipse_5841-5" data-name="Elipse 5841" cx="27.502" cy="27.502" r="27.502" transform="translate(0 0)" fill="#a0f7fe"/>
      <text id="_1-2" data-name="1" transform="translate(21.389 34.473)" fill="#12263f" font-size="18" font-family="SegoeUI-Bold, Segoe UI" font-weight="700"><tspan x="0" y="0">1</tspan></text>
    </g>
    <g id="Grupo_1179211" data-name="Grupo 1179211" transform="translate(939.996 5948.679)">
      <circle id="Elipse_5841-6" data-name="Elipse 5841" cx="27.502" cy="27.502" r="27.502" transform="translate(0 0)" fill="#a0f7fe"/>
      <text id="_2-2" data-name="2" transform="translate(21.389 34.473)" fill="#12263f" font-size="18" font-family="SegoeUI-Bold, Segoe UI" font-weight="700"><tspan x="0" y="0">2</tspan></text>
    </g>
    <g id="Grupo_1179213" data-name="Grupo 1179213" transform="translate(939.996 6038.464)">
      <circle id="Elipse_5841-7" data-name="Elipse 5841" cx="27.502" cy="27.502" r="27.502" transform="translate(0 0)" fill="#a0f7fe"/>
      <text id="_3-2" data-name="3" transform="translate(21.389 34.473)" fill="#12263f" font-size="18" font-family="SegoeUI-Bold, Segoe UI" font-weight="700"><tspan x="0" y="0">3</tspan></text>
    </g>
    <g id="Grupo_1179215" data-name="Grupo 1179215" transform="translate(939.996 6128.464)">
      <circle id="Elipse_5841-8" data-name="Elipse 5841" cx="27.502" cy="27.502" r="27.502" transform="translate(0 0)" fill="#a0f7fe"/>
      <text id="_4-2" data-name="4" transform="translate(21.389 34.473)" fill="#12263f" font-size="18" font-family="SegoeUI-Bold, Segoe UI" font-weight="700"><tspan x="0" y="0">4</tspan></text>
    </g>
    <text id="Escucha_activa_" data-name="Escucha activa " transform="translate(1007 5874.467)" fill="#fff" font-size="17" font-family="SegoeUI, Segoe UI"><tspan x="0" y="18">Escucha activa </tspan></text>
    <text id="Cooperación" transform="translate(1007 5964.467)" fill="#fff" font-size="17" font-family="SegoeUI, Segoe UI"><tspan x="0" y="18">Cooperación</tspan></text>
    <text id="Participación_" data-name="Participación " transform="translate(1007 6054.252)" fill="#fff" font-size="17" font-family="SegoeUI, Segoe UI"><tspan x="0" y="18">Participación </tspan></text>
    <text id="Reconocimiento" transform="translate(1007 6144.252)" fill="#fff" font-size="17" font-family="SegoeUI, Segoe UI"><tspan x="0" y="18">Reconocimiento</tspan></text>
  </g>
</svg>
