<svg xmlns="http://www.w3.org/2000/svg" xmlns:xlink="http://www.w3.org/1999/xlink" width="150" height="150" viewBox="0 0 150 150">
  <defs>
    <clipPath id="clip-path">
      <rect id="Rectángulo_456507" data-name="Rectángulo 456507" width="84.615" height="84.63" fill="#15342f"/>
    </clipPath>
  </defs>
  <g id="Grupo_1179238" data-name="Grupo 1179238" transform="translate(-383.746 -8400)">
    <circle id="Elipse_13609" data-name="Elipse 13609" cx="75" cy="75" r="75" transform="translate(383.746 8400)" fill="#fff"/>
    <g id="Grupo_1192117" data-name="Grupo 1192117" transform="translate(416.439 8432.685)">
      <g id="Grupo_1192116" data-name="Grupo 1192116" clip-path="url(#clip-path)">
        <path id="Trazado_1003494" data-name="Trazado 1003494" d="M84.615,84.621,0,84.63.008,64.687A10.681,10.681,0,0,1,8.182,54.292c1.311-.277,2.829-.522,4.03-.856.521-.145.942-1.682.44-1.973-1.586-.919-1.96-3.074-3.038-4.314-5.528-6.354-3.785-8.169-4.2-15.7-.135-2.466,1.761-2.96,2.964-4.29,1.552-1.717,2.512-4.075,5.084-4.852a8.186,8.186,0,1,1,11.309-.047,10.23,10.23,0,0,1,4.2,3.668l2.452-2.752a8.439,8.439,0,0,1,5.24-9.046,8.19,8.19,0,1,1,11.288-.03,8.537,8.537,0,0,1,5.209,9.078l2.458,2.746a10.256,10.256,0,0,1,4.2-3.664,8.205,8.205,0,0,1-1.567-9.7A8.337,8.337,0,0,1,66.812,8.24a6.817,6.817,0,1,1,6.48,10.751,11.322,11.322,0,0,1-2.114,3.35,8.343,8.343,0,0,1,5.227,8.436,10.821,10.821,0,0,1,2.621,8.888c-.393,3.1-2.159,5.188-4.043,7.494C73.9,48.488,73.615,50.446,71.9,51.5c-.457.28-.022,1.743.511,1.932a29.76,29.76,0,0,0,3.371.722A10.589,10.589,0,0,1,84.57,64.413ZM46.914,5.386a5.348,5.348,0,0,0-9.239.012Zm.788,2.8L36.878,8.2A5.412,5.412,0,1,0,47.7,8.19m26.014,7.876a4.049,4.049,0,1,0-4.081-6.811,8.564,8.564,0,0,1,4.081,6.811m-50-2.492a5.349,5.349,0,0,0-9.239.014Zm46.4,0a5.348,5.348,0,0,0-9.238.014ZM24.5,16.379l-10.824.01a5.412,5.412,0,1,0,10.824-.01m20.462.006-5.34.025a2.642,2.642,0,0,0,2.807,2.661,2.615,2.615,0,0,0,2.533-2.687M70.9,16.379l-10.824.01a5.412,5.412,0,1,0,10.824-.01m-33.017,3.3c-.47-.906-.7-1.593-1.089-2.5a4.683,4.683,0,0,0-2.461,3.92c1.27-.522,2.224-.979,3.551-1.418m12.393,1.21a4.887,4.887,0,0,0-2.476-3.72c-.407.94-.6,1.573-1.094,2.507,1.277.3,2.327,1.183,3.57,1.214m-6.652,3.733c.316,1.311-.372,2.673.2,3.629,2.091,3.486,5.824,3.977,9.351,4.828l.031,6.775a10.7,10.7,0,0,1-5.3,9.222c.495,2.759,5.2,1.944,8.038,3.151l-.007-16.753a13.642,13.642,0,0,0-27.285,0l0,16.76c2.667-1.178,8.091-.468,7.95-3.325a11.552,11.552,0,0,1-5.225-9.881l.063-5.976c3.82-.882,7.17-1.287,9.419-4.954l.114-3.515a18.088,18.088,0,0,1,2.654.039M21.76,24.575l-5.34.025a2.643,2.643,0,0,0,2.807,2.661,2.615,2.615,0,0,0,2.533-2.687m46.4,0-5.34.025a2.643,2.643,0,0,0,2.807,2.661,2.615,2.615,0,0,0,2.533-2.687m-53.919,2.66a6.233,6.233,0,0,0-.66-1.852,4.173,4.173,0,0,0-1.8,1.782,7.127,7.127,0,0,0,2.464.07m12.732,2.487c.48-1.746-.9-3.534-2.409-4.339a24.266,24.266,0,0,1-1,2.4,17.347,17.347,0,0,1,3.409,1.935m30.984.326A19.607,19.607,0,0,1,61.2,28.013a17.64,17.64,0,0,1-1.184-2.654c-1.3.461-3.545,3.742-2.054,4.689m15.373-1.733a4.858,4.858,0,0,0-2.3-2.926,3.971,3.971,0,0,0-.641,2.085,22.986,22.986,0,0,1,2.944.841M19.11,34.1a19.569,19.569,0,0,1,2.655.074l-.095,1.947a6.952,6.952,0,0,1,4.145,5.137l.3-8.22a6.654,6.654,0,0,0-5.368-2.993l-11.2-.022A1.348,1.348,0,0,0,8.2,31.374v6.56a7.254,7.254,0,0,0,1.288,4.442A4.23,4.23,0,0,1,13.05,37.9l3.077-.442A3.42,3.42,0,0,0,19.11,34.1m46.418.088a3.327,3.327,0,0,0,2.949,3.26l2.844.4A4.352,4.352,0,0,1,75.133,42.4a8.252,8.252,0,0,0-.059-8.934c-1.817-2.8-4.87-3.554-8.213-3.522-3.265.031-6.422.621-8.246,3.678l.172,7.628a6.929,6.929,0,0,1,4.148-5.116l-.1-1.965a10.551,10.551,0,0,1,2.689.021M43.52,47.68a7.874,7.874,0,0,0,6.96-7.819c.017-1.6.072-3.044-.06-4.655a13.7,13.7,0,0,1-8.121-4.3A13.712,13.712,0,0,1,34.207,35.2a27.376,27.376,0,0,0-.091,3.543,8.286,8.286,0,0,0,9.4,8.935M12.292,44.65a5.453,5.453,0,1,0,10.894.394c.046-2.952.313-5.515-3.2-6.569-2.441,2.519-6.7,1.4-7.441,2.727-.533.946-.191,2.185-.251,3.449m59.7-3.506c-.934-1.282-4.892-.144-7.375-2.666-3.518,1.052-3.241,3.621-3.2,6.566a5.458,5.458,0,1,0,10.89-.569c-.08-1.033.359-2.4-.318-3.331M23.119,53.332a6.388,6.388,0,0,0,2.72.544,56.213,56.213,0,0,0-.006-7.031,11.3,11.3,0,0,1-3.14,4.8c-.29.27.064,1.516.426,1.684M61.533,53.3c.4-.232.651-1.5.291-1.8a10.517,10.517,0,0,1-3.062-4.654,56.789,56.789,0,0,0,.012,7.037,6.556,6.556,0,0,0,2.759-.586M46.682,58.646l2.563-5.083c-2.115-.084-2.972-2.208-4.041-3.171-1.793-.263-3.965.484-5.892-.34a5.753,5.753,0,0,1-4,3.634l2.666,4.966Zm-26.539-5.27c-.15-.87-1.361.224-4.324-.381-.384-.079-.549.418-.536.627.041.678,1.874,1.741,2.451,1.869.931-.376,2.575-1.147,2.409-2.116m49.134,0c-.149-.87-1.36.224-4.324-.381-.385-.078-.548.419-.535.626.041.68,1.868,1.736,2.451,1.872.939-.385,2.574-1.149,2.409-2.117M31.3,63.435a14.841,14.841,0,0,0,.437,12.892,9.079,9.079,0,0,1,.951,5.567l8.246,0-.026-12.005L32.431,54.151A12.162,12.162,0,0,0,21.84,66.3l.01,4.669,5.487-.025A17.328,17.328,0,0,1,28.8,62.4a5.7,5.7,0,0,1,2.5,1.037m21.97-.155A11.62,11.62,0,0,1,55.8,62.4a17.4,17.4,0,0,1,1.461,8.549l5.5.02-.018-5.216A11.978,11.978,0,0,0,52.205,54.132L43.691,69.88l-.025,12.01,8.24,0a8.929,8.929,0,0,1,.875-5.377,15.187,15.187,0,0,0,.492-13.236m-41.2-4.646a15.269,15.269,0,0,0,2.756-1.53c-1.637-1.5-1.791-.992-3.9-.544a4.629,4.629,0,0,0,1.14,2.073m10.622-2.4c-.538-.439-1.4.323-2,.807a.93.93,0,0,0,.982.534C22,57.562,22.9,56.4,22.693,56.237m41.224.8c-.412-.479-1.959-1.388-2.036-.694-.014.124.674,1.214,1.07,1.258a.91.91,0,0,0,.965-.564m8.715,1.574a5.28,5.28,0,0,0,1.02-2.063c-1.911-.469-2.622-.872-3.847.634a17.59,17.59,0,0,0,2.827,1.429M8.188,66.939l0,14.95,8.183,0-.023-9.283-8.3-15.373A7.68,7.68,0,0,0,2.763,64.4L2.708,81.845a13.84,13.84,0,0,0,2.742,0V66.89a16.632,16.632,0,0,1,2.737.049m70.972,0L79.154,81.85a14.02,14.02,0,0,0,2.743,0L81.841,64.4a7.67,7.67,0,0,0-5.286-7.165L68.261,72.608l-.023,9.283,8.182,0,0-15a16.635,16.635,0,0,1,2.737.049M18.953,61.414c.919.079,1.247-.313,1.291-.965.04-.59-3-2.182-3.389-1.046a2.774,2.774,0,0,0,.514,1.821c.313.417,1.026.143,1.584.191m48.357-.223c.01-.012.706-1.626.415-1.883-.9-.79-2.634.3-3.241.822-.3.263-.008.969.233,1.132.2.138,2.2.387,2.593-.071M14.631,63.272A2.538,2.538,0,0,0,14.1,60.8c-.2-.215-.882.209-.7.559a5.111,5.111,0,0,0,1.223,1.917m56.475-1.7c.224-.427.069-.676-.391-.813-.606-.179-1.19,2.152-.643,2.507a8.182,8.182,0,0,0,1.034-1.694M45.07,61.505a50.051,50.051,0,0,0-5.549-.058L42.3,66.642ZM17.742,69.236a6.563,6.563,0,0,0,1.449-4.945c-.5-.106-1.514-.433-2,.072a6.675,6.675,0,0,0-1.068,2.109,22.386,22.386,0,0,0,1.62,2.764m50.58-2.977a3.367,3.367,0,0,0-.989-1.971c-.545-.412-1.465-.095-1.918,0a6.475,6.475,0,0,0,1.52,5.01c.332-1.017,1.439-1.864,1.387-3.042M21.853,81.812l-.035-8.07c-1.183-.1-1.762-.812-2.636-1.5l-.091,9.605a11.074,11.074,0,0,0,2.763-.04m43.7-.008-.181-9.565a4.106,4.106,0,0,1-2.587,1.482l-.006,8.132A10.69,10.69,0,0,0,65.55,81.8m-37.7-8.1-3.3,0,.012,8.178,5.409,0c.517-3.145-1.342-5.08-2.121-8.176M60.059,81.85l-.01-8.148-3.3,0L54.7,79.231a7.331,7.331,0,0,0-.075,2.658Z" transform="translate(0 0.001)" fill="#15342f"/>
        <path id="Trazado_1003495" data-name="Trazado 1003495" d="M146.253,149.291a5.656,5.656,0,0,1-5.113,3.4,5.768,5.768,0,0,1-5.36-3.321,5.264,5.264,0,0,1,2.414-1.267,3.087,3.087,0,0,0,5.654,0,6.752,6.752,0,0,1,2.406,1.19" transform="translate(-98.716 -107.674)" fill="#15342f"/>
      </g>
    </g>
  </g>
</svg>
