<svg xmlns="http://www.w3.org/2000/svg" xmlns:xlink="http://www.w3.org/1999/xlink" width="80" height="80" viewBox="0 0 80 80">
  <defs>
    <clipPath id="clip-path">
      <rect id="Rectángulo_456510" data-name="Rectángulo 456510" width="55.817" height="53.875" fill="#12263f"/>
    </clipPath>
  </defs>
  <g id="Grupo_1179241" data-name="Grupo 1179241" transform="translate(-175.889 -5521)">
    <rect id="Rectángulo_402006" data-name="Rectángulo 402006" width="80" height="80" rx="5" transform="translate(175.889 5521)" fill="#a0f7fe"/>
    <g id="Grupo_1192123" data-name="Grupo 1192123" transform="translate(187.98 5534.063)">
      <g id="Grupo_1192122" data-name="Grupo 1192122" clip-path="url(#clip-path)">
        <path id="Trazado_1003501" data-name="Trazado 1003501" d="M255.6,3.791A3.774,3.774,0,1,1,251.822.017,3.774,3.774,0,0,1,255.6,3.791M252.1,5.97a2.4,2.4,0,0,0,1.293-3.481,1.873,1.873,0,0,0-2.616-.472,2,2,0,0,0-.62,2.649c.311.682,1.005,1.575,1.943,1.3" transform="translate(-203.63 -0.014)" fill="#12263f"/>
        <path id="Trazado_1003502" data-name="Trazado 1003502" d="M28.728,3.77A3.77,3.77,0,1,1,24.958,0a3.77,3.77,0,0,1,3.77,3.77M25.211,5.959a2.409,2.409,0,0,0,1.374-3.394A1.883,1.883,0,0,0,24,1.929a1.976,1.976,0,0,0-.766,2.593c.287.735,1,1.7,1.976,1.438" transform="translate(-17.394)" fill="#12263f"/>
        <path id="Trazado_1003503" data-name="Trazado 1003503" d="M40.733,60.018l0-7.176A3.243,3.243,0,0,1,44,49.565l8.239-.013a3.3,3.3,0,0,1,3.428,3.3l.012,6.811a2.6,2.6,0,0,1-2.771,2.7L52.9,69.864a5.5,5.5,0,0,1,2.37,1.783,2.672,2.672,0,0,1,0,3.249c-2.042,2.81-6.971,3.225-10.14,2.454L34.777,85a10.113,10.113,0,0,1,2.051,1.9,3.541,3.541,0,0,1-.127,4.354,7.269,7.269,0,0,1-3.094,2.223,15.709,15.709,0,0,1-11.332.048,7.232,7.232,0,0,1-3.29-2.375,3.481,3.481,0,0,1-.193-4.02,6.8,6.8,0,0,1,2.215-2.078l-10.473-7.7a12.4,12.4,0,0,1-7.529-.5C1.041,76.031-.844,74.1.4,71.948A5.151,5.151,0,0,1,2.88,69.9l-.028-7.575A2.3,2.3,0,0,1,.1,60.016l0-7.167a3.3,3.3,0,0,1,3.427-3.3l8.239.011a3.242,3.242,0,0,1,3.261,3.279l.014,6.813a2.593,2.593,0,0,1-2.773,2.7l-.022,7.556c1.891.844,3.7,2.582,2.466,4.734a6.485,6.485,0,0,1-2.179,2l9.9,7.265.067-9.1a2.514,2.514,0,0,1-3.1-.588l-4.132-4.816a2.981,2.981,0,0,1,.607-4.544l6.3-3.363a6.8,6.8,0,0,1,3.193-.569l4.843-.008a8.656,8.656,0,0,1,4.182,1.021l5.341,2.884a2.97,2.97,0,0,1,.911,4.357l-4.354,5.133a2.261,2.261,0,0,1-3.015.483l.14,9.021,9.735-7.205a10.5,10.5,0,0,1-1.511-1.161,2.953,2.953,0,0,1-.1-4.117,7.214,7.214,0,0,1,1.982-1.45L43.5,62.328a2.3,2.3,0,0,1-2.762-2.31M8.441,61.368l0,10.214a1.038,1.038,0,1,0,2.065-.115V54.484a.824.824,0,0,1,.8-.9.785.785,0,0,1,.914.717l.042,6.222a.737.737,0,0,0,1.029-.71l0-7.068A1.416,1.416,0,0,0,11.909,51.3l-8.552-.013a1.481,1.481,0,0,0-1.526,1.555l.008,7.167a.591.591,0,0,0,.387.523c.142.056.625.1.627-.159l.027-5.887a.827.827,0,0,1,.919-.91.807.807,0,0,1,.813.892V71.466a1.05,1.05,0,0,0,1,1.186,1.012,1.012,0,0,0,1.053-1.069l.008-10.31a.876.876,0,0,1,.877-.949c.517-.007.886.321.886,1.044m40.647,0,0,10.214a1.013,1.013,0,0,0,1.053,1.069,1.051,1.051,0,0,0,1-1.186v-17a.866.866,0,1,1,1.73.022l.035,5.907c0,.289.592.158.725.03a.83.83,0,0,0,.283-.585l-.012-7.174a1.382,1.382,0,0,0-1.349-1.363H43.85a1.416,1.416,0,0,0-1.38,1.437l-.022,7.089a.734.734,0,0,0,.3.65c.152.091.724.192.727-.093l.06-6.09a.78.78,0,0,1,.913-.716.824.824,0,0,1,.8.9V71.467a1.038,1.038,0,1,0,2.064.114l.007-10.311a.842.842,0,0,1,.88-.941c.489,0,.883.332.883,1.039M31.633,65.4a.852.852,0,0,1,.276-.726c.15-.1.535-.323.784-.2,1.686.863,3.41,1.574,5.022,2.515.518.3.137,1.159-.122,1.466L33.979,72.73c-.132.156.328.612.5.561.147-.043.427.027.6-.183l4.169-4.939a1.4,1.4,0,0,0-.308-1.833l-6.037-3.263a6.381,6.381,0,0,0-3.437-.441l.978,3.216a1,1,0,0,1-.3,1.086l-1.48,1.386c-1.143,1.07-2.394-1.013-3.422-1.914L26,62.637a5.469,5.469,0,0,0-2.982.407l-6.1,3.222a1.332,1.332,0,0,0-.286,1.969l4.2,4.922a.549.549,0,0,0,.75.014c.132-.128.332-.509.134-.748L18,67.942c-.343-.415.014-1.032.45-1.245l4.557-2.231a.888.888,0,0,1,1.222.945l0,23.236a.828.828,0,0,0,.869.914.82.82,0,0,0,.859-.9l-.005-11.27A2.169,2.169,0,0,1,28.149,75.1a2.126,2.126,0,0,1,2.164,2.148l.047,11.943c0,.48.654.552.916.431a.882.882,0,0,0,.525-.809Zm-3.861-2.186a19.72,19.72,0,0,0-.572,2.51c-.032.48.573.935.854.78,1.062-.584.138-1.8-.282-3.29M22.432,70.4a22.209,22.209,0,0,0,0-3.674,18.633,18.633,0,0,0-2.233,1.1,28.523,28.523,0,0,0,2.23,2.577m13.2-2.607a14.724,14.724,0,0,0-2.221-1.031,20.626,20.626,0,0,0,.031,3.664,30.449,30.449,0,0,0,2.19-2.633M13.211,72.9a1.519,1.519,0,0,0-.957-.993,2.893,2.893,0,0,1-1.645,2.263c-1.2.671-2.11-.254-3.031-.271s-1.9.969-3.047.279a2.892,2.892,0,0,1-1.645-2.31,1.433,1.433,0,0,0-.247,2.642c3.807,2.756,11.4.822,10.573-1.61m40.73.027a1.693,1.693,0,0,0-1.058-1.087,2.873,2.873,0,0,1-1.655,2.333c-1.161.662-2.069-.222-3.019-.273-.884-.047-1.877.988-3.052.275a2.93,2.93,0,0,1-1.646-2.259,1.443,1.443,0,0,0-.9,1.119,1.472,1.472,0,0,0,.723,1.447c3.806,2.836,11.447.793,10.61-1.555m-25.4,10.406.043-5.955a.475.475,0,0,0-.439-.5.449.449,0,0,0-.436.5l.01,6c.167.07.82.154.821-.042m6.656,7a1.864,1.864,0,0,0,.213-2.427,4.191,4.191,0,0,0-1.96-1.5l-.038,2.8a2.283,2.283,0,0,1-2.35,2.233,2.367,2.367,0,0,1-2.442-2.064l-.091-4.065c0-.192-.75-.229-.773-.017-.131,1.194-.016,2.343-.052,3.548a2.571,2.571,0,0,1-2.6,2.558,2.5,2.5,0,0,1-2.593-2.377l-.068-2.707a4.711,4.711,0,0,0-2.03,1.487,1.879,1.879,0,0,0,.121,2.507c2.945,3.293,11.654,3.335,14.663.021" transform="translate(0 -40.679)" fill="#12263f"/>
        <path id="Trazado_1003504" data-name="Trazado 1003504" d="M140.468,66.024a4.249,4.249,0,1,1-4.248-4.248,4.248,4.248,0,0,1,4.248,4.248m-1.738.007a2.518,2.518,0,1,0-2.518,2.518,2.518,2.518,0,0,0,2.518-2.518" transform="translate(-108.339 -50.714)" fill="#12263f"/>
      </g>
    </g>
  </g>
</svg>
