<svg xmlns="http://www.w3.org/2000/svg" xmlns:xlink="http://www.w3.org/1999/xlink" width="150" height="150" viewBox="0 0 150 150">
  <defs>
    <clipPath id="clip-path">
      <rect id="Rectángulo_456503" data-name="Rectángulo 456503" width="92.839" height="85.004" fill="#15342f"/>
    </clipPath>
  </defs>
  <g id="Grupo_1179176" data-name="Grupo 1179176" transform="translate(-383.746 -8400)">
    <circle id="Elipse_13609" data-name="Elipse 13609" cx="75" cy="75" r="75" transform="translate(383.746 8400)" fill="#fff"/>
    <g id="Grupo_1192109" data-name="Grupo 1192109" transform="translate(412.326 8432.498)">
      <g id="Grupo_1192108" data-name="Grupo 1192108" clip-path="url(#clip-path)">
        <path id="Trazado_1003480" data-name="Trazado 1003480" d="M92.722,181.473l-92.577,0a14.937,14.937,0,0,1-.109-3.061,10.142,10.142,0,0,0,1.57-.146L1.468,167.69C.71,167.205,0,166.75,0,165.677L.07,147.136a4.543,4.543,0,0,1,2.919-4.014c2.01-.8,3.646-.01,5.254,1.088A50.709,50.709,0,0,0,15.95,148.8c2.014.9,7.215-1.1,7.264,1.754l.052,3.045a13.819,13.819,0,0,0,3.294-.078l1.285-7.653a1.572,1.572,0,0,1,1.714-1.481c1.019.074,1.506.963,1.326,2.05l-1.174,7.1a24.158,24.158,0,0,0,4.538.031l1.169-7.932a4.4,4.4,0,0,1,2.676-3.465c1.675-.646,3.184-2.041,4.963-2.286a25.032,25.032,0,0,1,6.721,0c1.79.251,3.307,1.623,4.974,2.286a4.43,4.43,0,0,1,2.674,3.47l1.169,7.936a25.149,25.149,0,0,0,4.533-.026l-1.189-7.373a1.487,1.487,0,0,1,1.35-1.79,1.57,1.57,0,0,1,1.707,1.488l1.289,7.654a14.1,14.1,0,0,0,3.291.077l.051-3.048c.047-2.831,5.263-.861,7.274-1.756a49.693,49.693,0,0,0,7.7-4.591c1.61-1.1,3.241-1.89,5.255-1.089a4.545,4.545,0,0,1,2.917,4.012l.069,15.454c0,1.083-.681,1.542-1.5,2.063l-.1,13.606a7.909,7.909,0,0,0,1.561.157,19.319,19.319,0,0,1-.079,3.061M51.2,145.932a1.443,1.443,0,0,1,1.378,1.5l.047,6.153a8.563,8.563,0,0,0,2.812-.053l-1.2-8.07c-3.577-2.177-5.99-3.4-10.52-2.477-1.88.382-3.454,1.662-5.107,2.476l-1.2,8.071a8.456,8.456,0,0,0,2.812.051l.043-6.146a1.488,1.488,0,0,1,1.526-1.514Zm-44.97,6.3a1.619,1.619,0,0,1,.7-1.431c1.566-.869,4.63,1.9,7.385,2.673,1.845.52,3.811-.064,5.739.215a2.879,2.879,0,0,0,0-1.523c-1.567-.452-3.543.459-5.05-.275a90.922,90.922,0,0,1-8.685-5.165c-.6-.379-1.072-.917-1.792-.786-.456.083-1.357.4-1.358,1.232L3.148,164.9l8.89,3.017,3.035,10.269A4.477,4.477,0,0,0,18,178.159l-3.837-12.7-7.317-4.435a1.756,1.756,0,0,1-.622-1.512ZM86.625,158.4a1.984,1.984,0,0,1-.8,1.224l-11.045,6.915,6.537,11.6-2.359-10.3a1.541,1.541,0,0,1,.921-1.726l9.809-4.2-.023-14.737c0-.835-.9-1.138-1.381-1.237-.657-.135-1.168.42-1.771.8a87.754,87.754,0,0,1-8.684,5.157c-1.508.73-3.48-.178-5.048.275a3.036,3.036,0,0,0,0,1.522c1.934-.275,3.9.3,5.755-.21,2.92-.8,6.071-3.826,7.541-2.565a1.609,1.609,0,0,1,.521,1.165Zm-37.112-9.415H43.328v4.66h6.185Zm-31,19.734.092-11.976c-1.712-.145-3.439.537-4.94-.12l-4.3-1.884a27.748,27.748,0,0,0,.017,4.137l7.253,4.686c1.171,1.446.911,3.736,1.881,5.157m55.854-5.587,9.007-5.662a5.256,5.256,0,0,0,.062-2.714l-4.049,1.809c-1.56.7-3.351.027-5.139.173Zm-3.207-6.416H21.682v3.114H71.159ZM24.774,162.9H21.682v15.484h3.092Zm15.56,5.419c-1.924-2.128-3.086-2.487-3.2-5.415l-9.271,0,.01,15.487,13.694-.129Zm7.81,9.916,1.52-11.216c.135-1,3.264-2.7,2.928-4.126l-12.341,0c-.352,1.41,2.787,3.12,2.925,4.13l1.534,11.265a10.321,10.321,0,0,0,3.434-.056m3.2.126,13.625.022.008-15.473-9.27,0A4.981,4.981,0,0,1,54,166.78a15.048,15.048,0,0,0-1.517,1.643ZM71.159,162.9H68.067v15.484h3.092ZM88.194,178.27l-.068-12.308-5.856,2.532,2.47,9.779a10.323,10.323,0,0,0,3.453,0m-76.358-.106-2.318-7.9L4.681,168.7v9.695c2.536-.135,4.824.26,7.156-.225m65.862.031-3.354-6.06-.085,6.222a11.324,11.324,0,0,0,3.439-.162" transform="translate(0 -96.471)" fill="#15342f"/>
        <path id="Trazado_1003481" data-name="Trazado 1003481" d="M142.5,101.019a6.175,6.175,0,1,1-6.175-6.175,6.175,6.175,0,0,1,6.175,6.175m-3.1,0a3.078,3.078,0,1,0-3.078,3.078,3.078,3.078,0,0,0,3.078-3.078" transform="translate(-89.901 -65.515)" fill="#15342f"/>
        <path id="Trazado_1003482" data-name="Trazado 1003482" d="M12.5,111.019a6.175,6.175,0,1,1-6.175-6.175,6.175,6.175,0,0,1,6.175,6.175m-3.1,0a3.078,3.078,0,1,0-3.078,3.078A3.078,3.078,0,0,0,9.4,111.017" transform="translate(-0.102 -72.423)" fill="#15342f"/>
        <path id="Trazado_1003483" data-name="Trazado 1003483" d="M272.5,111.024a6.176,6.176,0,1,1-6.175-6.175,6.175,6.175,0,0,1,6.175,6.175m-3.1,0a3.078,3.078,0,1,0-3.078,3.078,3.078,3.078,0,0,0,3.078-3.078" transform="translate(-179.701 -72.426)" fill="#15342f"/>
        <path id="Trazado_1003484" data-name="Trazado 1003484" d="M185.4,30.659l-9.056-5.809c-4.086-.764-8.533,1.573-10.372-3.951l-5.433,3.553a1.626,1.626,0,0,1-1.59-.033c-1.316-.676-.4-4.509-.8-6.188a4.749,4.749,0,0,1-3-4.359V4.546A4.5,4.5,0,0,1,159.467,0l16.377.061c3.012.011,4.476,3.3,3.971,6.029,2.24.148,4.173.021,6.282.049a4.5,4.5,0,0,1,4.562,4.312l.052,9.289a4.876,4.876,0,0,1-3.02,4.677l-.107,4.9a1.53,1.53,0,0,1-.521,1.16,1.478,1.478,0,0,1-1.661.178M165.969,17.142l0-6.394a4.6,4.6,0,0,1,4.607-4.607c2.115-.026,4.013.094,6.107-.052.257-.761.223-2.9-.909-2.908L159.79,3.035a1.556,1.556,0,0,0-1.535,1.544l0,9.275c0,2.255,3,.808,3.056,3.1l.075,3.19Zm10.794-3.275.021-4.645-6.182.018c-2.414.007-1.314,4.154-1.517,6.181,2.384-.338,7.666,1.032,7.678-1.555M184.386,26.3c.474-2.195-.642-4.4,1.7-4.714a1.578,1.578,0,0,0,1.51-1.547l0-9.269a1.521,1.521,0,0,0-1.522-1.531l-6.18-.015-.015,4.637a4.68,4.68,0,0,1-4.625,4.674c-1.916.138-3.96-.382-5.792.207-.962.31-.336,2.783.811,2.8l7.044.105Z" transform="translate(-107.176 0)" fill="#15342f"/>
        <path id="Trazado_1003485" data-name="Trazado 1003485" d="M26.072,33.369,17.1,39.307a1.6,1.6,0,0,1-1.6-.026,1.773,1.773,0,0,1-.716-1.587l-.027-4.343a4.614,4.614,0,0,1-4.6-4.628V19.434a4.663,4.663,0,0,1,4.93-4.646l17.945,0a4.664,4.664,0,0,1,4.929,4.647v9.287a4.574,4.574,0,0,1-4.609,4.63Zm-.931-3.075,8.195-.056a1.512,1.512,0,0,0,1.529-1.529V19.436A1.526,1.526,0,0,0,33.328,17.9l-18.536,0a1.528,1.528,0,0,0-1.539,1.532L13.313,29c.011,1.831,3.014.87,4.019,1.637,1.051.8.181,3.672.722,4.325Z" transform="translate(-7.017 -10.214)" fill="#15342f"/>
        <rect id="Rectángulo_456500" data-name="Rectángulo 456500" width="3.092" height="3.114" transform="translate(21.682 12.313)" fill="#15342f"/>
        <rect id="Rectángulo_456501" data-name="Rectángulo 456501" width="3.092" height="3.114" transform="translate(15.498 12.313)" fill="#15342f"/>
        <rect id="Rectángulo_456502" data-name="Rectángulo 456502" width="3.092" height="3.114" transform="translate(9.313 12.313)" fill="#15342f"/>
      </g>
    </g>
  </g>
</svg>
