<svg xmlns="http://www.w3.org/2000/svg" xmlns:xlink="http://www.w3.org/1999/xlink" width="150" height="150" viewBox="0 0 150 150">
  <defs>
    <clipPath id="clip-path">
      <rect id="Rectángulo_456505" data-name="Rectángulo 456505" width="78.948" height="88.562" fill="#15342f"/>
    </clipPath>
  </defs>
  <g id="Grupo_1179177" data-name="Grupo 1179177" transform="translate(-383.746 -8400)">
    <circle id="Elipse_13609" data-name="Elipse 13609" cx="75" cy="75" r="75" transform="translate(383.746 8400)" fill="#fff"/>
    <g id="Grupo_1192113" data-name="Grupo 1192113" transform="translate(419.272 8430.719)">
      <g id="Grupo_1192112" data-name="Grupo 1192112" clip-path="url(#clip-path)">
        <path id="Trazado_1003491" data-name="Trazado 1003491" d="M49.656,64.054c-.138-1.2-1.753-1.916-2.35-2.7a16.457,16.457,0,0,0-2.217,2.231c2.026,1.736,1.44,3.144,1.426,6.617a1.305,1.305,0,0,1-1.141,1.329A1.332,1.332,0,0,1,43.923,70.3a9.318,9.318,0,0,0-.121-1.687,27.862,27.862,0,0,1-8.692,0c-.214,1.156.207,2.8-1.384,2.936A1.319,1.319,0,0,1,32.4,70.2c-.017-3.486-.6-4.875,1.424-6.618a18.786,18.786,0,0,0-2.2-2.234c-.711.792-2.1,1.494-2.357,2.616-.638,2.784.782,6.708-1.321,6.864-2.085.154-1.141-2.886-1.55-4.019L21,69.831c-2.549,1.425-5.476.769-7.758-1.041a8.19,8.19,0,1,1-8.1-14.056c-.725-6.776,3.729-7.378,8.381-10.455-4.638-3.07-9.107-3.675-8.38-10.457a8.187,8.187,0,1,1,8.1-14.047,7.136,7.136,0,0,1,8.311-.761L26.434,21.8c.449-5.308-1.329-9.867,4.917-12.45a8.189,8.189,0,1,1,16.21,0,6.741,6.741,0,0,1,4.789,6.2l.127,6.224c4.878-2.4,7.7-6.005,13.194-2,3.81-3.361,11.5-1.051,10.058,1.426-1.14,1.956-3.239-1.338-5.158-.343-1.455,1.429-1.175,4.05-.109,5.762.892,1.432,2.871,2.9,4.871,2.485,1.688-1.285.025-4.584,2.2-4.7,2.921-.155,1.131,7.781-3.759,9.434A6.92,6.92,0,0,1,70.7,41.145l-5.3,3.141L70.368,47.2a7.12,7.12,0,0,1,3.412,7.537,8.189,8.189,0,1,1-8.107,14.049,7.061,7.061,0,0,1-8.127.869l-5.074-2.859c-.432,5.29,1.321,9.793-4.906,12.428a8.19,8.19,0,1,1-16.217,0c-1.737-.5-5.414-3.442-3.421-4.778,1.712-1.148,2.116,1.948,4.241,2.214a8.2,8.2,0,0,1,14.588.017,4.193,4.193,0,0,0,3.022-4.146c-.063-2.8.215-5.505-.125-8.47M44.4,5.549A5.676,5.676,0,0,0,39.35,2.586,5.537,5.537,0,0,0,34.526,5.6a5.477,5.477,0,0,0,5.065,3A5.407,5.407,0,0,0,44.4,5.549m.346,3.835A8.6,8.6,0,0,1,34.052,9.3a5.41,5.41,0,0,0,5.311,4.438,5.192,5.192,0,0,0,5.379-4.355m4.983,12.409c-.08-4.021,1.182-8.64-2.978-9.893a8.207,8.207,0,0,1-14.59,0c-4.216,1.253-2.865,6.179-2.965,9.9a25.008,25.008,0,0,1,20.533-.008M27,31.732a2.308,2.308,0,0,1,2.961-1.215l12,5.013,5.2-2.163a7.325,7.325,0,0,1,.049-3.183l1.665-5.871A22.056,22.056,0,0,0,23.693,28.8a1.327,1.327,0,0,1-1.94-.129c-1.224-1.561,2.21-3.378,3.345-4.545-3.3-1.737-6.938-5.4-10.022-2.345A8.226,8.226,0,0,1,7.739,34.415a4.348,4.348,0,0,0,2.376,4.863c1.582.833,2.949,1.809,4.72,2.63a25.306,25.306,0,0,1,3.209-9.886,1.3,1.3,0,0,1,1.708-.484,1.289,1.289,0,0,1,.55,1.634,22.574,22.574,0,0,0-2.838,9.3l6.551,1.538A2.657,2.657,0,0,1,22.949,41.3ZM58.366,28.39a25.014,25.014,0,0,1,5.7,13.511c1.732-.749,3.022-1.731,4.554-2.513a4.428,4.428,0,0,0,2.555-4.979,8.216,8.216,0,0,1-7.48-4.021,8.428,8.428,0,0,1,.147-8.678,4.219,4.219,0,0,0-4.955-.554c-2.552,1.511-5.168,2.8-7.584,4.486-.658.787-.594,2.139-.938,2.979a12.314,12.314,0,0,0,3.043.832c.36-.527.272-1.366.78-1.732a45.136,45.136,0,0,1,4.482-2.653,1.329,1.329,0,0,1,1.626.482c1,1.588-1.547,2.172-1.928,2.839m-50.151-7.4c-1.94-.942-4.2,1.235-4.937,2.582-.789,1.45-1.195,4.6.376,5.413,1.723.895,4.021-1.148,4.817-2.394.93-1.455,1.507-4.745-.255-5.6m-1.8,10.452A5.4,5.4,0,0,0,13,29.024a5.385,5.385,0,0,0-1.147-6.912,8.517,8.517,0,0,1-5.442,9.331m66.077,0a8.514,8.514,0,0,1-5.439-9.33,5.5,5.5,0,0,0,5.439,9.33M53.835,51.187l1.2,2.748c1.536,3.515-3.881,3.969-5.9,5.43l2.913,3.059a22.1,22.1,0,0,0,4.13-32.569c-1.186,3.056-.63,4.968-4.351,6.1l4.957,11.653c.876,2.059-2.179,3.009-2.951,3.579M52.574,32.175c-.77-.654-1.975-.581-2.824-.919a1.512,1.512,0,0,0,1.237,2.077c.567.14,1.806-.411,1.586-1.159M38.735,43.294c-.624-2.8-2.751-4.018-.114-6.322l-9.369-3.937L25.594,41.87l10.02,4.211c.345-1.612,1.419-2.341,3.122-2.787m10.772-2.053,3.236,7.337a1.841,1.841,0,0,0,1.388-.7L48.8,35.561l-8.752,3.783a16.276,16.276,0,0,0,1.182,2.737l5.185-2.16a2.334,2.334,0,0,1,3.089,1.32m3.1,13.662L47.179,42.424l-8.75,3.771,4.549,10.57c6.063-.938.595,2.462,9.63-1.861M35.389,65.984a21.451,21.451,0,0,0,8.149-.013c-2.1-2.677-4.509-3.549-2.664-7.539l-3.9-8.933L25.036,44.559a4.415,4.415,0,0,1,1.541,5.282,4.237,4.237,0,0,1-4.842,2.453,26.062,26.062,0,0,0-3.121-.742,22.132,22.132,0,0,0,8.269,10.906c1.323-1.631,2.834-2.887,4.208-4.381a4.3,4.3,0,0,1,6.085-.563,4.2,4.2,0,0,1,.469,5.984,17.1,17.1,0,0,0-2.256,2.487M16.21,52.684a12.316,12.316,0,0,0-1.5.659,1.272,1.272,0,0,1-1.657-.729,1.357,1.357,0,0,1,.662-1.633l3.726-2.126c.647-.369,1.333,0,2.141.185.285-.851.942-2.063.686-3.047-.589-.4-2.262-1.045-3.012-.693C14.6,46.547,12.3,48.1,9.768,49.507a4.231,4.231,0,0,0-2.034,4.635,8.329,8.329,0,0,1,7.487,4.03,8.451,8.451,0,0,1-.161,8.688c3.366,2.873,6.666-.657,10.068-2.449A25.5,25.5,0,0,1,16.21,52.684m6.062-2.956a1.582,1.582,0,0,0,1.982-1.171A1.479,1.479,0,0,0,23.1,46.669a13.49,13.49,0,0,0-.828,3.058m41.535,17a8.257,8.257,0,0,1-.017-8.719,8.173,8.173,0,0,1,7.376-3.838,4.27,4.27,0,0,0-2.19-4.771c-1.638-.882-3.061-1.9-4.917-2.747A25.073,25.073,0,0,1,53.819,64.38a45.031,45.031,0,0,0,5.451,3.189,3.791,3.791,0,0,0,4.537-.839m-51.9-.329a5.354,5.354,0,0,0,1-7.02,5.393,5.393,0,0,0-6.5-2.258,8.61,8.61,0,0,1,5.5,9.277m60.588-9.283a5.494,5.494,0,0,0-5.44,9.325,8.507,8.507,0,0,1,5.44-9.325M8.314,67.533c1.715-1.19,1.024-4.274.051-5.728-.816-1.219-3.278-3.2-4.765-2.18-1.65,1.128-1.046,4.256-.11,5.723.784,1.23,3.243,3.282,4.825,2.185m27.48-5.9a1.628,1.628,0,0,0-.2-2.036,1.477,1.477,0,0,0-2.032-.121,10.152,10.152,0,0,0,2.23,2.157m9.558-2.206a1.549,1.549,0,0,0-2.267.475,1.393,1.393,0,0,0,.139,1.728,13.051,13.051,0,0,0,2.128-2.2m29.927.207c-1.707-1-4.04,1.066-4.834,2.317-.92,1.45-1.486,4.67.175,5.628,1.713.989,4.117-1.071,4.9-2.395.854-1.45,1.405-4.591-.238-5.551M44.719,79.072a5.189,5.189,0,0,0-5.831-4.21,5.267,5.267,0,0,0-4.806,4.423c3.419-2.7,7.319-2.362,10.638-.213m-.667,3.791c-.323-2.185-3.248-2.975-4.979-2.888-1.437.073-4.261,1.2-4.278,2.97.191,1.982,3.016,3.039,4.78,3.034,1.513,0,4.747-1.291,4.477-3.116" transform="translate(0 0)" fill="#15342f"/>
      </g>
    </g>
  </g>
</svg>
