<svg id="Grupo_1179167" data-name="Grupo 1179167" xmlns="http://www.w3.org/2000/svg" xmlns:xlink="http://www.w3.org/1999/xlink" width="22" height="20.759" viewBox="0 0 22 20.759">
  <defs>
    <clipPath id="clip-path">
      <rect id="Rectángulo_455413" data-name="Rectángulo 455413" width="22" height="20.759" fill="#a0f7fe"/>
    </clipPath>
  </defs>
  <g id="Grupo_1179059" data-name="Grupo 1179059" clip-path="url(#clip-path)">
    <path id="Trazado_1002089" data-name="Trazado 1002089" d="M58.8,6.423h7.65A3.427,3.427,0,0,1,67.5,7.2a2.134,2.134,0,0,1-.593,3.208c0,.276.843.824.986,1.367A2.174,2.174,0,0,1,66.4,14.546a2.909,2.909,0,0,1-.452,2.686,5.655,5.655,0,0,1-.852.455c-.119.189.1.653.08.93A2.3,2.3,0,0,1,63.3,20.665a30.855,30.855,0,0,1-4.571.017c-2.063-.145-5.48-1.665-5.688-3.989a68.558,68.558,0,0,1,0-8.772c.092-1.27,2.219-5.663,2.988-6.82A2.235,2.235,0,0,1,59.776.94c1.133,1.7-.644,3.774-.972,5.483" transform="translate(-45.987 0)" fill="#a0f7fe"/>
    <path id="Trazado_1002090" data-name="Trazado 1002090" d="M1.015,48.667c.893-.161,3.545-.288,3.8.847l.034,12.27a1.331,1.331,0,0,1-1.126,1.1,13.925,13.925,0,0,1-2.707-.022,1.385,1.385,0,0,1-1-.957L0,49.745a1.169,1.169,0,0,1,1.015-1.078" transform="translate(0 -42.213)" fill="#a0f7fe"/>
  </g>
</svg>
