<svg xmlns="http://www.w3.org/2000/svg" xmlns:xlink="http://www.w3.org/1999/xlink" width="50" height="50" viewBox="0 0 50 50">
  <defs>
    <clipPath id="clip-path">
      <rect id="Rectángulo_455412" data-name="Rectángulo 455412" width="27" height="27" fill="#a0f7fe"/>
    </clipPath>
  </defs>
  <g id="Grupo_1177982" data-name="Grupo 1177982" transform="translate(-186.371 -923)">
    <rect id="Rectángulo_455048" data-name="Rectángulo 455048" width="50" height="50" transform="translate(186.371 923)" fill="#094959"/>
    <g id="Grupo_1179057" data-name="Grupo 1179057" transform="translate(198.371 935)">
      <g id="Grupo_1179056" data-name="Grupo 1179056" clip-path="url(#clip-path)">
        <path id="Trazado_1002087" data-name="Trazado 1002087" d="M99,4.346a4.227,4.227,0,0,1,3.864,6.225c2.8,1.839,2.861,4.945.618,7.265a4.192,4.192,0,0,1-1.836,6.253c-.51.2-1.69.3-1.9.444-.1.068-.313.8-.512,1.084-1.1,1.559-5.028,2.15-6.191.433L92.953,1.216c.349-1.5,3.694-1.239,4.719-.6,1.365.848,1.427,2.3,1.329,3.731" transform="translate(-78.073 -0.091)" fill="#a0f7fe"/>
        <path id="Trazado_1002088" data-name="Trazado 1002088" d="M2.1,23.168A4.462,4.462,0,0,1,1.72,17.52a.678.678,0,0,1-.481-.229A4.153,4.153,0,0,1,2.36,10.573,4.151,4.151,0,0,1,6.043,4.254C5.8,2.691,6.508.381,8.373.1c1.2-.18,3.664-.29,3.755,1.3l-.075,24.456c-.567,1.775-4.649,1.2-5.857.074a10.118,10.118,0,0,1-.947-1.555c-.138-.087-1.069-.131-1.492-.259a5.539,5.539,0,0,1-1.66-.945" transform="translate(0 0)" fill="#a0f7fe"/>
      </g>
    </g>
  </g>
</svg>
