<svg xmlns="http://www.w3.org/2000/svg" xmlns:xlink="http://www.w3.org/1999/xlink" width="80" height="80" viewBox="0 0 80 80">
  <defs>
    <clipPath id="clip-path">
      <rect id="Rectángulo_456531" data-name="Rectángulo 456531" width="54.666" height="54.581" fill="#12263f"/>
    </clipPath>
  </defs>
  <g id="Grupo_1191959" data-name="Grupo 1191959" transform="translate(-175.889 -5521)">
    <rect id="Rectángulo_402006" data-name="Rectángulo 402006" width="80" height="80" rx="5" transform="translate(175.889 5521)" fill="#a0f7fe"/>
    <g id="Grupo_1192165" data-name="Grupo 1192165" transform="translate(188.555 5533.709)">
      <g id="Grupo_1192164" data-name="Grupo 1192164" clip-path="url(#clip-path)">
        <path id="Trazado_1003668" data-name="Trazado 1003668" d="M169.908,205.766c.084,1.323-1.882,1.058-3.613.984a.876.876,0,0,1-.891-.984c.035-.541.451-.827,1.066-.828h2.373c.615,0,1.031.289,1.065.828" transform="translate(-135.323 -167.669)" fill="#12263f"/>
        <path id="Trazado_1003669" data-name="Trazado 1003669" d="M54.666,70.689c.024,2.854-1.721,5.178-4.622,5.185l-6.884.017a6.386,6.386,0,0,1-2.148-.359l-.065,4.343a3.3,3.3,0,0,1-1.2,2.539,3.537,3.537,0,0,1-2.938.676l-9.475-2.447-9.472,2.45a3.5,3.5,0,0,1-2.938-.676A3.466,3.466,0,0,1,13.7,79.7l-.05-4.165a6.2,6.2,0,0,1-1.965.354l-7.067-.013C1.71,75.869,0,73.521,0,70.782A8.608,8.608,0,0,1,4.367,62.81a4.547,4.547,0,1,1,7.765-.012,9.4,9.4,0,0,1,2.879,2.62,13.974,13.974,0,0,1,6.815-6.592,7.414,7.414,0,0,1-1.764-4.771l-.01-8.193a5.335,5.335,0,0,0-5.259-5.425l-6.549-.031c-1.323-.006-.714-1.762-1.037-2.413l-4.85,4.24L7.21,46.476c.317-.667-.286-2.412,1.03-2.408l4.733.013a3.534,3.534,0,0,1,3.437,3.6l0,12.722a.88.88,0,0,1-.823.893.866.866,0,0,1-.98-.89l-.018-12.718a1.774,1.774,0,0,0-1.8-1.809L9.19,45.9l-.047,2.7a.877.877,0,0,1-.435.775c-.2.093-.682.233-.935.012L.352,42.9a.924.924,0,0,1,0-1.327l7.316-6.4a.962.962,0,0,1,1.059-.06c.782.412.247,2.476.479,3.5l5.034-.012a7.4,7.4,0,0,1,7.639,7.269,30.916,30.916,0,0,0,.063,3.291,7.3,7.3,0,0,1,10.755-.02,15.5,15.5,0,0,0,.079-2.91,7.192,7.192,0,0,1,6.91-7.6l5.778-.038c.241-.956-.306-3.121.476-3.483.229-.106.688-.25.95-.021l7.421,6.484a.934.934,0,0,1,0,1.33l-7.428,6.475a.878.878,0,0,1-1.337-.59L45.482,45.9l-3.612-.018a1.769,1.769,0,0,0-1.8,1.806L40.05,59.5a.852.852,0,0,1-.818.892.883.883,0,0,1-.98-.889l0-11.81a3.584,3.584,0,0,1,3.613-3.62l4.558,0c1.3,0,.734,1.714,1,2.436l4.889-4.266-4.858-4.247c-.324.7.294,2.412-1.032,2.419l-6.544.032a5.4,5.4,0,0,0-5.281,5.61l-.005,8.191a7.31,7.31,0,0,1-1.748,4.586,14.012,14.012,0,0,1,6.809,6.592,9.486,9.486,0,0,1,2.876-2.62,4.552,4.552,0,1,1,7.77.01,8.6,8.6,0,0,1,4.367,7.881M32.786,54.058a5.452,5.452,0,1,0-5.452,5.452,5.452,5.452,0,0,0,5.452-5.452M10.958,60.419a2.716,2.716,0,1,0-2.716,2.716,2.716,2.716,0,0,0,2.716-2.716m38.187,0a2.72,2.72,0,1,0-2.72,2.72,2.72,2.72,0,0,0,2.72-2.72M33.723,71.131c.392-.139.492-1.111,1.158-.654,1.229.842.024.869,1.153,1.8A3.6,3.6,0,0,1,37.2,75.988c-.71,2.961-3.746,2.713-6.09,3.691,2,.649,3.975,1.179,6.045,1.64a1.823,1.823,0,0,0,1.508-.382,1.74,1.74,0,0,0,.479-1.24l-.005-8.559a11.639,11.639,0,0,0-7.9-10.949,7.357,7.357,0,0,1-7.876-.01,11.789,11.789,0,0,0-7.841,11.142l.007,8.376a1.673,1.673,0,0,0,.572,1.334,2.01,2.01,0,0,0,1.577.279l16.479-4.427a1.9,1.9,0,1,0-1.1-3.631L19.5,76.729a.944.944,0,0,1-1.243-.749c-.135-.552.462-.781.773-1.092.533-1.2-.666-4.544,1.113-4.439,1.426.084.546,2.7.895,4.021Zm-19.538-3.4a6.53,6.53,0,0,0-3.4-3.533,4.639,4.639,0,0,1-5.08,0C2.982,65.37,1.8,67.972,1.83,70.781c.022,1.838.974,3.3,2.975,3.292l7.084-.025c3.129-.011,1.052-2.753,2.3-6.315m35.774,6.328c2.019,0,2.854-1.543,2.88-3.275A6.669,6.669,0,0,0,48.962,64.2a4.634,4.634,0,0,1-5.078,0,6.523,6.523,0,0,0-3.392,3.508c.58,1.857.37,3.694.558,5.59.119.536,1.229.752,1.729.753Z" transform="translate(0 -28.605)" fill="#12263f"/>
        <path id="Trazado_1003670" data-name="Trazado 1003670" d="M121.825,7.113,117.61,2.289l-4.238,4.848c.678.347,2.391-.3,2.408,1.04l.069,5.455a.856.856,0,0,1-.87.888.894.894,0,0,1-.928-.92l-.08-4.456-2.73-.064a.863.863,0,0,1-.76-.421c-.1-.223-.245-.694-.02-.952L116.944.287a.916.916,0,0,1,1.335,0l6.4,7.309a.965.965,0,0,1,.047,1.075.99.99,0,0,1-.922.422l-2.532.027-.018,4.494a.9.9,0,1,1-1.793.007l-.019-5.446c0-1.293,1.6-.689,2.386-1.064" transform="translate(-90.277 0)" fill="#12263f"/>
      </g>
    </g>
  </g>
</svg>
