<svg xmlns="http://www.w3.org/2000/svg" xmlns:xlink="http://www.w3.org/1999/xlink" width="84" height="84" viewBox="0 0 84 84">
  <defs>
    <clipPath id="clip-path">
      <rect id="Rectángulo_456511" data-name="Rectángulo 456511" width="62.279" height="62.289" fill="#12263f"/>
    </clipPath>
  </defs>
  <g id="Grupo_1191897" data-name="Grupo 1191897" transform="translate(-706 -1685.277)">
    <g id="Grupo_1177731" data-name="Grupo 1177731">
      <g id="Grupo_1119665" data-name="Grupo 1119665" transform="translate(530.111 -3835.723)">
        <path id="Trazado_991847" data-name="Trazado 991847" d="M5,0H79a5,5,0,0,1,5,5V79a5,5,0,0,1-5,5H5a5,5,0,0,1-5-5V5A5,5,0,0,1,5,0Z" transform="translate(175.889 5521)" fill="#a0f7fe"/>
      </g>
      <g id="Grupo_1192125" data-name="Grupo 1192125" transform="translate(716.861 1696.133)">
        <g id="Grupo_1192124" data-name="Grupo 1192124" clip-path="url(#clip-path)">
          <path id="Trazado_1003505" data-name="Trazado 1003505" d="M125.813,38.82c-.642,1.24-.414,3.41-2.236,3.472-1.94.066-1.729-2.235-2.367-3.471l-2.876-.027a3.721,3.721,0,0,1-3.643-3.8l0-1.969a3.785,3.785,0,0,1,3.759-3.854h10.128a3.786,3.786,0,0,1,3.758,3.855l0,1.967a3.716,3.716,0,0,1-3.642,3.8Zm-.56-1.88,3.512-.017c2.041-.01,1.8-2.775,1.731-4.058A1.969,1.969,0,0,0,128.38,31l-9.937.018a1.94,1.94,0,0,0-1.935,2.01l.006,1.97a1.918,1.918,0,0,0,1.923,1.945l3.331,0c1.436,0,1.081,1.764,1.742,2.77.67-1.016.3-2.762,1.742-2.769" transform="translate(-92.372 -23.493)" fill="#12263f"/>
          <path id="Trazado_1003506" data-name="Trazado 1003506" d="M236.678,9.684l-2.444,3.051a1.276,1.276,0,0,1-1.357.463c-1.423-.466-.93-2.053-.974-3.58-2.286-.649-2.949-2.508-2.973-4.693S229.742.19,232.3.169L242.764.084a3.792,3.792,0,0,1,3.882,3.677c.027.749.014,1.432,0,2.166a3.79,3.79,0,0,1-3.879,3.767ZM235.85,7.9l6.921-.012a2.008,2.008,0,0,0,2.059-2c.016-.7.029-1.362-.005-2.076a1.941,1.941,0,0,0-1.908-1.894L232.85,1.9a1.926,1.926,0,0,0-1.957,1.658c-.172,1.845-.334,4.137,1.786,4.311,1.485.122.791,1.5,1.118,2.4Z" transform="translate(-184.383 -0.068)" fill="#12263f"/>
          <path id="Trazado_1003507" data-name="Trazado 1003507" d="M12.875,10.166c.277-.658-.3-2.251.959-2.337a1.942,1.942,0,0,0,1.95-1.781c.063-1.372.394-4.2-1.8-4.2l-10.233,0a1.919,1.919,0,0,0-1.916,1.89L1.819,5.644a2.229,2.229,0,0,0,.718,1.7c1.058.93,2.409.035,3.027.839a.945.945,0,0,1,.091.9c-.2.559-.668.473-1.163.53A3.855,3.855,0,0,1,.014,5.856C0,5.14-.01,4.422.015,3.707A3.855,3.855,0,0,1,4.1,0L14.184.066c2.544.017,3.555,2.385,3.547,4.606-.008,2.238-.594,4.221-2.975,4.878-.043,1.569.431,2.928-.829,3.52a1.243,1.243,0,0,1-1.5-.405l-2.4-3c-.784-.186-2.292.3-2.412-.813-.035-.328.1-.955.643-.974,3.765-.132,2.01-.331,4.619,2.287" transform="translate(0 0)" fill="#12263f"/>
          <path id="Trazado_1003508" data-name="Trazado 1003508" d="M43.657,112.383a19.71,19.71,0,0,0-2.861.577v9.228a8.318,8.318,0,0,1,2.5,1.417l12.034-.019c.348-1.1-.549-3.922,1.043-3.819a.927.927,0,0,1,.877.953l.012,2.793a11.593,11.593,0,0,0,3.2,0c.181-1.249-.78-3.7.629-3.876a.916.916,0,0,1,1.03.895l.187,2.533a2.049,2.049,0,0,1-1.946,2.342l-15.852.048a18.982,18.982,0,0,1,.413,3.285l.255,4.026a2.794,2.794,0,0,1-2.906,2.944H20.106A2.8,2.8,0,0,1,17.2,132.77l.264-4.187a17.666,17.666,0,0,1,.407-3.133l-14.89-.024a2.872,2.872,0,0,1-2.914-3.147l.313-4.87c.173-2.694,1.712-5.05,4.4-5.619l5.941-1.257a2.944,2.944,0,0,0-.034-1.78,6.815,6.815,0,0,1-2.724-4.54A2.567,2.567,0,0,1,6.4,101.851l0-4.487a5.986,5.986,0,0,1,5.732-6.155l3.107-.031c2.592-.026,2.437,1.207,4.276,1.324a4.033,4.033,0,0,1,3.779,4.084l0,5.269a2.509,2.509,0,0,1-1.56,2.351,6.939,6.939,0,0,1-2.808,4.639c-.327.263-.237,1.3-.053,1.633l2.807.715c-.3-5.8,4.091-9.825,9.71-9.764,5.353.057,9.7,3.971,9.393,9.584a23.85,23.85,0,0,0,2.623-.508,3.64,3.64,0,0,0,.025-1.634c-1.634-.839-1.953-2.674-2.76-4.031-.454-.763-1.377-.968-1.363-2.248l.065-6.023a5.5,5.5,0,0,1,5.254-5.331,51.815,51.815,0,0,1,5.774.006A5.5,5.5,0,0,1,55.627,96.6l.068,5.99c.014,1.28-.966,1.509-1.393,2.277-.8,1.441-1.139,3.032-2.691,4.032-.335.216-.079,1.211-.063,1.575l5.961,1.279c3.844.825,5.3,5.594,3.692,5.98-1.983.476-.209-3.433-4.314-4.255l-5.554-1.112a4.009,4.009,0,0,1-7.676.015M21.441,98.708a15.5,15.5,0,0,0,.019-2.32,2.3,2.3,0,0,0-2.511-2.105c-1.8.08-1.236-1.959-7.373-1.113C9.058,93.517,7.8,96.353,8.292,98.9c2.586,1.033,6.013-.118,8.35-1.445,2.361-1.34,3.424.451,4.8,1.257M50.252,94.62a2.523,2.523,0,0,1,2.724,2.558l.011,2.373c.165.161.751.087.772-.253a23.864,23.864,0,0,0,.012-2.717,3.8,3.8,0,0,0-3.889-3.556l-4.69-.005a3.878,3.878,0,0,0-4.007,3.615,20.171,20.171,0,0,0,0,2.685c.021.325.561.354.8.267a16.244,16.244,0,0,0,.034-2.213A2.544,2.544,0,0,1,44.8,94.617a2.958,2.958,0,0,1,1.958.61c1.09.947,1.1-.526,3.489-.607m3.4,8.209a1.416,1.416,0,0,0,.036-1.291c-.19-.419-1.038.7-1.815.357-1.457-.641-.312-3.159-.892-5.072-.211-.695-1.437-.337-1.837-.03a2.74,2.74,0,0,1-3.5-.11c-.394-.305-1.535-.425-1.67.147-.47,2,.5,4.507-.812,5.033-.984.4-1.071-.481-1.882-.368-.2.27-.272,1.19.06,1.373.411.226.909.113,1.1.455a2.851,2.851,0,0,1,.229,1.08,4.9,4.9,0,0,0,9.67-.221,1.594,1.594,0,0,1,.32-1c.211-.224.776-.081.99-.356M17.46,107.636a5.44,5.44,0,0,0,2.577-4.523c.013-.486.829-.521,1.157-.734.383-.249.472-1.255.079-1.5-2.172-1.365-2.536-2.5-3.783-1.807-2.6,1.447-6.032,2.583-9.1,1.764-.2.407-.342,1.212.125,1.531.373.255,1.184.278,1.19.888a5.3,5.3,0,0,0,2.615,4.426,4.223,4.223,0,0,0,5.136-.044m21.463,3.019c.244-4.378-3.452-7.55-7.725-7.338-2.26.112-4.26.564-5.767,2.252a6.81,6.81,0,0,0-1.79,5.706c4.089,1.326,8.466-.861,11.678-3.153,1.5-1.071,1.271,1.848,3.6,2.533m-22.07,1.209A3.6,3.6,0,0,0,16.868,110a5.7,5.7,0,0,1-4.119-.015,3.26,3.26,0,0,0-.079,1.607,2.126,2.126,0,0,0,2.1,1.844,2.151,2.151,0,0,0,2.082-1.568m32.7,0a3.846,3.846,0,0,0,.015-1.92,7.4,7.4,0,0,1-4.155.017c-.416,1.692.28,3.249,1.829,3.423a2.128,2.128,0,0,0,2.31-1.52m-13.7,2.827.008-3.86a.429.429,0,0,0-.742-.369,17.985,17.985,0,0,1-8.344,3.049,4.556,4.556,0,0,0,1.829,4.55c.766.609,1.508,1.458,2.595,1.511,1.353.067,4.65-2.49,4.655-4.881m-.764,6.558c1.42.392,2.557.417,3.869.668l-.027-9.181c-.073-.335-.911-.472-1.171-.5-.09,3.19.028,5.12-2.715,7.31-.343.274-.379,1.587.043,1.7m-28.194-.442.023,2.764,12.168-.037c.826-.334,1.636-1.245,2.61-1.373l-.023-9.153-3.01-.614a4.038,4.038,0,0,1-7.728-.015l-5.792,1.2a3.633,3.633,0,0,0-2.862,3.281l-.395,5.5a1.032,1.032,0,0,0,.761,1.173,7.71,7.71,0,0,0,2.369-.011c.363-1.268-.544-3.744.973-3.749a.936.936,0,0,1,.9,1.035m17.975-7.249a1.5,1.5,0,0,0-1.322-.265l.018,8.59,3.918-.679c.8-2.995-2.806-1.9-2.613-7.645m11.727,9.915c-1.812-.608-3.27.052-3.664-2.4A4.38,4.38,0,0,1,29.482,121c-.462,2.418-1.661,1.88-3.7,2.44a6.3,6.3,0,0,0,5.321,3,6.407,6.407,0,0,0,5.491-2.962m3.458,7.35c1.526-.041.647,2.305,1.055,2.971.33.29,1.184.134,1.633-.008a1,1,0,0,0,.624-1l-.442-5.916c-.152-2.04-2.349-3.17-4.342-3.119a8.31,8.31,0,0,1-14.761.032c-2.43-.023-4.288,1.054-4.461,3.746l-.34,5.256a1.009,1.009,0,0,0,.9,1.091,3.945,3.945,0,0,0,1.487-.029c.266-.951-.456-3,.946-3.026,1.428-.026.72,1.992.98,3.075l15.783.012c.254-1.056-.465-3.046.938-3.084" transform="translate(-0.049 -73.422)" fill="#12263f"/>
        </g>
      </g>
    </g>
  </g>
</svg>
