<svg xmlns="http://www.w3.org/2000/svg" xmlns:xlink="http://www.w3.org/1999/xlink" width="150" height="150" viewBox="0 0 150 150">
  <defs>
    <clipPath id="clip-path">
      <rect id="Rectángulo_456513" data-name="Rectángulo 456513" width="84.331" height="86.19" fill="#15342f"/>
    </clipPath>
  </defs>
  <g id="Grupo_1191900" data-name="Grupo 1191900" transform="translate(-383.746 -8400)">
    <circle id="Elipse_13609" data-name="Elipse 13609" cx="75" cy="75" r="75" transform="translate(383.746 8400)" fill="#fff"/>
    <g id="Grupo_1192129" data-name="Grupo 1192129" transform="translate(416.58 8431.904)">
      <g id="Grupo_1192128" data-name="Grupo 1192128" clip-path="url(#clip-path)">
        <path id="Trazado_1003522" data-name="Trazado 1003522" d="M29.621,22.72c-4.744,1.386-6.791,4.1-9.318,1.575l-3.361-3.352a.863.863,0,0,0-.98-.009L9.135,27.911l3.954,4.107a3.169,3.169,0,0,1,.406,3.7,32.839,32.839,0,0,0-2.342,5.653c-1.118,3.457-6.043,1.669-8.622,2.393L2.61,53.985c3.044.612,7.512-1.151,8.566,2.325A37.92,37.92,0,0,0,13.622,62.2c1.514,3.061-2.934,5.139-4.493,7.547L15.6,76.359a1,1,0,0,0,1.536.135l3.242-3.25a3.248,3.248,0,0,1,3.843-.593,33.768,33.768,0,0,0,5.658,2.341c3.558,1.12,1.6,5.894,2.394,8.624,3.205.18,6.238.061,9.351.074a.931.931,0,0,0,1.017-1.022l.005-4.594a3.14,3.14,0,0,1,2.133-3.051,37.027,37.027,0,0,0,5.879-2.434c3.167-1.633,5.2,2.91,7.67,4.422l6.646-6.518a.938.938,0,0,0,.16-1.353L61.67,65.628a3.161,3.161,0,0,1-.424-3.8,26.757,26.757,0,0,0,2.185-5.25c1.12-3.839,5.258-1.97,8.644-2.6l.059-10.3c-3.268-.546-7.588,1.192-8.726-2.719-1.5-5.171-4.058-6.317-1.453-9.408a28.967,28.967,0,0,1-3.939-2.187c-.55-.312-2.958,2.412-4.781.23-1.118-1.337-1.546-3.227-2.824-4.469-1.323-1.286-3.443-1.712-5.15-2.335-4.01-1.464-2.14-4.707-2.694-8.529-.632-.621-3.637.407-3.482-1.644.146-1.936,3.954-1.2,4.826-.508,2.175,1.727.772,5.076,1.339,7.941a42.129,42.129,0,0,1,4.785,1.872l2.7-1.707c-.521-4.268.932-4.226-1.239-5.339A2.465,2.465,0,0,1,50.2,11.466l2.726-4.781a2.548,2.548,0,0,1,3.8-.736c.288.2.912.7,1.258.6a33.2,33.2,0,0,1,3.8-2.227c.354-.2.2-1.206.187-1.616A2.462,2.462,0,0,1,64.517.01L69.645,0a2.575,2.575,0,0,1,2.686,2.725c.05,2.373-.377,1.009,3.838,3.73.4.257,1.149-.374,1.511-.6a2.571,2.571,0,0,1,3.639.79l2.647,4.609a2.533,2.533,0,0,1-1.161,3.6c-.33.174-1.111.472-1.245.845.47,4.176-.959,4.229,1.116,5.228A2.569,2.569,0,0,1,83.964,24.6c-1.017,1.674-1.839,3.441-3,5.038-.857,1.176-2.618.924-3.654.127-.363-.279-.962-.6-1.351-.292A24.4,24.4,0,0,1,72.526,31.5c-.439.247.379,4.232-2.354,4.283l-5.965.112c.73,1.665,1.286,3.328,1.931,5.048,1.966.207,3.724,0,5.632.1a3.15,3.15,0,0,1,2.951,3.1l-.047,9.643a3.05,3.05,0,0,1-2.858,2.775c-1.986.167-3.8-.138-5.736.16a35.563,35.563,0,0,1-2.51,6.094,1.266,1.266,0,0,0,.385,1.576l3.093,3.086a3.124,3.124,0,0,1-.03,4.49L60.564,78.43a3.179,3.179,0,0,1-4.518.076l-3.93-3.82a44.732,44.732,0,0,1-6.886,2.871l-.148,5.906c-.044,1.747-1.774,2.728-3.435,2.727l-8.636,0a3.3,3.3,0,0,1-3.449-3.249c-.056-1.805.088-3.506-.093-5.4a46.529,46.529,0,0,1-6.885-2.845L18.52,78.627a3.085,3.085,0,0,1-4.262-.1L7.543,71.792a3.04,3.04,0,0,1-.132-3.975l4.063-4.268A42.089,42.089,0,0,1,8.646,56.7C5.955,56.2-.006,57.988,0,53.3l.011-9.086a3.046,3.046,0,0,1,2.9-3.157l5.672-.108a43.547,43.547,0,0,1,2.907-6.823c-1.2-1.627-2.728-2.705-4.026-4.261a3.1,3.1,0,0,1,.025-3.956l6.87-6.893a3.134,3.134,0,0,1,4.207-.01l4.051,3.905A42.225,42.225,0,0,1,29.439,20.1L29.6,14.32c.062-2.184,2.178-3.092,4.228-2.884.592.06,1.127-.028,1.49.384a1.3,1.3,0,0,1,.252,1.383c-.545,1.373-2.835.41-3.358,1.058-.647,2.985,1.239,7.339-2.593,8.459M69.626,33.327c.127-5.313,1.657-3.177,4.962-6,2.1-1.794,3.486.48,4.63.352a43.614,43.614,0,0,0,2.538-4.413C77.321,21.3,79.744,20.141,79,15.89c-.374-2.148,1.781-2.579,2.74-3.455L79.088,7.977c-4.16,2.783-3.72.1-7.913-1.4-1.9-.679-1.186-3.052-1.571-4.051l-5.058.017c.049,5.192-1.529,3.162-4.9,6.012-2.1,1.776-3.69-.655-4.619-.386a29.368,29.368,0,0,0-2.445,4.442c3.946,1.976,2.244,2.158,2.676,7.848.109,1.435-1.455,2.167-2.679,2.771a24.739,24.739,0,0,0,2.464,4.438c.4.627,2.47-2.241,4.579-.389,3.3,2.9,4.935.7,4.957,6.082Z" transform="translate(0 0)" fill="#15342f"/>
        <path id="Trazado_1003523" data-name="Trazado 1003523" d="M77.663,116.374l3.383.1a7.043,7.043,0,1,1,11.336,6.783,10.971,10.971,0,0,1,4.926,5.556c1.4-1.986.52-5.421,2.615-5.188A1.236,1.236,0,0,1,101,125.163a21.932,21.932,0,1,1,.022-6.263,1.256,1.256,0,0,1-1.108,1.271,1.24,1.24,0,0,1-1.4-1.064,19.343,19.343,0,1,0-37.158,9.822,11.007,11.007,0,0,1,5.019-5.59,7.163,7.163,0,0,1-2.183-8.125,7.041,7.041,0,0,1,13.467,1.16M75.3,117.4a4.588,4.588,0,0,0-5.208-4.12,4.534,4.534,0,0,0-3.813,4.994,4.485,4.485,0,0,0,5.09,3.948A9.228,9.228,0,0,1,75.3,117.4M87.365,122.3a4.647,4.647,0,0,0,5.11-4.121,4.516,4.516,0,1,0-9-.729,8.793,8.793,0,0,1,3.893,4.849m-2.19,2.443a5.808,5.808,0,1,0-5.808,5.809,5.808,5.808,0,0,0,5.808-5.809M74.5,131.556a8.894,8.894,0,0,1-3.534-6.707,7.385,7.385,0,0,0-7.53,8.012,18.15,18.15,0,0,0,5.053,4.98,12.6,12.6,0,0,1,6.011-6.285m15.827,6.251a19.137,19.137,0,0,0,4.936-4.954,7.3,7.3,0,0,0-7.556-8.011,8.593,8.593,0,0,1-3.475,6.715,12.933,12.933,0,0,1,6.1,6.25m-2.271,1.3a9.163,9.163,0,0,0-9.114-6.006,8.945,8.945,0,0,0-8.2,6.115,18.994,18.994,0,0,0,17.316-.109" transform="translate(-42.004 -73.088)" fill="#15342f"/>
        <path id="Trazado_1003524" data-name="Trazado 1003524" d="M234.616,43.334a8.566,8.566,0,1,1-8.566-8.566,8.566,8.566,0,0,1,8.566,8.566m-2.523,0a6.042,6.042,0,1,0-6.042,6.042,6.042,6.042,0,0,0,6.042-6.042" transform="translate(-158.923 -25.406)" fill="#15342f"/>
      </g>
    </g>
  </g>
</svg>
