<svg xmlns="http://www.w3.org/2000/svg" xmlns:xlink="http://www.w3.org/1999/xlink" width="84" height="84" viewBox="0 0 84 84">
  <defs>
    <clipPath id="clip-path">
      <rect id="Rectángulo_456533" data-name="Rectángulo 456533" width="59.528" height="59.522" fill="#12263f"/>
    </clipPath>
  </defs>
  <g id="Grupo_1192004" data-name="Grupo 1192004" transform="translate(-706 -1685.278)">
    <g id="Grupo_1177731" data-name="Grupo 1177731">
      <g id="Grupo_1119665" data-name="Grupo 1119665" transform="translate(530.111 -3835.723)">
        <path id="Trazado_991847" data-name="Trazado 991847" d="M5,0H79a5,5,0,0,1,5,5V79a5,5,0,0,1-5,5H5a5,5,0,0,1-5-5V5A5,5,0,0,1,5,0Z" transform="translate(175.889 5521)" fill="#a0f7fe"/>
      </g>
      <g id="Grupo_1192169" data-name="Grupo 1192169" transform="translate(718.236 1697.517)">
        <g id="Grupo_1192168" data-name="Grupo 1192168" clip-path="url(#clip-path)">
          <path id="Trazado_1003691" data-name="Trazado 1003691" d="M53.737,38.434a4.876,4.876,0,0,1-4.887,5.716,4.93,4.93,0,0,1-4.664-5.759l-6.726.007-.068,6.248a12.711,12.711,0,0,1-1,4.042,3.068,3.068,0,0,1,.1,4.534l-.031,6.3H23.086l-.032-6.3a3.063,3.063,0,0,1,.289-4.685,7.525,7.525,0,0,1-1.218-3.708l-.008-4.836a2.37,2.37,0,0,1,1.318-1.607l-8.1.036a4.843,4.843,0,1,1-9.528.035c-1.8-.432-5.788.927-5.79-2.016L0,19.347C0,16.3,3.712,17.589,5.78,17.23a13.648,13.648,0,0,1,1.076-6.4A3.033,3.033,0,0,1,6.7,6.319L6.722.014,20.146,0l.031,6.291a3.059,3.059,0,0,1-.312,4.687c1.547,2.618,1.116,3.5,1.37,6.288l3.744,0a4.868,4.868,0,1,1,9.581,0l3.75-.018c.235-2.768-.173-3.663,1.362-6.265a3.056,3.056,0,0,1-.308-4.686L39.376.023l13.408,0c.359,2.025-.417,4.311.258,6.223.635,1.605,1.324,3.255-.411,4.64a12.53,12.53,0,0,1,1.138,6.347c1.777.342,5.753-.861,5.754,1.931l.006,17.279c0,2.884-3.842,1.634-5.791,1.994M18.227,9.593a.985.985,0,0,0,.913-.79c.056-.323.049-1.074-.4-1.086l-4.308-.113a7.564,7.564,0,0,1,.038-1.842L18.2,5.738l.016-3.79L8.7,1.917a24.509,24.509,0,0,0-.011,3.8l3.744.049a4.621,4.621,0,0,1,.008,1.854l-4.248.085c-.5.01-.565.852-.433,1.168a1.284,1.284,0,0,0,1.19.753Zm32.443.019a1.172,1.172,0,0,0,1.148-.867c.071-.3-.024-1.036-.472-1.044L47.1,7.625a4.464,4.464,0,0,1,.014-1.847l3.769-.073.012-3.748L41.349,1.92l-.015,3.818,3.736.025a5.881,5.881,0,0,1,0,1.865c-1.5.111-2.86-.115-4.281.1-.477.071-.472.881-.36,1.2a1.159,1.159,0,0,0,1.1.707ZM15.363,19.269,15.382,24a.923.923,0,0,0,1.057.931c1.387-.132.685-2.943.784-4.361a3.72,3.72,0,0,1-1.81-3.25,8.331,8.331,0,0,1,1.825,0,1.969,1.969,0,0,0,1.931,1.837c-.052-2.722.57-5.58-1.341-7.619l-9.176.01A10.329,10.329,0,0,0,7.685,15.8v6.3a1.015,1.015,0,0,0,.969.938c1.546,0,.708-2.765,1.009-3.814a5.852,5.852,0,0,1,1.881.048l.005,4.715A.945.945,0,0,0,13.44,24l.04-4.751a5.366,5.366,0,0,1,1.883.023m30.7.952L46.1,24a.928.928,0,0,0,1.04.93.913.913,0,0,0,.851-.94l.032-3.81a11.665,11.665,0,0,1,1.838.008c.268.772-.409,2.837,1.025,2.846a1,1,0,0,0,.967-.931l.009-6.117a10.548,10.548,0,0,0-.978-4.436l-9.17-.011c-1.907,2.013-1.3,4.918-1.337,7.607A1.952,1.952,0,0,0,42.3,17.323a8.159,8.159,0,0,1,1.825-.008,3.71,3.71,0,0,1-1.814,3.25c.117,1.452-.663,4.461.953,4.366a.911.911,0,0,0,.891-.937l.047-3.782a5.74,5.74,0,0,1,1.86.008M33.553,34.685a2.984,2.984,0,0,1,3.7,1.75h3.07l-.051-3.824a4.837,4.837,0,1,1,.016-9.517,6.554,6.554,0,0,0-.021-1.966,2.016,2.016,0,0,1-1.876-1.882c-1.262-.118-2.5-.023-3.793-.055a2.023,2.023,0,0,1-1.948-2.409,2.913,2.913,0,1,0-5.762,0,1.984,1.984,0,0,1-1.752,2.384l-3.988.062a2.016,2.016,0,0,1-1.878,1.894A4.67,4.67,0,0,0,19.3,23.1a4.808,4.808,0,0,1,5.652,4.868,4.9,4.9,0,0,1-5.691,4.648,26.949,26.949,0,0,0-.015,3.849l4.811-.093a3.137,3.137,0,0,1,1.294-3.3c1.21-.853,2.333-.155,3.494.082.824-.1,1.8-.869,2.94-.338a3.9,3.9,0,0,1,1.764,1.87M19.819,30.706a2.924,2.924,0,0,0,3.158-2.245,2.837,2.837,0,0,0-1.713-3.27,3.347,3.347,0,0,0-2.169-.165,3.948,3.948,0,0,1-1.94,1.755c-1.112.464-1.944-.468-2.755-.387-1.007.1-1.77.8-3.031.3-.66-.262-1.185-1.176-1.774-1.766-.7-.222-1.889.244-2.661-.516-1.777-1.75-.967-2.594-1.187-5.2L1.95,19.2,1.931,36.424l3.84.048a2,2,0,0,1,1.909,2.4,2.919,2.919,0,1,0,5.769-.005,2.035,2.035,0,0,1,2-2.4,15.814,15.814,0,0,0,1.8-.039l.05-3.866c.017-1.307,1.182-1.962,2.525-1.848m22.474,5.729c.71.056,1.232.013,1.8.023a2.038,2.038,0,0,1,2,2.406,2.919,2.919,0,1,0,5.769.005,1.993,1.993,0,0,1,1.911-2.4l3.837-.048,0-17.2L53.791,19.2c-.211,2.442.575,3.567-1.181,5.2-.775.72-1.941.389-2.72.506A4.649,4.649,0,0,1,48,26.748c-1.19.48-1.989-.376-2.917-.354-.893.022-1.712.865-2.837.323-2.457-1.183-.658-1.776-2.809-1.77a2.911,2.911,0,0,0-2.947,3.046,2.953,2.953,0,0,0,3.323,2.718,2.057,2.057,0,0,1,2.451,2.021Zm-6.779.949a.937.937,0,0,0-.99-.894.967.967,0,0,0-.906,1.07l-.025,2.706a4.745,4.745,0,0,1-1.883,0L31.692,35.7c0-.638-.315-1.085-.893-1.122a.917.917,0,0,0-1.017.941l-.038,4.754a5.169,5.169,0,0,1-1.857,0L27.815,35.4a.9.9,0,0,0-1.1-.807c-1.327.211-.657,2.973-.753,4.337a3.819,3.819,0,0,1,1.865,3.254,4.688,4.688,0,0,1-1.9-.008,1.828,1.828,0,0,0-1.909-1.8l.014,4.3a4.5,4.5,0,0,0,1.406,3.261l9.125.036a10.617,10.617,0,0,0,.967-4.449Zm-.95,20.2-.006-3.8-3.783-.045a6.446,6.446,0,0,1,.019-1.834l4.295-.129c.475-.014.489-.866.351-1.183a1.048,1.048,0,0,0-.9-.656H25a1.035,1.035,0,0,0-.946.794c-.1.379.007,1.08.51,1.089l4.183.071a4.9,4.9,0,0,1-.026,1.868l-3.761.022.034,3.8Z" transform="translate(0)" fill="#12263f"/>
        </g>
      </g>
    </g>
  </g>
</svg>
