<svg xmlns="http://www.w3.org/2000/svg" xmlns:xlink="http://www.w3.org/1999/xlink" width="84" height="84" viewBox="0 0 84 84">
  <defs>
    <clipPath id="clip-path">
      <rect id="Rectángulo_456506" data-name="Rectángulo 456506" width="67.816" height="51.498" fill="#12263f"/>
    </clipPath>
  </defs>
  <g id="Grupo_1179179" data-name="Grupo 1179179" transform="translate(-706 -1685.277)">
    <g id="Grupo_1177731" data-name="Grupo 1177731">
      <g id="Grupo_1119665" data-name="Grupo 1119665" transform="translate(530.111 -3835.723)">
        <path id="Trazado_991847" data-name="Trazado 991847" d="M5,0H79a5,5,0,0,1,5,5V79a5,5,0,0,1-5,5H5a5,5,0,0,1-5-5V5A5,5,0,0,1,5,0Z" transform="translate(175.889 5521)" fill="#a0f7fe"/>
      </g>
      <g id="Grupo_1192115" data-name="Grupo 1192115" transform="translate(714.092 1701.528)">
        <g id="Grupo_1192114" data-name="Grupo 1192114" clip-path="url(#clip-path)">
          <path id="Trazado_1003492" data-name="Trazado 1003492" d="M46.829,116.953a23.181,23.181,0,0,1-3.6,4.141,2.553,2.553,0,0,0-1.2,2.088v5.059a3.116,3.116,0,0,1-3.145,3.2l-9.825.009a3.17,3.17,0,0,1-3.292-3.211l-.011-5.158a2.116,2.116,0,0,0-.843-1.7,20.4,20.4,0,0,1-3.89-4.447,17.172,17.172,0,0,1-4.753,5.015l-.01,6.29a3.108,3.108,0,0,1-3.12,3.195l-10.016,0A3.123,3.123,0,0,1,0,128.248l0-4.461a7.843,7.843,0,0,1,6.456-7.694,5.792,5.792,0,0,1-.229-7.007,5.639,5.639,0,0,1,6.429-2.043,5.885,5.885,0,0,1,3.879,5.736c3.212-2.428-2.46-4.449.652-7.723,1.226-1.29,2.571-.312,3.862-.257,1.087.047,2.314-1.025,3.533.016,2.252,1.925.852,3.734-.238,6.161a12.989,12.989,0,0,0,4.612,4.42,5.934,5.934,0,0,1,1.092-7.2,5.68,5.68,0,0,1,7.337-.309,5.867,5.867,0,0,1,1.541,7.376,13.073,13.073,0,0,0,4.5-4.271l-1.062-2.384a3.079,3.079,0,0,1,.575-3.534c1.252-1.329,2.592-.324,3.88-.278,1.11.039,2.326-.974,3.492,0,2.766,2.3.114,4.589-.113,6.339-.074.572.615,1.128,1.038,1.626a6.015,6.015,0,0,1,3.677-5.628,5.655,5.655,0,0,1,6.684,1.981,5.826,5.826,0,0,1-.233,7,7.812,7.812,0,0,1,6.44,7.676l.006,4.458a3.143,3.143,0,0,1-3.2,3.205l-9.827,0a3.154,3.154,0,0,1-3.234-3.209l-.02-6.286a16.68,16.68,0,0,1-4.7-5m-6.753,5.554c.024-2.073,2.445-2.978,4.547-6.061a49.11,49.11,0,0,0,4.774-8.809.812.812,0,0,0-.559-1.213.94.94,0,0,0-.927.678,22.2,22.2,0,0,1-6.677,9.148,11.66,11.66,0,0,1-15-.192,22.952,22.952,0,0,1-6.372-9.038.867.867,0,0,0-1.157-.528.848.848,0,0,0-.318,1.08c1.5,3.527,4.651,9.684,7.61,12.037a4.411,4.411,0,0,1,1.836,3.482l.019,5.161a1.033,1.033,0,0,0,.988,1.131l10.044.011a1.129,1.129,0,0,0,1.126-1.161ZM23.719,107.3c.012-.661-.4-.94-.847-.882a.736.736,0,0,0-.607.96,5.132,5.132,0,0,0,.781,1.4,4.1,4.1,0,0,0,.673-1.482m21.854-.208c.03-.547-.565-.742-.933-.657a.713.713,0,0,0-.544.742,2.909,2.909,0,0,0,.706,1.563,3.567,3.567,0,0,0,.771-1.648M14.435,112.4a3.614,3.614,0,1,0-3.614,3.614,3.614,3.614,0,0,0,3.614-3.614m23.124,0a3.653,3.653,0,1,0-3.653,3.653,3.653,3.653,0,0,0,3.653-3.653m23.057,0A3.617,3.617,0,1,0,57,116.02a3.617,3.617,0,0,0,3.617-3.617M5.908,124.132l.045,5.255,6.989.021a1.178,1.178,0,0,0,1.289-1.21l.075-7.218c.007-.651.949-.732,1.35-1.046A16.032,16.032,0,0,0,19.735,115a3.4,3.4,0,0,0-.946-1.618c-4.75,6.413-5.587,4.313-11.717,4.8a5.568,5.568,0,0,0-5.006,5.595l.006,4.473a1.161,1.161,0,0,0,.57,1.032c.26.128,1.139.247,1.144-.109l.068-5.14a1.032,1.032,0,1,1,2.054.107M64,129.211c.027.338.824.2,1.078.1a1.047,1.047,0,0,0,.676-.866l.015-4.679c.009-2.777-2.072-5.534-4.891-5.572l-5.809-.08c-2.543-.035-4.628-2.91-6.068-4.732-.414.495-.937,1.152-.9,1.682a18.25,18.25,0,0,0,3.607,4.538c.556.5,1.334.613,1.84,1.209l.1,7.656a.952.952,0,0,0,.915.914l7.279.016.063-5.34a1.063,1.063,0,0,1,.995-1.088c1.684-.056.862,3.214,1.1,6.244" transform="translate(0 -79.955)" fill="#12263f"/>
          <path id="Trazado_1003493" data-name="Trazado 1003493" d="M90.032,20.4l-18.438.04a4.368,4.368,0,0,1-4.03,3.172,4.242,4.242,0,0,1-4.242-3.166L45.079,20.42a1.191,1.191,0,0,1-1.314-1.234V4.413c0-1.9,2.731-.919,4.383-1.19A4.444,4.444,0,0,1,52.226,0a4.395,4.395,0,0,1,4.291,3.223l21.837.013A4.391,4.391,0,0,1,82.438.007a4.3,4.3,0,0,1,4.24,3.165c1.4.373,4.438-.654,4.439,1.153l0,14.951A1.093,1.093,0,0,1,90.032,20.4M58.707,15.887a4.245,4.245,0,0,1-3.08-4.195,4.308,4.308,0,0,1,3.111-4,5.677,5.677,0,0,0,.031-2.356l-2.956-.027a1.188,1.188,0,0,1-1.267-1.144A2.206,2.206,0,0,0,52.208,2.06c-2.759.139-1.408,3.3-3.178,3.234l-3.2.063.021,12.976,12.906,0a5.151,5.151,0,0,0-.054-2.443m17.463,2.47,12.9-.054,0-12.948-3.329-.078c-1.452.223-.412-3.409-3.363-3.215-2.736.18-1.321,3.2-3.165,3.236l-3.159.054a7.606,7.606,0,0,0,.024,2.322,4.3,4.3,0,0,1,3.169,4.236,4.39,4.39,0,0,1-3.227,4.077c.034.891-.219,1.682.153,2.37M71,18.318a15.011,15.011,0,0,0,2.92-.082l.053-3.186c.029-1.727,3.1-.345,3.2-3.141A2.173,2.173,0,0,0,75.029,9.6c-1.83-.126-.709-2.96-1.163-4.289l-12.893.015c-.313,1.269.59,4.159-1.047,4.255A2.263,2.263,0,0,0,57.681,11.7a2.185,2.185,0,0,0,2.053,2.289c1.933.138.9,2.689,1.234,4.288,1.648.369,4.123-.7,4.265,1.189A2.215,2.215,0,0,0,67.6,21.554c2.883-.223,1.1-3.262,3.4-3.236" transform="translate(-33.53 0)" fill="#12263f"/>
        </g>
      </g>
    </g>
  </g>
</svg>
