<svg xmlns="http://www.w3.org/2000/svg" xmlns:xlink="http://www.w3.org/1999/xlink" width="84" height="84" viewBox="0 0 84 84">
  <defs>
    <clipPath id="clip-path">
      <rect id="Rectángulo_456515" data-name="Rectángulo 456515" width="56.686" height="58.448" fill="#12263f"/>
    </clipPath>
  </defs>
  <g id="Grupo_1191903" data-name="Grupo 1191903" transform="translate(-706 -1685.278)">
    <g id="Grupo_1177731" data-name="Grupo 1177731">
      <g id="Grupo_1119665" data-name="Grupo 1119665" transform="translate(530.111 -3835.723)">
        <path id="Trazado_991847" data-name="Trazado 991847" d="M5,0H79a5,5,0,0,1,5,5V79a5,5,0,0,1-5,5H5a5,5,0,0,1-5-5V5A5,5,0,0,1,5,0Z" transform="translate(175.889 5521)" fill="#a0f7fe"/>
      </g>
      <g id="Grupo_1192133" data-name="Grupo 1192133" transform="translate(719.657 1696.053)">
        <g id="Grupo_1192132" data-name="Grupo 1192132" clip-path="url(#clip-path)">
          <path id="Trazado_1003530" data-name="Trazado 1003530" d="M89.045,163.773c.134.99-.993,1.4-1.254,1.965-.348,1.326-.7,2.766-2.527,2.822-.137,1.441-1.283,1.969-2.472,2.368-.382.589-.786,1.469-1.412,1.719a2.646,2.646,0,0,1-2.508-.218c-1.339,1.311-2.91.6-4.093-.242-.818-.071-2.032-.854-2.781-.974-1.545-.249-3.182-.726-3.305-2.576-.728-.329-1.6-.748-1.858-1.413a2.671,2.671,0,0,1,.21-2.648c.306-.428.169-.781.122-1.314-.033-.37-.614-1.277-1-.89-.723.734-1.48,1.43-2.626.925l-1.924-.847a1.927,1.927,0,0,1-.985-2.605l4.441-10.023a1.933,1.933,0,0,1,2.589-.972c.581.252,1.157.546,1.7.748,1.32.494,1.452,1.685,1.153,2.882,1.641,2.1,3.99-.937,7.35.873,4.355-2.493,6.92,1.92,8.275-.307-.175-1.049-.258-2.285,1.033-2.776.662-.252,1.4-.613,2.132-.814a1.906,1.906,0,0,1,2.377,1.154l3.979,10.278a1.95,1.95,0,0,1-1.232,2.52l-1.859.708a2.017,2.017,0,0,1-2.462-.962c-.255-.354-1.119.2-1.062.62m-20.781-11.24c-.71.267-1.08.392-1.439.081a.978.978,0,0,1-.181-1.132c.184-.363.644-.349,1.234-.457a5.355,5.355,0,0,0-1.068-.43l-4.457,10.048a6.307,6.307,0,0,0,2,.874ZM89.9,151.194l-2.069.8,4.024,10.386,2.069-.8Zm-4.421,14.461-3.649-2.076a.977.977,0,0,1-.317-1.4.964.964,0,0,1,1.267-.228l3.6,2a.584.584,0,0,0,.76-.27.6.6,0,0,0-.2-.721l-5.491-3.085c-1.647-.925-6.143,3.689-9.383-.207a1.41,1.41,0,0,1-.422-1.138,1.329,1.329,0,0,1,.7-.893,15.04,15.04,0,0,0,3.7-2.912c-2.8-.387-3.309,1.447-6.4-.4l-2.732,6.182a2.752,2.752,0,0,1,1.922,1.519,2.576,2.576,0,0,1,3.656,1.578c1.176-.382,1.753,1.022,2.492,1.212a6.422,6.422,0,0,1,2.666,1.458c.513.441,1.623.254,2.263.962s1.79.969,2.557,1.547a.583.583,0,0,0,.862-.271.592.592,0,0,0-.253-.72l-3.819-2.163a.987.987,0,0,1-.437-1.269.9.9,0,0,1,1.2-.435l4.956,2.716a.544.544,0,0,0,.707-.277c.037-.18.085-.555-.2-.715m-3.156-7.463,6,3.362c.231.129.943-.248.977-.527L86.951,155a3.887,3.887,0,0,1-3.927.068c-4.258-2.105-5.544,1.771-9,3.774a2.175,2.175,0,0,0,2.387.392l2.886-1.051a3.658,3.658,0,0,1,3.03.008m-11.738,6.348a.605.605,0,0,0-.218-.807.643.643,0,0,0-.883.262c-.483.895-1.364,2.068-.8,2.544.7.583,1.306-.9,1.9-2m1.264,4.153,1.245-2.457a.569.569,0,0,0-1.054-.429c-.521.977-2.028,2.926-1.062,3.269a.694.694,0,0,0,.87-.384m2.906,1,.973-1.908a.591.591,0,0,0-.278-.849.62.62,0,0,0-.773.371c-.539,1.139-1.67,2.57-.658,2.77a.685.685,0,0,0,.736-.385m2.831,1.187.879-1.644a.6.6,0,0,0-.219-.8.576.576,0,0,0-.771.135c-.668,1.208-1.583,2.424-.612,2.708a.656.656,0,0,0,.724-.4m2.276-.038c.584.34.872.013.94-.324.057-.28-.139-.791-.468-.6a1.285,1.285,0,0,0-.472.927" transform="translate(-49.102 -120.758)" fill="#12263f"/>
          <path id="Trazado_1003531" data-name="Trazado 1003531" d="M211.051,165.9a.861.861,0,1,1-.861-.861.861.861,0,0,1,.861.861" transform="translate(-170.023 -134.052)" fill="#12263f"/>
          <path id="Trazado_1003532" data-name="Trazado 1003532" d="M232.606,245.3H218.715a1.025,1.025,0,0,1-1.011-1.277,8,8,0,0,1,4.735-6.248,4.542,4.542,0,0,1-.027-6.4,4.492,4.492,0,1,1,6.327,6.379,8.078,8.078,0,0,1,4.754,6.481.978.978,0,0,1-.887,1.065m-4.42-10.764a2.6,2.6,0,1,0-2.6,2.6,2.6,2.6,0,0,0,2.6-2.6m3.211,8.819a6.075,6.075,0,0,0-11.639.048Z" transform="translate(-176.814 -186.851)" fill="#12263f"/>
          <path id="Trazado_1003533" data-name="Trazado 1003533" d="M14.906,243.108l-13.97,0c-.546-.085-.99-.435-.93-1.011a8.062,8.062,0,0,1,4.766-6.519A4.49,4.49,0,1,1,11.1,229.2a4.539,4.539,0,0,1-.04,6.385,7.927,7.927,0,0,1,4.742,6.481.937.937,0,0,1-.9,1.037m-4.394-10.754a2.6,2.6,0,1,0-2.6,2.6,2.6,2.6,0,0,0,2.6-2.6m3.211,8.813a6.019,6.019,0,0,0-5.949-4.31A5.924,5.924,0,0,0,2.135,241.2Z" transform="translate(0 -185.087)" fill="#12263f"/>
          <path id="Trazado_1003534" data-name="Trazado 1003534" d="M125.608,15.246l-13.734.008c-.516,0-1.223-.239-1.185-.887a7.9,7.9,0,0,1,4.739-6.649,4.5,4.5,0,1,1,6.295-.018,8.089,8.089,0,0,1,4.763,6.5.969.969,0,0,1-.877,1.047m-4.43-10.759a2.6,2.6,0,1,0-2.6,2.6,2.6,2.6,0,0,0,2.6-2.6m3.212,8.822a6.071,6.071,0,0,0-11.637.055Z" transform="translate(-89.903 0)" fill="#12263f"/>
          <path id="Trazado_1003535" data-name="Trazado 1003535" d="M125.316,94.54c-.128,3.81-4.449,6.972-7.373,8.856a1.463,1.463,0,0,1-1.745-.017c-2.925-1.9-7.358-5.139-7.346-9.02a4.593,4.593,0,0,1,5.08-4.674A6.881,6.881,0,0,1,117.111,91a6.188,6.188,0,0,1,3.21-1.324,4.59,4.59,0,0,1,5,4.861m-1.876-.23a2.746,2.746,0,0,0-3.381-2.69c-2.1.469-2.572,2.426-3.733,1.273-1.327-1.318-3.318-1.926-4.727-.615a3.013,3.013,0,0,0-.867,2.262c.127,2.778,4.166,5.863,6.37,7.142,2.239-1.349,6.433-4.534,6.338-7.372" transform="translate(-88.413 -72.827)" fill="#12263f"/>
          <path id="Trazado_1003536" data-name="Trazado 1003536" d="M212.423,77.546a.959.959,0,0,1-1.184.675.948.948,0,0,1-.622-1.215,23.8,23.8,0,0,0-13.388-30.06.979.979,0,0,1-.606-1.131.9.9,0,0,1,1.129-.682,25.666,25.666,0,0,1,14.671,32.413" transform="translate(-159.69 -36.618)" fill="#12263f"/>
          <path id="Trazado_1003537" data-name="Trazado 1003537" d="M18.405,77.311a1,1,0,0,1-.412,1.308.929.929,0,0,1-1.3-.5A25.658,25.658,0,0,1,30.983,46.021a.946.946,0,0,1,1.144.489.985.985,0,0,1-.395,1.227A23.8,23.8,0,0,0,18.405,77.311" transform="translate(-12.391 -37.334)" fill="#12263f"/>
          <path id="Trazado_1003538" data-name="Trazado 1003538" d="M115.923,288.831a.939.939,0,0,1,1.242.454.928.928,0,0,1-.533,1.284,25.571,25.571,0,0,1-19.76-.009.932.932,0,0,1-.494-1.228.953.953,0,0,1,1.266-.487,23.826,23.826,0,0,0,18.278-.014" transform="translate(-78.222 -234.528)" fill="#12263f"/>
        </g>
      </g>
    </g>
  </g>
</svg>
