<svg xmlns="http://www.w3.org/2000/svg" xmlns:xlink="http://www.w3.org/1999/xlink" width="84" height="84" viewBox="0 0 84 84">
  <defs>
    <clipPath id="clip-path">
      <rect id="Rectángulo_456530" data-name="Rectángulo 456530" width="59.322" height="59.243" fill="#12263f"/>
    </clipPath>
  </defs>
  <g id="Grupo_1191897" data-name="Grupo 1191897" transform="translate(-706 -1685.277)">
    <g id="Grupo_1177731" data-name="Grupo 1177731">
      <g id="Grupo_1119665" data-name="Grupo 1119665" transform="translate(530.111 -3835.723)">
        <path id="Trazado_991847" data-name="Trazado 991847" d="M5,0H79a5,5,0,0,1,5,5V79a5,5,0,0,1-5,5H5a5,5,0,0,1-5-5V5A5,5,0,0,1,5,0Z" transform="translate(175.889 5521)" fill="#a0f7fe"/>
      </g>
      <g id="Grupo_1192163" data-name="Grupo 1192163" transform="translate(718.339 1697.656)">
        <g id="Grupo_1192162" data-name="Grupo 1192162" clip-path="url(#clip-path)">
          <path id="Trazado_1003664" data-name="Trazado 1003664" d="M44.832,65.786l-3.915-.013a.943.943,0,0,1-.946-.956L39.913,54.5a1.019,1.019,0,0,1,1.006-1.137l6.68,0,.011-5.733c-.793-.067-2.376.245-2.711-.456a1,1,0,0,1-.02-.994L49.7,40.374a1,1,0,0,1,1.566.007l4.806,5.8a1.007,1.007,0,0,1-.02.994c-.329.7-1.925.384-2.706.461l-.011,10.492a.948.948,0,0,1-.945.956L45.7,59.1l-.017,5.72a.981.981,0,0,1-.849.964m-1.039-1.963,0-5.689a.943.943,0,0,1,.952-.935l6.685-.014,0-10.327c0-.624.3-1.122.97-1.113a1.457,1.457,0,0,0,.7-.168l-2.624-3.11-2.623,3.111c.309.28,1.653-.1,1.655,1.1l.012,7.635a.973.973,0,0,1-.957.953l-6.718.022.03,8.565a7.146,7.146,0,0,0,1.92-.025" transform="translate(-32.284 -32.352)" fill="#12263f"/>
          <path id="Trazado_1003665" data-name="Trazado 1003665" d="M201.812,64.8c0,1.636-3.366.755-4.768.97a.975.975,0,0,1-.944-.965l-.017-5.72-6.681-.016a.968.968,0,0,1-.958-.956l0-10.491-1.73-.011a.971.971,0,0,1-.816-1.593l4.63-5.694a.98.98,0,0,1,1.529.043l4.76,5.72a1.007,1.007,0,0,1,.1.93c-.278.884-1.88.527-2.74.6l.012,5.733,6.683.007a.957.957,0,0,1,.955.95Zm-1.892-1-.009-8.536-6.689-.015a.959.959,0,0,1-.952-.955l.039-7.818c0-.726.839-.763,1.607-.819a32.217,32.217,0,0,0-2.677-3.181l-2.548,3.2c.895-.031,1.647.14,1.648.97l.019,10.522,6.685.009a.942.942,0,0,1,.947.943L198,63.831a6.732,6.732,0,0,0,1.915-.039" transform="translate(-150.181 -32.332)" fill="#12263f"/>
          <path id="Trazado_1003666" data-name="Trazado 1003666" d="M133.811,29.583c0,1.424-2.879,1.012-4.774.969a.954.954,0,0,1-.949-.968l-.006-21.939-1.907-.029a.9.9,0,0,1-.8-.438,1,1,0,0,1-.02-.994L130.171.376a1,1,0,0,1,1.568.006l4.789,5.805a.922.922,0,0,1-.6,1.4c-.752.11-1.369.015-2.112.055Zm-1.9-1.018,0-21.874c0-1.2,1.358-.839,1.663-1.112l-2.623-3.11-2.623,3.11c.3.279,1.66-.1,1.66,1.113L130,28.616a4.764,4.764,0,0,0,1.912-.051" transform="translate(-101.291 0)" fill="#12263f"/>
          <path id="Trazado_1003667" data-name="Trazado 1003667" d="M58.346,196.695l-57.311,0a.959.959,0,0,1-.985-.958c-.221-3.637.143-6.753,4.114-8.1L7.63,186.46c-.049-.583.293-1.618-.048-2.139a5.729,5.729,0,0,1-1.818-3.888l0-3.824a4.776,4.776,0,0,1,9.552,0l0,3.826a5.713,5.713,0,0,1-1.818,3.889c-.334.528,0,1.563-.047,2.146l4.162,1.435a6.935,6.935,0,0,1,1.887,1.26,6.141,6.141,0,0,1,3.772-3.435l3.463-1.179c-.049-.581.3-1.621-.048-2.137a5.739,5.739,0,0,1-1.819-3.89l0-3.628a4.787,4.787,0,1,1,9.567,0l-.018,3.835a4.736,4.736,0,0,1-1.869,3.624,19.061,19.061,0,0,0-.013,2.172l4.065,1.421a5.73,5.73,0,0,1,3.212,3.226,7.242,7.242,0,0,1,2.579-1.532l3.462-1.177c-.047-.581.293-1.618-.047-2.139a5.729,5.729,0,0,1-1.818-3.888l0-3.824a4.776,4.776,0,0,1,9.551,0l.007,3.647a4.983,4.983,0,0,1-1.89,4.006,10.164,10.164,0,0,0,.042,2.223l3.88,1.323a5.6,5.6,0,0,1,3.7,5.429c-.009,1.289.356,3.462-.935,3.462m-25.82-18.238.006-3.566a2.9,2.9,0,0,0-2.782-3.038A2.836,2.836,0,0,0,26.8,174.7v3.843a2.864,2.864,0,1,0,5.728-.081m-19.114,1.911.006-3.566a2.9,2.9,0,0,0-2.782-3.039,2.837,2.837,0,0,0-2.953,2.843v3.843a2.864,2.864,0,1,0,5.728-.082m38.228,0,.006-3.566a2.9,2.9,0,0,0-2.782-3.038,2.837,2.837,0,0,0-2.953,2.843v3.843a2.864,2.864,0,1,0,5.728-.082m-21.119,4.364a3.3,3.3,0,0,0,.071-1.452h-1.87a3.134,3.134,0,0,0,.088,1.5,1.049,1.049,0,0,0,1.711-.049m-19.114,1.911a3.288,3.288,0,0,0,.071-1.452H9.609a3.138,3.138,0,0,0,.087,1.5,1.049,1.049,0,0,0,1.711-.049m38.228,0a3.288,3.288,0,0,0,.071-1.452h-1.87a3.138,3.138,0,0,0,.087,1.5,1.049,1.049,0,0,0,1.711-.049M34.45,191.909a.92.92,0,0,1,1.029-.934.9.9,0,0,1,.853.936l.033,2.853a11.858,11.858,0,0,0,1.884,0l.008-3.444c.009-3.751-3.731-3.928-6.5-5a3.194,3.194,0,0,1-4.216.014l-3.454,1.142a3.949,3.949,0,0,0-3.019,3.67l-.005,3.619a11.571,11.571,0,0,0,1.889,0l.012-2.67a.993.993,0,0,1,.875-1.119.91.91,0,0,1,1.025.935l.038,2.877h9.509Zm-19.111,1.912a.927.927,0,0,1,1.026-.934c1.039.062.787,1.176.919,1.884a13.671,13.671,0,0,0,1.828,0c.247-2.069-.168-4.294-2.286-5.105-1.394-.534-2.739-.968-4.184-1.434a3.187,3.187,0,0,1-4.22,0l-3.884,1.31c-2.334.787-2.819,2.972-2.567,5.229a6.978,6.978,0,0,0,1.809-.043c.131-.1.089-.52.081-.709A.972.972,0,0,1,4.9,192.886c1.076.067.75,1.233.944,1.9h9.419a3.438,3.438,0,0,0,.078-.968m38.228,0a.927.927,0,0,1,1.026-.934c1.04.062.787,1.176.92,1.884a13.671,13.671,0,0,0,1.828,0c.247-2.069-.168-4.294-2.286-5.105-1.394-.534-2.739-.968-4.184-1.434a3.186,3.186,0,0,1-4.22,0l-3.884,1.31c-2.334.787-2.819,2.972-2.567,5.229a6.978,6.978,0,0,0,1.809-.043c.131-.1.089-.52.081-.709a.972.972,0,0,1,1.037-1.132c1.076.067.75,1.233.944,1.9h9.419a3.438,3.438,0,0,0,.078-.968" transform="translate(0 -137.455)" fill="#12263f"/>
        </g>
      </g>
    </g>
  </g>
</svg>
