<svg xmlns="http://www.w3.org/2000/svg" xmlns:xlink="http://www.w3.org/1999/xlink" width="396" height="1070.096" viewBox="0 0 396 1070.096">
  <defs>
    <clipPath id="clip-path">
      <path id="Trazado_611005" data-name="Trazado 611005" d="M0,0H396V1069.1H0Z" fill="#e2fff2"/>
    </clipPath>
    <clipPath id="clip-path-2">
      <rect id="Rectángulo_456301" data-name="Rectángulo 456301" width="322.105" height="287.265" fill="none"/>
    </clipPath>
    <clipPath id="clip-path-4">
      <rect id="Rectángulo_456296" data-name="Rectángulo 456296" width="7.554" height="5.183" fill="none"/>
    </clipPath>
  </defs>
  <g id="Grupo_1179233" data-name="Grupo 1179233" transform="translate(-284 -6399)">
    <g id="Grupo_1073695" data-name="Grupo 1073695" transform="translate(284 6399)">
      <path id="Trazado_608309" data-name="Trazado 608309" d="M0,0H396V1069.1H0Z" fill="#e2fff2"/>
    </g>
    <g id="Grupo_1179217" data-name="Grupo 1179217" transform="translate(-64.5 545.79)">
      <g id="Grupo_1179205" data-name="Grupo 1179205" transform="translate(385.51 5881.21)">
        <g id="Grupo_1179204" data-name="Grupo 1179204" clip-path="url(#clip-path-2)">
          <rect id="Rectángulo_456288" data-name="Rectángulo 456288" width="2.212" height="55.142" transform="translate(170.499 7.432)" fill="#0e5a52"/>
          <rect id="Rectángulo_456289" data-name="Rectángulo 456289" width="55.141" height="2.212" transform="translate(240.913 144.402)" fill="#95ebba"/>
          <rect id="Rectángulo_456290" data-name="Rectángulo 456290" width="55.142" height="2.212" transform="translate(34.33 142.503)" fill="#95ebba"/>
          <g id="Grupo_1179203" data-name="Grupo 1179203">
            <g id="Grupo_1179202" data-name="Grupo 1179202" clip-path="url(#clip-path-2)">
              <path id="Trazado_1002590" data-name="Trazado 1002590" d="M305.451,170.995h0v-7.374A75.576,75.576,0,0,0,229.875,239.2h7.373a68.28,68.28,0,0,1,68.2-68.2" transform="translate(-132.741 -94.483)" fill="#0e5a52"/>
              <path id="Trazado_1002591" data-name="Trazado 1002591" d="M254.7,342.506h-7.374a68.2,68.2,0,0,0,68.2,68.191v-7.373A60.9,60.9,0,0,1,254.7,342.506" transform="translate(-142.817 -197.779)" fill="#95ebba"/>
              <path id="Trazado_1002592" data-name="Trazado 1002592" d="M469.56,342.523h-7.374a53.516,53.516,0,0,1-53.455,53.437v7.373a60.829,60.829,0,0,0,60.829-60.81" transform="translate(-236.021 -197.789)" fill="#0e5a52"/>
              <rect id="Rectángulo_456291" data-name="Rectángulo 456291" width="2.212" height="55.142" transform="translate(170.499 220.387)" fill="#0e5a52"/>
              <path id="Trazado_1002593" data-name="Trazado 1002593" d="M408.731,215.969v7.374a46.135,46.135,0,0,1,46.083,46.083v.007h7.373v-.007a53.456,53.456,0,0,0-53.456-53.456" transform="translate(-236.021 -124.711)" fill="#95ebba"/>
              <path id="Trazado_1002594" data-name="Trazado 1002594" d="M546.969,62.038A44.833,44.833,0,1,1,502.136,17.2a44.832,44.832,0,0,1,44.833,44.833" transform="translate(-264.069 -9.935)" fill="#95ebba"/>
              <path id="Trazado_1002595" data-name="Trazado 1002595" d="M553.818,86.073a6.413,6.413,0,0,0-6.091-4.41l-9.669-1.127a6.749,6.749,0,0,1-3.727-3.711l-.107-4.895c-1.079.768-2.1,1.287-3.322,2.072a11.522,11.522,0,0,1-3.539-.023,31.744,31.744,0,0,1-5.773-4.04l-.215,7.02a7.506,7.506,0,0,1-3.877,3.526l-9.584,1.177a6.411,6.411,0,0,0-6.316,5.331c-.022.115-.041.23-.054.348-.008.068-.013.136-.019.205,0,.044-.009.086-.011.13l9.368,7.7,3.451,11.147h26.983l3.727-12.036h.995Z" transform="translate(-289.599 -40.387)" fill="#fcc397"/>
              <rect id="Rectángulo_456292" data-name="Rectángulo 456292" width="16.244" height="29.941" transform="translate(229.7 43.006)" fill="#e5e5e5"/>
              <path id="Trazado_1002596" data-name="Trazado 1002596" d="M544.835,98.253a6.411,6.411,0,0,0-6-4.168l-9.669-1.127a18.631,18.631,0,0,1-2.051-.575l-8.028,31.222L510.9,91.451a8.337,8.337,0,0,1-2.3,1.456l-9.584,1.177a6.384,6.384,0,0,0-4.878,2.26l-.025-.019a4.088,4.088,0,0,0-.347.5,6.388,6.388,0,0,0-.635,1.148c-2.38,4.65-6.884,17.644-7.02,23.3-.158,6.625,8.241,18.787,11.586,21.845l8.349-.628-4.754,2.875-.048.828a44.952,44.952,0,0,0,35.357-.137l-.17-3c1.082.752,2.551.822,4.095-.984,3.346-3.058,11.626-14.78,11.468-21.4-.134-5.574-4.755-17.62-7.166-22.415M501.851,135.67a121.988,121.988,0,0,1-6.177-12.6c-1.124-2.753,1.943-9.295,5.082-14.07l1.1,26.6Zm34.2.595-.074-1.3,1.033-25.308c2.7,4.659,5.551,10.474,5.594,13.31.032,2.066-4.084,8.509-6.552,13.3" transform="translate(-280.707 -52.808)" fill="#333"/>
              <path id="Trazado_1002597" data-name="Trazado 1002597" d="M559.2,105.25l-.668-10.915-3.238-.375a7.584,7.584,0,0,1-1.372-.726l-1.689,2.295-7.354,28.889-7.38-29-1.69-2.295a7.669,7.669,0,0,1-1.37.748l-3.016.371-.572,10.9,4.141.743-.849,4.247L544.3,129.661l-.183,2.557,11.785-21.979-.85-4.247Z" transform="translate(-306.538 -53.776)" fill="#515151"/>
              <path id="Trazado_1002598" data-name="Trazado 1002598" d="M556.743,116.266,559.83,128.4l2.581-10.141-1.563-12.391,1.891-2.736-1.106-3-3.855-.108-1,3.272,1.749,2.522Z" transform="translate(-321.49 -57.755)" fill="#5fa6b2"/>
              <path id="Trazado_1002599" data-name="Trazado 1002599" d="M543.728,86.136l6.795,5.84-4.99,4.99-4.884-7.539Z" transform="translate(-312.197 -49.739)" fill="#fff"/>
              <path id="Trazado_1002600" data-name="Trazado 1002600" d="M524.845,210.452a.234.234,0,0,0,0-.035l-1.624-2.45a2.708,2.708,0,0,0-3.754-.76c-3.028,2.007-2.5,1.648-2.763,1.852a6,6,0,0,0-.565,2.581,44.615,44.615,0,0,0,4.664,2,7.783,7.783,0,0,0,4.042-3.192" transform="translate(-298.043 -119.39)" fill="#fcc397"/>
              <path id="Trazado_1002601" data-name="Trazado 1002601" d="M570.812,86.136l-6.8,5.84,4.991,4.99,4.884-7.539Z" transform="translate(-325.69 -49.739)" fill="#fff"/>
              <rect id="Rectángulo_456293" data-name="Rectángulo 456293" width="6.979" height="1.752" transform="translate(217.059 90.021) rotate(-35.98)" fill="#fff"/>
              <path id="Trazado_1002602" data-name="Trazado 1002602" d="M533.867,201.787l-1.618.02a7.812,7.812,0,0,1,.173,1.538,7.7,7.7,0,0,1-1.2,4.238,7.781,7.781,0,0,1-4.042,3.192c.445.162,1.344.472,2.205.735a9.333,9.333,0,0,0,4.633-8.184,9.447,9.447,0,0,0-.148-1.538" transform="translate(-304.417 -116.521)" fill="#515151"/>
              <path id="Trazado_1002603" data-name="Trazado 1002603" d="M599.065,208.359l-2.609-1.682a2.709,2.709,0,0,0-3.744.808c-.656,1.018-.277.432-1.593,2.47,0,.01,0,.024,0,.035a7.781,7.781,0,0,0,4.131,3.158,44.653,44.653,0,0,0,4.592-2.035c0-.853-.281-2.434-.778-2.754" transform="translate(-341.34 -119.095)" fill="#fcc397"/>
              <path id="Trazado_1002604" data-name="Trazado 1002604" d="M587.228,207.235a7.731,7.731,0,0,1-1.1-5.762h-1.618a9.431,9.431,0,0,0-.128,1.541,9.337,9.337,0,0,0,4.775,8.148c.914-.292,1.558-.523,2.206-.769a7.781,7.781,0,0,1-4.13-3.158" transform="translate(-337.447 -116.34)" fill="#515151"/>
              <rect id="Rectángulo_456294" data-name="Rectángulo 456294" width="1.752" height="6.979" transform="matrix(0.588, -0.809, 0.809, 0.588, 253.291, 86.893)" fill="#fff"/>
              <path id="Trazado_1002605" data-name="Trazado 1002605" d="M554.723,72.927a34.625,34.625,0,0,1-5.955-2.559v3.145c.971.616,2.413,1.562,3.418,2.187a4.218,4.218,0,0,0,1.452.406h3.7a3.928,3.928,0,0,0,1.457-.4c.81-.536,1.741-1.288,2.752-1.955V70.288a44.688,44.688,0,0,1-6.819,2.639" transform="translate(-316.885 -40.588)" fill="#ea9f6c"/>
              <path id="Trazado_1002606" data-name="Trazado 1002606" d="M557.209,18.066a1.43,1.43,0,0,0-1.028.068c.136-3.975.1-7.538-.4-8.331-2.8-4.389-6.085-6.3-10.924-6.479h0c-4.839.182-7.761,2.09-10.559,6.479-.518.812-.605,4.535-.529,8.628a1.673,1.673,0,0,0-1.531-.369c-1.068.36-1.443,2.108-.837,3.9.522,1.549,1.6,2.627,2.575,2.664.159,3.489.34,6.207.34,6.207,3.268,2.24,5.435,3.753,7.324,4.87a3.16,3.16,0,0,0,1.165.33h3.919a4.786,4.786,0,0,0,1.333-.364c1.894-1.11,4.067-2.647,7.344-4.835,0,0,.237-2.756.461-6.28a3.966,3.966,0,0,0,2.176-2.584c.612-1.794.243-3.544-.823-3.907" transform="translate(-306.686 -1.919)" fill="#fcc397"/>
              <path id="Trazado_1002607" data-name="Trazado 1002607" d="M569.766,33.947c.332-.184,4.4-1.786,5.633.34,1.035,1.785-.876,0-2.147.014a18.084,18.084,0,0,0-3.26.25c-.51.076-.677-.354-.225-.6" transform="translate(-328.858 -19.169)" fill="#663412"/>
              <path id="Trazado_1002608" data-name="Trazado 1002608" d="M548.17,34.175c-.319-.185-4.287-1.595-5.461.314-1.069,1.74.855,0,2.086.024a26.945,26.945,0,0,1,3.146.267c.5.051.662-.352.229-.6" transform="translate(-313.206 -19.345)" fill="#663412"/>
              <path id="Trazado_1002609" data-name="Trazado 1002609" d="M550.176,40.233a7.118,7.118,0,0,1-2.6.487c-1.05,0-2.006-.353-2.006-1.018s.944-1.142,2.01-1.142a3.606,3.606,0,0,1,2.6,1.673" transform="translate(-315.035 -22.266)" fill="#fff"/>
              <path id="Trazado_1002610" data-name="Trazado 1002610" d="M550.069,39.678a1.014,1.014,0,1,1-1.011-1.068,1.041,1.041,0,0,1,1.011,1.068" transform="translate(-316.467 -22.295)" fill="#7b9368"/>
              <path id="Trazado_1002611" data-name="Trazado 1002611" d="M550.276,40.217a.65.65,0,1,1-.649-.685.668.668,0,0,1,.649.685" transform="translate(-317.007 -22.828)"/>
              <path id="Trazado_1002612" data-name="Trazado 1002612" d="M552,40.841a.337.337,0,1,1-.326-.252.3.3,0,0,1,.326.252" transform="translate(-318.374 -23.438)" fill="#fff"/>
              <path id="Trazado_1002613" data-name="Trazado 1002613" d="M549.955,40.226a3.266,3.266,0,0,0-1.839-1.046c-1.05-.318-2.63.143-2.658.891-.44-.319-.454-.911.669-1.329a3.066,3.066,0,0,1,3.684,1.188.934.934,0,0,1,.144.3" transform="translate(-314.813 -22.253)" fill="#ea9f6c"/>
              <path id="Trazado_1002614" data-name="Trazado 1002614" d="M570.01,40.233a6.263,6.263,0,0,0,2.568.48c1.05-.026,2.008-.292,2.008-.958s-.91-1.195-1.975-1.195a3.609,3.609,0,0,0-2.6,1.673" transform="translate(-329.151 -22.266)" fill="#fff"/>
              <path id="Trazado_1002615" data-name="Trazado 1002615" d="M573.62,39.614a1.014,1.014,0,1,0,1.012-1.069,1.041,1.041,0,0,0-1.012,1.069" transform="translate(-331.236 -22.258)" fill="#7b9368"/>
              <path id="Trazado_1002616" data-name="Trazado 1002616" d="M574.471,40.15a.65.65,0,1,0,.65-.685.668.668,0,0,0-.65.685" transform="translate(-331.727 -22.789)"/>
              <path id="Trazado_1002617" data-name="Trazado 1002617" d="M576.866,40.576a.337.337,0,1,0,.327-.253.3.3,0,0,0-.327.253" transform="translate(-333.11 -23.284)" fill="#fff"/>
              <path id="Trazado_1002618" data-name="Trazado 1002618" d="M570.006,40.2a3.271,3.271,0,0,1,1.839-1.046c1.052-.318,2.629.143,2.659.891.439-.319.4-.94-.727-1.358a3.006,3.006,0,0,0-3.626,1.217.938.938,0,0,0-.145.3" transform="translate(-329.149 -22.222)" fill="#ea9f6c"/>
              <path id="Trazado_1002619" data-name="Trazado 1002619" d="M560.967,55.084h-1.688a1.327,1.327,0,0,1-1.225-.938,1.571,1.571,0,0,0-.092.527c0,.807.985,1.068,1.713,1.068h.9c.726,0,1.711-.261,1.711-1.068a1.592,1.592,0,0,0-.091-.527,1.329,1.329,0,0,1-1.225.938" transform="translate(-322.194 -31.266)" fill="#ea9f6c"/>
              <path id="Trazado_1002620" data-name="Trazado 1002620" d="M532.042,40.36c-.012-.145.272-.794.625-.683.54.171.881,1.224,1.11,2.276s.121,1.819,0,1.536a15.255,15.255,0,0,0-.968-2.873c-.426-.8-.682.882-.767-.256" transform="translate(-307.226 -22.904)" fill="#ea9f6c"/>
              <path id="Trazado_1002621" data-name="Trazado 1002621" d="M592.076,40.36c.011-.145-.273-.794-.625-.683-.541.171-.881,1.224-1.11,2.276s-.121,1.819,0,1.536a15.19,15.19,0,0,1,.967-2.873c.426-.8.683.882.768-.256" transform="translate(-340.814 -22.904)" fill="#ea9f6c"/>
              <path id="Trazado_1002622" data-name="Trazado 1002622" d="M555.653,1.995c-1.818-3.181-12.176-1.821-15.477-.911s-5.462,2.731-5.347,5.576c.1,2.459.111,7.977.114,9.428a1.944,1.944,0,0,1,.834.335l.644,2.982.682-4.665s-1.365-9.1,7.51-7.51a22.624,22.624,0,0,0-3.527,3.073s5.235-1.252,7.284-2.049,0,1.708,0,1.708,3.982-1.48,5.234-1.934,2.5-.115,2.73,2.048.8,10.355.8,10.355l1.43-4.289a1.575,1.575,0,0,1,.332-.055c.045-.866.1-1.944.172-3.28.683-12.972-2.048-8.42-3.413-10.81" transform="translate(-308.833 0)" fill="#663412"/>
              <path id="Trazado_1002623" data-name="Trazado 1002623" d="M556.03,65.085c.074.4.715,1.359,1.089,1.359h3.74c.375,0,1.015-.959,1.089-1.359Z" transform="translate(-321.078 -37.583)" fill="#ea8c63"/>
              <path id="Trazado_1002624" data-name="Trazado 1002624" d="M559.754,64.419c-.792-.1-3.406-.055-3.812-.036-1.042.048-1.651-.534-1.613-.646.061-.179.2-.138.312.038.107.159.79.1,1.131.032,1.722-.371,1.279.044,2.121.058.79.012.52-.386,2.014-.049a3.316,3.316,0,0,0,1.455.16c.173-.087.308-.183.355,0s-.7.6-1.964.443" transform="translate(-320.095 -36.738)" fill="#d87350"/>
              <path id="Trazado_1002625" data-name="Trazado 1002625" d="M638.9,424.118a45.145,45.145,0,1,1-45.146-45.145A45.145,45.145,0,0,1,638.9,424.118" transform="translate(-316.791 -218.837)" fill="#0e5a52"/>
              <path id="Trazado_1002626" data-name="Trazado 1002626" d="M697.188,463.381a5.409,5.409,0,0,0-4.683-3.11l-2.185-.33s1.537,18.957,1.864,17.415c-.393,3.181-1.181,9.266-1.148,11.449.017,1.055-.132,10.639,5.611,5.713,4.477-3.839,3.163-26.784.54-31.137" transform="translate(-398.624 -265.591)" fill="#3870c1"/>
              <path id="Trazado_1002627" data-name="Trazado 1002627" d="M602.929,494.621c.048-3.1,1.28-18.816,1.453-18.553-.145.394.523-15.949.523-15.949l-1.686.254a5.457,5.457,0,0,0-4.675,3.1c-2.624,4.36-4.072,23.757-4.214,29.65-.08,3.322,8.582,2.571,8.6,1.5" transform="translate(-343.195 -265.695)" fill="#3870c1"/>
              <path id="Trazado_1002628" data-name="Trazado 1002628" d="M613.934,481.031s-.131,6.228-.131,10c0,7.666.815,8.372.815,8.372l.959-10.531Z" transform="translate(-354.439 -277.77)" fill="#024183"/>
              <path id="Trazado_1002629" data-name="Trazado 1002629" d="M693.882,481.818s.7,8.813.363,12c-.559,5.3-2.042,5.882-2.042,5.882Z" transform="translate(-399.711 -278.225)" fill="#024183"/>
              <path id="Trazado_1002630" data-name="Trazado 1002630" d="M647.171,459.778c0-3.807-2.508-6.893-5.6-6.893l-5.181-.783h0l-2.181-.329a5.314,5.314,0,0,1-4.031-4.3c-.085-.735-10.083-.008-10.081.038.131,2.289-2.586,3.87-5.054,4.262l-7.329,1.108c-3.095,0-5.6,3.086-5.6,6.893s2.509,6.893,5.6,6.893h.163a9.108,9.108,0,0,0,.215,1.112,7.681,7.681,0,0,0,4.318,9.766,41.552,41.552,0,0,1,1.083,5.2,54.97,54.97,0,0,1,.615,10.177,19.2,19.2,0,0,0-5.208,6.035,19.859,19.859,0,0,0-2.142,5.98,45.255,45.255,0,0,0,36.252-.205,19.93,19.93,0,0,0-2.182-5.913,19.184,19.184,0,0,0-5.258-5.99,55.332,55.332,0,0,1,.62-10.082,41.723,41.723,0,0,1,1.049-5.088,7.681,7.681,0,0,0,4.219-9.685,11.982,11.982,0,0,0,.192-1.311c3.059-.052,5.524-3.116,5.524-6.891" transform="translate(-347.686 -258.206)" fill="#3870c1"/>
              <path id="Trazado_1002631" data-name="Trazado 1002631" d="M668.659,414.648s8.868,2.8,10.237,8.851a9.368,9.368,0,0,1-1.344,7.582,18.723,18.723,0,0,1-5.8,5.214c-5.118,3.2-.746,6.185-.746,6.185s-12.863.1-7.678-11.3c2.665-5.866,6.291-3.839,2.986-13.65-3.186-9.455,2.346-2.879,2.346-2.879" transform="translate(-382.326 -238.153)" fill="#663412"/>
              <path id="Trazado_1002632" data-name="Trazado 1002632" d="M654.2,440.463c0,.586-2.867,1.061-6.405,1.061s-6.405-.475-6.405-1.061,2.868-1.061,6.405-1.061,6.405.475,6.405,1.061" transform="translate(-370.371 -253.732)" fill="#024183"/>
              <path id="Trazado_1002633" data-name="Trazado 1002633" d="M643.539,434.668l.293,2.926a18.7,18.7,0,0,0,4.353,1.5,1.36,1.36,0,0,0,1.081-.082c.815-.447,2.75.188,4.643-1.315l-.326-4.536Z" transform="translate(-371.61 -250.127)" fill="#ea9f6c"/>
              <path id="Trazado_1002634" data-name="Trazado 1002634" d="M654.2,452.618c0,.586-2.867,1.731-6.405,1.731s-6.405-1.145-6.405-1.731,2.868-1.061,6.405-1.061,6.405.475,6.405,1.061" transform="translate(-370.371 -260.751)" fill="#024183"/>
              <path id="Trazado_1002635" data-name="Trazado 1002635" d="M654.2,452.618c0,.586-2.867,1.061-6.405,1.061s-6.405-.475-6.405-1.061,2.868-1.061,6.405-1.061,6.405.475,6.405,1.061" transform="translate(-370.371 -260.751)" fill="#3870c1"/>
              <path id="Trazado_1002636" data-name="Trazado 1002636" d="M641.392,441.913v5.136H654.2v-5.136s.2.959-6.405.959-6.405-.959-6.405-.959" transform="translate(-370.37 -255.182)" fill="#3870c1"/>
              <path id="Trazado_1002637" data-name="Trazado 1002637" d="M651.02,378.16c.944,8.361-4.779,15.916-12.792,16.777-10.231,1.1-11.695-5.141-12.639-13.5s1.211-15.871,9.22-16.776,15.268,5.141,16.211,13.5" transform="translate(-361.125 -210.519)" fill="#663412"/>
              <path id="Trazado_1002638" data-name="Trazado 1002638" d="M646.195,385.512a1.358,1.358,0,0,0-1,.2c-.028-3.428-.214-6.864-.821-7.614a13.648,13.648,0,0,0-11.534-5.028h0a13.646,13.646,0,0,0-10.122,7.472c-.42.858.149,4.191.876,7.5a1.258,1.258,0,0,0-.719.094c-.958.447-1.124,2.12-.37,3.733a3.45,3.45,0,0,0,2.555,2.219c.245.934.406,1.519.406,1.519,2.667,5.209,8.384,7.274,10.231,7.817a1.428,1.428,0,0,0,1.079-.1c1.626-.9,6.828-4.2,8.28-9.929,0,0,.026-.6.057-1.566.947-.04,1.917-1.19,2.261-2.762.381-1.74-.147-3.335-1.181-3.561" transform="translate(-359.192 -215.408)" fill="#fcc397"/>
              <path id="Trazado_1002639" data-name="Trazado 1002639" d="M657.416,399.975a4.411,4.411,0,0,1,5.236-.833c1.7.933-.875-.46-2.039-.189a6.708,6.708,0,0,0-2.867,1.53c-.364.321-.693-.188-.33-.508" transform="translate(-379.532 -230.164)" fill="#663412"/>
              <path id="Trazado_1002640" data-name="Trazado 1002640" d="M636.856,402.374a4.158,4.158,0,0,0-5.123.395c-1.41,1.3.729-.649,1.887-.654a6.272,6.272,0,0,1,3.031.83c.41.229.616-.342.2-.571" transform="translate(-364.524 -231.935)" fill="#663412"/>
              <path id="Trazado_1002641" data-name="Trazado 1002641" d="M639.83,408.652a9.683,9.683,0,0,1-2.343.981c-.99.153-1.866-.319-1.936-.94s.679-1.216,1.673-1.328a3.393,3.393,0,0,1,2.606,1.288" transform="translate(-366.995 -235.226)" fill="#fff"/>
              <path id="Trazado_1002642" data-name="Trazado 1002642" d="M639.252,408.491a1.056,1.056,0,1,1-1.173-.989,1.085,1.085,0,0,1,1.173.989" transform="translate(-367.92 -235.308)" fill="#7b9368"/>
              <path id="Trazado_1002643" data-name="Trazado 1002643" d="M639.432,408.75a.716.716,0,1,1-.8-.671.736.736,0,0,1,.8.671" transform="translate(-368.415 -235.642)"/>
              <path id="Trazado_1002644" data-name="Trazado 1002644" d="M640.705,409.1c.016.145-.121.279-.308.3a.31.31,0,0,1-.368-.224c-.016-.145.122-.278.309-.3a.308.308,0,0,1,.367.224" transform="translate(-369.583 -236.101)" fill="#fff"/>
              <path id="Trazado_1002645" data-name="Trazado 1002645" d="M638.13,408.375c-.98-1.364-2.82-1.214-3.963-.636-1.005.509-1.231.326-1.28.279a2.406,2.406,0,0,0,1.865,1.459,1.251,1.251,0,0,1-.668-.575c.036-.673,1.4-1.229,2.384-1.049a3.076,3.076,0,0,1,1.828.783,1.152,1.152,0,0,0-.166-.261" transform="translate(-365.459 -235.204)"/>
              <path id="Trazado_1002646" data-name="Trazado 1002646" d="M658.055,406.486a9.968,9.968,0,0,0,2.539.43c1.012-.073,1.773-.73,1.7-1.351s-.944-1.033-1.953-.919a3.44,3.44,0,0,0-2.288,1.84" transform="translate(-379.992 -233.651)" fill="#fff"/>
              <path id="Trazado_1002647" data-name="Trazado 1002647" d="M661.434,405.986a1.071,1.071,0,1,0,.939-1.227,1.093,1.093,0,0,0-.939,1.227" transform="translate(-381.939 -233.723)" fill="#7b9368"/>
              <path id="Trazado_1002648" data-name="Trazado 1002648" d="M662.134,406.184a.726.726,0,1,0,.636-.832.741.741,0,0,0-.636.832" transform="translate(-382.345 -234.067)"/>
              <path id="Trazado_1002649" data-name="Trazado 1002649" d="M664.479,406.55a.313.313,0,0,0,.372.223c.19-.021.33-.156.314-.3a.313.313,0,0,0-.372-.224c-.19.021-.33.156-.313.3" transform="translate(-383.701 -234.586)" fill="#fff"/>
              <path id="Trazado_1002650" data-name="Trazado 1002650" d="M663.265,404.61c-.038.057-.22.286-1.328.016-1.261-.307-3.114-.04-3.777,1.51a1.138,1.138,0,0,0-.107.292s.29-.6,1.631-1.174c.932-.4,2.407-.161,2.594.486a1.25,1.25,0,0,1-.531.711c.661-.328,1.57-1.111,1.517-1.84" transform="translate(-379.991 -233.586)"/>
              <path id="Trazado_1002651" data-name="Trazado 1002651" d="M646.661,376.042c-.813-7.2-7.965-12.308-15.975-11.4s-13.172,7.476-12.359,14.678c.273,2.423.346,4.63,1.6,6.452-.228-1.173.044-2.2.764-2.535a1.189,1.189,0,0,1,.52-.108c.558,1.469,1.085,2.468.99,1.624-.113-1-.119-2.852-.1-4.22-.927-11.8,19.475-12.913,20.209-1.888.289,1.268.618,2.812.719,3.7.094.835.359-.221.556-1.747a1.183,1.183,0,0,1,.429.008c.813.177,1.31,1.2,1.3,2.477a12.137,12.137,0,0,0,1.351-7.039" transform="translate(-357.003 -210.5)" fill="#663412"/>
              <path id="Trazado_1002652" data-name="Trazado 1002652" d="M651.38,419.642l-1.358.153a1.075,1.075,0,0,1-1.072-.643,1.308,1.308,0,0,0-.025.431c.073.651.89.771,1.476.7l.72-.081c.585-.066,1.355-.365,1.281-1.015a1.327,1.327,0,0,0-.121-.415,1.076,1.076,0,0,1-.9.866" transform="translate(-374.716 -241.821)" fill="#ea9f6c"/>
              <path id="Trazado_1002653" data-name="Trazado 1002653" d="M622.738,410.9c-.026-.133.17-.77.513-.7.522.1.952,1.048,1.275,2.008s.306,1.686.163,1.434a14.4,14.4,0,0,0-1.206-2.581c-.482-.7-.545.9-.744-.158" transform="translate(-359.597 -236.867)" fill="#ea9f6c"/>
              <path id="Trazado_1002654" data-name="Trazado 1002654" d="M679.149,404.464c-.005-.136-.339-.713-.656-.572-.488.217-.695,1.235-.8,2.241s.079,1.712.162,1.435a14.362,14.362,0,0,1,.6-2.785c.314-.789.731.752.691-.319" transform="translate(-391.317 -233.214)" fill="#ea9f6c"/>
              <path id="Trazado_1002655" data-name="Trazado 1002655" d="M636.539,417.97c-.169.869-1.439,1.353-2.836,1.08s-2.389-1.2-2.219-2.068,1.439-1.352,2.835-1.079,2.39,1.2,2.22,2.068" transform="translate(-364.638 -240.118)" fill="#ffb18a"/>
              <path id="Trazado_1002656" data-name="Trazado 1002656" d="M661.971,414.91c.359.809,1.7,1,3,.42s2.063-1.7,1.7-2.511-1.705-1-3-.42-2.062,1.7-1.7,2.51" transform="translate(-382.202 -237.946)" fill="#ffb18a"/>
              <path id="Trazado_1002657" data-name="Trazado 1002657" d="M646.036,429.318c1.018.844,2.115,1.8,3.631,1.625a4.531,4.531,0,0,0,3.087-2.373,18.837,18.837,0,0,1-3.259.768,19.133,19.133,0,0,1-3.459-.02" transform="translate(-373.052 -247.477)" fill="#fc7365"/>
              <path id="Trazado_1002658" data-name="Trazado 1002658" d="M651.635,430.092s1.581-.142,1.932-.775a26.451,26.451,0,0,0-3.922.357s-.286.6,1.99.418" transform="translate(-375.13 -247.894)" fill="#fff"/>
              <path id="Trazado_1002659" data-name="Trazado 1002659" d="M616.421,551.423a14.151,14.151,0,0,0-1.741,1.13l.211.389a11.945,11.945,0,0,0,1.735-1.337c.132-.271-.2-.182-.2-.182" transform="translate(-354.946 -318.41)" fill="#ea9f6c"/>
              <path id="Trazado_1002660" data-name="Trazado 1002660" d="M643.28,480.706l-26.1,3.751,6.038,31.506,22.732-1.148Z" transform="translate(-356.387 -277.583)" fill="#919191"/>
              <path id="Trazado_1002661" data-name="Trazado 1002661" d="M622.833,477.83l19.627-5.071,5.08,31.135.95,8.012-21.12.883Z" transform="translate(-359.653 -272.993)" fill="#e0e0e0"/>
              <path id="Trazado_1002662" data-name="Trazado 1002662" d="M617.02,475.748l18.835-5.289,5.743,23.9-18.865,6.23Z" transform="translate(-356.297 -271.665)" fill="#fff"/>
              <path id="Trazado_1002663" data-name="Trazado 1002663" d="M621.969,546.942a7.078,7.078,0,0,0-3.041-.5c-2.091,0-2.489.464-3,.825a8.826,8.826,0,0,0-1.738,1.473,1.6,1.6,0,0,0,.206,1,10.451,10.451,0,0,1,1.738-.972c.206.03-1.328.9-1.59,1.149a1.093,1.093,0,0,0-.362,1.178c.09.348.568.5.568.913s-.265.931-.03,1.443a2.407,2.407,0,0,0,.8.781c.295.206.115.858.228,1.1.251.545.619.707,1.385.772.391.033.205.436.353.848s.618.884,1.767.471a15.348,15.348,0,0,0,4.92-2.828c1.384-1.355-2.2-7.658-2.2-7.658" transform="translate(-354.628 -315.541)" fill="#fcc397"/>
              <path id="Trazado_1002664" data-name="Trazado 1002664" d="M661.738,514.572s.206,1.355-.825,1.65-2.062,5.6-2.062,5.6-3.593,2.71-4.978,2.71a26.5,26.5,0,0,0-3.505-.147c-1.561.147-4.153.707-4.153.707s-2.792-2.975-1.143-5.98c-.206-.442,3.557-1.031,4.235-1.266a21.3,21.3,0,0,0,2.946-2.032c.8-.56,1.061-1.031,1.886-1.238s6.038.206,7.6,0" transform="translate(-372.195 -297.104)" fill="#fcc397"/>
              <path id="Trazado_1002665" data-name="Trazado 1002665" d="M667.553,515.911s2.673.376,3.535.508a.9.9,0,0,1,.531,1.458c-.309.4-.354.4-.221.818s.552,1.082.287,1.436-.265.332-.133.553a5.634,5.634,0,0,1,.262,1.148s2.032-.966,2.368-1.038c.928-.2,1.215-1.193.795-1.591s-.442-.221-.088-.331a1.054,1.054,0,0,0,.8-.972.985.985,0,0,0-.442-.994,25.723,25.723,0,0,0-3.136-.464c-.84-.133-4.529-.8-4.551-.53" transform="translate(-385.477 -297.876)" fill="#ea9f6c"/>
              <path id="Trazado_1002666" data-name="Trazado 1002666" d="M631.586,533.4c-.435-.109-1.237,1.178-1,2.71a12.251,12.251,0,0,0,1.826,4.536,1.272,1.272,0,0,0,2,.412,7.175,7.175,0,0,1,1.885-1.061c.53-.058.353.707,1.591.413s9.249-2.71,11.312-3.417,8.895-3.653,10.426-4.359,3.269-1.708,3.638-3.83-2.394-6.788-6.554-5.418a73.492,73.492,0,0,0-12.46,6.008,33.309,33.309,0,0,1-7.128,2.828,3.927,3.927,0,0,0-2.3,1.59c-.177.471-2.533-.236-3.24-.412" transform="translate(-364.105 -302.083)" fill="#3870c1"/>
              <path id="Trazado_1002667" data-name="Trazado 1002667" d="M594.958,526.359a4.639,4.639,0,0,1,3.75-2.523,17.839,17.839,0,0,1,5.2.177,26.872,26.872,0,0,0,6.949.539,14.4,14.4,0,0,1,3.049,0c.4-.053,3.672-.773,3.672-.773s-2.043,1.783.83,6.382c-1.221.4-4.236,1.23-4.236,1.23s.044.751-.531.884-8.3,1.985-13.027,1.211c-1.943-.318-4.217-.405-5.322-.891s-1.351-4.292-.335-6.236" transform="translate(-343.186 -302.421)" fill="#3870c1"/>
              <path id="Trazado_1002668" data-name="Trazado 1002668" d="M683.141,514.615l-1.536.07a.282.282,0,0,0,.026.249,3,3,0,0,0,1.384,0c.122-.085.125-.316.125-.316" transform="translate(-393.582 -297.163)" fill="#e26954"/>
              <path id="Trazado_1002669" data-name="Trazado 1002669" d="M677.151,441.913c-1.216,2.093-2.637,3.713-3.006,7.732s1.5,5.639,1.5,5.639-2.551-1.284-2.24-5.862a11.834,11.834,0,0,1,3.743-7.509" transform="translate(-388.843 -255.182)" fill="#843e09"/>
              <path id="Trazado_1002670" data-name="Trazado 1002670" d="M691.153,461.5s-1.521-1.257-.8-2.485,2.16-3.079,2.884-4.352c.42-.737.021-2.014-.872-1.061a18.175,18.175,0,0,0-2.668,4.068c-.515,1.381-1.06,3.159,1.452,3.83" transform="translate(-398.015 -261.736)" fill="#663412"/>
              <path id="Trazado_1002671" data-name="Trazado 1002671" d="M678.914,424.308s5.6,2.174,6.465,6.862c.808,4.38-1.28,7.439-4.512,9.919s-.472,4.795-.472,4.795-8.215-3.385-2.583-10.945c5.36-7.194,1.1-10.631,1.1-10.631" transform="translate(-390.262 -245.016)" fill="#843e09"/>
              <path id="Trazado_1002672" data-name="Trazado 1002672" d="M652.8,373.628a15.913,15.913,0,0,0-15.871-2.661c-2.938,1.156-1.984,4.347-1.984,4.347a3.913,3.913,0,0,1,3.978-2.394c3.235.329,7.426,2.4,11.482,6.573a14.745,14.745,0,0,1,2.747,4.212,1.181,1.181,0,0,1,.415.014c1.034.226,1.563,1.82,1.181,3.561a5.276,5.276,0,0,1-.172.611c.173.706.285,1.28.347,1.642,2.838-4.755.835-13.388-2.122-15.905" transform="translate(-366.561 -213.615)" fill="#843e09"/>
              <path id="Trazado_1002673" data-name="Trazado 1002673" d="M649.256,428.357c-1.083-.576-1.714.629-3.447.636.006.058,1.021.293,3.555.044a9.625,9.625,0,0,0,3.377-.827c-1.691.218-2.648-.566-3.484.147" transform="translate(-372.921 -247.177)" fill="#ef4141"/>
              <path id="Trazado_1002674" data-name="Trazado 1002674" d="M85.706,513.807a44.473,44.473,0,1,0,44.474-44.473,44.473,44.473,0,0,0-44.474,44.473" transform="translate(-49.491 -271.016)" fill="#95ebba"/>
              <path id="Trazado_1002675" data-name="Trazado 1002675" d="M187.481,532.157a6.694,6.694,0,0,1-3.7-3.682l-.107-4.856c-1.069.762-2.081,1.277-3.295,2.056a11.45,11.45,0,0,1-3.51-.022,31.526,31.526,0,0,1-5.727-4.007l-.213,6.963a7.448,7.448,0,0,1-3.845,3.5l10.38,2.672Z" transform="translate(-96.485 -301.223)" fill="#fcc397"/>
              <path id="Trazado_1002676" data-name="Trazado 1002676" d="M186.192,578.5a1.707,1.707,0,0,1,1.234.294V553.225H171.311v27.5c3.475-.377,7.748-1.131,14.881-2.225" transform="translate(-98.923 -319.459)" fill="#e5e5e5"/>
              <path id="Trazado_1002677" data-name="Trazado 1002677" d="M179.167,549.731a6.357,6.357,0,0,0-5.952-4.134l-9.592-1.118a18.383,18.383,0,0,1-2.035-.57l-7.612,29.6-.673.106-7.8-30.634a8.271,8.271,0,0,1-2.275,1.445l-9.508,1.168a6.346,6.346,0,0,0-5.837,3.856c-1.994,3.9-2.538,17.89-1.8,25.67.374,4.766,2.114,10.23,6.825,11.173a22.857,22.857,0,0,0,3.288.367c-.255,11.283-.2,9.487-.269,10.62a44.581,44.581,0,0,0,35.073-.136l-.154-9.593c3.684-.464,6.523-1.272,7.164-2.471,3.072-5.743,3.394-30.894,1.151-35.352" transform="translate(-72.627 -313.545)" fill="#333"/>
              <path id="Trazado_1002678" data-name="Trazado 1002678" d="M224.966,583.636s-1.323,8.16-1.874,12.9a22.776,22.776,0,0,1-2.647.992,104.744,104.744,0,0,0,4.521-13.894" transform="translate(-127.295 -337.019)" fill="#161616"/>
              <path id="Trazado_1002679" data-name="Trazado 1002679" d="M161.654,652.435l-1.6.02a7.748,7.748,0,0,1,.172,1.525,7.638,7.638,0,0,1-1.195,4.2,7.721,7.721,0,0,1-4.01,3.167c.442.161,1.333.469,2.188.729a9.254,9.254,0,0,0,4.449-9.644" transform="translate(-89.514 -376.747)" fill="#515151"/>
              <path id="Trazado_1002680" data-name="Trazado 1002680" d="M182.343,524.608a34.373,34.373,0,0,1-5.907-2.539v3.121c.963.611,2.394,1.549,3.391,2.169a4.192,4.192,0,0,0,1.44.4h3.666a3.9,3.9,0,0,0,1.445-.395c.8-.532,1.727-1.277,2.73-1.94V521.99a44.273,44.273,0,0,1-6.765,2.618" transform="translate(-101.883 -301.422)" fill="#ea9f6c"/>
              <path id="Trazado_1002681" data-name="Trazado 1002681" d="M184.809,470.186a1.415,1.415,0,0,0-1.019.068c.135-3.943.1-7.478-.4-8.263-2.775-4.354-6.036-6.247-10.836-6.428h0c-4.8.181-7.7,2.074-10.475,6.428-.513.806-.6,4.5-.525,8.558a1.662,1.662,0,0,0-1.519-.366c-1.058.357-1.431,2.091-.83,3.872.519,1.537,1.59,2.606,2.554,2.642.089,1.952.185,3.661.251,4.781a3.373,3.373,0,0,0,1.067,2.051c2.707,1.858,4.607,3.165,6.284,4.158a3.146,3.146,0,0,0,1.156.327H174.4a4.761,4.761,0,0,0,1.322-.362c1.661-.973,3.536-2.277,6.193-4.063a3.517,3.517,0,0,0,1.2-2.055c.089-1.132.221-2.893.349-4.908a3.934,3.934,0,0,0,2.159-2.563c.606-1.78.24-3.516-.817-3.876" transform="translate(-91.765 -263.063)" fill="#fcc397"/>
              <path id="Trazado_1002682" data-name="Trazado 1002682" d="M197.293,485.579c.35-.139,4.553-1.2,5.5,1.044.794,1.887-.862-.11-2.114-.257a17.953,17.953,0,0,0-3.239-.164c-.511.011-.622-.434-.146-.623" transform="translate(-113.751 -280.181)" fill="#875d41"/>
              <path id="Trazado_1002683" data-name="Trazado 1002683" d="M175.947,485.912c-.333-.15-4.388-1.154-5.361.846-.884,1.822.845-.079,2.061-.182a27.183,27.183,0,0,1,3.132-.045c.5,0,.619-.412.168-.619" transform="translate(-98.365 -280.367)" fill="#875d41"/>
              <path id="Trazado_1002684" data-name="Trazado 1002684" d="M177.834,492.175a7.053,7.053,0,0,1-2.584.484c-1.04,0-1.989-.35-1.989-1.01s.936-1.133,1.993-1.133a3.578,3.578,0,0,1,2.581,1.659" transform="translate(-100.049 -283.247)" fill="#fff"/>
              <path id="Trazado_1002685" data-name="Trazado 1002685" d="M177.729,491.625a1.005,1.005,0,1,1-1-1.06,1.032,1.032,0,0,1,1,1.06" transform="translate(-101.47 -283.276)" fill="#7b9368"/>
              <path id="Trazado_1002686" data-name="Trazado 1002686" d="M177.931,492.161a.645.645,0,1,1-.643-.68.662.662,0,0,1,.643.68" transform="translate(-102.003 -283.805)"/>
              <path id="Trazado_1002687" data-name="Trazado 1002687" d="M179.641,492.779a.334.334,0,1,1-.324-.25.294.294,0,0,1,.324.25" transform="translate(-103.36 -284.41)" fill="#fff"/>
              <path id="Trazado_1002688" data-name="Trazado 1002688" d="M177.614,492.17a3.239,3.239,0,0,0-1.824-1.037c-1.043-.316-2.609.142-2.638.884-.436-.317-.45-.9.664-1.319a3.043,3.043,0,0,1,3.654,1.178.937.937,0,0,1,.143.294" transform="translate(-99.828 -283.235)" fill="#ea9f6c"/>
              <path id="Trazado_1002689" data-name="Trazado 1002689" d="M197.508,492.175a6.206,6.206,0,0,0,2.548.476c1.042-.026,1.992-.289,1.992-.95s-.9-1.186-1.959-1.186a3.58,3.58,0,0,0-2.581,1.659" transform="translate(-114.051 -283.247)" fill="#fff"/>
              <path id="Trazado_1002690" data-name="Trazado 1002690" d="M201.089,491.562a1.005,1.005,0,1,0,1-1.06,1.033,1.033,0,0,0-1,1.06" transform="translate(-116.118 -283.239)" fill="#7b9368"/>
              <path id="Trazado_1002691" data-name="Trazado 1002691" d="M201.934,492.093a.645.645,0,1,0,.644-.679.663.663,0,0,0-.644.679" transform="translate(-116.606 -283.766)"/>
              <path id="Trazado_1002692" data-name="Trazado 1002692" d="M204.309,492.516a.333.333,0,1,0,.324-.251.294.294,0,0,0-.324.251" transform="translate(-117.978 -284.257)" fill="#fff"/>
              <path id="Trazado_1002693" data-name="Trazado 1002693" d="M197.5,492.139a3.244,3.244,0,0,1,1.824-1.037c1.044-.316,2.609.142,2.639.884.435-.317.393-.932-.722-1.348a2.984,2.984,0,0,0-3.6,1.207.948.948,0,0,0-.144.294" transform="translate(-114.048 -283.204)" fill="#ea9f6c"/>
              <path id="Trazado_1002694" data-name="Trazado 1002694" d="M188.536,506.91h-1.674a1.318,1.318,0,0,1-1.217-.93,1.571,1.571,0,0,0-.09.522c0,.8.977,1.06,1.7,1.06h.888c.72,0,1.7-.259,1.7-1.06a1.561,1.561,0,0,0-.091-.522,1.32,1.32,0,0,1-1.216.93" transform="translate(-107.149 -292.177)" fill="#ea9f6c"/>
              <path id="Trazado_1002695" data-name="Trazado 1002695" d="M159.844,492.3c-.012-.144.27-.788.621-.677.535.169.875,1.213,1.1,2.257s.119,1.8,0,1.524a15.149,15.149,0,0,0-.96-2.85c-.423-.791-.678.876-.762-.254" transform="translate(-92.301 -283.881)" fill="#ea9f6c"/>
              <path id="Trazado_1002696" data-name="Trazado 1002696" d="M219.4,492.3c.011-.144-.27-.788-.62-.677-.536.169-.874,1.213-1.1,2.257s-.12,1.8,0,1.524a15.03,15.03,0,0,1,.959-2.85c.423-.791.677.876.762-.254" transform="translate(-125.621 -283.881)" fill="#ea9f6c"/>
              <path id="Trazado_1002697" data-name="Trazado 1002697" d="M183.265,454.244c-1.8-3.156-12.078-1.806-15.352-.9s-5.418,2.709-5.3,5.531c.1,2.44.111,7.914.113,9.352a1.934,1.934,0,0,1,.827.333l.64,2.957.677-4.628s-1.354-9.03,7.45-7.45a22.417,22.417,0,0,0-3.5,3.048s5.193-1.243,7.224-2.032,0,1.694,0,1.694,3.951-1.467,5.193-1.918,2.483-.114,2.709,2.032.79,10.271.79,10.271l1.418-4.254a1.621,1.621,0,0,1,.329-.055c.046-.859.1-1.928.172-3.254.677-12.868-2.032-8.352-3.387-10.723" transform="translate(-93.895 -261.16)" fill="#875d41"/>
              <path id="Trazado_1002698" data-name="Trazado 1002698" d="M183.64,516.83c.074.4.71,1.347,1.08,1.347h3.708c.373,0,1.007-.951,1.081-1.347Z" transform="translate(-106.043 -298.442)" fill="#ea8c63"/>
              <path id="Trazado_1002699" data-name="Trazado 1002699" d="M187.335,516.168c-.786-.1-3.379-.055-3.781-.036-1.034.047-1.637-.53-1.6-.641.06-.178.194-.137.309.037.106.158.784.1,1.121.032,1.709-.368,1.27.044,2.1.057.784.012.516-.383,2-.048a3.282,3.282,0,0,0,1.444.158c.172-.086.306-.181.352,0s-.69.594-1.948.439" transform="translate(-105.068 -297.603)" fill="#d87350"/>
              <g id="Grupo_1179198" data-name="Grupo 1179198" transform="translate(71.628 205.908)" opacity="0.4">
                <g id="Grupo_1179197" data-name="Grupo 1179197">
                  <g id="Grupo_1179196" data-name="Grupo 1179196" clip-path="url(#clip-path-4)">
                    <path id="Rectángulo_456295" data-name="Rectángulo 456295" d="M2.592,0h2.37A2.592,2.592,0,0,1,7.554,2.592v0A2.591,2.591,0,0,1,4.963,5.183H2.592A2.592,2.592,0,0,1,0,2.592v0A2.592,2.592,0,0,1,2.592,0Z" transform="translate(0 0)" fill="#fff"/>
                  </g>
                </g>
              </g>
              <g id="Grupo_1179201" data-name="Grupo 1179201" transform="translate(81.773 205.908)" opacity="0.4">
                <g id="Grupo_1179200" data-name="Grupo 1179200">
                  <g id="Grupo_1179199" data-name="Grupo 1179199" clip-path="url(#clip-path-4)">
                    <path id="Rectángulo_456297" data-name="Rectángulo 456297" d="M2.592,0h2.37A2.592,2.592,0,0,1,7.554,2.592v0A2.591,2.591,0,0,1,4.962,5.183H2.591A2.591,2.591,0,0,1,0,2.592v0A2.592,2.592,0,0,1,2.592,0Z" transform="translate(0 0)" fill="#fff"/>
                  </g>
                </g>
              </g>
              <path id="Trazado_1002700" data-name="Trazado 1002700" d="M186.64,487.5l-3.282.073a1.755,1.755,0,0,0-1.519-.881h-4.447a1.764,1.764,0,0,0-1.764,1.764v.312a12.62,12.62,0,0,0-2.169,0v-.315a1.764,1.764,0,0,0-1.765-1.764h-4.447a1.758,1.758,0,0,0-1.539.918l-2.851-.073v.569l2.626,1.054v1.428a1.764,1.764,0,0,0,1.764,1.764h4.447a1.764,1.764,0,0,0,1.765-1.764v-1.056a13.151,13.151,0,0,1,2.169,0v1.06a1.764,1.764,0,0,0,1.764,1.764h4.447a1.764,1.764,0,0,0,1.765-1.764v-1.467l3.036-1.052Zm-13.751,2.9a1.512,1.512,0,0,1-1.512,1.512h-3.812a1.512,1.512,0,0,1-1.512-1.512v-1.827a1.512,1.512,0,0,1,1.512-1.512h3.812a1.512,1.512,0,0,1,1.512,1.512Zm10.145,0a1.512,1.512,0,0,1-1.512,1.512h-3.813a1.512,1.512,0,0,1-1.512-1.512v-.846c0-.007,0-.014,0-.022s0-.019,0-.03v-.929a1.512,1.512,0,0,1,1.512-1.512h3.813a1.512,1.512,0,0,1,1.512,1.512Z" transform="translate(-94.041 -281.036)" fill="#212121"/>
              <path id="Trazado_1002701" data-name="Trazado 1002701" d="M153.638,583.9s.551,6.727.772,8.16.993,6.617.993,6.617l4.521-.221s-4.08-4.522-6.285-14.557" transform="translate(-88.718 -337.169)" fill="#161616"/>
              <path id="Trazado_1002702" data-name="Trazado 1002702" d="M187.128,578.525l.587-.093,2.255-8.858-1.551-12.292,1.876-2.714-1.1-2.979-3.824-.107-.992,3.245,1.735,2.5-1.77,10.372Z" transform="translate(-106.451 -318.452)" fill="#5fa6b2"/>
              <path id="Trazado_1002703" data-name="Trazado 1002703" d="M196.4,573.822l6.553-12.221-.843-4.213,4.108-.737-.684-10.837-3.2-.462a7.626,7.626,0,0,1-1.359-.742l-1.669,2.4-6.989,27.457c1.241-.2,2.594-.41,4.082-.642" transform="translate(-111.053 -314.484)" fill="#515151"/>
              <path id="Trazado_1002704" data-name="Trazado 1002704" d="M161.927,561.515l7.066,13.578c1.009-.154,2.1-.326,3.3-.516l-7.039-27.656-1.676-2.277a7.616,7.616,0,0,1-1.358.743l-2.993.367-.567,10.811,4.108.737Z" transform="translate(-91.618 -314.504)" fill="#515151"/>
              <path id="Trazado_1002705" data-name="Trazado 1002705" d="M148.749,605.019l1.811,1.594a48.46,48.46,0,0,0,10.9-.666,19.71,19.71,0,0,0-2.355-2.685l-5.626-4.949c-.7-.618-1.57-.781-1.937-.365s-.094,1.257.608,1.874l4.463,3.927-.1.082-4.863-4.278c-.7-.618-1.569-.78-1.937-.365s-.095,1.257.607,1.874l4.638,4.08-.085.072-4.643-4.086c-.66-.581-1.475-.734-1.819-.341s-.09,1.179.57,1.76l4.431,3.9-.1.08L150,603.6c-.66-.581-1.475-.734-1.819-.341s-.09,1.178.57,1.759" transform="translate(-85.476 -345.151)" fill="#fcc397"/>
              <path id="Trazado_1002706" data-name="Trazado 1002706" d="M162.745,645.016a87.594,87.594,0,0,1-12.5.56v4.16l10.366-2.426,24.37,2.426v-3.263c-8.144,1.026-20.418.373-22.235-1.457" transform="translate(-86.758 -372.463)" fill="#161616"/>
              <path id="Trazado_1002707" data-name="Trazado 1002707" d="M214.587,659a7.641,7.641,0,0,1-1.247-4.188c0-.176.014-.348.026-.521l-1.577-.157c-.016.224-.028.45-.028.679a9.262,9.262,0,0,0,4.737,8.083c.907-.289,1.546-.519,2.189-.763a7.714,7.714,0,0,1-4.1-3.132" transform="translate(-122.28 -377.727)" fill="#515151"/>
              <path id="Trazado_1002708" data-name="Trazado 1002708" d="M170.208,636.853s12.323-1.02,17.368-3.143c.593-.249.413-2.536.413-3.557.386,1.185,1.083,4.11.248,4.741-2.172,1.645-12.433,2.481-18.03,1.958" transform="translate(-98.286 -363.881)" fill="#161616"/>
              <rect id="Rectángulo_456299" data-name="Rectángulo 456299" width="2.096" height="7.34" transform="matrix(0.938, -0.348, 0.348, 0.938, 87.131, 259.363)" fill="#fff"/>
              <path id="Trazado_1002709" data-name="Trazado 1002709" d="M217.835,613.329l-5.717-.433a1.758,1.758,0,0,0-.831.147l2.366,6.383c2.212-.9,3.163-1.607,3.525-2.8a33.214,33.214,0,0,0,.667-3.3l-.01,0" transform="translate(-122.007 -353.913)" fill="#fcc397"/>
              <path id="Trazado_1002710" data-name="Trazado 1002710" d="M190.055,651.749V663.61c.127,0,.254.005.381.005l.134,0V651.749Z" transform="translate(-109.747 -376.351)" fill="#161616"/>
              <path id="Trazado_1002711" data-name="Trazado 1002711" d="M195.853,664.881a1.029,1.029,0,1,1-1.029-1.029,1.029,1.029,0,0,1,1.029,1.029" transform="translate(-111.906 -383.34)" fill="#515151"/>
              <path id="Trazado_1002712" data-name="Trazado 1002712" d="M196.95,666.068a.161.161,0,1,1-.161-.162.161.161,0,0,1,.161.162" transform="translate(-113.542 -384.526)" fill="#333"/>
              <path id="Trazado_1002713" data-name="Trazado 1002713" d="M195.391,666.068a.161.161,0,1,1-.161-.162.161.161,0,0,1,.161.162" transform="translate(-112.642 -384.526)" fill="#333"/>
              <path id="Trazado_1002714" data-name="Trazado 1002714" d="M171.436,537.711l6.741,5.792-4.95,4.951-4.845-7.478Z" transform="translate(-97.231 -310.5)" fill="#fff"/>
              <path id="Trazado_1002715" data-name="Trazado 1002715" d="M198.3,537.711l-6.741,5.792,4.95,4.951,4.846-7.478Z" transform="translate(-110.617 -310.5)" fill="#fff"/>
              <path id="Trazado_1002716" data-name="Trazado 1002716" d="M90.772,145.671a45.386,45.386,0,1,1-45.386-45.385,45.386,45.386,0,0,1,45.386,45.385" transform="translate(0 -57.91)" fill="#0e5a52"/>
              <path id="Trazado_1002717" data-name="Trazado 1002717" d="M103.034,99.7c0,8.459-6.569,15.361-14.672,15.317-10.344-.056-14.671-6.857-14.671-15.317S80.26,84.387,88.362,84.387s14.672,6.858,14.672,15.317" transform="translate(-42.553 -48.729)" fill="#684528"/>
              <path id="Trazado_1002718" data-name="Trazado 1002718" d="M96.147,155.793v2.564a27.723,27.723,0,0,0,4.143,2.381,1.366,1.366,0,0,0,1.088.04,32.736,32.736,0,0,0,4.77-2.461v-2.524Z" transform="translate(-55.52 -89.962)" fill="#ea9f6c"/>
              <path id="Trazado_1002719" data-name="Trazado 1002719" d="M101.947,106.644a1.368,1.368,0,0,0-1.02.087c.359-3.427.561-6.881.039-7.7a13.721,13.721,0,0,0-10.955-6.323h0a13.721,13.721,0,0,0-10.956,6.323c-.516.809-.324,4.2.029,7.6a1.263,1.263,0,0,0-.728.012c-1.009.339-1.363,1.991-.791,3.688a3.468,3.468,0,0,0,2.3,2.505c.139.961.235,1.564.235,1.564,2.076,5.5,7.555,8.211,9.339,8.963a1.432,1.432,0,0,0,1.089.022c1.726-.719,7.295-3.425,9.391-8.984,0,0,.1-.6.234-1.559.95.066,2.049-.973,2.572-2.5.577-1.694.229-3.347-.778-3.69" transform="translate(-44.632 -53.535)" fill="#fcc397"/>
              <path id="Trazado_1002720" data-name="Trazado 1002720" d="M113.891,121.126a4.435,4.435,0,0,1,5.324-.242c1.593,1.123-.823-.557-2.016-.417a6.733,6.733,0,0,0-3.036,1.2c-.4.279-.672-.265-.273-.545" transform="translate(-65.653 -69.338)" fill="#684528"/>
              <path id="Trazado_1002721" data-name="Trazado 1002721" d="M93.105,121.174a4.18,4.18,0,0,0-5.162-.185c-1.555,1.141.8-.565,1.959-.44a6.3,6.3,0,0,1,2.935,1.172c.384.275.653-.273.269-.547" transform="translate(-50.485 -69.384)" fill="#684528"/>
              <path id="Trazado_1002722" data-name="Trazado 1002722" d="M86.624,172.282a6.035,6.035,0,0,0-4.721-3.149l-7.4-1.118c-2.257-.777-4.353-3.171-4.353-4.619,0-.046-.016-4.024-.016-4.024a35.636,35.636,0,0,1-5.292,2.065,28.575,28.575,0,0,1-4.71-2.034s-.016,3.91-.016,3.956c0,1.476-2.482,3.931-4.882,4.66l-7.368,1.113c-1.5,0-4.242,1.8-5.167,4.167-1.435,3.221-3.612,9.661-8.922,22.488.348,4.478,5.067,7.413,7.742,4.5,2.263-2.463,5.675-11.8,7.554-17.3H81.85c2.82,4.748,7.021,12.346,7.07,15.547.04,2.623,7.195,4.277,7.034-2.429-.142-5.917-6.684-19.429-9.33-23.829" transform="translate(-19.505 -92.029)" fill="#fcc397"/>
              <path id="Trazado_1002723" data-name="Trazado 1002723" d="M95.41,127.6a9.743,9.743,0,0,1-2.451.715c-1.006.041-1.828-.529-1.828-1.157s.816-1.138,1.822-1.138a3.409,3.409,0,0,1,2.458,1.58" transform="translate(-52.623 -72.769)" fill="#fff"/>
              <path id="Trazado_1002724" data-name="Trazado 1002724" d="M94.871,127.255a1.063,1.063,0,1,1-1.061-1.12,1.091,1.091,0,0,1,1.061,1.12" transform="translate(-53.558 -72.836)" fill="#7b9368"/>
              <path id="Trazado_1002725" data-name="Trazado 1002725" d="M95.079,127.482a.72.72,0,1,1-.719-.758.74.74,0,0,1,.719.758" transform="translate(-54.073 -73.176)"/>
              <path id="Trazado_1002726" data-name="Trazado 1002726" d="M96.39,127.922a.353.353,0,1,1-.342-.265.31.31,0,0,1,.342.265" transform="translate(-55.265 -73.715)" fill="#fff"/>
              <path id="Trazado_1002727" data-name="Trazado 1002727" d="M93.834,127.3c-.826-1.473-2.681-1.531-3.887-1.082-1.061.395-1.268.187-1.311.134a2.422,2.422,0,0,0,1.7,1.667,1.252,1.252,0,0,1-.6-.649c.112-.668,1.538-1.069,2.5-.779a3.091,3.091,0,0,1,1.738.988,1.171,1.171,0,0,0-.136-.279" transform="translate(-51.183 -72.739)"/>
              <path id="Trazado_1002728" data-name="Trazado 1002728" d="M113.774,127.6a10,10,0,0,0,2.488.715c1.019.041,1.853-.529,1.853-1.157s-.827-1.138-1.848-1.138a3.46,3.46,0,0,0-2.493,1.58" transform="translate(-65.699 -72.769)" fill="#fff"/>
              <path id="Trazado_1002729" data-name="Trazado 1002729" d="M117.313,127.255a1.077,1.077,0,1,0,1.075-1.12,1.1,1.1,0,0,0-1.075,1.12" transform="translate(-67.742 -72.836)" fill="#7b9368"/>
              <path id="Trazado_1002730" data-name="Trazado 1002730" d="M118.049,127.482a.73.73,0,1,0,.729-.758.745.745,0,0,0-.729.758" transform="translate(-68.167 -73.176)"/>
              <path id="Trazado_1002731" data-name="Trazado 1002731" d="M120.427,128.06a.359.359,0,1,0,.346-.266.314.314,0,0,0-.346.266" transform="translate(-69.54 -73.794)" fill="#fff"/>
              <path id="Trazado_1002732" data-name="Trazado 1002732" d="M119.182,126.348c-.044.053-.253.261-1.329-.134-1.225-.449-3.105-.391-3.943,1.082a1.121,1.121,0,0,0-.139.279,3.145,3.145,0,0,1,1.762-.988c.976-.29,2.422.111,2.537.778a1.26,1.26,0,0,1-.61.65c.7-.253,1.694-.933,1.723-1.667" transform="translate(-65.696 -72.74)"/>
              <path id="Trazado_1002733" data-name="Trazado 1002733" d="M103.034,97.58c0-7.285-6.569-13.194-14.672-13.194S73.691,90.295,73.691,97.58a14.188,14.188,0,0,0,1.535,6.7c-.095-1.2.293-2.192,1.05-2.447a1.2,1.2,0,0,1,.531-.049c.392,1.531.806,2.589.806,1.734,0-1.009.2-2.863.371-4.228a20.377,20.377,0,0,1,10.377-6.44,17.726,17.726,0,0,1,10.024,6.833c.147,1.3.3,2.878.3,3.781,0,.845.383-.18.752-1.683a1.174,1.174,0,0,1,.428.056c.791.269,1.173,1.348,1.022,2.62a12.2,12.2,0,0,0,2.144-6.879" transform="translate(-42.553 -48.729)" fill="#7c5732"/>
              <path id="Trazado_1002734" data-name="Trazado 1002734" d="M105.676,141.167H104.3a1.079,1.079,0,0,1-1-.763,1.291,1.291,0,0,0-.075.428c0,.659.8.87,1.4.87h.729c.592,0,1.394-.211,1.394-.87a1.324,1.324,0,0,0-.074-.428,1.082,1.082,0,0,1-1,.763" transform="translate(-59.609 -81.076)" fill="#ea9f6c"/>
              <path id="Trazado_1002735" data-name="Trazado 1002735" d="M78.173,127.719c-.01-.137.258-.751.592-.646.51.161.833,1.156,1.048,2.15s.114,1.718,0,1.451a14.465,14.465,0,0,0-.914-2.714c-.4-.752-.645.834-.726-.24" transform="translate(-45.14 -73.371)" fill="#ea9f6c"/>
              <path id="Trazado_1002736" data-name="Trazado 1002736" d="M134.882,127.719c.01-.137-.258-.751-.591-.646-.512.161-.834,1.156-1.049,2.15s-.114,1.718,0,1.451a14.467,14.467,0,0,1,.914-2.714c.4-.752.645.834.726-.24" transform="translate(-76.867 -73.371)" fill="#ea9f6c"/>
              <path id="Trazado_1002737" data-name="Trazado 1002737" d="M91.054,136.555c-.267.849-1.591,1.189-2.954.759s-2.253-1.467-1.985-2.316,1.59-1.189,2.954-.758,2.252,1.466,1.984,2.316" transform="translate(-49.699 -77.409)" fill="#ffb18a"/>
              <path id="Trazado_1002738" data-name="Trazado 1002738" d="M116.639,136.555c.268.849,1.591,1.189,2.954.759s2.253-1.467,1.985-2.316-1.59-1.189-2.954-.758-2.252,1.466-1.985,2.316" transform="translate(-67.326 -77.409)" fill="#ffb18a"/>
              <path id="Trazado_1002739" data-name="Trazado 1002739" d="M99.842,181.183l-6.235-.942c.366,6.574-22.018,5.922-21.69.019l-6.112.923c1.52,6.6.206,14.713.38,14.978a7.723,7.723,0,0,0,4.341,9.818,41.571,41.571,0,0,1,1.088,5.232,55.242,55.242,0,0,1,.618,10.231A19.3,19.3,0,0,0,67,227.51a20,20,0,0,0-2.154,6.011,45.493,45.493,0,0,0,36.446-.207,20.012,20.012,0,0,0-2.194-5.944,19.279,19.279,0,0,0-5.285-6.022,55.589,55.589,0,0,1,.623-10.137,41.8,41.8,0,0,1,1.054-5.115,7.722,7.722,0,0,0,4.242-9.737c.146-.226-1.2-10.423.114-15.176" transform="translate(-37.443 -104.08)" fill="#848484"/>
              <path id="Trazado_1002740" data-name="Trazado 1002740" d="M98.635,148.18c-.409-.172-.473-.1-.525-.039-.066.082-.091.075.173.432l.569.754a3.931,3.931,0,0,0,3.3,2.062,3.742,3.742,0,0,0,3.205-2.2c.1-.2.327-.521.392-.634.209-.375.175-.386.122-.44-.145-.157-.162-.072-.428.063a15.4,15.4,0,0,1-3.5.307,15.152,15.152,0,0,1-3.3-.308" transform="translate(-56.628 -85.482)" fill="#c6523c"/>
              <path id="Trazado_1002741" data-name="Trazado 1002741" d="M105.3,149.775c.513-.16.671-.612.8-1.181a17.064,17.064,0,0,1-3.09.175,25.615,25.615,0,0,1-2.676-.184c.136.646.249.718.788.99-.426.024-.506.427-.449.9a4.395,4.395,0,0,0,2.687,1.073,3.122,3.122,0,0,0,2.627-1.071c-.112-.3-.322-.687-.687-.7" transform="translate(-57.939 -85.8)" fill="#fff"/>
              <path id="Trazado_1002742" data-name="Trazado 1002742" d="M99.65,148.185s.138.582,3.01.559c2.848-.022,3.44-.535,3.44-.535s-2.15-.251-3.319-.232c-1.078.019-3.131.207-3.131.207" transform="translate(-57.543 -85.449)" fill="#fc7365"/>
              <path id="Trazado_1002743" data-name="Trazado 1002743" d="M99.042,149.862a3.493,3.493,0,0,0,3.367,2.806c2.694.086,3.722-2.818,3.722-2.818A4.411,4.411,0,0,1,102.6,151.5a4.054,4.054,0,0,1-3.562-1.633" transform="translate(-57.192 -86.531)" fill="#fc7365"/>
              <path id="Trazado_1002744" data-name="Trazado 1002744" d="M44.231,213.008c-.279-.018-3.379-.271-3.5.27-.036.153-.067.908-.066.945-.208-.013-.407-.025-.561-.03-.5-.019-1.651-.068-1.481.816,0,.024.047.214.065.289a9.148,9.148,0,0,0-1.67,1.059c-.2.257-.117.4.063.869.459,1.2,1.169,2.725,1.4,3.222l-3.617,4.571.047-.011a2.913,2.913,0,0,0-.185.368,7.7,7.7,0,0,0,.961,6.749c1.238,1.954,2.641,2.09,4.515.026a66.613,66.613,0,0,0,4.217-5.445V213.068a.38.38,0,0,0-.188-.06" transform="translate(-19.818 -122.958)" fill="#ea9f6c"/>
              <path id="Trazado_1002745" data-name="Trazado 1002745" d="M44.786,219.624a1.618,1.618,0,0,1-.832-.572,22.176,22.176,0,0,0-1.378,1.848s-2.734.426-3.186,1.115-1.317.628-1.133,1.405a2.544,2.544,0,0,0,.27.584c.433.755,1.274,1.908,1.877,2.776.307.442-5.331-.371-6.486,2.457a7.707,7.707,0,0,0,.961,6.75c1.238,1.953,3.54,2.089,5.413.025a70.342,70.342,0,0,0,4.493-5.832Z" transform="translate(-19.352 -126.491)" fill="#fcc397"/>
              <path id="Trazado_1002746" data-name="Trazado 1002746" d="M54.223,213.919c-.279-.018-3.4-.237-3.516.218a4.618,4.618,0,0,0-.06,1.144c.492.03,2.645.055,2.878.123s.676,1.583,2.02.916c0,0-.595-1.524-.782-1.864s-.261-.519-.54-.537" transform="translate(-29.242 -123.487)" fill="#fcc397"/>
              <path id="Trazado_1002747" data-name="Trazado 1002747" d="M52.428,216.751c-.044-.245-.373-.408-.565-.425-.172-.015-.772-.061-1.264-.091a6.01,6.01,0,0,0,.2,1.869.246.246,0,0,1,.118.1c.082.136.172.471.328.841a1.149,1.149,0,0,0,1.119.67,2.872,2.872,0,0,0,.49-.046s-.368-2.529-.423-2.921" transform="translate(-29.217 -124.864)" fill="#ea9f6c"/>
              <path id="Trazado_1002748" data-name="Trazado 1002748" d="M48.969,216.8c-.231-.019-1.2-.1-1.7-.115s-1.651-.069-1.482.816c0,.024.158-.026.188-.035a.753.753,0,0,1,.775.075,19.019,19.019,0,0,1,1.3,1.585l-.382-.974s.357-.166.472.027c.082.136.172.47.328.84a1.286,1.286,0,0,0,1.385.716s-.294-2.087-.368-2.363-.284-.552-.515-.572" transform="translate(-26.429 -125.117)" fill="#fcc397"/>
              <path id="Trazado_1002749" data-name="Trazado 1002749" d="M51.825,224.127l-.019-.028.012.031.006,0" transform="translate(-29.915 -129.405)" fill="#ba7a4f"/>
              <path id="Trazado_1002750" data-name="Trazado 1002750" d="M45.789,217.905a1.4,1.4,0,0,0-.283.148c.1.464.475,1.409.684,2.05.059.058.267.362.509.6.464.455,1.707-.164,1.773-.191,0,0-1.671-2.308-1.908-2.53a.753.753,0,0,0-.775-.076" transform="translate(-26.277 -125.787)" fill="#ea9f6c"/>
              <path id="Trazado_1002751" data-name="Trazado 1002751" d="M41.916,221.027c-.18-.47-.264-.612-.063-.87a9.464,9.464,0,0,1,1.843-1.137.755.755,0,0,1,.775.076c.253.238,1.445,1.885,1.445,1.885s-1.1.477-1.577.007l-.478-.47-.288.267.913,1.49-1.333,1.443a24.254,24.254,0,0,1-1.237-2.692" transform="translate(-24.101 -126.431)" fill="#fcc397"/>
              <path id="Trazado_1002752" data-name="Trazado 1002752" d="M54.73,221.957l-.244-1.462a.364.364,0,0,0-.276.038c-.139.082.044,1.207.153,1.319a.591.591,0,0,0,.367.1" transform="translate(-31.274 -127.318)" fill="#e25c52"/>
              <path id="Trazado_1002753" data-name="Trazado 1002753" d="M50.381,222.341l-.8-.995a.312.312,0,0,0-.191.144c-.07.12.538.888.667.926a.51.51,0,0,0,.319-.076" transform="translate(-28.519 -127.816)" fill="#e25c52"/>
              <path id="Trazado_1002754" data-name="Trazado 1002754" d="M80.272,224.9H58.412a.638.638,0,0,1-.636-.636V208.973a.638.638,0,0,1,.636-.636h21.86a.638.638,0,0,1,.636.636v15.291a.638.638,0,0,1-.636.636" transform="translate(-33.363 -120.304)" fill="#565656"/>
              <path id="Trazado_1002755" data-name="Trazado 1002755" d="M99.021,226.069a1.16,1.16,0,0,0,.91.993,15.09,15.09,0,0,0,3.557-.5l2.252,2.109s1.8-.243,1.553-1.051c-.745-.671-2.035-2.1-2.481-2.376a2,2,0,0,0-1.643-.253c-.59.166-4.147,1.075-4.147,1.075" transform="translate(-57.179 -129.878)" fill="#fcc397"/>
              <path id="Trazado_1002756" data-name="Trazado 1002756" d="M136.16,234.764c-2.125-.868-7.049-.743-9.709.212-4.983,1.79-11.2.049-11.2.049h0c-.068-.107-3.921-3.706-3.921-3.706l-2.373.515-2.949,4.3a3.48,3.48,0,0,1,.855.45c.305.243,3.749,2.941,5.211,2.941a2.63,2.63,0,0,0,.719-.106c1.93.656,10.627,3.461,18.209,3.454,4.639,0,4.888-1.066,6.251-2.644.708-3.08-.355-5.673-1.088-5.467" transform="translate(-61.211 -133.575)" fill="#fcc397"/>
              <path id="Trazado_1002757" data-name="Trazado 1002757" d="M98.922,227.118l1.529-.386a.389.389,0,0,1,.083.285c-.02.169-1.195.472-1.351.415s-.261-.313-.261-.313" transform="translate(-57.122 -130.926)" fill="#e26954"/>
              <path id="Trazado_1002758" data-name="Trazado 1002758" d="M101.579,238.186c-.315-.079-.6-.155-.875-.227-.065.068-.126.126-.175.168-.389-.09-5.158-1.354-5.7-1.524-.125-.04-.262-.085-.4-.139a.758.758,0,0,0-.184.261c-.124.462.646.818,1.181,1.038s5.333,1.888,5.72,2.017c.439-.252,1.682-1.275.431-1.593" transform="translate(-54.415 -136.545)" fill="#fcc397"/>
              <path id="Trazado_1002759" data-name="Trazado 1002759" d="M100.771,237.975c.049-.043.11-.1.175-.168-1.339-.357-2.164-.62-2.852-.827-.71-.213-1.975-.573-2.748-.734a.807.807,0,0,0-.693.064c.137.054.274.1.4.14.541.17,5.33,1.434,5.719,1.524" transform="translate(-54.657 -136.394)" fill="#ea9f6c"/>
              <path id="Trazado_1002760" data-name="Trazado 1002760" d="M95.27,237.24a2.133,2.133,0,0,0,.22-.532,3.088,3.088,0,0,0-.816-.341.274.274,0,0,0-.287.452,2.57,2.57,0,0,0,.884.421" transform="translate(-54.456 -136.482)" fill="#e26954"/>
              <path id="Trazado_1002761" data-name="Trazado 1002761" d="M101.523,234.468c-2.22-.259-3.438-.481-4.422-.638-.844-.135-2.344-.355-3.254-.422-.322-.023-.874.092-.928.5-.073.547.862.837,1.507,1.007s6.4,1.5,6.86,1.585c.464-.356,1.716-1.861.237-2.034" transform="translate(-53.654 -134.779)" fill="#fcc397"/>
              <path id="Trazado_1002762" data-name="Trazado 1002762" d="M94.127,234.841a1.548,1.548,0,0,0,.151-.632,3.952,3.952,0,0,0-1.041-.4c-.254-.02-.48.4-.171.688a2.971,2.971,0,0,0,1.061.346" transform="translate(-53.655 -135.011)" fill="#e26954"/>
              <path id="Trazado_1002763" data-name="Trazado 1002763" d="M100.684,231.807c-2.028-.033-3.147-.13-4.049-.187-.775-.05-2.15-.116-2.976-.09-.293.009-.73.175-.744.587-.019.551.753.647,1.35.75.273.047,1.313.228,2.936.377,1.574.145,3.189.441,3.419.464.389-.4,1.415-1.879.064-1.9" transform="translate(-53.653 -133.693)" fill="#ea9f6c"/>
              <path id="Trazado_1002764" data-name="Trazado 1002764" d="M101.36,231.456c-2.234.035-3.471-.024-4.467-.051-.854-.024-2.371-.044-3.281.01-.322.019-.854.207-.854.619,0,.551.965.717,1.626.8.285.035,1.579.05,2.942.151,1.8.134,3.767.357,4.034.373.414-.414,1.489-1.926,0-1.9" transform="translate(-53.563 -133.611)" fill="#fcc397"/>
              <path id="Trazado_1002765" data-name="Trazado 1002765" d="M94.181,232.7a2.87,2.87,0,0,0,.093-.769,4.154,4.154,0,0,0-1.185-.148.369.369,0,0,0-.209.691,3.468,3.468,0,0,0,1.3.227" transform="translate(-53.523 -133.842)" fill="#e26954"/>
              <path id="Trazado_1002766" data-name="Trazado 1002766" d="M108.683,92.567s6.735,1.3,8.945,5.09c-.363-.886-1.255-3.54-8.093-5.686a18.826,18.826,0,0,1,9.834,4.13c-1.064-1.46-2.183-2.926-6.577-5.289.91-.1,4.419,1.369,4.917,1.794-.5-.551-.694-1.514-4.652-3.372a25.884,25.884,0,0,1,5.511,2.492c-2.592-3.141-7.2-4.377-9.885-4.374,0,.954,0,5.216,0,5.216" transform="translate(-62.758 -50.441)" fill="#a07045"/>
              <path id="Trazado_1002767" data-name="Trazado 1002767" d="M93.139,92.516s-6.729,1.34-8.918,5.137c.358-.888,1.235-3.546,8.062-5.729a18.818,18.818,0,0,0-9.812,4.182c1.056-1.465,2.167-2.937,6.548-5.324-.911-.1-4.411,1.392-4.907,1.82.492-.553.685-1.517,4.633-3.4a25.847,25.847,0,0,0-5.5,2.522c2.575-3.156,7.006-4.386,9.7-4.4,0,1.033.194,5.185.194,5.185" transform="translate(-47.623 -50.429)" fill="#a07045"/>
              <path id="Trazado_1002768" data-name="Trazado 1002768" d="M369.889,239.3l2.258,4.673c.766,1.12,1.82,1.13,3,.831l-3.331-7.933s0,0-.005,0a3.286,3.286,0,0,0-1.185.622,1.764,1.764,0,0,0-.737,1.8" transform="translate(-213.562 -136.784)" fill="#ff7c3b"/>
              <path id="Trazado_1002769" data-name="Trazado 1002769" d="M324.26,320.592h32.328l3.369-17.558c-.761-20.962-24.636-16.935-37.892-15.315l6.811,18.35h-4.209Z" transform="translate(-185.976 -165.328)" fill="#ffaf57"/>
              <path id="Trazado_1002770" data-name="Trazado 1002770" d="M398.061,369.154l-27.484-28.209,17.393-15.053L414.9,350.845Z" transform="translate(-213.989 -188.186)" fill="#ffaf57"/>
              <path id="Trazado_1002771" data-name="Trazado 1002771" d="M364.081,241.741l5.306,18.046,2.471,8.4,9.394-5.943-12.5-29.762-.005,0c-2.83,1.155-6.108,4.362-4.668,9.258" transform="translate(-210.035 -134.246)" fill="#ffaf57"/>
              <path id="Trazado_1002772" data-name="Trazado 1002772" d="M385.745,353.318l15.561-17.39,22.357,20.712-16.843,18.309Z" transform="translate(-222.747 -193.981)" fill="#00897b"/>
              <path id="Trazado_1002773" data-name="Trazado 1002773" d="M316.552,301.143a4.165,4.165,0,0,1,4.167-4.168,4.168,4.168,0,0,1,0-8.336h11.1a4.168,4.168,0,0,1,0,8.336,4.168,4.168,0,0,1,0,8.336,4.167,4.167,0,0,1,0,8.334,4.168,4.168,0,0,1,0,8.336h-11.1a4.168,4.168,0,0,1,0-8.336,4.167,4.167,0,0,1,0-8.334,4.167,4.167,0,0,1-4.167-4.168" transform="translate(-182.792 -166.674)" fill="#ffc278"/>
              <path id="Trazado_1002774" data-name="Trazado 1002774" d="M347.558,292.1c.125-.017,2.244-.035,2.244-.035a2.721,2.721,0,1,1,0,5.442s-2.119-.02-2.244-.038Z" transform="translate(-200.697 -168.653)" fill="#ff7c3b"/>
              <path id="Trazado_1002775" data-name="Trazado 1002775" d="M347.558,311.523c.125-.018,2.244-.039,2.244-.039a2.723,2.723,0,0,1,0,5.445s-2.119-.021-2.244-.038Z" transform="translate(-200.697 -179.866)" fill="#ff7c3b"/>
              <path id="Trazado_1002776" data-name="Trazado 1002776" d="M347.558,331.957c.125-.02,2.244-.039,2.244-.039a2.722,2.722,0,1,1,0,5.444s-2.119-.019-2.244-.039Z" transform="translate(-200.697 -191.665)" fill="#ff7c3b"/>
              <path id="Trazado_1002777" data-name="Trazado 1002777" d="M347.558,351.368c.125-.019,2.244-.04,2.244-.04a2.723,2.723,0,0,1,0,5.446s-2.119-.02-2.244-.039Z" transform="translate(-200.697 -202.874)" fill="#ff7c3b"/>
            </g>
          </g>
        </g>
      </g>
      <g id="Grupo_1179206" data-name="Grupo 1179206" transform="translate(361.5 5917.003)">
        <circle id="Elipse_5841" data-name="Elipse 5841" cx="20.318" cy="20.318" r="20.318" transform="translate(0 0)" fill="#fe87f6"/>
        <text id="_4" data-name="4" transform="translate(15.802 26.431)" fill="#12263f" font-size="16" font-family="SegoeUI-Bold, Segoe UI" font-weight="700"><tspan x="0" y="0">4</tspan></text>
      </g>
      <g id="Grupo_1179209" data-name="Grupo 1179209" transform="translate(397.699 6072.146)">
        <circle id="Elipse_5841-2" data-name="Elipse 5841" cx="20.318" cy="20.318" r="20.318" transform="translate(0 0)" fill="#fe87f6"/>
        <text id="_3" data-name="3" transform="translate(15.802 26.431)" fill="#12263f" font-size="16" font-family="SegoeUI-Bold, Segoe UI" font-weight="700"><tspan x="0" y="0">3</tspan></text>
      </g>
      <g id="Grupo_1179207" data-name="Grupo 1179207" transform="translate(652.204 5881.21)">
        <circle id="Elipse_5841-3" data-name="Elipse 5841" cx="20.318" cy="20.318" r="20.318" transform="translate(0 0)" fill="#fe87f6"/>
        <text id="_1" data-name="1" transform="translate(15.802 26.431)" fill="#12263f" font-size="16" font-family="SegoeUI-Bold, Segoe UI" font-weight="700"><tspan x="0" y="0">1</tspan></text>
      </g>
      <g id="Grupo_1179208" data-name="Grupo 1179208" transform="translate(689.884 6034.72)">
        <circle id="Elipse_5841-4" data-name="Elipse 5841" cx="20.318" cy="20.318" r="20.318" transform="translate(0 0)" fill="#fe87f6"/>
        <text id="_2" data-name="2" transform="translate(15.802 26.431)" fill="#12263f" font-size="16" font-family="SegoeUI-Bold, Segoe UI" font-weight="700"><tspan x="0" y="0">2</tspan></text>
      </g>
    </g>
    <g id="Grupo_1179232" data-name="Grupo 1179232" transform="translate(5.667)">
      <g id="Grupo_1119545" data-name="Grupo 1119545" transform="translate(301.333 6750.506)">
        <circle id="Elipse_5841-5" data-name="Elipse 5841" cx="21.252" cy="21.252" r="21.252" transform="translate(0 0)" fill="#fe87f6"/>
        <text id="_1-2" data-name="1" transform="translate(16.528 28.638)" fill="#12263f" font-size="18" font-family="SegoeUI-Bold, Segoe UI" font-weight="700"><tspan x="0" y="0">1</tspan></text>
      </g>
      <g id="Grupo_1119546" data-name="Grupo 1119546" transform="translate(301.333 6928.346)">
        <circle id="Elipse_5841-6" data-name="Elipse 5841" cx="21.252" cy="21.252" r="21.252" transform="translate(0 0)" fill="#fe87f6"/>
        <text id="_2-2" data-name="2" transform="translate(16.528 28.638)" fill="#12263f" font-size="18" font-family="SegoeUI-Bold, Segoe UI" font-weight="700"><tspan x="0" y="0">2</tspan></text>
      </g>
      <g id="Grupo_1179230" data-name="Grupo 1179230" transform="translate(301.333 7108.186)">
        <circle id="Elipse_5841-7" data-name="Elipse 5841" cx="21.252" cy="21.252" r="21.252" transform="translate(0 0)" fill="#fe87f6"/>
        <text id="_3-2" data-name="3" transform="translate(16.528 28.638)" fill="#12263f" font-size="18" font-family="SegoeUI-Bold, Segoe UI" font-weight="700"><tspan x="0" y="0">3</tspan></text>
      </g>
      <g id="Grupo_1179231" data-name="Grupo 1179231" transform="translate(301.333 7287.025)">
        <circle id="Elipse_5841-8" data-name="Elipse 5841" cx="21.252" cy="21.252" r="21.252" transform="translate(0 0)" fill="#fe87f6"/>
        <text id="_4-2" data-name="4" transform="translate(16.528 28.638)" fill="#12263f" font-size="18" font-family="SegoeUI-Bold, Segoe UI" font-weight="700"><tspan x="0" y="0">4</tspan></text>
      </g>
      <text id="Escucha_activa_El_líder_desarrolla_la_capacidad_de_escuchar_las_ideas_necesidades_y_propuestas_de_cada_integrante_para_orientar_las_decisiones_del_grupo." data-name="Escucha activa 

El líder desarrolla la capacidad de escuchar las ideas, necesidades y propuestas de cada integrante para orientar las decisiones del grupo." transform="translate(362.667 6762.01)" fill="#12263f" font-size="16" font-family="SegoeUI-Bold, Segoe UI" letter-spacing="0.003em" font-weight="700"><tspan x="0" y="17">Escucha activa </tspan><tspan font-family="SegoeUI, Segoe UI" font-weight="400"><tspan x="0" y="41"></tspan><tspan x="0" y="65">El líder desarrolla la capacidad de </tspan><tspan x="0" y="89">escuchar las ideas, necesidades y </tspan><tspan x="0" y="113">propuestas de cada integrante para </tspan><tspan x="0" y="137">orientar las decisiones del grupo.</tspan></tspan></text>
      <text id="Cooperación_Fomenta_la_colaboración_entre_los_miembros_del_equipo_mediante_acciones_que_fortalecen_la_confianza_y_el_trabajo_conjunto." data-name="Cooperación

Fomenta la colaboración entre los miembros del equipo mediante acciones que fortalecen la confianza y el trabajo conjunto." transform="translate(362.667 6939.85)" fill="#12263f" font-size="16" font-family="SegoeUI-Bold, Segoe UI" letter-spacing="0.003em" font-weight="700"><tspan x="0" y="17">Cooperación</tspan><tspan font-family="SegoeUI, Segoe UI" font-weight="400"><tspan x="0" y="41"></tspan><tspan x="0" y="65">Fomenta la colaboración entre los </tspan><tspan x="0" y="89">miembros del equipo mediante acciones </tspan><tspan x="0" y="113">que fortalecen la confianza y el trabajo </tspan><tspan x="0" y="137">conjunto.</tspan></tspan></text>
      <text id="Participación_Favorece_espacios_donde_cada_integrante_puede_expresar_sus_ideas_proponer_soluciones_y_contribuir_a_la_toma_de_decisiones_dentro_del_equipo." data-name="Participación 

Favorece espacios donde cada integrante puede expresar sus ideas, proponer soluciones y contribuir a la toma de decisiones dentro del equipo." transform="translate(362.667 7119.689)" fill="#12263f" font-size="16" font-family="SegoeUI-Bold, Segoe UI" letter-spacing="0.003em" font-weight="700"><tspan x="0" y="17">Participación </tspan><tspan font-family="SegoeUI, Segoe UI" font-weight="400"><tspan x="0" y="41"></tspan><tspan x="0" y="65">Favorece espacios donde cada </tspan><tspan x="0" y="89">integrante puede expresar sus ideas, </tspan><tspan x="0" y="113">proponer soluciones y contribuir a la </tspan><tspan x="0" y="137">toma de decisiones dentro del equipo.</tspan></tspan></text>
      <text id="Reconocimiento_Genera_un_ambiente_en_el_que_cada_integrante_se_siente_valorado_dentro_del_proceso_de_trabajo_lo_cual_fortalece_el_compromiso_colectivo." data-name="Reconocimiento 

Genera un ambiente en el que cada integrante se siente valorado dentro del proceso de trabajo, lo cual fortalece el compromiso colectivo." transform="translate(362.667 7298.529)" fill="#12263f" font-size="16" font-family="SegoeUI-Bold, Segoe UI" letter-spacing="0.003em" font-weight="700"><tspan x="0" y="17">Reconocimiento </tspan><tspan font-family="SegoeUI, Segoe UI" font-weight="400"><tspan x="0" y="41"></tspan><tspan x="0" y="65">Genera un ambiente en el que cada </tspan><tspan x="0" y="89">integrante se siente valorado dentro del </tspan><tspan x="0" y="113">proceso de trabajo, lo cual fortalece el </tspan><tspan x="0" y="137">compromiso colectivo.</tspan></tspan></text>
    </g>
  </g>
</svg>
