<svg xmlns="http://www.w3.org/2000/svg" xmlns:xlink="http://www.w3.org/1999/xlink" width="150" height="150" viewBox="0 0 150 150">
  <defs>
    <clipPath id="clip-path">
      <rect id="Rectángulo_456517" data-name="Rectángulo 456517" width="88.252" height="84.082" fill="#15342f"/>
    </clipPath>
  </defs>
  <g id="Grupo_1191922" data-name="Grupo 1191922" transform="translate(-383.746 -8400)">
    <circle id="Elipse_13609" data-name="Elipse 13609" cx="75" cy="75" r="75" transform="translate(383.746 8400)" fill="#fff"/>
    <g id="Grupo_1192137" data-name="Grupo 1192137" transform="translate(414.62 8432.959)">
      <g id="Grupo_1192136" data-name="Grupo 1192136" clip-path="url(#clip-path)">
        <path id="Trazado_1003547" data-name="Trazado 1003547" d="M2.739,38.9c-.172.349-.153.547-.082.667a.631.631,0,0,0,.809.225l7.45-3.649a1.272,1.272,0,0,1,1.544.413,1.307,1.307,0,0,1-.391,1.856L4.526,42.151A3.124,3.124,0,0,1,.888,41.53a3.171,3.171,0,0,1-.509-3.724l3.277-6.744a20.8,20.8,0,1,1,13.126,9.88,1.274,1.274,0,0,1-1.018-1.53,1.246,1.246,0,0,1,1.6-.972A18.214,18.214,0,1,0,6.209,30.276a1.447,1.447,0,0,1,.06,1.453Z" transform="translate(0 0)" fill="#15342f"/>
        <path id="Trazado_1003548" data-name="Trazado 1003548" d="M30.358,53.21a3.574,3.574,0,0,1,.02-5.14,3.646,3.646,0,0,1,5.142.064L40.1,52.676l9.388-9.322a3.61,3.61,0,0,1,5.1,5.109L42.753,60.317a3.676,3.676,0,0,1-5.318-.008Zm1.825-1.856L39.4,58.581a1.1,1.1,0,0,0,1.51-.076L52.764,46.617a1.057,1.057,0,0,0-.223-1.517,1.07,1.07,0,0,0-1.373.2L40.975,55.478a1.329,1.329,0,0,1-1.9-.112l-5.385-5.389a1.086,1.086,0,0,0-1.365-.17,1.039,1.039,0,0,0-.143,1.546" transform="translate(-21.202 -30.656)" fill="#15342f"/>
        <path id="Trazado_1003549" data-name="Trazado 1003549" d="M208.01,38.161a3.008,3.008,0,0,1-.775,3.489,3.04,3.04,0,0,1-3.442.526l-6.923-3.39a20.767,20.767,0,1,1,7.724-7.724Zm-2.5.739-3.531-7.172a1.446,1.446,0,0,1,.057-1.452,18.214,18.214,0,1,0-5.9,5.925,1.516,1.516,0,0,1,1.382.006l7.271,3.584a.613.613,0,0,0,.809-.226c.07-.12.09-.312-.084-.665" transform="translate(-120.029 0)" fill="#15342f"/>
        <path id="Trazado_1003550" data-name="Trazado 1003550" d="M225.114,54.218a3.59,3.59,0,0,1-.078,4.933,3.538,3.538,0,0,1-5.044.147l-4.256-4.159-4.058,4a3.63,3.63,0,1,1-5.149-5.116l4.033-4.066L206.476,45.8a3.624,3.624,0,0,1,5.137-5.114l4.112,4.066,4.185-4.1a3.627,3.627,0,1,1,4.993,5.261l-3.969,3.98c1.3,1.589,2.809,2.814,4.18,4.322m-1.921,1.741-5.007-5.047a1.339,1.339,0,0,1-.068-1.871l5.045-5.087a1.017,1.017,0,0,0,.011-1.415,1.078,1.078,0,0,0-1.428-.036l-5.1,5.055a1.409,1.409,0,0,1-2.052-.209l-4.982-4.935c-.379-.375-1.194-.083-1.385.2a1.139,1.139,0,0,0,.107,1.373l4.951,4.958a1.347,1.347,0,0,1,.017,1.968l-5.052,5.1a1.014,1.014,0,0,0,.223,1.466,1.08,1.08,0,0,0,1.339-.165l4.829-4.833a1.437,1.437,0,0,1,2.089-.082l4.943,4.931a1.085,1.085,0,0,0,1.368.13,1.009,1.009,0,0,0,.154-1.507" transform="translate(-148.762 -28.701)" fill="#15342f"/>
        <path id="Trazado_1003551" data-name="Trazado 1003551" d="M9.835,199.333a2.908,2.908,0,0,1-2.9,2.8l-3.9.009a2.844,2.844,0,0,1-2.957-2.834L.054,177.278a2.917,2.917,0,0,1,3-3.039l3.852-.006c1.4,0,1.988,1.018,2.877,1.747a10.332,10.332,0,0,0,3.62-.034c3.747-2.978,4.9-3.9,6.289-8.5a4.617,4.617,0,0,1,5.105-3.5,4.379,4.379,0,0,1,3.748,4.861l-1,7.235,7.209-.007a4.85,4.85,0,0,1,3.731,1.8c1.22,1.315.378,3.19.615,4.38a9.29,9.29,0,0,1,2.495,3.051c.567,1.662-.779,2.827-.758,4.124.022,1.4,1.4,2.584.669,4.345a7.214,7.214,0,0,1-2.772,2.961c-.008,1.18.518,2.849-.451,4.083a4.531,4.531,0,0,1-3.522,1.985l-12.952,0A9.11,9.11,0,0,1,17,201.123c-3.746-2.3-1.943-2.475-7.163-1.79m16.8-9.993a4.562,4.562,0,0,1-.035-5.933,18.64,18.64,0,0,0-1.14-2.009c-2.011,3.392-2.79,7.981-7.78,8a1.3,1.3,0,0,1-1.342-1.254c-.079-2.147,3.261-.479,4.5-3.356,1.158-2.684,2.84-5.117,3.747-7.914.853-2.63.786-5.444,1.379-8.149a1.865,1.865,0,0,0-1.537-2.207c-2.88-.48-2.046,4.287-5.189,7.633a27.944,27.944,0,0,1-4.792,4.287c-1.4.644-3.183-.125-4.652.267l.023,17.957c1.59.2,3.268-1,4.494-.259l5.49,3.3c1.694,1.019,3.871.428,5.909.383a5.112,5.112,0,0,1,.934-4.659,4.718,4.718,0,0,1-.01-6.088M7.189,176.872H2.646v22.711H7.189Zm29.443,3.31a1.7,1.7,0,0,0-1.859-1.55l-4.953.015a1.708,1.708,0,0,0-.015,3.415c3.326.052,6.979.664,6.826-1.88m.755,7.89a1.61,1.61,0,0,0,1.627-1.833,1.563,1.563,0,0,0-1.5-1.52l-8.014.03c-1.087,0-1.5,1.21-1.349,2.006a1.731,1.731,0,0,0,1.914,1.345Zm-.266,6.072a1.693,1.693,0,0,0,1.9-1.851,1.635,1.635,0,0,0-1.766-1.573l-7.177-.016a1.732,1.732,0,1,0-.011,3.437Zm-2.468,6a1.652,1.652,0,0,0,1.678-1.782,1.681,1.681,0,0,0-1.82-1.607l-4.432-.007a1.728,1.728,0,0,0-1.961,1.619,1.662,1.662,0,0,0,1.693,1.794Z" transform="translate(-0.039 -118.687)" fill="#15342f"/>
        <path id="Trazado_1003552" data-name="Trazado 1003552" d="M207.5,192.352c-3.427-.028-4.942.5-6.591-1.664a9.3,9.3,0,0,0-3.75.012c-3.616,2.856-4.931,3.88-6.19,8.294a4.754,4.754,0,0,1-5.157,3.67,4.4,4.4,0,0,1-3.752-5.025l1.018-7.022-7.294-.035a4.622,4.622,0,0,1-3.7-1.862c-1.048-1.3-.6-2.88-.544-4.314a9.365,9.365,0,0,1-2.48-2.88c-.718-1.75.686-2.938.681-4.319s-1.35-2.562-.7-4.279a8.3,8.3,0,0,1,2.735-3.035c.15-1.147-.49-2.921.578-4.156a4.616,4.616,0,0,1,3.5-1.894l12.573-.01c4.329,0,6.427,3.078,8.579,3.731,1.193.362,2.561-.349,3.758-.314.421-3.441,3.675-2.807,7.32-2.695a2.683,2.683,0,0,1,2.433,2.744l.013,22.057a2.906,2.906,0,0,1-3.032,3m-21.8-1.668-1.076,7.513a1.766,1.766,0,0,0,1.752,1.892c2.741.082,1.875-4.3,4.817-7.448A29.5,29.5,0,0,1,196.2,188.1l4.574-.181.031-13.187a1.279,1.279,0,0,1,1.3-1.418,1.249,1.249,0,0,1,1.265,1.421l.045,14.981a30.673,30.673,0,0,0,4.533-.07l-.006-22.513a17.9,17.9,0,0,0-4.509.012c-.145.677.134,2.239-.773,2.384-2.056.328-4.361.983-6.416.6-1.644-.306-4.687-3.664-7.228-3.668l-12.974-.018a1.716,1.716,0,1,0,0,3.429l2.757,0a1.286,1.286,0,0,1,1.456,1.421,1.3,1.3,0,0,1-1.46,1.176l-5.247.007c-1.125,0-1.926.565-1.989,1.584a1.68,1.68,0,0,0,1.721,1.835l5.518.012a1.289,1.289,0,0,1,1.453,1.442c-.059.7-.578,1.145-1.455,1.145h-5.236c-1.133,0-1.95.567-2,1.636a1.7,1.7,0,0,0,1.73,1.821l5.525.013c.914,0,1.414.487,1.444,1.19.037.885-.513,1.341-1.442,1.35l-3.216.032a1.673,1.673,0,0,0-1.654,1.867,1.774,1.774,0,0,0,1.832,1.583h11.586a1.247,1.247,0,0,1,1.351,1.237,1.265,1.265,0,0,1-1.342,1.332,6.266,6.266,0,0,0-1.681.125" transform="translate(-122.283 -118.642)" fill="#15342f"/>
      </g>
    </g>
  </g>
</svg>
