<svg xmlns="http://www.w3.org/2000/svg" xmlns:xlink="http://www.w3.org/1999/xlink" width="84" height="84" viewBox="0 0 84 84">
  <defs>
    <clipPath id="clip-path">
      <rect id="Rectángulo_456498" data-name="Rectángulo 456498" width="52.989" height="51.224" fill="#12263f"/>
    </clipPath>
  </defs>
  <g id="Grupo_1179158" data-name="Grupo 1179158" transform="translate(-706 -1685.277)">
    <g id="Grupo_1177731" data-name="Grupo 1177731">
      <g id="Grupo_1119665" data-name="Grupo 1119665" transform="translate(530.111 -3835.723)">
        <path id="Trazado_991847" data-name="Trazado 991847" d="M5,0H79a5,5,0,0,1,5,5V79a5,5,0,0,1-5,5H5a5,5,0,0,1-5-5V5A5,5,0,0,1,5,0Z" transform="translate(175.889 5521)" fill="#a0f7fe"/>
      </g>
      <g id="Grupo_1192105" data-name="Grupo 1192105" transform="translate(721.505 1701.666)">
        <g id="Grupo_1192104" data-name="Grupo 1192104" clip-path="url(#clip-path)">
          <path id="Trazado_1003474" data-name="Trazado 1003474" d="M29.712,2.375H23.346a.637.637,0,0,0-.722.643L22.586,7.9a1.156,1.156,0,0,1-.911,1.088,17.108,17.108,0,0,0-4.343,1.753,1.232,1.232,0,0,1-1.521-.179L12.471,7.1a.622.622,0,0,0-.914.024L7.239,11.26a.711.711,0,0,0,.035,1.071l3.149,3.254a1.4,1.4,0,0,1,.087,1.8c-1.678,2.829-.929,5.362-2.741,5.367l-4.777.014a.63.63,0,0,0-.612.644l-.013,6.116a1.144,1.144,0,0,1-1.121,1.18A1.173,1.173,0,0,1,0,29.532l.015-6.307a2.789,2.789,0,0,1,2.617-2.791L6.9,20.388a19.913,19.913,0,0,1,1.234-3.711L5.345,13.732a2.889,2.889,0,0,1,.126-4.068L9.763,5.51a3.05,3.05,0,0,1,4.42-.093L16.9,8.224a18.157,18.157,0,0,1,3.29-1.287l.063-4.263a2.763,2.763,0,0,1,2.434-2.6C25.2-.044,27.619,0,30.146.052a2.831,2.831,0,0,1,2.6,2.777L32.76,6.9a20.818,20.818,0,0,1,3.324,1.33l2.724-2.815a3.008,3.008,0,0,1,4.325.02l4.382,4.23a2.891,2.891,0,0,1,.128,4.068l-2.788,2.945a20.016,20.016,0,0,1,1.235,3.71l4.265.044a2.853,2.853,0,0,1,2.633,2.954l0,6.145A1.165,1.165,0,0,1,51.9,30.708a1.152,1.152,0,0,1-1.278-1.174l-.014-6.118a.634.634,0,0,0-.611-.645l-4.782-.009c-1.793,0-1.061-2.524-2.735-5.375a1.359,1.359,0,0,1,.012-1.708l3.225-3.348a.712.712,0,0,0,.035-1.071L41.431,7.126a.622.622,0,0,0-.914-.023l-3.341,3.455a1.231,1.231,0,0,1-1.519.178,17.1,17.1,0,0,0-4.345-1.755A1.153,1.153,0,0,1,30.4,7.9l-.039-4.881a.621.621,0,0,0-.65-.641" transform="translate(0 0)" fill="#12263f"/>
          <path id="Trazado_1003475" data-name="Trazado 1003475" d="M120.028,159.252l-21.69.006,0-6.3a10.773,10.773,0,0,1,6.376-9.781,7.584,7.584,0,1,1,8.956-.008,10.648,10.648,0,0,1,6.342,9.456Zm-5.649-22.2a5.178,5.178,0,1,0-5.178,5.178,5.178,5.178,0,0,0,5.178-5.178m3.259,19.829c0-1.532.067-2.845-.006-4.245a8.462,8.462,0,0,0-16.91.34c-.024,1.323-.028,2.574.025,3.9Z" transform="translate(-82.051 -108.037)" fill="#12263f"/>
          <path id="Trazado_1003476" data-name="Trazado 1003476" d="M9.928,177.165l10.058.007a1.192,1.192,0,1,1,.147,2.374l-12.6.012-.05-4.641a9.893,9.893,0,0,1,5.267-9.281,6.648,6.648,0,1,1,8.384-.053c.665.572,2.163,1.055,1.491,2.311a1.185,1.185,0,0,1-1.708.412,7.188,7.188,0,0,0-7.041-.536,6.949,6.949,0,0,0-3.916,5.4,29.944,29.944,0,0,0-.037,4M21.17,160.451a4.252,4.252,0,1,0-4.252,4.252,4.252,4.252,0,0,0,4.252-4.252" transform="translate(-6.246 -128.334)" fill="#12263f"/>
          <path id="Trazado_1003477" data-name="Trazado 1003477" d="M225.363,177.174h9.575c.052-1.038.027-2.021.022-3.081a7.05,7.05,0,0,0-3.527-6.076,7.177,7.177,0,0,0-7.51.287,1.192,1.192,0,0,1-1.7-.375,1.21,1.21,0,0,1,.45-1.651,5.667,5.667,0,0,0,1.031-.693,6.644,6.644,0,1,1,8.384.045,9.815,9.815,0,0,1,5.262,9.122l-.041,4.8-12.091,0a1.206,1.206,0,0,1-1.187-1.219,1.191,1.191,0,0,1,1.332-1.154m6.812-16.723a4.252,4.252,0,1,0-4.252,4.252,4.252,4.252,0,0,0,4.252-4.252" transform="translate(-184.624 -128.334)" fill="#12263f"/>
          <path id="Trazado_1003478" data-name="Trazado 1003478" d="M101.416,87.174a11.575,11.575,0,0,0-22.591.1,1.2,1.2,0,1,1-2.337-.5,13.952,13.952,0,0,1,27.2-.284,1.181,1.181,0,0,1-.767,1.431,1.151,1.151,0,0,1-1.5-.742" transform="translate(-63.793 -63.235)" fill="#12263f"/>
        </g>
      </g>
    </g>
  </g>
</svg>
