<svg xmlns="http://www.w3.org/2000/svg" xmlns:xlink="http://www.w3.org/1999/xlink" width="96" height="96" viewBox="0 0 96 96">
  <defs>
    <clipPath id="clip-path">
      <rect id="Rectángulo_456522" data-name="Rectángulo 456522" width="50.065" height="57.863" fill="#094959"/>
    </clipPath>
  </defs>
  <g id="Grupo_1191934" data-name="Grupo 1191934" transform="translate(-383.746 -8400.001)">
    <path id="Trazado_997400" data-name="Trazado 997400" d="M48,0A48,48,0,1,1,0,48,48,48,0,0,1,48,0Z" transform="translate(383.746 8400.001)" fill="#a0f7fe"/>
    <g id="Grupo_1192147" data-name="Grupo 1192147" transform="translate(406.714 8419.069)">
      <g id="Grupo_1192146" data-name="Grupo 1192146" clip-path="url(#clip-path)">
        <path id="Trazado_1003600" data-name="Trazado 1003600" d="M221,54.774c.015,1.23-2.269.95-3.762.84a.842.842,0,0,1-.816-.832.863.863,0,0,1,.981-.885c1.852.023,3.582-.277,3.6.877" transform="translate(-173.229 -43.125)" fill="#094959"/>
        <path id="Trazado_1003601" data-name="Trazado 1003601" d="M27.29,26.752c1.091,1.063,2.761,2.239,2.052,3.137-.814,1.031-2.337-1.007-3.286-1.92A.871.871,0,0,1,26,26.754a.857.857,0,0,1,1.295,0" transform="translate(-20.633 -21.178)" fill="#094959"/>
        <path id="Trazado_1003602" data-name="Trazado 1003602" d="M27.844,74.849a.969.969,0,0,1-1.229-.171c-.684-.84,1.077-2.246,2.1-3.215a.849.849,0,0,1,1.142-.014.869.869,0,0,1,.07,1.237Z" transform="translate(-21.18 -57.019)" fill="#094959"/>
        <path id="Trazado_1003603" data-name="Trazado 1003603" d="M19.162,54.654c.227,1.426-2.047,1.038-3.625,1.055a.893.893,0,0,1-.933-.722c-.254-1.369,1.763-.97,3.537-1.043a.908.908,0,0,1,1.021.71" transform="translate(-11.672 -43.178)" fill="#094959"/>
        <path id="Trazado_1003604" data-name="Trazado 1003604" d="M210.689,71.524c.966.985,2.977,2.516,1.924,3.291a.958.958,0,0,1-1.156-.04c-1.09-1.073-3.027-2.576-1.9-3.381a.889.889,0,0,1,1.127.13" transform="translate(-167.464 -57.03)" fill="#094959"/>
        <path id="Trazado_1003605" data-name="Trazado 1003605" d="M212.979,27.881c-.839.962-2.589,3.1-3.427,2.075a.857.857,0,0,1,.045-1.112l2.11-2.072a.91.91,0,0,1,1.168.02.867.867,0,0,1,.1,1.09" transform="translate(-167.584 -21.265)" fill="#094959"/>
        <path id="Trazado_1003606" data-name="Trazado 1003606" d="M25.3,53.228a43.728,43.728,0,0,1-8.254-.007c-1.108-.052-1.879-1.065-2.968-1.522-.187,1.755,0,3.546-.1,5.32a.848.848,0,0,1-.937.844L.857,57.849A.87.87,0,0,1,0,57.04L.038,43.67a4.991,4.991,0,0,1,3-4.312c.716-.293,1.149-.349,1.473-1.061a1.866,1.866,0,0,0,.331-1.251c-.126-.626-2.9-2.227-3.236-6.726A8.628,8.628,0,0,1,8,21.3c2.276-.6,4.262-.058,6.518,1a13.776,13.776,0,1,1,22.268-.855,8.42,8.42,0,0,1,11.5,6.173A9.807,9.807,0,0,1,46.1,35.793c-.541.143-.685.616-.828.9-.271.541.117.946.309,1.389.31.712.774.727,1.469,1.021A4.945,4.945,0,0,1,50,43.273l.066,13.381a1.013,1.013,0,0,1-1.105.975L37,57.631a.9.9,0,0,1-.924-.8l-.075-5.4c-3.748,2.8-5.972,1.138-8.989,1.56Zm3.78-28.074a2.451,2.451,0,0,1,2.536-2.43c.472-.016,1.07.219,1.518.151a12,12,0,1,0-15.362.183,2.566,2.566,0,0,1,3.154,1.855,11.651,11.651,0,0,0,8.154.241m11.987,4.2a2.62,2.62,0,0,1,3.188.631c1.3,1.824-1.435,3.041,1.084,3.87a7.837,7.837,0,0,0,1.326-5.416c-.575-3.952-4.547-7.235-8.22-5.681l-3.812,1.613c-1.935.819-3.085-.44-3.68.416-.694,1,1.3,3.385,3.451,3.654,1.586.2,4.085-2.176,6.663.913m-25.4-.648c2.073-.274,4.181-2.6,3.4-3.7-.467-.653-2.08.27-3.259-.231l-3.787-1.61c-3.852-1.637-7.98,1.369-8.629,5.489a7.653,7.653,0,0,0,1.3,5.4c.419.013,1.258-.489,1.149-.911-.238-.919-.625-1.758-.185-2.647,1-2.009,2.994-.464,3.785-1.335,2.14-2.355,4.852-.275,6.226-.456M31.6,45.686c2.364-1.655,4.45-3.171,6.8-4.562.42-.249.753-.406.594-.9-.326-1.022-1.265-.127-3.391-.92a3.219,3.219,0,0,1-2.008-2.179,22.471,22.471,0,0,1-.625-7.234,7.23,7.23,0,0,1-3.515-3,13.769,13.769,0,0,1-8.666-.144,6.964,6.964,0,0,1-3.715,3.424,21.955,21.955,0,0,1-.592,7.158,3.354,3.354,0,0,1-2.587,2.426c-1.938.455-2.675-.255-2.851.858-.061.387.177.533.536.766l6.908,4.466c.861.461,2.318.264,3.337.225Zm12.389-6.948c-1.811-2.563.953-3.083-.465-3.935-2.514-1.511-.045-3.519-.845-3.9-.681-.323-1.3.484-1.968.4-.342-.043-.57-.334-.848-.669-1.574-1.9-2.941-.807-5.142-.331a19.193,19.193,0,0,0,.536,6.322,1.807,1.807,0,0,0,1.576,1.224c2.111.3,3.426-.508,3.607,1.024a1.494,1.494,0,0,0,.343.984,31.459,31.459,0,0,1,3.206-1.12M9.438,40.107c.226-.848.074-1.636.734-1.833,1.253-.374,4.286.658,4.737-1.736a20.608,20.608,0,0,0,.423-5.915c-5.364-2.053-4.668.757-5.993.931-.575.076-1.751-.857-2.063-.3-.376.674,1.555,2.31-.69,3.779-1.536,1.005,1.289,1.256-.516,3.989Zm32.508,5.65a.937.937,0,0,1,1.347.148.856.856,0,0,1-.267,1.226l-5.217,3.135V55.84l10.512-.011-.113-12.493c-.02-2.242-2.668-3.305-4.558-2.618-4.385,1.084-7.8,4.557-11.606,6.562l-4.506.439L27.5,51.242l5.472.015c2.913-1.992,5.9-3.651,8.972-5.5M17.1,51.473a31.336,31.336,0,0,0,3.607,0,4.26,4.26,0,0,1-.21-3.588c-.81-.3-1.74.109-2.453-.252l-6.47-4.259A14.91,14.91,0,0,0,6.04,40.909c-1.944-.459-4.217.673-4.226,2.83L1.758,56.114,12.237,56.1l-.011-5.582L6.861,47.283c-.4-.238-.259-.945-.063-1.18a.94.94,0,0,1,1.055-.2Zm8.65-.294L25.714,47.8a13.794,13.794,0,0,0-2.057-.036A1.752,1.752,0,0,0,21.925,49.4a1.715,1.715,0,0,0,1.522,1.8,9.779,9.779,0,0,0,2.3-.027" transform="translate(0 0)" fill="#094959"/>
        <path id="Trazado_1003607" data-name="Trazado 1003607" d="M87.133,34.477c-1.049.136.4.819-4.212.642a1.564,1.564,0,0,1-1.612-1.631v-9.38a1.554,1.554,0,0,1,1.61-1.627c1.885-.026,3.283-.223,4.171.767,3.717-1,.842-5.5,3.892-6.226a3.051,3.051,0,0,1,3.686,3.087,9.343,9.343,0,0,1-.4,2.255l2.989.212c1.259.089,1.682,1.724,1.427,2.945a2.46,2.46,0,0,1,.479,3.181,2.413,2.413,0,0,1-.6,3.249c.277,1.318-.379,2.949-1.867,2.963l-6.6.061c-.982.009-1.957-.628-2.967-.5m9.37-5.862c.054-.932,1.225-.628,1.288-1.211.062-.562-.935-.522-1.108-1.046-.229-.695.89-1.971-.046-2.123-1.777-.289-4.682.521-4.326-1.124l.6-2.788a1.382,1.382,0,0,0-.425-1.288c-.23-.226-.958-.577-1.215-.151-.506.836.42,5.021-4.1,6.237l0,7.355a10.729,10.729,0,0,0,3.713.779l5.2.006c.343,0,.658-.108.728-.309.324-.914-.7-1.011-.391-1.847.288-.789,1.434-.446,1.365-1.1s-1.355-.236-1.288-1.39m-13.45,4.762H85.4V24.234H83.053Z" transform="translate(-65.081 -13.56)" fill="#094959"/>
      </g>
    </g>
  </g>
</svg>
