<svg xmlns="http://www.w3.org/2000/svg" xmlns:xlink="http://www.w3.org/1999/xlink" width="396.289" height="306" viewBox="0 0 396.289 306">
  <defs>
    <clipPath id="clip-path">
      <rect id="Rectángulo_456472" data-name="Rectángulo 456472" width="396" height="294.953" fill="none"/>
    </clipPath>
  </defs>
  <g id="Grupo_1192042" data-name="Grupo 1192042" transform="translate(-185.711 -8309)">
    <rect id="Rectángulo_456250" data-name="Rectángulo 456250" width="396" height="306" transform="translate(185.711 8309)" fill="none"/>
    <g id="Grupo_1192041" data-name="Grupo 1192041" transform="translate(186 8315)">
      <g id="Grupo_1192040" data-name="Grupo 1192040" clip-path="url(#clip-path)">
        <path id="Trazado_1003100" data-name="Trazado 1003100" d="M345.462,97.622a83.483,83.483,0,0,1,19.313,22.649c15.944,27.165,17.113,60.907,5.127,89.8-5.463,13.17-11.1,24.31-20.847,35.122a135.909,135.909,0,0,1-32.236,26.048,166.743,166.743,0,0,1-63.07,21.037c-34.248,4.39-69.348,5.116-103.012-2.549S84.79,265.507,62.158,239.431q-1.747-2.013-3.407-4.1C21.433,188.459,18.036,115.108,59.2,69.765c20.634-22.73,49.62-37.447,80.006-41.818,19.733-2.839,41.014-1.129,57.651,9.855,11.275,7.445,18.364,19.966,29.6,26.913A113.416,113.416,0,0,0,266,79.537a288.286,288.286,0,0,0,31.887,3.631c9.378.673,18.753.164,27.709,3.269a66.353,66.353,0,0,1,19.869,11.185" transform="translate(-10.027 -9.077)" fill="#e2fff2"/>
        <path id="Trazado_1003101" data-name="Trazado 1003101" d="M332.987,129.366a11.955,11.955,0,0,0-2.542-7.329,8.168,8.168,0,0,0-6.956-3.03,6.242,6.242,0,0,0-5.464,4.925,8.94,8.94,0,0,0,1.55,5.785c.888,1.5,2.061,2.955,2.824,4.516.849,1.738,1.1,3.612,2.3,5.213a5.738,5.738,0,0,0,5.026,2.5" transform="translate(-107.951 -40.391)" fill="#fa4a35"/>
        <path id="Trazado_1003102" data-name="Trazado 1003102" d="M225.95,220.27a13.116,13.116,0,0,0,.791-8.478,8.964,8.964,0,0,0-5.573-6.187,6.851,6.851,0,0,0-7.7,2.439c-1.234,1.865-1.318,4.26-1.081,6.484.2,1.907.717,3.889.769,5.794.058,2.122-.541,4.109-.071,6.253a6.3,6.3,0,0,0,3.885,4.782" transform="translate(-72.074 -69.691)" fill="#f98638"/>
        <path id="Trazado_1003103" data-name="Trazado 1003103" d="M238.328,76.1a13.02,13.02,0,0,1,4.059-7.412,8.9,8.9,0,0,1,8.021-1.992,6.8,6.8,0,0,1,4.975,6.281c-.021,2.22-1.283,4.236-2.714,5.933-1.227,1.455-2.75,2.8-3.852,4.337-1.227,1.713-1.838,3.68-3.415,5.182a6.252,6.252,0,0,1-5.853,1.774" transform="translate(-80.916 -22.547)" fill="#fa4a35"/>
        <path id="Trazado_1003104" data-name="Trazado 1003104" d="M420.308,393.435l15.578-6.905,9.631,28.662s-5.045,1.174-11.039-11.938l-11.873,3.123" transform="translate(-142.701 -131.233)" fill="#fec96f"/>
        <path id="Trazado_1003105" data-name="Trazado 1003105" d="M440.745,387.793l9.653,27.528a6.71,6.71,0,0,1-.811-.386l-9.426-26.882Z" transform="translate(-149.441 -131.662)" fill="#754fb9"/>
        <path id="Trazado_1003106" data-name="Trazado 1003106" d="M337.68,381.221l15.578-6.905,9.631,28.662s-5.045,1.174-11.039-11.938l-11.873,3.123" transform="translate(-114.648 -127.086)" fill="#fec96f"/>
        <path id="Trazado_1003107" data-name="Trazado 1003107" d="M358.117,375.578l9.653,27.528a6.712,6.712,0,0,1-.811-.386l-9.426-26.882Z" transform="translate(-121.388 -127.515)" fill="#754fb9"/>
        <path id="Trazado_1003108" data-name="Trazado 1003108" d="M255.983,343.359s-32.425,28.968-29.851,44.578c3.5,21.211,47.564,20.535,67.457,13.629s-2.924-31.971-2.924-31.971l-29.544,9.374,21.311-22.337,3.114-24.112-19.294,3.667Z" transform="translate(-76.726 -112.896)" fill="#131b25"/>
        <path id="Trazado_1003109" data-name="Trazado 1003109" d="M300.186,396.566a3.945,3.945,0,0,0-.877.061l-2.494.312c-2.164.273-5.292.711-9.172,1.037a66.273,66.273,0,0,1-13.618-.113,37.537,37.537,0,0,1-7.794-1.778,12.786,12.786,0,0,1-3.61-2.028,6.044,6.044,0,0,1-2.151-3.458,6.981,6.981,0,0,1,.659-4.072,27.173,27.173,0,0,1,2.1-3.658c1.513-2.357,3.033-4.593,4.525-6.691,2.991-4.191,5.871-7.833,8.38-10.813s4.631-5.316,6.108-6.92l1.7-1.847a3.977,3.977,0,0,0,.563-.676,3.9,3.9,0,0,0-.668.571c-.421.392-1.036.978-1.8,1.754-1.544,1.546-3.732,3.831-6.3,6.78s-5.5,6.568-8.535,10.755c-1.514,2.1-3.052,4.333-4.58,6.7a27.433,27.433,0,0,0-2.167,3.754,7.678,7.678,0,0,0-.713,4.5,6.766,6.766,0,0,0,2.4,3.886,13.419,13.419,0,0,0,3.826,2.142,37.539,37.539,0,0,0,7.967,1.777,63.9,63.9,0,0,0,13.748-.042c3.894-.395,7.014-.912,9.167-1.273,1.077-.184,1.911-.336,2.474-.449a3.972,3.972,0,0,0,.855-.208" transform="translate(-88.155 -120.841)" fill="#212652"/>
        <path id="Trazado_1003110" data-name="Trazado 1003110" d="M298.748,351.335s-11.479,38.72-2.227,54.637,87.564-3.431,87.564-3.431l-2.948-36.418-56.823,14.612s6.3-21.956,4.478-31.483-30.045,2.083-30.045,2.083" transform="translate(-99.45 -117.302)" fill="#182533"/>
        <path id="Trazado_1003111" data-name="Trazado 1003111" d="M420.8,399.1c-.35-8-.705-15.28-1-20.73l-.538.139c.178,5.442.458,12.679.805,20.624.256,5.866.516,11.343.754,16l.625-.14c-.169-4.633-.387-10.072-.641-15.889" transform="translate(-142.343 -128.464)" fill="#2a3575"/>
        <path id="Trazado_1003112" data-name="Trazado 1003112" d="M385.076,389.145c-4.88,1.482-10.438,2.992-16.545,4.357a217.02,217.02,0,0,1-25.407,4.115,100.192,100.192,0,0,1-13.292.448,56.194,56.194,0,0,1-6.279-.541,12.5,12.5,0,0,1-5.487-2.074,6.712,6.712,0,0,1-2.641-4.676,14.593,14.593,0,0,1,.534-5.287c.436-1.687,1.014-3.291,1.514-4.851l1.467-4.472c1.781-5.492,3.257-10.043,4.384-13.512l1.156-3.685.283-.964a1.235,1.235,0,0,0,.073-.336,1.173,1.173,0,0,0-.145.312l-.352.941-1.288,3.642c-1.183,3.45-2.734,7.976-4.606,13.438l-1.513,4.457c-.513,1.553-1.106,3.151-1.566,4.876a15.119,15.119,0,0,0-.587,5.519,7.737,7.737,0,0,0,.876,2.831,7.3,7.3,0,0,0,2,2.308,13.124,13.124,0,0,0,5.781,2.228,56.1,56.1,0,0,0,6.368.568,99.071,99.071,0,0,0,13.389-.436,212.9,212.9,0,0,0,41.851-8.6,3.08,3.08,0,0,1,.032-.6" transform="translate(-106.851 -121.433)" fill="#2a3575"/>
        <path id="Trazado_1003113" data-name="Trazado 1003113" d="M320.159,374.222a15.446,15.446,0,0,0-.565-2.442,20.889,20.889,0,0,1-.415-2.648,19.7,19.7,0,0,1,.491-6.5,20.8,20.8,0,0,1,.808-2.555,15.519,15.519,0,0,0,.926-2.329,6.055,6.055,0,0,0-1.4,2.12,15.661,15.661,0,0,0-.988,2.59,16.985,16.985,0,0,0-.51,6.748,15.7,15.7,0,0,0,.588,2.71,6.06,6.06,0,0,0,1.069,2.307" transform="translate(-108.093 -121.46)" fill="#2a3575"/>
        <path id="Trazado_1003114" data-name="Trazado 1003114" d="M542.6,236.453l15.578-6.905,9.631,28.662s-5.045,1.174-11.039-11.938L544.9,249.395" transform="translate(-184.222 -77.935)" fill="#1d1423"/>
        <path id="Trazado_1003115" data-name="Trazado 1003115" d="M563.038,230.81l9.653,27.528a6.71,6.71,0,0,1-.811-.386l-9.426-26.882Z" transform="translate(-190.962 -78.364)" fill="#754fb9"/>
        <path id="Trazado_1003116" data-name="Trazado 1003116" d="M416.534,218.5s-.1,42.358,4.853,54,88.354-19.288,88.354-19.288-3.538-24.973-12.465-32.684l-54.632,25.777-1.857-33.175" transform="translate(-141.42 -72.363)" fill="#f7c267"/>
        <path id="Trazado_1003117" data-name="Trazado 1003117" d="M543.606,254.369c-.179-1.17-.46-2.4-.738-3.705a67.9,67.9,0,0,0-5.993-16.206c-.635-1.17-1.225-2.289-1.85-3.295-.593-1.024-1.2-1.945-1.757-2.781-.268-.42-.538-.808-.8-1.173l-.435.205q.38.588.8,1.25c.526.848,1.1,1.778,1.666,2.806.6,1.01,1.161,2.13,1.773,3.3a75.087,75.087,0,0,1,5.936,16.053c.295,1.285.6,2.5.8,3.658.24,1.149.409,2.228.56,3.215.116.775.214,1.491.3,2.145l.428-.153c-.048-.633-.1-1.324-.208-2.062-.12-1-.26-2.092-.476-3.256" transform="translate(-180.634 -77.141)" fill="#cc8912"/>
        <path id="Trazado_1003118" data-name="Trazado 1003118" d="M513.313,240.92l-9.191,2.859c-10.669,3.275-25.466,7.618-41.946,11.911-4.121,1.065-8.148,2.1-12.046,3.057-1.948.448-3.862,1.11-5.682.923a4.046,4.046,0,0,1-2.372-1.055,5.869,5.869,0,0,1-1.415-2.209,25.228,25.228,0,0,1-1.116-5.187q-.392-2.59-.719-5.03c-.435-3.25-.787-6.284-1.074-9.057-.574-5.548-.886-10.053-1.087-13.166-.087-1.386-.161-2.567-.225-3.587a7.933,7.933,0,0,0-.12-1.25,8.055,8.055,0,0,0-.028,1.255c0,.823.032,2.035.087,3.6.112,3.121.345,7.638.855,13.2.254,2.782.577,5.825.987,9.086q.307,2.445.684,5.046a25.547,25.547,0,0,0,1.123,5.339,6.531,6.531,0,0,0,1.577,2.47,4.743,4.743,0,0,0,2.764,1.248,9.667,9.667,0,0,0,3.019-.225c.983-.208,1.937-.462,2.915-.7,3.9-.948,7.935-1.977,12.06-3.044,16.494-4.3,31.281-8.722,41.916-12.127,3.539-1.127,6.6-2.14,9.14-2.993q-.052-.181-.1-.364" transform="translate(-148.127 -74.397)" fill="#cc8912"/>
        <path id="Trazado_1003119" data-name="Trazado 1003119" d="M286.417,127.8a8.98,8.98,0,0,0,3.41-4.894l5.2,7.672a4,4,0,0,0,5.548,1.067l9.487-6.427a8.549,8.549,0,0,1-3.322-2.8c-2.376-3.509-.816-8.027,3.092-10.673s8.682-2.421,11.059,1.088a8.548,8.548,0,0,1,1.365,4.122l10.045-6.8a4,4,0,0,0,1.067-5.548l-17.577-25.95a4,4,0,0,0-5.548-1.067l-10.045,6.8a8.546,8.546,0,0,1,3.322,2.8c2.377,3.509.816,8.027-3.092,10.673s-8.682,2.421-11.059-1.088A8.55,8.55,0,0,1,288,92.65l-9.488,6.426a4,4,0,0,0-1.067,5.548l5.2,7.672a8.983,8.983,0,0,0-5.81,1.351c-3.509,2.377-3.735,7.151-1.089,11.059s7.164,5.469,10.673,3.092" transform="translate(-93.011 -26.109)" fill="#95ebba"/>
        <path id="Trazado_1003120" data-name="Trazado 1003120" d="M436.186,123.811a7.828,7.828,0,0,0,5.768-10.983,7.171,7.171,0,0,0-3.306-.058" transform="translate(-148.092 -38.231)" fill="#15342f"/>
        <path id="Trazado_1003121" data-name="Trazado 1003121" d="M224.275,165.217c-2.616-3.928-2.353-8.7,1.174-11.05a9.094,9.094,0,0,1,6.353-1.244l-5.329-8a4,4,0,0,0-5.539-1.11l-9.232,6.149a8.31,8.31,0,0,1,2.6,2.434c2.349,3.528.754,8.033-3.174,10.649s-8.7,2.353-11.051-1.174a8.314,8.314,0,0,1-1.244-3.337l-9.792,6.522a3.994,3.994,0,0,0-1.11,5.539l17.375,26.087a4,4,0,0,0,5.539,1.11l31.892-21.243a3.994,3.994,0,0,0,1.11-5.539l-5.328-8a9.1,9.1,0,0,1-3.6,5.382c-3.527,2.35-8.033.754-10.649-3.174" transform="translate(-63.578 -48.599)" fill="#9cb9b4"/>
        <path id="Trazado_1003122" data-name="Trazado 1003122" d="M491.529,210.972c.641,4.253,1.607,8.484,2.391,12.716a1.95,1.95,0,0,0,.253.76.665.665,0,0,0,.69.307c.3-.085.439-.415.531-.709a14.924,14.924,0,0,0,.249-7.321,20.876,20.876,0,0,1,2.791,11.135c-.019.538.046,1.232.564,1.378.586.164,1-.566,1.135-1.16.876-3.874-.065-7.9-1-11.759l2.918,11.132a.853.853,0,0,0,.377.613c.47.211.821-.471.874-.983.383-3.7-.3-7.426-.983-11.087l2.59,10.052a.983.983,0,0,0,.44.716c.572.253.954-.618.964-1.244a37.406,37.406,0,0,0-1.353-10.587l3.03,6.6c.15.326.411.711.761.632.32-.073.415-.477.438-.8.294-4.139-1.174-8.234-3.171-11.8a37.1,37.1,0,0,0-7.286-9.549" transform="translate(-166.882 -67.908)" fill="#fa4a35"/>
        <path id="Trazado_1003123" data-name="Trazado 1003123" d="M373.032,372.881c.641,4.253,1.607,8.484,2.391,12.716a1.95,1.95,0,0,0,.253.76.665.665,0,0,0,.69.307c.3-.085.439-.415.531-.709a14.923,14.923,0,0,0,.249-7.321,20.876,20.876,0,0,1,2.791,11.135c-.019.538.046,1.232.564,1.378.586.164,1-.566,1.135-1.16.876-3.874-.065-7.9-1-11.759l2.918,11.132a.853.853,0,0,0,.377.613c.47.211.821-.471.874-.984.383-3.7-.3-7.426-.983-11.087l2.59,10.052a.983.983,0,0,0,.44.716c.572.253.954-.618.964-1.244a37.406,37.406,0,0,0-1.353-10.587l3.03,6.6c.15.326.411.711.761.632.32-.073.415-.477.438-.8.294-4.139-1.174-8.234-3.171-11.8a37.1,37.1,0,0,0-7.286-9.549" transform="translate(-126.65 -122.879)" fill="#f98638"/>
        <path id="Trazado_1003124" data-name="Trazado 1003124" d="M56.528,181.688c-.641,4.253-1.607,8.484-2.391,12.716a1.951,1.951,0,0,1-.253.76.665.665,0,0,1-.69.307c-.3-.085-.439-.415-.531-.709a14.924,14.924,0,0,1-.249-7.321,20.876,20.876,0,0,0-2.791,11.135c.019.538-.046,1.232-.564,1.378-.586.164-1-.566-1.135-1.16-.876-3.874.065-7.9,1-11.759l-2.918,11.132a.853.853,0,0,1-.377.613c-.47.211-.821-.471-.874-.983-.383-3.7.3-7.426.983-11.087l-2.59,10.052a.983.983,0,0,1-.44.716c-.572.253-.954-.618-.964-1.244A37.406,37.406,0,0,1,43.1,185.646l-3.03,6.6c-.15.326-.411.711-.761.632-.32-.073-.415-.477-.438-.8-.294-4.139,1.174-8.234,3.171-11.8a37.1,37.1,0,0,1,7.286-9.549" transform="translate(-13.185 -57.966)" fill="#fa4a35"/>
        <path id="Trazado_1003125" data-name="Trazado 1003125" d="M250.668,56.842a8.981,8.981,0,0,1-1.622-5.739l-7.419,5.55a3.994,3.994,0,0,1-5.592-.806l-7.478-10a9,9,0,0,0,5.843-1.615c3.394-2.539,3.4-7.319.569-11.1s-7.413-5.127-10.807-2.588a9.007,9.007,0,0,0-3.2,5.148l-7.881-10.535a4,4,0,0,1,.806-5.592L238.985.8a4,4,0,0,1,5.592.806l22.954,30.683a4,4,0,0,1-.806,5.592l-7.419,5.549a8.99,8.99,0,0,1,5.048,3.177c2.538,3.394,1.191,7.98-2.588,10.807s-8.559,2.824-11.1-.569" transform="translate(-72.074 0)" fill="#0e5a52"/>
        <path id="Trazado_1003126" data-name="Trazado 1003126" d="M230.57,232.319c-1.272-3.291-.592-6.967-.034-10.45.356-2.219,1.3-5.581.164-7.69-1.107-2.061-2.04-.266-2.518,1.242-.672,2.118-.666,4.457-1.83,6.408-1.338,2.244-4.031,3.281-5.812,5.193a8.246,8.246,0,0,0-1.587,8.481" transform="translate(-74.151 -72.401)" fill="#f98638"/>
        <path id="Trazado_1003127" data-name="Trazado 1003127" d="M220.881,228.769a10.031,10.031,0,0,1,.88-2.45,8.645,8.645,0,0,1,1.837-2.125c.8-.71,1.761-1.415,2.7-2.274a8.561,8.561,0,0,0,2.045-2.934,11.061,11.061,0,0,0,.688-2.821,8.454,8.454,0,0,1,.557-1.821c.18-.413.359-.592.337-.615s-.244.132-.477.543a6.952,6.952,0,0,0-.7,1.837,11.951,11.951,0,0,1-.75,2.73,8.548,8.548,0,0,1-1.979,2.785c-.906.833-1.862,1.553-2.668,2.292a8.349,8.349,0,0,0-1.838,2.263,5.808,5.808,0,0,0-.608,1.87,2.192,2.192,0,0,0-.022.719" transform="translate(-74.987 -72.564)" fill="#212652"/>
        <path id="Trazado_1003128" data-name="Trazado 1003128" d="M227.306,82.7c2.874-2,4.358-5.4,5.834-8.575.941-2.023,2.035-5.31,4.138-6.415,2.055-1.08,1.826.914,1.38,2.421-.624,2.116-1.929,4.036-2.055,6.286-.146,2.589,1.492,4.938,1.895,7.5a8.184,8.184,0,0,1-3.406,7.856" transform="translate(-77.174 -22.884)" fill="#fa4a35"/>
        <path id="Trazado_1003129" data-name="Trazado 1003129" d="M243.09,85.854a2.136,2.136,0,0,0,.38-.6,5.743,5.743,0,0,0,.54-1.875,8.286,8.286,0,0,0-.255-2.882c-.252-1.056-.637-2.178-.92-3.368a8.478,8.478,0,0,1-.081-3.39,11.825,11.825,0,0,1,.9-2.663,6.921,6.921,0,0,0,.446-1.9,1.133,1.133,0,0,0-.091-.711c-.031.007.018.252-.065.693a8.352,8.352,0,0,1-.553,1.807,10.965,10.965,0,0,0-1,2.7,8.477,8.477,0,0,0,.052,3.549c.291,1.225.687,2.337.952,3.368a8.607,8.607,0,0,1,.332,2.768,9.97,9.97,0,0,1-.637,2.5" transform="translate(-82.24 -23.244)" fill="#212652"/>
        <path id="Trazado_1003130" data-name="Trazado 1003130" d="M293.4,253.481l-4.071.264h0l.615-.04a22.572,22.572,0,0,1-22.834,6.355c-3.888-1.216-7.605-4.065-9.083-7.694-5.442-.01-14.151,1.474-27.528,7.24l-1.108-27.656c-7.445.647-14.893,1.267-22.346,1.791.242,16,1.529,40.3,6.981,45.879,8.292,8.489,38.847-1.829,38.847-1.829l3.322,11.466s-7.438,10.564-9.839,22.313c0,0,30.579,15.25,54.306,4.285l1.12-8.7,11.708,26.893,21.941-8.46s-26.142-74.237-42.031-72.107" transform="translate(-70.295 -78.751)" fill="#fa4a35"/>
        <path id="Trazado_1003131" data-name="Trazado 1003131" d="M343.751,137c-2.3-2.249-3.119-5.555-3.97-8.654-.542-1.975-1.03-5.117-2.765-6.44-1.695-1.291-1.792.549-1.62,1.981.242,2.01,1.129,3.947.9,6-.264,2.367-2.106,4.242-2.862,6.5a7.513,7.513,0,0,0,1.883,7.633" transform="translate(-113.084 -41.241)" fill="#fa4a35"/>
        <path id="Trazado_1003132" data-name="Trazado 1003132" d="M15.687,275.734,0,282.386l14.342,26.62s4.305-2.881-1.171-16.218l10.394-6.532" transform="translate(0 -93.616)" fill="#1d1423"/>
        <path id="Trazado_1003133" data-name="Trazado 1003133" d="M2.949,284.427l13.5,25.735a7.077,7.077,0,0,0,.258-.881l-13.169-25.1Z" transform="translate(-1.001 -96.483)" fill="#754fb9"/>
        <path id="Trazado_1003134" data-name="Trazado 1003134" d="M146.936,354.376l-2.382,16.872,30.2,1.426s-.251-5.174-14.5-7.353l-.242-12.274" transform="translate(-49.078 -119.865)" fill="#1d1423"/>
        <path id="Trazado_1003135" data-name="Trazado 1003135" d="M144.99,377.193l29.119,1.757a6.933,6.933,0,0,0-.594-.674l-28.436-1.716Z" transform="translate(-49.226 -127.848)" fill="#754fb9"/>
        <path id="Trazado_1003136" data-name="Trazado 1003136" d="M68.459,224.133,17.839,249.7a85.931,85.931,0,0,0,14.79,29.978L99.3,238.608l1.252-19.538Z" transform="translate(-6.057 -74.378)" fill="#5a81e5"/>
        <path id="Trazado_1003137" data-name="Trazado 1003137" d="M104.216,227.364l-2.35,1.451-3.705,2.313c-1.449.895-3.086,1.933-4.922,3.039-3.651,2.245-8.033,4.86-12.933,7.7-4.909,2.829-10.342,5.878-16.1,8.971s-11.315,5.914-16.39,8.434c-5.083,2.5-9.688,4.7-13.58,6.5-.522.246-1.03.482-1.527.711a3.292,3.292,0,0,1,.442.345c.425-.188.858-.38,1.3-.581,3.923-1.736,8.557-3.889,13.663-6.361,5.1-2.489,10.664-5.308,16.439-8.393s11.2-6.169,16.1-9.033c4.888-2.881,9.247-5.546,12.867-7.849,1.82-1.136,3.439-2.206,4.868-3.134s2.649-1.744,3.64-2.421l2.275-1.567a4.732,4.732,0,0,0,.765-.589,4.735,4.735,0,0,0-.847.464" transform="translate(-11.104 -77.035)" fill="#456cce"/>
        <path id="Trazado_1003138" data-name="Trazado 1003138" d="M38.123,291.657c-.871-1.207-1.721-2.551-2.635-3.951-1.774-2.835-3.612-6.021-5.342-9.471-1.707-3.461-3.139-6.849-4.329-9.975-.563-1.574-1.123-3.062-1.56-4.485-.167-.526-.336-1.031-.493-1.53l-.793.4c.132.458.271.921.41,1.4.4,1.448.935,2.963,1.479,4.563a91.686,91.686,0,0,0,9.772,19.647c.948,1.4,1.835,2.738,2.746,3.932.052.068.1.134.149.2l.777-.478c-.061-.087-.118-.171-.18-.258" transform="translate(-7.799 -89.037)" fill="#456cce"/>
        <path id="Trazado_1003139" data-name="Trazado 1003139" d="M110.954,292.538c8.663,2.384,18.166,1.928,26.818-.152a77.4,77.4,0,0,0,9.1-2.783c-.5-6.158-2.03-25.2-3.381-46.523-1.8-28.345-.518-60.3-19.307-61.272l-43.6-16.569s-15.84,17-7.265,31.857S115.2,208.384,115.2,208.384Z" transform="translate(-24.031 -56.102)" fill="#6c8ffd"/>
        <path id="Trazado_1003140" data-name="Trazado 1003140" d="M151.3,350.142a76.211,76.211,0,0,0,15.967-3.782q-.04-.5-.082-1.028a79.066,79.066,0,0,1-35.255,3.74l-.048.951a76.465,76.465,0,0,0,19.418.118" transform="translate(-44.776 -117.246)" fill="#456cce"/>
        <path id="Trazado_1003141" data-name="Trazado 1003141" d="M133.209,246.628q.116,1.813.23,3.588l.172,3.51c.427,9.248.676,17.583.822,24.584.134,6.469.189,11.8.223,15.659a2.676,2.676,0,0,1,.308-.11c.046-3.855.062-9.144-.01-15.558-.079-7.006-.275-15.348-.664-24.606q-.078-1.736-.159-3.513-.108-1.776-.219-3.592-.222-3.633-.453-7.408c-.311-5.032-.632-10.236-.962-15.568-.126-2.657-.161-5.312-.459-7.924a27.842,27.842,0,0,0-.723-3.859,15.553,15.553,0,0,0-1.474-3.6,11.116,11.116,0,0,0-5.686-4.9,20.214,20.214,0,0,0-7.121-1.038c-2.332-.008-4.585.143-6.759.089a42.571,42.571,0,0,1-6.3-.621,32.7,32.7,0,0,1-10.64-3.8,25.731,25.731,0,0,1-7.092-6.039,23.343,23.343,0,0,1-3.577-6.08,21.207,21.207,0,0,1-1.207-4.312c-.159-1.015-.209-1.555-.243-1.553a1.64,1.64,0,0,0,0,.4c.02.264.02.661.094,1.173A19.45,19.45,0,0,0,82.4,185.94a23.061,23.061,0,0,0,3.523,6.236,25.881,25.881,0,0,0,7.149,6.231,32.957,32.957,0,0,0,10.795,3.954,42.757,42.757,0,0,0,6.39.668c2.213.066,4.473-.075,6.773-.057a19.6,19.6,0,0,1,6.874,1.016,10.414,10.414,0,0,1,5.311,4.6,14.87,14.87,0,0,1,1.4,3.436,27.216,27.216,0,0,1,.7,3.751c.29,2.562.324,5.2.451,7.876.335,5.334.661,10.54.978,15.575q.24,3.768.471,7.4" transform="translate(-27.572 -61.104)" fill="#456cce"/>
        <path id="Trazado_1003142" data-name="Trazado 1003142" d="M87.532,168.168a11.962,11.962,0,0,0,.528,2.818,42.293,42.293,0,0,1,1.133,6.732,17.818,17.818,0,0,1-.762,6.681c-.544,1.648-1.154,2.565-1.05,2.632a5.9,5.9,0,0,0,1.54-2.45,15.631,15.631,0,0,0,1.009-6.909,29.926,29.926,0,0,0-1.365-6.821,10.44,10.44,0,0,0-1.032-2.682" transform="translate(-29.663 -57.095)" fill="#456cce"/>
        <path id="Trazado_1003143" data-name="Trazado 1003143" d="M571.7,308.912l16.98,1.417L583.37,340.1s-4.99-1.392-3.955-15.772L567.5,321.368" transform="translate(-192.675 -104.88)" fill="#1d1423"/>
        <path id="Trazado_1003144" data-name="Trazado 1003144" d="M593.748,310.772q-2.371,14.391-4.742,28.783a6.768,6.768,0,0,1-.526-.728q2.315-14.054,4.631-28.109Z" transform="translate(-199.798 -105.494)" fill="#754fb9"/>
        <path id="Trazado_1003145" data-name="Trazado 1003145" d="M451.535,212.807s9.557,60.391,14.851,64.95,66.5,19.711,66.5,19.711,7.789-19.089,5.359-35.983l-52.085-3.421s-7.768-44.036-15.4-54.033" transform="translate(-153.303 -69.272)" fill="#fec96f"/>
        <path id="Trazado_1003146" data-name="Trazado 1003146" d="M481.566,225.042a7.031,7.031,0,0,0,4.32,1.758c.081,0,.156-.009.234-.014l-.139-.509c-.03,0-.057,0-.087,0a6.735,6.735,0,0,1-3.9-1.764,25.645,25.645,0,0,1-3.724-4.023,29.849,29.849,0,0,1-4.584-8.849c-.7-2.147-.947-3.639-1.082-3.96l-.078.036a8.251,8.251,0,0,0,.059,1.037,22.036,22.036,0,0,0,.6,3.036,26.724,26.724,0,0,0,4.5,9.146,23.967,23.967,0,0,0,3.884,4.106" transform="translate(-160.429 -70.511)" fill="#cc8912"/>
        <path id="Trazado_1003147" data-name="Trazado 1003147" d="M573.582,299.336c.031-1.452.079-2.832.027-4.123-.019-.645-.018-1.269-.054-1.867q-.057-.874-.114-1.719c-.018-.357-.046-.7-.077-1.032l-.491-.032c.022.353.04.715.048,1.094q.033.841.066,1.709c.021.594.005,1.213.011,1.853.024,1.281-.046,2.648-.094,4.086a78.457,78.457,0,0,1-3.14,18.418c-.431,1.374-.817,2.687-1.265,3.887-.218.6-.408,1.191-.625,1.745l-.628,1.59c-.08.215-.162.42-.245.624l.491.124c.079-.179.158-.358.235-.546l.677-1.585c.232-.552.438-1.141.669-1.744.477-1.2.889-2.518,1.341-3.9a71.8,71.8,0,0,0,3.168-18.584" transform="translate(-192.505 -98.651)" fill="#cc8912"/>
        <path id="Trazado_1003148" data-name="Trazado 1003148" d="M545.2,285.348,542.664,285c-2.456-.326-6.008-.8-10.39-1.439-8.758-1.277-20.853-3.246-34.043-6.086a8.058,8.058,0,0,1-4.218-2.114,8.811,8.811,0,0,1-1.913-4.194c-.323-1.528-.5-3.094-.731-4.608s-.436-3-.647-4.452l-2.274-15.4c-.632-4.108-1.166-7.576-1.6-10.372-.176-1.051-.33-1.976-.471-2.814a5.056,5.056,0,0,0-.214-.975,5.092,5.092,0,0,0,.067,1c.1.844.209,1.777.334,2.835.368,2.8.824,6.285,1.364,10.4.62,4.514,1.333,9.714,2.117,15.419q.305,2.182.623,4.456c.225,1.516.391,3.069.721,4.662a9.485,9.485,0,0,0,2.082,4.54,8.744,8.744,0,0,0,4.582,2.333c13.25,2.854,25.351,4.738,34.144,5.886,4.4.571,7.962.969,10.429,1.207,1.066.108,1.914.178,2.548.228,0-.056.01-.11.017-.165" transform="translate(-165.058 -78.954)" fill="#cc8912"/>
        <path id="Trazado_1003149" data-name="Trazado 1003149" d="M411.388,138.974a9.806,9.806,0,0,0,9.744,2.238,10.3,10.3,0,0,0,5.923-5.783c-.128.031-.254.057-.383.091a2.313,2.313,0,0,1-2.778-1.489l-2.467-7.228-10.668,2.754,1.993,6.593a2.316,2.316,0,0,1-1.364,2.824" transform="translate(-139.459 -43.052)" fill="#e53a2e"/>
        <path id="Trazado_1003150" data-name="Trazado 1003150" d="M424.054,90.833a27.468,27.468,0,0,0,.5-3.368c.386-4.361,0-9.142-2.046-13.083-1.757-3.38-5.4-6.531-9.326-6.783a13.2,13.2,0,0,1-2.176.121,10,10,0,0,0-6.518-2.2,70.167,70.167,0,0,0-7.161.534c-6.891.876-14.429,2.973-17.284,10.1-2.277,5.684-.124,12.946,5.145,16.067" transform="translate(-128.724 -22.243)" fill="#15342f"/>
        <path id="Trazado_1003151" data-name="Trazado 1003151" d="M421.817,107.634a13.392,13.392,0,0,0,.738-3.267c-.022.219,3.7-.688,4.022-.832a6.029,6.029,0,0,0,2.7-2.484,6.274,6.274,0,0,0-.013-6.97A5.406,5.406,0,0,0,424.13,92a1.2,1.2,0,0,1-1.422-1.192,19.834,19.834,0,0,0-1.277-8.436c-2.16-5.191-6.115-6.248-11.023-7.377-5.4-1.241-11.035.094-16.22,1.656-2.722.82-4.172,2.234-5.855,4.553-2,2.76-2.294,6.574-2.437,9.846-.3,6.866-.623,15.054,2.523,21.34,1.688,3.372,6.323,4.512,9.771,4.847,8.489.822,20.42-.861,23.626-9.607" transform="translate(-130.956 -25.298)" fill="#fa4a35"/>
        <path id="Trazado_1003152" data-name="Trazado 1003152" d="M316.151,259.277l-7.686.5a2.285,2.285,0,0,1-2.418-2.021l-1.071-9.4-12.427,2.728-.23,5.333a2.285,2.285,0,0,1-2.874,2.106,20.791,20.791,0,0,0-5.21-.589c1.478,3.628,5.195,6.478,9.082,7.694a22.573,22.573,0,0,0,22.834-6.355" transform="translate(-96.502 -84.322)" fill="#ea7a2f"/>
        <path id="Trazado_1003153" data-name="Trazado 1003153" d="M396.813,139.58a10.3,10.3,0,0,1-5.925,5.783,9.8,9.8,0,0,1-9.743-2.238,2.3,2.3,0,0,1-.892.161,14.117,14.117,0,0,0-11.537,5.261c-6.058,7.4-11.838,13.462-11.838,13.462l-15.835-22.682-19.361,10.39s18.391,37.711,27.4,37.9,29.518-16.4,29.518-16.4l3.142,3.612,1.083,22.5s29.248,4.52,45.6-13.618l2.876-15.831s-13.068-33.531-34.5-28.311" transform="translate(-109.216 -47.202)" fill="#754fb9"/>
        <path id="Trazado_1003154" data-name="Trazado 1003154" d="M321.583,186.906a11.429,11.429,0,1,1,12.607,9.5" transform="translate(-109.135 -58.968)" fill="#02542b"/>
        <path id="Trazado_1003155" data-name="Trazado 1003155" d="M324.873,192.53a4.3,4.3,0,0,1,7.05,1.555,3.66,3.66,0,0,1,4.525,4.995" transform="translate(-110.299 -64.946)" fill="#fdba1e"/>
        <path id="Trazado_1003156" data-name="Trazado 1003156" d="M322.512,228.634a118.912,118.912,0,0,0,6.92-14.105c1.632-4.008.51-9.261-1.824-12.8s-5.536-4.877-9.067-6.913c-3.793-2.187-6.843-4.59-11.292-5.379a19.312,19.312,0,0,0-12.013,1.528c-6.078,3.08-10.015,9.489-9.177,16.3" transform="translate(-97.083 -64.203)" fill="#02542b"/>
        <path id="Trazado_1003157" data-name="Trazado 1003157" d="M115.189,27.846c-1.679-5.917-8.631-9.4-14.654-8.158s-10.758,6.424-12.562,12.3c-1.238,4.034-1.273,8.345-2.321,12.432s-3.516,8.24-7.563,9.438c-3.5,1.037-7.2-.378-10.83-.744a13.544,13.544,0,0,0-8.383,1.631,8.723,8.723,0,0,0-4.331,7.106,6.482,6.482,0,0,0,4.864,6.368,6.841,6.841,0,1,0,5.716,12.4A10.234,10.234,0,0,0,71.9,90.034c6.4,2.161,16-2.826,19.5-8.155A10.74,10.74,0,0,0,108.429,71.4" transform="translate(-18.519 -6.599)" fill="#15342f"/>
        <path id="Trazado_1003158" data-name="Trazado 1003158" d="M124.784,34.139a4.288,4.288,0,0,1,5.945-3.751,3.622,3.622,0,0,1,6.142.347" transform="translate(-42.366 -9.795)" fill="#fbce1b"/>
        <path id="Trazado_1003159" data-name="Trazado 1003159" d="M144.031,101.292a1.215,1.215,0,0,1-1.2-1.3l.327-5.255-12.132-.452-1.734,3.969a1.217,1.217,0,0,1-1.566.647,13.869,13.869,0,0,0-3.769-.872,16.136,16.136,0,0,0,13.98,6.643,18.536,18.536,0,0,0,8.771-2.94,10.365,10.365,0,0,0-2.673-.444" transform="translate(-42.084 -32.013)" fill="#e53a2e"/>
        <path id="Trazado_1003160" data-name="Trazado 1003160" d="M166.832,79.93l-26.313,28.854c-10.854-8.033-17.108-10.95-20.587-11.923a18.537,18.537,0,0,1-8.771,2.941,16.139,16.139,0,0,1-13.98-6.644c-4.409-.42-11.574.76-20.412,8.961C61.727,116.074,45.1,138.706,45.1,138.706s3.522,11.1,17.4,17.832l11.142-16.562c12.477,16.207,41.828,12.869,41.828,12.869a110.652,110.652,0,0,0,.33-24.2c7.478-3.966,7.765-9.146,7.765-9.146s6.476,11.622,16.954,13.048,42.068-36.507,42.068-36.507Z" transform="translate(-15.311 -27.137)" fill="#fec96f"/>
        <path id="Trazado_1003161" data-name="Trazado 1003161" d="M149.473,48.241a61.026,61.026,0,0,1,.769,10.161,55.746,55.746,0,0,1-.256,7.522c-.32,2.3-1.149,3.328-2.7,4.965-3.035,3.2-7.523,4.472-11.765,5.062-4.431.617-9.629.557-13.6-1.641-.458-.254-4.375-3.467-4.321-3.49-3.925,1.7-9.271.752-11.142-3.39a6.735,6.735,0,0,1,.339-6.4,5.268,5.268,0,0,1,4.4-2.3.973.973,0,0,0,.978-1.238,46.8,46.8,0,0,1-1.8-10.4c-.176-3.032,1.7-5.333,3.694-7.472a19.228,19.228,0,0,1,6.583-4.425,27.42,27.42,0,0,1,15.655-1.776,20.381,20.381,0,0,1,8.064,3.388c3.691,2.857,4.382,7.09,5.094,11.435" transform="translate(-35.925 -11.193)" fill="#fa4a35"/>
        <path id="Trazado_1003162" data-name="Trazado 1003162" d="M148.474,76.88a9.179,9.179,0,0,1-5.748-2.048,4.312,4.312,0,0,0-.186,1.259,3.966,3.966,0,0,0,3.825,4.093,3.914,3.914,0,0,0,3.776-3.467,9.027,9.027,0,0,1-1.666.162" transform="translate(-48.395 -25.407)" fill="#fff"/>
        <path id="Trazado_1003163" data-name="Trazado 1003163" d="M148.758,65.719c-.032.034.141.278.565.6a5.008,5.008,0,0,0,2.073.909,4.233,4.233,0,0,0,.775.083,1.346,1.346,0,0,0,.929-.324,1.188,1.188,0,0,0,.322-1.047,3.148,3.148,0,0,0-.312-.944,14.2,14.2,0,0,1-1.3-3.655,15.238,15.238,0,0,1,.18-7c.448-1.767,1.023-2.771.906-2.833a6.521,6.521,0,0,0-1.406,2.684,13.934,13.934,0,0,0-.4,7.306A13.429,13.429,0,0,0,152.5,65.3c.275.506.407,1.038.169,1.252-.219.245-.77.21-1.194.163a5.776,5.776,0,0,1-2-.637c-.448-.235-.683-.4-.72-.361" transform="translate(-50.504 -17.487)" fill="#033d7e"/>
        <path id="Trazado_1003164" data-name="Trazado 1003164" d="M140.434,53.066c.3.673-.5,1.693-1.8,2.279s-2.593.515-2.9-.158.5-1.693,1.8-2.279,2.594-.515,2.9.158" transform="translate(-46.064 -17.828)" fill="#15342f"/>
        <path id="Trazado_1003165" data-name="Trazado 1003165" d="M157.923,52.228c-.3.673.5,1.693,1.8,2.279s2.593.515,2.9-.158-.5-1.693-1.8-2.279-2.594-.515-2.9.158" transform="translate(-53.596 -17.544)" fill="#15342f"/>
        <path id="Trazado_1003166" data-name="Trazado 1003166" d="M141.957,65.863c.178,1.49-.258,2.767-.973,2.853s-1.44-1.053-1.618-2.544.258-2.767.973-2.852,1.44,1.053,1.618,2.543" transform="translate(-47.304 -21.496)" fill="#033d7e"/>
        <path id="Trazado_1003167" data-name="Trazado 1003167" d="M161.471,63.712c.178,1.49-.258,2.767-.973,2.853s-1.44-1.053-1.618-2.544.258-2.767.973-2.852,1.44,1.053,1.618,2.543" transform="translate(-53.929 -20.766)" fill="#033d7e"/>
        <path id="Trazado_1003168" data-name="Trazado 1003168" d="M117.528,84.731a4.681,4.681,0,0,0-.1-1.8,8.733,8.733,0,0,0-1.7-4.046,5.594,5.594,0,0,0-1.922-1.551,4.6,4.6,0,0,0-1.97-.45,2.391,2.391,0,0,0-1.747.528,10.277,10.277,0,0,1,1.732-.137,4.709,4.709,0,0,1,1.758.516,5.55,5.55,0,0,1,1.719,1.443,9.939,9.939,0,0,1,1.744,3.78,7.908,7.908,0,0,0,.484,1.722" transform="translate(-37.377 -26.102)" fill="#033d7e"/>
        <path id="Trazado_1003169" data-name="Trazado 1003169" d="M115.915,84.7c.053-.067-.223-.325-.506-.824a3.273,3.273,0,0,1,.5-4.029c.4-.414.727-.6.692-.674-.021-.063-.429-.006-.95.381a3.194,3.194,0,0,0-.564,4.543c.411.5.793.657.828.6" transform="translate(-38.836 -26.873)" fill="#033d7e"/>
        <path id="Trazado_1003170" data-name="Trazado 1003170" d="M147.606,34.292c-.292-.361-.588-.682-.846-.943-4.983-5.045-12.828-3.959-19.038-2.183a92.336,92.336,0,0,0-9.985,3.507,12.686,12.686,0,0,0-7.455,11.3,21.752,21.752,0,0,0,.968,5.238c.145.509,1.729,5.774,1.972,5.73,4.473-.808,8.574-5.076,10.728-8.9a20.658,20.658,0,0,0,2.4-12.991A34.743,34.743,0,0,0,138.8,39.879c2.353.367,8.15,1.147,9.837-1.129,1.009-1.362.018-3.164-1.028-4.458" transform="translate(-37.441 -10.078)" fill="#15342f"/>
        <path id="Trazado_1003171" data-name="Trazado 1003171" d="M145.079,103.623a18.529,18.529,0,0,1-8.771,2.94,16.136,16.136,0,0,1-13.98-6.643,17.056,17.056,0,0,0-3.164,0,17.946,17.946,0,0,0,12.84,8.6c5.755.906,11.689-.672,16.793-3.5a26.861,26.861,0,0,0-3.719-1.395" transform="translate(-40.458 -33.9)" fill="#dfa84c"/>
        <path id="Trazado_1003172" data-name="Trazado 1003172" d="M162.582,122.571q-.2-1.043-.369-2.032a12.71,12.71,0,0,0,.59-2.17,6.7,6.7,0,0,0,.1-3.139,13.811,13.811,0,0,0-.641,3.038c-.076.416-.153.812-.225,1.172a25.486,25.486,0,0,1-.37-4.362c.02-1.929.366-3.094.271-3.118a2.28,2.28,0,0,0-.3.8,11.534,11.534,0,0,0-.359,2.3,26.21,26.21,0,0,0,.474,5.981c-.017.172-.012.277.027.29,0,0,.014-.01.02-.012.076.444.157.892.244,1.347a30.25,30.25,0,0,1,.706,7.494c-.127,1.923-.573,3.059-.478,3.09a2.243,2.243,0,0,0,.362-.776,10.617,10.617,0,0,0,.505-2.277,25.757,25.757,0,0,0-.552-7.629" transform="translate(-54.742 -38.012)" fill="#fff"/>
        <path id="Trazado_1003173" data-name="Trazado 1003173" d="M233.4,91.584c-2.913-2.833-5.635-5.446-7.9-7.594l-.411.451c2.207,2.2,4.89,4.845,7.8,7.672,3.145,3.059,6.067,5.861,8.433,8.1l.386-.448c-2.3-2.3-5.172-5.131-8.3-8.179" transform="translate(-76.419 -28.516)" fill="#fff"/>
        <path id="Trazado_1003174" data-name="Trazado 1003174" d="M111.7,177.516a51.97,51.97,0,0,1-18.069-8.954c-1.1-.846-2.051-1.641-2.866-2.354h0c0,.017,0,.032-.006.048a1.024,1.024,0,0,1-.154.357c.767.722,1.669,1.517,2.7,2.358a49.124,49.124,0,0,0,37.889,10.42c.017-.185.032-.367.048-.55a52.009,52.009,0,0,1-19.546-1.326" transform="translate(-30.761 -56.43)" fill="#fff"/>
        <path id="Trazado_1003175" data-name="Trazado 1003175" d="M63.843,181.987c-.891-.52-1.777-1.177-2.724-1.842A41.58,41.58,0,0,1,50.86,169.219c-.6-.988-1.2-1.913-1.666-2.835-.239-.456-.493-.886-.7-1.32l-.266-.573c-.136.178-.258.338-.382.5l.133.315c.194.446.439.889.669,1.359.447.949,1.036,1.9,1.635,2.917A39.03,39.03,0,0,0,60.718,180.7c.975.661,1.888,1.309,2.807,1.815.437.25.847.509,1.263.725l.319-.474c-.416-.23-.827-.508-1.264-.773" transform="translate(-16.246 -55.847)" fill="#fff"/>
        <path id="Trazado_1003176" data-name="Trazado 1003176" d="M97.292,134.559c1.116-1.454,2.285-2.985,3.42-4.631a60.46,60.46,0,0,0,3.308-5.232c2.081-3.68,3.722-7.5,4.042-11.23a13.413,13.413,0,0,0-.544-5.231,11.546,11.546,0,0,0-2.248-3.992,12.476,12.476,0,0,0-2.769-2.386c-.118.044-.239.091-.359.137l.093.056a12.568,12.568,0,0,1,2.736,2.444,11.3,11.3,0,0,1,2.11,3.88,13.09,13.09,0,0,1,.474,5.046c-.334,3.608-1.952,7.357-4.016,11-1.022,1.836-2.139,3.563-3.271,5.195s-2.277,3.171-3.379,4.629c-2.221,2.9-4.273,5.489-5.928,7.714s-2.924,4.078-3.756,5.388c-.417.654-.715,1.178-.922,1.53a2.705,2.705,0,0,0-.287.554,2.662,2.662,0,0,0,.381-.495l1.007-1.47c.884-1.269,2.192-3.084,3.888-5.27l6.02-7.64" transform="translate(-29.196 -34.582)" fill="#fff"/>
        <path id="Trazado_1003177" data-name="Trazado 1003177" d="M284.959,206.493c-.366.919-.706,1.817-1.034,2.659a61.564,61.564,0,0,0-3.184,11.127c-1.358,7.394,3.506,13.284,10.083,15.955a25.266,25.266,0,0,0,10.6,1.8,23.731,23.731,0,0,0,12.411-3.728,8.02,8.02,0,0,0,9.531,2.3c2.565-1.225,5.021-4.276,4.374-7.238a5.856,5.856,0,0,0-1.943-3.106,16.723,16.723,0,0,0-3.08-1.806,23.99,23.99,0,0,0,1.659-4.975,34.908,34.908,0,0,1,.727-4.582c1.142-4.4.822-7.462-1.834-11.257a20.106,20.106,0,0,0-6.024-5.739,28.2,28.2,0,0,0-15.8-4.5,20.994,20.994,0,0,0-8.863,2.178c-3.781,2.088-5.958,6.733-7.618,10.911" transform="translate(-95.239 -65.659)" fill="#f98638"/>
        <path id="Trazado_1003178" data-name="Trazado 1003178" d="M298.7,228.381c-.006-.055-.271-.057-.732-.116a5.544,5.544,0,0,1-1.841-.559,2.425,2.425,0,0,1-.5-.317c-.145-.13-.19-.26-.154-.31.013-.062.185-.172.431-.264l.769-.345a13,13,0,0,0,3.084-2.118,13.587,13.587,0,0,0,3.684-5.632,6,6,0,0,0,.452-2.748c-.124-.021-.3,1.024-.941,2.565a15.2,15.2,0,0,1-3.694,5.271,13.9,13.9,0,0,1-2.895,2.057l-.717.355a1.249,1.249,0,0,0-.753.662.752.752,0,0,0,.059.59,1.174,1.174,0,0,0,.306.353,2.812,2.812,0,0,0,.647.355,4.689,4.689,0,0,0,2.05.372c.491-.028.748-.126.742-.171" transform="translate(-100.111 -73.326)" fill="#033d7e"/>
        <path id="Trazado_1003179" data-name="Trazado 1003179" d="M295.494,223.942c-.533,1.337-1.566,2.182-2.307,1.886s-.909-1.619-.376-2.956,1.566-2.182,2.307-1.886.909,1.619.376,2.956" transform="translate(-99.308 -75.008)" fill="#033d7e"/>
        <path id="Trazado_1003180" data-name="Trazado 1003180" d="M314.545,231.752c-.533,1.337-1.566,2.182-2.307,1.886s-.909-1.619-.376-2.956,1.566-2.182,2.307-1.886.909,1.619.376,2.956" transform="translate(-105.776 -77.66)" fill="#033d7e"/>
        <path id="Trazado_1003181" data-name="Trazado 1003181" d="M302.956,209.826c0,.83-1.344,1.5-3,1.5s-3-.672-3-1.5,1.343-1.5,3-1.5,3,.672,3,1.5" transform="translate(-100.821 -70.729)" fill="#02542b"/>
        <path id="Trazado_1003182" data-name="Trazado 1003182" d="M318.655,217.965c-.6.57-2.014.057-3.154-1.147s-1.575-2.642-.972-3.212,2.014-.057,3.154,1.147,1.575,2.643.972,3.213" transform="translate(-106.695 -72.444)" fill="#02542b"/>
        <path id="Trazado_1003183" data-name="Trazado 1003183" d="M302.139,236.828c-.106-.044-.33.4-.889.9a3.495,3.495,0,0,1-5.078-.229c-.512-.546-.694-1.011-.8-.977-.084.015-.083.573.394,1.3a3.634,3.634,0,0,0,5.867.265c.541-.681.592-1.236.51-1.258" transform="translate(-100.268 -80.302)" fill="#033d7e"/>
        <path id="Trazado_1003184" data-name="Trazado 1003184" d="M334.423,252.454a8.285,8.285,0,0,0,.784-1.707,10.623,10.623,0,0,1,2.413-3.649,5.807,5.807,0,0,1,2.009-1.232,4.827,4.827,0,0,1,1.9-.249,10.221,10.221,0,0,1,1.77.439c.048-.037-.5-.634-1.72-.847a4.738,4.738,0,0,0-2.118.147,5.86,5.86,0,0,0-2.238,1.313,9.291,9.291,0,0,0-2.4,3.931,4.91,4.91,0,0,0-.4,1.854" transform="translate(-113.535 -83.232)" fill="#033d7e"/>
        <path id="Trazado_1003185" data-name="Trazado 1003185" d="M339.418,252.688c.028.063.451-.036.959-.5a3.416,3.416,0,0,0,.184-4.832c-.472-.5-.886-.627-.919-.566-.05.075.261.322.6.824a3.518,3.518,0,0,1-.164,4.294c-.374.474-.7.7-.659.776" transform="translate(-115.236 -83.786)" fill="#033d7e"/>
        <path id="Trazado_1003186" data-name="Trazado 1003186" d="M327.265,223.5c.625-1.34,1.446-3.981,1.663-4.46,1.73-3.822,2.385-7.584.9-11.574a18.876,18.876,0,0,0-2.281-4.306c-2.492-3.524-6.036-5.355-9.285-8.014-2.723-2.228-5.738-2.946-9.186-3.481-6.891-1.071-14.566-.133-17.892,6.855a21.571,21.571,0,0,0,11.481,4.176,23.334,23.334,0,0,0,13.191-3,26.835,26.835,0,0,0,.485,15.22,15.172,15.172,0,0,0,4.547,7.007c1.472,1.188,3.884,2.695,5.84,2.36.136-.023.325-.328.536-.78" transform="translate(-98.862 -64.946)" fill="#02542b"/>
        <path id="Trazado_1003187" data-name="Trazado 1003187" d="M318.22,263.976l-4.071.264h0l.615-.04a22.572,22.572,0,0,1-22.834,6.355c-3.888-1.216-7.605-4.065-9.083-7.694-.82,0-1.723.036-2.7.112a18.178,18.178,0,0,0,10.931,10.58c6.376,2.227,13.634,1.019,19.527-2.28a29.654,29.654,0,0,0,8.6-7.322,5.213,5.213,0,0,0-.985.025" transform="translate(-95.116 -89.245)" fill="#033d7e"/>
        <path id="Trazado_1003188" data-name="Trazado 1003188" d="M276.266,297.25a17.167,17.167,0,0,0-.66-3.243c-.468-1.982-1.085-4.724-1.637-7.778s-.93-5.839-1.184-7.859a17.184,17.184,0,0,0-.515-3.269,13.018,13.018,0,0,0-.005,3.318,71.562,71.562,0,0,0,2.837,15.723,13.051,13.051,0,0,0,1.164,3.108" transform="translate(-92.411 -93.401)" fill="#fff"/>
        <path id="Trazado_1003189" data-name="Trazado 1003189" d="M272.852,288.362c.142-.107-1.4-2.147-2.594-5.024-1.217-2.867-1.592-5.4-1.767-5.371a15.954,15.954,0,0,0,4.361,10.4" transform="translate(-91.141 -94.374)" fill="#fff"/>
        <path id="Trazado_1003190" data-name="Trazado 1003190" d="M207.147,238.942c0,.165.008.332.013.5,4.775-.314,10.379-.727,16.367-1.236,2.073-.177,4.1-.357,6.058-.538l-.023-.571c-1.969.174-4,.352-6.084.53-5.976.508-11.566.951-16.33,1.318" transform="translate(-70.33 -80.497)" fill="#fff"/>
        <path id="Trazado_1003191" data-name="Trazado 1003191" d="M344.666,319.926a2.333,2.333,0,0,0-.191-.568c-.209-.511-.423-1.034-.648-1.584-.721-1.748-1.514-3.672-2.4-5.814-1.977-4.923-4.664-11.758-7.126-19.466-.612-1.929-1.16-3.823-1.682-5.662a43.436,43.436,0,0,1-1.256-5.325,18.552,18.552,0,0,1-.141-4.9,16,16,0,0,1,1.028-4.145,13.083,13.083,0,0,1,3.483-5.074c1.114-.964,1.865-1.325,1.833-1.379a2.367,2.367,0,0,0-.546.248,9.094,9.094,0,0,0-1.432.958,12.744,12.744,0,0,0-3.719,5.092,16.088,16.088,0,0,0-1.126,4.244,18.722,18.722,0,0,0,.09,5.038,42.586,42.586,0,0,0,1.237,5.4c.513,1.839,1.061,3.749,1.676,5.683,2.472,7.739,5.223,14.556,7.3,19.449,1.047,2.443,1.936,4.4,2.569,5.747.316.673.569,1.192.748,1.54a2.317,2.317,0,0,0,.3.52" transform="translate(-112.25 -90.312)" fill="#fff"/>
        <path id="Trazado_1003192" data-name="Trazado 1003192" d="M365.639,375.954c3.475-1.271,7.634-2.875,12.064-4.718,3.614-1.505,6.983-2.994,9.922-4.345l-.179-.483c-2.962,1.314-6.347,2.783-9.967,4.291-4.432,1.843-8.579,3.482-12.033,4.812Z" transform="translate(-124.075 -124.402)" fill="#fff"/>
        <path id="Trazado_1003193" data-name="Trazado 1003193" d="M401.706,117.964a4.364,4.364,0,0,0,4.7,2.97,4.492,4.492,0,0,0,3.355-5.372,5.244,5.244,0,0,0-.21-.807,11.376,11.376,0,0,1-7.848,3.21" transform="translate(-136.385 -38.961)" fill="#fff"/>
        <path id="Trazado_1003194" data-name="Trazado 1003194" d="M445.187,103.768c0-.061-.646-.082-1.491.45a5.239,5.239,0,0,0-2.123,3.093,9.775,9.775,0,0,0-.119,3.722,3.78,3.78,0,0,0,.362,1.489,4.443,4.443,0,0,0,.048-1.523,12.889,12.889,0,0,1,.271-3.542,5.553,5.553,0,0,1,1.8-2.9c.7-.561,1.276-.689,1.252-.784" transform="translate(-149.839 -35.221)" fill="#033d7e"/>
        <path id="Trazado_1003195" data-name="Trazado 1003195" d="M444.752,111.642c.069.024.242-.224.341-.693a3.513,3.513,0,0,0-1.248-3.343c-.382-.289-.674-.363-.711-.3-.091.141.81.787,1.246,2.005a13.118,13.118,0,0,1,.372,2.331" transform="translate(-150.449 -36.425)" fill="#033d7e"/>
        <path id="Trazado_1003196" data-name="Trazado 1003196" d="M404.885,107.674c-.034-.09-1.045.326-2.755.569a13.714,13.714,0,0,1-1.4.12c-.485.038-1.067-.036-1.1-.391a1.547,1.547,0,0,1,.168-.716l.324-.875c.214-.6.419-1.221.612-1.865a36.252,36.252,0,0,0,1.346-6.742,10.417,10.417,0,0,0,.065-2.847,20.632,20.632,0,0,0-.473,2.795,50.839,50.839,0,0,1-1.5,6.627c-.19.636-.389,1.252-.592,1.844l-.306.869a1.949,1.949,0,0,0-.175,1.007.9.9,0,0,0,.3.516,1.15,1.15,0,0,0,.482.229,2.8,2.8,0,0,0,.869.032,12.02,12.02,0,0,0,1.444-.2,6.7,6.7,0,0,0,2.687-.974" transform="translate(-135.497 -32.229)" fill="#033d7e"/>
        <path id="Trazado_1003197" data-name="Trazado 1003197" d="M396.375,105.7c0,1.437-.649,2.6-1.449,2.6s-1.448-1.165-1.448-2.6.649-2.6,1.448-2.6,1.449,1.165,1.449,2.6" transform="translate(-133.592 -35.003)" fill="#033d7e"/>
        <path id="Trazado_1003198" data-name="Trazado 1003198" d="M413.979,105.35c0,1.437-.649,2.6-1.449,2.6s-1.448-1.165-1.448-2.6.649-2.6,1.448-2.6,1.449,1.165,1.449,2.6" transform="translate(-139.568 -34.885)" fill="#033d7e"/>
        <path id="Trazado_1003199" data-name="Trazado 1003199" d="M396.615,90.6c.253.826-.776,1.874-2.3,2.34s-2.962.174-3.215-.652.776-1.874,2.3-2.341,2.962-.174,3.215.653" transform="translate(-132.772 -30.464)" fill="#15342f"/>
        <path id="Trazado_1003200" data-name="Trazado 1003200" d="M409.29,90.6c-.253.826.776,1.874,2.3,2.34s2.962.174,3.215-.652-.776-1.874-2.3-2.341-2.962-.174-3.215.653" transform="translate(-138.948 -30.464)" fill="#15342f"/>
        <path id="Trazado_1003201" data-name="Trazado 1003201" d="M422.4,91.237a3.735,3.735,0,0,0,1.532-3.534,12.965,12.965,0,0,0-1.5-4.932c-1.479-3.227-3.154-6.671-6.275-8.362a16.605,16.605,0,0,0-6.745-1.478,69.494,69.494,0,0,0-13.575-.139c-5.887.713-10.854,4.211-12.805,9.972-2.352,6.948,7.819,1.64,10.138-.015a26.8,26.8,0,0,0,7.047-7.634A22.95,22.95,0,0,0,405.7,85.538,19.949,19.949,0,0,0,419.318,91.9a5.348,5.348,0,0,0,3.087-.664" transform="translate(-129.927 -24.618)" fill="#15342f"/>
        <path id="Trazado_1003202" data-name="Trazado 1003202" d="M426.061,144.863a14.1,14.1,0,0,0,2.8-5.678,19.449,19.449,0,0,0-2.615.448,10.3,10.3,0,0,1-5.925,5.783,9.8,9.8,0,0,1-9.743-2.238h0a2.292,2.292,0,0,1-.892.161c-.411-.009-.852,0-1.314.028a10.919,10.919,0,0,0,17.69,1.5" transform="translate(-138.648 -47.255)" fill="#fdba1e"/>
        <path id="Trazado_1003203" data-name="Trazado 1003203" d="M523.19,93.451H521.2a12.421,12.421,0,0,0-1.172-3.119l1.538-1.538a2.387,2.387,0,0,0,0-3.378l-1.153-1.153a2.389,2.389,0,0,0-3.378,0l-1.411,1.411A12.441,12.441,0,0,0,512.59,84.3V82.12a2.388,2.388,0,0,0-2.388-2.388h-1.63a2.389,2.389,0,0,0-2.389,2.388v1.992a12.406,12.406,0,0,0-3.119,1.172l-1.538-1.538a2.387,2.387,0,0,0-3.378,0L497,84.9a2.389,2.389,0,0,0,0,3.378l1.411,1.411a12.429,12.429,0,0,0-1.374,3.032h-2.18a2.388,2.388,0,0,0-2.388,2.388v1.63a2.389,2.389,0,0,0,2.388,2.389h1.992a12.406,12.406,0,0,0,1.172,3.119l-1.538,1.538a2.387,2.387,0,0,0,0,3.378l1.153,1.153a2.389,2.389,0,0,0,3.378,0l1.411-1.411a12.44,12.44,0,0,0,3.032,1.374v2.18a2.388,2.388,0,0,0,2.388,2.388h1.63a2.389,2.389,0,0,0,2.389-2.388v-1.992a12.407,12.407,0,0,0,3.119-1.172l1.538,1.538a2.387,2.387,0,0,0,3.378,0l1.153-1.153a2.389,2.389,0,0,0,0-3.378l-1.411-1.411a12.416,12.416,0,0,0,1.374-3.032h2.18a2.388,2.388,0,0,0,2.388-2.388V95.84a2.389,2.389,0,0,0-2.388-2.389m-22.865,2.838a8.7,8.7,0,1,1,8.7,8.7,8.7,8.7,0,0,1-8.7-8.7" transform="translate(-167.199 -27.07)" fill="#fff"/>
        <path id="Trazado_1003204" data-name="Trazado 1003204" d="M230.74,334.149h-1.992a12.421,12.421,0,0,0-1.172-3.119l1.538-1.538a2.387,2.387,0,0,0,0-3.378l-1.153-1.153a2.389,2.389,0,0,0-3.378,0l-1.411,1.411A12.431,12.431,0,0,0,220.14,325v-2.18a2.388,2.388,0,0,0-2.388-2.388h-1.63a2.389,2.389,0,0,0-2.389,2.388v1.992a12.408,12.408,0,0,0-3.119,1.172l-1.538-1.538a2.387,2.387,0,0,0-3.378,0l-1.153,1.153a2.389,2.389,0,0,0,0,3.378l1.411,1.411a12.43,12.43,0,0,0-1.374,3.032H202.4a2.388,2.388,0,0,0-2.388,2.388v1.63a2.389,2.389,0,0,0,2.388,2.389h1.992a12.407,12.407,0,0,0,1.172,3.119l-1.538,1.538a2.387,2.387,0,0,0,0,3.378l1.153,1.153a2.389,2.389,0,0,0,3.378,0l1.411-1.411A12.44,12.44,0,0,0,213,348.975v2.18a2.388,2.388,0,0,0,2.388,2.388h1.63a2.389,2.389,0,0,0,2.389-2.388v-1.992a12.419,12.419,0,0,0,3.119-1.172l1.538,1.538a2.387,2.387,0,0,0,3.378,0l1.153-1.153a2.389,2.389,0,0,0,0-3.378l-1.411-1.411a12.416,12.416,0,0,0,1.374-3.032h2.18a2.389,2.389,0,0,0,2.389-2.388v-1.63a2.389,2.389,0,0,0-2.389-2.389m-22.865,2.838a8.7,8.7,0,1,1,8.7,8.7,8.7,8.7,0,0,1-8.7-8.7" transform="translate(-67.908 -108.791)" fill="#eda618"/>
        <path id="Trazado_1003205" data-name="Trazado 1003205" d="M436.124,340.934H435.08a6.548,6.548,0,0,0-.614-1.635l.806-.806a1.252,1.252,0,0,0,0-1.771l-.6-.6a1.252,1.252,0,0,0-1.771,0l-.74.74a6.528,6.528,0,0,0-1.59-.72v-1.143a1.252,1.252,0,0,0-1.252-1.252h-.855a1.252,1.252,0,0,0-1.252,1.252v1.044a6.522,6.522,0,0,0-1.635.614l-.806-.806a1.251,1.251,0,0,0-1.771,0l-.6.6a1.253,1.253,0,0,0,0,1.771l.74.74a6.52,6.52,0,0,0-.721,1.59h-1.143a1.252,1.252,0,0,0-1.252,1.252v.855a1.252,1.252,0,0,0,1.252,1.252h1.044a6.52,6.52,0,0,0,.614,1.635l-.806.806a1.253,1.253,0,0,0,0,1.771l.6.6a1.253,1.253,0,0,0,1.771,0l.74-.74a6.526,6.526,0,0,0,1.589.72v1.143a1.252,1.252,0,0,0,1.252,1.252h.855a1.252,1.252,0,0,0,1.252-1.252v-1.044a6.52,6.52,0,0,0,1.635-.614l.806.806a1.252,1.252,0,0,0,1.771,0l.6-.6a1.252,1.252,0,0,0,0-1.771l-.74-.74a6.516,6.516,0,0,0,.72-1.59h1.143a1.252,1.252,0,0,0,1.252-1.252v-.855a1.252,1.252,0,0,0-1.252-1.252m-11.988,1.488a4.559,4.559,0,1,1,4.559,4.559,4.56,4.56,0,0,1-4.559-4.559" transform="translate(-142.602 -113.31)" fill="#6c8ffd"/>
        <path id="Trazado_1003206" data-name="Trazado 1003206" d="M370.946,33.7H369.9a6.545,6.545,0,0,0-.614-1.635l.806-.806a1.252,1.252,0,0,0,0-1.771l-.6-.6a1.253,1.253,0,0,0-1.771,0l-.74.74a6.528,6.528,0,0,0-1.59-.72V27.764a1.252,1.252,0,0,0-1.252-1.252h-.855a1.252,1.252,0,0,0-1.252,1.252v1.044a6.52,6.52,0,0,0-1.635.614l-.806-.806a1.251,1.251,0,0,0-1.771,0l-.6.6a1.253,1.253,0,0,0,0,1.771l.74.74a6.519,6.519,0,0,0-.721,1.59h-1.143a1.252,1.252,0,0,0-1.252,1.252v.855a1.252,1.252,0,0,0,1.252,1.252h1.044a6.521,6.521,0,0,0,.614,1.635l-.806.806a1.253,1.253,0,0,0,0,1.771l.6.6a1.253,1.253,0,0,0,1.771,0l.74-.74a6.523,6.523,0,0,0,1.589.72v1.143a1.252,1.252,0,0,0,1.252,1.252h.855a1.252,1.252,0,0,0,1.252-1.252V41.577a6.516,6.516,0,0,0,1.636-.614l.806.806a1.252,1.252,0,0,0,1.771,0l.6-.6a1.253,1.253,0,0,0,0-1.771l-.74-.74a6.517,6.517,0,0,0,.72-1.59h1.143a1.252,1.252,0,0,0,1.252-1.252v-.855a1.252,1.252,0,0,0-1.252-1.252m-11.988,1.488a4.559,4.559,0,1,1,4.559,4.559,4.559,4.559,0,0,1-4.559-4.559" transform="translate(-120.473 -9.001)" fill="#754fb9"/>
        <path id="Trazado_1003207" data-name="Trazado 1003207" d="M23.552,127.57h-1.33a8.307,8.307,0,0,0-.781-2.082l1.026-1.026a1.593,1.593,0,0,0,0-2.254l-.769-.769a1.6,1.6,0,0,0-2.254,0l-.942.942a8.255,8.255,0,0,0-2.023-.917v-1.455a1.593,1.593,0,0,0-1.594-1.594H13.8a1.593,1.593,0,0,0-1.594,1.594v1.33a8.272,8.272,0,0,0-2.082.781L9.1,121.094a1.593,1.593,0,0,0-2.254,0l-.769.769a1.6,1.6,0,0,0,0,2.254l.941.941a8.332,8.332,0,0,0-.917,2.024H4.643a1.594,1.594,0,0,0-1.594,1.594v1.088a1.594,1.594,0,0,0,1.594,1.594H5.972a8.334,8.334,0,0,0,.782,2.082l-1.026,1.026a1.6,1.6,0,0,0,0,2.254l.769.769a1.6,1.6,0,0,0,2.254,0l.941-.942a8.289,8.289,0,0,0,2.023.917v1.455a1.594,1.594,0,0,0,1.594,1.594H14.4a1.593,1.593,0,0,0,1.594-1.594v-1.33a8.282,8.282,0,0,0,2.082-.781l1.026,1.026a1.593,1.593,0,0,0,2.254,0l.769-.769a1.6,1.6,0,0,0,0-2.254l-.942-.941a8.307,8.307,0,0,0,.917-2.024h1.455a1.593,1.593,0,0,0,1.594-1.594v-1.088a1.593,1.593,0,0,0-1.594-1.594M8.295,129.464a5.8,5.8,0,1,1,5.8,5.8,5.8,5.8,0,0,1-5.8-5.8" transform="translate(-1.035 -40.204)" fill="#5a81e5"/>
        <path id="Trazado_1003208" data-name="Trazado 1003208" d="M422.992,95.362c-3.973.036-7.981.462-11.949.715a8.926,8.926,0,0,0-16.161,2.046,2.9,2.9,0,0,0-3.324-.022,9.776,9.776,0,1,0,.31,1.454,1.644,1.644,0,0,1,2.668-.011c.012.015.026.018.038.031a8.935,8.935,0,1,0,17.793,1.161,8.886,8.886,0,0,0-.682-3.418l7.695-.47c2.567-.157,7.708-1.178,8.247,2.479.12.813,1.351.466,1.232-.339-.424-2.873-3.372-3.647-5.866-3.625M383.017,108.4a7.661,7.661,0,1,1,7.527-9.057.545.545,0,0,0,.044.283,7.6,7.6,0,0,1-7.57,8.774m20.412,0a7.661,7.661,0,1,1,7.661-7.661,7.67,7.67,0,0,1-7.661,7.661" transform="translate(-127.005 -31.166)" fill="#fdba1e"/>
        <path id="Trazado_1003209" data-name="Trazado 1003209" d="M441.97,151.561a9.4,9.4,0,0,1-1.489-7.794c.876-3.246,3.479-6.139,10.8-2.407,13.022,6.633,32.781,30.618,37.112,43.778l-17.668,12.518s-17.714-30.309-28.759-46.095" transform="translate(-149.449 -47.398)" fill="#754fb9"/>
        <path id="Trazado_1003210" data-name="Trazado 1003210" d="M408.993,182.379c.089-.089-.964-1.163-2.4-3.093-.357-.484-.745-1.015-1.121-1.613-.4-.581-.772-1.239-1.177-1.921a33.292,33.292,0,0,1-3.621-9.615c-.145-.779-.3-1.518-.382-2.219-.112-.7-.17-1.353-.221-1.952-.194-2.4-.112-3.9-.237-3.907a2.972,2.972,0,0,0-.193,1.046,11.1,11.1,0,0,0-.085,1.241c-.011.485-.044,1.039-.006,1.649.018.612.048,1.282.135,2,.056.719.193,1.477.323,2.277a29.764,29.764,0,0,0,3.7,9.823c.429.688.827,1.347,1.259,1.924.406.6.826,1.118,1.216,1.59.375.483.765.878,1.092,1.236a11.065,11.065,0,0,0,.883.876c.5.46.8.7.835.659" transform="translate(-135.647 -53.663)" fill="#fff"/>
        <path id="Trazado_1003211" data-name="Trazado 1003211" d="M399.131,168.648c.149-.16-1.123-1.455-2.071-3.422-.974-1.955-1.219-3.753-1.437-3.734-.1.008-.16.477-.077,1.231a9.088,9.088,0,0,0,2.564,5.232c.545.528.956.764,1.02.693" transform="translate(-134.281 -54.829)" fill="#fff"/>
        <path id="Trazado_1003212" data-name="Trazado 1003212" d="M483.379,215.46c3.171-2.108,7.017-4.79,11.09-7.847,2.475-1.86,4.8-3.68,6.89-5.374-.1-.206-.2-.418-.306-.627-2.143,1.688-4.512,3.522-7.027,5.411-4.048,3.038-7.842,5.75-10.95,7.924l.3.513" transform="translate(-164.012 -68.45)" fill="#fff"/>
        <path id="Trazado_1003213" data-name="Trazado 1003213" d="M344.521,144.158c-2.411,1.355-4.985,2.872-7.635,4.545-4.294,2.717-8.155,5.434-11.312,7.8l.289.551c3.206-2.314,7.107-5.006,11.417-7.733,2.661-1.679,5.235-3.217,7.637-4.6Z" transform="translate(-110.537 -48.944)" fill="#fff"/>
        <path id="Trazado_1003214" data-name="Trazado 1003214" d="M466.374,189.986a13.537,13.537,0,0,0-.912-2.1c-.326-.661-.744-1.458-1.23-2.386-.514-.911-1.077-1.963-1.762-3.088-1.342-2.267-3.042-4.907-5.022-7.77s-4.226-5.958-6.573-9.208c-1.173-1.625-2.313-3.215-3.4-4.761l-1.584-2.283c-.5-.751-1.04-1.472-1.449-2.211a16.173,16.173,0,0,1-2.383-8.62,10.635,10.635,0,0,1,1.849-5.734l.56-.788.464-.538c.248-.3.371-.46.354-.479s-.175.11-.461.375l-.524.5-.627.764a11.026,11.026,0,0,0-1.353,2.354,11.8,11.8,0,0,0-.783,3.52,16.368,16.368,0,0,0,2.315,8.986c.427.787.952,1.5,1.454,2.266s1.04,1.52,1.576,2.3c1.08,1.556,2.218,3.152,3.392,4.779,2.35,3.253,4.613,6.329,6.613,9.166s3.742,5.43,5.134,7.653c.71,1.1,1.3,2.131,1.848,3.019l1.335,2.318a13.62,13.62,0,0,0,1.166,1.966" transform="translate(-149.9 -47.538)" fill="#fff"/>
        <path id="Trazado_1003215" data-name="Trazado 1003215" d="M200.186,26.017a7.129,7.129,0,1,1-7.129-7.129,7.13,7.13,0,0,1,7.129,7.129" transform="translate(-63.125 -6.413)" fill="#d0e1dd"/>
        <path id="Trazado_1003216" data-name="Trazado 1003216" d="M394.529,244.7a7.129,7.129,0,1,1-7.129-7.129,7.13,7.13,0,0,1,7.129,7.129" transform="translate(-129.108 -80.657)" fill="#abddc6"/>
        <path id="Trazado_1003217" data-name="Trazado 1003217" d="M556.53,164.5a7.129,7.129,0,1,1-7.129-7.129,7.13,7.13,0,0,1,7.129,7.129" transform="translate(-184.109 -53.431)" fill="#d0e1dd"/>
        <path id="Trazado_1003218" data-name="Trazado 1003218" d="M83.921,343.979a7.129,7.129,0,1,1-7.129-7.129,7.13,7.13,0,0,1,7.129,7.129" transform="translate(-23.651 -114.366)" fill="#d0e1dd"/>
        <path id="Trazado_1003219" data-name="Trazado 1003219" d="M326.762,30.856a3.888,3.888,0,1,1-3.888-3.888,3.888,3.888,0,0,1,3.888,3.888" transform="translate(-108.301 -9.156)" fill="#d0e1dd"/>
        <path id="Trazado_1003220" data-name="Trazado 1003220" d="M403.315,301.85a3.887,3.887,0,1,1-3.888-3.888,3.887,3.887,0,0,1,3.888,3.888" transform="translate(-134.292 -101.163)" fill="#d0e1dd"/>
        <path id="Trazado_1003221" data-name="Trazado 1003221" d="M498.806,351.467a3.887,3.887,0,1,1-3.888-3.888,3.887,3.887,0,0,1,3.888,3.888" transform="translate(-166.713 -118.009)" fill="#d0e1dd"/>
        <path id="Trazado_1003222" data-name="Trazado 1003222" d="M468.112,52.959a3.887,3.887,0,1,1-3.888-3.888,3.887,3.887,0,0,1,3.888,3.888" transform="translate(-156.292 -16.66)" fill="#d0e1dd"/>
        <path id="Trazado_1003223" data-name="Trazado 1003223" d="M112.167,298.924a3.887,3.887,0,1,1-3.888-3.888,3.887,3.887,0,0,1,3.888,3.888" transform="translate(-35.443 -100.169)" fill="#abddc6"/>
        <path id="Trazado_1003224" data-name="Trazado 1003224" d="M197.339,76.169a3.252,3.252,0,1,1-3.252-3.252,3.252,3.252,0,0,1,3.252,3.252" transform="translate(-64.791 -24.756)" fill="#abddc6"/>
        <path id="Trazado_1003225" data-name="Trazado 1003225" d="M14.945,201.413a3.252,3.252,0,1,1-3.252-3.252,3.252,3.252,0,0,1,3.252,3.252" transform="translate(-2.866 -67.279)" fill="#d0e1dd"/>
        <path id="Trazado_1003226" data-name="Trazado 1003226" d="M333.667,138.17a9.163,9.163,0,0,1-.194-2.364,7.876,7.876,0,0,1,.723-2.455c.4-.892.926-1.839,1.377-2.9a7.8,7.8,0,0,0,.59-3.2,10.088,10.088,0,0,0-.493-2.6,7.7,7.7,0,0,1-.225-1.721c-.007-.411.075-.626.048-.637s-.153.2-.191.631a6.345,6.345,0,0,0,.114,1.787,10.859,10.859,0,0,1,.408,2.547,7.789,7.789,0,0,1-.591,3.057c-.437,1.032-.958,1.99-1.347,2.907a7.605,7.605,0,0,0-.671,2.571,5.28,5.28,0,0,0,.2,1.78,1.978,1.978,0,0,0,.252.6" transform="translate(-113.128 -41.518)" fill="#212652"/>
        <path id="Trazado_1003227" data-name="Trazado 1003227" d="M331.962,132.4a7.9,7.9,0,0,0-5.086,5.491,12.478,12.478,0,0,1,5.086-5.491" transform="translate(-110.976 -44.948)" fill="#212652"/>
      </g>
    </g>
  </g>
</svg>
