<svg xmlns="http://www.w3.org/2000/svg" xmlns:xlink="http://www.w3.org/1999/xlink" width="96" height="96" viewBox="0 0 96 96">
  <defs>
    <clipPath id="clip-path">
      <rect id="Rectángulo_456523" data-name="Rectángulo 456523" width="58.769" height="64.384" fill="#094959"/>
    </clipPath>
  </defs>
  <g id="Grupo_1191935" data-name="Grupo 1191935" transform="translate(-383.746 -8400.001)">
    <path id="Trazado_997400" data-name="Trazado 997400" d="M48,0A48,48,0,1,1,0,48,48,48,0,0,1,48,0Z" transform="translate(383.746 8400.001)" fill="#a0f7fe"/>
    <g id="Grupo_1192149" data-name="Grupo 1192149" transform="translate(402.362 8415.809)">
      <g id="Grupo_1192148" data-name="Grupo 1192148" clip-path="url(#clip-path)">
        <path id="Trazado_1003608" data-name="Trazado 1003608" d="M105.327,181.654l-24.317,0a1.631,1.631,0,0,1-1.78-1.634l-.015-4.221c-.016-4.5,4.368-5.389,7.785-6.681.94-.355,2.277-1.593,1.513-2.586-.918-1.194-1.984-2.2-2.268-3.81a2.471,2.471,0,0,1-3.136-2.241l-.013-6.39c-.008-4.284,4.287-7.272,8.565-7.278l6.238-.007a1.534,1.534,0,0,1,1.465,1.066c.225.607.008,1.141-.558,1.942a4.568,4.568,0,0,1,4.3,4.487c.1,2.058.079,4.108-.021,6.186a2.472,2.472,0,0,1-3.1,2.222c-.311,1.664-1.5,2.671-2.332,3.935-.625.95.709,2.142,1.5,2.443,2.586.977,7.746,2.244,7.79,5.916l.058,4.841a1.65,1.65,0,0,1-1.672,1.807m-5.573-25.987a1.219,1.219,0,0,0,1.3.12,4.3,4.3,0,0,0-.475-2.955c-1-1.506-3.39-.541-4-1.966a2.1,2.1,0,0,1,.331-2.066l-5.662.057a6.754,6.754,0,0,0-4.97,2.261,5.755,5.755,0,0,0-1.123,4.7c.287.144,1.046.185,1.281-.143,1.61-2.255,2.742-.735,4.247-1.95a3.774,3.774,0,0,1,4.8-.025c1.622,1.3,2.564-.329,4.272,1.97m-1.695,5.965c.15-1.6.006-3.05.047-4.538.038-1.4-1.807-.155-3.707-1.712a1.9,1.9,0,0,0-2.514-.057c-2,1.652-3.861.339-3.794,1.8.073,1.576-.125,3.118.064,4.687a5,5,0,0,0,9.9-.18m-12.013-1.17a13,13,0,0,0-.014-2.37c-.031-.293-.518-.218-.679-.122-.438.26-.283,2.022-.2,2.491.065.366.863.444.893,0m14.987-2.3c-.059-.252-.757-.372-.8-.167-.057.273-.491,3.118.515,2.717.6-.241.4-2.068.285-2.55M96.255,169.5l-.777-1.835a7.969,7.969,0,0,1-4.776.026,10.083,10.083,0,0,1-.808,1.827,3.6,3.6,0,0,0,3.28,1.915,3.3,3.3,0,0,0,3.081-1.933m2.452,10.138a15.393,15.393,0,0,0,.058-1.794,1.018,1.018,0,0,1,1.043-.963c1.326.068.854,1.723,1,2.715l4.159.025c-.2-3.234.937-5.491-2.1-6.94-1.608-.768-3.239-1.233-4.916-1.908a5.7,5.7,0,0,1-9.679-.012l-4.774,1.851c-3.1,1.2-2.177,4.339-2.2,7.032l4.11-.051.059-1.774a1,1,0,0,1,1.068-.934c1.358.105.772,1.784.959,2.748Z" transform="translate(-63.278 -117.273)" fill="#094959"/>
        <path id="Trazado_1003609" data-name="Trazado 1003609" d="M224.494,112.9a8.515,8.515,0,1,1-8.515-8.515,8.515,8.515,0,0,1,8.515,8.515m-2.018,0a6.5,6.5,0,1,0-6.5,6.5,6.5,6.5,0,0,0,6.5-6.5" transform="translate(-165.725 -83.383)" fill="#094959"/>
        <path id="Trazado_1003610" data-name="Trazado 1003610" d="M236.258,153.743c1.832.23,1.882-2.074,3.213-1.046a1,1,0,0,1,.2,1.367,3.8,3.8,0,0,1-3.233,1.712,3.65,3.65,0,0,1-3.2-1.9,1.007,1.007,0,0,1,.3-1.213c1.309-.79,1.341.907,2.725,1.081" transform="translate(-186.238 -121.765)" fill="#094959"/>
        <path id="Trazado_1003611" data-name="Trazado 1003611" d="M260.073,125.3c.1,1.21.285,3.114-.893,3.194a.944.944,0,0,1-1.079-.973l-.01-2.022a1,1,0,1,1,1.982-.2" transform="translate(-206.167 -99.364)" fill="#094959"/>
        <path id="Trazado_1003612" data-name="Trazado 1003612" d="M233.6,125.38c.088,1.212.275,3.144-1.006,3.119a1.014,1.014,0,0,1-.991-1.159l.006-1.837a.987.987,0,0,1,.986-1.108,1.009,1.009,0,0,1,1.006.984" transform="translate(-185.004 -99.369)" fill="#094959"/>
        <path id="Trazado_1003613" data-name="Trazado 1003613" d="M17.032,112.9a8.516,8.516,0,1,1-8.516-8.516,8.516,8.516,0,0,1,8.516,8.516m-2.017,0a6.5,6.5,0,1,0-6.5,6.5,6.5,6.5,0,0,0,6.5-6.5" transform="translate(0 -83.379)" fill="#094959"/>
        <path id="Trazado_1003614" data-name="Trazado 1003614" d="M31.877,155.481c-1.231.746-1.318-1.113-2.842-1.137-1.612-.025-1.764,1.972-2.964,1.112a1.026,1.026,0,0,1-.229-1.468,3.778,3.778,0,0,1,3.195-1.652,3.651,3.651,0,0,1,3.2,1.862,1,1,0,0,1-.355,1.284" transform="translate(-20.474 -121.686)" fill="#094959"/>
        <path id="Trazado_1003615" data-name="Trazado 1003615" d="M47.958,129.49a17.452,17.452,0,0,1-1.547-1.506c-.953-.929.552-2.045,1.383-2.851a1.045,1.045,0,0,1,1.508.021c.813.955-.528,1.669-.6,2.031-.1.52,1.354.976.672,2.074a1,1,0,0,1-1.416.231" transform="translate(-36.83 -99.71)" fill="#094959"/>
        <path id="Trazado_1003616" data-name="Trazado 1003616" d="M24.636,126.577c.807.889-.584,1.922-1.516,2.8a.993.993,0,0,1-1.472-.116c-.73-.937.579-1.66.665-1.966.134-.477-1.322-.966-.753-1.99a.99.99,0,0,1,1.57-.248c.531.494,1.014.975,1.506,1.517" transform="translate(-17.117 -99.674)" fill="#094959"/>
        <path id="Trazado_1003617" data-name="Trazado 1003617" d="M111.1,39.871c-.426.562-.431,1.151-.84,1.434-.533.369-1.091.24-1.69.319a1.924,1.924,0,0,1-2.327-1.681c-2.166-1.627-2.021-.046-3.368-.315a4.906,4.906,0,0,1-2.239-2.2c-.17-.574.2-.943.385-1.561a2.121,2.121,0,0,0-.694-1.786c-.522-.315-1.041-.34-1.3-.675-.431-.552-.317-1.143-.394-1.751a1.981,1.981,0,0,1,1.7-2.383c1.6-2.1.044-2.158.285-3.283a4.979,4.979,0,0,1,2.137-2.277c.616-.237,1.018.22,1.671.366a2.079,2.079,0,0,0,1.788-.745c.289-.547.366-1.058.721-1.3a4.932,4.932,0,0,1,3.276-.05c.438.229.484.83.829,1.4a2.141,2.141,0,0,0,1.656.73c.584-.089.959-.565,1.547-.45a4.942,4.942,0,0,1,2.306,2.14c.471,1.283-1.418,1.418.386,3.483a1.943,1.943,0,0,1,1.623,2.371c-.076.578.052,1.159-.33,1.687-.281.388-.851.42-1.375.771a2.28,2.28,0,0,0-.7,1.633c.088.6.576.972.433,1.606a4.9,4.9,0,0,1-2.146,2.248c-.682.207-1.1-.248-1.742-.385a2.215,2.215,0,0,0-1.6.654m-1.982-.7c.192-1.195,1.14-1.239,1.966-1.614s1.574-.843,2.441-.234a.534.534,0,0,0,.706-.07.577.577,0,0,0,.036-.647c-.748-1.36.05-1.643.554-3.351.376-1.273,1.694-.814,1.715-1.523a.575.575,0,0,0-.438-.582c-1.047-.179-1.242-1.018-1.571-1.866s-.917-1.614-.289-2.5a.558.558,0,0,0-.12-.8.61.61,0,0,0-.656.07c-1.207.707-1.614-.128-3.176-.566-1.494-.419-.808-1.889-1.829-1.711-.557.1-.235,1.256-1.434,1.675a10.209,10.209,0,0,0-1.631.672c-1.265.7-1.841-.7-2.455-.01-.449.5.824,1.138.1,2.4a6.737,6.737,0,0,0-.6,1.438c-.471,1.545-1.923.9-1.772,1.8.122.722,1.35.229,1.748,1.587a11.184,11.184,0,0,0,.726,1.734c.526,1.089-.719,1.7-.125,2.23a.547.547,0,0,0,.683.027c.892-.635,1.674-.046,2.515.261,2.884,1.055,1.336,2.124,2.426,2.027a.583.583,0,0,0,.479-.433" transform="translate(-78.763 -17.36)" fill="#094959"/>
        <path id="Trazado_1003618" data-name="Trazado 1003618" d="M103.111,10.265a1.027,1.027,0,0,1-.671-1.2,1.007,1.007,0,0,1,1.37-.692c.247.078.5.285.692.061a12.3,12.3,0,0,0-22.593,2.355,1.007,1.007,0,0,1-1.226.67.989.989,0,0,1-.7-1.195,14.312,14.312,0,0,1,26.39-2.634c.344-.415.419-.881.7-1.019a1.2,1.2,0,0,1,1.219.06A1.332,1.332,0,0,1,108.507,8l-1.088,2.769a1.072,1.072,0,0,1-1.433.628Z" transform="translate(-63.862 0)" fill="#094959"/>
        <path id="Trazado_1003619" data-name="Trazado 1003619" d="M100.674,86.1c.226-.691.593-1.035,1.2-.955a.989.989,0,0,1,.828,1.222A14.313,14.313,0,0,1,76.3,88.979c-.421.713-.684,1.278-1.365,1.173a.983.983,0,0,1-.821-1.351l1.185-3.04a1.009,1.009,0,0,1,1.288-.567c1.079.394,2.118.769,3.153,1.247a.982.982,0,0,1,.379,1.4c-.361.6-.892.4-1.907.306a12.161,12.161,0,0,0,11.951,6.4,12.4,12.4,0,0,0,10.506-8.45" transform="translate(-59.146 -68.003)" fill="#094959"/>
        <path id="Trazado_1003620" data-name="Trazado 1003620" d="M133.8,51.722a4.879,4.879,0,1,1-4.879-4.879,4.879,4.879,0,0,1,4.879,4.879m-2.018,0a2.863,2.863,0,1,0-2.863,2.863,2.863,2.863,0,0,0,2.863-2.863" transform="translate(-99.083 -37.419)" fill="#094959"/>
      </g>
    </g>
  </g>
</svg>
