<svg xmlns="http://www.w3.org/2000/svg" xmlns:xlink="http://www.w3.org/1999/xlink" width="80" height="80" viewBox="0 0 80 80">
  <defs>
    <clipPath id="clip-path">
      <rect id="Rectángulo_456499" data-name="Rectángulo 456499" width="55.069" height="55.068" fill="#12263f"/>
    </clipPath>
  </defs>
  <g id="Grupo_1179174" data-name="Grupo 1179174" transform="translate(-175.889 -5521)">
    <rect id="Rectángulo_402006" data-name="Rectángulo 402006" width="80" height="80" rx="5" transform="translate(175.889 5521)" fill="#a0f7fe"/>
    <g id="Grupo_1192107" data-name="Grupo 1192107" transform="translate(188.354 5533.466)">
      <g id="Grupo_1192106" data-name="Grupo 1192106" clip-path="url(#clip-path)">
        <path id="Trazado_1003479" data-name="Trazado 1003479" d="M48.261,55.042,34.6,55.068c-1.688,0-3.935-2.139-5.528-2.689L19.835,52.3a3.186,3.186,0,0,1-4.726,1.258A3.287,3.287,0,0,1,12,55.028a3.4,3.4,0,0,1-2.7-2.169,3.208,3.208,0,0,1-4.514-1.818,3.358,3.358,0,0,1-3.139-.1,3.215,3.215,0,0,1-1.62-2.611L0,34.59c0-1.731,2.106-3.894,2.684-5.523l.081-9.243A3.2,3.2,0,0,1,1.5,15.1a3.325,3.325,0,0,1-1.465-3.11,3.3,3.3,0,0,1,2.16-2.671A3.24,3.24,0,0,1,4.024,4.78,3.355,3.355,0,0,1,4.13,1.622a3.187,3.187,0,0,1,2.6-1.6L20.644,0C22.074,0,24.6,2.229,26,2.668l9.243.088a3.175,3.175,0,0,1,4.729-1.243,3.264,3.264,0,0,1,3.1-1.49,3.414,3.414,0,0,1,2.7,2.168,3.212,3.212,0,0,1,4.515,1.824,3.325,3.325,0,0,1,3.24.161,3.263,3.263,0,0,1,1.531,2.711l.013,13.579c0,1.724-2.108,3.894-2.681,5.52l-.081,9.254a3.178,3.178,0,0,1,1.254,4.712,3.232,3.232,0,0,1-.682,5.784,3.241,3.241,0,0,1-1.83,4.538,3.339,3.339,0,0,1-.1,3.137,3.187,3.187,0,0,1-2.685,1.631M14.635,18.39a.883.883,0,0,1,.912.577.9.9,0,0,1-.163.89l-2.527,3.138a1.1,1.1,0,0,0,.238,1.53,1.117,1.117,0,0,0,1.52-.132l8.973-8.884c1.367-1.353,3.1-.6,5-.877a2.945,2.945,0,0,1,1.031-3.208,3.03,3.03,0,0,1,3.364-.183,20.654,20.654,0,0,0,1.876,1.366l.007-7.978L26.337,4.61a3.672,3.672,0,0,1-1.385-.327L20.833,1.848l-13.767,0A1.41,1.41,0,0,0,5.537,3.18,1.389,1.389,0,0,0,6.932,4.6c1.3.058,2.592.023,3.919.01.609-.006,1.026.27,1.058.812a.878.878,0,0,1-.878,1l-6.14.052a1.36,1.36,0,0,0-1.2,1.491A1.4,1.4,0,0,0,5.163,9.175l4.074.02a.886.886,0,0,1,.849,1,.931.931,0,0,1-.958.808l-5.859.006a1.351,1.351,0,0,0-1.4,1.449,1.4,1.4,0,0,0,1.4,1.293l5.864.015a.912.912,0,0,1,.956.934.935.935,0,0,1-.966.9H4.3a1.4,1.4,0,0,0-1.536,1.343,1.448,1.448,0,0,0,1.41,1.412ZM42.441,34.833l8.011.037.024-8.546a3.608,3.608,0,0,1,.244-1.267l2.5-4.233-.01-13.941a1.363,1.363,0,1,0-2.726.031l-.026,4.1a.9.9,0,0,1-1.8,0L48.6,4.883a1.356,1.356,0,0,0-1.492-1.2,1.391,1.391,0,0,0-1.211,1.471l-.008,3.934a.919.919,0,1,1-1.834.039l0-5.866A1.353,1.353,0,0,0,42.6,1.857,1.4,1.4,0,0,0,41.31,3.267L41.3,9.114a.948.948,0,0,1-.938.979.932.932,0,0,1-.9-.98l-.014-4.992A1.348,1.348,0,0,0,38.116,2.76a1.39,1.39,0,0,0-1.373,1.266l-.045,10.6a.954.954,0,0,1-.6.916.858.858,0,0,1-.885-.17L32.074,12.85a1.132,1.132,0,0,0-1.592.312,1.118,1.118,0,0,0,.191,1.441l8.881,8.974c1.361,1.375.594,3.1.88,5.02a3.074,3.074,0,0,1,3.334,1.184,2.958,2.958,0,0,1-.149,3.5,10.842,10.842,0,0,0-1.179,1.554M29.956,38.481l8.586-8.519-.028-4.82-8.538-8.624-4.819.029-8.63,8.539.031,4.824,8.54,8.625ZM13.79,45.842a.885.885,0,0,1,1.057-.858.932.932,0,0,1,.763.955l.014,4.988A1.352,1.352,0,0,0,16.948,52.3a1.4,1.4,0,0,0,1.38-1.268l.046-10.6a.91.91,0,0,1,1.508-.75L23.011,42.2a1.1,1.1,0,0,0,1.58-.311,1.134,1.134,0,0,0-.185-1.444l-8.888-8.972c-1.352-1.365-.607-3.091-.874-4.992a3.014,3.014,0,0,1-3.388-1.225,2.929,2.929,0,0,1,.276-3.577,9.384,9.384,0,0,0,1.085-1.458l-8-.025-.025,8.531a3.056,3.056,0,0,1-.552,1.793L1.855,34.228l.01,13.942a1.363,1.363,0,1,0,2.726-.031l.026-4.1a.858.858,0,0,1,.983-.886.856.856,0,0,1,.817.881l.058,6.135a1.356,1.356,0,0,0,1.492,1.2A1.39,1.39,0,0,0,9.178,49.9l.008-3.934a.918.918,0,1,1,1.831-.034l.006,5.86a1.351,1.351,0,0,0,1.46,1.406,1.4,1.4,0,0,0,1.276-1.41ZM50.111,48.6a1.356,1.356,0,1,0-.2-2.7c-1.335.015-2.617.043-3.932-.012a.958.958,0,0,1-1-.9.929.929,0,0,1,.945-.945l5.876,0a1.357,1.357,0,0,0,.158-2.71l-6.019-.04a.917.917,0,0,1-.959-.939.932.932,0,0,1,.968-.9l4.99-.013a1.347,1.347,0,0,0,1.365-1.33,1.387,1.387,0,0,0-1.264-1.371l-10.6-.039a.931.931,0,0,1-.905-.609.881.881,0,0,1,.161-.889l2.526-3.138a1.1,1.1,0,0,0-.24-1.532,1.12,1.12,0,0,0-1.519.132l-8.884,8.8c-1.506,1.493-3,.662-5.078.97a2.98,2.98,0,0,1-4.61,3.246,10.692,10.692,0,0,0-1.671-1.231l-.008,8,8.364.023a3.086,3.086,0,0,1,1.856.491l3.81,2.243,13.95-.006a1.361,1.361,0,1,0-.032-2.722l-4.107-.024a.844.844,0,0,1-.883-.814c-.022-.4.161-.937.708-.945Z" transform="translate(0 0)" fill="#12263f"/>
      </g>
    </g>
  </g>
</svg>
