<svg xmlns="http://www.w3.org/2000/svg" xmlns:xlink="http://www.w3.org/1999/xlink" width="84" height="84" viewBox="0 0 84 84">
  <defs>
    <clipPath id="clip-path">
      <rect id="Rectángulo_456495" data-name="Rectángulo 456495" width="64.46" height="62.942" fill="#12263f"/>
    </clipPath>
  </defs>
  <g id="Grupo_1179121" data-name="Grupo 1179121" transform="translate(-706 -1685.277)">
    <g id="Grupo_1177731" data-name="Grupo 1177731">
      <g id="Grupo_1119665" data-name="Grupo 1119665" transform="translate(530.111 -3835.723)">
        <path id="Trazado_991847" data-name="Trazado 991847" d="M5,0H79a5,5,0,0,1,5,5V79a5,5,0,0,1-5,5H5a5,5,0,0,1-5-5V5A5,5,0,0,1,5,0Z" transform="translate(175.889 5521)" fill="#a0f7fe"/>
      </g>
      <g id="Grupo_1192099" data-name="Grupo 1192099" transform="translate(715.77 1695.806)">
        <g id="Grupo_1192098" data-name="Grupo 1192098" clip-path="url(#clip-path)">
          <path id="Trazado_1003441" data-name="Trazado 1003441" d="M51.28,86.765a.934.934,0,1,1-.934-.934.934.934,0,0,1,.934.934" transform="translate(-39.457 -68.539)" fill="#12263f"/>
          <path id="Trazado_1003442" data-name="Trazado 1003442" d="M253.759,89.378a.931.931,0,1,1-.931-.931.931.931,0,0,1,.931.931" transform="translate(-201.147 -70.628)" fill="#12263f"/>
          <path id="Trazado_1003443" data-name="Trazado 1003443" d="M275.251,163.519a.932.932,0,1,1-.932-.932.932.932,0,0,1,.932.932" transform="translate(-218.307 -129.83)" fill="#12263f"/>
          <path id="Trazado_1003444" data-name="Trazado 1003444" d="M263.525,106.371a.937.937,0,1,1-.937-.937.937.937,0,0,1,.937.937" transform="translate(-208.936 -84.192)" fill="#12263f"/>
          <path id="Trazado_1003445" data-name="Trazado 1003445" d="M34.158,120.153a.933.933,0,1,1-.933-.933.933.933,0,0,1,.933.933" transform="translate(-25.786 -95.201)" fill="#12263f"/>
          <path id="Trazado_1003446" data-name="Trazado 1003446" d="M63.431,72.384a.933.933,0,1,1-.933-.933.933.933,0,0,1,.933.933" transform="translate(-49.162 -57.056)" fill="#12263f"/>
          <path id="Trazado_1003447" data-name="Trazado 1003447" d="M241.428,74.1a.933.933,0,1,1-.933-.933.933.933,0,0,1,.933.933" transform="translate(-191.298 -58.424)" fill="#12263f"/>
          <path id="Trazado_1003448" data-name="Trazado 1003448" d="M29.608,138.383a.937.937,0,1,1-.937-.937.937.937,0,0,1,.937.937" transform="translate(-22.146 -109.755)" fill="#12263f"/>
          <path id="Trazado_1003449" data-name="Trazado 1003449" d="M41.466,102.775a.934.934,0,1,1-.933-.934.933.933,0,0,1,.933.934" transform="translate(-31.621 -81.323)" fill="#12263f"/>
          <path id="Trazado_1003450" data-name="Trazado 1003450" d="M32.934,194.261a.934.934,0,1,1-.934-.934.934.934,0,0,1,.934.934" transform="translate(-24.807 -154.377)" fill="#12263f"/>
          <path id="Trazado_1003451" data-name="Trazado 1003451" d="M226.848,60.943a.932.932,0,1,1-.932-.932.932.932,0,0,1,.932.932" transform="translate(-179.656 -47.921)" fill="#12263f"/>
          <path id="Trazado_1003452" data-name="Trazado 1003452" d="M274.38,143.947a.93.93,0,1,1-.93-.93.93.93,0,0,1,.93.93" transform="translate(-217.615 -114.203)" fill="#12263f"/>
          <path id="Trazado_1003453" data-name="Trazado 1003453" d="M270.458,124.7a.933.933,0,1,1-.933-.933.933.933,0,0,1,.933.933" transform="translate(-214.479 -98.829)" fill="#12263f"/>
          <path id="Trazado_1003454" data-name="Trazado 1003454" d="M27.891,157.123a.936.936,0,1,1-.935-.935.935.935,0,0,1,.935.935" transform="translate(-20.778 -124.721)" fill="#12263f"/>
          <path id="Trazado_1003455" data-name="Trazado 1003455" d="M28.99,175.892a.93.93,0,1,1-.93-.93.93.93,0,0,1,.93.93" transform="translate(-21.664 -139.712)" fill="#12263f"/>
          <path id="Trazado_1003456" data-name="Trazado 1003456" d="M210.4,50.314a.93.93,0,1,1-.93-.93.93.93,0,0,1,.93.93" transform="translate(-166.524 -39.435)" fill="#12263f"/>
          <path id="Trazado_1003457" data-name="Trazado 1003457" d="M183.427,278.786a.932.932,0,1,1-.932-.932.932.932,0,0,1,.932.932" transform="translate(-144.983 -221.875)" fill="#12263f"/>
          <path id="Trazado_1003458" data-name="Trazado 1003458" d="M127.79,280.626a.931.931,0,1,1-.931-.931.931.931,0,0,1,.931.931" transform="translate(-100.557 -223.345)" fill="#12263f"/>
          <path id="Trazado_1003459" data-name="Trazado 1003459" d="M165.029,282.159a.931.931,0,1,1-.931-.931.931.931,0,0,1,.931.931" transform="translate(-130.294 -224.569)" fill="#12263f"/>
          <path id="Trazado_1003460" data-name="Trazado 1003460" d="M77.6,60.018a.933.933,0,1,1-.933-.933.933.933,0,0,1,.933.933" transform="translate(-60.474 -47.181)" fill="#12263f"/>
          <path id="Trazado_1003461" data-name="Trazado 1003461" d="M93.516,49.926a.933.933,0,1,1-.933-.933.933.933,0,0,1,.933.933" transform="translate(-73.185 -39.122)" fill="#12263f"/>
          <path id="Trazado_1003462" data-name="Trazado 1003462" d="M146.375,282.732a.933.933,0,1,1-.933-.933.933.933,0,0,1,.933.933" transform="translate(-115.394 -225.025)" fill="#12263f"/>
          <path id="Trazado_1003463" data-name="Trazado 1003463" d="M70.165,277.841a.99.99,0,1,1-.99-.99.99.99,0,0,1,.99.99" transform="translate(-54.447 -221.074)" fill="#12263f"/>
          <path id="Trazado_1003464" data-name="Trazado 1003464" d="M201.024,272.585a.935.935,0,1,1-.935-.935.935.935,0,0,1,.935.935" transform="translate(-159.031 -216.92)" fill="#12263f"/>
          <path id="Trazado_1003465" data-name="Trazado 1003465" d="M109.786,275.656a.932.932,0,1,1-.932-.932.932.932,0,0,1,.932.932" transform="translate(-86.178 -219.375)" fill="#12263f"/>
          <path id="Trazado_1003466" data-name="Trazado 1003466" d="M286.66,234.993a.992.992,0,1,1-.992-.992.992.992,0,0,1,.992.992" transform="translate(-227.322 -186.857)" fill="#12263f"/>
          <path id="Trazado_1003467" data-name="Trazado 1003467" d="M42.322,30.671l-.06,6.6a3.222,3.222,0,0,1-1.278,2.472,3.544,3.544,0,0,1-3.184.47c-.256,2.162.41,3.152-1.408,4.76-.926.82-2.268.468-3.212.443a5.334,5.334,0,0,1-2.3,2.412c-2.881,1.934-3.955,5.312-7.919,5.6a3.244,3.244,0,0,0-2.528,1.645c.455.943.763,1.96-.065,2.786l-4.626,4.616a1.94,1.94,0,0,1-2.49.031l-8.472-8.45a.938.938,0,0,1-.044-1.261A.912.912,0,0,1,6.1,52.73l8.347,8.349,4.581-4.615L6.445,43.871,1.906,48.381c.414.95,2.465,1.817,1.564,2.934-.847,1.049-2.009-.614-2.829-1.4a1.986,1.986,0,0,1-.094-2.828L4.97,42.645a2.107,2.107,0,0,1,2.963.008c2.978-2.315-.238-6.19,2.962-9.4l4.319-4.334A5.483,5.483,0,0,1,18.461,27.4a8.029,8.029,0,0,1-.519-2.815l.015-5.448a5.526,5.526,0,0,1,1.65-3.956l1.712-1.713a3.923,3.923,0,0,0,1.23-3.19A2.159,2.159,0,0,1,20.4,8.067l.03-6.229A1.881,1.881,0,0,1,22.151,0L40.485.029c.965,0,1.578,1.173,1.582,1.958L42.1,8.04c.007,1.386-.977,1.809-1.9,2.362-.905,2.79,2.072,3.054,2.073,6.724l0,10.463c0,.273.309.787.608.612a5.232,5.232,0,0,1,6.48.81l4.13,4.13A7.009,7.009,0,0,1,55.2,36.622c.634.07,1.175.29,1.306.8.229.9-.668.8-1.108,1.246-.737.891-.013,3.422,1.123,3.815.818-.169,1.918-.889,2.776-.032l4.532,4.523a2.027,2.027,0,0,1-.012,2.958L51.448,62.314a1.978,1.978,0,0,1-2.719.15L44.1,57.843a2.069,2.069,0,0,1,.048-2.823c-2.12-2.634-3.946-.774-6.248-3.082l-3.314-3.322a.941.941,0,0,1,.141-1.274.957.957,0,0,1,1.281.073l3.126,3.1c1.725,1.712,3.631.094,6.4,3.175l9.636-9.642A6.265,6.265,0,0,1,53.2,39.5l-.014-2.829a3.039,3.039,0,0,0-.951-2.075L47.7,30.084a2.933,2.933,0,0,0-3.526-.368l2.383,2.479a.917.917,0,0,1,.025,1.182.943.943,0,0,1-1.31.134ZM31.285,44.6l-.008-17.791a.956.956,0,0,1,1.057-1.083c.532.032.85.435.85,1.081V42.3a1.293,1.293,0,0,0,1.342,1.378A1.335,1.335,0,0,0,35.813,42.3l0-15.507a.965.965,0,1,1,1.922.011l-.008,10.26a1.333,1.333,0,1,0,2.658,0V17.143c0-2.678-2.489-2.668-2.3-6.893l-7.261-.036a.929.929,0,0,1-.962-.866.9.9,0,0,1,.83-.987l9.441-.047-.01-6.484-17.77,0-.007,6.455c1.636.372,5.052-.724,4.915,1.091-.1,1.3-1.859.664-2.824.921.287,4.657-4.527,5.562-4.532,8.424L19.9,25.2a2.91,2.91,0,0,0,2.243,2.909L22.2,24.78a.926.926,0,0,1,.9-.921.9.9,0,0,1,.946.918l.028,17.6a1.322,1.322,0,0,0,1.373,1.306A1.351,1.351,0,0,0,26.732,42.3L26.726,26.8a1,1,0,0,1,.967-1.105,1.017,1.017,0,0,1,.957,1.094l.009,17.894a1.3,1.3,0,0,0,1.276,1.258,1.328,1.328,0,0,0,1.35-1.34M25.426,50.42c1.005-1.024,1.994-1.915,2.912-2.98a4.071,4.071,0,0,1-1.566-2.124,3.275,3.275,0,0,1-4.592-3.21L22.174,30.68c-1.254.665-3.136,4.1-4.287,2.7a.919.919,0,0,1,.026-1.183l2.4-2.478a3.085,3.085,0,0,0-3.764.545l-4.324,4.333a3.026,3.026,0,0,0-.953,2.075L11.253,39.7a5.9,5.9,0,0,1-1.959,4.328l9.636,9.681c2.853-3.181,4.607-1.363,6.5-3.287m32.607-6.576L45.392,56.507,50,61.107,62.641,48.444Z" transform="translate(0 0)" fill="#12263f"/>
          <path id="Trazado_1003468" data-name="Trazado 1003468" d="M123.164,21.31a.993.993,0,1,1-.993-.993.993.993,0,0,1,.993.993" transform="translate(-96.764 -16.224)" fill="#12263f"/>
        </g>
      </g>
    </g>
  </g>
</svg>
