<svg xmlns="http://www.w3.org/2000/svg" xmlns:xlink="http://www.w3.org/1999/xlink" width="96" height="96" viewBox="0 0 96 96">
  <defs>
    <clipPath id="clip-path">
      <rect id="Rectángulo_456524" data-name="Rectángulo 456524" width="60.686" height="60.357" fill="#094959"/>
    </clipPath>
  </defs>
  <g id="Grupo_1191936" data-name="Grupo 1191936" transform="translate(-383.746 -8400.001)">
    <path id="Trazado_997400" data-name="Trazado 997400" d="M48,0A48,48,0,1,1,0,48,48,48,0,0,1,48,0Z" transform="translate(383.746 8400.001)" fill="#a0f7fe"/>
    <g id="Grupo_1192151" data-name="Grupo 1192151" transform="translate(401.403 8417.822)">
      <g id="Grupo_1192150" data-name="Grupo 1192150" clip-path="url(#clip-path)">
        <path id="Trazado_1003621" data-name="Trazado 1003621" d="M47.243,60.356h-26.1a1.036,1.036,0,0,1-1.014-1.215c.431-2.8.543-5.573,1.14-8.323.147-.68,1.258-.458,1.837-.531.33-3.7-.625-3.361-2.412-6.668a14.082,14.082,0,1,1-1.613-25.6l.04-4.145a3.9,3.9,0,0,1,1.915-3.23,4.153,4.153,0,0,1,4.069-.09l.063-1.9a3.813,3.813,0,0,1,1.907-3.042,4.141,4.141,0,0,1,4.052-.094A8.737,8.737,0,0,0,31.172,4a4.024,4.024,0,0,1,8.047,0,9.362,9.362,0,0,0,.047,1.509,4.169,4.169,0,0,1,4.059.1A4.025,4.025,0,0,1,45.25,9.06l.013,22.335,6.152-7.318c1.924-2.288,4.986-1.928,7.279-.318,1.477,1.038,2.777,2.844,1.421,4.6L45.267,47.626a20.921,20.921,0,0,0,.039,2.692c.649-.03,1.765-.151,1.867.631l1.075,8.194a1.03,1.03,0,0,1-1.005,1.213m10.283-34.91c-1.336-1.015-3.3-1.531-4.479-.143L44.756,35.06a8.317,8.317,0,0,1-2.9.125A4.124,4.124,0,0,0,37.213,39.2a7.175,7.175,0,0,1-1.994-.046,6.008,6.008,0,0,1,6.2-5.966,10.512,10.512,0,0,0,1.829-.032L43.218,8.871a1.954,1.954,0,0,0-2.072-1.823,1.975,1.975,0,0,0-1.92,2.007l-.008,20.08a8.88,8.88,0,0,1-2.009,0l-.01-25.1a2.005,2.005,0,1,0-4.011,0l-.006,25.1a8.935,8.935,0,0,1-2.014,0L31.18,9.255a2.029,2.029,0,1,0-4.042-.006l.006,16.685a14.121,14.121,0,0,1-4.73,16.6c2.291,4.317,2.874,2.884,2.751,7.768l18.05.006.084-3.43L58.421,27.3c.649-.84-.274-1.384-.9-1.856m-32.44-3.115.057-8.266a2.042,2.042,0,0,0-2.113-1.987,2.011,2.011,0,0,0-1.907,1.986l-.015,4.911a18.4,18.4,0,0,1,3.979,3.356m1.048,8.847A12.064,12.064,0,1,0,14.07,43.242,12.064,12.064,0,0,0,26.134,31.178M46.111,58.332l-.768-6.023L23,52.318l-.727,6.029Z" transform="translate(0 0)" fill="#094959"/>
        <path id="Trazado_1003622" data-name="Trazado 1003622" d="M39.208,128.426a1.013,1.013,0,0,1-1.441.12l-2.907-2.83-2.778,2.724a1.056,1.056,0,0,1-1.513.035l-4.3-4.322a1,1,0,0,1,.106-1.4l2.74-2.791-2.737-2.787a1.031,1.031,0,0,1-.023-1.506l4.217-4.214a1.053,1.053,0,0,1,1.513.033l2.777,2.724,2.777-2.723a1.053,1.053,0,0,1,1.513-.036l4.222,4.218a.961.961,0,0,1,.144,1.274l-2.9,3.02,2.731,2.782a1.033,1.033,0,0,1,.024,1.508Zm-.722-2.123,2.722-2.76c-.82-1.353-3.964-3.02-2.8-4.259.931-.991,1.9-1.833,2.8-2.9l-2.769-2.77c-1.021.875-1.856,1.8-2.792,2.711-1.367,1.334-2.886-1.781-4.368-2.711l-2.772,2.772c.828,1.345,3.964,3.015,2.8,4.262-.922.989-1.9,1.832-2.8,2.9l2.77,2.766c1.067-.894,1.907-1.871,2.9-2.8,1.264-1.187,2.914,2.056,4.308,2.791" transform="translate(-20.79 -88.79)" fill="#094959"/>
      </g>
    </g>
  </g>
</svg>
