<svg xmlns="http://www.w3.org/2000/svg" xmlns:xlink="http://www.w3.org/1999/xlink" width="150" height="150" viewBox="0 0 150 150">
  <defs>
    <clipPath id="clip-path">
      <rect id="Rectángulo_456508" data-name="Rectángulo 456508" width="88.064" height="87.951" fill="#15342f"/>
    </clipPath>
  </defs>
  <g id="Grupo_1179239" data-name="Grupo 1179239" transform="translate(-383.746 -8400)">
    <circle id="Elipse_13609" data-name="Elipse 13609" cx="75" cy="75" r="75" transform="translate(383.746 8400)" fill="#fff"/>
    <g id="Grupo_1192119" data-name="Grupo 1192119" transform="translate(414.714 8431.024)">
      <g id="Grupo_1192118" data-name="Grupo 1192118" clip-path="url(#clip-path)">
        <path id="Trazado_1003496" data-name="Trazado 1003496" d="M59.184,68.592c2.245.095,4.429.128,6.557.008a2.38,2.38,0,0,0,1.6-1.525c.4-3.763-.757-7.856,1.326-7.9,2.226-.047.891,3.629,1.455,5.315l8.827-8.721a5.387,5.387,0,0,1,7.607.256,5.481,5.481,0,0,1-.184,7.73L72.083,78.031a8.1,8.1,0,0,1-3.523,2.062L48.829,86.168a18.192,18.192,0,0,1-6.993.437c-.891-.07-1.4-.525-1.434-1.229-.1-2.512,3.693-.454,7.4-1.6L68.01,77.557A5.655,5.655,0,0,0,70.4,76.073L84.547,61.932a2.873,2.873,0,0,0-3.788-4.321L67.093,71.2l-27.058.045-1.28,1.3a1.331,1.331,0,0,1-1.9.2c-1.438-1.315,1.059-2.96,2.231-4.043l15.383-.042A2.832,2.832,0,0,0,57.3,66.088c.134-1.3-.692-3.047-2.267-3.066l-14-.165a8.294,8.294,0,0,1-2.514-1.821c-5.642-5.043-13.444-4.19-18.526,1.375l-.028,20.212,15.509.988a1.344,1.344,0,0,1,1.4,1c.133.512-.185,1.529-.993,1.532-6.981.02-14.843-1.351-22.165-.914-.037.712.173,2.432-.767,2.53-3.827.4-7.663.024-11.56.17A1.329,1.329,0,0,1,0,86.6L0,58.846a1.356,1.356,0,0,1,1.374-1.329c3.84.081,7.589-.166,11.4.111,1.06.077.933,1.715.929,2.55a19.671,19.671,0,0,0,4.358.044V53.864a7.867,7.867,0,0,1,6.092-7.882,8.438,8.438,0,0,1-2.016-7.726,8.64,8.64,0,0,1,4.582-5.565A20.936,20.936,0,0,1,53.31,2.164a1.335,1.335,0,0,1,.757,1.643,1.28,1.28,0,0,1-1.748.743A18.378,18.378,0,0,0,29.858,9.285c-5.283,6.322-5.667,16.192-.358,22.642,2.823.311,6.067.986,7.487,3.872a12.115,12.115,0,0,1,2.834-2.645l-.965-3.135c-1.829.069-4.34,1.538-5.845-.888-.56-.9-1.074-1.822-1.594-2.764-1.358-2.464,1.007-3.856,2.153-5.435-1.292-1.785-3.578-3.025-2.041-5.686l1.328-2.3A3,3,0,0,1,36,11.313l2.773.587c.814-1.638.825-4.561,3.6-4.578L45.419,7.3c3.1-.019,2.965,2.687,3.881,4.6l2.779-.586A2.892,2.892,0,0,1,55.1,12.779l1.526,2.652c1.4,2.431-.953,3.883-2.133,5.5,1.163,1.6,3.5,2.958,2.153,5.45-.512.945-1.041,1.853-1.594,2.756-1.393,2.272-3.792,1.143-5.768.829a20.793,20.793,0,0,0-1.043,3.191,11.937,11.937,0,0,1,2.827,2.638c1.48-2.843,4.618-3.577,7.517-3.859A18.138,18.138,0,0,0,56.733,7.715c-.524-.483-.192-1.259.006-1.6a1.3,1.3,0,0,1,1.785-.263,20.88,20.88,0,0,1,2.83,26.837,8.705,8.705,0,0,1,4.57,5.543,8.463,8.463,0,0,1-2.009,7.756,7.756,7.756,0,0,1,6.078,8.168c-.054.907-.425,1.548-1.327,1.526a1.364,1.364,0,0,1-1.243-1.539,5.078,5.078,0,0,0-5.013-5.657c-2.714-.027-5.287-.093-8.049.058a9.276,9.276,0,0,1,1.773,5.877l-.02,6.12a5.554,5.554,0,0,1,3.069,8.052M45.774,31.663c1.183-1.378.687-4.811,2.941-4.49a38.54,38.54,0,0,0,4.026.774,29.943,29.943,0,0,0,1.725-3.013,29.884,29.884,0,0,0-2.547-2.9c-1.623-1.806,1.553-3.386,2.549-5.06-.566-.955-.98-2.432-1.915-3.008-1.986-.217-4.533,1.943-5.492-.309-.477-1.12-.561-2.642-1.306-3.637a5.935,5.935,0,0,0-3.444-.01c-1.188,1.531-.655,5.293-3.362,4.628a19.648,19.648,0,0,0-3.625-.734,21.478,21.478,0,0,0-1.71,3.08c1.084,1.784,4.287,3.264,2.414,5.207a24.529,24.529,0,0,0-2.419,2.73,27.548,27.548,0,0,0,1.722,3.013l4.256-.769c1.881-.34,1.8,3.795,2.71,4.552.639.579,2.9.616,3.477-.058m-9.993,8.586a5.65,5.65,0,1,0-5.65,5.65,5.65,5.65,0,0,0,5.65-5.65m13.908,0A5.654,5.654,0,1,0,44.035,45.9a5.654,5.654,0,0,0,5.654-5.654m13.9,0A5.651,5.651,0,1,0,57.939,45.9a5.651,5.651,0,0,0,5.651-5.651M32,55.194a9.224,9.224,0,0,1,1.7-6.679l-7.8-.049a5.029,5.029,0,0,0-5.236,5.114c.019,1.58-.089,3.038.062,4.737A15.42,15.42,0,0,1,32,55.194m21.476,5.055.031-6.679A4.912,4.912,0,0,0,48.652,48.5H39.428a4.922,4.922,0,0,0-4.863,5.348,9.123,9.123,0,0,0,.11,2.008,19.194,19.194,0,0,1,6.891,4.4Zm-42.353-.1H2.561v25.2h8.56Zm6.22,2.779H13.7V82.564h3.645Z" transform="translate(0 0)" fill="#15342f"/>
        <path id="Trazado_1003497" data-name="Trazado 1003497" d="M153.356,65.334a4.062,4.062,0,1,1-4.062-4.062,4.061,4.061,0,0,1,4.062,4.062m-2.593-.01a1.468,1.468,0,1,0-1.468,1.468,1.468,1.468,0,0,0,1.468-1.468" transform="translate(-105.26 -44.408)" fill="#15342f"/>
        <path id="Trazado_1003498" data-name="Trazado 1003498" d="M22.636,230.306a1.37,1.37,0,1,1-1.37-1.37,1.37,1.37,0,0,1,1.37,1.37" transform="translate(-14.42 -165.924)" fill="#15342f"/>
        <path id="Trazado_1003499" data-name="Trazado 1003499" d="M22.635,250.517a1.37,1.37,0,1,1-1.37-1.37,1.37,1.37,0,0,1,1.37,1.37" transform="translate(-14.418 -180.573)" fill="#15342f"/>
      </g>
    </g>
  </g>
</svg>
