<svg xmlns="http://www.w3.org/2000/svg" xmlns:xlink="http://www.w3.org/1999/xlink" width="96" height="96" viewBox="0 0 96 96">
  <defs>
    <clipPath id="clip-path">
      <rect id="Rectángulo_456525" data-name="Rectángulo 456525" width="54.761" height="54.759" fill="#094959"/>
    </clipPath>
  </defs>
  <g id="Grupo_1191937" data-name="Grupo 1191937" transform="translate(-383.746 -8400.001)">
    <path id="Trazado_997400" data-name="Trazado 997400" d="M48,0A48,48,0,1,1,0,48,48,48,0,0,1,48,0Z" transform="translate(383.746 8400.001)" fill="#a0f7fe"/>
    <g id="Grupo_1192153" data-name="Grupo 1192153" transform="translate(404.366 8420.621)">
      <g id="Grupo_1192152" data-name="Grupo 1192152" clip-path="url(#clip-path)">
        <path id="Trazado_1003623" data-name="Trazado 1003623" d="M38.938,18.921l-23.087-.039L13.89,27.326a15.293,15.293,0,0,0,1.971.053,3.834,3.834,0,0,1,3.957,4.345,1.606,1.606,0,0,1-.233.981,1.192,1.192,0,0,1-.89.334l-6.164.035L9.692,45.287l5.4.024,0,1.894-7.752-.039,1.033-4.59a12.562,12.562,0,0,0-2.158-.111,6.526,6.526,0,0,1-6.187-6.4L0,26.988a5.681,5.681,0,0,1,1.568-3.881,5.246,5.246,0,0,1,.105-7.574A5.2,5.2,0,1,1,8.058,23.7l3.828,3.76,2.469-10.435,5.456-.034.011-4.351c.007-2.836,2.932-2.887,4.791-4.065a4.726,4.726,0,1,1,5.513.031c2.269,1.253,4.812,1.229,4.811,4.227l0,4.157,5.457.031,2.471,10.43L46.692,23.7a5.2,5.2,0,1,1,6.495-.637,6.2,6.2,0,0,1,1.574,4.117l0,8.5a6.56,6.56,0,0,1-6.232,6.786l-2.123.063,1.009,4.643-7.731.041a12.073,12.073,0,0,1-.022-1.9l5.395-.024L42.216,33.073l-6.164-.033a1.209,1.209,0,0,1-.889-.335c-.235-.265-.2-.609-.234-.982a3.829,3.829,0,0,1,3.955-4.342,16.63,16.63,0,0,0,1.965-.053ZM30.2,4.714a2.827,2.827,0,1,0-2.827,2.827A2.827,2.827,0,0,0,30.2,4.714m2.833,12.275,0-4.348a1.05,1.05,0,0,0-.676-.992L27.379,9.529l-5.238,2.256a.948.948,0,0,0-.428.852L21.722,17ZM8.483,19.344a3.294,3.294,0,1,0-3.294,3.294,3.294,3.294,0,0,0,3.294-3.294m44.37,0a3.294,3.294,0,1,0-3.294,3.294,3.294,3.294,0,0,0,3.294-3.294m-45.28,9.6,2.3,2.2,8.019-.019a1.735,1.735,0,0,0-1.661-1.832l-5.271-.056-4.8-4.667c-.888-.19-2.073.113-2.956-.452a4.141,4.141,0,0,0-1.318,3.06l.013,8.695a4.656,4.656,0,0,0,3.831,4.614,12.547,12.547,0,0,0,3.131.056l.832-3.713L7.546,36.8ZM47.206,36.8l-2.144.033.832,3.712a13.085,13.085,0,0,0,2.066.046,4.709,4.709,0,0,0,4.893-4.723l.005-8.88a4.1,4.1,0,0,0-1.3-2.867c-.9.552-2.075.253-2.965.446L43.8,29.239l-5.109.031a1.8,1.8,0,0,0-1.84,1.858l8.029.014,2.294-2.2ZM10.549,33.106a2.7,2.7,0,0,0-1.107-.052V34.88c.962.506.982-1.256,1.107-1.774m34.763,1.731L45.3,33.054a1.939,1.939,0,0,0-1.139.1l.441,1.714a.728.728,0,0,0,.706-.032" transform="translate(0 -0.001)" fill="#094959"/>
        <path id="Trazado_1003624" data-name="Trazado 1003624" d="M110.77,172.373,90,172.386l.005-9.268a4.635,4.635,0,0,1,2.142-3.893l4.027-2.493a6.611,6.611,0,1,1,8.37.02l3.952,2.4a4.647,4.647,0,0,1,2.259,3.965ZM105.078,151.6a4.714,4.714,0,1,0-4.714,4.714,4.714,4.714,0,0,0,4.714-4.714m3.8,18.885,0-7.368a2.875,2.875,0,0,0-1.387-2.366l-4.863-2.907a7.179,7.179,0,0,1-4.5-.016l-4.939,2.977a2.912,2.912,0,0,0-1.3,2.5l.008,7.193Z" transform="translate(-73.009 -117.627)" fill="#094959"/>
      </g>
    </g>
  </g>
</svg>
