<svg xmlns="http://www.w3.org/2000/svg" xmlns:xlink="http://www.w3.org/1999/xlink" width="150" height="150" viewBox="0 0 150 150">
  <defs>
    <clipPath id="clip-path">
      <rect id="Rectángulo_456509" data-name="Rectángulo 456509" width="91.34" height="82.342" fill="#15342f"/>
    </clipPath>
  </defs>
  <g id="Grupo_1179240" data-name="Grupo 1179240" transform="translate(-383.746 -8400)">
    <circle id="Elipse_13609" data-name="Elipse 13609" cx="75" cy="75" r="75" transform="translate(383.746 8400)" fill="#fff"/>
    <g id="Grupo_1192121" data-name="Grupo 1192121" transform="translate(413.076 8433.829)">
      <g id="Grupo_1192120" data-name="Grupo 1192120" clip-path="url(#clip-path)">
        <path id="Trazado_1003500" data-name="Trazado 1003500" d="M39.42,29.629l-.045,15.825c0,.938-.535,1.487-1.256,1.5-.871.016-1.375-.566-1.378-1.5L36.7,33.019a2.5,2.5,0,0,0-2.57-2.456,2.528,2.528,0,0,0-2.5,2.636L31.61,57.428a10.532,10.532,0,0,0,5.269,9.13l.229,3.7,20.356-.053c.078-1.1-.262-2.319.32-2.984a17.972,17.972,0,0,0,4.908-3.889,1.462,1.462,0,0,1,1.969-.192c1.866,1.654-3.157,4.8-4.353,5.758-.178.674-.374,2.088.127,2.555a6.3,6.3,0,0,1,1.943,6.806,5.952,5.952,0,0,1-5.563,4.073L37.7,82.343a6.067,6.067,0,0,1-5.627-4.013c-.991-2.679.079-5.166,2.092-7.034.5-.823.067-2.277.1-3.3A12.762,12.762,0,0,1,28.93,57.729l-.05-15.107A21.964,21.964,0,0,0,25.6,40.766a17.573,17.573,0,0,0,.611,2.742A5.907,5.907,0,0,1,14.649,45.92L11.157,32.884l-.556-3.57A2.52,2.52,0,0,0,8.386,28.1a6.325,6.325,0,0,1-6.749-1.594,5.943,5.943,0,0,1-.892-6.942l5.7-9.893a1.325,1.325,0,0,1,2.268,1.366L3.195,20.607A3.41,3.41,0,1,0,9.11,24l9.458-16.49A3.326,3.326,0,0,0,17.174,3.1a3.393,3.393,0,0,0-4.589,1.261l-1.162,2a1.347,1.347,0,0,1-1.644.653A1.306,1.306,0,0,1,9.067,5.1l1.149-1.991A6.073,6.073,0,0,1,16.852.145a6.169,6.169,0,0,1,4.75,5.4L24.4,7.2a13.147,13.147,0,0,1,12.074.719L48.324,14.75a2.591,2.591,0,0,0,1.749-1,11.276,11.276,0,0,0-2.227-.713A5.9,5.9,0,0,1,43.76,5.7a6.037,6.037,0,0,1,7.654-3.946L63.543,5.023a24.185,24.185,0,0,1,4.116,1.59c.689-.049,1.407-.795,2.1-1.122A6.116,6.116,0,0,1,81.277,3.306L90.525,19.37a6.031,6.031,0,0,1-.8,7.133c-1.769,1.954-4.324,2.334-6.985,1.572-.827-.043-2.275,1.016-2.894,1.669a12.637,12.637,0,0,1-5.751,9.278l-11.35,6.653.041,4.488c.941-.442,1.409-1.293,2.212-1.948a5.89,5.89,0,0,1,7.887,8.734l-4.43,4.409a1.324,1.324,0,0,1-1.754.019,1.309,1.309,0,0,1-.205-1.728l4.62-4.74a3.133,3.133,0,0,0-.227-4.53,3.193,3.193,0,0,0-4.451.143l-4.289,4.241c-.319.315-1.04.216-1.387.082a1.216,1.216,0,0,1-.694-1.169l-.03-23.907a2.557,2.557,0,0,0-2.514-2.557,2.531,2.531,0,0,0-2.555,2.438l-.027,15.809a1.357,1.357,0,0,1-1.151,1.482,1.332,1.332,0,0,1-1.521-1.271l-.022-17.625a2.526,2.526,0,1,0-5.046-.227l-.035,17.639a1.345,1.345,0,0,1-1.339,1.491,1.32,1.32,0,0,1-1.312-1.483L44.5,29.79a2.58,2.58,0,0,0-2.4-2.57,2.5,2.5,0,0,0-2.674,2.41M88.114,20.5,78.778,4.375A3.391,3.391,0,0,0,74.171,3.11a3.315,3.315,0,0,0-1.382,4.4L82.248,24A3.416,3.416,0,1,0,88.114,20.5M71.687,37.387a10.419,10.419,0,0,0,5.5-8.376c.076-1.965,2.017-1.672,3.117-3.051L70.112,8.376c-3.7,2.446-2.116.608-7.42-.806l-12.377-3.3a3.188,3.188,0,0,0-4,2.314,3.227,3.227,0,0,0,2.4,3.925l5.59,1.514a1.216,1.216,0,0,1,.862,1.332c-.034,1.339-2.5,1.884-3.915,3.051L57.213,19.9a5.479,5.479,0,0,1,2.75,5.245,5.373,5.373,0,0,1,2.766,4.892l.044,12.427ZM45.111,25.34c-.945-1.7-5.433-2.209-4.343-4.368a1.291,1.291,0,0,1,1.684-.546L47.393,23.2a5.291,5.291,0,0,1,6.932,2.264,13.121,13.121,0,0,1,2.931-1.013,2.466,2.466,0,0,0-1.1-2.051L34.877,10.1a10.3,10.3,0,0,0-10.383.028c-1.275-.291-2.1-1.186-3.367-1.63L10.979,26.174c.906.683,1.987.816,2.314,1.679.41,1.083-.038,2.318.266,3.467l3.7,13.948a3.213,3.213,0,0,0,3.982,2.458,3.155,3.155,0,0,0,2.3-3.819l-1.477-5.643a1.313,1.313,0,0,1,1.884-1.6l4.893,2.7.066-6.172a5.557,5.557,0,0,1,2.439-4.506c1.626-1.145,3.584-.823,5.365-.277.772-1.354,1.813-3.05,3.212-3.507a7.113,7.113,0,0,1,5.187.437M56.653,79.668A3.388,3.388,0,0,0,56.8,72.9l-19.107-.006a3.356,3.356,0,0,0-3.281,3.522A3.416,3.416,0,0,0,37.983,79.7Z" transform="translate(0 -0.001)" fill="#15342f"/>
      </g>
    </g>
  </g>
</svg>
