<svg xmlns="http://www.w3.org/2000/svg" xmlns:xlink="http://www.w3.org/1999/xlink" width="96" height="96" viewBox="0 0 96 96">
  <defs>
    <clipPath id="clip-path">
      <rect id="Rectángulo_456526" data-name="Rectángulo 456526" width="49.779" height="49.814" fill="#094959"/>
    </clipPath>
  </defs>
  <g id="Grupo_1191938" data-name="Grupo 1191938" transform="translate(-383.746 -8400.001)">
    <path id="Trazado_997400" data-name="Trazado 997400" d="M48,0A48,48,0,1,1,0,48,48,48,0,0,1,48,0Z" transform="translate(383.746 8400.001)" fill="#a0f7fe"/>
    <g id="Grupo_1192155" data-name="Grupo 1192155" transform="translate(406.856 8423.094)">
      <g id="Grupo_1192154" data-name="Grupo 1192154" clip-path="url(#clip-path)">
        <path id="Trazado_1003625" data-name="Trazado 1003625" d="M126.167,4.037c-.685.231-1.908.556-2.041-.3a.716.716,0,0,1,.579-.849c.692-.165,1.775-.566,1.969.276a.708.708,0,0,1-.506.87" transform="translate(-104.809 -2.237)" fill="#094959"/>
        <path id="Trazado_1003626" data-name="Trazado 1003626" d="M30.288,121.126a.668.668,0,0,1-.78.457c-.734-.173-.659-1.081-.566-1.9a.7.7,0,0,1,.661-.674.663.663,0,0,1,.767.541,4.19,4.19,0,0,1-.083,1.579" transform="translate(-24.392 -100.493)" fill="#094959"/>
        <path id="Trazado_1003627" data-name="Trazado 1003627" d="M181.252,4.271c-.451.058-2.294-.079-2.038-1.112.238-.957,2.417-.407,2.555.316a.66.66,0,0,1-.518.8" transform="translate(-151.317 -2.236)" fill="#094959"/>
        <path id="Trazado_1003628" data-name="Trazado 1003628" d="M34,92.385c-.112.82-.321,1.85-1.144,1.68-.876-.181-.452-1.428-.211-2.094A.709.709,0,0,1,34,92.385" transform="translate(-27.296 -77.269)" fill="#094959"/>
        <path id="Trazado_1003629" data-name="Trazado 1003629" d="M278.259,91.915c.257.712.649,1.864-.214,2.077a.69.69,0,0,1-.862-.523c-.247-.766-.583-1.737.188-2a.709.709,0,0,1,.888.445" transform="translate(-233.823 -77.213)" fill="#094959"/>
        <path id="Trazado_1003630" data-name="Trazado 1003630" d="M282.778,119.549c.075.85.208,1.83-.662,1.886s-.824-1.085-.79-1.883a.686.686,0,0,1,.639-.7.709.709,0,0,1,.813.694" transform="translate(-237.555 -100.365)" fill="#094959"/>
        <path id="Trazado_1003631" data-name="Trazado 1003631" d="M271.265,175.325a.746.746,0,0,1-.909.323c-.842-.279-.209-1.473.111-2.083a.71.71,0,0,1,.915-.322c.855.318.173,1.483-.118,2.081" transform="translate(-227.949 -146.25)" fill="#094959"/>
        <path id="Trazado_1003632" data-name="Trazado 1003632" d="M52.048,199.925a4.474,4.474,0,0,1-.9-1.169.7.7,0,0,1,.285-.985.718.718,0,0,1,.927.221c.463.651,1.12,1.247.649,1.828a.7.7,0,0,1-.963.105" transform="translate(-43.107 -166.936)" fill="#094959"/>
        <path id="Trazado_1003633" data-name="Trazado 1003633" d="M257.362,198.726c-.357.661-1,1.628-1.7,1.191a.734.734,0,0,1-.178-1.042l.661-.918a.727.727,0,0,1,.935-.226.707.707,0,0,1,.285.995" transform="translate(-215.621 -166.904)" fill="#094959"/>
        <path id="Trazado_1003634" data-name="Trazado 1003634" d="M77.19,25.767c-.519.431-1.406,1.342-1.959.65a.755.755,0,0,1,.051-.969c.527-.488,1.4-1.312,1.941-.73a.728.728,0,0,1-.033,1.049" transform="translate(-63.401 -20.704)" fill="#094959"/>
        <path id="Trazado_1003635" data-name="Trazado 1003635" d="M231.113,26.507c-.79-.458-1.6-1.074-1.153-1.76.5-.766,1.512.167,2.021.648a.762.762,0,0,1,.1.879.722.722,0,0,1-.971.232" transform="translate(-194.082 -20.652)" fill="#094959"/>
        <path id="Trazado_1003636" data-name="Trazado 1003636" d="M42.552,67.967a.74.74,0,0,1-.966.422.706.706,0,0,1-.392-.93,7.139,7.139,0,0,1,.622-1.2.745.745,0,0,1,1.008-.162.716.716,0,0,1,.222.9Z" transform="translate(-34.738 -55.712)" fill="#094959"/>
        <path id="Trazado_1003637" data-name="Trazado 1003637" d="M268.07,67.45a.684.684,0,0,1-.415.922.718.718,0,0,1-.9-.364l-.479-.92a.8.8,0,0,1,.028-.874.761.761,0,0,1,1.011-.105,3.727,3.727,0,0,1,.759,1.341" transform="translate(-224.757 -55.701)" fill="#094959"/>
        <path id="Trazado_1003638" data-name="Trazado 1003638" d="M238.14,219.942c-.5.5-1.343,1.383-1.9.735a.721.721,0,0,1,.062-1.032c.527-.464,1.247-1.37,1.863-.733a.716.716,0,0,1-.023,1.031" transform="translate(-199.333 -184.675)" fill="#094959"/>
        <path id="Trazado_1003639" data-name="Trazado 1003639" d="M56.991,45.286a.745.745,0,0,1-1.011.087c-.715-.561.208-1.434.656-1.926a.723.723,0,0,1,1.032-.07.738.738,0,0,1,.067,1Z" transform="translate(-47.051 -36.475)" fill="#094959"/>
        <path id="Trazado_1003640" data-name="Trazado 1003640" d="M208.293,12.279c-.355.945-1.562.071-2.081-.149-.359-.152-.387-.681-.282-.951.321-.825,1.587-.076,2.089.229a.7.7,0,0,1,.274.871" transform="translate(-173.853 -9.124)" fill="#094959"/>
        <path id="Trazado_1003641" data-name="Trazado 1003641" d="M100.231,12.214c-.608.267-1.5.935-1.943.207a.7.7,0,0,1,.227-.976c.491-.315,1.633-.956,2.015-.345a.739.739,0,0,1-.3,1.115" transform="translate(-82.908 -9.158)" fill="#094959"/>
        <path id="Trazado_1003642" data-name="Trazado 1003642" d="M251.6,43.4c.518.566,1.238,1.235.727,1.85a.739.739,0,0,1-.974.07c-.5-.445-1.43-1.422-.79-2a.72.72,0,0,1,1.037.077" transform="translate(-211.404 -36.429)" fill="#094959"/>
        <path id="Trazado_1003643" data-name="Trazado 1003643" d="M280.5,146.89c.111.387.011,2.052-.714,2.132-.281.031-.735-.029-.8-.438-.073-.428-.032-2.09.85-2.122a.638.638,0,0,1,.669.427" transform="translate(-235.562 -123.68)" fill="#094959"/>
        <path id="Trazado_1003644" data-name="Trazado 1003644" d="M71.284,220.745c-.584.67-1.387-.183-1.924-.721a.742.742,0,0,1-.079-.961c.642-.769,1.472.279,1.918.664a.718.718,0,0,1,.086,1.018" transform="translate(-58.385 -184.756)" fill="#094959"/>
        <path id="Trazado_1003645" data-name="Trazado 1003645" d="M39.8,174.6a.743.743,0,0,1-.364,1.068.753.753,0,0,1-.953-.431l-.434-1.022a.726.726,0,1,1,1.344-.546Z" transform="translate(-32.081 -146.256)" fill="#094959"/>
        <path id="Trazado_1003646" data-name="Trazado 1003646" d="M32.189,147.1c.173.7.5,1.878-.367,1.986-.823.1-.958-.863-1.038-1.7a.717.717,0,1,1,1.4-.289" transform="translate(-25.991 -123.714)" fill="#094959"/>
        <path id="Trazado_1003647" data-name="Trazado 1003647" d="M154.076,1.4a4.217,4.217,0,0,1-1.907,0c-.3-.083-.363-.429-.361-.665.012-.99,1.758-.725,2.153-.6.52.166.528.913.115,1.267" transform="translate(-128.195 0)" fill="#094959"/>
        <path id="Trazado_1003648" data-name="Trazado 1003648" d="M48.324,232.59a2.325,2.325,0,0,0-2.434-2.367H40.135a2.346,2.346,0,0,0-2.437,2.446l.035,2.728c1.591.106,3.131.02,4.734.042a.678.678,0,0,1,.667.721.755.755,0,0,1-.848.715l-34.458-.008a.731.731,0,0,1-.666-.711.721.721,0,0,1,.771-.73c1.4.024,2.732.049,4.114-.02l.036-2.756a2.239,2.239,0,0,0-2.03-2.382l-6.165-.04a2.3,2.3,0,0,0-2.416,2.16c-.056,1.006-.021,1.98,0,2.994,1.366.335,3.733-.524,3.709.779a.739.739,0,0,1-.821.711l-3.58,0A.757.757,0,0,1,0,236.088L.007,232.5a3.782,3.782,0,0,1,3.454-3.752,4.428,4.428,0,0,1,.329-6.043,4.348,4.348,0,0,1,5.88-.077,4.417,4.417,0,0,1,.413,6.11,4.014,4.014,0,0,1,2.7,1.518,4.407,4.407,0,0,1,2.8-1.518,4.961,4.961,0,0,1-1.083-3.655c0-.275-.353-.553-.32-.855.054-.5.682-.356.872-.623a4.475,4.475,0,0,1,6.3-1.292,4.379,4.379,0,0,1,.815,6.41,4.329,4.329,0,0,1,2.728,1.54,4.686,4.686,0,0,1,2.722-1.57,4.348,4.348,0,0,1,.815-6.38,4.475,4.475,0,0,1,6.305,1.3c.163.229.7.144.834.482.164.409-.279.656-.277.976a5,5,0,0,1-1.087,3.667,4.188,4.188,0,0,1,2.759,1.517,4.336,4.336,0,0,1,2.735-1.515,4.417,4.417,0,0,1,.33-6.031,4.347,4.347,0,0,1,5.88-.075,4.422,4.422,0,0,1,.413,6.113,3.794,3.794,0,0,1,3.453,3.758l.006,3.586a.757.757,0,0,1-.781.779H45.893a.729.729,0,0,1-.765-.563c-.264-1.447,2.091-.609,3.175-.925.051-.9.029-1.8.023-2.79M9.662,225.872a2.89,2.89,0,1,0-2.89,2.89,2.89,2.89,0,0,0,2.89-2.89m12.077,0a2.889,2.889,0,1,0-2.889,2.89,2.889,2.889,0,0,0,2.889-2.89m12.082,0a2.889,2.889,0,1,0-2.889,2.889,2.889,2.889,0,0,0,2.889-2.889m12.078,0a2.89,2.89,0,1,0-2.89,2.89,2.89,2.89,0,0,0,2.89-2.89m-21.763,9.563c.052-1.109.031-1.966.019-2.935a2.242,2.242,0,0,0-2.227-2.255l-6.179.005a2.265,2.265,0,0,0-2.206,2.405l.021,2.758Zm12.076-.006c.053-1.1.023-1.962.017-2.928a2.222,2.222,0,0,0-2.192-2.252l-6.182,0a2.233,2.233,0,0,0-2.229,2.255l.005,2.914Z" transform="translate(-0.001 -187.06)" fill="#094959"/>
        <path id="Trazado_1003649" data-name="Trazado 1003649" d="M80.689,69.444l10.658.047A2.221,2.221,0,0,1,93.4,71.733l.033,3.6,4.54.023a2.27,2.27,0,0,1,2.3,2.287l0,8.685a2.223,2.223,0,0,1-2.129,2.235L86.714,88.6c-1.033.768-1.809,2.435-3.158,1.821a1.587,1.587,0,0,1-.824-1.8,2.372,2.372,0,0,1-2.571-2.31l-.032-3.594-4.52-.023a2.279,2.279,0,0,1-2.318-2.285V71.734a2.3,2.3,0,0,1,2.292-2.281c1.056-.024,2.4-.223,2.34.78a.724.724,0,0,1-.79.7l-1.575,0a.791.791,0,0,0-.806.783v8.718a.83.83,0,0,0,.846.8l11.859.029,1.867,1.786c.171-.449-.049-.991.2-1.461.432-.825,2.419.333,2.417-1.313l-.012-8.542a.791.791,0,0,0-.8-.793l-10.4,0a.751.751,0,0,1-.805-.691.74.74,0,0,1,.77-.8m3.375,18.1c.207.485.012.955.167,1.406l1.88-1.8L98.1,87.1c.471,0,.72-.492.72-.914l-.009-8.563a.8.8,0,0,0-.825-.794l-4.553,0L93.4,80.4a2.356,2.356,0,0,1-2.562,2.315,1.657,1.657,0,0,1-.731,1.762c-1.392.783-2.256-1.047-3.3-1.784l-5.169.031,0,3.606c0,1.386,2.026.278,2.423,1.208" transform="translate(-61.889 -58.623)" fill="#094959"/>
        <path id="Trazado_1003650" data-name="Trazado 1003650" d="M105.827,109.067l-12.74-.013a.76.76,0,0,1-.766-.681.7.7,0,0,1,.632-.775l12.818-.008a.742.742,0,0,1,.743.66c.038.353-.2.66-.688.817" transform="translate(-77.959 -90.855)" fill="#094959"/>
        <path id="Trazado_1003651" data-name="Trazado 1003651" d="M133.435,90.066h-7.52a.731.731,0,1,1,.02-1.46l7.57,0a.748.748,0,0,1,.734.66.756.756,0,0,1-.8.8" transform="translate(-105.685 -74.824)" fill="#094959"/>
        <path id="Trazado_1003652" data-name="Trazado 1003652" d="M100.552,127.893l-7.481,0a.737.737,0,1,1-.017-1.474h7.435a.714.714,0,0,1,.7.674.739.739,0,0,1-.639.8" transform="translate(-77.957 -106.751)" fill="#094959"/>
        <path id="Trazado_1003653" data-name="Trazado 1003653" d="M94.908,89.881c-1.136.03-2.523.241-2.594-.678a.714.714,0,0,1,.752-.772c1.173-.021,2.718-.264,2.629.78a.728.728,0,0,1-.787.671" transform="translate(-77.953 -74.642)" fill="#094959"/>
      </g>
    </g>
  </g>
</svg>
