<svg xmlns="http://www.w3.org/2000/svg" xmlns:xlink="http://www.w3.org/1999/xlink" width="96" height="96" viewBox="0 0 96 96">
  <defs>
    <clipPath id="clip-path">
      <rect id="Rectángulo_456528" data-name="Rectángulo 456528" width="51.944" height="60.227" fill="#094959"/>
    </clipPath>
  </defs>
  <g id="Grupo_1191940" data-name="Grupo 1191940" transform="translate(-383.746 -8400.001)">
    <path id="Trazado_997400" data-name="Trazado 997400" d="M48,0A48,48,0,1,1,0,48,48,48,0,0,1,48,0Z" transform="translate(383.746 8400.001)" fill="#a0f7fe"/>
    <g id="Grupo_1192159" data-name="Grupo 1192159" transform="translate(405.774 8417.887)">
      <g id="Grupo_1192158" data-name="Grupo 1192158" clip-path="url(#clip-path)">
        <path id="Trazado_1003657" data-name="Trazado 1003657" d="M43.282,49.071c-.679,2.4-.731,6.852-4.916,6.634l-6.183-.322c-5.225-.272-3.783,5.1-5.672,4.835L5.613,57.3a1,1,0,0,1-.608-.343.866.866,0,0,1-.079-.841c4.047-9.324,3.72-11.122-.736-19.685-2.9-5.58-4.826-11.993-4-18.346A19.72,19.72,0,0,1,9.953,3.539,26.266,26.266,0,0,1,33.181,2C41.387,5.395,46.02,12.637,47.2,21.264c.465,3.392-2.237,3.639-.523,6,1.514,2.089,4.655,5.88,5.186,8.168a2.423,2.423,0,0,1-1.635,2.955,19.076,19.076,0,0,1-3.5.71c-.464.989,1.405,1.527.455,4a3.034,3.034,0,0,1-2.276,1.734,3.2,3.2,0,0,1,.241,2.617c-.214.774-1.429,1.039-1.868,1.617m-1.816-.285c.087-1.575,1.636-1.153,2.106-1.953.535-.912-.714-2-1.779-2.433a.8.8,0,0,1-.477-1.1.852.852,0,0,1,1.052-.412c.986.318,2.91.774,3.333-.491.5-1.505-1.46-2.121-.489-4.042.835-1.652,3.706-.544,4.875-1.833.529-.583-.082-1.59-.432-2.192-1.316-2.265-2.933-4.186-4.441-6.287-2.3-3.209.829-3.859.353-6.772a29.773,29.773,0,0,0-1.574-5.95C38.713,1.5,21.487-1.925,10.1,5.363A18.342,18.342,0,0,0,1.67,22.433,32.8,32.8,0,0,0,5.314,35.018c4.367,8.7,5.786,10.675,1.536,20.79L26.081,58.5a7.313,7.313,0,0,1,2.7-4.107,21.157,21.157,0,0,1-5.863-2.8c-.945-.541-5.716-4.726-3.936-5.558A.829.829,0,0,1,20,46.262,15.142,15.142,0,0,0,27.047,52a27.6,27.6,0,0,0,11.306,1.994c2.533-.068,3.007-3.3,3.112-5.207" transform="translate(0 0)" fill="#094959"/>
        <path id="Trazado_1003658" data-name="Trazado 1003658" d="M57.446,37.691a18.78,18.78,0,1,1-18.78-18.78,18.78,18.78,0,0,1,18.78,18.78m-1.643,0A17.138,17.138,0,1,0,38.665,54.829,17.138,17.138,0,0,0,55.8,37.691" transform="translate(-16.143 -15.352)" fill="#094959"/>
        <path id="Trazado_1003659" data-name="Trazado 1003659" d="M55.1,69.348c-.464.183-.834.286-.78.8A1.871,1.871,0,0,1,52.738,72.3a9.163,9.163,0,0,1-2.314.014c-2.051-.219-1.545-2.366-1.849-2.719-.113-.131-.391-.162-.63-.255l-2.382-.927a2.434,2.434,0,0,1-1.6,1.067,2.171,2.171,0,0,1-1.778-.771l-1.215-1.25c-.9-.921-.366-2.288.731-3.015a24.02,24.02,0,0,1-1.185-2.9c-.142-.486-2.53.236-2.738-1.77a8.422,8.422,0,0,1,.05-2.74c.268-1.131,1.462-1.438,2.595-1.314a18.367,18.367,0,0,1,1.3-3.086c-1.058-.741-1.585-1.987-.779-3.025a21.005,21.005,0,0,1,1.47-1.515c1.528-1.6,3.151.615,3.371.51.964-.459,1.91-.837,2.967-1.231-.151-1.107.163-2.3,1.3-2.562a7.562,7.562,0,0,1,2.907-.016c1.244.228,1.464,1.51,1.393,2.628a18.177,18.177,0,0,1,3.1,1.286,2.073,2.073,0,0,1,3.1-.744c.979-.607,1.948-2.729,3.063-1.615l1.971,1.97a.943.943,0,0,1-.03,1.438l-3.72,3.7a15.293,15.293,0,0,0,.9,2.274c1.214-.182,2.371.286,2.563,1.48a11.81,11.81,0,0,1,.037,2.356c-.084,2.045-2.4,1.638-2.694,1.864-.118.09-.155.359-.245.582l-.983,2.444a2.045,2.045,0,0,1,.793,2.846,13.815,13.815,0,0,1-1.56,1.638c-.9.955-2.311.586-3.182-.532Zm1.468-2.4a2.141,2.141,0,0,1,2.669.933,5,5,0,0,0,1.654-1.662c-2.078-1.815-.783-2.508.239-5.47.329-.954,1.447-1.158,2.428-1.059a5.024,5.024,0,0,0,.079-2.285,2.994,2.994,0,0,1-2.182-.6c-.492-.508-.539-1.214-.847-1.876-.2-.087-.826.365-.706.731a8.854,8.854,0,1,1-2.977-4.123,4.895,4.895,0,0,0,1.31-1.291c-.577-.047-1.091.17-1.59-.1-2.777-1.513-4-.693-3.971-3.7a6.554,6.554,0,0,0-2.275.009c.055,1-.1,2.129-1.108,2.49-3.142,1.129-3.6,2.229-5.483.231a6.184,6.184,0,0,0-1.627,1.624c.841.728,1.477,1.694.932,2.716-1.432,2.688-.7,3.922-3.653,3.875a4.51,4.51,0,0,0,.088,2.32,2.087,2.087,0,0,1,2.49,1.227c.857,2.812,2.3,3.4.141,5.274A6.9,6.9,0,0,0,43.8,67.934c.774-1.011,1.837-1.541,2.924-.9,2.237,1.319,3.744.5,3.688,3.564a4.874,4.874,0,0,0,2.3-.041c-.182-2.741,1.125-2.25,3.851-3.609m-8.68-9.342,3.775,3.711L63.888,49.1A1.881,1.881,0,0,0,62.8,48.09L52.241,58.652a.846.846,0,0,1-1.16.022l-2.2-2.139a1.92,1.92,0,0,0-.99,1.071m-1.75-.79,2.123-2.1a.886.886,0,0,1,1.233.066l2.179,2.106,4.109-4.159a7.179,7.179,0,1,0-1.344,12.359,7.093,7.093,0,0,0,4.048-8.235l-6.217,6.179a.84.84,0,0,1-1.231.02l-4.97-4.98a.868.868,0,0,1,.069-1.253" transform="translate(-30.597 -36.261)" fill="#094959"/>
      </g>
    </g>
  </g>
</svg>
