<svg xmlns="http://www.w3.org/2000/svg" xmlns:xlink="http://www.w3.org/1999/xlink" width="235.776" height="262.849" viewBox="0 0 235.776 262.849">
  <defs>
    <clipPath id="clip-path">
      <rect id="Rectángulo_456127" data-name="Rectángulo 456127" width="210.194" height="86.892" fill="#e6eeed"/>
    </clipPath>
    <clipPath id="clip-path-2">
      <rect id="Rectángulo_454878" data-name="Rectángulo 454878" width="235.776" height="210.45" fill="none"/>
    </clipPath>
    <clipPath id="clip-path-3">
      <rect id="Rectángulo_456126" data-name="Rectángulo 456126" width="112.987" height="152.848" fill="none"/>
    </clipPath>
  </defs>
  <g id="Grupo_1192296" data-name="Grupo 1192296" transform="translate(-637 -4607.048)">
    <g id="Grupo_1190304" data-name="Grupo 1190304" transform="translate(416 3433.348)">
      <g id="Grupo_1099281" data-name="Grupo 1099281" transform="translate(221 1173.7)">
        <path id="Trazado_873129" data-name="Trazado 873129" d="M234.018,117V262.008H0V117q0-3.674.236-7.274c.087-1.654.224-3.3.4-4.937.037-.4.087-.8.137-1.181.236-2.151.535-4.29.908-6.4q.69-4.122,1.679-8.132a117.2,117.2,0,0,1,35.14-58.8c2.611-2.375,5.347-4.638,8.17-6.764A116.331,116.331,0,0,1,73.874,8.219c1.778-.709,3.594-1.38,5.421-2A116.661,116.661,0,0,1,186.431,22.83c.6.435,1.181.87,1.753,1.318a117.009,117.009,0,0,1,44.5,75.241A117.5,117.5,0,0,1,234.018,117" fill="#fff"/>
        <path id="Trazado_873131" data-name="Trazado 873131" d="M220.238,117v25.864c-1.268.485-2.562.92-3.855,1.331C197.794,150,177.4,148.344,159,142.015c-14.337-4.937-29.109-14.524-31.721-29.457-1.094-6.329.174-12.8.609-19.211s-.174-13.38-4.315-18.3c-3.531-4.178-9.052-6.168-14.474-6.914-11.577-1.592-23.949,1.529-34.68-3.084C62.667,60,56.189,46.393,56.624,33.611c.336-9.885,4.253-18.863,8.891-27.393A116.661,116.661,0,0,1,172.651,22.83c.6.435,1.181.87,1.753,1.318a117.009,117.009,0,0,1,44.5,75.241A117.5,117.5,0,0,1,220.238,117" transform="translate(13.782)" fill="#fff"/>
        <g id="Grupo_1191894" data-name="Grupo 1191894" transform="translate(4.623 0)">
          <g id="Grupo_1191894-2" data-name="Grupo 1191894" transform="translate(0 0)" clip-path="url(#clip-path)">
            <path id="Trazado_1002480" data-name="Trazado 1002480" d="M210.194,55.13c-.825,1.243-1.726,2.462-2.652,3.629-12.257,15.378-31.632,24.564-51.286,25.313s-39.321-6.687-54.242-19.489c-5.976-5.126-11.432-11.2-18.715-14.16a26.035,26.035,0,0,0-23.207,2.017C49.649,58.988,45.145,72.12,35.527,79.835,25.783,87.65,11.7,88.7,0,84.326A115.731,115.731,0,0,1,110.147.013C110.616,0,111.086,0,111.555,0A115.925,115.925,0,0,1,154.48,8.184q3.711,1.485,7.3,3.21A117.688,117.688,0,0,1,208.24,52.1c.66,1,1.32,2,1.954,3.032" transform="translate(0 0.001)" fill="#e6eeed"/>
          </g>
        </g>
      </g>
      <g id="Grupo_1190303" data-name="Grupo 1190303" transform="translate(221 1225.61)">
        <g id="Grupo_1190301" data-name="Grupo 1190301" clip-path="url(#clip-path-2)">
          <g id="Grupo_1190300" data-name="Grupo 1190300">
            <g id="Grupo_1191877" data-name="Grupo 1191877">
              <path id="Trazado_997462" data-name="Trazado 997462" d="M235.755,72.17c-.116,6.978-.36,13.956-.592,20.845,0,.1-.013.218-.013.321a2.569,2.569,0,0,1-.013.321v.282c-.077,2.322-.154,4.631-.219,6.914-.154,5.247-.257,10.416-.257,15.47v73.72H0V91.95Z" transform="translate(0 20.407)" fill="#95ebba"/>
              <path id="Trazado_997492" data-name="Trazado 997492" d="M235.3,78.132c-.013,9.557-.347,19.139-.669,28.567,0,.1-.013.218-.013.321a2.569,2.569,0,0,1-.013.321v.282c-.077,2.322-.154,4.631-.219,6.914l-44.805,52a4,4,0,0,1-3.061,1.411H9.734a3.966,3.966,0,0,1-2.908-1.257l-4.45-4.669-.719-.757,31.455-18.78,1.056-.629,11.574-6.9h.024l1.016-.629,8.333-4.977,1.016-.629h.026l8.308-4.951,1.042-.616h.026l8.308-4.977,1.042-.629,8.308-4.951,1.042-.629,5.723-3.412L91,107.93l6.314-3.758.514-.308.514-.308,8.423-5.028,40.2-24,11.523-6.876,5.723-3.412.874-.539,2.366-1.411,14.4-8.594,2.636-1.578,1.633-.962,2.546-1.526,6.186-3.694,3.459-2.065,11.214-6.7,19.548-11.66c.6,1.95,1.157,3.925,1.646,5.914a158.942,158.942,0,0,1,4.038,27.887c.4,6.209.54,12.507.54,18.818" transform="translate(0.474 7.214)" fill="#0d2521"/>
              <path id="Trazado_997493" data-name="Trazado 997493" d="M235.372,83.92c-.013,9.557-.347,19.139-.669,28.567,0,.1-.013.218-.013.321a2.572,2.572,0,0,1-.013.321v.282l-48.522,53.542a2.564,2.564,0,0,1-1.942.885H2.731a1.936,1.936,0,0,1-.284-.026,1.319,1.319,0,0,1-.6-2.258L64.318,109.1l.231-.218.077-.321L88.585,7.019A2.574,2.574,0,0,1,91.2,5.043l129.079,5.221q2.122,3.868,3.922,7.915A107.444,107.444,0,0,1,229.148,31.3c.6,1.95,1.157,3.925,1.646,5.914A158.944,158.944,0,0,1,234.832,65.1c.4,6.209.54,12.507.54,18.818" transform="translate(0.404 1.425)" fill="#15342f"/>
              <path id="Trazado_997494" data-name="Trazado 997494" d="M220.733,89.668c0,.1-.013.218-.013.321a2.572,2.572,0,0,1-.013.321l-137.3-3.168-32.845-.757a.317.317,0,0,1-.219-.1.341.341,0,0,1-.09-.231.357.357,0,0,1,.334-.308h.064l33.784.782Z" transform="translate(14.375 24.245)" fill="#becce3"/>
              <path id="Trazado_997495" data-name="Trazado 997495" d="M219.917,82.255l-5.774,21.91L91.379,102.65,55.447,102.2,77.335,10.933l131.406,5.58a107.451,107.451,0,0,1,4.951,13.123c.6,1.95,1.157,3.925,1.646,5.914a158.941,158.941,0,0,1,4.038,27.887c.4,6.209.54,12.507.54,18.818" transform="translate(15.859 3.091)" fill="#9cb9b4"/>
              <path id="Trazado_997496" data-name="Trazado 997496" d="M136.83,9.363a1.636,1.636,0,1,0,1.646,1.629,1.633,1.633,0,0,0-1.646-1.629m0,2.95a1.315,1.315,0,1,1,1.325-1.321,1.318,1.318,0,0,1-1.325,1.321" transform="translate(38.67 2.647)" fill="#becce3"/>
              <path id="Trazado_997497" data-name="Trazado 997497" d="M213.332,92.033a.325.325,0,0,0-.3-.192l-13.992-.218-.862-.013-17.13-.269-.862-.013-17.117-.269h-.013l-.874-.013-17.1-.257-.887-.013h-.013l-17.066-.269-.9-.013-17.066-.269-.913-.013L91.2,89.943l-.913-.013-5.607-.09-11.433-.167-.926-.013-10.43-.167a.273.273,0,0,0-.219.09l-4.36,3.951-.694.629-5.53,5-.694.641-5.53,5.016-.694.629-5.53,5-.694.629-5.53,5.016-.694.629-7.87,7.132.026.026c-.077.026-.09.051-.1.09a.323.323,0,0,0,.116.385.33.33,0,0,0,.244.051c.167-.013,1.093-.013,2.662-.013,2.019.013,5.093.026,9.015.051.3,0,.592.013.913.013h.013c4.874.026,10.931.077,17.811.128.3.013.592.013.9.013h.013c5.5.038,11.5.09,17.8.141h.013c.309,0,.592.013.9.013,5.749.051,11.729.1,17.811.141H92c.3.013.6.013.9.013h.013l17.811.154c.3,0,.592.013.887,0h.013c6.044.064,12.024.115,17.811.167.3,0,.592,0,.887.013,6.25.051,12.269.1,17.837.167.3-.013.579,0,.862,0,6.713.051,12.77.115,17.863.154.3,0,.592.013.875,0,9.362.09,15.252.154,15.561.154a.352.352,0,0,0,.244-.1l5.607-6.26.566-.641,4.488-5.016.566-.629,4.488-5.028.566-.629,4.5-5.041.566-.629,4.488-5.028.566-.629,3.318-3.707a.341.341,0,0,0,.051-.346M209.1,96.074l-.566.629-4.488,5.028-.566.629-4.5,5.041-.566.629-4.488,5.016-.566.641-4.488,5.016-.566.641-5.131,5.734c-.939-.013-6.43-.051-14.841-.141-.283,0-.566,0-.862-.013-5.067-.038-11.124-.09-17.85-.154-.283,0-.579,0-.862-.013-5.568-.038-11.574-.09-17.837-.154h-.887c-5.774-.051-11.767-.1-17.811-.154h-.013c-.3,0-.592-.013-.887-.013-2.521-.026-5.067-.038-7.6-.064-3.408-.026-6.816-.064-10.2-.09-.309,0-.617-.013-.913-.013-6.07-.051-12.037-.1-17.786-.154H73.9c-6.289-.051-12.269-.1-17.786-.154-.309,0-.6,0-.9-.013H55.2l-6.212-.038c-4.681-.038-8.488-.064-11.587-.09h-.939c-4.012-.038-6.752-.051-8.616-.051h-.167c-1.35,0-2.225.013-2.8.026l7.78-7.042.694-.641,5.53-5.016.694-.629,5.517-5,.694-.629,5.543-5.016.694-.629,5.517-5,.694-.641,3.768-3.412,9.658.154.913.013,11.06.167,5.993.09h.013l.9.026,17.066.257.9.013,17.078.269.9.013,17.091.269.887.013,17.117.269.874.013,17.143.257.862.013,17.143.269.862.013,13.863.218Z" transform="translate(6.793 25.305)" fill="#becce3"/>
              <path id="Trazado_997498" data-name="Trazado 997498" d="M202.654,95.195l-.566.629-.862-.013L187.26,95.58l-.849-.013L169.2,95.285h-.013l-.849-.026-17.194-.282-.874-.013-17.168-.282h-.013l-.875-.026-17.143-.282-.9-.013-17.143-.282-.887-.026h-.013l-17.1-.282-.913-.013-17.1-.282H61l-.9-.026h-.013L50.234,93.3l-.926-.026L50,92.642l.926.013,9.825.167.913.013h.013l17.078.3h.013l.9.013,17.1.282.9.013,17.117.3h.013l.887.013h.013l17.13.282.887.013,17.156.3.875.013,17.181.282.862.013,17.194.3.849.013h.013l13.941.231Z" transform="translate(14.104 26.196)" fill="#becce3"/>
              <path id="Trazado_997499" data-name="Trazado 997499" d="M198.984,99.611l-.566.629-.862-.013L183.436,100l-.849-.013h-.013l-17.3-.3-.862-.013-17.284-.3h-.013l-.875-.013-17.271-.282-.887-.013-17.246-.3-.9-.013-17.233-.3-.9-.013-17.22-.282-.9-.013h-.013l-17.194-.3-.926-.013-10.147-.167-.939-.013.694-.641.939.026,10.108.167h.013l.913.013,17.194.282h.013l.887.026h.013l17.194.282h.013l.9.013,17.22.3.9.013,17.233.282.887.026,17.259.282.874.013h.013l17.271.3.862.013,17.3.282.862.013,14.095.244Z" transform="translate(12.719 27.437)" fill="#becce3"/>
              <path id="Trazado_997500" data-name="Trazado 997500" d="M180.191,103.777l-.579.629H179.6l-.849-.013-17.413-.3-.862-.013-17.387-.282h-.013l-.874-.013-17.361-.3h-.013l-.874-.013h-.013l-17.336-.3-.9-.013-17.336-.3-.9-.013h-.013l-17.31-.282h-.013l-.887-.026h-.013l-17.31-.282-.913-.013H51l-10.443-.18-.926-.013.694-.629.926.013,10.417.18.913.013h.013l17.3.282.9.013H70.8l17.3.3.9.013,17.323.3.9.013h.013l17.323.3h.013l.875.013h.013l17.349.282h.013l.874.013,17.374.3.862.013,17.4.3Z" transform="translate(11.335 28.684)" fill="#becce3"/>
              <path id="Trazado_997501" data-name="Trazado 997501" d="M161,103.465l-.566.629-.862-.013.566-.629Z" transform="translate(45.641 29.252)" fill="#becce3"/>
              <path id="Trazado_997502" data-name="Trazado 997502" d="M191.632,108.449l-.566.629-.862-.013-14.429-.244-.862-.013-17.5-.3-.862-.013-17.49-.3-.887-.013-17.464-.3-.887-.013-17.451-.3-.9-.013-17.439-.3-.9-.013-17.426-.3-.9-.013-17.413-.282h-.013l-.9-.026h-.013l-10.738-.18-.939-.013.694-.629.939.013,10.713.18.913.013h.013l17.387.3h.013l.9.013,17.413.3.9.013,17.426.3.9.013,17.439.3.887.013,17.451.3.887.013,17.477.3.862.013,17.5.282.849.026h.013l14.4.231Z" transform="translate(9.95 29.925)" fill="#becce3"/>
              <path id="Trazado_997503" data-name="Trazado 997503" d="M187.962,112.849l-.566.641-.862-.013-14.584-.244-.849-.026h-.013l-17.606-.282h-.013l-.849-.013h-.013l-17.58-.3h-.013l-.874-.013-17.567-.3-.887-.013h-.013L98.133,112l-.9-.013H97.22l-17.529-.3-.9-.013-17.529-.3-.9-.013-17.516-.3-.926-.013-11.034-.18-.939-.026.694-.629.939.013,11,.192h.013l.913.013,17.5.3.9.013,17.516.3.9.013h.013l17.529.282.9.026,17.541.282.875.026h.013l17.554.282h.013l.874.013,17.58.3.862.013,17.593.3h.013l.849.013h.013l14.558.244Z" transform="translate(8.566 31.169)" fill="#becce3"/>
              <path id="Trazado_997504" data-name="Trazado 997504" d="M47.609,105.982l.913.013-.656.641h-.013l-5.26,5.016-.656.629-7.215,6.876-.669.641h-.013c-.322,0-.617-.013-.913-.013l.656-.629,7.227-6.888.656-.629h.013l5.26-5.028h.013Z" transform="translate(9.476 29.968)" fill="#becce3"/>
              <path id="Trazado_997505" data-name="Trazado 997505" d="M60.991,92.782l.913.013-.656.641h-.013l-5.247,5-.656.629L50.06,104.1h-.013l-.656.629-.913-.013.656-.629,5.273-5.028.656-.629h.013l5.247-5.016h.013Z" transform="translate(13.866 26.235)" fill="#becce3"/>
              <path id="Trazado_997506" data-name="Trazado 997506" d="M62.59,89.635l-.669.629-.913-.013.656-.629Z" transform="translate(17.45 25.342)" fill="#becce3"/>
              <path id="Trazado_997507" data-name="Trazado 997507" d="M84.35,89.845l-.656.641-3.562,3.451-.643.629-5.17,5.016h-.013l-.643.629-5.17,5.016H68.48l-.643.641h-.013l-5.157,5-.656.629-5.183,5.028-.643.629-6.919,6.709-.656.641H48.6c-.309,0-.6,0-.9-.013l.656-.641h.013l6.919-6.709.643-.629,5.183-5.028.643-.629h.013l5.157-5.016h.013l.643-.629,5.17-5.016h.013l.643-.641h.013l5.157-5,.643-.629h.013l3.549-3.463h.013l.643-.629Z" transform="translate(13.643 25.401)" fill="#becce3"/>
              <path id="Trazado_997508" data-name="Trazado 997508" d="M98.138,90.065l-.643.629L93.971,94.17l-.643.641-5.067,5-.643.629-5.093,5.028-.63.629-5.08,5.016-.643.629-5.08,5.028H71.08l-.63.629-6.636,6.555H63.8l-.643.641c-.309,0-.592-.013-.9-.013l.63-.629H62.9l6.649-6.568.63-.629,5.093-5.028.643-.629,5.067-5.016H81l.63-.629,5.093-5.028.63-.629h.013l5.067-5.016h.013l.63-.629,3.524-3.476.63-.629Z" transform="translate(17.807 25.463)" fill="#becce3"/>
              <path id="Trazado_997509" data-name="Trazado 997509" d="M77.435,116.6c.3,0,.6.013.913.013l-.617.629h-.013c-.3,0-.6,0-.9-.013Z" transform="translate(21.972 32.971)" fill="#becce3"/>
              <path id="Trazado_997510" data-name="Trazado 997510" d="M110.381,90.285l-.63.629-3.472,3.5h-.013l-.617.629-4.99,5.016-.63.629-4.99,5.028h-.013l-.617.629-4.99,5.016-.63.629-4.99,5.028-.63.629-.9-.013.63-.641,4.99-5.016.63-.629,4.99-5.016.617-.629,5-5.028.63-.629,4.99-5.016.617-.629h.013l3.472-3.5.63-.629Z" transform="translate(23.531 25.525)" fill="#becce3"/>
              <path id="Trazado_997511" data-name="Trazado 997511" d="M91.982,116.732c.3,0,.592.013.887.013l-.592.616h-.013c-.3.013-.592,0-.887,0Z" transform="translate(26.137 33.007)" fill="#becce3"/>
              <path id="Trazado_997512" data-name="Trazado 997512" d="M124.242,90.5l-.617.629-3.434,3.515-.617.641h-.013l-4.887,5.016-.617.629-4.9,5.028h-.013l-.6.629h-.013l-4.887,5.016-.617.629-4.9,5.028H98.11l-.6.629-.887-.013.617-.641,4.9-5.016.617-.629,4.887-5.016h.013l.6-.629h.013l4.9-5.028.617-.641,4.9-5.016.617-.629,3.434-3.515.6-.629h.013Z" transform="translate(27.635 25.588)" fill="#becce3"/>
              <path id="Trazado_997513" data-name="Trazado 997513" d="M139.558,90.715l-.6.641-3.4,3.54-.6.629-4.8,5.016h-.013l-.592.629h-.013l-4.81,5.028-.6.641h-.013l-4.8,5.016-.6.629L113.9,117.5l-.6.641h-.013l-5.864,6.119-.6.641c-.3-.013-.592-.013-.887-.013l.6-.629,5.877-6.132.6-.641h.013l4.8-5.016.6-.629,4.81-5.016.6-.641h.013l4.81-5.028.6-.629,4.81-5.016.6-.629,3.4-3.54.6-.641Z" transform="translate(30.298 25.647)" fill="#becce3"/>
              <path id="Trazado_997514" data-name="Trazado 997514" d="M153.385,90.935l-.592.629-3.357,3.566-.592.641h-.013l-4.707,5.016-.592.629-4.733,5.028-.592.629-4.72,5.028-.592.629-4.72,5.016-.592.641h-.013l-5.62,5.978-.6.641c-.283,0-.566-.013-.862,0l.6-.654,5.62-5.978h.013l.592-.641,4.72-5.016.592-.629,4.72-5.028.592-.629,4.733-5.028.592-.629,4.72-5.028.592-.629,3.357-3.566.592-.629Z" transform="translate(34.463 25.709)" fill="#becce3"/>
              <path id="Trazado_997515" data-name="Trazado 997515" d="M146.828,107.652l.849.026-.579.629-4.617,5.016h-.013l-.579.641L136.5,119.8l-.579.629c-.283.013-.579,0-.875,0l.592-.641,5.388-5.849h.013l.566-.629h.013l4.617-5.016Z" transform="translate(38.627 30.44)" fill="#becce3"/>
              <path id="Trazado_997516" data-name="Trazado 997516" d="M158.817,94.432l.849.013-.579.629-4.617,5.016-.592.641-4.63,5.028-.579.629h-.013l-.849-.013.579-.629,4.63-5.028h.013l.579-.641,4.63-5.016Z" transform="translate(42.277 26.702)" fill="#becce3"/>
              <path id="Trazado_997517" data-name="Trazado 997517" d="M160.379,91.155l-.579.629-.862-.013.579-.629Z" transform="translate(45.461 25.771)" fill="#becce3"/>
              <path id="Trazado_997518" data-name="Trazado 997518" d="M50.514,129.006l9.784-9.1a1.393,1.393,0,0,1,.971-.371l63.8,1.094a1.384,1.384,0,0,1,1.152,2.12l-5.121,8.131a1.374,1.374,0,0,1-1.175.649c-6.642-.038-54.684-.309-68.451-.13a1.381,1.381,0,0,1-.957-2.4" transform="translate(14.321 33.8)" fill="#0d2521"/>
              <path id="Trazado_997519" data-name="Trazado 997519" d="M74.52,61.935l5.289-24.317a7.516,7.516,0,0,1,7.625-5.9L193.617,35.6a7.506,7.506,0,0,1,7.117,8.874L196.119,69.1a7.516,7.516,0,0,1-7.688,6.116l-106.859-4.2a7.505,7.505,0,0,1-7.053-9.086" transform="translate(21.265 11.284)" fill="#0e5a52"/>
              <path id="Trazado_997520" data-name="Trazado 997520" d="M95.679,44.066a3.615,3.615,0,0,0-.965-1.334,4.788,4.788,0,0,0-1.273-.8,3.92,3.92,0,0,0-1.325-.321l-3.292-.167a2.919,2.919,0,0,0-.8.051.712.712,0,0,0-.424.308,1.1,1.1,0,0,0-.167.4,3.773,3.773,0,0,0-.051.526l-.424,8.543c-.013.192-.013.334-.013.436a1.518,1.518,0,0,0,.064.359.618.618,0,0,0,.193.321,1.332,1.332,0,0,0,.386.205,2.23,2.23,0,0,0,.656.115,2.849,2.849,0,0,0,.8-.064.649.649,0,0,0,.424-.3,1.1,1.1,0,0,0,.167-.4,3.793,3.793,0,0,0,.051-.539l.09-1.732,1.929.09a3.925,3.925,0,0,0,1.35-.18,5.092,5.092,0,0,0,1.35-.667A3.533,3.533,0,0,0,95.5,47.7a4.1,4.1,0,0,0,.489-1.8,4.31,4.31,0,0,0-.309-1.834M92.773,46.76a1.468,1.468,0,0,1-.926.3l-1.942-.09.141-2.719,1.929.09a1.423,1.423,0,0,1,.9.4,1.181,1.181,0,0,1,.4,1.026,1.2,1.2,0,0,1-.5,1" transform="translate(24.869 14.037)" fill="#fff"/>
              <path id="Trazado_997521" data-name="Trazado 997521" d="M106.618,43.824a5.49,5.49,0,0,0-3.884-1.834,5.289,5.289,0,0,0-2.083.321,5.95,5.95,0,0,0-1.839,1.1,5.693,5.693,0,0,0-1.325,1.809,6.252,6.252,0,0,0-.579,2.36,5.636,5.636,0,0,0,1.44,4.118,5.4,5.4,0,0,0,3.948,1.886,5.141,5.141,0,0,0,3.987-1.526,5.715,5.715,0,0,0,1.8-3.989,5.549,5.549,0,0,0-1.466-4.246m-2.251,6.3a2.782,2.782,0,0,1-2.019.731,2.735,2.735,0,0,1-1.929-.949,2.873,2.873,0,0,1-.772-2.245,2.941,2.941,0,0,1,.99-2.194,2.754,2.754,0,0,1,2.019-.757,2.786,2.786,0,0,1,1.929.949,3.273,3.273,0,0,1-.219,4.464" transform="translate(27.716 14.189)" fill="#fff"/>
              <path id="Trazado_997522" data-name="Trazado 997522" d="M117.184,44.459a5.566,5.566,0,0,0-3.858-1.8q-.482-.019-1.427-.077c-.643-.038-1.106-.064-1.415-.077a2.919,2.919,0,0,0-.8.051.692.692,0,0,0-.437.308.927.927,0,0,0-.154.385,3.794,3.794,0,0,0-.051.539l-.424,8.543a4.056,4.056,0,0,0,0,.564,1.1,1.1,0,0,0,.141.423.644.644,0,0,0,.4.321,2.3,2.3,0,0,0,.746.128l2.816.141a5.43,5.43,0,0,0,4.1-1.475,5.526,5.526,0,0,0,1.852-3.938,5.279,5.279,0,0,0-1.492-4.041m-2.238,6.016a2.885,2.885,0,0,1-2.045.718l-1.492-.077.283-5.811,1.492.077a2.841,2.841,0,0,1,1.993.936,2.784,2.784,0,0,1,.772,2.117,2.708,2.708,0,0,1-1,2.04" transform="translate(31.065 14.337)" fill="#fff"/>
              <path id="Trazado_997523" data-name="Trazado 997523" d="M123.361,46.451a3.579,3.579,0,0,1,1-.475,3.082,3.082,0,0,1,1-.128,2.661,2.661,0,0,1,1.7.616,1.709,1.709,0,0,0,.772.372c.309.013.694-.244,1.119-.782a1.4,1.4,0,0,0,.36-.808.756.756,0,0,0-.1-.436,1.455,1.455,0,0,0-.27-.334c-.09-.077-.231-.18-.412-.308l-.347-.231a5.867,5.867,0,0,0-1.119-.513,5.414,5.414,0,0,0-1.466-.3,6.658,6.658,0,0,0-1.479.128,6.652,6.652,0,0,0-3.074,1.552,5.337,5.337,0,0,0-1.106,1.565,5.759,5.759,0,0,0-.5,2.142,6.16,6.16,0,0,0,.3,2.258,5.315,5.315,0,0,0,.952,1.732,6.634,6.634,0,0,0,1.376,1.167,6.223,6.223,0,0,0,1.5.731,6,6,0,0,0,1.427.257,5.2,5.2,0,0,0,1.582-.167,6.091,6.091,0,0,0,1.055-.346c.18-.09.309-.167.412-.231a3.458,3.458,0,0,0,.643-.423.709.709,0,0,0,.232-.513,1.685,1.685,0,0,0-.3-.9c-.334-.59-.669-.9-.99-.911a1.671,1.671,0,0,0-.746.269l-.1.051-.193.141a2.267,2.267,0,0,1-.617.205,3.028,3.028,0,0,1-.913.09,3.466,3.466,0,0,1-.965-.218,3.871,3.871,0,0,1-.952-.564,2.627,2.627,0,0,1-.746-1,3.171,3.171,0,0,1-.231-1.411,2.987,2.987,0,0,1,.373-1.373,2.6,2.6,0,0,1,.823-.911" transform="translate(34.16 14.513)" fill="#fff"/>
              <path id="Trazado_997524" data-name="Trazado 997524" d="M140.536,53.355l-3.729-8.787a1.323,1.323,0,0,0-1.2-.859,1.425,1.425,0,0,0-.746.18,1.45,1.45,0,0,0-.54.539l-4.591,8.389a1.867,1.867,0,0,0-.3.782c-.026.359.257.706.849,1.026a2.066,2.066,0,0,0,.862.308.8.8,0,0,0,.45-.128.956.956,0,0,0,.283-.269c.064-.09.154-.244.27-.436l.875-1.629,4.27.218.72,1.693c.1.218.167.372.219.475a1.09,1.09,0,0,0,.257.308.766.766,0,0,0,.437.167,2.224,2.224,0,0,0,.887-.218c.617-.269.926-.59.952-.962a2.013,2.013,0,0,0-.231-.8m-6.289-3.1,1.132-2.052.926,2.155Z" transform="translate(37.022 14.677)" fill="#fff"/>
              <path id="Trazado_997525" data-name="Trazado 997525" d="M148.87,50.64a1.107,1.107,0,0,0-.09-.218,2.265,2.265,0,0,0-.939-1.013,7.915,7.915,0,0,0-1.247-.526,10.723,10.723,0,0,0-1.273-.346,2.232,2.232,0,0,1-.952-.41.8.8,0,0,1-.36-.731.75.75,0,0,1,.36-.616,1.325,1.325,0,0,1,.707-.205,2.454,2.454,0,0,1,.592.1,1.416,1.416,0,0,1,.36.154,2.684,2.684,0,0,1,.231.205,1.909,1.909,0,0,0,.167.167,1.615,1.615,0,0,0,.784.346,1.416,1.416,0,0,0,1.119-.718,1.781,1.781,0,0,0,.412-.847c.013-.192-.141-.436-.437-.757l-.077-.064-.3-.244a3.07,3.07,0,0,0-1.029-.539,5.7,5.7,0,0,0-1.685-.321,3.752,3.752,0,0,0-2.8.872,3.256,3.256,0,0,0-1.119,2.309,3.3,3.3,0,0,0,.309,1.706,2.532,2.532,0,0,0,.926,1.065,7.961,7.961,0,0,0,1.235.629,8.8,8.8,0,0,0,1.247.41,3.026,3.026,0,0,1,.965.385.7.7,0,0,1,.36.616.355.355,0,0,1-.013.115c-.077.706-.566,1.026-1.479.988a.647.647,0,0,1-.154-.026,1.647,1.647,0,0,1-.527-.218,2.5,2.5,0,0,1-.463-.359c-.077-.09-.129-.154-.167-.205l-.077-.077a1.9,1.9,0,0,0-1.132-.757,1.165,1.165,0,0,0-.8.334,1.822,1.822,0,0,0-.72,1.078,1.51,1.51,0,0,0,.373.834l.129.18a2.661,2.661,0,0,0,.4.462,4.2,4.2,0,0,0,.347.308c.1.077.219.167.334.244a4.063,4.063,0,0,0,1.029.475,4.828,4.828,0,0,0,1.363.244,4.558,4.558,0,0,0,1.376-.128,5.449,5.449,0,0,0,1.35-.552A3.082,3.082,0,0,0,148.6,53.86a3.683,3.683,0,0,0,.489-1.719,3.625,3.625,0,0,0-.219-1.5" transform="translate(40.275 14.775)" fill="#fff"/>
              <path id="Trazado_997526" data-name="Trazado 997526" d="M160.543,45.459a.527.527,0,0,0-.258-.346,1.074,1.074,0,0,0-.307-.141c-.091-.013-.244-.026-.451-.038l-3.575-.18-4.99-.244a2.715,2.715,0,0,0-.463,0,1.1,1.1,0,0,0-.334.1.513.513,0,0,0-.283.321,2.467,2.467,0,0,0-.1.629,2.528,2.528,0,0,0,.039.654.563.563,0,0,0,.244.346,1.129,1.129,0,0,0,.334.128,2.542,2.542,0,0,0,.439.051l1.658.077,1.3.064-.386,7.722a3.173,3.173,0,0,0,0,.526,1.454,1.454,0,0,0,.116.41.709.709,0,0,0,.386.334,2.3,2.3,0,0,0,.757.128,2.874,2.874,0,0,0,.786-.051.7.7,0,0,0,.424-.3,1.538,1.538,0,0,0,.153-.385c.014-.115.039-.282.053-.526l.372-7.735,2.945.154h.463a1.6,1.6,0,0,0,.336-.1.59.59,0,0,0,.283-.321,2.573,2.573,0,0,0,.1-.629,2.472,2.472,0,0,0-.039-.654" transform="translate(42.839 14.901)" fill="#fff"/>
              <rect id="Rectángulo_456119" data-name="Rectángulo 456119" width="295.786" height="264.014" transform="translate(15.586 37.258)" fill="none"/>
            </g>
          </g>
        </g>
      </g>
      <g id="Grupo_1099280" data-name="Grupo 1099280" transform="translate(376 1185.104)">
        <path id="Trazado_873137" data-name="Trazado 873137" d="M159.539,42.632a38.193,38.193,0,0,0-20.082,68.935L126.023,133.74,148.566,116.5a38.2,38.2,0,1,0,10.973-73.866" transform="translate(-123.817 -42.55)" fill="#a0f7fe"/>
        <rect id="Rectángulo_401286" data-name="Rectángulo 401286" width="1.616" height="31.233" transform="translate(39.141 23.271)" fill="#502750"/>
        <path id="Trazado_873138" data-name="Trazado 873138" d="M152.484,94.427a1.257,1.257,0,0,1-1.258-1.256V58.058a1.258,1.258,0,0,1,2.516,0V93.171a1.257,1.257,0,0,1-1.258,1.256" transform="translate(-112.534 -36.684)" fill="#094959"/>
        <path id="Trazado_873139" data-name="Trazado 873139" d="M157.637,88.8a1.256,1.256,0,0,1-1.258-1.256V61.1a1.258,1.258,0,0,1,2.516,0V87.544a1.256,1.256,0,0,1-1.258,1.256" transform="translate(-110.414 -35.433)" fill="#094959"/>
        <path id="Trazado_873140" data-name="Trazado 873140" d="M146.726,88.8a1.256,1.256,0,0,1-1.258-1.256V61.1a1.258,1.258,0,0,1,2.516,0V87.544a1.256,1.256,0,0,1-1.258,1.256" transform="translate(-114.904 -35.433)" fill="#094959"/>
        <path id="Trazado_873141" data-name="Trazado 873141" d="M162.79,84.707a1.257,1.257,0,0,1-1.259-1.256V63.341a1.258,1.258,0,0,1,2.516,0V83.45a1.256,1.256,0,0,1-1.256,1.256" transform="translate(-108.291 -34.508)" fill="#094959"/>
        <path id="Trazado_873142" data-name="Trazado 873142" d="M141.876,84.707a1.257,1.257,0,0,1-1.258-1.256V63.341a1.258,1.258,0,0,1,2.516,0V83.45a1.257,1.257,0,0,1-1.258,1.256" transform="translate(-116.899 -34.508)" fill="#094959"/>
        <path id="Trazado_873143" data-name="Trazado 873143" d="M167.335,79.509a1.257,1.257,0,0,1-1.258-1.256V66.192a1.258,1.258,0,0,1,2.516,0v12.06a1.257,1.257,0,0,1-1.258,1.256" transform="translate(-106.42 -33.335)" fill="#094959"/>
        <path id="Trazado_873144" data-name="Trazado 873144" d="M136.724,79.509a1.257,1.257,0,0,1-1.258-1.256V66.192a1.258,1.258,0,0,1,2.516,0v12.06a1.257,1.257,0,0,1-1.258,1.256" transform="translate(-119.021 -33.335)" fill="#094959"/>
      </g>
    </g>
    <g id="Grupo_1191893" data-name="Grupo 1191893" transform="translate(644 4717.048)">
      <g id="Grupo_1191892" data-name="Grupo 1191892" clip-path="url(#clip-path-3)">
        <g id="Grupo_1191891" data-name="Grupo 1191891">
          <g id="Grupo_1191890" data-name="Grupo 1191890" clip-path="url(#clip-path-3)">
            <path id="Trazado_1002454" data-name="Trazado 1002454" d="M88.449,54.174l15.906.6a2.793,2.793,0,0,1,2.592,1.976c.623,2.142.861,5.618-2.912,7.915a46.691,46.691,0,0,1-11.12,4.923Z" fill="#b57b8b"/>
            <path id="Trazado_1002456" data-name="Trazado 1002456" d="M94.128,70.039l15.906.6a2.793,2.793,0,0,1,2.592,1.976c.623,2.142.861,5.618-2.912,7.915a46.691,46.691,0,0,1-11.12,4.923Z" fill="#b57b8b"/>
            <path id="Trazado_1002458" data-name="Trazado 1002458" d="M94.089,88.493l15.906.6a2.794,2.794,0,0,1,2.592,1.976c.623,2.142.861,5.618-2.912,7.915a46.691,46.691,0,0,1-11.12,4.923Z" fill="#b57b8b"/>
            <path id="Trazado_1002460" data-name="Trazado 1002460" d="M80.015,1.835l27.821,105.324a2.3,2.3,0,0,1-1.577,2.88L40.23,126.655a2.371,2.371,0,0,1-2.807-1.777L9.6,19.554a2.3,2.3,0,0,1,1.579-2.873L77.21.065a2.37,2.37,0,0,1,2.805,1.77" fill="#0e5a52"/>
            <path id="Trazado_1002461" data-name="Trazado 1002461" d="M14.382,15.875,43.431,125.849l-3.2.805a2.37,2.37,0,0,1-2.807-1.777L9.6,19.553a2.3,2.3,0,0,1,1.579-2.873Z" fill="#15342f"/>
            <path id="Trazado_1002462" data-name="Trazado 1002462" d="M18.83,38.438l-3.89-14.72a1.282,1.282,0,0,0-1.52-.95,1.133,1.133,0,0,0-.72.55,1.29,1.29,0,0,0-.14,1l3.89,14.72a1.3,1.3,0,0,0,1.23.98,1.428,1.428,0,0,0,.29-.03,1.167,1.167,0,0,0,.72-.55,1.29,1.29,0,0,0,.14-1m-.46.81a.778.778,0,0,1-.49.38.912.912,0,0,1-1.07-.68l-3.89-14.73a.952.952,0,0,1,.1-.72.763.763,0,0,1,.49-.37.693.693,0,0,1,.2-.03.93.93,0,0,1,.87.71l3.89,14.72a.945.945,0,0,1-.1.72" fill="#502750"/>
            <path id="Trazado_1002463" data-name="Trazado 1002463" d="M23.94,57.818l-2.24-8.49-.05-.18-.16-.59-1.44-5.47a1.269,1.269,0,0,0-1.51-.94,1.2,1.2,0,0,0-.73.54,1.357,1.357,0,0,0-.13,1.01l1.81,6.85.06.21v.02l.17.66.04.12,1.21,4.59.6,2.27a1.3,1.3,0,0,0,1.23.98,1.428,1.428,0,0,0,.29-.03,1.167,1.167,0,0,0,.72-.55,1.293,1.293,0,0,0,.13-1m-.45.81a.8.8,0,0,1-.49.38.9.9,0,0,1-1.07-.69l-.9-3.41v-.02L20,51.018l-.04-.16v-.01l-.15-.56v-.01l-.07-.24-1.7-6.44a.949.949,0,0,1,.09-.72.808.808,0,0,1,.5-.37.693.693,0,0,1,.2-.03.93.93,0,0,1,.87.71l1.42,5.37.17.66.03.08,2.27,8.61a.945.945,0,0,1-.1.72" fill="#502750"/>
            <path id="Trazado_1002464" data-name="Trazado 1002464" d="M77.753,7.6l24.284,91.936a.835.835,0,0,1-.577,1.044L46.021,114.53a.857.857,0,0,1-1.016-.643L20.721,21.951a.833.833,0,0,1,.571-1.042L76.73,6.959a.858.858,0,0,1,1.023.641" fill="#9cb9b4"/>
            <path id="Trazado_1002465" data-name="Trazado 1002465" d="M76.1,7.116,100.21,98.379a.836.836,0,0,1-.568,1.05L44.83,113.222,20.721,21.951a.833.833,0,0,1,.571-1.042Z" fill="#d0e1dd"/>
            <path id="Trazado_1002466" data-name="Trazado 1002466" d="M87.43,63.908,76.1,21.728a1.485,1.485,0,0,0-1.79-1.04L31.85,31.778a1.474,1.474,0,0,0-1.05,1.79L41.77,75.7a1.455,1.455,0,0,0,1.79,1.05l42.81-11.04a1.462,1.462,0,0,0,1.06-1.8m-.59.87a.992.992,0,0,1-.59.45L43.44,76.268a.97.97,0,0,1-1.18-.7L31.29,33.448a.971.971,0,0,1,.69-1.19l42.45-11.08a.973.973,0,0,1,1.19.68l11.32,42.17a.939.939,0,0,1-.1.75" fill="#15342f"/>
            <path id="Trazado_1002467" data-name="Trazado 1002467" d="M78.734,80.682A10.128,10.128,0,1,1,65.786,74.56a10.127,10.127,0,0,1,12.948,6.122" fill="#15342f"/>
            <path id="Trazado_1002468" data-name="Trazado 1002468" d="M65.5,79.958l2.589,9.3L74.91,82.5Z" fill="#becce3"/>
            <rect id="Rectángulo_456123" data-name="Rectángulo 456123" width="46.323" height="0.5" transform="matrix(0.968, -0.25, 0.25, 0.968, 49.337, 104.433)" fill="#15342f"/>
            <path id="Trazado_1002469" data-name="Trazado 1002469" d="M32.41,14.556l4.227,5.62a1.8,1.8,0,0,0,1.861.7L63.991,14.46a1.741,1.741,0,0,0,1.278-1.454l1-6.567Z" fill="#0e5a52"/>
            <path id="Trazado_1002470" data-name="Trazado 1002470" d="M59.69,10.238a1.24,1.24,0,0,0-1.47-.92l-11.28,2.83a1.168,1.168,0,0,0-.71.54,1.282,1.282,0,0,0-.13.98,1.3,1.3,0,0,0,.68.83,1.167,1.167,0,0,0,.52.12,1.241,1.241,0,0,0,.27-.03l11.29-2.84a1.075,1.075,0,0,0,.64-.45v-.01c.02-.03.04-.05.06-.08a1.257,1.257,0,0,0,.13-.97m-13.23,3.33a.87.87,0,0,1,.09-.69.769.769,0,0,1,.48-.37l11.28-2.84a1.108,1.108,0,0,1,.19-.02.888.888,0,0,1,.83.68.9.9,0,0,1-.09.7.762.762,0,0,1-.48.36l-11.28,2.84a.868.868,0,0,1-1.02-.66" fill="#d0e1dd"/>
            <path id="Trazado_1002471" data-name="Trazado 1002471" d="M43.44,14.328a1.823,1.823,0,0,0-2.16-1.36,1.682,1.682,0,0,0-1.03.78,1.882,1.882,0,0,0-.19,1.43,1.8,1.8,0,0,0,.51.88,1.735,1.735,0,0,0,1.24.53,1.44,1.44,0,0,0,.41-.05,1.673,1.673,0,0,0,1.03-.78,1.567,1.567,0,0,0,.18-.42,2.03,2.03,0,0,0,.01-1.01m-.51,1.24a1.283,1.283,0,0,1-.8.61,1.335,1.335,0,0,1-1.13-.23,1.553,1.553,0,0,1-.43-2.01,1.291,1.291,0,0,1,.8-.61,1.646,1.646,0,0,1,.31-.04,1.526,1.526,0,0,1,1.31,2.16l-.06.12" fill="#d0e1dd"/>
            <path id="Trazado_1002472" data-name="Trazado 1002472" d="M84.65,110.238a2.242,2.242,0,0,0-2.65-1.67l-11.84,2.98a2.109,2.109,0,0,0-1.27.96,2.338,2.338,0,0,0-.23,1.76A2.279,2.279,0,0,0,70.82,116a2.054,2.054,0,0,0,.49-.06l11.85-2.98a1.992,1.992,0,0,0,1.26-.96,2.294,2.294,0,0,0,.23-1.76m-.55,1.57a1.662,1.662,0,0,1-1.03.79l-11.85,2.98a1.867,1.867,0,0,1-2.2-1.4,1.989,1.989,0,0,1,.19-1.48,1.708,1.708,0,0,1,1.04-.79l11.84-2.98a2,2,0,0,1,.41-.05,1.953,1.953,0,0,1,1.6,2.93" fill="#d0e1dd"/>
            <path id="Trazado_1002473" data-name="Trazado 1002473" d="M59.258,38.583l.257.928,4.527-1.185.432,1.57L59.955,41.08l.259.935,4.518-1.191.432,1.57-4.517,1.191.257.929,4.517-1.191.634,2.3A6.865,6.865,0,0,1,61.019,54a7.083,7.083,0,0,1-8.673-4.777l-.638-2.291,4.718-1.246-.257-.928L51.449,46l-.431-1.562,4.718-1.246-.257-.929L50.759,43.5l-.433-1.57,4.72-1.239-.257-.928L50.069,41l-.257-.928A6.779,6.779,0,0,1,52.761,32.6l.985,3.456.8-.217L53.5,32.18a6.729,6.729,0,0,1,1.113-.439l1.078,3.78.8-.217-1.069-3.75a6.98,6.98,0,0,1,1.064-.116l1.023,3.589.8-.217-.954-3.346a7.318,7.318,0,0,1,2.877.881,6.776,6.776,0,0,1,3.3,4.117l.26.935Z" fill="#15342f"/>
            <path id="Trazado_1002474" data-name="Trazado 1002474" d="M69.249,43.308l-.807.22-.167-.6a.622.622,0,0,0-.742-.458h0a.6.6,0,0,0-.4.758l.209.757a10.407,10.407,0,0,1-.514,7.227,7.523,7.523,0,0,1-4.845,4.179l-1.093.288c-4.377,1.151-9.094-2.094-10.516-7.233a.623.623,0,0,0-.742-.458h0a.605.605,0,0,0-.4.758l.006.017-.66.18a.653.653,0,0,0-.431.826l.294,1.032a.673.673,0,0,0,.806.489l.88-.24c2.222,4.429,6.8,6.978,11.1,5.846l.072-.019,1.67,6.036c-.905.873-2.888,2.783-4.146,3.971-.243.23,0,.738.308.662l10.933-2.673c.314-.077.259-.64-.071-.726l-5.873-1.522L62.44,56.57A8.616,8.616,0,0,0,67.9,51.806a11.323,11.323,0,0,0,.993-5.871l1.027-.28a.653.653,0,0,0,.431-.826L70.055,43.8a.673.673,0,0,0-.806-.488" fill="#15342f"/>
            <path id="Trazado_1002475" data-name="Trazado 1002475" d="M72.58,118.678s-.12,4.48-.74,10.42c-.06.6-.13,1.21-.21,1.84-.07.67-.16,1.35-.25,2.04-.04.27-.08.54-.11.81-.12.82-.25,1.65-.38,2.48l-.009.054c-.1.6-.195,1.2-.3,1.806-.032.177-.056.352-.089.53-.15.81-.3,1.62-.47,2.43a.585.585,0,0,1-.02.13l-.18.81c-.06.26-.12.52-.18.77a.076.076,0,0,1-.01.04c-.13.53-.25,1.05-.38,1.56a.2.2,0,0,1-.01.05c-.13.52-.27,1.04-.42,1.55v.02c-.15.51-.31.99-.46,1.48a.076.076,0,0,0-.01.04l-.24.72c-.08.24-.17.48-.25.71-.05.13-.1.26-.14.39-.12.34-.25.68-.39,1,0,.01,0,.02-.01.02-.09.23-.18.44-.27.66s-.2.44-.3.65-.2.42-.3.62c-.09.18-.18.36-.28.54H3.09a39.491,39.491,0,0,0,.76-6.22,91.532,91.532,0,0,0-1.18-13.98c-.04-.25-.07-.49-.11-.74v-.03c-.01-.1-.03-.19-.04-.29-.45-3.26-.94-6.58-1.32-9.73a1.405,1.405,0,0,1-.02-.18c-.68-5.74-.97-10.93.03-14.24.17-.55.4-1.3.69-2.21.08-.26.17-.54.26-.83.68-2.15,1.61-5.04,2.68-8.38.29-.89.58-1.81.89-2.76.79-2.45,1.64-5.07,2.51-7.78.47-1.43.94-2.89,1.41-4.36.37-1.13.74-2.27,1.11-3.4.47-1.45.94-2.9,1.4-4.33.36-1.1.71-2.19,1.06-3.26.12-.36.24-.71.35-1.07.26-.82.53-1.63.79-2.43.08-.24.16-.48.23-.72.08-.26.17-.51.25-.77l.36-1.08c.15-.48.3-.95.46-1.42.18-.56.36-1.12.54-1.66.35-1.1.7-2.16,1.03-3.17.1-.31.2-.61.3-.91l.02-.06c.3-.92.58-1.79.85-2.6.07-.21.13-.42.2-.62.01-.04.02-.07.03-.1.31-.93.59-1.78.83-2.53a.949.949,0,0,1,.09-.21,1.772,1.772,0,0,1,.26-.49v-.01a2.743,2.743,0,0,1,.34-.41,2.67,2.67,0,0,1,1.14-.65,2.288,2.288,0,0,1,.36-.07,2.68,2.68,0,0,1,1.59.26,2.766,2.766,0,0,1,.79.59,19.5,19.5,0,0,1,2.73,3.81.055.055,0,0,1,.03.05,27.52,27.52,0,0,1,2.19,5.22c.09.29.18.59.26.9.29,1.05.54,2.14.73,3.24.07.34.12.68.18,1.02.05.29.09.59.13.88q.12.87.21,1.74v.01c.06.58.1,1.15.15,1.72a.014.014,0,0,1,0,.02,75.271,75.271,0,0,1,.07,9.08c-.04.75-.08,1.44-.13,2.06v.05c-.03.35-.06.67-.08.97-.02.21-.04.4-.05.58-.05.54-.1.98-.14,1.3-.04.37-.07.57-.07.57l.07.26.76,2.72,11.07,39.85.99-.24.27-.07.45-.1,11.77-2.85Z" fill="#b57b8b"/>
            <path id="Trazado_1002477" data-name="Trazado 1002477" d="M14.1,65.43a10.457,10.457,0,0,0,6.2-6.3,13.463,13.463,0,0,0-.072-8.953Z" fill="#e2fff2"/>
            <path id="Trazado_1002478" data-name="Trazado 1002478" d="M43.8,125.376a2.352,2.352,0,0,1,.053.268,158.835,158.835,0,0,1,2.725,17.909.379.379,0,0,1-.241.394.305.305,0,0,1-.1.015.369.369,0,0,1-.406-.332,159.752,159.752,0,0,0-2.7-17.812l-.063-.265Z" fill="#502750"/>
            <path id="Trazado_1002479" data-name="Trazado 1002479" d="M32.27,99.918a.376.376,0,0,1-.31.43.381.381,0,0,1-.43-.31c-.01-.04-.62-4.06-1.05-9.01-.14-1.62-.17-4.32-.17-7.55v-7.31c0-4.7-.05-9.47-.34-12.95a.708.708,0,0,1-.01-.14c-.02-.2-.04-.39-.06-.58a19.6,19.6,0,0,0-3.11-8.64.055.055,0,0,0-.03-.05,14.117,14.117,0,0,0-3.32-3.63c-.03-.02-.05-.04-.08-.06a4.4,4.4,0,0,0-1.66-.79,2.636,2.636,0,0,0-.38-.03,2.023,2.023,0,0,0-.26.04,2.746,2.746,0,0,0-.76,1.07c-.09.18-.19.38-.3.61-.07.17-.16.35-.24.54-.31.71-.66,1.56-1.03,2.55-1.08,2.81-2.41,6.65-3.83,11-3.52,10.73-7.66,24.49-10.25,33.1-1.42,4.74-2.55,8.48-3.14,10.31-1.02,3.19-.9,7.91-.33,13.16a1.405,1.405,0,0,0,.02.18c.33,3.13.82,6.45,1.32,9.73.01.1.03.19.04.29v.03c.02.09.03.19.05.28.02.15.04.31.06.46a112.676,112.676,0,0,1,1.58,14.78,31.891,31.891,0,0,1-.52,5.42H2.98a31.875,31.875,0,0,0,.52-5.41,118.716,118.716,0,0,0-1.69-15.45c-1.34-9.03-2.73-18.36-1.01-23.7.59-1.83,1.71-5.56,3.13-10.29,6.72-22.35,11.59-37.94,14.49-45.05.39-.96.75-1.76,1.07-2.4.08-.18.17-.35.25-.51.47-.88.85-1.36,1.14-1.43.08-.02.16-.03.24-.05a2.285,2.285,0,0,1,.37,0,3.953,3.953,0,0,1,1.67.54c.21.12.42.26.64.41,2.97,2.08,6.27,7.19,6.84,12.91.42,4.24.43,10.7.42,16.6v1.15c0,2.19-.01,4.23.01,6v.03c.02,1.99.06,3.64.16,4.76.43,4.93,1.04,8.92,1.04,8.96" fill="#502750"/>
          </g>
        </g>
      </g>
    </g>
  </g>
</svg>
