<svg xmlns="http://www.w3.org/2000/svg" xmlns:xlink="http://www.w3.org/1999/xlink" width="84" height="84" viewBox="0 0 84 84">
  <defs>
    <clipPath id="clip-path">
      <rect id="Rectángulo_456519" data-name="Rectángulo 456519" width="51.509" height="60.826" fill="#12263f"/>
    </clipPath>
  </defs>
  <g id="Grupo_1191924" data-name="Grupo 1191924" transform="translate(-706 -1685.277)">
    <g id="Grupo_1177731" data-name="Grupo 1177731">
      <g id="Grupo_1119665" data-name="Grupo 1119665" transform="translate(530.111 -3835.723)">
        <path id="Trazado_991847" data-name="Trazado 991847" d="M5,0H79a5,5,0,0,1,5,5V79a5,5,0,0,1-5,5H5a5,5,0,0,1-5-5V5A5,5,0,0,1,5,0Z" transform="translate(175.889 5521)" fill="#a0f7fe"/>
      </g>
      <g id="Grupo_1192141" data-name="Grupo 1192141" transform="translate(722.246 1696.865)">
        <g id="Grupo_1192140" data-name="Grupo 1192140" clip-path="url(#clip-path)">
          <path id="Trazado_1003565" data-name="Trazado 1003565" d="M103.15,8.138A8.138,8.138,0,1,1,95.011,0a8.138,8.138,0,0,1,8.138,8.138m-1.73,0a6.408,6.408,0,1,0-6.408,6.408,6.408,6.408,0,0,0,6.408-6.408" transform="translate(-69.814)" fill="#12263f"/>
          <path id="Trazado_1003566" data-name="Trazado 1003566" d="M118.416,53.354l-4.17.03a.89.89,0,0,1-.942-.688c-.059-.338.047-.941.565-.981,1.51-.117,2.981-.019,4.5-.046a.843.843,0,0,1,.048,1.685" transform="translate(-91.043 -41.512)" fill="#12263f"/>
          <path id="Trazado_1003567" data-name="Trazado 1003567" d="M104.5,34.709c-1.443.1-3.357.335-3.341-.894a.866.866,0,0,1,.983-.826l2.327.01a.8.8,0,0,1,.852.809.851.851,0,0,1-.823.9" transform="translate(-81.299 -26.511)" fill="#12263f"/>
          <path id="Trazado_1003568" data-name="Trazado 1003568" d="M137.527,34.579c-1.486.077-3.313.325-3.343-.882-.029-1.154,1.936-.842,3.308-.836a.836.836,0,0,1,.874.821.861.861,0,0,1-.839.9" transform="translate(-107.835 -26.374)" fill="#12263f"/>
          <path id="Trazado_1003569" data-name="Trazado 1003569" d="M195.706,33.937a8.138,8.138,0,1,1-8.138-8.137,8.138,8.138,0,0,1,8.138,8.137m-1.73,0a6.408,6.408,0,1,0-6.408,6.408,6.408,6.408,0,0,0,6.408-6.408" transform="translate(-144.197 -20.734)" fill="#12263f"/>
          <path id="Trazado_1003570" data-name="Trazado 1003570" d="M210.674,79.019c-1.215.508-.971-1.29-2.695-1.286-1.51,0-1.418,1.641-2.532,1.309a.861.861,0,0,1-.5-1.14,3.431,3.431,0,0,1,6.174.056.868.868,0,0,1-.448,1.061" transform="translate(-164.647 -61.073)" fill="#12263f"/>
          <path id="Trazado_1003571" data-name="Trazado 1003571" d="M195.666,56.771c.63.18.327-1.036,1.132-1.185a.819.819,0,0,1,1.042.62,2.077,2.077,0,0,1-2.019,2.327,2.1,2.1,0,0,1-2.167-2.281.785.785,0,0,1,.774-.68c1.056-.081.749,1.06,1.238,1.2" transform="translate(-155.621 -44.656)" fill="#12263f"/>
          <path id="Trazado_1003572" data-name="Trazado 1003572" d="M228.575,56.734c.666.217.3-1.027,1.151-1.2a.825.825,0,0,1,1.035.639,2.084,2.084,0,0,1-1.827,2.305,2.12,2.12,0,0,1-2.371-1.968.855.855,0,0,1,.615-.965.865.865,0,0,1,1.094.771.529.529,0,0,0,.3.417" transform="translate(-182.071 -44.614)" fill="#12263f"/>
          <path id="Trazado_1003573" data-name="Trazado 1003573" d="M16.275,49.046a8.137,8.137,0,1,1-8.137-8.137,8.137,8.137,0,0,1,8.137,8.137m-1.729,0a6.408,6.408,0,1,0-6.408,6.408,6.408,6.408,0,0,0,6.408-6.408" transform="translate(0 -32.876)" fill="#12263f"/>
          <path id="Trazado_1003574" data-name="Trazado 1003574" d="M28.353,92.376c1.768.1,1.559-1.611,2.672-1.308a.821.821,0,0,1,.566,1.075,3.329,3.329,0,0,1-2.856,1.978,3.507,3.507,0,0,1-3.245-1.74.849.849,0,0,1,.318-1.234c1.053-.616,1.148,1.149,2.546,1.229" transform="translate(-20.368 -73.145)" fill="#12263f"/>
          <path id="Trazado_1003575" data-name="Trazado 1003575" d="M17.682,73.505c-1.011.067-.739-1.013-1.183-1.2-.638-.264-.375,1.053-1.19,1.175a.824.824,0,0,1-1.02-.608,2.1,2.1,0,1,1,4.185-.172.807.807,0,0,1-.793.8" transform="translate(-11.466 -56.68)" fill="#12263f"/>
          <path id="Trazado_1003576" data-name="Trazado 1003576" d="M50.748,73.491c-1.135.223-.933-1.016-1.335-1.17-.736-.281-.344,1.222-1.358,1.2a.828.828,0,0,1-.889-.817,2.114,2.114,0,1,1,4.226.008.831.831,0,0,1-.644.779" transform="translate(-37.903 -56.684)" fill="#12263f"/>
          <path id="Trazado_1003577" data-name="Trazado 1003577" d="M45.966,131.976c-.826,0-1.073-.543-1.074-1.182l-.013-5.371c-5.347-.537-7.413-4.924-7.16-9.916l-3.068-.046a1.893,1.893,0,0,1-1.462-.874,2.025,2.025,0,0,1-.2-2.006l4.756-8.864c.2-9.142,6.668-15.133,15.738-15.18a18.535,18.535,0,0,1,7.533,1.341,12.936,12.936,0,0,1,7.4,8.505,22.093,22.093,0,0,1,.674,7.51A20.862,20.862,0,0,1,65.26,117l-2.794,3.932a6.211,6.211,0,0,0-1.246,3.587l-.012,6.466a.937.937,0,0,1-1.044,1Zm.732-1.743,12.786-.02.06-6.308a7.658,7.658,0,0,1,1.7-4.232l2.662-3.763a19.718,19.718,0,0,0,3.5-11.826,17.352,17.352,0,0,0-.989-6.229,11.155,11.155,0,0,0-6.034-6.37,16.863,16.863,0,0,0-6.9-1.212C45.2,90.251,39.43,95.923,39.457,104.19l-5.033,9.394c1.515.427,2.88.061,4.283.212,1.327.142.369,2.495,1.014,5.188a5.892,5.892,0,0,0,5.923,4.739.943.943,0,0,1,.988.972c.044,1.866-.079,3.622.067,5.539" transform="translate(-26.363 -71.152)" fill="#12263f"/>
          <path id="Trazado_1003578" data-name="Trazado 1003578" d="M103.982,125.861c-.149,1.736-2.012,1.5-3.511,1.431-1.917-.084-1.033-2.151-2.178-2.665-1.473-.661-2.185,1.688-3.666.221l-1.282-1.269c-1.6-1.583.8-2.232.133-3.762a1.378,1.378,0,0,0-1.167-.706c-1.8-.167-1.535-1.913-1.495-3.458.051-1.989,2.1-1.108,2.645-2.215.736-1.482-1.718-2.259-.143-3.753.507-.481.936-1.02,1.487-1.448,1.4-1.091,2.023.959,3.462.369,1.172-.48.268-2.6,2.244-2.682,1.426-.059,3.326-.312,3.486,1.495a1.359,1.359,0,0,0,.719,1.172,1.22,1.22,0,0,0,1.449-.188c1.411-1.251,2.675.327,3.658,1.454,1.215,1.393-.871,2.149-.37,3.394a1.346,1.346,0,0,0,1.217.867c1.8.123,1.6,2.024,1.522,3.473-.111,2.01-2.134,1.04-2.7,2.275a1.326,1.326,0,0,0,.242,1.463c1.246,1.422-.357,2.5-1.292,3.463-1.479,1.527-2.26-.727-3.654-.2a1.385,1.385,0,0,0-.812,1.266m.347-2.927a3.21,3.21,0,0,1,2.943.511,3.357,3.357,0,0,0,1.047-1.1,3.068,3.068,0,0,1,2.082-4.962c.063-.432.224-1.3-.118-1.5a3.392,3.392,0,0,1-2.331-1.755,3.065,3.065,0,0,1,.375-3.238,2.679,2.679,0,0,0-1.117-1.1,3.017,3.017,0,0,1-3.118.414,2.964,2.964,0,0,1-1.8-2.422,2.617,2.617,0,0,0-1.557-.066,3.067,3.067,0,0,1-4.977,2.067,3.994,3.994,0,0,0-1.105,1.049,3.189,3.189,0,0,1,.42,3.24,3.472,3.472,0,0,1-2.379,1.819,1.441,1.441,0,0,0,.014,1.464,3.3,3.3,0,0,1,2.452,2.008,3.36,3.36,0,0,1-.506,3.074,11.646,11.646,0,0,0,1.065,1.046A3.081,3.081,0,0,1,98.879,123a3.567,3.567,0,0,1,1.921,2.383c2.409,1.016.8-1.57,3.53-2.453" transform="translate(-72.954 -85.089)" fill="#12263f"/>
          <path id="Trazado_1003579" data-name="Trazado 1003579" d="M128.132,137.736a5.576,5.576,0,1,1-5.576-5.576,5.576,5.576,0,0,1,5.576,5.576m-1.722,0a3.854,3.854,0,1,0-3.853,3.853,3.853,3.853,0,0,0,3.853-3.853" transform="translate(-94.01 -106.209)" fill="#12263f"/>
        </g>
      </g>
    </g>
  </g>
</svg>
