<svg xmlns="http://www.w3.org/2000/svg" xmlns:xlink="http://www.w3.org/1999/xlink" width="150" height="150" viewBox="0 0 150 150">
  <defs>
    <clipPath id="clip-path">
      <rect id="Rectángulo_456504" data-name="Rectángulo 456504" width="85.924" height="85.95" fill="#15342f"/>
    </clipPath>
  </defs>
  <g id="Grupo_1179175" data-name="Grupo 1179175" transform="translate(-383.746 -8400)">
    <circle id="Elipse_13609" data-name="Elipse 13609" cx="75" cy="75" r="75" transform="translate(383.746 8400)" fill="#fff"/>
    <g id="Grupo_1192111" data-name="Grupo 1192111" transform="translate(415.784 8432.025)">
      <g id="Grupo_1192110" data-name="Grupo 1192110" clip-path="url(#clip-path)">
        <path id="Trazado_1003486" data-name="Trazado 1003486" d="M176.789,27.069a5.709,5.709,0,1,1-5.709-5.709,5.709,5.709,0,0,1,5.709,5.709m-2.862,0a2.848,2.848,0,1,0-2.849,2.849,2.849,2.849,0,0,0,2.849-2.849" transform="translate(-120.952 -15.623)" fill="#15342f"/>
        <path id="Trazado_1003487" data-name="Trazado 1003487" d="M48.783,96.4a5.708,5.708,0,1,1-5.708-5.708A5.708,5.708,0,0,1,48.783,96.4m-2.86.005a2.849,2.849,0,1,0-2.849,2.849A2.849,2.849,0,0,0,45.923,96.4" transform="translate(-27.33 -66.331)" fill="#15342f"/>
        <path id="Trazado_1003488" data-name="Trazado 1003488" d="M49.744,73.749a15.772,15.772,0,0,1-31.063-2.067l-7.466.046a5.729,5.729,0,0,1-6.35,4.11,5.718,5.718,0,1,1,6.4-7.11l7.419-.041a15.763,15.763,0,0,1,29.375-6.3l5.764-4.26a15.842,15.842,0,0,1,10.967-20.4l-6.408-8.539a15.611,15.611,0,0,1-15.384.6,16.052,16.052,0,0,1-8.367-11.1l-6.689,5.672a16.746,16.746,0,0,1,3.583,9.313l7.933,6.165a5.726,5.726,0,1,1,.889,9.629,5.805,5.805,0,0,1-2.67-7.336l-6.4-4.973A15.765,15.765,0,1,1,14.258,18.673l.021-7.418A5.723,5.723,0,0,1,15.715,0a5.705,5.705,0,0,1,5.661,4.761A5.775,5.775,0,0,1,17.2,11.271l-.011,7.349a16.674,16.674,0,0,1,8.686,3.692l8.509-7.273a15.767,15.767,0,0,1,31.329-1.7l10.816,5.183a5.715,5.715,0,1,1,.982,9.406,5.764,5.764,0,0,1-2.688-7l-8.944-4.323A16.134,16.134,0,0,1,60.7,27.427l7.349,9.843A15.748,15.748,0,1,1,55.056,60.8l-5.724,4.253a20.4,20.4,0,0,1,.79,5.666l10.6,5c2.318-1.414,5.368-1.776,7.511.193a5.718,5.718,0,0,1-6.3,9.421,5.836,5.836,0,0,1-2.88-7.131ZM18.591,5.714a2.846,2.846,0,1,0-2.846,2.846,2.846,2.846,0,0,0,2.846-2.846m36.073,14.4c2.772.133,4.182,2.525,4.16,5.088a12.866,12.866,0,1,0-17.347.006c-.126-2.686,1.487-4.984,4.173-5.1,2.96-.129,5.88-.143,9.014.007m28.394,2.788a2.847,2.847,0,1,0-2.846,2.846,2.846,2.846,0,0,0,2.846-2.846M19.875,38.676c2.793,0,4.639,2.214,4.543,5.172A12.862,12.862,0,1,0,7.1,43.871c-.146-3.078,1.826-5.211,4.7-5.207ZM55.8,27.283a14.042,14.042,0,0,0-.057-3.317,1.508,1.508,0,0,0-1.536-1.043l-8.186.015c-2.175,0-1.611,2.76-1.542,4.337a13.052,13.052,0,0,0,11.321.008M73.107,57.334c2.744.012,4.365,2.27,4.308,5.119a12.854,12.854,0,1,0-17.386-.011c.015-2.949,1.813-5.157,4.717-5.144ZM21.43,45.875c.038-1.8.529-4.328-1.555-4.327l-8.341.008c-2.086,0-1.441,2.895-1.473,4.319a12.723,12.723,0,0,0,11.369,0M45.815,44.4a2.848,2.848,0,1,0-2.848,2.849A2.848,2.848,0,0,0,45.815,44.4M38.769,74.54c2.739.078,4.359,2.337,4.243,5.153a12.866,12.866,0,1,0-17.318-.061c-.058-2.752,1.557-4.992,4.174-5.087,2.933-.106,5.817-.094,8.9-.005M74.5,64.455l-.019-2.7a1.591,1.591,0,0,0-1.678-1.6l-8.095,0c-2.243,0-1.73,2.866-1.561,4.41A12.858,12.858,0,0,0,74.5,64.455M8.565,70.182a2.846,2.846,0,1,0-2.846,2.846,2.846,2.846,0,0,0,2.846-2.846m31.5,11.48a24.484,24.484,0,0,0-.021-2.973A1.553,1.553,0,0,0,38.4,77.347H30.329c-2.247,0-1.764,2.924-1.515,4.428a12.775,12.775,0,0,0,11.254-.114M67.3,80.208a2.846,2.846,0,1,0-2.846,2.846A2.846,2.846,0,0,0,67.3,80.208" transform="translate(0 0)" fill="#15342f"/>
        <path id="Trazado_1003489" data-name="Trazado 1003489" d="M246.125,165.75a5.711,5.711,0,1,1-5.711-5.711,5.711,5.711,0,0,1,5.711,5.711m-2.869,0a2.844,2.844,0,1,0-2.844,2.844,2.844,2.844,0,0,0,2.844-2.844" transform="translate(-171.661 -117.052)" fill="#15342f"/>
        <path id="Trazado_1003490" data-name="Trazado 1003490" d="M118.122,229.726a5.708,5.708,0,1,1-5.708-5.708,5.708,5.708,0,0,1,5.708,5.708m-2.86.006a2.849,2.849,0,1,0-2.849,2.849,2.849,2.849,0,0,0,2.849-2.849" transform="translate(-78.045 -163.846)" fill="#15342f"/>
      </g>
    </g>
  </g>
</svg>
