<svg xmlns="http://www.w3.org/2000/svg" xmlns:xlink="http://www.w3.org/1999/xlink" width="80" height="80" viewBox="0 0 80 80">
  <defs>
    <clipPath id="clip-path">
      <rect id="Rectángulo_456532" data-name="Rectángulo 456532" width="54.929" height="56.743" fill="#12263f"/>
    </clipPath>
  </defs>
  <g id="Grupo_1191990" data-name="Grupo 1191990" transform="translate(-175.889 -5521)">
    <rect id="Rectángulo_402006" data-name="Rectángulo 402006" width="80" height="80" rx="5" transform="translate(175.889 5521)" fill="#a0f7fe"/>
    <g id="Grupo_1192167" data-name="Grupo 1192167" transform="translate(188.425 5532.628)">
      <g id="Grupo_1192166" data-name="Grupo 1192166" clip-path="url(#clip-path)">
        <path id="Trazado_1003671" data-name="Trazado 1003671" d="M174.295,194.389c-1.941-1.67-.195-3.707-.319-3.968-.052-.11-.208-.37-.425-.253a22.887,22.887,0,0,1-7.327,2.735,3.039,3.039,0,0,1-3.312-2.524,3.074,3.074,0,0,1,2.338-3.529,13.829,13.829,0,0,0,3.1-1.014l.029-3.514c.015-1.823,1.716-2.374,3.516-4.587,1.371-1.686,3.629-.748,5.649-1.085a16.355,16.355,0,0,0,1-3.114,3.067,3.067,0,0,1,3.78-2.252,3.108,3.108,0,0,1,2.2,3.776,25.516,25.516,0,0,1-2.46,6.429c-.088.163.463.588.616.472a2.718,2.718,0,0,1,3.516.043,2.69,2.69,0,0,1,.188,3.755c.568.8,1.368,1.354,1.979,2.1,1.085,1.329.45,2.929-.857,3.87-.083.629-.014,1.451-.5,1.943l-3.1,3.113a2.436,2.436,0,0,1-3.5.072c-.877-.845-1.649-1.722-2.59-2.528a2.657,2.657,0,0,1-3.519.057m-4.289-7.892c-.009.956-3.614,1.795-4.358,1.975a1.417,1.417,0,0,0-1.081,1.688,1.4,1.4,0,0,0,1.674,1.065,20.673,20.673,0,0,0,6.651-2.647,6.048,6.048,0,0,1,7.6-7.775,20.116,20.116,0,0,0,2.416-6.275,1.372,1.372,0,0,0-1.129-1.644,1.417,1.417,0,0,0-1.655,1.173,15.355,15.355,0,0,1-1.5,4.171c-1.089.417-4.757-.131-5.261.409a22,22,0,0,1-2.844,2.818,1.359,1.359,0,0,0-.475,1.079Zm14.891.236-3.374-3.375a4.33,4.33,0,0,0-6.209,6.026l1.992,2,2.373-2.347c2.342-2.316,3.631.093,5.218-2.307m.285-2.174a.956.956,0,0,0-.111-1.317.86.86,0,0,0-1.21.012,6.474,6.474,0,0,0,1.322,1.3m-2.514,11.093,2.981-2.973c.451-.45-.422-.99-.12-1.609.282-.576,1.876-.858,1.67-1.809a2.313,2.313,0,0,0-1.2-1.288c-2.165,2.8-3.607.734-5.016,2.144l-2.46,2.461,2.987,3.031a.756.756,0,0,0,1.153.043m-6.194-2.582a4.3,4.3,0,0,0-1.178-1.265.94.94,0,0,0,.08,1.331c.221.246,1.166.3,1.1-.066" transform="translate(-133.986 -140.824)" fill="#12263f"/>
        <path id="Trazado_1003672" data-name="Trazado 1003672" d="M240.753,244.592c-.04,1.337-1.784.243-1.745,1.521.016.511-.2.937-.654,1.013a.819.819,0,0,1-.99-.651,2.285,2.285,0,0,1,.534-1.973,2.243,2.243,0,0,1,2.185-.721.783.783,0,0,1,.671.811" transform="translate(-195.234 -200.516)" fill="#12263f"/>
        <path id="Trazado_1003673" data-name="Trazado 1003673" d="M242.3,267.128a.844.844,0,1,1-.844-.844.844.844,0,0,1,.844.844" transform="translate(-197.943 -219.067)" fill="#12263f"/>
        <path id="Trazado_1003674" data-name="Trazado 1003674" d="M261.671,247.8a.839.839,0,1,1-.839-.839.839.839,0,0,1,.839.839" transform="translate(-213.89 -203.167)" fill="#12263f"/>
        <path id="Trazado_1003675" data-name="Trazado 1003675" d="M114.877,117.633a8.282,8.282,0,1,0-2.146,2.22.844.844,0,0,1,1.085.364.867.867,0,0,1-.221,1.036,9.911,9.911,0,1,1,2.774-2.913.848.848,0,0,1-1.012.359c-.262-.086-.769-.6-.48-1.066" transform="translate(-80.631 -84.889)" fill="#12263f"/>
        <path id="Trazado_1003676" data-name="Trazado 1003676" d="M140.265,160.194c1.814.1.908-1.982,2.129-2.08a.832.832,0,0,1,.906.877,2.944,2.944,0,0,1-5.888-.128.82.82,0,0,1,.872-.753c1.238.08.333,1.989,1.98,2.083" transform="translate(-113.045 -130.074)" fill="#12263f"/>
        <path id="Trazado_1003677" data-name="Trazado 1003677" d="M130.706,145.442a.856.856,0,1,1-.856-.856.856.856,0,0,1,.856.856" transform="translate(-106.121 -118.948)" fill="#12263f"/>
        <path id="Trazado_1003678" data-name="Trazado 1003678" d="M171.044,145.438a.856.856,0,1,1-.856-.856.856.856,0,0,1,.856.856" transform="translate(-139.306 -118.945)" fill="#12263f"/>
        <path id="Trazado_1003679" data-name="Trazado 1003679" d="M184.918,25.365a6.227,6.227,0,0,0,1.526-6.346,6.358,6.358,0,0,0-4.468-4.23.827.827,0,0,1,.5-1.577,7.984,7.984,0,0,1,3.593,13.369L182.8,29.866a25.488,25.488,0,0,1,1.762,5.394,3.074,3.074,0,0,1-2.592,3.5,3.118,3.118,0,0,1-3.492-2.527,12.392,12.392,0,0,0-.97-2.942l-3.478-.033c-1.949-.019-2.273-1.632-4.569-3.46a2.882,2.882,0,0,1-1.1-2.261V24.13a15.373,15.373,0,0,0-3.059-1,3.076,3.076,0,0,1,1.249-6.023,25.648,25.648,0,0,1,4.818,1.564l3.48-3.454c.785-.779,3.725-2.913,4.369-1.468.562,1.262-1.45.882-3.29,2.728L172.128,20.3a1.317,1.317,0,0,0-.36,1.224,1.542,1.542,0,0,0,.847,1.056,5.871,5.871,0,0,1,1.527-2.754l2.294-2.3a.966.966,0,0,1,1.494.083c.98.984,1.895,1.99,2.936,2.892.834.183,2.01-.227,2.507.607.54.907-.149,1.4-.12,1.712.036.386,1.43,1.113.729,1.9-.837.941-1.749,1.77-2.635,2.666a5.707,5.707,0,0,1-2.514,1.336,1.232,1.232,0,0,0,.89.834,1.4,1.4,0,0,0,1.424-.409Zm-3.023,11.693c2.206-.544.124-4.43-.445-6.035-3.193,1.113-4.154-1.8-5.429-2.434a6.576,6.576,0,0,1-3.24-3.244c-.584-1.211-3.474-2.207-2.5-5.284a19.852,19.852,0,0,0-3.98-1.317,1.414,1.414,0,0,0-1.756,1.146,1.441,1.441,0,0,0,1.126,1.619,19.18,19.18,0,0,1,3.885,1.306.864.864,0,0,1,.46.8l.023,3.885a1.412,1.412,0,0,0,.591,1.126,13.958,13.958,0,0,1,2.476,2.483c.807,1.015,3.9.24,5.46.59,1.588,2.048.983,5.94,3.328,5.362m.275-12.874a1.839,1.839,0,0,1-.841-1.939c-.461-.1-.97.071-1.281-.227l-2.926-2.8L175.227,21.1a3.556,3.556,0,0,0,5.028,5.028c.664-.633,1.271-1.227,1.914-1.943" transform="translate(-133.979 -10.845)" fill="#12263f"/>
        <path id="Trazado_1003680" data-name="Trazado 1003680" d="M235.452,68.112c.04,1.2,1.386.156,1.508,1.365a.808.808,0,0,1-.537.851,2.025,2.025,0,0,1-1.947-.458,2.1,2.1,0,0,1-.637-1.9.789.789,0,0,1,.8-.706c.479-.009.8.274.815.847" transform="translate(-192.351 -55.337)" fill="#12263f"/>
        <path id="Trazado_1003681" data-name="Trazado 1003681" d="M239.208,55.626a.835.835,0,1,1-.835-.835.835.835,0,0,1,.835.835" transform="translate(-195.417 -45.075)" fill="#12263f"/>
        <path id="Trazado_1003682" data-name="Trazado 1003682" d="M256.267,72.7a.833.833,0,1,1-.833-.833.833.833,0,0,1,.833.833" transform="translate(-209.455 -59.123)" fill="#12263f"/>
        <path id="Trazado_1003683" data-name="Trazado 1003683" d="M19.849,18.969c-2.018,1.582-2.7,3.383-4.26,3.413l-3.8.074a15.419,15.419,0,0,0-1,3.1,3.075,3.075,0,1,1-5.99-1.4,23.654,23.654,0,0,1,2.681-6.889c.11-.192-.343-.53-.517-.4A2.613,2.613,0,0,1,3.374,13.09L.665,10.322A2.408,2.408,0,0,1,.721,6.944L7.375.315C8.06-.367,8.863.2,9.394.688a5.939,5.939,0,0,1,2.176,4.1,2.8,2.8,0,0,1,3.687-.118,2.565,2.565,0,0,1,.4,3.416c-.162.227-.194.411-.089.556.172.237.363.249.624.1a22.308,22.308,0,0,1,6.67-2.493,3.033,3.033,0,0,1,3.524,2.379A3.084,3.084,0,0,1,23.964,12.3a17.684,17.684,0,0,0-2.971.942c-.281,2.02.6,4.362-1.144,5.726M4.11,11.391,9.054,6.414A2.665,2.665,0,0,0,8.834,2.52c-.241-.212-.367-.471-.731-.6L2.15,7.844c-.329.327-.69.844-.308,1.276A31.544,31.544,0,0,0,4.11,11.391M14.224,7.179a.855.855,0,0,0-.048-1.232.916.916,0,0,0-1.22-.026,8.026,8.026,0,0,0,1.269,1.258M8.263,15.543a4.211,4.211,0,0,0,5.831-6.067l-2.94-2.953c-.387.224-.466.61-.753.9l-5.126,5.16c1.032,1.021,1.906,2,2.988,2.961m6.894,5.228c1.059,0,1.662-1.563,3.5-2.962,1.231-.936.373-3.685.7-5.565a13.26,13.26,0,0,1,4.094-1.517,1.488,1.488,0,0,0,1.313-1.721,1.429,1.429,0,0,0-1.805-1.1,21.329,21.329,0,0,0-6.356,2.54,5.913,5.913,0,0,1-7.553,7.489A20.558,20.558,0,0,0,6.4,24.671a1.356,1.356,0,0,0,1.127,1.564c1.968.3,1.506-1.89,2.945-4.95a.875.875,0,0,1,.861-.5ZM5.828,15.562a6.536,6.536,0,0,0-1.24-1.225A.849.849,0,0,0,4.681,15.6a.84.84,0,0,0,1.146-.038" transform="translate(0 -0.001)" fill="#12263f"/>
        <path id="Trazado_1003684" data-name="Trazado 1003684" d="M58.005,68.288a.845.845,0,0,1-.756-.9c.087-.971,1.122-.638,1.527-.911s-.077-1.391.812-1.526a.785.785,0,0,1,.972.568,2.207,2.207,0,0,1-.5,2.026,2.27,2.27,0,0,1-2.053.746" transform="translate(-47.095 -53.42)" fill="#12263f"/>
        <path id="Trazado_1003685" data-name="Trazado 1003685" d="M64.268,51.373a.842.842,0,1,1-.842-.842.842.842,0,0,1,.842.842" transform="translate(-51.487 -41.571)" fill="#12263f"/>
        <path id="Trazado_1003686" data-name="Trazado 1003686" d="M44.632,71.008a.841.841,0,1,1-.841-.841.841.841,0,0,1,.841.841" transform="translate(-35.333 -57.725)" fill="#12263f"/>
        <path id="Trazado_1003687" data-name="Trazado 1003687" d="M16.5,179.884a.793.793,0,0,1,.385-1.117c1.219-.458,1.3,1.206,2.068,2.157a5.918,5.918,0,0,1,7.55,7.647,20.592,20.592,0,0,0,6.547,2.623,1.4,1.4,0,0,0,1.757-1.173,1.477,1.477,0,0,0-1.285-1.63,13.47,13.47,0,0,1-4.126-1.529l-.074-4.392c0-.26-.081-.759-.332-.922-1.232-.8-2.039-2.114-3.161-3.028-1.228-.58-4.8.536-5.392-.827A20.667,20.667,0,0,1,19.217,174a1.422,1.422,0,0,0-1.835-1.1,1.442,1.442,0,0,0-.908,1.846,6.27,6.27,0,0,1,.242,1.006.8.8,0,0,1-.621.991c-1.005.182-1.233-1.264-1.327-2.249a3.059,3.059,0,0,1,2.618-3.315,3.093,3.093,0,0,1,3.451,2.433,16.852,16.852,0,0,0,.961,3.021c1.989.305,4.364-.6,5.7,1.118,1.77,2.273,3.432,2.6,3.459,4.54l.048,3.531a14.833,14.833,0,0,0,3.046.988,3.072,3.072,0,0,1,2.31,3.851,3.131,3.131,0,0,1-3.856,2.143,24.157,24.157,0,0,1-6.586-2.634.3.3,0,0,0-.423.085c-.216.291,1.605,2.129-.222,3.857a2.649,2.649,0,0,1-3.635-.029,5.9,5.9,0,0,1-8.262-8.262,2.656,2.656,0,0,1-.125-3.56,2.611,2.611,0,0,1,3.632-.292c.184.146.587-.136.492-.326Zm4.745,12.324,2.707-2.718a4.222,4.222,0,0,0-5.885-6.054l-3.1,3.11a4.166,4.166,0,0,0,.293,5.989,4.27,4.27,0,0,0,5.985-.327m-5.453-8.931a.859.859,0,0,0-1.266.085.763.763,0,0,0,.052,1.15,7.584,7.584,0,0,0,1.214-1.235m7.134,9.661a.9.9,0,0,0,1.264-.084.961.961,0,0,0,.012-1.2,7.182,7.182,0,0,0-1.276,1.283" transform="translate(-10.026 -140.802)" fill="#12263f"/>
        <path id="Trazado_1003688" data-name="Trazado 1003688" d="M58.259,247.842c-1.008-.149-.536-1.268-.894-1.547-.435-.338-1.361.047-1.517-.788a.809.809,0,0,1,.522-.982,2.253,2.253,0,0,1,2.741,2.788.821.821,0,0,1-.852.529" transform="translate(-45.93 -201.091)" fill="#12263f"/>
        <path id="Trazado_1003689" data-name="Trazado 1003689" d="M62.747,269.283a.844.844,0,1,1-.844-.844.844.844,0,0,1,.844.844" transform="translate(-50.232 -220.839)" fill="#12263f"/>
        <path id="Trazado_1003690" data-name="Trazado 1003690" d="M43.141,249.655a.84.84,0,1,1-.84-.84.84.84,0,0,1,.84.84" transform="translate(-34.11 -204.695)" fill="#12263f"/>
      </g>
    </g>
  </g>
</svg>
