<svg xmlns="http://www.w3.org/2000/svg" xmlns:xlink="http://www.w3.org/1999/xlink" width="396" height="316" viewBox="0 0 396 316">
  <defs>
    <clipPath id="clip-path">
      <rect id="Rectángulo_456471" data-name="Rectángulo 456471" width="396" height="299.453" fill="none"/>
    </clipPath>
  </defs>
  <g id="Grupo_1192039" data-name="Grupo 1192039" transform="translate(-185.711 -2492)">
    <rect id="Rectángulo_456214" data-name="Rectángulo 456214" width="396" height="316" transform="translate(185.711 2492)" fill="none"/>
    <g id="Grupo_1192038" data-name="Grupo 1192038" transform="translate(185.711 2500.005)">
      <g id="Grupo_1192037" data-name="Grupo 1192037" transform="translate(0 -0.005)" clip-path="url(#clip-path)">
        <path id="Trazado_1002886" data-name="Trazado 1002886" d="M151.6,248.08c-.758-2.353-1.507-4.791-2.228-7.247l1.776-.535c.716,2.44,1.461,4.862,2.213,7.2Zm317.734-3.039-1.839-.23c.305-2.5.6-5.027.862-7.5l1.842.2c-.267,2.479-.558,5.01-.865,7.524M147.322,233.534c-.648-2.427-1.277-4.9-1.869-7.347l1.8-.447c.589,2.433,1.214,4.891,1.858,7.3Zm323.631-3.552-1.845-.177c.234-2.515.452-5.044.645-7.519l1.847.148c-.194,2.484-.412,5.023-.648,7.547M143.76,218.8c-.535-2.472-1.044-4.972-1.514-7.43l1.819-.357c.466,2.443.972,4.927,1.5,7.384Zm328.373-3.92-1.849-.119c.157-2.513.294-5.048.409-7.534l1.851.088c-.115,2.5-.253,5.042-.41,7.565M140.918,203.9c-.412-2.5-.794-5.026-1.134-7.5l1.835-.259c.338,2.458.717,4.965,1.126,7.451Zm331.908-4.16-1.852-.054c.072-2.524.122-5.062.148-7.543l1.853.02c-.026,2.492-.076,5.042-.149,7.577M138.855,188.868c-.276-2.528-.517-5.07-.715-7.556l1.847-.151c.2,2.468.435,4.991.709,7.5ZM471.13,184.6c-.022-2.526-.069-5.063-.141-7.54l1.852-.055c.072,2.49.12,5.04.142,7.579ZM137.654,173.736c-.123-2.543-.2-5.1-.242-7.588l1.853-.029c.037,2.471.118,5,.24,7.525Zm333.037-4.21c-.127-2.523-.284-5.054-.465-7.524l1.848-.139c.182,2.484.34,5.03.468,7.567ZM139.282,158.592l-1.853-.039c.051-2.549.151-5.1.3-7.59l1.85.111c-.143,2.463-.242,4.992-.293,7.518m330.3-4.1c-.247-2.522-.528-5.042-.833-7.488l1.838-.236c.307,2.463.589,5,.839,7.537ZM140.163,143.576l-1.844-.188c.252-2.54.559-5.078.912-7.545l1.834.27c-.35,2.439-.653,4.95-.9,7.463m327.55-4.03c-.386-2.506-.809-5-1.258-7.421l1.821-.348c.453,2.437.879,4.954,1.268,7.48Zm-219.143-.265c-2.575-.412-4.437-1.6-7.017-3.651l1.171-1.455c2.26,1.792,3.892,2.868,6.043,3.239ZM255,134.813l-1.65-.854a29.958,29.958,0,0,0,2.229-6.944l1.81.4a31.315,31.315,0,0,1-2.389,7.4m-18.884-4.569c-1.476-1.666-3.054-3.584-4.822-5.862l1.456-1.161c1.744,2.246,3.3,4.133,4.745,5.769ZM142.3,128.7l-1.819-.358c.48-2.507,1.023-5.007,1.614-7.43l1.8.451c-.584,2.392-1.12,4.861-1.594,7.336m322.655-3.951c-.549-2.481-1.141-4.94-1.759-7.309l1.792-.481c.625,2.393,1.222,4.875,1.776,7.379Zm-206.324-4.9-1.838-.24c.285-2.242.54-4.7.78-7.505l1.846.162c-.242,2.835-.5,5.315-.788,7.583m-31.88-1.526c-1.506-2.062-3.068-4.241-4.415-6.122l1.5-1.1c1.344,1.877,2.9,4.052,4.4,6.107Zm135.658-.155a7.75,7.75,0,0,1-4.208-1.3l.988-1.589a5.89,5.89,0,0,0,6.174.265l.8,1.7a8.625,8.625,0,0,1-3.751.927m-216.544-4.047-1.772-.549c.736-2.44,1.544-4.867,2.4-7.214l1.738.652c-.845,2.313-1.641,4.705-2.366,7.111m226.354-1.791-1.361-1.274a63.174,63.174,0,0,0,4.6-5.816l1.5,1.1a64.966,64.966,0,0,1-4.744,5.989m-19.287-1.291A58.3,58.3,0,0,1,349.3,104.3l1.675-.8a56.432,56.432,0,0,0,3.513,6.532Zm108.216-.832c-.746-2.433-1.543-4.829-2.367-7.12l1.741-.644c.835,2.319,1.641,4.744,2.4,7.206Zm-243.2-4.131c-1.7-2.348-3.108-4.276-4.446-6.067l1.477-1.134c1.344,1.8,2.763,3.735,4.464,6.092Zm42.031-1.4-1.849-.121c.14-2.2.283-4.674.437-7.561l1.85.1c-.154,2.894-.3,5.374-.438,7.581m-108.968-4.624-1.7-.758q1.526-3.5,3.253-6.87l1.643.868q-1.7,3.309-3.2,6.76m230.2,0-1.548-1.032c1.317-2.029,2.677-4.179,4.054-6.351l1.559,1.015c-1.38,2.177-2.741,4.329-4.064,6.368M346.32,97.288c-.839-2.134-1.707-4.462-2.651-7.117l1.743-.637c.938,2.635,1.8,4.944,2.63,7.059Zm109.738-1.171c-1-2.352-2.05-4.637-3.132-6.791l1.651-.852c1.1,2.19,2.171,4.512,3.184,6.9Zm-247.131-2.05c-1.681-2.115-3.246-4-4.784-5.756l1.386-1.246c1.558,1.78,3.141,3.685,4.841,5.824ZM260.8,89.532l-1.851-.095c.125-2.509.249-5.02.381-7.574l1.85.1c-.132,2.553-.256,5.062-.381,7.57m128.534-2.177-1.546-1.036c1.548-2.374,2.933-4.428,4.233-6.279l1.509,1.089c-1.288,1.833-2.66,3.869-4.2,6.225m-231.45-.53-1.562-1.011a58.128,58.128,0,0,1,4.462-6.2l1.415,1.212a56.263,56.263,0,0,0-4.316,6M341.194,83c-.85-2.524-1.684-5.049-2.387-7.187l1.758-.594c.7,2.135,1.535,4.656,2.383,7.175Zm-142.146-.131a64.159,64.159,0,0,0-5.535-4.907l1.13-1.488a66.045,66.045,0,0,1,5.7,5.05Zm250.28-.08c-1.328-2.2-2.72-4.273-4.138-6.173l1.478-1.133c1.454,1.949,2.881,4.077,4.24,6.325ZM167.4,75.711l-1.124-1.493a21.851,21.851,0,0,1,6.845-3.667l.542,1.8a20.017,20.017,0,0,0-6.263,3.364M398,75.137l-1.439-1.183a73.15,73.15,0,0,1,5.034-5.717l1.311,1.327A71.371,71.371,0,0,0,398,75.137M261.6,74.4l-1.85-.112c.16-2.73.32-5.209.487-7.579l1.848.134c-.167,2.363-.326,4.835-.486,7.557m-74.212-.393a21.774,21.774,0,0,0-6.759-2.212l.251-1.861a23.594,23.594,0,0,1,7.334,2.392Zm253.037-3.036a43.836,43.836,0,0,0-5.49-4.86l1.091-1.518a45.721,45.721,0,0,1,5.725,5.066ZM336.444,68.63c-.922-2.794-1.681-5.073-2.391-7.171l1.753-.609c.711,2.1,1.472,4.385,2.4,7.184Zm72.01-3.859-1.062-1.539a26,26,0,0,1,6.841-3.557l.572,1.786a24.178,24.178,0,0,0-6.351,3.31m20.218-2.3a23.143,23.143,0,0,0-6.9-1.8l.172-1.87a24.978,24.978,0,0,1,7.452,1.944ZM262.677,59.3l-1.846-.166c.231-2.635.482-5.18.747-7.564l1.841.21c-.263,2.37-.513,4.9-.742,7.521m68.91-4.986c-.9-2.533-1.739-4.849-2.579-7.079l1.731-.67c.845,2.242,1.693,4.57,2.593,7.116ZM264.363,44.292l-1.834-.269c.375-2.63.787-5.158,1.225-7.516l1.821.347c-.433,2.332-.841,4.834-1.212,7.438m61.892-4.067c-1-2.427-2-4.75-2.983-6.9l1.681-.789c.994,2.176,2.008,4.521,3.013,6.971ZM267.148,29.5l-1.8-.455c.646-2.623,1.359-5.093,2.118-7.343l1.753.608c-.742,2.2-1.439,4.619-2.073,7.19m52.834-2.924c-1.219-2.326-2.464-4.51-3.7-6.491l1.566-1c1.261,2.021,2.53,4.247,3.771,6.615ZM272,15.434l-1.662-.831a37.412,37.412,0,0,1,4.01-6.567L275.808,9.2a35.538,35.538,0,0,0-3.8,6.236M312.035,14a45.69,45.69,0,0,0-4.967-5.417l1.243-1.393a47.57,47.57,0,0,1,5.172,5.638ZM280.978,4.33l-1-1.582A18.317,18.317,0,0,1,287.167,0l.282,1.856a16.492,16.492,0,0,0-6.471,2.478m20.244,0a22.148,22.148,0,0,0-6.683-2.4l.325-1.849A23.988,23.988,0,0,1,302.1,2.675Z" transform="translate(-112.396 0.004)" fill="#d0e1dd"/>
        <path id="Trazado_1002887" data-name="Trazado 1002887" d="M225.424,362.388s-28.645-123.855,5.358-151.435c22.728-18.434,46.818,22.2,75.571.705,25.6-19.139,17.461-77.369,58.286-85.417,45.9-9.049,56.008,99.557,93.678,84.712C504.026,192.94,546.874,228.048,520,362.625Z" transform="translate(-175.158 -102.819)" fill="#e2fff2"/>
        <path id="Trazado_1002888" data-name="Trazado 1002888" d="M382.338,729.223c-15.777-2.61-13.2,20.971-35.69,20.971-20.561,0-27.139-89.8-42.1-64.131-76.694,131.6-32.159-55.966-93.152-58.35-27.579-1.078-45.957,31.746-52.734,89.862-9.824,52.539-32.606-40.072-56.051-31.461-14.9,5.473-13.194,64.08-33.755,64.08-22.488,0-19.914-23.581-35.691-20.971-16.986,2.81-22.06,44.548-22.06,44.548H404.4s-5.074-41.738-22.06-44.548" transform="translate(-9.083 -513.416)" fill="#eef7ff"/>
        <path id="Trazado_1002889" data-name="Trazado 1002889" d="M439.071,1049.916c-14.514-1.115-12.146,8.955-32.835,8.955-18.916,0-18.4-22.567-31.054-27.363-23.311-8.832-42.529,35.869-51.566,13.434-17.165-59.529-67.226-89.382-90.322,0-9.038,22.435-30.172-17.6-51.566-13.434-13.169,2.562-12.138,27.363-31.054,27.363-20.689,0-18.32-10.069-32.834-8.955-15.627,1.2-20.294,19.023-20.294,19.023H459.365s-4.667-17.823-20.294-19.023" transform="translate(-79.788 -808.583)" fill="#9cb9b4"/>
        <path id="Trazado_1002890" data-name="Trazado 1002890" d="M2.022,1430.122s-8.753,10.792,10.164,17.168c17.651,5.95,106.214,5.47,83.918,11.667-12.586,3.5,6.425,8.25,67.729,10s167.436-5.521,131.111-13.453c-40.092-8.754,112.473,2.767,100.37-25.382Z" transform="translate(0 -1169.766)" fill="#d0e1dd"/>
        <path id="Trazado_1002891" data-name="Trazado 1002891" d="M447.038,153.139a214.325,214.325,0,0,0-8.249-44.948c-.484,1.955-5.688,7.9-6.992,6.81-1.448-1.238,4.72-8.567,6.487-8.5q-.4-1.329-.813-2.627c-.54,1.855-6.952,7.346-8.154,6.028-1.24-1.446,5.979-7.736,7.715-7.4q-.529-1.635-1.067-3.218c-.657,1.86-6.9,7.154-8.068,5.857-1.2-1.438,5.732-7.506,7.541-7.386-.366-1.052-.734-2.091-1.1-3.106-.416,1.764-8.234,6.632-9.257,5.06-1.013-1.629,7.3-6.786,8.89-6.055-.362-.979-.725-1.945-1.088-2.888-.713,1.756-8.105,6.3-9.1,4.781-.955-1.608,6.814-6.462,8.594-6.083q-.664-1.694-1.326-3.3c-.766,1.752-8.075,6.228-9.063,4.721-.943-1.6,6.678-6.374,8.5-6.081-.345-.824-.687-1.625-1.028-2.413-.877,1.638-9.125,4.991-9.864,3.3-.654-1.716,7.507-5.108,9.3-4.588-.493-1.119-.963-2.171-1.456-3.235-1.013,1.608-9.03,4.836-9.757,3.176-.642-1.677,7.212-4.982,9.1-4.6-.379-.81-.757-1.6-1.133-2.377-.936,1.524-10.19,3.155-10.543,1.3-.268-1.791,8.224-3.344,9.944-2.528q-.7-1.428-1.39-2.778c-1,1.5-10.152,3.109-10.509,1.26-.268-1.771,8.074-3.316,9.845-2.554q-.749-1.445-1.473-2.789c-10.519,4.642-14.854-1.471-1.029-1.889q-.721-1.307-1.406-2.506c-1.479,1.152-10.278,1.134-10.327-.7-.046-1.6,7.327-1.883,9.267-1.134q-.635-1.083-1.223-2.056c-1.19,1.313-10.714.719-10.611-1.181.1-1.669,7.85-1.368,9.642-.4-.607-.98-1.163-1.855-1.658-2.618-1.413,1.159-10.5.566-10.421-1.3.041-1.57,7.276-1.4,9.193-.56-.461-.682-.812-1.185-1.043-1.51-1.846-.416-7.525-7-6.185-8.224.638-.557,2.772.84,4.766,3.122,2.41,2.639,2.06,3.794,3.667,5.922-.337-2.075,1.212-9.036,2.721-8.692,1.887.338.174,9.937-1.428,10.653q.69,1.066,1.519,2.4c-.011-2.058,3.08-8.949,4.579-8.3,1.735.748-1.843,9.415-3.531,10.012.463.766.946,1.579,1.451,2.446.182-2.055,3.844-8.609,5.272-7.835,1.636.894-2.535,8.983-4.257,9.6q.685,1.2,1.405,2.515c.321-2.022,4.612-8.34,5.992-7.437,1.539,1.035-3.29,8.636-5.061,9.15q.656,1.223,1.335,2.529c.448-1.951,5.7-7.97,7.017-6.878,1.4,1.228-4.4,8.166-6.221,8.425q.608,1.194,1.228,2.453c.516-1.854,6.96-7.382,8.168-6.059,1.2,1.436-5.705,7.481-7.521,7.382.425.877.852,1.77,1.282,2.688.42-1.846,6.995-7.519,8.222-6.18,1.228,1.444-5.9,7.66-7.66,7.395.465,1,.906,1.989,1.369,3.035.54-1.856,6.952-7.347,8.154-6.028,1.208,1.439-5.756,7.528-7.559,7.388q.482,1.11.968,2.266c.893-1.737,8-6.048,8.96-4.567.924,1.571-6.45,6.226-8.333,6.072.384.933.77,1.882,1.157,2.858.785-1.75,8.064-6.2,9.048-4.7.943,1.6-6.687,6.38-8.507,6.081q.579,1.489,1.156,3.041c.6-1.762,8.161-6.44,9.172-4.9.98,1.621-7.035,6.61-8.736,6.074q.523,1.43,1.042,2.912c.9-1.669,8.736-5.393,9.564-3.776.764,1.686-7.3,5.61-9.091,5.133.365,1.061.726,2.144,1.084,3.24.571-1.712,8.914-5.739,9.761-4.061.817,1.725-7.865,5.9-9.428,5.082q.557,1.73,1.1,3.52c.869-1.6,9.582-4.388,10.189-2.62.534,1.795-8.206,4.609-9.832,3.8a215.929,215.929,0,0,1,8.519,45.975Z" transform="translate(-330.249 -34.176)" fill="#95ebba"/>
        <path id="Trazado_1002892" data-name="Trazado 1002892" d="M285.236,347.474c-1.644-.788-10.973,13.969-11.293,16.472a38.686,38.686,0,0,0-4.486-6.8c1.783-.8,9.249-18.372,7.557-19.146-1.761-.5-8.455,15.9-8.247,18.325a45.878,45.878,0,0,0-5.8-5.616c1.654-.346,6.081-20.131,4.23-20.4-1.835-.3-5.72,18.193-4.768,19.973a54.03,54.03,0,0,0-5.44-3.782c1.478-1.48,4.088-19.97,2.268-20.33-1.826-.022-4.029,17.4-3.236,19.755-1.709-1-3.664-2.008-5.6-2.912,1.207-1.779.987-20.28-.862-20.378-1.791.267-1.35,17.473-.259,19.842q-3.032-1.461-5.693-2.843c1.152-1.949.933-20.127-.906-20.255-1.767.27-1.357,17.07-.322,19.613-2.127-1.122-4.071-2.2-5.851-3.229,1.182-1.856.963-20.213-.882-20.326-1.768.27-1.357,17.089-.32,19.625-1.973-1.166-3.726-2.265-5.282-3.291,1.34-1.354,1.1-20.612-.759-20.618-1.8.26-1.347,17.7-.222,19.964-2.1-1.419-3.8-2.684-5.175-3.776,1.2-1.45-1.151-20.638-3-20.429-1.717.459.5,16.961,1.792,19.44-4.384-3.441-3.708-5.387-8.035-10.649-8.235-10.821-10.568-9.042-2.282,1.745,4.247,5.559,5.614,6.221,8.982,9.321-2.726-1.431-18.013-4.752-18.531-3.144-.538,1.792,19.384,6.028,20.329,4.637,1.31,1.044,2.919,2.242,4.879,3.576-2.723-.972-19.036-1.386-19.282.345-.163,1.863,20.091,2.21,20.826.686,1.511.99,3.2,2.046,5.1,3.162-2.961-.349-18.72,2.462-18.6,4.182.435,1.806,18.935-1.664,20.259-3.22q2.551,1.461,5.555,3.046c-2.732-.148-18.756,4.954-18.419,6.705.621,1.756,18.9-4.306,19.74-6.017q2.674,1.381,5.713,2.846c-2.859.426-17.442,7.758-16.842,9.4.99,1.557,17.116-6.76,18.314-8.7,1.923.9,3.757,1.874,5.414,2.858-2.147-.3-18.673,7.914-17.964,9.623.755,1.709,18.666-7.488,18.676-9.2a52.883,52.883,0,0,1,5.161,3.591c-2.3-.147-18.474,7.891-17.8,9.6.893,1.635,17.963-7.165,18.56-8.992a44.5,44.5,0,0,1,5.664,5.549c-2.144-.445-19.217,6.389-18.654,8.15.76,1.7,18.468-5.7,19.219-7.47a37.377,37.377,0,0,1,4.316,6.591c-2.511-.315-19.125,4.944-18.769,6.726.76,1.668,17.6-3.914,19.3-5.646a27.934,27.934,0,0,1,2.829,10.647l1.158.006a28.55,28.55,0,0,0-3.02-11.32c1.906-.513,12.3-16.452,10.777-17.517" transform="translate(-165.88 -251.033)" fill="#9cb9b4"/>
        <path id="Trazado_1002893" data-name="Trazado 1002893" d="M1506.174,526.474a176.955,176.955,0,0,1,29.766-23.189c-.775,1.471-.828,7.993.573,8.039,1.573.031,1.793-7.875.665-8.8q.978-.6,1.944-1.174c-.686,1.441.254,8.347,1.719,8.194,1.558-.211.56-8.053-.7-8.8q1.224-.718,2.425-1.4c-.616,1.508.327,8.2,1.76,8.041,1.532-.225.586-7.776-.6-8.7q1.205-.672,2.386-1.309c-.712,1.316,1.437,8.611,2.93,8.2,1.519-.448-.775-8.192-2.158-8.615q1.141-.608,2.257-1.183c-.524,1.474,1.54,8.335,2.988,7.946,1.472-.467-.654-7.726-1.96-8.47q1.339-.679,2.631-1.309c-.49,1.5,1.56,8.275,3,7.887,1.458-.467-.619-7.6-1.9-8.417.665-.319,1.316-.625,1.959-.924-.358,1.492,2.887,8.088,4.27,7.453,1.346-.7-1.825-7.271-3.219-7.938.918-.419,1.786-.809,2.674-1.2-.258,1.547,2.913,7.941,4.273,7.317,1.317-.682-1.713-7.033-3.083-7.832q1.017-.436,2-.845c-.261,1.453,4.552,7.542,5.79,6.59,1.149-.957-3.237-6.579-4.746-7.019q1.218-.5,2.384-.95c-.21,1.472,4.554,7.492,5.789,6.548,1.138-.945-3.159-6.478-4.669-6.98q1.255-.48,2.439-.911c.271,1.612,4.523,6.813,5.659,5.937,1.052-.779-2.51-5.651-3.987-6.537q1.163-.41,2.244-.773c.279,1.522,5.716,6.343,6.751,5.24.907-.961-3.486-5.184-5.093-5.788q.987-.319,1.884-.6c.013,1.462,6.213,6.326,7.192,5.1.853-1.086-4.09-5.155-5.726-5.543.913-.271,1.736-.5,2.461-.7.235,1.49,6.165,6.115,7.138,4.922.837-.99-3.716-4.86-5.361-5.393.656-.167,1.151-.285,1.473-.359,1.367.757,8.482-.183,8.329-1.676-.087-.694-2.17-1-4.653-.691-2.935.3-3.354,1.209-5.513,1.638,1.348-1.095,4.213-6.238,3.095-6.854-1.349-.828-5.562,6.032-4.969,7.353-.673.186-1.427.4-2.254.645,1.137-1.263,3.014-7.209,1.734-7.632-1.481-.491-4.032,6.816-3.32,8.113q-1.057.327-2.238.712c1.016-1.367,2.356-7.42,1.05-7.726-1.5-.347-3.368,6.929-2.646,8.256q-1.082.366-2.247.779c.912-1.424,1.734-7.675.388-7.875-1.517-.206-2.713,7.132-1.9,8.421q-1.077.394-2.211.826c.795-1.449.862-8.042-.551-8.093-1.534-.009-1.769,7.451-.789,8.611q-1.031.4-2.1.837c.7-1.428-.24-8.372-1.711-8.219-1.529.226-.589,7.744.584,8.681q-1.114.461-2.266.955c.755-1.369-.185-8.477-1.677-8.325-1.55.216-.569,7.96.663,8.765-.835.364-1.65.729-2.509,1.121.686-1.441-.253-8.348-1.719-8.194-1.535.224-.583,7.8.6,8.706q-.906.42-1.841.866c.4-1.561-1.612-8.121-3.018-7.736-1.432.462.559,7.381,1.8,8.32-.749.364-1.508.738-2.282,1.127.477-1.51-1.568-8.252-3-7.865-1.458.467.621,7.606,1.907,8.42q-1.174.6-2.383,1.24c.6-1.414-1.5-8.452-2.966-8.057-1.494.462.709,7.938,2.052,8.543q-1.108.594-2.242,1.224c.364-1.521-2.426-8.123-3.824-7.58-1.4.62,1.425,7.47,2.788,8.157q-1.211.681-2.448,1.4c.588-1.369-2.346-8.433-3.79-7.863-1.451.615,1.611,7.956,3.024,8.311q-1.294.761-2.611,1.567c.343-1.464-3.5-7.967-4.845-7.21-1.315.813,2.53,7.348,3.978,7.74a178.3,178.3,0,0,0-30.5,23.675Z" transform="translate(-1231.322 -388.189)" fill="#d0e1dd"/>
        <path id="Trazado_1002894" data-name="Trazado 1002894" d="M1579.026,185.559a38.884,38.884,0,0,1,2,7.611q1.3-2.623,2.507-4.844c-1.365-1.094-4.738-16.969-3.19-17.37,1.48-.121,4.219,13.356,3.983,15.926.922-1.653,1.8-3.132,2.616-4.454-1.327-.6-1.447-18.044.16-17.938.683,0,1.242,4.036,1.249,9.018a41.288,41.288,0,0,1-.554,7.571c1.108-1.715,2.1-3.125,2.977-4.273-1.217-.782,2.018-18.02,3.571-17.592,1.392.426-1.146,13.625-2.323,16.014,2.591-2.956,3.146-4.159,7.837-7.923,9.109-7.353,10.694-5.385,1.549,1.928-4.444,3.836-6.123,3.286-9,7.135,2.091-1.162,16.278-3.415,16.694-1.944.209,1.59-16.238,4.009-17.521,3.007-.911,1.2-1.965,2.695-3.142,4.532,1.909-1.015,16.94-1.768,17.186-.221.024,1.6-16.526,2.2-17.729,1.079-.851,1.36-1.761,2.892-2.723,4.614,2.144-.945,16.642-1.647,16.9-.131-.072,1.59-15.84,2.157-17.476,1.179-.849,1.554-1.737,3.249-2.658,5.1,2.151-.943,16.633-1.644,16.887-.128-.086,1.586-15.7,2.148-17.414,1.2q-1.134,2.321-2.329,4.958c2-.989,16.831-1.723,17.083-.187-.059,1.593-15.951,2.164-17.521,1.163-.732,1.673-1.535,3.34-2.389,4.883,2-.733,17.064.807,17.068,2.377-.284,1.572-16.226-.29-17.544-1.532a46.786,46.786,0,0,1-3.125,4.755c1.53-.844,17.493,2.112,17.271,3.7s-17.264-1.8-17.641-3.209a38.737,38.737,0,0,1-4.7,5.1c2.081-.223,16.331,5.2,15.922,6.717-.646,1.466-15.865-4.575-16.626-6.1a33.4,33.4,0,0,1-5.768,3.992c2.147.214,15.068,7.957,14.411,9.379-.894,1.329-14.809-7.277-15.3-8.913a24.583,24.583,0,0,1-9.68,2.834l-.02-1a24.037,24.037,0,0,0,9.105-2.655c-1.521-1.407-6.683-15.816-5.258-16.491,1.531-.329,6.39,13.833,6.176,16.015a32.177,32.177,0,0,0,5.583-3.851c-1.538-.6-8.278-15.706-6.826-16.387,1.509-.509,7.732,14.019,7.4,15.886a38.311,38.311,0,0,0,4.658-4.989c-1.58-.467-9.516-14.994-8.123-15.788,1.467-.6,8.7,13.126,8.633,15.123a45.5,45.5,0,0,0,2.984-4.517c-1.468.03-9.758-15.2-8.3-15.884,1.462-.634,8.856,13.4,8.653,15.262.813-1.446,1.613-3.045,2.348-4.719-1.687-.977-9.191-14.71-7.865-15.582,1.409-.538,8,11.837,8.439,14.3q1.2-2.648,2.331-4.976c-1.486-.677-7.089-16.3-5.587-16.865.644-.226,2.5,3.4,4.149,8.1" transform="translate(-1268.25 -130.221)" fill="#9cb9b4"/>
        <path id="Trazado_1002895" data-name="Trazado 1002895" d="M622.111,903.445c-4.207,9.226,3.349,20.6,13.454,20.282v27.784a5,5,0,0,1-5,5c-.536-.092-84.759.09-85.208-.02a5,5,0,0,1-4.562-4.982V866.745a5,5,0,0,1,5-5h27.783v0c.267-19.1,28.859-19.263,29.2,0v0c40.226.759,31.986-7.311,32.786,32.784a14.623,14.623,0,0,0-13.454,8.918" transform="translate(-442.342 -693.093)" fill="#95ebba"/>
        <path id="Trazado_1002896" data-name="Trazado 1002896" d="M548.458,369.667c-9.226-4.207-20.6,3.349-20.282,13.454H500.392a5,5,0,0,1-5-5c.092-.536-.09-84.759.02-85.207a5,5,0,0,1,4.982-4.562h84.766a5,5,0,0,1,5,5v27.783h0c19.1.267,19.263,28.859,0,29.2h0c-.759,40.226,7.311,31.986-32.784,32.786a14.624,14.624,0,0,0-8.918-13.454" transform="translate(-405.191 -235.855)" fill="#0e5a52"/>
        <path id="Trazado_1002897" data-name="Trazado 1002897" d="M1127.02,334.871h84.766a5,5,0,0,1,5,5V424.64a5,5,0,0,1-5,5H1184c-.512,19.312-28.748,19.19-29.2,0-40.226-.758-31.984,7.308-32.784-32.784,19.387-.64,19.2-28.65,0-29.2V339.873a5.007,5.007,0,0,1,5-5" transform="translate(-917.591 -273.906)" fill="#95ebba"/>
        <path id="Trazado_1002898" data-name="Trazado 1002898" d="M327.659,1017.184a49.478,49.478,0,0,1,5.7,9.505c.748,1.564,1.338,3.218,1.971,4.828a26.044,26.044,0,0,0,6.47,8.617,1.466,1.466,0,1,1-1.346,2.6,31.086,31.086,0,0,1-5.723-4.6c-3.48-3.273-5.048-7.913-7.86-11.686a44.131,44.131,0,0,0-4.049-4.948c-3.691-3.319,1.9-8.34,4.839-4.314" transform="translate(-263.053 -830.781)" fill="#f99370"/>
        <path id="Trazado_1002899" data-name="Trazado 1002899" d="M358.176,1038.552s-1.191.219-1.887,2.411c0,0-.551-.246-1.439-.722-.809-.434-1.9-1.059-3.108-1.865a34.045,34.045,0,0,1-3.436-2.613,24.956,24.956,0,0,1-3.234-3.357c-4.317-5.48-2.352-18.081-2.352-18.081s3.61.941,6.406,6.75c2.543,5.285,4.392,11.1,7.946,16.042q.526.732,1.1,1.437" transform="translate(-279.962 -829.665)" fill="#1d3f70"/>
        <path id="Trazado_1002900" data-name="Trazado 1002900" d="M429.83,1150.481c-.073.512-1.317.122-1.769.311a6.609,6.609,0,0,0,1.235,1.141,28.9,28.9,0,0,0,2.933,1.025c1.082,1.174-2.8.008-3.179-.049l-.009.015a21.017,21.017,0,0,0,2.745,1.689c.831,1.489-3.01-.774-3.369-.957l-.007.005a12.155,12.155,0,0,0,2.385,1.926c.674,1.586-2.979-1.031-3.27-1.343l-.012.006a12.465,12.465,0,0,0,1.6,1.844c.393,1.568-2.326-1.111-2.576-1.428a21.273,21.273,0,0,1-2.543-2.327c-.4-.458,1.122-2.7,1.653-2.439a8.834,8.834,0,0,0,1.909.125c.473-.009,2.25-.147,2.271.457" transform="translate(-346.754 -940.542)" fill="#f99370"/>
        <path id="Trazado_1002901" data-name="Trazado 1002901" d="M367.9,1058.482a34,34,0,0,1-3.436-2.613l-2.437-16.962s2.077,2.984,3.981,10.535a90.1,90.1,0,0,1,1.892,9.04" transform="translate(-296.116 -849.771)" fill="#17375e"/>
        <path id="Trazado_1002902" data-name="Trazado 1002902" d="M393.055,1006.058a5.5,5.5,0,0,1,1.65-2.937c.259-.2.786-.319.6-.752-.218-.426-.942-.195-1.253-.059a5.838,5.838,0,0,0-2.411,3.11c-.567,1.485,1.151,1.965,1.419.638" transform="translate(-320.246 -819.685)" fill="#f99370"/>
        <path id="Trazado_1002903" data-name="Trazado 1002903" d="M315.429,975.544a23.566,23.566,0,0,0,.233-6.487c-.3-2.538-4.333-1.954-3.912.554a22.55,22.55,0,0,1-.291,5.7c-3.808.756,6.976,5.474,3.97.231" transform="translate(-254.083 -791.298)" fill="#f99370"/>
        <path id="Trazado_1002904" data-name="Trazado 1002904" d="M343.983,944.246a10.592,10.592,0,0,0-.8-3.469l-1.161.62Z" transform="translate(-279.755 -769.507)" fill="#8e4a35"/>
        <path id="Trazado_1002905" data-name="Trazado 1002905" d="M312.924,944.252c-1.779,1.862-5.79,2.28-7.241.81-5.411-5.488,1.8-17.571,6.167-8.251,1.474,2.653,3.936,3.921,1.074,7.442" transform="translate(-248.451 -763.464)" fill="#f99370"/>
        <path id="Trazado_1002906" data-name="Trazado 1002906" d="M335.248,962.319a.265.265,0,1,0-.352.128.265.265,0,0,0,.352-.128" transform="translate(-273.803 -786.819)" fill="#c16256"/>
        <path id="Trazado_1002907" data-name="Trazado 1002907" d="M347.393,959.852a.265.265,0,1,0-.352.128.265.265,0,0,0,.352-.128" transform="translate(-283.737 -784.802)" fill="#c16256"/>
        <path id="Trazado_1002908" data-name="Trazado 1002908" d="M343.332,964.73a1.079,1.079,0,0,1-.448-.017.1.1,0,1,1,.054-.192.9.9,0,0,0,.868-.243c.021-.054-.053-.1-.118-.137-.578-.288-1-1.348-1.013-1.394a.1.1,0,0,1,.057-.129.1.1,0,0,1,.13.057c0,.01.407,1.033.915,1.287.277.138.243.318.216.389a.857.857,0,0,1-.662.38" transform="translate(-280.286 -787.366)" fill="#c16256"/>
        <path id="Trazado_1002909" data-name="Trazado 1002909" d="M308.7,935.161c-1.487-.709-3.994.122-5.289.155a4.221,4.221,0,0,1-1.8,3.809c-.116,2.016-.416,2.9,1.732,5.284h0a4.02,4.02,0,0,1-.453-.3h0c-6.592-6.176,1.117-17.166,5.815-8.946" transform="translate(-245.658 -762.509)" fill="#e57d61"/>
        <path id="Trazado_1002910" data-name="Trazado 1002910" d="M304.141,917.475c-.88-1.6-3.352-2.394-5.39-.313-1.569,1.6-3.322,1.651-3.23,3.278-3.2,1.592-1.463,5.125-1.463,5.125l1.625-.25a5.009,5.009,0,0,0,1.678-3.791h0a4.286,4.286,0,0,0,1.238-.139,7.928,7.928,0,0,1,4.334-.107c1.372.452,2.192-2.019,1.208-3.8" transform="translate(-240.139 -749.167)" fill="#8e4a35"/>
        <path id="Trazado_1002911" data-name="Trazado 1002911" d="M314.338,963.568h0c-.011-.038-.022-.075-.034-.111-1.5-.775-2.859-.114-4.11.666-1.342.838-2.565,1.813-3.72,1.293l-.033-.015c-1.367-.727-1.474-2.274-1.413-3.415.031-.57.1-1.039.083-1.252h0l-1.02,1.246-.133,1.639h0l-.009.112v.009h0l-.083,1.021s0,0,0,.006h0c.048,2.326,1.592,3.418,3.338,3.894a11.323,11.323,0,0,0,3.521.308,3.476,3.476,0,0,0,.522-.017c2.194-.237,3.146-2.537,3.2-4.261a4.351,4.351,0,0,0-.024-.66,3.007,3.007,0,0,0-.088-.464m-3.955,1.193c1.07-1.019,2.736-1.838,3.186-.21-.4,1.016-1.644,1.393-2.848,1.508a10.7,10.7,0,0,1-1.265.04,3.02,3.02,0,0,1,.927-1.339" transform="translate(-248.546 -785.83)" fill="#8e4a35"/>
        <path id="Trazado_1002912" data-name="Trazado 1002912" d="M294.9,967.972a1.279,1.279,0,1,0,.841-1.807,1.426,1.426,0,0,0-.841,1.807" transform="translate(-241.17 -790.249)" fill="#f99370"/>
        <path id="Trazado_1002913" data-name="Trazado 1002913" d="M298.55,969.45c-.027-.009-.653-.226-.99.107a.644.644,0,0,0-.17.335v0a2.084,2.084,0,0,0,.143,1.043.1.1,0,0,0,.11.066l.017,0a.1.1,0,0,0,.062-.127,2.211,2.211,0,0,1-.151-.829,1.367,1.367,0,0,1,.9.733.1.1,0,0,0,.106.057.108.108,0,0,0,.027-.009.1.1,0,0,0,.048-.133,1.546,1.546,0,0,0-1.036-.845.41.41,0,0,1,.089-.147c.246-.245.777-.063.783-.061a.1.1,0,0,0,.067-.189" transform="translate(-243.233 -792.897)" fill="#c16256"/>
        <path id="Trazado_1002914" data-name="Trazado 1002914" d="M253.435,1426.714l-.16-.083c0,.112-.138.5-.25.5l-4.721.1c-.112,0-.18-.21-.18-.322l-.4-.115a2.422,2.422,0,0,1,.37-1.51c1.148-1.517-.223-8.353-.183-10.131-.283-.488,4.972-.105,5.045-.22a.2.2,0,0,1,.2.219l-.618,7.8c-.223,1.83.893,2.333.9,3.771" transform="translate(-202.623 -1157.311)" fill="#f99370"/>
        <path id="Trazado_1002915" data-name="Trazado 1002915" d="M362.927,1427.552h-9.4c-.821-.033-.814-.87-.663-1.519.518-2.34-.4-7.714-.567-10.121a.748.748,0,0,1,.744-.824h4.15a.748.748,0,0,1,.742.841l-.755,6.018c-.289,2.786,2.591,3.018,4.487,3.4a3.124,3.124,0,0,1,1.884,1.032.748.748,0,0,1-.617,1.17" transform="translate(-288.154 -1157.469)" fill="#f99370"/>
        <path id="Trazado_1002916" data-name="Trazado 1002916" d="M353.417,1465.02c.025.461.254.987.788.976h9.755c2.433-.745-1.127-4.151-5.521-3.894a16.084,16.084,0,0,1-4.511.118,5.345,5.345,0,0,0-.511,2.8" transform="translate(-289.069 -1195.913)" fill="#103663"/>
        <path id="Trazado_1002917" data-name="Trazado 1002917" d="M247.543,1466.058h4.169c2.014-.229.6-3.867-2.084-3.894s-4.1,3.669-2.085,3.894" transform="translate(-201.697 -1195.975)" fill="#103663"/>
        <path id="Trazado_1002918" data-name="Trazado 1002918" d="M397.663,1468.434a.208.208,0,0,0,.192-.129,2.206,2.206,0,0,1,1.079-1.219.207.207,0,0,0-.152-.386,2.6,2.6,0,0,0-1.311,1.449.208.208,0,0,0,.192.285" transform="translate(-325.099 -1199.672)" fill="#e8c0a6"/>
        <path id="Trazado_1002919" data-name="Trazado 1002919" d="M388.816,1465.75a.208.208,0,0,0,.2-.146,2.869,2.869,0,0,1,1.274-1.571.207.207,0,0,0-.191-.368,3.261,3.261,0,0,0-1.479,1.816.208.208,0,0,0,.2.269" transform="translate(-317.862 -1197.181)" fill="#e8c0a6"/>
        <path id="Trazado_1002920" data-name="Trazado 1002920" d="M378.748,1463.905a.207.207,0,0,0,.2-.139,3.737,3.737,0,0,1,1.29-1.724.207.207,0,0,0-.229-.346,4.094,4.094,0,0,0-1.452,1.934.208.208,0,0,0,.2.275" transform="translate(-309.626 -1195.562)" fill="#e8c0a6"/>
        <path id="Trazado_1002921" data-name="Trazado 1002921" d="M254.147,1465.557c1.588-.894,2.993.28,3.216-.122.186-.42-1.886-1.049-3.321-.264a.209.209,0,0,0,.1.386" transform="translate(-207.711 -1198.129)" fill="#e8c0a6"/>
        <path id="Trazado_1002922" data-name="Trazado 1002922" d="M364.684,1478.195H353.459a2.567,2.567,0,0,0,.308.976H364a.725.725,0,0,0,.683-.976" transform="translate(-289.112 -1209.088)" fill="#0f2e54"/>
        <path id="Trazado_1002923" data-name="Trazado 1002923" d="M247.668,1479.171h4.169a.924.924,0,0,0,.925-.976h-6.018a.924.924,0,0,0,.925.976" transform="translate(-201.822 -1209.088)" fill="#0f2e54"/>
        <path id="Trazado_1002924" data-name="Trazado 1002924" d="M269.844,1228.417c-1.78,1.283-4.96.644-6.542.114-.46-8.181-3.06-41.742-2.927-42.563-2.02,12.445-7.289,34.786-8.763,40.949-.247,1.035-.387,1.614-.387,1.614-2.291,1.162-6.738.081-6.738.081-.031-.464-.057-1.033-.077-1.7-.279-9.584.248-38.738,2.714-48.543,8.276,2.5,23.992.177,23.992.177,3.867,23.159-.474,41.254-1.273,49.865" transform="translate(-199.86 -963.849)" fill="#3a72aa"/>
        <path id="Trazado_1002925" data-name="Trazado 1002925" d="M369.522,1235.182l-.813-.066a247.741,247.741,0,0,0-.7-47.4l.808-.109a248.589,248.589,0,0,1,.7,47.578" transform="translate(-301.013 -971.399)" fill="#23659b"/>
        <path id="Trazado_1002926" data-name="Trazado 1002926" d="M261.864,1228.371l-.807-.117c.053-.365,5.318-36.681,6.965-49.49l.809.1c-1.647,12.815-6.913,49.137-6.966,49.5" transform="translate(-213.531 -964.168)" fill="#23659b"/>
        <path id="Trazado_1002927" data-name="Trazado 1002927" d="M257.417,1179.045s-.064,2.272,4.549,3.4,6.059.952,7.716,1.488a7.117,7.117,0,0,0,1.815-1.725,6.039,6.039,0,0,1,1.368,1.428,12.465,12.465,0,0,0,6.208-1.428c3.107-1.668,2.921-2.629,2.873-3.128Z" transform="translate(-210.554 -964.398)" fill="#f4d4be"/>
        <path id="Trazado_1002928" data-name="Trazado 1002928" d="M257.417,1041.415c1.934,2.679,20.327,3.424,24.53.036,0,0-2.23-25.283-8.636-30.024a8.041,8.041,0,0,1-1.411-.414c.007.113.215,3.047-3.97-.231-.233.073-1.505.27-1.505.27-6.209,1.041-7.073,7.032-7.581,16.2-.342,6.18-1.427,14.165-1.427,14.165" transform="translate(-210.554 -826.768)" fill="#1d3f70"/>
        <path id="Trazado_1002929" data-name="Trazado 1002929" d="M306.871,1010.676c-.187,1.7,4.031,3.618,4.278,3.643l.671-1.5c.655.23,1.157,1.227,1.157,1.227,1.98-1.593,1.213-2.738.78-3a4.483,4.483,0,0,0-1.411-.414c.016.113-.164,2.74-3.97-.231-.5-.291-1.505.271-1.505.271" transform="translate(-251 -826.391)" fill="#f4d4be"/>
        <path id="Trazado_1002930" data-name="Trazado 1002930" d="M336.606,1261.449c-.446-6.638-2.173-32.31-2.462-36.173-.333-4.443-1.733-5.191-1.733-5.191s2.964,41.845,2.927,42.564l.115.038c.16.053.479.155.889.25,1.689.411,4.081.647,5.537-.4,0,0,.057-.527.149-1.5a9.245,9.245,0,0,1-5.423.414" transform="translate(-271.895 -997.967)" fill="#23659b"/>
        <path id="Trazado_1002931" data-name="Trazado 1002931" d="M344.133,953.885a.107.107,0,0,1-.078-.033,1.183,1.183,0,0,0-.97-.385.107.107,0,0,1-.032-.212,1.4,1.4,0,0,1,1.157.449.107.107,0,0,1-.078.182" transform="translate(-280.525 -779.707)" fill="#c16256"/>
        <path id="Trazado_1002932" data-name="Trazado 1002932" d="M329.927,955.972a.107.107,0,0,1-.1-.148,1.937,1.937,0,0,1,1.4-1.075.107.107,0,1,1,.04.211,1.72,1.72,0,0,0-1.241.946.108.108,0,0,1-.1.066" transform="translate(-269.776 -780.934)" fill="#c16256"/>
        <path id="Trazado_1002933" data-name="Trazado 1002933" d="M346.743,979.144a.564.564,0,0,1-.536-.289c-.141-.3.067-.681.473-.875a.983.983,0,0,1,.568-.094.49.49,0,0,1,.368.771.985.985,0,0,1-.431.382,1.037,1.037,0,0,1-.442.105m.4-.2h0Zm-.019-.852a.816.816,0,0,0-.347.083c-.288.137-.458.407-.372.589s.4.22.692.082a.768.768,0,0,0,.337-.3.278.278,0,0,0-.215-.452.6.6,0,0,0-.1-.007" transform="translate(-283.144 -799.852)" fill="#c16256"/>
        <path id="Trazado_1002934" data-name="Trazado 1002934" d="M286.019,1020.294c.185,14.9,11.437,3.423,13.451-4.014a1.491,1.491,0,0,1,1.855-.949c2.466.672-.774,8.38-1.632,10.023-2.658,5.535-9.41,10.566-15.393,6.562-3.9-2.7-4.764-7.849-4.264-12.227.417-3.909,6.36-3.309,5.983.606" transform="translate(-228.95 -830.44)" fill="#f99370"/>
        <path id="Trazado_1002935" data-name="Trazado 1002935" d="M288.955,1016.785c-.035.367-.087.816-.163,1.325-.607,4.079-2.7,12.108-9.184,14.45-7.293,2.635-14.631-2-15.7-7.748-1.368-7.333,3.746-10.691,6.233-10.627,1.44.574,2.409,2.286,3.046,4.381s1.392,7.238,5.035,5.837c2.731-1.049,5.747-5.292,7.085-7.35.446-.686.706-1.13.706-1.13a3.7,3.7,0,0,0,2.944.862" transform="translate(-215.674 -829.55)" fill="#1d3f70"/>
        <path id="Trazado_1002936" data-name="Trazado 1002936" d="M388.452,927.389a1.056,1.056,0,0,1-1.173,1.373l-6.31-1.03-6.577,2.167,1.4,4.234-1.418.48-1.4-4.246-2.067.682-.821.27L368.326,926l.841-.277,10.046-3.31,4.449-4.567.013-.014a1.056,1.056,0,0,1,1.76.406Z" transform="translate(-301.272 -750.474)" fill="#eb5648"/>
        <path id="Trazado_1002937" data-name="Trazado 1002937" d="M406.706,1003.594c.068-.012.083-.017.117-.025l.084-.025c.054-.017.106-.037.157-.059a1.475,1.475,0,0,0,.29-.168,1.193,1.193,0,0,0,.241-.237,1.115,1.115,0,0,0,.156-.28.526.526,0,0,0-.4-.685.731.731,0,0,0-.655.128l-.253.211c-.005,0,.005-.006,0,0a.047.047,0,0,1-.011.007l-.011,0h0l.029-.005a.6.6,0,0,0-.546.68.689.689,0,0,0,.8.459" transform="translate(-331.997 -819.655)" fill="#f99370"/>
        <path id="Trazado_1002938" data-name="Trazado 1002938" d="M404.774,998.063c.052-.023.067-.031.1-.045l.072-.039c.046-.026.09-.054.134-.083a1.708,1.708,0,0,0,.249-.206,1.277,1.277,0,0,0,.21-.278,1.04,1.04,0,0,0,.118-.348.6.6,0,0,0-.6-.633.685.685,0,0,0-.762.522c0-.015.011-.019-.011,0a.361.361,0,0,1-.049.04l-.034.021-.016.009s-.016.007,0,0a.551.551,0,0,0-.323.779.739.739,0,0,0,.917.258" transform="translate(-330.279 -815.028)" fill="#f99370"/>
        <path id="Trazado_1002939" data-name="Trazado 1002939" d="M403.488,992.893l.452-.464a.519.519,0,0,0-.069-.818.78.78,0,0,0-.966.1l-.451.463a.519.519,0,0,0,.069.818.78.78,0,0,0,.966-.1" transform="translate(-329.049 -810.987)" fill="#f99370"/>
        <path id="Trazado_1002940" data-name="Trazado 1002940" d="M400.791,987.941l.451-.464a.519.519,0,0,0-.069-.818.78.78,0,0,0-.966.1l-.451.464a.519.519,0,0,0,.069.818.78.78,0,0,0,.966-.1" transform="translate(-326.843 -806.937)" fill="#f99370"/>
        <path id="Trazado_1002941" data-name="Trazado 1002941" d="M389.7,994.047a18.735,18.735,0,0,0,2.12-3.11s-1.089-4.417-1.845-3.951-3.55,2.768-3.01,6.23a2.146,2.146,0,0,1,2.735.83" transform="translate(-316.462 -807.276)" fill="#f99370"/>
        <path id="Trazado_1002942" data-name="Trazado 1002942" d="M251.917,1445.021c-.247,1.034-.387,1.614-.387,1.614-2.291,1.162-6.738.082-6.738.082-.031-.464-.057-1.033-.077-1.7h0a16.226,16.226,0,0,0,7.2,0" transform="translate(-200.164 -1181.953)" fill="#23659b"/>
        <path id="Trazado_1002943" data-name="Trazado 1002943" d="M277.194,1083.779a11.18,11.18,0,0,1-7.948-3.3,13.187,13.187,0,0,1-2.7-3.748.233.233,0,0,1,.427-.186,12.965,12.965,0,0,0,2.611,3.613,10.585,10.585,0,0,0,8.554,3.115,12.655,12.655,0,0,0,10.584-7.567.233.233,0,0,1,.436.164,13.042,13.042,0,0,1-10.983,7.867q-.5.04-.981.039" transform="translate(-218.005 -879.75)" fill="#17375e"/>
        <path id="Trazado_1002944" data-name="Trazado 1002944" d="M321.575,1047.1h-.053c-2.24-.037-3.137-3.648-3.174-3.8a.233.233,0,1,1,.453-.109c.008.034.848,3.414,2.729,3.445h.044c1.8,0,4.15-1.833,6.639-5.169a.233.233,0,0,1,.374.279c-1.827,2.449-4.521,5.356-7.011,5.356" transform="translate(-260.388 -851.79)" fill="#17375e"/>
        <path id="Trazado_1002945" data-name="Trazado 1002945" d="M386.127,1024.6c-.035.367-.087.816-.163,1.325a3.522,3.522,0,0,1-3.487-1.057c.446-.686.706-1.13.706-1.13a3.7,3.7,0,0,0,2.944.862" transform="translate(-312.847 -837.365)" fill="#17375e"/>
        <path id="Trazado_1002946" data-name="Trazado 1002946" d="M414.681,1140.954s-1.191.219-1.887,2.411c0,0-.551-.246-1.439-.722a5.243,5.243,0,0,1,2.222-3.125q.526.732,1.1,1.437" transform="translate(-336.467 -932.066)" fill="#17375e"/>
        <path id="Trazado_1002947" data-name="Trazado 1002947" d="M456.182,928.763h0l-3.617-10.921.013-.014a1.056,1.056,0,0,1,1.76.406l3.017,9.155a1.056,1.056,0,0,1-1.174,1.373" transform="translate(-370.175 -750.475)" fill="#d64343"/>
        <path id="Trazado_1002948" data-name="Trazado 1002948" d="M370.9,967.941l-.821.27-1.755-5.323.841-.277Z" transform="translate(-301.272 -787.365)" fill="#d64343"/>
        <path id="Trazado_1002949" data-name="Trazado 1002949" d="M382.64,972.207a.474.474,0,1,1-.474-.474.474.474,0,0,1,.474.474" transform="translate(-312.205 -794.827)" fill="#d64343"/>
        <path id="Trazado_1002950" data-name="Trazado 1002950" d="M390.287,969.6a.474.474,0,1,1-.474-.474.474.474,0,0,1,.474.474" transform="translate(-318.46 -792.698)" fill="#d64343"/>
        <path id="Trazado_1002951" data-name="Trazado 1002951" d="M397.934,967a.474.474,0,1,1-.474-.474.474.474,0,0,1,.474.474" transform="translate(-324.714 -790.57)" fill="#d64343"/>
        <path id="Trazado_1002952" data-name="Trazado 1002952" d="M737.353,426.126c2.267-10.088,5.95-20.972,14.377-27.559a1.255,1.255,0,0,1,1.7,1.813,20.033,20.033,0,0,0-2,2.856,32.891,32.891,0,0,0-3.459,9.781,58.888,58.888,0,0,0-1.089,13.788c.885,8.1-11.359,7.309-9.525-.68" transform="translate(-602.964 -325.803)" fill="#f99370"/>
        <path id="Trazado_1002953" data-name="Trazado 1002953" d="M612.263,902l-8.1-6.167c2.224-2.738,5.792-6.583,8.392-9.158l4.029,3.269-5.936,4.667a1.7,1.7,0,0,0-.3,2.23c1.055,1.731,3.137,2.8,2.99,4.774a.68.68,0,0,1-1.08.384" transform="translate(-494.175 -725.256)" fill="#f99370"/>
        <path id="Trazado_1002954" data-name="Trazado 1002954" d="M604.136,922.784a2.974,2.974,0,0,0-.427,1.011l8.186,6.117a.723.723,0,0,0,1.127-.342c.354-1.1.3-3.08-3.288-6.119a11.145,11.145,0,0,1-3.414-2.655,6.292,6.292,0,0,0-2.185,1.988" transform="translate(-493.803 -753.164)" fill="#3a72aa"/>
        <path id="Trazado_1002955" data-name="Trazado 1002955" d="M642.59,954.062a.206.206,0,0,0,.229.012,2.185,2.185,0,0,1,1.59-.315c.924-.336-.654-.8-1.8-.04a.207.207,0,0,0-.018.343" transform="translate(-525.539 -779.757)" fill="#e8c0a6"/>
        <path id="Trazado_1002956" data-name="Trazado 1002956" d="M636.225,947.149a.207.207,0,0,0,.243,0,2.855,2.855,0,0,1,1.956-.476c.93-.5-1.057-.727-2.2.14a.207.207,0,0,0,0,.333" transform="translate(-520.332 -773.97)" fill="#e8c0a6"/>
        <path id="Trazado_1002957" data-name="Trazado 1002957" d="M629,939.729a.206.206,0,0,0,.237.007,3.722,3.722,0,0,1,2.061-.588c.864-.6-1.1-.579-2.289.244a.207.207,0,0,0-.01.337" transform="translate(-514.42 -767.834)" fill="#e8c0a6"/>
        <path id="Trazado_1002958" data-name="Trazado 1002958" d="M613.4,938.487l-8.892-6.77a2.558,2.558,0,0,0-.345.958l8.1,6.17a.724.724,0,0,0,1.132-.359" transform="translate(-494.175 -762.096)" fill="#23659b"/>
        <path id="Trazado_1002959" data-name="Trazado 1002959" d="M799.419,460.033c15.057-3.239,23.615-12.836,17.369-28.252-.944-1.83-2.948-1.352-2.651.605,1.951,12.853-3.956,17.28-15.608,17.787,0,0-.029,0,.007-.006-6.45.607-5.568,10.415.883,9.866" transform="translate(-649.547 -352.237)" fill="#f99370"/>
        <path id="Trazado_1002960" data-name="Trazado 1002960" d="M773.576,923.058l-10.032.013c-.372-2.48,1.817-10.576,2.427-12.861l5.445,1.137-2.747,6.57s-1.27,1.73.407,2.2c1.86.633,3.85.41,5.115,1.719a.766.766,0,0,1-.614,1.222" transform="translate(-624.506 -744.505)" fill="#f99370"/>
        <path id="Trazado_1002961" data-name="Trazado 1002961" d="M761.923,962.44a2.554,2.554,0,0,0,.308.971l10.185-.013a.724.724,0,0,0,.688-.956c-.388-1.091-1.513-2.674-6.208-2.914a11.26,11.26,0,0,1-4.443.006,6.292,6.292,0,0,0-.53,2.906" transform="translate(-623.192 -784.844)" fill="#3a72aa"/>
        <path id="Trazado_1002962" data-name="Trazado 1002962" d="M806.046,965.819a.206.206,0,0,0,.191-.129,2.184,2.184,0,0,1,1.073-1.215c.53-.828-1-.237-1.456,1.061a.207.207,0,0,0,.191.283" transform="translate(-659.135 -788.577)" fill="#e8c0a6"/>
        <path id="Trazado_1002963" data-name="Trazado 1002963" d="M797.236,963.149a.207.207,0,0,0,.2-.146,2.876,2.876,0,0,1,1.267-1.566c.435-.96-1.281.065-1.661,1.444a.207.207,0,0,0,.2.267" transform="translate(-651.929 -786.099)" fill="#e8c0a6"/>
        <path id="Trazado_1002964" data-name="Trazado 1002964" d="M787.211,961.254a.206.206,0,0,0,.2-.139,3.72,3.72,0,0,1,1.282-1.718.206.206,0,0,0-.228-.344,4.075,4.075,0,0,0-1.444,1.927.207.207,0,0,0,.195.274" transform="translate(-643.729 -784.426)" fill="#e8c0a6"/>
        <path id="Trazado_1002965" data-name="Trazado 1002965" d="M773.218,975.44l-11.175.015a2.553,2.553,0,0,0,.308.971l10.185-.013a.724.724,0,0,0,.682-.972" transform="translate(-623.313 -797.859)" fill="#23659b"/>
        <path id="Trazado_1002966" data-name="Trazado 1002966" d="M727.835,556.7l-21.414-3.26c4.63-32.791,20.12-34,22.634-15.466.743,4.7-.521,15.99-1.22,18.726" transform="translate(-577.817 -430.198)" fill="#fcb4b4"/>
        <path id="Trazado_1002967" data-name="Trazado 1002967" d="M819.857,602.623a25.126,25.126,0,0,0-2.235-10.78l2.375-.412a48.9,48.9,0,0,1-.141,11.192" transform="translate(-668.774 -483.76)" fill="#f49f9f"/>
        <path id="Trazado_1002968" data-name="Trazado 1002968" d="M787.859,407.87s-.251.4-.592,1.015c-.75,1.34-1.941,3.7-1.941,5.123,0,2.074-5.009-2.638-5.009-2.638a25.314,25.314,0,0,1,4.24-4.493c.33-.274.678-.548,1.04-.815a3.536,3.536,0,0,0,2.262,1.809" transform="translate(-638.26 -332.136)" fill="#fcb4b4"/>
        <path id="Trazado_1002969" data-name="Trazado 1002969" d="M831.614,455.449c-1.126,6.316-6.695,11.105-11.917,13.069a27.812,27.812,0,0,1-8.859,1.906s-3.711-10.384.5-10.682,9.832-1.718,12.741-5.157c2.15-2.54,2.554-7.454,2.617-9.845.023-.845,0-1.375,0-1.375a3.753,3.753,0,0,0,2.954-.379s.2.4.476,1.091a21.838,21.838,0,0,1,1.484,11.371" transform="translate(-661.989 -362.339)" fill="#fcb4b4"/>
        <path id="Trazado_1002970" data-name="Trazado 1002970" d="M620.8,697.331a10.04,10.04,0,0,0,3.686,3.725,4.457,4.457,0,0,0,1.978.486q.943-.444,1.834-.928c13.927-7.545,18.227-21.812,19.146-35.137.042-.6,6.692,16.24-.205,38.832a7.651,7.651,0,0,0,5.919,1.353c4.19-8.054,13.837-27.454,5.6-53.114-2.715-1.059-18.308-2.561-21.579-.973a32.017,32.017,0,0,0-2.511,14.934c.88,15.419-8.417,25.812-12.257,29.416-.987.928-1.614,1.407-1.614,1.407" transform="translate(-507.787 -532.388)" fill="#3a72aa"/>
        <path id="Trazado_1002971" data-name="Trazado 1002971" d="M772.825,936.081c-.586,1.133-.886,1.729-.886,1.729a7.663,7.663,0,0,1-5.922-1.354c.16-.566.369-1.2.515-1.758a7.532,7.532,0,0,0,6.292,1.383" transform="translate(-626.564 -764.535)" fill="#23659b"/>
        <path id="Trazado_1002972" data-name="Trazado 1002972" d="M708.426,645.247s8.931-2.818,21.6,1.337a2.432,2.432,0,0,1,.29,1.657s-13.564-2.792-22.464-.874a3.758,3.758,0,0,1,.572-2.119" transform="translate(-578.985 -527.014)" fill="#23659b"/>
        <path id="Trazado_1002973" data-name="Trazado 1002973" d="M720.333,430.35c-2.765-.561-6.838.751-8.159,5.951-1.07,4.212-5.221,3.539-8.318,8.595-3.238,5.285-.636,10.04,4.035,12.77,8.606,5.162,22.565-4.212,18.158-14.432-1.863-4.422-.97-11.923-5.715-12.885" transform="translate(-574.54 -351.906)" fill="#8e4a35"/>
        <path id="Trazado_1002974" data-name="Trazado 1002974" d="M540.521,1023.747a1.8,1.8,0,0,0,1.724-1.18l3.6-10.639h21.023l-3.255,9.625c-.741,2.09,2.775,3.09,3.45,1.015,10.8-31.937,22.738-67.229,33.483-99,.745-2.1-2.785-3.083-3.45-1.015l-3.242,9.587H572.83l2.9-8.572c.744-2.091-2.784-3.092-3.45-1.015l-33.483,99a1.718,1.718,0,0,0,1.725,2.194m33.036-31.6H552.534l3.933-11.629H577.49Zm-6.942-41.634h21.023l-3.933,11.63H562.682Zm15.949,15-3.933,11.629H557.608l3.933-11.629Zm10.148-30-3.933,11.629H567.756l3.933-11.629Zm-45.727,73.043,4.408-13.034h21.023l-4.426,13.087a1.927,1.927,0,0,0-.441-.053Z" transform="translate(-440.636 -753.664)" fill="#1d3f70"/>
        <path id="Trazado_1002975" data-name="Trazado 1002975" d="M908.165,444.077a5.1,5.1,0,0,1-3.432.66l0,0c.023-.845,0-1.375,0-1.375a3.752,3.752,0,0,0,2.954-.378s.2.4.476,1.091" transform="translate(-740.024 -362.339)" fill="#f49f9f"/>
        <path id="Trazado_1002976" data-name="Trazado 1002976" d="M806.91,407.87s-.251.4-.592,1.015c-1.795.009-2.71-2.009-2.71-2.009.33-.274.678-.548,1.04-.815a3.536,3.536,0,0,0,2.262,1.809" transform="translate(-657.311 -332.136)" fill="#f49f9f"/>
        <path id="Trazado_1002977" data-name="Trazado 1002977" d="M620.8,899.7s2.307,4.21,5.664,4.21q.943-.444,1.834-.928a11.282,11.282,0,0,1-5.884-4.689c-.987.928-1.614,1.407-1.614,1.407" transform="translate(-507.787 -734.756)" fill="#23659b"/>
        <path id="Trazado_1002978" data-name="Trazado 1002978" d="M641.054,766.626a4.458,4.458,0,0,0,1.978.486q.943-.444,1.833-.928c13.927-7.545,18.227-21.812,19.146-35.136,0,0-1.665,9.624-4.778,16.738S649.5,761.747,642.409,765.7a8.066,8.066,0,0,0-1.355.923" transform="translate(-524.35 -597.958)" fill="#23659b"/>
        <path id="Trazado_1002979" data-name="Trazado 1002979" d="M818.216,374c-.315-.436-1.216.47-1.707.481a7.654,7.654,0,0,1,.736-1.6c.732-.782,1.506-1.522,2.313-2.228.515-1.545-2.517,1.212-2.864,1.428l-.013-.01a24.235,24.235,0,0,1,1.92-2.763c.177-1.7-2.452,2.034-2.73,2.355l-.008,0a14.058,14.058,0,0,1,1.514-2.826c.026-1.732-2.35,2.271-2.512,2.67h-.012a14.337,14.337,0,0,1,.831-2.409c-.207-1.617-1.771,2.139-1.879,2.52a10.332,10.332,0,0,0-1.005,3.6c-.083.622,1.544,1.28,2.116,1.052a7.4,7.4,0,0,0,1.4-.856c.5-.25,2.014-.774,1.9-1.412" transform="translate(-664.827 -301.334)" fill="#f99370"/>
        <path id="Trazado_1002980" data-name="Trazado 1002980" d="M894.105,400.439c.474-.254.887.955,1.323,1.18a7.645,7.645,0,0,0,.038-1.758c-.316-1.023-.687-2.028-1.1-3.016.214-1.615,1.732,2.192,1.949,2.538l.016,0a24.189,24.189,0,0,0-.516-3.324c.587-1.609,1.314,2.9,1.423,3.313h.008a14.066,14.066,0,0,0-.124-3.2c.735-1.568,1.119,3.071,1.089,3.5l.011.005a14.328,14.328,0,0,0,.308-2.53c.894-1.363.655,2.7.585,3.088a10.331,10.331,0,0,1-.672,3.674c-.2.6-1.949.474-2.363.019a7.421,7.421,0,0,1-.879-1.381c-.343-.445-1.472-1.578-1.093-2.1" transform="translate(-731.27 -323.67)" fill="#f99370"/>
        <path id="Trazado_1002981" data-name="Trazado 1002981" d="M1601.007,1008.623a23.911,23.911,0,0,1-28.321.591l-.354-3.47c15.65,1.213,19.31-7.266,29.31-10.771l-.871,3.163s.343,10.253.236,10.487" transform="translate(-1286.088 -813.837)" fill="#d1a68f"/>
        <path id="Trazado_1002982" data-name="Trazado 1002982" d="M1189.168,957.968v84.766a5,5,0,0,1-5,5H1099.4a5,5,0,0,1-5-5v-27.783c-19.312-.512-19.19-28.748,0-29.2.758-40.226-7.309-31.984,32.784-32.784.64,19.387,28.65,19.2,29.2,0h27.782a5.007,5.007,0,0,1,5,5" transform="translate(-883.352 -779.314)" fill="#0e5a52"/>
        <path id="Trazado_1002983" data-name="Trazado 1002983" d="M1825.063,1424.34l.166-.087c0,.116.144.521.26.521l4.918.1c.116,0,.188-.219.188-.336l.419-.12a2.523,2.523,0,0,0-.386-1.573c-1.2-1.589.232-8.7.19-10.554.295-.508-5.179-.109-5.256-.229a.211.211,0,0,0-.21.228l.644,8.122c.289,1.542-.894,2.474-.936,3.928" transform="translate(-1492.809 -1154.965)" fill="#f99370"/>
        <path id="Trazado_1002984" data-name="Trazado 1002984" d="M1687.836,1424.857h9.8c.855-.034.849-.907.691-1.583-.539-2.438.414-8.036.591-10.544a.779.779,0,0,0-.775-.858c-7.229-.073-4.768-1.072-4.342,6.734.216,3.972-2.79,3.654-4.642,3.956-1.22.088-3.259,1.753-1.319,2.295" transform="translate(-1379.909 -1154.774)" fill="#f99370"/>
        <path id="Trazado_1002985" data-name="Trazado 1002985" d="M1698.228,1464.343c-.026.48-.265,1.028-.821,1.016h-10.162c-2.4-.889,1.047-4.068,5.739-4.049a13,13,0,0,0,4.711.182,4.256,4.256,0,0,1,.534,2.852" transform="translate(-1379.44 -1195.276)" fill="#103663"/>
        <path id="Trazado_1002986" data-name="Trazado 1002986" d="M1829.495,1464.854h-4.343c-2.117-.289-.6-4.045,2.172-4.16s4.287,3.875,2.172,4.16" transform="translate(-1492.067 -1194.771)" fill="#103663"/>
        <path id="Trazado_1002987" data-name="Trazado 1002987" d="M1697.609,1467.885a.216.216,0,0,1-.2-.135,2.286,2.286,0,0,0-1.125-1.27c-.549-.867,1.047-.25,1.525,1.108a.217.217,0,0,1-.2.3" transform="translate(-1387.382 -1199.178)" fill="#e8c0a6"/>
        <path id="Trazado_1002988" data-name="Trazado 1002988" d="M1706.021,1465.081a.216.216,0,0,1-.206-.152,2.989,2.989,0,0,0-1.327-1.637c-.5-1.007,1.357.071,1.739,1.509a.217.217,0,0,1-.206.28" transform="translate(-1394.116 -1196.576)" fill="#e8c0a6"/>
        <path id="Trazado_1002989" data-name="Trazado 1002989" d="M1716.521,1463.043a.216.216,0,0,1-.2-.145,3.9,3.9,0,0,0-1.344-1.8c-.551-1.488,2.49,1.544,1.548,1.941" transform="translate(-1402.706 -1194.772)" fill="#e8c0a6"/>
        <path id="Trazado_1002990" data-name="Trazado 1002990" d="M1834.974,1464.813a3.85,3.85,0,0,0-3.064-.019c-1.26-.271,1.719-1.335,3.173-.383a.217.217,0,0,1-.109.4" transform="translate(-1498.161 -1197.495)" fill="#e8c0a6"/>
        <path id="Trazado_1002991" data-name="Trazado 1002991" d="M1686.639,1477.971h11.694a2.68,2.68,0,0,1-.321,1.016H1687.35a.755.755,0,0,1-.711-1.016" transform="translate(-1379.545 -1208.904)" fill="#0f2e54"/>
        <path id="Trazado_1002992" data-name="Trazado 1002992" d="M1829.629,1478.987h-4.343a.963.963,0,0,1-.963-1.016h6.27a.963.963,0,0,1-.963,1.016" transform="translate(-1492.202 -1208.904)" fill="#0f2e54"/>
        <path id="Trazado_1002993" data-name="Trazado 1002993" d="M1707.969,1152.208a14.615,14.615,0,0,0,7.772.329q-.077-.748-.141-1.518c-1.392-17.25,3.268-41.562,3.747-43.331a0,0,0,0,1,0,0c.022-.085.036-.117.037-.09,3.059,19.991,6.091,36.568,7.512,44.307,3.632,1.7,7.317-.732,7.317-.732.022-.7.041-1.385.057-2.066.838-13.432-1.079-54.647-8.017-62.7-8.049,3.993-19.116,4.616-19.116,4.616-1.851,35.135-1.761,51.929.829,61.183" transform="translate(-1395.315 -888.626)" fill="#9358e0"/>
        <path id="Trazado_1002994" data-name="Trazado 1002994" d="M1736.35,956.143c-.459-2.426-1.573-6.79.252-7.866a1.959,1.959,0,0,1,2.936,1.8,22.159,22.159,0,0,0,.684,5.566c3.783.474-6.449,5.852-3.872.5" transform="translate(-1419.626 -775.443)" fill="#f99370"/>
        <path id="Trazado_1002995" data-name="Trazado 1002995" d="M1739.3,949.71c0,.068,0,.138,0,.206a21.824,21.824,0,0,0,.352,4.174,6.6,6.6,0,0,1-3.722.977c-.5-2.581-1.313-5.761.434-6.946a1.954,1.954,0,0,1,2.938,1.589" transform="translate(-1419.386 -775.286)" fill="#e57d61"/>
        <path id="Trazado_1002996" data-name="Trazado 1002996" d="M1722.022,1222.526c-4.55-21.227.079-49.092.774-49.3.356.166-3.688,28.17-.774,49.3" transform="translate(-1406.909 -959.642)" fill="#7640cc"/>
        <path id="Trazado_1002997" data-name="Trazado 1002997" d="M1807.847,1216.778l-.321-.143c-3.552-22.588-7.446-49.628-6.952-50.014.534.075,4.711,27.037,7.273,50.157" transform="translate(-1472.744 -954.236)" fill="#7640cc"/>
        <path id="Trazado_1002998" data-name="Trazado 1002998" d="M1726.311,1019.151c-5.358,4.054-18.488,5.317-23.838,3.38-1.8-.764-2.056-6.838-1.846-12.8.321-7.952,2.233-13.663,5.9-18.977a6.41,6.41,0,0,1,1.168-.433c-.018.726.148,2.826,3.873-.507.016.014,1.4.06,1.4.06,5.636,2.816,8.047,8.8,9.806,15.624,2.7,10.465,4.593,12.077,3.531,13.656" transform="translate(-1390.976 -809.614)" fill="#e8c0a6"/>
        <path id="Trazado_1002999" data-name="Trazado 1002999" d="M1750.562,1246.408l1.492.214c-1.392-17.25,3.268-41.562,3.747-43.331a69.463,69.463,0,0,0-3.606,14.638c-1.535,9.831-2.014,23.495-1.633,28.479" transform="translate(-1431.769 -984.229)" fill="#7640cc"/>
        <path id="Trazado_1003000" data-name="Trazado 1003000" d="M1739.744,989.6c-1.226,2.091-6.668,5.364-6.445.88a3.155,3.155,0,0,1,1.168-.433c-.008.118-.222,3.2,3.874-.507a2.974,2.974,0,0,1,1.4.061" transform="translate(-1417.745 -809.34)" fill="#d1a68f"/>
        <path id="Trazado_1003001" data-name="Trazado 1003001" d="M1723.008,1438.7a14.614,14.614,0,0,1-7.773-.328l-.481-1.937s4.61,1.6,8.038-.169q.1,1.225.215,2.435" transform="translate(-1402.582 -1174.794)" fill="#7640cc"/>
        <path id="Trazado_1003002" data-name="Trazado 1003002" d="M1827.255,1430.792c-.016.681-.035,1.368-.057,2.066,0,0-3.684,2.431-7.317.732,0,0-.119-.636-.332-1.8a10.7,10.7,0,0,0,7.707-1" transform="translate(-1488.298 -1170.314)" fill="#7640cc"/>
        <path id="Trazado_1003003" data-name="Trazado 1003003" d="M1720.306,924.777a10.578,10.578,0,0,1,.862-3.453l1.151.64Z" transform="translate(-1407.123 -753.595)" fill="#163260"/>
        <path id="Trazado_1003004" data-name="Trazado 1003004" d="M1712.69,924.391a5.826,5.826,0,0,0,6.77,1.23h0a4.01,4.01,0,0,0,.458-.295h0c6.937-6.292-1.45-17.62-6.029-8.354-1.52,2.6-4,3.9-1.2,7.418" transform="translate(-1399.855 -747.168)" fill="#f99370"/>
        <path id="Trazado_1003005" data-name="Trazado 1003005" d="M1735.424,943.063a.265.265,0,1,1,.35.134.264.264,0,0,1-.35-.134" transform="translate(-1419.47 -771.073)" fill="#c16256"/>
        <path id="Trazado_1003006" data-name="Trazado 1003006" d="M1723.319,940.384a.265.265,0,1,1,.35.134.264.264,0,0,1-.35-.134" transform="translate(-1409.568 -768.881)" fill="#c16256"/>
        <path id="Trazado_1003007" data-name="Trazado 1003007" d="M1723.537,945.339a1.079,1.079,0,0,0,.448-.01.1.1,0,0,0-.051-.194.9.9,0,0,1-.865-.257c-.02-.055.054-.1.121-.135.583-.278,1.019-1.331,1.037-1.375a.1.1,0,0,0-.185-.076c0,.01-.424,1.026-.937,1.27-.28.133-.249.314-.222.385a.859.859,0,0,0,.656.392" transform="translate(-1409.216 -771.513)" fill="#c16256"/>
        <path id="Trazado_1003008" data-name="Trazado 1003008" d="M1726.863,916.13c1.473-.681,4.037.143,5.314.2a4.218,4.218,0,0,0,1.737,3.838c.082,2.016.366,2.91-1.823,5.25h0a3.994,3.994,0,0,0,.458-.295h0c6.677-6-1.027-17.228-5.688-8.993" transform="translate(-1412.486 -746.965)" fill="#e57d61"/>
        <path id="Trazado_1003009" data-name="Trazado 1003009" d="M1720.077,898.192c.908-1.579,3.394-2.334,5.4-.219,1.542,1.629,3.294,1.708,3.174,3.332,3.178,1.647,1.375,5.148,1.375,5.148l-1.621-.278a5.006,5.006,0,0,1-1.613-3.818h0a4.278,4.278,0,0,1-1.235-.161,7.94,7.94,0,0,0-4.334-.183c-1.38.428-2.158-2.055-1.144-3.821" transform="translate(-1406.558 -733.433)" fill="#163260"/>
        <path id="Trazado_1003010" data-name="Trazado 1003010" d="M1766.541,949.347a1.28,1.28,0,1,1-.81-1.821,1.426,1.426,0,0,1,.81,1.821" transform="translate(-1442.912 -775)" fill="#f99370"/>
        <path id="Trazado_1003011" data-name="Trazado 1003011" d="M1768.627,950.813c.027-.009.658-.215.989.125a.643.643,0,0,1,.164.337h0c0,.013.006.024.008.038h0a2.176,2.176,0,0,1-.169,1,.1.1,0,0,1-.111.065l-.017,0a.1.1,0,0,1-.06-.128,2.226,2.226,0,0,0,.166-.82,1.375,1.375,0,0,0-.908.711.1.1,0,0,1-.107.055.11.11,0,0,1-.027-.009.1.1,0,0,1-.046-.134,1.546,1.546,0,0,1,1.051-.826.41.41,0,0,0-.087-.148c-.243-.25-.777-.076-.782-.074a.1.1,0,0,1-.064-.19" transform="translate(-1446.542 -777.659)" fill="#c16256"/>
        <path id="Trazado_1003012" data-name="Trazado 1003012" d="M1736.479,937.243a.118.118,0,0,0,.128-.161,2.1,2.1,0,0,0-1.457-1.141.118.118,0,1,0-.052.229,1.859,1.859,0,0,1,1.292,1,.117.117,0,0,0,.089.071" transform="translate(-1419.147 -765.549)" fill="#c16256"/>
        <path id="Trazado_1003013" data-name="Trazado 1003013" d="M1722.744,935.116a.117.117,0,0,0,.1-.032,1.39,1.39,0,0,1,.967-.251.118.118,0,0,0,.025-.234,1.6,1.6,0,0,0-1.158.318.118.118,0,0,0,0,.166.116.116,0,0,0,.064.033" transform="translate(-1409.037 -764.447)" fill="#c16256"/>
        <path id="Trazado_1003014" data-name="Trazado 1003014" d="M1693.9,990.14s9.839-.2,8.932,14.2c-.533,8.454-7.905,19.994-25.587,13.457a3.168,3.168,0,0,0,.333-2.4s8.808-3.136,11.086-5.432c2.521-2.539,2.239-9.218,2.96-12.851a25.768,25.768,0,0,1,2.275-6.979" transform="translate(-1371.905 -809.884)" fill="#d1a68f"/>
        <path id="Trazado_1003015" data-name="Trazado 1003015" d="M1638.413,1114.958c-.288.5.855.987,1.04,1.478a7.81,7.81,0,0,1-1.784-.169c-1-.44-1.972-.934-2.924-1.472-1.627.072,2,1.984,2.342,2.27l-.005.016a24.718,24.718,0,0,1-3.3-.914c-1.695.4,2.782,1.67,3.187,1.83,0,0,0,.005,0,.008a14.331,14.331,0,0,1-3.229-.5c-1.611.6,2.937,1.471,3.416,1.514l0,.012a14.623,14.623,0,0,1-2.6.013c-1.439.769,2.626.969,3.058.956a10.532,10.532,0,0,0,3.8-.246c.626-.13.708-1.915.3-2.388-.718-.5-2.829-2.869-3.3-2.405" transform="translate(-1336.032 -911.845)" fill="#f99370"/>
        <path id="Trazado_1003016" data-name="Trazado 1003016" d="M1725.167,956.032l2.255-1.152a1.292,1.292,0,0,1-2.255,1.152" transform="translate(-1411.099 -781.043)" fill="#f9f8f3"/>
        <path id="Trazado_1003017" data-name="Trazado 1003017" d="M1724.711,955.8c.07.032,2.254-1.151,2.318-1.161a.1.1,0,0,0,.043-.133c.01-.244-2.333,1.135-2.387,1.109a.1.1,0,0,0,.026.184" transform="translate(-1410.662 -780.711)" fill="#c16256"/>
        <path id="Trazado_1003018" data-name="Trazado 1003018" d="M1378.192,53.088s1.542-2.9,6.132-1.985,5.608,6.762,7.139,9.436c3.242,5.665,4.165,11.656,2.414,14.509-1.944,3.168-6.143,1.873-12.289,1.231-6.559-.685-9.244-6.415-5.071-14.2Z" transform="translate(-1124.286 -41.653)" fill="#662948"/>
        <path id="Trazado_1003019" data-name="Trazado 1003019" d="M1347.872,137.348c-1.829,2.616-3.124,15.462-3.173,16.461l-9.359-.8c-.558-4.714,5.793-14.3,11.5-15.375h0a9.377,9.377,0,0,1,1.033-.285" transform="translate(-1092.213 -112.343)" fill="#3a72aa"/>
        <path id="Trazado_1003020" data-name="Trazado 1003020" d="M1250.37,497.759l9.146,0c-.007-1.462-.363-4.418-.053-6.082l-3.953.464c.1.8.324,2.543-1.011,2.944-1.729.519-3.6.332-4.693,1.646a.668.668,0,0,0,.565,1.025" transform="translate(-1022.191 -402.169)" fill="#f99370"/>
        <path id="Trazado_1003021" data-name="Trazado 1003021" d="M1259.381,507.686a2.322,2.322,0,0,1-.278.881l-9.235,0a.656.656,0,0,1-.625-.866c.351-.99,1.505-2.423,5.762-2.644a12.5,12.5,0,0,0,3.937-.164,7,7,0,0,1,.439,2.8" transform="translate(-1021.787 -412.973)" fill="#1d3f70"/>
        <path id="Trazado_1003022" data-name="Trazado 1003022" d="M1258.8,511.5a.187.187,0,0,1-.171-.117,1.982,1.982,0,0,0-.974-1.1c-.482-.75.91-.216,1.321.961a.188.188,0,0,1-.176.257" transform="translate(-1028.617 -417.098)" fill="#e8c0a6"/>
        <path id="Trazado_1003023" data-name="Trazado 1003023" d="M1266.093,509.07a.187.187,0,0,1-.177-.132,2.589,2.589,0,0,0-1.149-1.419c-.437-.873,1.179.062,1.507,1.308a.188.188,0,0,1-.181.242" transform="translate(-1034.454 -414.845)" fill="#e8c0a6"/>
        <path id="Trazado_1003024" data-name="Trazado 1003024" d="M1275.237,507.384a.188.188,0,0,1-.175-.126,3.375,3.375,0,0,0-1.164-1.557c-.336-.914,1.131.195,1.517,1.434a.188.188,0,0,1-.179.249" transform="translate(-1041.944 -413.362)" fill="#e8c0a6"/>
        <path id="Trazado_1003025" data-name="Trazado 1003025" d="M1249.3,520.231l10.133,0a2.318,2.318,0,0,1-.278.881l-9.235,0a.656.656,0,0,1-.619-.881" transform="translate(-1021.832 -425.522)" fill="#395b96"/>
        <path id="Trazado_1003026" data-name="Trazado 1003026" d="M1286.888,288.131c-4.5-.24-12.312-2.809-15.76,2.879-3.774,6.212-3.019,19.49-2.717,25.906-4.96,1.535-7.6-.087-7.6-.087-1.955-13.149-8.548-43.125,14.588-38.713l15.547.176c2.54,5.33.164,9.8-4.06,9.838" transform="translate(-1029.338 -227.125)" fill="#eb5648"/>
        <path id="Trazado_1003027" data-name="Trazado 1003027" d="M1310.61,498.444l9.146,0c-.007-1.462-.363-4.417-.053-6.082l-3.953.465c.1.8.354,2.543-1.011,2.943-1.733.507-3.6.332-4.693,1.646a.668.668,0,0,0,.565,1.025" transform="translate(-1071.464 -402.729)" fill="#f99370"/>
        <path id="Trazado_1003028" data-name="Trazado 1003028" d="M1319.677,508.535a2.313,2.313,0,0,1-.278.881l-9.235,0a.656.656,0,0,1-.625-.866c.351-.99,1.52-2.448,5.776-2.669a11.1,11.1,0,0,0,3.914-.1,6.691,6.691,0,0,1,.448,2.76" transform="translate(-1071.106 -413.697)" fill="#1d3f70"/>
        <path id="Trazado_1003029" data-name="Trazado 1003029" d="M1319.04,512.182a.187.187,0,0,1-.171-.117,1.981,1.981,0,0,0-.974-1.1c-.481-.751.91-.216,1.321.961a.188.188,0,0,1-.176.257" transform="translate(-1077.889 -417.658)" fill="#e8c0a6"/>
        <path id="Trazado_1003030" data-name="Trazado 1003030" d="M1326.333,509.753a.187.187,0,0,1-.177-.132,2.589,2.589,0,0,0-1.149-1.419c-.437-.873,1.179.062,1.507,1.308a.188.188,0,0,1-.181.243" transform="translate(-1083.727 -415.404)" fill="#e8c0a6"/>
        <path id="Trazado_1003031" data-name="Trazado 1003031" d="M1335.476,508.069a.187.187,0,0,1-.174-.126,3.375,3.375,0,0,0-1.164-1.557c-.337-.915,1.131.195,1.517,1.434a.188.188,0,0,1-.179.248" transform="translate(-1091.216 -413.922)" fill="#e8c0a6"/>
        <path id="Trazado_1003032" data-name="Trazado 1003032" d="M1309.543,520.915l10.133,0a2.317,2.317,0,0,1-.278.881l-9.235,0a.656.656,0,0,1-.619-.881" transform="translate(-1071.105 -426.081)" fill="#395b96"/>
        <path id="Trazado_1003033" data-name="Trazado 1003033" d="M1314.958,280.164l-1.44,9.678c-5.839,2.223-6.327,8.335-6.936,15.215-2.571-10.669-2.214-21.419,8.377-24.893" transform="translate(-1067.63 -229.159)" fill="#ce3932"/>
        <path id="Trazado_1003034" data-name="Trazado 1003034" d="M1338.526,290.479c-4.973,2.423-10.813-.855-14.2,5.8-2.74,5.825-1.369,17.033-.692,22.114-4.96,1.535-7.6-.087-7.6-.087-2.8-11.356-9.2-37.745,9.748-38.769,5.187-.106,12,.017,16.586-.207,0,0,2.309,8.156-3.84,11.152" transform="translate(-1073.723 -228.474)" fill="#eb5648"/>
        <path id="Trazado_1003035" data-name="Trazado 1003035" d="M1359.28,179.44a.156.156,0,0,1-.153-.171c.339-2.566,3.1-5.865,3.454-5.683.24.317-2.93,3.04-3.145,5.713a.156.156,0,0,1-.157.14" transform="translate(-1111.696 -141.978)" fill="#23659b"/>
        <path id="Trazado_1003036" data-name="Trazado 1003036" d="M1379.319,160.518a15.469,15.469,0,0,1,.155,4.082c-7.647.862-12.463.852-21.746-.553,6.073-17.522-7.275-6.363,8.484-26.7l3.839.391c4.328,3.332,7.09,7.717,9.268,22.78" transform="translate(-1110.553 -112.343)" fill="#3a72aa"/>
        <path id="Trazado_1003037" data-name="Trazado 1003037" d="M1252.6,216.706l20.577.235-3.925-15.13-20.453-.233Z" transform="translate(-1021.454 -164.88)" fill="#163260"/>
        <rect id="Rectángulo_456469" data-name="Rectángulo 456469" width="1.024" height="20.579" transform="translate(231.135 52.776) rotate(-89.347)" fill="#234270"/>
        <path id="Trazado_1003038" data-name="Trazado 1003038" d="M1359.447,202.839l.736.008,3.842,15.054,9.765.111-.011,1.024-10.451-.119.01-.916Z" transform="translate(-1111.959 -165.911)" fill="#0b274f"/>
        <path id="Trazado_1003039" data-name="Trazado 1003039" d="M1423.38,152.281a16.028,16.028,0,0,1,5.844,15.84c-.517,3.263-2.615,6.348-5.851,7.236-1.6.619-9.041,1.559-8.665-1.075.125-.631.689-.858,1.234-1.021.9-.306,1.826-.644,2.685-1.023,1.538-.776,3.513-1.5,3.866-3.211a11.411,11.411,0,0,0-3.81-10.592c.005,0-.014-.012.03.021-4.026-3.071.616-9.209,4.667-6.176" transform="translate(-1157.148 -123.887)" fill="#f99370"/>
        <path id="Trazado_1003040" data-name="Trazado 1003040" d="M1432.951,163.013a17.351,17.351,0,0,1-6.478,1.4s.436-2.619-1.448-3.722c10.774-8-4.443-11.586-1.377-23.481,11.451.335,23.078,17.829,9.3,25.8" transform="translate(-1164.131 -112.23)" fill="#3a72aa"/>
        <path id="Trazado_1003041" data-name="Trazado 1003041" d="M1389.77,273.046s.953-3.194,6.419-2.762l1.113,2.848Z" transform="translate(-1136.761 -221.045)" fill="#f99370"/>
        <path id="Trazado_1003042" data-name="Trazado 1003042" d="M1435.8,266.112c-.783.078-1.27.074-1.27.074s.436-2.62-1.448-3.722a10.316,10.316,0,0,0,1.086-.829,4.844,4.844,0,0,1,1.632,4.477" transform="translate(-1172.19 -214.003)" fill="#23659b"/>
        <path id="Trazado_1003043" data-name="Trazado 1003043" d="M1436.646,209.551a.157.157,0,0,1-.1-.275c4.791-4.172,2.519-8.673-.269-11.6-.137-.144.1-.363.231-.209,2.966,3.034,5.186,8.016.137,12.086" transform="translate(-1174.769 -161.472)" fill="#23659b"/>
        <path id="Trazado_1003044" data-name="Trazado 1003044" d="M1446.81,279.9c-.881-.527,2.494-.23,5.077-1.416a.156.156,0,1,1,.115.289,16.808,16.808,0,0,1-5.192,1.127" transform="translate(-1183.3 -227.776)" fill="#23659b"/>
        <path id="Trazado_1003045" data-name="Trazado 1003045" d="M1396.773,141.365a1.163,1.163,0,0,1-1.1,1.02c-2.742-1.209-.824,2.532-1.962,2.9-.957.308-1.056-.937-1.886-1.014-1.205-.113-1.458.542-1.877.138-.583-.563.856-1.517.684-2.514-.121-.7-1.518-.014-1.483-1.451.038-1.412,1.678-3.51,1.73-3.574v0c1.541-.794,4.891-.311,4.891-.311a1.708,1.708,0,0,1,.869.074,17.441,17.441,0,0,1,.134,4.738" transform="translate(-1136.252 -111.573)" fill="#f4d4be"/>
        <path id="Trazado_1003046" data-name="Trazado 1003046" d="M1403.665,125.08l-.109,1.365s-.143,1.313-.171,3.756c-.039,3.435.814,3.045,2.018.658.661-1.311,2.01-4.44,2.01-4.44l.208-2.4Z" transform="translate(-1147.897 -101.44)" fill="#f99370"/>
        <path id="Trazado_1003047" data-name="Trazado 1003047" d="M1409.182,98.086c-.016.065-.035.13-.058.193a20.767,20.767,0,0,0-.716,3.872,6.466,6.466,0,0,1-3.929.75c.117-2.564.376-6.4,2.359-7.092a1.911,1.911,0,0,1,2.344,2.277" transform="translate(-1148.793 -78.305)" fill="#e57d61"/>
        <path id="Trazado_1003048" data-name="Trazado 1003048" d="M1383.338,61.752c-4.956-.652-5.833,7.173-2.492,10.094Z" transform="translate(-1127.832 -50.478)" fill="#662948"/>
        <path id="Trazado_1003049" data-name="Trazado 1003049" d="M1390.215,69.356a7.754,7.754,0,0,1-.759,5.184h0c-2.66,4.241-11.268,1.389-8.843-3.648a5.045,5.045,0,0,0,.594-2.092c.158-6.992,8.388-5.431,9.011.555" transform="translate(-1128.921 -52.494)" fill="#f99370"/>
        <path id="Trazado_1003050" data-name="Trazado 1003050" d="M1399.032,95.242a.258.258,0,0,1,.375-.355.258.258,0,0,1-.375.355" transform="translate(-1144.277 -77.544)" fill="#c16256"/>
        <path id="Trazado_1003051" data-name="Trazado 1003051" d="M1387.031,96.7a.258.258,0,0,1,.375-.355.258.258,0,0,1-.375.355" transform="translate(-1134.461 -78.736)" fill="#c16256"/>
        <path id="Trazado_1003052" data-name="Trazado 1003052" d="M1390.84,99.792c-.437.064-1.068-.056-.65-.575a2.891,2.891,0,0,0,.45-1.474.1.1,0,0,1,.2.01,3.009,3.009,0,0,1-.508,1.6c-.051.051-.1.12-.067.164a.874.874,0,0,0,.878-.044.1.1,0,0,1,.136.026c.071.2-.282.245-.435.29" transform="translate(-1136.992 -79.875)" fill="#c16256"/>
        <path id="Trazado_1003053" data-name="Trazado 1003053" d="M1398.749,68.924a7.755,7.755,0,0,1-.759,5.184h0a9.481,9.481,0,0,0,.312-3.221l-.6-.785c-6.22-.154-7.082-4.859-7.082-4.859,2.69-3.721,7.852-.267,8.131,3.68" transform="translate(-1137.455 -52.063)" fill="#e57d61"/>
        <path id="Trazado_1003054" data-name="Trazado 1003054" d="M1393.275,59.654s.872,4.632,6.5,4.976l1.527-1.546c.747-4.015-3.988-8.189-8.027-3.43" transform="translate(-1139.628 -47.057)" fill="#662948"/>
        <path id="Trazado_1003055" data-name="Trazado 1003055" d="M1431.369,89.275a1.241,1.241,0,1,1-2.43.192,1.241,1.241,0,1,1,2.43-.192" transform="translate(-1168.792 -71.895)" fill="#f99370"/>
        <path id="Trazado_1003056" data-name="Trazado 1003056" d="M1433.477,91.135h0c-.243-.778-1.745.033-1.11.069,0-.034.669-.423.871-.077-.655.3-.886,1.513-.5,1.124a1.326,1.326,0,0,1,.6-.954c.234,1.77.48.547.141-.163" transform="translate(-1171.476 -74.268)" fill="#c16256"/>
        <path id="Trazado_1003057" data-name="Trazado 1003057" d="M1436.158,101.151a.219.219,0,0,1-.421.124.219.219,0,0,1,.421-.124" transform="translate(-1174.351 -82.61)" fill="#f4d4be"/>
        <path id="Trazado_1003058" data-name="Trazado 1003058" d="M1399.1,188.035a.437.437,0,0,1-.874-.01.437.437,0,0,1,.874.01" transform="translate(-1143.68 -153.45)" fill="#23659b"/>
        <path id="Trazado_1003059" data-name="Trazado 1003059" d="M1394.2,204.878a.437.437,0,0,1-.874-.01.437.437,0,0,1,.874.01" transform="translate(-1139.667 -167.227)" fill="#23659b"/>
        <path id="Trazado_1003060" data-name="Trazado 1003060" d="M1394.023,220.085a.437.437,0,0,1-.874-.01.437.437,0,0,1,.874.01" transform="translate(-1139.525 -179.665)" fill="#23659b"/>
        <path id="Trazado_1003061" data-name="Trazado 1003061" d="M1277.679,481.109c.065,1.374.1,2.2.1,2.2-4.959,1.535-7.6-.087-7.6-.087s-.09-.683-.289-1.874c.059.03,3.134,1.586,7.784-.243" transform="translate(-1038.71 -393.522)" fill="#ce3932"/>
        <path id="Trazado_1003062" data-name="Trazado 1003062" d="M1336.69,485.69c-4.96,1.535-7.6-.087-7.6-.087s-.158-.638-.426-1.739c0,0,2.708,1.448,7.786.089.137,1.087.239,1.737.239,1.737" transform="translate(-1086.781 -395.775)" fill="#ce3932"/>
        <path id="Trazado_1003063" data-name="Trazado 1003063" d="M1390.665,277.114c-.973.019,2.594-2.369,3.643-1.763a.155.155,0,0,1-.141.169,7.527,7.527,0,0,0-3.5,1.594" transform="translate(-1137.357 -225.141)" fill="#e57d61"/>
        <path id="Trazado_1003064" data-name="Trazado 1003064" d="M1399.006,280.779c-.734-.323,1.564-.837,2.7-1.131a.156.156,0,1,1,.06.305,25.9,25.9,0,0,0-2.762.826" transform="translate(-1144.2 -228.734)" fill="#e57d61"/>
        <path id="Trazado_1003065" data-name="Trazado 1003065" d="M1397.505,90.176a.11.11,0,0,1-.068-.024,1.413,1.413,0,0,0-1.206-.335.111.111,0,0,1-.061-.213,1.629,1.629,0,0,1,1.405.375.111.111,0,0,1-.07.2" transform="translate(-1141.931 -73.262)" fill="#c16256"/>
        <path id="Trazado_1003066" data-name="Trazado 1003066" d="M1395.154,110.017a.109.109,0,0,1,.062-.037,1.413,1.413,0,0,0,1.03-.711.111.111,0,0,1,.2.09,1.63,1.63,0,0,1-1.188.839.111.111,0,0,1-.106-.18" transform="translate(-1141.143 -89.322)" fill="#c16256"/>
        <path id="Trazado_1003067" data-name="Trazado 1003067" d="M1385.5,91.172a.111.111,0,0,1-.09-.174,1.167,1.167,0,0,1,.94-.492.11.11,0,0,1,.1.116.109.109,0,0,1-.116.1.964.964,0,0,0-.747.4.111.111,0,0,1-.092.048" transform="translate(-1133.181 -74.028)" fill="#c16256"/>
        <path id="Trazado_1003068" data-name="Trazado 1003068" d="M1286.479,1457.513l8.513-4.315a8.778,8.778,0,0,1-1.86-3.191,155.089,155.089,0,0,0-8.406-21.373l-7.889,1.632,12.408,20.569a1.771,1.771,0,0,1-.218,2.243c-1.269,1.378-3.1,1.988-3.6,3.663a.728.728,0,0,0,1.048.771" transform="translate(-1044.388 -1168.549)" fill="#f99370"/>
        <path id="Trazado_1003069" data-name="Trazado 1003069" d="M1333,1548.269a2.433,2.433,0,0,1,.158.956l-8.643,4.381a.688.688,0,0,1-1-.513c-.141-1.093.317-3.014,4.195-5.242a9.445,9.445,0,0,0,3.584-1.816,5.98,5.98,0,0,1,1.7,2.235" transform="translate(-1082.551 -1264.577)" fill="#eb5648"/>
        <path id="Trazado_1003070" data-name="Trazado 1003070" d="M1328.391,1571.6a.2.2,0,0,1-.215-.028,2.08,2.08,0,0,0-1.434-.568.2.2,0,0,1-.036-.391,2.465,2.465,0,0,1,1.728.662.2.2,0,0,1-.042.324" transform="translate(-1085.037 -1284.678)" fill="#e8c0a6"/>
        <path id="Trazado_1003071" data-name="Trazado 1003071" d="M1333.989,1565.983a.2.2,0,0,1-.227-.04,2.738,2.738,0,0,0-1.749-.782c-.821-.61,1.133-.5,2.031.509a.2.2,0,0,1-.055.313" transform="translate(-1089.358 -1279.915)" fill="#e8c0a6"/>
        <path id="Trazado_1003072" data-name="Trazado 1003072" d="M1341.751,1560.135a.2.2,0,0,1-.222-.035,3.54,3.54,0,0,0-1.828-.9c-.749-.7,1.151-.354,2.1.621a.2.2,0,0,1-.05.318" transform="translate(-1095.667 -1275.042)" fill="#e8c0a6"/>
        <path id="Trazado_1003073" data-name="Trazado 1003073" d="M1323.6,1563.118l9.484-4.807a2.431,2.431,0,0,1,.158.956l-8.643,4.381a.688.688,0,0,1-1-.53" transform="translate(-1082.638 -1274.619)" fill="#ce3932"/>
        <path id="Trazado_1003074" data-name="Trazado 1003074" d="M1178.161,1453.646l9.684-.027c.163-.51-.381-2.841-.228-3.687,3.257-17.977,2.794-24.356,2.848-25.068l-9.243-.714,2.55,24.774a1.77,1.77,0,0,1-1.2,1.906c-1.794.708-3.987.323-5.008,1.9a.647.647,0,0,0,.6.911" transform="translate(-963.136 -1164.882)" fill="#f99370"/>
        <path id="Trazado_1003075" data-name="Trazado 1003075" d="M1187.946,1568.532a2.433,2.433,0,0,1-.289.925l-9.689.027a.689.689,0,0,1-.659-.906c.365-1.04,1.637-2.551,6.1-2.8a9.444,9.444,0,0,0,4.017-.011,5.986,5.986,0,0,1,.516,2.762" transform="translate(-962.949 -1280.719)" fill="#eb5648"/>
        <path id="Trazado_1003076" data-name="Trazado 1003076" d="M1187.054,1571.785a2.427,2.427,0,0,0-1.081-1.228.2.2,0,0,1,.144-.365,2.47,2.47,0,0,1,1.246,1.369.2.2,0,0,1-.308.224" transform="translate(-969.968 -1284.324)" fill="#e8c0a6"/>
        <path id="Trazado_1003077" data-name="Trazado 1003077" d="M1194.646,1569.222a3.138,3.138,0,0,0-1.272-1.576.2.2,0,0,1,.18-.349,3.094,3.094,0,0,1,1.406,1.716.2.2,0,0,1-.314.208" transform="translate(-976.034 -1281.949)" fill="#e8c0a6"/>
        <path id="Trazado_1003078" data-name="Trazado 1003078" d="M1204.243,1567.569c-.45-1.3-1.524-1.669-1.341-1.986.267-.31,1.142.532,1.653,1.771a.2.2,0,0,1-.312.215" transform="translate(-983.896 -1280.514)" fill="#e8c0a6"/>
        <path id="Trazado_1003079" data-name="Trazado 1003079" d="M1177.315,1580.972l10.631-.029a2.432,2.432,0,0,1-.289.925l-9.689.027a.689.689,0,0,1-.653-.922" transform="translate(-962.948 -1293.13)" fill="#ce3932"/>
        <path id="Trazado_1003080" data-name="Trazado 1003080" d="M1133.459,1074.329c-12.041-2.659-19.125-14.631-19.213-26.427a1.336,1.336,0,0,1,2.516-.609c4.447,9.917,7.582,16.4,18.545,19.871,4.681,1.23,2.842,8.353-1.847,7.166" transform="translate(-911.396 -856.049)" fill="#f99370"/>
        <path id="Trazado_1003081" data-name="Trazado 1003081" d="M1244.8,1159.457c13.88.511,28.348,14.9,9.817,22.533-1.886.709-2.553-1.388-1.127-2.558,10.889-8.934-2.046-11.41-9.533-12.624-4.766-.687-3.944-7.765.843-7.351" transform="translate(-1014.884 -948.362)" fill="#f99370"/>
        <path id="Trazado_1003082" data-name="Trazado 1003082" d="M1277.42,1160.978a2.166,2.166,0,0,1-.269.7c.07-.116-4.334-.365-5.72,1.495a4.664,4.664,0,0,1-2.851-1.586c-1.227-1.351-3.788-2.337-4.959-2.774l-5.957-11.345c2.9-1.12,20.734,5.029,19.755,13.509" transform="translate(-1028.706 -938.463)" fill="#ce4abf"/>
        <path id="Trazado_1003083" data-name="Trazado 1003083" d="M1192.175,1290.469c.1,1.245.182,1.972.182,1.972,12.206,4.45,23.968.06,23.968.06-.014-.508,0-1.027.024-1.559.274-5.4,2.414-12.066,1.465-18.788-1.043-7.381-3.62-11.439-3.62-11.439l-20.278,1.085c-3.177,7.273-2.2,23.115-1.74,28.668" transform="translate(-974.721 -1031.201)" fill="#eb5648"/>
        <path id="Trazado_1003084" data-name="Trazado 1003084" d="M1106.572,1013.651c-.528-.1-.57,1.172-.922,1.514a7.651,7.651,0,0,1-.548-1.671c0-1.071.067-2.14.177-3.207-.675-1.482-1.018,2.6-1.125,3h-.016a24.206,24.206,0,0,1-.475-3.331c-1.03-1.368-.411,3.159-.4,3.584l-.007,0a14.073,14.073,0,0,1-.815-3.1c-1.16-1.286-.175,3.264-.021,3.666l-.01.008a14.343,14.343,0,0,1-1.032-2.331c-1.252-1.043.159,2.772.34,3.125a10.317,10.317,0,0,0,1.713,3.319c.363.512,2-.114,2.266-.67a7.414,7.414,0,0,0,.439-1.577c.2-.526.949-1.938.433-2.33" transform="translate(-900.454 -825.881)" fill="#f99370"/>
        <path id="Trazado_1003085" data-name="Trazado 1003085" d="M1303.112,1291.071a83.674,83.674,0,0,1,.337-13.959,39.97,39.97,0,0,0-2.585-16.945l.744-.315a40.838,40.838,0,0,1,2.646,17.332,82.942,82.942,0,0,0-.338,13.807Z" transform="translate(-1064.041 -1030.494)" fill="#ce3932"/>
        <path id="Trazado_1003086" data-name="Trazado 1003086" d="M1205.262,1295.417c-1.923-14.2,1.24-30.614,1.272-30.779l.792.156c-.032.163-3.169,16.448-1.265,30.515Z" transform="translate(-985.336 -1034.41)" fill="#ce3932"/>
        <path id="Trazado_1003087" data-name="Trazado 1003087" d="M1225.721,1297.883c-.674-10.732.8-30.925.817-31.128l.805.059c-.015.2-1.486,20.341-.816,31.018Z" transform="translate(-1002.433 -1036.14)" fill="#ce3932"/>
        <path id="Trazado_1003088" data-name="Trazado 1003088" d="M1246.436,1297.871c0-.08-.016-8.081.591-14.961a127.884,127.884,0,0,0,0-16.086l.806-.054a128.72,128.72,0,0,1,0,16.211c-.6,6.844-.588,14.808-.588,14.888Z" transform="translate(-1019.521 -1036.153)" fill="#ce3932"/>
        <path id="Trazado_1003089" data-name="Trazado 1003089" d="M1269.185,1296.935c0-.076-.254-7.664,0-14.952a99.275,99.275,0,0,0-1.21-16.242l.8-.131a100.192,100.192,0,0,1,1.22,16.4c-.253,7.259,0,14.821,0,14.9Z" transform="translate(-1037.139 -1035.205)" fill="#ce3932"/>
        <path id="Trazado_1003090" data-name="Trazado 1003090" d="M1285.69,1294.464a95.8,95.8,0,0,1-.114-11.23c.035-1.408.074-3,.106-4.754a60.741,60.741,0,0,0-1.881-14.788l.779-.212a61.614,61.614,0,0,1,1.91,15.015c-.032,1.753-.071,3.35-.106,4.759a93.9,93.9,0,0,0,.111,11.135Z" transform="translate(-1050.083 -1033.461)" fill="#ce3932"/>
        <rect id="Rectángulo_456470" data-name="Rectángulo 456470" width="3.474" height="4.472" transform="translate(225.112 205.149) rotate(-5.291)" fill="#f99370"/>
        <path id="Trazado_1003091" data-name="Trazado 1003091" d="M1225.618,1067.462c.346,6.818-10.642,6.831-10.2-.09.024-1.365.425-2.31.452-4.487a4.158,4.158,0,0,1,8.254-.8c.441,2.036,1.332,3.484,1.492,5.379" transform="translate(-994.141 -865.907)" fill="#f99370"/>
        <path id="Trazado_1003092" data-name="Trazado 1003092" d="M1300.378,1200.473a4.142,4.142,0,0,0-.569.549,4.417,4.417,0,0,1-2.851-1.586c-1.05-1.216-3.648-2.281-4.6-2.643l1.012-3.184a24.329,24.329,0,0,1,4.018,4.772c1.332,2.31,2.914,2.1,2.99,2.092" transform="translate(-1057.083 -976.311)" fill="#a523a2"/>
        <path id="Trazado_1003093" data-name="Trazado 1003093" d="M1223.554,1167.392s-8.318,3.073-20.278,1.085a48.686,48.686,0,0,1,.473-12.025c1.586-11.874,15.347-15.545,17.673,3.61a22.689,22.689,0,0,0,2.132,7.33" transform="translate(-984.081 -937.877)" fill="#ce4abf"/>
        <path id="Trazado_1003094" data-name="Trazado 1003094" d="M1142.748,1108.383l-5.84,9.169c-7.482-2.19-16.368-8.954-15.45-14.818h0a3.266,3.266,0,0,1,.564-1.212,6.437,6.437,0,0,0,5.017-2.46c5.123,1.163,4.569,8.582,15.707,9.321" transform="translate(-917.243 -898.976)" fill="#ce4abf"/>
        <path id="Trazado_1003095" data-name="Trazado 1003095" d="M1215.754,1050.325s-2.618.868.166,5.056c1.721,2.59-2.668,6.509.852,10.023,8.167,10.74,31.495,5.284,18.778-6.256-3.813-2.05-3.648-4.148-4.927-6.784-1.7-3.511-9.435-10.111-14.868-2.04" transform="translate(-993.512 -855.967)" fill="#662948"/>
        <path id="Trazado_1003096" data-name="Trazado 1003096" d="M1334.234,1220.115a2.161,2.161,0,0,1-.268.7c.07-.115-4.334-.365-5.72,1.5a3.639,3.639,0,0,1-1.122-.3,6.135,6.135,0,0,1,7.11-1.893" transform="translate(-1085.519 -997.599)" fill="#a523a2"/>
        <path id="Trazado_1003097" data-name="Trazado 1003097" d="M1128.868,1099.666c-3.84,4.28-7.107,3.067-7.107,3.067a3.266,3.266,0,0,1,.564-1.212,6.436,6.436,0,0,0,5.017-2.46,3.526,3.526,0,0,1,1.526.6" transform="translate(-917.544 -898.975)" fill="#a523a2"/>
        <path id="Trazado_1003098" data-name="Trazado 1003098" d="M1205.813,1191.928c-.075.2-2.5,6.713-2.512,11.067a48.492,48.492,0,0,1,.586-9.484,5.958,5.958,0,0,0,1.927-1.583" transform="translate(-984.219 -974.936)" fill="#a523a2"/>
        <path id="Trazado_1003099" data-name="Trazado 1003099" d="M1194.471,1424.148c.1,1.245.182,1.972.182,1.972,12.206,4.45,23.969.06,23.969.06-.014-.508,0-1.027.024-1.558l0,0s-12.993,3.814-24.172-.471" transform="translate(-977.017 -1164.88)" fill="#ce3932"/>
      </g>
    </g>
  </g>
</svg>
