<svg xmlns="http://www.w3.org/2000/svg" xmlns:xlink="http://www.w3.org/1999/xlink" width="84" height="84" viewBox="0 0 84 84">
  <defs>
    <clipPath id="clip-path">
      <rect id="Rectángulo_456496" data-name="Rectángulo 456496" width="63.48" height="63.498" fill="#12263f"/>
    </clipPath>
  </defs>
  <g id="Grupo_1191896" data-name="Grupo 1191896" transform="translate(-706 -1685.277)">
    <g id="Grupo_1177731" data-name="Grupo 1177731">
      <g id="Grupo_1119665" data-name="Grupo 1119665" transform="translate(530.111 -3835.723)">
        <path id="Trazado_991847" data-name="Trazado 991847" d="M5,0H79a5,5,0,0,1,5,5V79a5,5,0,0,1-5,5H5a5,5,0,0,1-5-5V5A5,5,0,0,1,5,0Z" transform="translate(175.889 5521)" fill="#a0f7fe"/>
      </g>
      <g id="Grupo_1192101" data-name="Grupo 1192101" transform="translate(716.26 1695.528)">
        <g id="Grupo_1192100" data-name="Grupo 1192100" clip-path="url(#clip-path)">
          <path id="Trazado_1003469" data-name="Trazado 1003469" d="M34.052,63.154c-2.754,1.263-4.139-1.37-4.62-1.139a3.526,3.526,0,0,1-3.25.02c-.941-.449-1.362-1.639-1.694-2.579-1.485-.4-2.92-1.292-2.948-3.138a3.245,3.245,0,0,1-3.1-3.039,3.314,3.314,0,0,1-3.068-3.084l-2.921-1.816c-.287.154-.313.384-.485.715a5.565,5.565,0,0,1-1.988.01L0,45.788l0-21.188c1.128.129,2.386-.414,3.325.088l5.161,2.759a7.472,7.472,0,0,0,3.021-.857C8.809,24.7,8.159,22.163,8.1,19.24c-.091-4.414,2.959-8.137,7.589-7.954L14.614,8.668l5.393-5.4,3.215,2a28.448,28.448,0,0,1,3.819-1.579l.8-3.668L35.579,0l.855,3.685a27.614,27.614,0,0,1,3.808,1.6l3.216-2.006L48.819,8.6,47.8,11.283a7.112,7.112,0,0,1,6.7,4.054,9.75,9.75,0,0,1,.823,4.5c.046,5.039-3.2,6.06-3.1,6.838.052.388,4.606,1.148,5.544,1.7l3.383-1.748a12.3,12.3,0,0,1,2.307.012l.018,14.932L45.068,50.793a3.251,3.251,0,0,1-3.1,3.468A3.2,3.2,0,0,1,38.9,57.354a3.2,3.2,0,0,1-3.068,3.069,3.189,3.189,0,0,1-1.781,2.73M43,13.367l2.165-1.554c.772-.554.791-1.786,1.276-2.694l-3.3-3.23-2.87,1.817A17.435,17.435,0,0,0,34.706,5.4l-.781-3.336-4.383.006-.78,3.315A17.355,17.355,0,0,0,23.2,7.716L20.334,5.889,17.013,9.122c.521.892.518,2.139,1.284,2.7l2.159,1.6A13.33,13.33,0,0,1,43,13.367m-7.854-1.2c2.834,1.6,3.829,4.438,3.809,7.458a8.12,8.12,0,0,1-3.369,7.01c5.773,2.093,4.941.664,8.185.284.168-.019.23-.23.254-.295.215-.572-3.182-1.746-3.1-6.79a10.051,10.051,0,0,1,.772-4.6,11.256,11.256,0,0,0-19.936.052,11.009,11.009,0,0,1,.792,4.938c-.07,4.651-3.252,5.814-3.1,6.4.1.4,3.6,1.147,4.128,1.11a14.825,14.825,0,0,0,4.319-1.119c-2.632-1.911-3.363-4.345-3.381-7.177s.824-5.332,3.107-6.89a7.127,7.127,0,0,1,7.521-.381M19.476,33.508a5.745,5.745,0,0,1,1.342-4.176L17.4,28.39a27.986,27.986,0,0,1,.042-3.208,5.246,5.246,0,0,0,2.874-3.648,10.66,10.66,0,0,0-.121-4.44,5.044,5.044,0,0,0-9.892.732c-.326,3.264-.067,5.737,2.978,7.366l.022,3.208-2.19.673,5.235,3.115.046,2.153a17.76,17.76,0,0,0,3.079-.833m21.694,3.35c.276.078.757-.042.767-.217.073-1.306.052-2.538.016-3.839a2.989,2.989,0,0,0-2.245-2.871l-5.88-1.488-.039-3.261a5.419,5.419,0,0,0,3.095-5.148,9.313,9.313,0,0,0-.422-3.363,5.062,5.062,0,0,0-9.784,1.1c-.39,3.015-.041,5.884,2.946,7.371a21.829,21.829,0,0,1,.019,3.294l-5.881,1.5a2.964,2.964,0,0,0-2.218,3.236,12.991,12.991,0,0,1,7,.171l4.649,1.47,1.293.169Zm2.962-1.271,10.985-5.819-4.953-1.357.011-3.212a5.322,5.322,0,0,0,3.059-4.97,11.268,11.268,0,0,0-.261-3.168,5.111,5.111,0,0,0-5.255-3.714,5.013,5.013,0,0,0-4.619,4.31c-.4,3.229-.111,5.926,2.93,7.52a30.1,30.1,0,0,1,.037,3.209l-3.422,1.027c1.889,2.231,1.167,3.622,1.489,6.175M10.148,30.9,2.893,26.684a.654.654,0,0,0-.846.136L2.056,44.3a42.465,42.465,0,0,0,4.4,1.389ZM26.487,42.849l4.056-2.366a4.018,4.018,0,0,1,4.714.444l8.935,8,17.217-8.6L61.4,28.826,42.388,38.812a5.1,5.1,0,0,1-2.2-.073L34.64,37.131a4.854,4.854,0,0,0-3.626.208l-5.575,2.784a1.53,1.53,0,0,0-.763,1.962,1.33,1.33,0,0,0,1.81.763M10.532,46.972,14.371,33.4a16.842,16.842,0,0,0-2.377-1.348L8.4,46.368a4.59,4.59,0,0,0,2.127.6m27.624,8.159a1.113,1.113,0,0,0,1.3-1.8l-5.274-4.422a9.17,9.17,0,0,1,1.3-1.525L41.295,52.1c.46.374,1.311-.037,1.523-.432a1.124,1.124,0,0,0-.161-1.335l-8.739-7.861a2.18,2.18,0,0,0-2.48-.132l-3.729,2.216a3.35,3.35,0,0,1-3.635-.086,3.433,3.433,0,0,1-1.539-3.025A3.193,3.193,0,0,1,24.1,38.551l5.284-2.739a11.73,11.73,0,0,0-7.484-.625l-6.294,1.433-2.732,9.6L16,48.078l2.154-2.152a3.332,3.332,0,0,1,3.441-.645c1.143.324,1.584,1.737,2.031,2.653,1.477.632,2.917,1.387,3.034,3.325a3.057,3.057,0,0,1,3,2.989c2.54.39,1.968,1.654,5.505,3.955a1.149,1.149,0,0,0,1.517-.377,1.084,1.084,0,0,0-.274-1.4l-5.268-4.413a5.3,5.3,0,0,1,1.307-1.539ZM21.2,48.97a1.132,1.132,0,0,0-1.684-1.511l-1.714,1.7a1.167,1.167,0,0,0-.079,1.649c1,1.13,2.553-.776,3.476-1.839m1.242,4.915,1.737-1.732a1.127,1.127,0,0,0-.009-1.672,1.154,1.154,0,0,0-1.594.061c-1.011.972-2.807,2.327-1.77,3.344a1.133,1.133,0,0,0,1.635,0m4.893,1.233a1.131,1.131,0,0,0-.164-1.624c-1.076-.784-2.281.794-3.3,1.922a1.15,1.15,0,0,0,.1,1.63c1.029.862,2.45-.833,3.372-1.928m2.99,3.177a1.172,1.172,0,0,0,.011-1.659,1.15,1.15,0,0,0-1.617.051l-1.689,1.677a1.178,1.178,0,0,0-.166,1.562c1.049,1.305,2.419-.562,3.461-1.631m2.234,3.119a1.142,1.142,0,0,0,1.052-.523c.455-.9-.373-1.7-1.207-2L31.2,60.49a1.778,1.778,0,0,0,1.363.923" transform="translate(-0.001)" fill="#12263f"/>
        </g>
      </g>
    </g>
  </g>
</svg>
